<svg xmlns="http://www.w3.org/2000/svg" xmlns:xlink="http://www.w3.org/1999/xlink" width="1032" height="416" content="&lt;mxfile host=&quot;app.diagrams.net&quot; modified=&quot;2024-07-05T10:07:31.212Z&quot; agent=&quot;Mozilla/5.0 (Windows NT 10.0; Win64; x64) AppleWebKit/537.36 (KHTML, like Gecko) Chrome/126.0.0.0 Safari/537.36&quot; etag=&quot;J05JpAcVHtIe1R2djR7j&quot; version=&quot;24.6.4&quot; type=&quot;github&quot;&gt; &lt;diagram id=&quot;23iRSUPoRavnBvh4doch&quot; name=&quot;Page-1&quot;&gt; &lt;mxGraphModel dx=&quot;1632&quot; dy=&quot;1097&quot; grid=&quot;0&quot; gridSize=&quot;10&quot; guides=&quot;1&quot; tooltips=&quot;1&quot; connect=&quot;1&quot; arrows=&quot;1&quot; fold=&quot;1&quot; page=&quot;0&quot; pageScale=&quot;1&quot; pageWidth=&quot;827&quot; pageHeight=&quot;1169&quot; background=&quot;#ffffff&quot; math=&quot;0&quot; shadow=&quot;0&quot;&gt; &lt;root&gt; &lt;mxCell id=&quot;0&quot; /&gt; &lt;mxCell id=&quot;1&quot; parent=&quot;0&quot; /&gt; &lt;mxCell id=&quot;AmJNvO47og1571tKFEbY-19&quot; value=&quot;&quot; style=&quot;rounded=0;&quot; vertex=&quot;1&quot; parent=&quot;1&quot;&gt; &lt;mxGeometry x=&quot;-183&quot; y=&quot;223&quot; width=&quot;1031&quot; height=&quot;415&quot; as=&quot;geometry&quot; /&gt; &lt;/mxCell&gt; &lt;mxCell id=&quot;AmJNvO47og1571tKFEbY-3&quot; value=&quot;&quot; style=&quot;edgeStyle=orthogonalEdgeStyle;rounded=0;orthogonalLoop=1;jettySize=auto;fontFamily=LXGW WenKai;sketch=1;curveFitting=1;jiggle=2;shadow=0;&quot; edge=&quot;1&quot; parent=&quot;1&quot; source=&quot;AmJNvO47og1571tKFEbY-1&quot; target=&quot;AmJNvO47og1571tKFEbY-2&quot;&gt; &lt;mxGeometry relative=&quot;1&quot; as=&quot;geometry&quot; /&gt; &lt;/mxCell&gt; &lt;mxCell id=&quot;AmJNvO47og1571tKFEbY-1&quot; value=&quot;根对象&amp;#xa;目录对象&amp;#xa;/Type/Catalog&quot; style=&quot;rounded=0;fontFamily=LXGW WenKai;sketch=1;curveFitting=1;jiggle=2;shadow=0;&quot; vertex=&quot;1&quot; parent=&quot;1&quot;&gt; &lt;mxGeometry x=&quot;-164&quot; y=&quot;379&quot; width=&quot;120&quot; height=&quot;60&quot; as=&quot;geometry&quot; /&gt; &lt;/mxCell&gt; &lt;mxCell id=&quot;AmJNvO47og1571tKFEbY-6&quot; value=&quot;&quot; style=&quot;edgeStyle=orthogonalEdgeStyle;rounded=0;orthogonalLoop=1;jettySize=auto;fontFamily=LXGW WenKai;sketch=1;curveFitting=1;jiggle=2;shadow=0;&quot; edge=&quot;1&quot; parent=&quot;1&quot; source=&quot;AmJNvO47og1571tKFEbY-2&quot; target=&quot;AmJNvO47og1571tKFEbY-5&quot;&gt; &lt;mxGeometry relative=&quot;1&quot; as=&quot;geometry&quot; /&gt; &lt;/mxCell&gt; &lt;mxCell id=&quot;AmJNvO47og1571tKFEbY-7&quot; value=&quot;&quot; style=&quot;edgeStyle=orthogonalEdgeStyle;rounded=0;orthogonalLoop=1;jettySize=auto;fontFamily=LXGW WenKai;sketch=1;curveFitting=1;jiggle=2;shadow=0;&quot; edge=&quot;1&quot; parent=&quot;1&quot; source=&quot;AmJNvO47og1571tKFEbY-2&quot; target=&quot;AmJNvO47og1571tKFEbY-5&quot;&gt; &lt;mxGeometry relative=&quot;1&quot; as=&quot;geometry&quot; /&gt; &lt;/mxCell&gt; &lt;mxCell id=&quot;AmJNvO47og1571tKFEbY-9&quot; style=&quot;edgeStyle=orthogonalEdgeStyle;rounded=0;orthogonalLoop=1;jettySize=auto;exitX=1;exitY=0.5;exitDx=0;exitDy=0;entryX=0;entryY=0.5;entryDx=0;entryDy=0;fontFamily=LXGW WenKai;sketch=1;curveFitting=1;jiggle=2;shadow=0;&quot; edge=&quot;1&quot; parent=&quot;1&quot; source=&quot;AmJNvO47og1571tKFEbY-2&quot; target=&quot;AmJNvO47og1571tKFEbY-8&quot;&gt; &lt;mxGeometry relative=&quot;1&quot; as=&quot;geometry&quot; /&gt; &lt;/mxCell&gt; &lt;mxCell id=&quot;AmJNvO47og1571tKFEbY-2&quot; value=&quot;表单&amp;#xa;/AcroForm&amp;#xa;&quot; style=&quot;rounded=0;fontFamily=LXGW WenKai;sketch=1;curveFitting=1;jiggle=2;shadow=0;&quot; vertex=&quot;1&quot; parent=&quot;1&quot;&gt; &lt;mxGeometry x=&quot;36&quot; y=&quot;379&quot; width=&quot;120&quot; height=&quot;60&quot; as=&quot;geometry&quot; /&gt; &lt;/mxCell&gt; &lt;mxCell id=&quot;AmJNvO47og1571tKFEbY-11&quot; value=&quot;&quot; style=&quot;edgeStyle=orthogonalEdgeStyle;rounded=0;orthogonalLoop=1;jettySize=auto;fontFamily=LXGW WenKai;sketch=1;curveFitting=1;jiggle=2;shadow=0;&quot; edge=&quot;1&quot; parent=&quot;1&quot; source=&quot;AmJNvO47og1571tKFEbY-5&quot; target=&quot;AmJNvO47og1571tKFEbY-10&quot;&gt; &lt;mxGeometry relative=&quot;1&quot; as=&quot;geometry&quot; /&gt; &lt;/mxCell&gt; &lt;mxCell id=&quot;AmJNvO47og1571tKFEbY-5&quot; value=&quot;字段数组&amp;#xa;指向对象3&amp;#xa;/Fields&quot; style=&quot;rounded=0;fontFamily=LXGW WenKai;sketch=1;curveFitting=1;jiggle=2;shadow=0;&quot; vertex=&quot;1&quot; parent=&quot;1&quot;&gt; &lt;mxGeometry x=&quot;211&quot; y=&quot;321&quot; width=&quot;120&quot; height=&quot;60&quot; as=&quot;geometry&quot; /&gt; &lt;/mxCell&gt; &lt;mxCell id=&quot;AmJNvO47og1571tKFEbY-8&quot; value=&quot;签名标记&amp;#xa;/SigFlags&quot; style=&quot;rounded=0;fontFamily=LXGW WenKai;sketch=1;curveFitting=1;jiggle=2;shadow=0;&quot; vertex=&quot;1&quot; parent=&quot;1&quot;&gt; &lt;mxGeometry x=&quot;211&quot; y=&quot;446&quot; width=&quot;120&quot; height=&quot;60&quot; as=&quot;geometry&quot; /&gt; &lt;/mxCell&gt; &lt;mxCell id=&quot;AmJNvO47og1571tKFEbY-14&quot; style=&quot;edgeStyle=orthogonalEdgeStyle;rounded=0;orthogonalLoop=1;jettySize=auto;exitX=1;exitY=0.5;exitDx=0;exitDy=0;entryX=0;entryY=0.5;entryDx=0;entryDy=0;fontFamily=LXGW WenKai;sketch=1;curveFitting=1;jiggle=2;shadow=0;&quot; edge=&quot;1&quot; parent=&quot;1&quot; source=&quot;AmJNvO47og1571tKFEbY-10&quot; target=&quot;AmJNvO47og1571tKFEbY-12&quot;&gt; &lt;mxGeometry relative=&quot;1&quot; as=&quot;geometry&quot; /&gt; &lt;/mxCell&gt; &lt;mxCell id=&quot;AmJNvO47og1571tKFEbY-10&quot; value=&quot;宽度和高度为0的小部件矩形&amp;#xa;/Type/Annot/SubType/Widget/Rec&amp;#xa;&quot; style=&quot;rounded=0;fontFamily=LXGW WenKai;sketch=1;curveFitting=1;jiggle=2;shadow=0;&quot; vertex=&quot;1&quot; parent=&quot;1&quot;&gt; &lt;mxGeometry x=&quot;412&quot; y=&quot;320&quot; width=&quot;235&quot; height=&quot;60&quot; as=&quot;geometry&quot; /&gt; &lt;/mxCell&gt; &lt;mxCell id=&quot;AmJNvO47og1571tKFEbY-16&quot; style=&quot;edgeStyle=orthogonalEdgeStyle;rounded=0;orthogonalLoop=1;jettySize=auto;exitX=0.5;exitY=1;exitDx=0;exitDy=0;entryX=0.5;entryY=0;entryDx=0;entryDy=0;fontFamily=LXGW WenKai;sketch=1;curveFitting=1;jiggle=2;shadow=0;&quot; edge=&quot;1&quot; parent=&quot;1&quot; source=&quot;AmJNvO47og1571tKFEbY-12&quot; target=&quot;AmJNvO47og1571tKFEbY-15&quot;&gt; &lt;mxGeometry relative=&quot;1&quot; as=&quot;geometry&quot; /&gt; &lt;/mxCell&gt; &lt;mxCell id=&quot;AmJNvO47og1571tKFEbY-12&quot; value=&quot;签名的字段&amp;#xa;/FT/Sig&quot; style=&quot;rounded=0;fontFamily=LXGW WenKai;sketch=1;curveFitting=1;jiggle=2;shadow=0;&quot; vertex=&quot;1&quot; parent=&quot;1&quot;&gt; &lt;mxGeometry x=&quot;699&quot; y=&quot;320&quot; width=&quot;120&quot; height=&quot;60&quot; as=&quot;geometry&quot; /&gt; &lt;/mxCell&gt; &lt;mxCell id=&quot;AmJNvO47og1571tKFEbY-18&quot; style=&quot;edgeStyle=orthogonalEdgeStyle;rounded=0;orthogonalLoop=1;jettySize=auto;exitX=0.5;exitY=1;exitDx=0;exitDy=0;entryX=0.5;entryY=0;entryDx=0;entryDy=0;fontFamily=LXGW WenKai;sketch=1;curveFitting=1;jiggle=2;shadow=0;&quot; edge=&quot;1&quot; parent=&quot;1&quot; source=&quot;AmJNvO47og1571tKFEbY-15&quot; target=&quot;AmJNvO47og1571tKFEbY-17&quot;&gt; &lt;mxGeometry relative=&quot;1&quot; as=&quot;geometry&quot; /&gt; &lt;/mxCell&gt; &lt;mxCell id=&quot;AmJNvO47og1571tKFEbY-15&quot; value=&quot;签名字段的值引用&amp;#xa;/V&quot; style=&quot;rounded=0;fontFamily=LXGW WenKai;sketch=1;curveFitting=1;jiggle=2;shadow=0;&quot; vertex=&quot;1&quot; parent=&quot;1&quot;&gt; &lt;mxGeometry x=&quot;703&quot; y=&quot;439&quot; width=&quot;120&quot; height=&quot;60&quot; as=&quot;geometry&quot; /&gt; &lt;/mxCell&gt; &lt;mxCell id=&quot;AmJNvO47og1571tKFEbY-17&quot; value=&quot;真正的签名&amp;#xa;/Contents&amp;#xa;&quot; style=&quot;rounded=0;fontFamily=LXGW WenKai;sketch=1;curveFitting=1;jiggle=2;shadow=0;&quot; vertex=&quot;1&quot; parent=&quot;1&quot;&gt; &lt;mxGeometry x=&quot;705&quot; y=&quot;545&quot; width=&quot;120&quot; height=&quot;60&quot; as=&quot;geometry&quot; /&gt; &lt;/mxCell&gt; &lt;/root&gt; &lt;/mxGraphModel&gt; &lt;/diagram&gt; &lt;/mxfile&gt;" resource="https://app.diagrams.net/#Hluguosong%2Fimages%2Fmaster%2Fdiagrams%2Fjava_serve%2Ftopics%2Fitext-signatures%2Fchapter01_understanding_the_concept_of_digital_signatures%2F%E6%95%B0%E5%AD%97%E7%AD%BE%E5%90%8D%E8%AF%AD%E6%B3%95%E7%BB%93%E6%9E%84.svg#%7B%22pageId%22%3A%2223iRSUPoRavnBvh4doch%22%7D" version="1.1" viewBox="-0.5 -0.5 1032 416" style="background-color:#fff"><rect width="100%" height="100%" x="0" y="0" fill="#fff"/><g><g data-cell-id="0"><g data-cell-id="1"><g data-cell-id="AmJNvO47og1571tKFEbY-19"><g><rect width="1031" height="415" x="0" y="0" fill="#FFF" stroke="#000" pointer-events="all"/></g></g><g data-cell-id="AmJNvO47og1571tKFEbY-3"><g><path fill="none" stroke="none" d="M 139 186 L 212.63 186" pointer-events="stroke"/><path fill="none" stroke="none" d="M 217.88 186 L 210.88 189.5 L 212.63 186 L 210.88 182.5 Z" pointer-events="all"/><path fill="none" stroke="#000" stroke-linecap="round" stroke-linejoin="round" stroke-miterlimit="10" d="M 139 186 C 159.28 186.3 177.78 186.16 212.63 186 M 139 186 C 161.69 183.72 181.43 187.55 212.63 186" pointer-events="stroke"/><path fill="none" stroke="#000" stroke-linecap="round" stroke-linejoin="round" stroke-miterlimit="10" stroke-width=".5" d="M 210.86 182.52 C 210.86 182.52 210.86 182.52 210.86 182.52 M 210.86 182.52 C 210.86 182.52 210.86 182.52 210.86 182.52 M 213.22 185.9 C 213.21 185.49 213.9 185.21 214.54 184.39 M 213.22 185.9 C 213.52 185.41 214.03 184.84 214.54 184.39" pointer-events="all"/><path fill="none" stroke="#000" stroke-linecap="round" stroke-linejoin="round" stroke-miterlimit="10" d="M 217.88 186 C 216.42 187.02 214.24 187.88 210.88 189.5 M 217.88 186 C 215.94 186.37 212.9 188.92 210.88 189.5 M 210.88 189.5 C 212.04 188.26 212.62 187.08 212.63 186 M 210.88 189.5 C 211.35 188.09 212.32 187.08 212.63 186 M 212.63 186 C 212.48 185.33 211.4 183.13 210.88 182.5 M 212.63 186 C 211.94 184.95 210.9 183.21 210.88 182.5 M 210.88 182.5 C 211.02 182.52 215.58 184.05 217.88 186 M 210.88 182.5 C 213.72 184.36 216.18 184.9 217.88 186" pointer-events="all"/></g></g><g data-cell-id="AmJNvO47og1571tKFEbY-1"><g><rect width="120" height="60" x="19" y="156" fill="none" stroke="none" pointer-events="all"/><path fill="#FFF" stroke="none" d="M 18.09 157.47 L 137.51 156.1 L 135.01 213.6 L 18.46 216.26" pointer-events="all"/><path fill="none" stroke="#000" stroke-linecap="round" stroke-linejoin="round" stroke-miterlimit="10" d="M 19 156 C 48.05 153.44 83.45 160.5 139 156 M 19 156 C 61.56 159.49 103.64 158.44 139 156 M 139 156 C 136.41 169.59 141.09 189.47 139 216 M 139 156 C 140.59 171.57 138.38 185.06 139 216 M 139 216 C 88.68 213.45 46.86 217.84 19 216 M 139 216 C 101.36 215.35 66.45 213.86 19 216 M 19 216 C 20.51 192.56 17.85 173.98 19 156 M 19 216 C 17.37 202.22 20.45 185.25 19 156" pointer-events="all"/></g><g><g fill="#000" font-family="&quot;LXGW WenKai&quot;" font-size="12" text-anchor="middle"><text x="78.5" y="176.5">根对象</text><text x="78.5" y="190.5">目录对象</text><text x="78.5" y="204.5">/Type/Catalog</text></g></g></g><g data-cell-id="AmJNvO47og1571tKFEbY-6"><g><path fill="none" stroke="none" d="M 339 186 L 366.5 186 L 366.5 128 L 387.63 128" pointer-events="stroke"/><path fill="none" stroke="none" d="M 392.88 128 L 385.88 131.5 L 387.63 128 L 385.88 124.5 Z" pointer-events="all"/><path fill="none" stroke="#000" stroke-linecap="round" stroke-linejoin="round" stroke-miterlimit="10" d="M 339 186 C 348.29 188.28 355.6 189.33 366.5 186 M 339 186 C 347.45 185.38 355.22 184.51 366.5 186 M 366.5 186 C 368.09 169.42 369.37 156.07 366.5 128 M 366.5 186 C 364.13 165.97 366.89 147.98 366.5 128 M 366.5 128 C 369.52 128.64 374.9 124.01 387.63 128 M 366.5 128 C 372.87 126.41 379.78 129.79 387.63 128" pointer-events="stroke"/><path fill="none" stroke="#000" stroke-linecap="round" stroke-linejoin="round" stroke-miterlimit="10" stroke-width=".5" d="M 386.13 124.21 C 386.13 124.21 386.13 124.21 386.13 124.21 M 386.13 124.21 C 386.13 124.21 386.13 124.21 386.13 124.21 M 387.84 128.34 C 388.81 127.52 388.78 126.31 389.81 126.08 M 387.84 128.34 C 388.01 128.08 388.86 127.34 389.81 126.08" pointer-events="all"/><path fill="none" stroke="#000" stroke-linecap="round" stroke-linejoin="round" stroke-miterlimit="10" d="M 392.88 128 C 391.91 129.66 390.09 131 385.88 131.5 M 392.88 128 C 390.53 128.9 387.95 129.67 385.88 131.5 M 385.88 131.5 C 386.46 130 387.1 129.15 387.63 128 M 385.88 131.5 C 386.06 130.09 387.17 129.08 387.63 128 M 387.63 128 C 386.99 127.52 386.86 125.91 385.88 124.5 M 387.63 128 C 386.98 126.63 386.49 126.19 385.88 124.5 M 385.88 124.5 C 388.97 124.48 388.67 127.21 392.88 128 M 385.88 124.5 C 387.67 125.59 389.5 125.25 392.88 128" pointer-events="all"/></g></g><g data-cell-id="AmJNvO47og1571tKFEbY-7"><g><path fill="none" stroke="none" d="M 339 186 L 366.5 186 L 366.5 128 L 387.63 128" pointer-events="stroke"/><path fill="none" stroke="none" d="M 392.88 128 L 385.88 131.5 L 387.63 128 L 385.88 124.5 Z" pointer-events="all"/><path fill="none" stroke="#000" stroke-linecap="round" stroke-linejoin="round" stroke-miterlimit="10" d="M 339 186 C 346.01 185.54 350.96 186.99 366.5 186 M 339 186 C 347.82 185.47 360.72 187.04 366.5 186 M 366.5 186 C 365.87 171.73 364.88 153.67 366.5 128 M 366.5 186 C 366.39 166.94 366.94 149.95 366.5 128 M 366.5 128 C 371.71 130.82 384.46 129.19 387.63 128 M 366.5 128 C 372.22 126.61 382.04 127.76 387.63 128" pointer-events="stroke"/><path fill="none" stroke="#000" stroke-linecap="round" stroke-linejoin="round" stroke-miterlimit="10" stroke-width=".5" d="M 386.13 124.21 C 386.13 124.21 386.13 124.21 386.13 124.21 M 386.13 124.21 C 386.13 124.21 386.13 124.21 386.13 124.21 M 387.84 128.34 C 388.18 127.15 388.86 127.43 389.81 126.08 M 387.84 128.34 C 388.31 127.81 388.98 126.86 389.81 126.08" pointer-events="all"/><path fill="none" stroke="#000" stroke-linecap="round" stroke-linejoin="round" stroke-miterlimit="10" d="M 392.88 128 C 390.88 129.02 388.15 130.51 385.88 131.5 M 392.88 128 C 389.41 129.4 387.56 131.38 385.88 131.5 M 385.88 131.5 C 386.28 130.75 386.54 129.25 387.63 128 M 385.88 131.5 C 386.49 130.06 387.12 129.06 387.63 128 M 387.63 128 C 386.48 127.4 386.84 125.81 385.88 124.5 M 387.63 128 C 386.66 126.54 386.5 125.53 385.88 124.5 M 385.88 124.5 C 388.9 124.93 389.99 126.44 392.88 128 M 385.88 124.5 C 389.15 126.04 390.61 127.66 392.88 128" pointer-events="all"/></g></g><g data-cell-id="AmJNvO47og1571tKFEbY-9"><g><path fill="none" stroke="none" d="M 339 186 L 366.5 186 L 366.5 253 L 387.63 253" pointer-events="stroke"/><path fill="none" stroke="none" d="M 392.88 253 L 385.88 256.5 L 387.63 253 L 385.88 249.5 Z" pointer-events="all"/><path fill="none" stroke="#000" stroke-linecap="round" stroke-linejoin="round" stroke-miterlimit="10" d="M 339 186 C 349.44 190.28 349.68 184.52 366.5 186 M 339 186 C 347.06 186.77 356.73 185.21 366.5 186 M 366.5 186 C 366.23 209.53 368.67 231.24 366.5 253 M 366.5 186 C 366.89 203.73 367.04 219.57 366.5 253 M 366.5 253 C 375.65 253.04 378.68 249.41 387.63 253 M 366.5 253 C 370.69 252 378.11 252.7 387.63 253" pointer-events="stroke"/><path fill="none" stroke="#000" stroke-linecap="round" stroke-linejoin="round" stroke-miterlimit="10" stroke-width=".5" d="M 385.7 249.71 C 385.7 249.71 385.7 249.71 385.7 249.71 M 385.7 249.71 C 385.7 249.71 385.7 249.71 385.7 249.71 M 388.06 253.08 C 388.25 252.65 388.86 252.43 389.38 251.58 M 388.06 253.08 C 388.31 252.53 388.8 252.21 389.38 251.58" pointer-events="all"/><path fill="none" stroke="#000" stroke-linecap="round" stroke-linejoin="round" stroke-miterlimit="10" d="M 392.88 253 C 392.25 255.31 387.67 253.98 385.88 256.5 M 392.88 253 C 390.12 254.43 388 254.98 385.88 256.5 M 385.88 256.5 C 386.08 255.61 387.13 254.38 387.63 253 M 385.88 256.5 C 386.7 255.87 387.16 254.87 387.63 253 M 387.63 253 C 387.72 251.93 386.63 250.22 385.88 249.5 M 387.63 253 C 387.01 252.08 387.08 251.4 385.88 249.5 M 385.88 249.5 C 388.79 249.44 389.89 250.23 392.88 253 M 385.88 249.5 C 387.88 250.8 388.92 251.84 392.88 253" pointer-events="all"/></g></g><g data-cell-id="AmJNvO47og1571tKFEbY-2"><g><rect width="120" height="60" x="219" y="156" fill="none" stroke="none" pointer-events="all"/><path fill="#FFF" stroke="none" d="M 221.14 153.93 L 337.73 159.53 L 338.66 218.65 L 217.64 212.23" pointer-events="all"/><path fill="none" stroke="#000" stroke-linecap="round" stroke-linejoin="round" stroke-miterlimit="10" d="M 219 156 C 253.76 156.48 278.81 155.94 339 156 M 219 156 C 244.59 158.47 274.47 155.86 339 156 M 339 156 C 342.78 176.05 337.18 187.37 339 216 M 339 156 C 339.26 169.63 338.84 181.19 339 216 M 339 216 C 300.08 216.14 250.83 215.53 219 216 M 339 216 C 298.93 216.11 257.16 216.39 219 216 M 219 216 C 218.33 196.07 216.73 184.68 219 156 M 219 216 C 217.55 204.97 216.97 190.59 219 156" pointer-events="all"/></g><g><g fill="#000" font-family="&quot;LXGW WenKai&quot;" font-size="12" text-anchor="middle"><text x="278.5" y="176.5">表单</text><text x="278.5" y="190.5">/AcroForm</text></g></g></g><g data-cell-id="AmJNvO47og1571tKFEbY-11"><g><path fill="none" stroke="none" d="M 514 128 L 554.5 128 L 554.5 127 L 588.63 127" pointer-events="stroke"/><path fill="none" stroke="none" d="M 593.88 127 L 586.88 130.5 L 588.63 127 L 586.88 123.5 Z" pointer-events="all"/><path fill="none" stroke="#000" stroke-linecap="round" stroke-linejoin="round" stroke-miterlimit="10" d="M 514 128 C 530.42 131.49 540.43 129.85 554.5 128 M 514 128 C 527.79 129.87 544.23 128.69 554.5 128 M 554.5 128 C 554.63 127.59 554.3 127.75 554.5 127 M 554.5 128 C 554.59 127.69 554.56 127.21 554.5 127 M 554.5 127 C 568.1 125.67 578.73 128.44 588.63 127 M 554.5 127 C 567.93 126.98 580.66 127.62 588.63 127" pointer-events="stroke"/><path fill="none" stroke="#000" stroke-linecap="round" stroke-linejoin="round" stroke-miterlimit="10" stroke-width=".5" d="M 586.73 123.68 C 586.73 123.68 586.73 123.68 586.73 123.68 M 586.73 123.68 C 586.73 123.68 586.73 123.68 586.73 123.68 M 589.09 127.06 C 589.67 126.43 590.1 126.27 590.4 125.55 M 589.09 127.06 C 589.46 126.59 590.05 125.94 590.4 125.55" pointer-events="all"/><path fill="none" stroke="#000" stroke-linecap="round" stroke-linejoin="round" stroke-miterlimit="10" d="M 593.88 127 C 592.18 129.41 588.02 130.01 586.88 130.5 M 593.88 127 C 590.67 128.69 588.49 129.55 586.88 130.5 M 586.88 130.5 C 587.79 129 586.88 129.73 588.63 127 M 586.88 130.5 C 587.88 129.49 588.4 127.74 588.63 127 M 588.63 127 C 588.73 125.67 588.24 125.14 586.88 123.5 M 588.63 127 C 588.27 125.9 587.74 124.77 586.88 123.5 M 586.88 123.5 C 590.03 123.94 589.06 125.42 593.88 127 M 586.88 123.5 C 589.24 124.64 591.58 126.41 593.88 127" pointer-events="all"/></g></g><g data-cell-id="AmJNvO47og1571tKFEbY-5"><g><rect width="120" height="60" x="394" y="98" fill="none" stroke="none" pointer-events="all"/><path fill="#FFF" stroke="none" d="M 397.3 101.3 L 513.41 95.8 L 516.6 159.82 L 390.2 158.14" pointer-events="all"/><path fill="none" stroke="#000" stroke-linecap="round" stroke-linejoin="round" stroke-miterlimit="10" d="M 394 98 C 421.91 93.21 455.9 93.86 514 98 M 394 98 C 424.68 98.21 453.93 98.91 514 98 M 514 98 C 515.3 121.41 510.86 147.05 514 158 M 514 98 C 514.26 117.79 515.22 139.59 514 158 M 514 158 C 485.28 158.22 453.75 158.6 394 158 M 514 158 C 482.66 156.4 448.3 158 394 158 M 394 158 C 392.4 136.62 393.98 118.75 394 98 M 394 158 C 393.89 143.2 394.3 124.59 394 98" pointer-events="all"/></g><g><g fill="#000" font-family="&quot;LXGW WenKai&quot;" font-size="12" text-anchor="middle"><text x="453.5" y="118.5">字段数组</text><text x="453.5" y="132.5">指向对象3</text><text x="453.5" y="146.5">/Fields</text></g></g></g><g data-cell-id="AmJNvO47og1571tKFEbY-8"><g><rect width="120" height="60" x="394" y="223" fill="none" stroke="none" pointer-events="all"/><path fill="#FFF" stroke="none" d="M 390.45 223.67 L 514.09 223.08 L 511.55 283.99 L 395.75 279.05" pointer-events="all"/><path fill="none" stroke="#000" stroke-linecap="round" stroke-linejoin="round" stroke-miterlimit="10" d="M 394 223 C 423.05 220.93 457.98 222.78 514 223 M 394 223 C 425.78 224.95 458.4 224.95 514 223 M 514 223 C 512.82 237.77 517.54 257.74 514 283 M 514 223 C 514.26 240.95 516.61 256.99 514 283 M 514 283 C 471.47 278.5 433.67 279.87 394 283 M 514 283 C 467.38 283.68 420.44 282.61 394 283 M 394 283 C 391.46 260.17 396.23 243.82 394 223 M 394 283 C 392.83 264.44 394.24 245.6 394 223" pointer-events="all"/></g><g><g fill="#000" font-family="&quot;LXGW WenKai&quot;" font-size="12" text-anchor="middle"><text x="453.5" y="250.5">签名标记</text><text x="453.5" y="264.5">/SigFlags</text></g></g></g><g data-cell-id="AmJNvO47og1571tKFEbY-14"><g><path fill="none" stroke="none" d="M 830 127 L 875.63 127" pointer-events="stroke"/><path fill="none" stroke="none" d="M 880.88 127 L 873.88 130.5 L 875.63 127 L 873.88 123.5 Z" pointer-events="all"/><path fill="none" stroke="#000" stroke-linecap="round" stroke-linejoin="round" stroke-miterlimit="10" d="M 830 127 C 849.38 124.67 862.14 124.23 875.63 127 M 830 127 C 849.63 126.4 866.19 128.53 875.63 127" pointer-events="stroke"/><path fill="none" stroke="#000" stroke-linecap="round" stroke-linejoin="round" stroke-miterlimit="10" stroke-width=".5" d="M 874.19 123.14 C 874.19 123.14 874.19 123.14 874.19 123.14 M 874.19 123.14 C 874.19 123.14 874.19 123.14 874.19 123.14 M 875.9 127.27 C 876.09 126.5 876.46 125.93 877.87 125.01 M 875.9 127.27 C 876.18 126.44 877.15 126.19 877.87 125.01" pointer-events="all"/><path fill="none" stroke="#000" stroke-linecap="round" stroke-linejoin="round" stroke-miterlimit="10" d="M 880.88 127 C 879.66 126.92 875.87 127.99 873.88 130.5 M 880.88 127 C 878.83 127.66 875.54 129.87 873.88 130.5 M 873.88 130.5 C 874.56 129.6 875.62 128.4 875.63 127 M 873.88 130.5 C 874.59 129.42 874.46 128.46 875.63 127 M 875.63 127 C 874.89 125.15 875.01 124.52 873.88 123.5 M 875.63 127 C 875.31 126.29 874.55 124.9 873.88 123.5 M 873.88 123.5 C 876.85 124.18 877.28 126.85 880.88 127 M 873.88 123.5 C 876.59 124.57 879.7 126.16 880.88 127" pointer-events="all"/></g></g><g data-cell-id="AmJNvO47og1571tKFEbY-10"><g><rect width="235" height="60" x="595" y="97" fill="none" stroke="none" pointer-events="all"/><path fill="#FFF" stroke="none" d="M 593.23 100.51 L 826.59 96.56 L 833.42 157.24 L 595.09 155.61" pointer-events="all"/><path fill="none" stroke="#000" stroke-linecap="round" stroke-linejoin="round" stroke-miterlimit="10" d="M 595 97 C 675.03 93.16 763.19 98.18 830 97 M 595 97 C 666.83 95.26 736.9 95.58 830 97 M 830 97 C 833.19 120.12 828.83 145.65 830 157 M 830 97 C 829.79 122.37 831.32 144.13 830 157 M 830 157 C 746.24 153.09 669.11 152.9 595 157 M 830 157 C 754.42 160.19 681.98 159.23 595 157 M 595 157 C 594.92 139 595.24 119.67 595 97 M 595 157 C 593.16 133.62 592.66 111.88 595 97" pointer-events="all"/></g><g><g fill="#000" font-family="&quot;LXGW WenKai&quot;" font-size="12" text-anchor="middle"><text x="712" y="117.5">宽度和高度为0的小部件矩形</text><text x="712" y="131.5">/Type/Annot/SubType/Widget/Rec</text></g></g></g><g data-cell-id="AmJNvO47og1571tKFEbY-16"><g><path fill="none" stroke="none" d="M 942 157 L 942 186.5 L 946 186.5 L 946 209.63" pointer-events="stroke"/><path fill="none" stroke="none" d="M 946 214.88 L 942.5 207.88 L 946 209.63 L 949.5 207.88 Z" pointer-events="all"/><path fill="none" stroke="#000" stroke-linecap="round" stroke-linejoin="round" stroke-miterlimit="10" d="M 942 157 C 940.77 168.22 940.69 179 942 186.5 M 942 157 C 941 166.31 941.92 175.27 942 186.5 M 942 186.5 C 943.44 186.97 944.62 185.84 946 186.5 M 942 186.5 C 942.63 186.31 943.67 186.21 946 186.5 M 946 186.5 C 942.75 195.68 946.75 204.67 946 209.63 M 946 186.5 C 947.67 192.91 946.41 202.8 946 209.63" pointer-events="stroke"/><path fill="none" stroke="#000" stroke-linecap="round" stroke-linejoin="round" stroke-miterlimit="10" stroke-width=".5" d="M 942.59 207.77 C 942.59 207.77 942.59 207.77 942.59 207.77 M 942.59 207.77 C 942.59 207.77 942.59 207.77 942.59 207.77 M 944.3 211.91 C 944.82 211.23 945.81 210.77 946.27 209.64 M 944.3 211.91 C 944.79 210.92 945.61 210.09 946.27 209.64" pointer-events="all"/><path fill="none" stroke="#000" stroke-linecap="round" stroke-linejoin="round" stroke-miterlimit="10" d="M 946 214.88 C 944.22 212.69 942.95 210.35 942.5 207.88 M 946 214.88 C 944.09 212.29 943.28 209.54 942.5 207.88 M 942.5 207.88 C 943.72 209.03 944.71 208.62 946 209.63 M 942.5 207.88 C 942.99 208.12 943.91 208.45 946 209.63 M 946 209.63 C 946.55 209.4 948.43 209.2 949.5 207.88 M 946 209.63 C 947.59 208.61 948.61 208.27 949.5 207.88 M 949.5 207.88 C 947.07 209.87 948.52 213.7 946 214.88 M 949.5 207.88 C 947.78 209.58 947.31 211.63 946 214.88" pointer-events="all"/></g></g><g data-cell-id="AmJNvO47og1571tKFEbY-12"><g><rect width="120" height="60" x="882" y="97" fill="none" stroke="none" pointer-events="all"/><path fill="#FFF" stroke="none" d="M 878.33 93.42 L 999.04 95.41 L 1004.72 159.35 L 880.46 155.55" pointer-events="all"/><path fill="none" stroke="#000" stroke-linecap="round" stroke-linejoin="round" stroke-miterlimit="10" d="M 882 97 C 924.24 96.19 967.99 94.96 1002 97 M 882 97 C 912.81 99.09 943.04 96.35 1002 97 M 1002 97 C 1004.33 113.02 1003.42 125.44 1002 157 M 1002 97 C 1003.13 118.47 1004.25 136.4 1002 157 M 1002 157 C 971.98 158.24 936.17 156.01 882 157 M 1002 157 C 953.83 155.83 904.52 154.24 882 157 M 882 157 C 883.16 134.03 885.6 109.05 882 97 M 882 157 C 882.92 139.11 883.08 122.56 882 97" pointer-events="all"/></g><g><g fill="#000" font-family="&quot;LXGW WenKai&quot;" font-size="12" text-anchor="middle"><text x="941.5" y="124.5">签名的字段</text><text x="941.5" y="138.5">/FT/Sig</text></g></g></g><g data-cell-id="AmJNvO47og1571tKFEbY-18"><g><path fill="none" stroke="none" d="M 946 276 L 946 299 L 948 299 L 948 315.63" pointer-events="stroke"/><path fill="none" stroke="none" d="M 948 320.88 L 944.5 313.88 L 948 315.63 L 951.5 313.88 Z" pointer-events="all"/><path fill="none" stroke="#000" stroke-linecap="round" stroke-linejoin="round" stroke-miterlimit="10" d="M 946 276 C 948.34 280.77 943.55 290.06 946 299 M 946 276 C 944.87 282.69 944.1 289.03 946 299 M 946 299 C 946.31 299.27 946.99 298.97 948 299 M 946 299 C 946.71 298.77 947.49 299.03 948 299 M 948 299 C 949.89 301.65 946.49 305.36 948 315.63 M 948 299 C 947.06 301.88 949.42 306.82 948 315.63" pointer-events="stroke"/><path fill="none" stroke="#000" stroke-linecap="round" stroke-linejoin="round" stroke-miterlimit="10" stroke-width=".5" d="M 944.39 314.01 C 944.39 314.01 944.39 314.01 944.39 314.01 M 944.39 314.01 C 944.39 314.01 944.39 314.01 944.39 314.01 M 946.75 317.39 C 947.12 317.24 947.93 316.53 948.06 315.88 M 946.75 317.39 C 947.02 316.92 947.6 316.29 948.06 315.88" pointer-events="all"/><path fill="none" stroke="#000" stroke-linecap="round" stroke-linejoin="round" stroke-miterlimit="10" d="M 948 320.88 C 947.52 317.09 944.4 315.07 944.5 313.88 M 948 320.88 C 946.84 318.96 945.55 316.94 944.5 313.88 M 944.5 313.88 C 944.99 314.88 946.2 314.76 948 315.63 M 944.5 313.88 C 945.71 314.13 947.07 315.33 948 315.63 M 948 315.63 C 949.38 314.97 949.4 314.51 951.5 313.88 M 948 315.63 C 948.56 314.9 949.97 314.68 951.5 313.88 M 951.5 313.88 C 950.4 315.03 949.96 317.72 948 320.88 M 951.5 313.88 C 951.08 314.8 949.65 315.92 948 320.88" pointer-events="all"/></g></g><g data-cell-id="AmJNvO47og1571tKFEbY-15"><g><rect width="120" height="60" x="886" y="216" fill="none" stroke="none" pointer-events="all"/><path fill="#FFF" stroke="none" d="M 883.49 217.79 L 1003.72 216.69 L 1003.66 277.52 L 882.01 278.46" pointer-events="all"/><path fill="none" stroke="#000" stroke-linecap="round" stroke-linejoin="round" stroke-miterlimit="10" d="M 886 216 C 929.38 217.92 974.08 217.88 1006 216 M 886 216 C 917.9 215.83 951.5 216.4 1006 216 M 1006 216 C 1005.85 235.38 1006.1 262.13 1006 276 M 1006 216 C 1004.73 231.63 1003.23 247.79 1006 276 M 1006 276 C 962.18 277.32 920.09 276.08 886 276 M 1006 276 C 966.56 277.11 928.66 276.84 886 276 M 886 276 C 886.23 251.58 883.85 228.12 886 216 M 886 276 C 888.26 254.34 885.42 233.56 886 216" pointer-events="all"/></g><g><g fill="#000" font-family="&quot;LXGW WenKai&quot;" font-size="12" text-anchor="middle"><text x="945.5" y="243.5">签名字段的值引用</text><text x="945.5" y="257.5">/V</text></g></g></g><g data-cell-id="AmJNvO47og1571tKFEbY-17"><g><rect width="120" height="60" x="888" y="322" fill="none" stroke="none" pointer-events="all"/><path fill="#FFF" stroke="none" d="M 891.59 324.71 L 1006.18 321.54 L 1004.96 385.63 L 890.38 384.4" pointer-events="all"/><path fill="none" stroke="#000" stroke-linecap="round" stroke-linejoin="round" stroke-miterlimit="10" d="M 888 322 C 926.81 318.8 974.8 319.56 1008 322 M 888 322 C 913.97 319.79 939.15 321.23 1008 322 M 1008 322 C 1007 334.29 1010.69 347.92 1008 382 M 1008 322 C 1008.06 333.74 1006.15 350.06 1008 382 M 1008 382 C 978.98 375.9 946.04 380.66 888 382 M 1008 382 C 983.71 380.64 960.09 383.92 888 382 M 888 382 C 889.47 364.61 889.22 347.5 888 322 M 888 382 C 886.62 365.83 888.44 350.23 888 322" pointer-events="all"/></g><g><g fill="#000" font-family="&quot;LXGW WenKai&quot;" font-size="12" text-anchor="middle"><text x="947.5" y="342.5">真正的签名</text><text x="947.5" y="356.5">/Contents</text></g></g></g></g></g></g></svg>