<svg xmlns="http://www.w3.org/2000/svg" xmlns:xlink="http://www.w3.org/1999/xlink" width="868" height="429" content="&lt;mxfile host=&quot;app.diagrams.net&quot; modified=&quot;2024-05-29T09:29:24.476Z&quot; agent=&quot;Mozilla/5.0 (Windows NT 10.0; Win64; x64) AppleWebKit/537.36 (KHTML, like Gecko) Chrome/125.0.0.0 Safari/537.36&quot; etag=&quot;hVeqVUs3af9nW8tEcLOo&quot; version=&quot;24.4.9&quot; type=&quot;github&quot;&gt; &lt;diagram id=&quot;23iRSUPoRavnBvh4doch&quot; name=&quot;Page-1&quot;&gt; &lt;mxGraphModel dx=&quot;2021&quot; dy=&quot;725&quot; grid=&quot;0&quot; gridSize=&quot;10&quot; guides=&quot;1&quot; tooltips=&quot;1&quot; connect=&quot;1&quot; arrows=&quot;1&quot; fold=&quot;1&quot; page=&quot;0&quot; pageScale=&quot;1&quot; pageWidth=&quot;827&quot; pageHeight=&quot;1169&quot; math=&quot;0&quot; shadow=&quot;0&quot;&gt; &lt;root&gt; &lt;mxCell id=&quot;0&quot; /&gt; &lt;mxCell id=&quot;1&quot; parent=&quot;0&quot; /&gt; &lt;mxCell id=&quot;PlhUNaWbmzm0HPJQHhij-37&quot; value=&quot;&quot; style=&quot;rounded=0;sketch=1;hachureGap=4;jiggle=2;curveFitting=1;fontFamily=Architects Daughter;fontSource=https%3A%2F%2Ffonts.googleapis.com%2Fcss%3Ffamily%3DArchitects%2BDaughter;&quot; parent=&quot;1&quot; vertex=&quot;1&quot;&gt; &lt;mxGeometry x=&quot;-687&quot; y=&quot;307&quot; width=&quot;867&quot; height=&quot;428&quot; as=&quot;geometry&quot; /&gt; &lt;/mxCell&gt; &lt;mxCell id=&quot;PlhUNaWbmzm0HPJQHhij-1&quot; value=&quot;Controller(控制器)&quot; style=&quot;swimlane;sketch=1;hachureGap=4;jiggle=2;curveFitting=1;fontFamily=LXGW WenKai;fontSize=15;strokeColor=#E07A5F;align=center;verticalAlign=middle;fontColor=#393C56;fontStyle=1;fillColor=#F2CC8F;labelBackgroundColor=none;&quot; parent=&quot;1&quot; vertex=&quot;1&quot;&gt; &lt;mxGeometry x=&quot;-553&quot; y=&quot;336&quot; width=&quot;297&quot; height=&quot;212&quot; as=&quot;geometry&quot; /&gt; &lt;/mxCell&gt; &lt;mxCell id=&quot;PlhUNaWbmzm0HPJQHhij-2&quot; value=&quot;Servlet&quot; style=&quot;swimlane;fontStyle=0;childLayout=stackLayout;horizontal=1;startSize=30;horizontalStack=0;resizeParent=1;resizeParentMax=0;resizeLast=0;collapsible=1;marginBottom=0;sketch=1;hachureGap=4;jiggle=2;curveFitting=1;fontFamily=LXGW WenKai;&quot; parent=&quot;PlhUNaWbmzm0HPJQHhij-1&quot; vertex=&quot;1&quot;&gt; &lt;mxGeometry x=&quot;71&quot; y=&quot;64&quot; width=&quot;140&quot; height=&quot;120&quot; as=&quot;geometry&quot; /&gt; &lt;/mxCell&gt; &lt;mxCell id=&quot;PlhUNaWbmzm0HPJQHhij-3&quot; value=&quot;接收请求数据&quot; style=&quot;text;strokeColor=none;fillColor=none;align=left;verticalAlign=middle;spacingLeft=4;spacingRight=4;overflow=hidden;points=[[0,0.5],[1,0.5]];portConstraint=eastwest;rotatable=0;fontFamily=LXGW WenKai;&quot; parent=&quot;PlhUNaWbmzm0HPJQHhij-2&quot; vertex=&quot;1&quot;&gt; &lt;mxGeometry y=&quot;30&quot; width=&quot;140&quot; height=&quot;30&quot; as=&quot;geometry&quot; /&gt; &lt;/mxCell&gt; &lt;mxCell id=&quot;PlhUNaWbmzm0HPJQHhij-4&quot; value=&quot;调度Moel处理业务&quot; style=&quot;text;strokeColor=none;fillColor=none;align=left;verticalAlign=middle;spacingLeft=4;spacingRight=4;overflow=hidden;points=[[0,0.5],[1,0.5]];portConstraint=eastwest;rotatable=0;fontFamily=LXGW WenKai;&quot; parent=&quot;PlhUNaWbmzm0HPJQHhij-2&quot; vertex=&quot;1&quot;&gt; &lt;mxGeometry y=&quot;60&quot; width=&quot;140&quot; height=&quot;30&quot; as=&quot;geometry&quot; /&gt; &lt;/mxCell&gt; &lt;mxCell id=&quot;PlhUNaWbmzm0HPJQHhij-5&quot; value=&quot;调度View做页面展示&quot; style=&quot;text;strokeColor=none;fillColor=none;align=left;verticalAlign=middle;spacingLeft=4;spacingRight=4;overflow=hidden;points=[[0,0.5],[1,0.5]];portConstraint=eastwest;rotatable=0;fontFamily=LXGW WenKai;&quot; parent=&quot;PlhUNaWbmzm0HPJQHhij-2&quot; vertex=&quot;1&quot;&gt; &lt;mxGeometry y=&quot;90&quot; width=&quot;140&quot; height=&quot;30&quot; as=&quot;geometry&quot; /&gt; &lt;/mxCell&gt; &lt;mxCell id=&quot;PlhUNaWbmzm0HPJQHhij-6&quot; value=&quot;View(视图)&quot; style=&quot;swimlane;sketch=1;hachureGap=4;jiggle=2;curveFitting=1;fontFamily=LXGW WenKai;fontSize=15;strokeColor=#E07A5F;align=center;verticalAlign=middle;fontColor=#393C56;fontStyle=1;fillColor=#F2CC8F;labelBackgroundColor=none;&quot; parent=&quot;1&quot; vertex=&quot;1&quot;&gt; &lt;mxGeometry x=&quot;-207&quot; y=&quot;497&quot; width=&quot;164&quot; height=&quot;205&quot; as=&quot;geometry&quot; /&gt; &lt;/mxCell&gt; &lt;mxCell id=&quot;PlhUNaWbmzm0HPJQHhij-19&quot; value=&quot;JSP&quot; style=&quot;swimlane;fontStyle=0;childLayout=stackLayout;horizontal=1;startSize=30;horizontalStack=0;resizeParent=1;resizeParentMax=0;resizeLast=0;collapsible=1;marginBottom=0;sketch=1;hachureGap=4;jiggle=2;curveFitting=1;fontFamily=LXGW WenKai;&quot; parent=&quot;PlhUNaWbmzm0HPJQHhij-6&quot; vertex=&quot;1&quot;&gt; &lt;mxGeometry x=&quot;15&quot; y=&quot;40&quot; width=&quot;140&quot; height=&quot;60&quot; as=&quot;geometry&quot; /&gt; &lt;/mxCell&gt; &lt;mxCell id=&quot;PlhUNaWbmzm0HPJQHhij-20&quot; value=&quot;正确页面&quot; style=&quot;text;strokeColor=none;fillColor=none;align=left;verticalAlign=middle;spacingLeft=4;spacingRight=4;overflow=hidden;points=[[0,0.5],[1,0.5]];portConstraint=eastwest;rotatable=0;fontFamily=LXGW WenKai;&quot; parent=&quot;PlhUNaWbmzm0HPJQHhij-19&quot; vertex=&quot;1&quot;&gt; &lt;mxGeometry y=&quot;30&quot; width=&quot;140&quot; height=&quot;30&quot; as=&quot;geometry&quot; /&gt; &lt;/mxCell&gt; &lt;mxCell id=&quot;PlhUNaWbmzm0HPJQHhij-23&quot; value=&quot;JSP&quot; style=&quot;swimlane;fontStyle=0;childLayout=stackLayout;horizontal=1;startSize=30;horizontalStack=0;resizeParent=1;resizeParentMax=0;resizeLast=0;collapsible=1;marginBottom=0;sketch=1;hachureGap=4;jiggle=2;curveFitting=1;fontFamily=LXGW WenKai;&quot; parent=&quot;PlhUNaWbmzm0HPJQHhij-6&quot; vertex=&quot;1&quot;&gt; &lt;mxGeometry x=&quot;12&quot; y=&quot;125&quot; width=&quot;140&quot; height=&quot;60&quot; as=&quot;geometry&quot; /&gt; &lt;/mxCell&gt; &lt;mxCell id=&quot;PlhUNaWbmzm0HPJQHhij-24&quot; value=&quot;错误页面&quot; style=&quot;text;strokeColor=none;fillColor=none;align=left;verticalAlign=middle;spacingLeft=4;spacingRight=4;overflow=hidden;points=[[0,0.5],[1,0.5]];portConstraint=eastwest;rotatable=0;fontFamily=LXGW WenKai;&quot; parent=&quot;PlhUNaWbmzm0HPJQHhij-23&quot; vertex=&quot;1&quot;&gt; &lt;mxGeometry y=&quot;30&quot; width=&quot;140&quot; height=&quot;30&quot; as=&quot;geometry&quot; /&gt; &lt;/mxCell&gt; &lt;mxCell id=&quot;PlhUNaWbmzm0HPJQHhij-10&quot; style=&quot;edgeStyle=none;rounded=0;sketch=1;hachureGap=4;jiggle=2;curveFitting=1;orthogonalLoop=1;jettySize=auto;exitX=1;exitY=0.5;exitDx=0;exitDy=0;entryX=-0.008;entryY=0.33;entryDx=0;entryDy=0;fontFamily=LXGW WenKai;entryPerimeter=0;&quot; parent=&quot;1&quot; source=&quot;PlhUNaWbmzm0HPJQHhij-5&quot; target=&quot;PlhUNaWbmzm0HPJQHhij-19&quot; edge=&quot;1&quot;&gt; &lt;mxGeometry relative=&quot;1&quot; as=&quot;geometry&quot;&gt; &lt;mxPoint x=&quot;-188&quot; y=&quot;620&quot; as=&quot;targetPoint&quot; /&gt; &lt;/mxGeometry&gt; &lt;/mxCell&gt; &lt;mxCell id=&quot;PlhUNaWbmzm0HPJQHhij-12&quot; value=&quot;转发或重定向&quot; style=&quot;edgeLabel;align=center;verticalAlign=middle;resizable=0;points=[];sketch=1;hachureGap=4;jiggle=2;curveFitting=1;fontFamily=LXGW WenKai;&quot; parent=&quot;PlhUNaWbmzm0HPJQHhij-10&quot; vertex=&quot;1&quot; connectable=&quot;0&quot;&gt; &lt;mxGeometry x=&quot;-0.0336&quot; relative=&quot;1&quot; as=&quot;geometry&quot;&gt; &lt;mxPoint x=&quot;3&quot; y=&quot;4&quot; as=&quot;offset&quot; /&gt; &lt;/mxGeometry&gt; &lt;/mxCell&gt; &lt;mxCell id=&quot;PlhUNaWbmzm0HPJQHhij-11&quot; style=&quot;edgeStyle=none;rounded=0;sketch=1;hachureGap=4;jiggle=2;curveFitting=1;orthogonalLoop=1;jettySize=auto;exitX=1;exitY=0.5;exitDx=0;exitDy=0;fontFamily=LXGW WenKai;entryX=0;entryY=0.25;entryDx=0;entryDy=0;&quot; parent=&quot;1&quot; source=&quot;PlhUNaWbmzm0HPJQHhij-5&quot; target=&quot;PlhUNaWbmzm0HPJQHhij-23&quot; edge=&quot;1&quot;&gt; &lt;mxGeometry relative=&quot;1&quot; as=&quot;geometry&quot;&gt; &lt;mxPoint x=&quot;-188&quot; y=&quot;699&quot; as=&quot;targetPoint&quot; /&gt; &lt;/mxGeometry&gt; &lt;/mxCell&gt; &lt;mxCell id=&quot;PlhUNaWbmzm0HPJQHhij-13&quot; value=&quot;转发或重定向&quot; style=&quot;edgeLabel;align=center;verticalAlign=middle;resizable=0;points=[];sketch=1;hachureGap=4;jiggle=2;curveFitting=1;fontFamily=LXGW WenKai;&quot; parent=&quot;PlhUNaWbmzm0HPJQHhij-11&quot; vertex=&quot;1&quot; connectable=&quot;0&quot;&gt; &lt;mxGeometry x=&quot;-0.0853&quot; y=&quot;1&quot; relative=&quot;1&quot; as=&quot;geometry&quot;&gt; &lt;mxPoint as=&quot;offset&quot; /&gt; &lt;/mxGeometry&gt; &lt;/mxCell&gt; &lt;mxCell id=&quot;PlhUNaWbmzm0HPJQHhij-14&quot; value=&quot;Model(模型)&quot; style=&quot;swimlane;sketch=1;hachureGap=4;jiggle=2;curveFitting=1;fontFamily=LXGW WenKai;fontSize=15;strokeColor=#E07A5F;align=center;verticalAlign=middle;fontColor=#393C56;fontStyle=1;fillColor=#F2CC8F;labelBackgroundColor=none;&quot; parent=&quot;1&quot; vertex=&quot;1&quot;&gt; &lt;mxGeometry x=&quot;-242&quot; y=&quot;346&quot; width=&quot;409&quot; height=&quot;138&quot; as=&quot;geometry&quot; /&gt; &lt;/mxCell&gt; &lt;mxCell id=&quot;PlhUNaWbmzm0HPJQHhij-15&quot; value=&quot;Service&quot; style=&quot;swimlane;fontStyle=0;childLayout=stackLayout;horizontal=1;startSize=30;horizontalStack=0;resizeParent=1;resizeParentMax=0;resizeLast=0;collapsible=1;marginBottom=0;sketch=1;hachureGap=4;jiggle=2;curveFitting=1;fontFamily=LXGW WenKai;&quot; parent=&quot;PlhUNaWbmzm0HPJQHhij-14&quot; vertex=&quot;1&quot;&gt; &lt;mxGeometry x=&quot;35&quot; y=&quot;47&quot; width=&quot;140&quot; height=&quot;60&quot; as=&quot;geometry&quot; /&gt; &lt;/mxCell&gt; &lt;mxCell id=&quot;PlhUNaWbmzm0HPJQHhij-16&quot; value=&quot;处理业务逻辑&quot; style=&quot;text;strokeColor=none;fillColor=none;align=left;verticalAlign=middle;spacingLeft=4;spacingRight=4;overflow=hidden;points=[[0,0.5],[1,0.5]];portConstraint=eastwest;rotatable=0;fontFamily=LXGW WenKai;&quot; parent=&quot;PlhUNaWbmzm0HPJQHhij-15&quot; vertex=&quot;1&quot;&gt; &lt;mxGeometry y=&quot;30&quot; width=&quot;140&quot; height=&quot;30&quot; as=&quot;geometry&quot; /&gt; &lt;/mxCell&gt; &lt;mxCell id=&quot;PlhUNaWbmzm0HPJQHhij-25&quot; style=&quot;edgeStyle=none;rounded=0;sketch=1;hachureGap=4;jiggle=2;curveFitting=1;orthogonalLoop=1;jettySize=auto;exitX=1;exitY=0.5;exitDx=0;exitDy=0;entryX=0;entryY=0.5;entryDx=0;entryDy=0;fontFamily=LXGW WenKai;&quot; parent=&quot;1&quot; source=&quot;PlhUNaWbmzm0HPJQHhij-4&quot; target=&quot;PlhUNaWbmzm0HPJQHhij-16&quot; edge=&quot;1&quot;&gt; &lt;mxGeometry relative=&quot;1&quot; as=&quot;geometry&quot; /&gt; &lt;/mxCell&gt; &lt;mxCell id=&quot;PlhUNaWbmzm0HPJQHhij-26&quot; value=&quot;Dao&quot; style=&quot;swimlane;fontStyle=0;childLayout=stackLayout;horizontal=1;startSize=30;horizontalStack=0;resizeParent=1;resizeParentMax=0;resizeLast=0;collapsible=1;marginBottom=0;sketch=1;hachureGap=4;jiggle=2;curveFitting=1;fontFamily=LXGW WenKai;&quot; parent=&quot;1&quot; vertex=&quot;1&quot;&gt; &lt;mxGeometry x=&quot;17&quot; y=&quot;392&quot; width=&quot;140&quot; height=&quot;60&quot; as=&quot;geometry&quot; /&gt; &lt;/mxCell&gt; &lt;mxCell id=&quot;PlhUNaWbmzm0HPJQHhij-27&quot; value=&quot;负责数据库的增删改查&quot; style=&quot;text;strokeColor=none;fillColor=none;align=left;verticalAlign=middle;spacingLeft=4;spacingRight=4;overflow=hidden;points=[[0,0.5],[1,0.5]];portConstraint=eastwest;rotatable=0;fontFamily=LXGW WenKai;&quot; parent=&quot;PlhUNaWbmzm0HPJQHhij-26&quot; vertex=&quot;1&quot;&gt; &lt;mxGeometry y=&quot;30&quot; width=&quot;140&quot; height=&quot;30&quot; as=&quot;geometry&quot; /&gt; &lt;/mxCell&gt; &lt;mxCell id=&quot;PlhUNaWbmzm0HPJQHhij-30&quot; style=&quot;edgeStyle=none;rounded=0;sketch=1;hachureGap=4;jiggle=2;curveFitting=1;orthogonalLoop=1;jettySize=auto;exitX=1;exitY=0.5;exitDx=0;exitDy=0;entryX=0;entryY=0.5;entryDx=0;entryDy=0;fontFamily=LXGW WenKai;&quot; parent=&quot;1&quot; source=&quot;PlhUNaWbmzm0HPJQHhij-16&quot; target=&quot;PlhUNaWbmzm0HPJQHhij-27&quot; edge=&quot;1&quot;&gt; &lt;mxGeometry relative=&quot;1&quot; as=&quot;geometry&quot; /&gt; &lt;/mxCell&gt; &lt;mxCell id=&quot;PlhUNaWbmzm0HPJQHhij-32&quot; style=&quot;edgeStyle=none;rounded=0;sketch=1;hachureGap=4;jiggle=2;curveFitting=1;orthogonalLoop=1;jettySize=auto;exitX=1;exitY=0.25;exitDx=0;exitDy=0;entryX=0;entryY=0.5;entryDx=0;entryDy=0;fontFamily=LXGW WenKai;&quot; parent=&quot;1&quot; target=&quot;PlhUNaWbmzm0HPJQHhij-3&quot; edge=&quot;1&quot;&gt; &lt;mxGeometry relative=&quot;1&quot; as=&quot;geometry&quot;&gt; &lt;mxPoint x=&quot;-665&quot; y=&quot;443&quot; as=&quot;sourcePoint&quot; /&gt; &lt;/mxGeometry&gt; &lt;/mxCell&gt; &lt;mxCell id=&quot;PlhUNaWbmzm0HPJQHhij-34&quot; value=&quot;请求&quot; style=&quot;edgeLabel;align=center;verticalAlign=middle;resizable=0;points=[];sketch=1;hachureGap=4;jiggle=2;curveFitting=1;fontFamily=LXGW WenKai;&quot; parent=&quot;PlhUNaWbmzm0HPJQHhij-32&quot; vertex=&quot;1&quot; connectable=&quot;0&quot;&gt; &lt;mxGeometry x=&quot;-0.4829&quot; relative=&quot;1&quot; as=&quot;geometry&quot;&gt; &lt;mxPoint as=&quot;offset&quot; /&gt; &lt;/mxGeometry&gt; &lt;/mxCell&gt; &lt;/root&gt; &lt;/mxGraphModel&gt; &lt;/diagram&gt; &lt;/mxfile&gt;" resource="https://app.diagrams.net/#Hluguosong%2Fimages%2Fmaster%2Fdiagrams%2Fjava_serve%2Fweb_application%2Fmvc%2FMVC%E6%9E%B6%E6%9E%84%E6%A8%A1%E5%BC%8F.svg#%7B%22pageId%22%3A%2223iRSUPoRavnBvh4doch%22%7D" version="1.1" viewBox="-0.5 -0.5 868 429"><defs><clipPath id="mx-clip-209-123-132-30-0"><rect width="132" height="30" x="209" y="123"/></clipPath><clipPath id="mx-clip-209-153-132-30-0"><rect width="132" height="30" x="209" y="153"/></clipPath><clipPath id="mx-clip-209-183-132-30-0"><rect width="132" height="30" x="209" y="183"/></clipPath><clipPath id="mx-clip-499-260-132-30-0"><rect width="132" height="30" x="499" y="260"/></clipPath><clipPath id="mx-clip-496-345-132-30-0"><rect width="132" height="30" x="496" y="345"/></clipPath><clipPath id="mx-clip-484-116-132-30-0"><rect width="132" height="30" x="484" y="116"/></clipPath><clipPath id="mx-clip-708-115-132-30-0"><rect width="132" height="30" x="708" y="115"/></clipPath></defs><g><g><rect width="867" height="428" x="0" y="0" fill="none" stroke="none" pointer-events="all"/><path fill="#FFF" stroke="none" d="M -3.83 1.73 L 870.79 -1.58 L 869.83 427.36 L -3.08 426.23" pointer-events="all"/><path fill="none" stroke="#000" stroke-linecap="round" stroke-linejoin="round" stroke-miterlimit="10" d="M 0 0 C 271.38 -1.58 540.56 -2.73 867 0 M 0 0 C 324.65 -6.99 649.15 -7.45 867 0 M 867 0 C 865.82 124 864.14 249.37 867 428 M 867 0 C 870.56 166.23 871.24 331.56 867 428 M 867 428 C 656.81 433.62 450.47 432.75 0 428 M 867 428 C 663.54 429.72 460.86 429.2 0 428 M 0 428 C -1.07 270.43 -0.62 110.13 0 0 M 0 428 C 2.92 259.11 3.1 89.94 0 0" pointer-events="all"/></g><g><path fill="none" stroke="none" d="M 134 52 L 134 29 L 431 29 L 431 52" pointer-events="all"/><path fill="none" stroke="#f2cc8f" stroke-linecap="round" stroke-linejoin="round" stroke-miterlimit="10" stroke-width=".5" d="M 134 29 C 134 29 134 29 134 29 M 134 29 C 134 29 134 29 134 29 M 133.74 35.4 C 135.57 32.21 135.59 31.59 138.99 29.36 M 133.74 35.4 C 135.19 33.39 136.15 32.15 138.99 29.36 M 134.13 41.04 C 140.02 34.88 139.82 29.8 144.63 28.97 M 134.13 41.04 C 136 37.83 140.23 32.64 144.63 28.97 M 133.87 47.44 C 134.41 39.71 143.65 39.48 149.62 29.33 M 133.87 47.44 C 139.28 41.44 146.44 35.53 149.62 29.33 M 134.92 52.33 C 144.33 42.9 148.67 35.72 155.26 28.93 M 134.92 52.33 C 142.52 45.48 147.28 37.43 155.26 28.93 M 139.91 52.69 C 144.57 45.38 156.25 33.58 160.25 29.29 M 139.91 52.69 C 145.68 45.43 154.15 35.27 160.25 29.29 M 145.55 52.29 C 151.59 43.96 159.58 37.28 165.89 28.9 M 145.55 52.29 C 150.91 48.44 154.13 41.67 165.89 28.9 M 150.54 52.65 C 158.29 44.35 166.27 38.52 170.88 29.26 M 150.54 52.65 C 159.28 45.49 163.2 36.96 170.88 29.26 M 156.18 52.26 C 163.18 48.22 167.3 39.09 176.52 28.86 M 156.18 52.26 C 163.52 47.25 169.23 39.71 176.52 28.86 M 161.17 52.62 C 165.35 43.83 174.67 39.74 181.51 29.22 M 161.17 52.62 C 165.95 45.73 171.81 41.5 181.51 29.22 M 166.81 52.22 C 174.62 45.34 182.58 38.14 187.15 28.83 M 166.81 52.22 C 173.62 44.82 178.3 39.41 187.15 28.83 M 171.8 52.58 C 177.08 43.86 183.3 44.9 192.14 29.19 M 171.8 52.58 C 180.43 43.41 187.17 33.64 192.14 29.19 M 176.79 52.94 C 182.06 46.7 189.46 39.91 197.78 28.79 M 176.79 52.94 C 180.17 46.34 186.59 40.83 197.78 28.79 M 182.43 52.55 C 188.16 48.86 197.79 36.92 202.77 29.15 M 182.43 52.55 C 190.18 45.08 198.57 36.24 202.77 29.15 M 187.42 52.91 C 196.75 47.87 199.08 37.33 208.41 28.76 M 187.42 52.91 C 194.37 43.64 200.86 36.63 208.41 28.76 M 193.06 52.51 C 202.5 41.62 209.25 34.05 213.4 29.12 M 193.06 52.51 C 199.59 42.54 205.99 34.13 213.4 29.12 M 198.05 52.87 C 207.35 47.77 208.64 35.26 219.04 28.72 M 198.05 52.87 C 203.69 43.89 209.86 38.57 219.04 28.72 M 203.69 52.48 C 211.07 46.92 216.31 35.33 224.03 29.08 M 203.69 52.48 C 209 46.07 218.98 37.43 224.03 29.08 M 208.68 52.84 C 218.09 45.06 223.08 38.04 229.67 28.69 M 208.68 52.84 C 216.32 47.41 220.99 40.2 229.67 28.69 M 214.32 52.45 C 222.24 49.72 227.36 39.61 234.66 29.05 M 214.32 52.45 C 220.71 45.37 226.69 37.74 234.66 29.05 M 219.31 52.81 C 220.81 44.31 231.53 42.65 240.3 28.66 M 219.31 52.81 C 226.29 44.35 232.96 35.77 240.3 28.66 M 224.95 52.41 C 231.59 45.68 238.42 40 245.29 29.02 M 224.95 52.41 C 230.91 44.56 241.72 35.89 245.29 29.02 M 229.94 52.77 C 237.29 47.16 237.29 42.9 250.27 29.38 M 229.94 52.77 C 236.05 47.53 242.08 42.06 250.27 29.38 M 235.58 52.38 C 240.81 44.26 251.93 34.91 255.92 28.98 M 235.58 52.38 C 239.5 47.11 246.01 42.84 255.92 28.98 M 240.57 52.74 C 249.85 46.19 256.89 35.31 260.91 29.34 M 240.57 52.74 C 244.91 46.15 252.1 40.06 260.91 29.34 M 246.21 52.34 C 252.79 49.31 255.87 42.14 266.55 28.95 M 246.21 52.34 C 250.6 43.27 259.49 37.04 266.55 28.95 M 251.2 52.7 C 257.69 41.91 267.69 32.45 271.54 29.31 M 251.2 52.7 C 256.26 46.19 259.69 43.79 271.54 29.31 M 256.84 52.31 C 266.91 39.84 275.27 35.43 277.18 28.91 M 256.84 52.31 C 263.95 45.58 271.13 39.39 277.18 28.91 M 261.83 52.67 C 265.32 42.09 276.9 37.46 282.17 29.27 M 261.83 52.67 C 266.81 44.06 276.74 34.89 282.17 29.27 M 267.47 52.27 C 271.25 44.71 275.9 42.05 287.81 28.88 M 267.47 52.27 C 274.48 45.25 282.85 34.88 287.81 28.88 M 272.46 52.63 C 277.5 44.47 288.43 30.38 292.8 29.24 M 272.46 52.63 C 277.83 45.62 285.16 36.56 292.8 29.24 M 278.1 52.24 C 282.8 45.11 297.28 32.38 298.44 28.84 M 278.1 52.24 C 281.71 45.49 286.67 39.95 298.44 28.84 M 283.09 52.6 C 292.25 45.95 299.68 31.33 303.43 29.2 M 283.09 52.6 C 289.83 45.18 295.92 37.22 303.43 29.2 M 288.07 52.96 C 296.63 42.17 297.1 36.83 309.07 28.81 M 288.07 52.96 C 298 45.71 305.52 35.03 309.07 28.81 M 293.72 52.56 C 301.68 40.62 306.62 36.47 314.06 29.17 M 293.72 52.56 C 299.08 42.71 309.3 33.69 314.06 29.17 M 298.7 52.92 C 306.9 48.13 308.3 33.77 319.7 28.77 M 298.7 52.92 C 306.43 44.36 309.61 37.97 319.7 28.77 M 304.35 52.53 C 308.26 46.8 315.93 41.76 324.69 29.13 M 304.35 52.53 C 310.78 45.49 316.12 36.92 324.69 29.13 M 309.33 52.89 C 315.27 47.38 319.98 42.71 330.33 28.74 M 309.33 52.89 C 316.3 42.58 326.26 35.61 330.33 28.74 M 314.98 52.5 C 317.68 49.41 321.9 41.36 335.32 29.1 M 314.98 52.5 C 321.02 48.95 323.69 40.07 335.32 29.1 M 319.96 52.86 C 326.46 43.86 332.86 36.91 340.96 28.7 M 319.96 52.86 C 325.61 41.91 336.21 36.7 340.96 28.7 M 325.61 52.46 C 333.7 44.06 341.28 31.63 345.95 29.06 M 325.61 52.46 C 331.87 41.66 343.11 34.9 345.95 29.06 M 330.59 52.82 C 337.79 48.25 336.05 42.41 351.59 28.67 M 330.59 52.82 C 339.74 44.05 345.72 34.55 351.59 28.67 M 336.24 52.43 C 343.44 43.12 350.44 34.65 356.58 29.03 M 336.24 52.43 C 343.09 43.95 348.47 37.71 356.58 29.03 M 341.23 52.79 C 348.7 46.61 353.97 40.85 362.22 28.64 M 341.23 52.79 C 348.67 46.01 354.95 37.46 362.22 28.64 M 346.87 52.39 C 350.11 49.87 358.31 45.57 367.21 29 M 346.87 52.39 C 350.71 43.85 360.02 36.59 367.21 29 M 351.86 52.75 C 356.75 43.12 360.53 43.07 372.19 29.36 M 351.86 52.75 C 356.43 45.17 363.82 39.51 372.19 29.36 M 357.5 52.36 C 362.34 46.3 375.74 33.17 377.84 28.96 M 357.5 52.36 C 360.31 46.98 365.06 44.65 377.84 28.96 M 362.49 52.72 C 367.88 46.99 371.46 38.19 382.82 29.32 M 362.49 52.72 C 368.19 46.46 371.43 40.62 382.82 29.32 M 368.13 52.32 C 375.77 42.17 384.65 36.28 388.47 28.93 M 368.13 52.32 C 373.58 44.85 380.77 38.32 388.47 28.93 M 373.12 52.68 C 374.38 50.77 384.46 43.62 393.45 29.29 M 373.12 52.68 C 382.72 42.86 387.6 35.47 393.45 29.29 M 378.76 52.29 C 386.4 43.09 395.96 35.06 399.1 28.89 M 378.76 52.29 C 385.12 44.98 394.69 33.52 399.1 28.89 M 383.75 52.65 C 395.18 45.65 400.59 33.39 404.08 29.25 M 383.75 52.65 C 386.63 46.14 391.59 41.47 404.08 29.25 M 389.39 52.25 C 399.3 41.11 401.95 32.4 409.73 28.86 M 389.39 52.25 C 397.23 44.52 399.7 38.55 409.73 28.86 M 394.38 52.61 C 405.12 40.94 408.93 33.95 414.71 29.22 M 394.38 52.61 C 397.66 47.17 403.77 42.47 414.71 29.22 M 399.36 52.97 C 404.54 45.81 412.51 31.97 420.36 28.82 M 399.36 52.97 C 404.89 48.87 411.26 42.52 420.36 28.82 M 405.01 52.58 C 409.56 48.17 417.68 35.47 425.34 29.18 M 405.01 52.58 C 410.36 43.84 418.72 37.5 425.34 29.18 M 409.99 52.94 C 417.34 47.23 418.17 39.1 430.99 28.79 M 409.99 52.94 C 419.46 45.63 426.43 35.98 430.99 28.79 M 415.64 52.54 C 424.28 43.56 428.01 34.49 431.38 34.43 M 415.64 52.54 C 422.51 44.89 426.11 37.23 431.38 34.43 M 420.62 52.91 C 424.88 49.77 431.06 45.85 431.78 40.08 M 420.62 52.91 C 424.27 49.43 428.61 44.23 431.78 40.08 M 426.27 52.51 C 428.24 50.82 428.88 50.65 431.51 46.47 M 426.27 52.51 C 427.65 51.86 428.69 49.21 431.51 46.47" pointer-events="all"/><path fill="none" stroke="#e07a5f" stroke-linecap="round" stroke-linejoin="round" stroke-miterlimit="10" d="M 134 52 C 132.7 43.21 137.09 35.82 134 29 M 134 52 C 133.04 47.32 134.71 43.55 134 29 M 134 29 C 206.45 27.67 273.73 29.57 431 29 M 134 29 C 194.67 24.83 258.75 24.96 431 29 M 431 29 C 429.09 35.92 433.74 44.3 431 52 M 431 29 C 431.45 38.59 430.49 46.23 431 52" pointer-events="all"/><path fill="none" stroke="#e07a5f" stroke-linecap="round" stroke-linejoin="round" stroke-miterlimit="10" d="M 134 52 C 129.7 101.42 134.09 152.23 134 241 M 134 52 C 131.42 92.12 133.09 133.15 134 241 M 134 241 C 206.45 239.67 273.73 241.57 431 241 M 134 241 C 194.67 236.83 258.75 236.96 431 241 M 431 241 C 426.32 189.49 430.97 139.44 431 52 M 431 241 C 427.61 166.83 426.65 90.7 431 52" pointer-events="none"/><path fill="none" stroke="#e07a5f" stroke-linecap="round" stroke-linejoin="round" stroke-miterlimit="10" d="M 134 52 C 214.35 47.12 299.13 46.33 431 52 M 134 52 C 195.92 50.95 259.92 51.75 431 52" pointer-events="none"/></g><g><g fill="#393C56" font-family="LXGW WenKai" font-size="15" font-weight="bold" text-anchor="middle"><text x="282" y="46.5">Controller(控制器)</text></g></g><g><path fill="none" stroke="none" d="M 205 123 L 205 93 L 345 93 L 345 123" pointer-events="all"/><path fill="#FFF" stroke="none" d="M 205 123 C 204.4 117.7 205.74 106.26 205 93 C 245.65 101.49 285.2 97.75 345 93 C 340.6 97.49 347.32 106.72 345 123" pointer-events="all"/><path fill="none" stroke="#000" stroke-linecap="round" stroke-linejoin="round" stroke-miterlimit="10" d="M 205 123 C 201.41 118.22 203.45 109.3 205 93 M 205 123 C 206.41 115.11 203.23 106.14 205 93 M 205 93 C 244.85 96.99 284.16 96.9 345 93 M 205 93 C 259.35 93.26 313.64 97 345 93 M 345 93 C 341.9 102.96 342.5 107.11 345 123 M 345 93 C 343.64 100.86 344.73 108.27 345 123" pointer-events="all"/><path fill="none" stroke="#000" stroke-linecap="round" stroke-linejoin="round" stroke-miterlimit="10" d="M 205 123 C 200.12 151.17 202.16 175.2 205 213 M 205 123 C 205.81 149.11 202.63 174.13 205 213 M 205 213 C 244.85 216.99 284.16 216.9 345 213 M 205 213 C 259.35 213.26 313.64 217 345 213 M 345 213 C 340.59 194.5 341.18 170.2 345 123 M 345 213 C 343.15 192.54 344.24 171.63 345 123" pointer-events="none"/><path fill="none" stroke="#000" stroke-linecap="round" stroke-linejoin="round" stroke-miterlimit="10" d="M 205 123 C 239.53 126.74 280.01 126.06 345 123 M 205 123 C 245.92 121.16 282.41 120.69 345 123" pointer-events="none"/></g><g><g fill="#000" font-family="LXGW WenKai" font-size="12" text-anchor="middle"><text x="274.5" y="112.5">Servlet</text></g></g><g><rect width="140" height="30" x="205" y="123" fill="none" stroke="none" pointer-events="all"/></g><g><g fill="#000" clip-path="url(#mx-clip-209-123-132-30-0)" font-family="LXGW WenKai" font-size="12"><text x="210.5" y="142.5">接收请求数据</text></g></g><g><rect width="140" height="30" x="205" y="153" fill="none" stroke="none" pointer-events="all"/></g><g><g fill="#000" clip-path="url(#mx-clip-209-153-132-30-0)" font-family="LXGW WenKai" font-size="12"><text x="210.5" y="172.5">调度Moel处理业务</text></g></g><g><rect width="140" height="30" x="205" y="183" fill="none" stroke="none" pointer-events="all"/></g><g><g fill="#000" clip-path="url(#mx-clip-209-183-132-30-0)" font-family="LXGW WenKai" font-size="12"><text x="210.5" y="202.5">调度View做页面展示</text></g></g><g><path fill="none" stroke="none" d="M 480 213 L 480 190 L 644 190 L 644 213" pointer-events="all"/><path fill="none" stroke="#f2cc8f" stroke-linecap="round" stroke-linejoin="round" stroke-miterlimit="10" stroke-width=".5" d="M 480 190 C 480 190 480 190 480 190 M 480 190 C 480 190 480 190 480 190 M 479.74 196.4 C 482.21 193.94 482.67 194.62 484.99 190.36 M 479.74 196.4 C 481.08 194.09 483.38 191.51 484.99 190.36 M 480.13 202.04 C 484.62 197.26 486.28 191.08 490.63 189.97 M 480.13 202.04 C 482.16 197.31 486.04 196.08 490.63 189.97 M 479.87 208.44 C 485.48 206.04 489.96 196.81 495.62 190.33 M 479.87 208.44 C 486.16 201.77 490.26 197.95 495.62 190.33 M 480.92 213.33 C 485.75 201.35 498.88 197.99 501.26 189.93 M 480.92 213.33 C 487.83 208.33 491.37 200.47 501.26 189.93 M 485.91 213.69 C 490.8 211.19 497.59 202.68 506.25 190.29 M 485.91 213.69 C 493.98 205.84 500.67 196.14 506.25 190.29 M 491.55 213.29 C 496.43 207.59 499.13 205.89 511.89 189.9 M 491.55 213.29 C 497.56 206.03 499.66 200.21 511.89 189.9 M 496.54 213.65 C 498.89 206.63 508.12 202.28 516.88 190.26 M 496.54 213.65 C 501.81 208.45 508.42 200.04 516.88 190.26 M 502.18 213.26 C 505.43 202.56 515.08 199.93 522.52 189.86 M 502.18 213.26 C 511.48 204.54 516.46 195.69 522.52 189.86 M 507.17 213.62 C 511.78 201.86 518.6 193.74 527.51 190.22 M 507.17 213.62 C 515.48 204.25 521.93 196.29 527.51 190.22 M 512.81 213.22 C 519.01 205.49 520.61 201.31 533.15 189.83 M 512.81 213.22 C 519.69 205.52 526.94 198.35 533.15 189.83 M 517.8 213.58 C 522.65 207.98 532.39 195.36 538.14 190.19 M 517.8 213.58 C 526.51 206.15 533.56 197.46 538.14 190.19 M 522.79 213.94 C 527.33 207.59 535.43 203.46 543.78 189.79 M 522.79 213.94 C 529.73 206.12 533.08 201.89 543.78 189.79 M 528.43 213.55 C 536.22 205.65 543.06 198.98 548.77 190.15 M 528.43 213.55 C 531.9 210.19 535.18 204.77 548.77 190.15 M 533.42 213.91 C 537.74 208.27 543.31 198.22 554.41 189.76 M 533.42 213.91 C 538.41 206.8 542.35 204.09 554.41 189.76 M 539.06 213.51 C 543 205.89 550.43 199.19 559.4 190.12 M 539.06 213.51 C 545.53 208.48 547.65 206.03 559.4 190.12 M 544.05 213.87 C 548.39 205.25 557.01 192.96 565.04 189.72 M 544.05 213.87 C 550.06 208.92 553.55 199.15 565.04 189.72 M 549.69 213.48 C 556.39 202.11 563.86 193.02 570.03 190.08 M 549.69 213.48 C 556.7 208.66 561.05 200.16 570.03 190.08 M 554.68 213.84 C 559.36 209.63 570.22 198.4 575.67 189.69 M 554.68 213.84 C 561.21 205.65 566.1 201.59 575.67 189.69 M 560.32 213.45 C 569.31 209.82 576.51 197.32 580.66 190.05 M 560.32 213.45 C 567.42 203.84 574.2 195.39 580.66 190.05 M 565.31 213.81 C 569.53 209.31 581.58 194.16 586.3 189.66 M 565.31 213.81 C 571.2 207.93 573.42 203.96 586.3 189.66 M 570.95 213.41 C 580.41 203.01 586.09 194.79 591.29 190.02 M 570.95 213.41 C 577.14 206.91 585.27 197.93 591.29 190.02 M 575.94 213.77 C 583.74 208.67 586.45 195.25 596.27 190.38 M 575.94 213.77 C 583.47 206.28 589.87 197.18 596.27 190.38 M 581.58 213.38 C 584.21 209.13 594.48 198.67 601.92 189.98 M 581.58 213.38 C 585.1 209.76 592.23 204.89 601.92 189.98 M 586.57 213.74 C 590.01 203.26 601.79 200.72 606.91 190.34 M 586.57 213.74 C 591.22 209.21 594.83 204.14 606.91 190.34 M 592.21 213.34 C 593.86 210 600.88 204.56 612.55 189.95 M 592.21 213.34 C 595.18 208.36 599.73 202.29 612.55 189.95 M 597.2 213.7 C 604.23 203.37 611.28 197.44 617.54 190.31 M 597.2 213.7 C 603.62 206.97 604.31 203.3 617.54 190.31 M 602.84 213.31 C 607.33 211.4 609.78 204.43 623.18 189.91 M 602.84 213.31 C 607.82 206.21 616.91 196.91 623.18 189.91 M 607.83 213.67 C 609.95 206.14 616.04 197.36 628.17 190.27 M 607.83 213.67 C 613.46 206.59 621.03 199.42 628.17 190.27 M 613.47 213.27 C 617.11 206.82 622.69 199.36 633.81 189.88 M 613.47 213.27 C 619.97 204.26 631.3 195.17 633.81 189.88 M 618.46 213.63 C 621.37 209.75 631.3 198.39 638.8 190.24 M 618.46 213.63 C 624.52 209.48 627.57 203.75 638.8 190.24 M 624.1 213.24 C 631.7 204.37 637.74 200.05 644.44 189.84 M 624.1 213.24 C 632.38 204.08 642.25 195.99 644.44 189.84 M 629.09 213.6 C 637.3 206.75 637.12 204.28 644.18 196.24 M 629.09 213.6 C 631.93 209.68 639.49 204.81 644.18 196.24 M 634.07 213.96 C 638.16 210.36 642.05 206.06 643.92 202.64 M 634.07 213.96 C 638.32 209.38 643.19 206.25 643.92 202.64 M 639.72 213.56 C 641.72 212.16 641.68 210.08 644.31 208.28 M 639.72 213.56 C 640.48 212.29 642.61 210.34 644.31 208.28" pointer-events="all"/><path fill="none" stroke="#e07a5f" stroke-linecap="round" stroke-linejoin="round" stroke-miterlimit="10" d="M 480 213 C 482.88 209.85 483.5 196.45 480 190 M 480 213 C 478.69 202.78 480.12 195.51 480 190 M 480 190 C 513.67 196.45 548.68 193.7 644 190 M 480 190 C 525.18 192.25 571.66 190.25 644 190 M 644 190 C 643.76 200.4 644.17 199.94 644 213 M 644 190 C 644.18 201.09 645.45 209.71 644 213" pointer-events="all"/><path fill="none" stroke="#e07a5f" stroke-linecap="round" stroke-linejoin="round" stroke-miterlimit="10" d="M 480 213 C 483.47 266.14 484.09 309.03 480 395 M 480 213 C 479.89 278.89 481.32 347.74 480 395 M 480 395 C 513.67 401.45 548.68 398.7 644 395 M 480 395 C 525.18 397.25 571.66 395.25 644 395 M 644 395 C 643.23 347.35 643.64 288.84 644 213 M 644 395 C 646.66 324.17 647.94 250.85 644 213" pointer-events="none"/><path fill="none" stroke="#e07a5f" stroke-linecap="round" stroke-linejoin="round" stroke-miterlimit="10" d="M 480 213 C 527.98 213.84 573.63 206.75 644 213 M 480 213 C 539.72 213.66 602.03 214.93 644 213" pointer-events="none"/></g><g><g fill="#393C56" font-family="LXGW WenKai" font-size="15" font-weight="bold" text-anchor="middle"><text x="561.5" y="207.5">View(视图)</text></g></g><g><path fill="none" stroke="none" d="M 495 260 L 495 230 L 635 230 L 635 260" pointer-events="all"/><path fill="#FFF" stroke="none" d="M 495 260 C 493.23 245.55 494.91 241.17 495 230 C 539.58 233.21 583.04 228.53 635 230 C 635.92 236.69 634.69 240.65 635 260" pointer-events="all"/><path fill="none" stroke="#000" stroke-linecap="round" stroke-linejoin="round" stroke-miterlimit="10" d="M 495 260 C 498.51 247.95 492.49 243.81 495 230 M 495 260 C 496.33 250.41 495.68 243.45 495 230 M 495 230 C 546.73 228.22 606.12 228.11 635 230 M 495 230 C 533.77 232.29 569.4 232.97 635 230 M 635 230 C 633.3 243.54 634.63 248 635 260 M 635 230 C 633.74 240.97 636.63 252.56 635 260" pointer-events="all"/><path fill="none" stroke="#000" stroke-linecap="round" stroke-linejoin="round" stroke-miterlimit="10" d="M 495 260 C 498.21 266.65 492.19 281.22 495 290 M 495 260 C 496.15 265.68 495.5 273.99 495 290 M 495 290 C 546.73 288.22 606.12 288.11 635 290 M 495 290 C 533.77 292.29 569.4 292.97 635 290 M 635 290 C 632.96 282.52 634.3 265.97 635 260 M 635 290 C 633.69 278.17 636.57 266.96 635 260" pointer-events="none"/><path fill="none" stroke="#000" stroke-linecap="round" stroke-linejoin="round" stroke-miterlimit="10" d="M 495 260 C 542 256.95 579.62 262.17 635 260 M 495 260 C 531.86 255.82 566.84 256.49 635 260" pointer-events="none"/></g><g><g fill="#000" font-family="LXGW WenKai" font-size="12" text-anchor="middle"><text x="564.5" y="249.5">JSP</text></g></g><g><rect width="140" height="30" x="495" y="260" fill="none" stroke="none" pointer-events="all"/></g><g><g fill="#000" clip-path="url(#mx-clip-499-260-132-30-0)" font-family="LXGW WenKai" font-size="12"><text x="500.5" y="279.5">正确页面</text></g></g><g><path fill="none" stroke="none" d="M 492 345 L 492 315 L 632 315 L 632 345" pointer-events="all"/><path fill="#FFF" stroke="none" d="M 492 345 C 487.75 342.73 492.96 333 492 315 C 533.74 318.14 576.44 313.58 632 315 C 629.48 329.41 629.31 337.12 632 345" pointer-events="all"/><path fill="none" stroke="#000" stroke-linecap="round" stroke-linejoin="round" stroke-miterlimit="10" d="M 492 345 C 494.23 337.14 493.35 326.96 492 315 M 492 345 C 493.51 338.09 491.64 328.05 492 315 M 492 315 C 532.06 309.9 565.46 315.11 632 315 M 492 315 C 525.66 313.63 563.64 311.36 632 315 M 632 315 C 631.45 330.21 635.65 338.75 632 345 M 632 315 C 633.11 319.65 631.17 326.29 632 345" pointer-events="all"/><path fill="none" stroke="#000" stroke-linecap="round" stroke-linejoin="round" stroke-miterlimit="10" d="M 492 345 C 494.22 355.85 493.35 364.38 492 375 M 492 345 C 492.58 353.35 490.71 358.56 492 375 M 492 375 C 532.06 369.9 565.46 375.11 632 375 M 492 375 C 525.66 373.63 563.64 371.36 632 375 M 632 375 C 631.86 366.92 636.06 352.18 632 345 M 632 375 C 632.53 367.48 630.58 361.97 632 345" pointer-events="none"/><path fill="none" stroke="#000" stroke-linecap="round" stroke-linejoin="round" stroke-miterlimit="10" d="M 492 345 C 537.88 345.96 580.66 345.14 632 345 M 492 345 C 528.65 346.07 562.38 343.65 632 345" pointer-events="none"/></g><g><g fill="#000" font-family="LXGW WenKai" font-size="12" text-anchor="middle"><text x="561.5" y="334.5">JSP</text></g></g><g><rect width="140" height="30" x="492" y="345" fill="none" stroke="none" pointer-events="all"/></g><g><g fill="#000" clip-path="url(#mx-clip-496-345-132-30-0)" font-family="LXGW WenKai" font-size="12"><text x="497.5" y="364.5">错误页面</text></g></g><g><path fill="none" stroke="none" d="M 345 198 L 487.87 247.71" pointer-events="stroke"/><path fill="none" stroke="none" d="M 492.82 249.43 L 485.06 250.44 L 487.87 247.71 L 487.36 243.83 Z" pointer-events="all"/><path fill="none" stroke="#000" stroke-linecap="round" stroke-linejoin="round" stroke-miterlimit="10" d="M 345 198 C 389.67 215.45 433.37 232.56 487.87 247.71 M 345 198 C 374.85 208.28 403.34 221.29 487.87 247.71" pointer-events="stroke"/><path fill="none" stroke="#000" stroke-linecap="round" stroke-linejoin="round" stroke-miterlimit="10" stroke-width=".5" d="M 487.33 243.86 C 487.33 243.86 487.33 243.86 487.33 243.86 M 487.33 243.86 C 487.33 243.86 487.33 243.86 487.33 243.86 M 487.07 250.26 C 488.81 249.64 488.84 248.56 490.35 246.48 M 487.07 250.26 C 488.2 249.03 489.1 247.59 490.35 246.48" pointer-events="all"/><path fill="none" stroke="#000" stroke-linecap="round" stroke-linejoin="round" stroke-miterlimit="10" d="M 492.82 249.43 C 490.38 249.62 487.63 250.57 485.06 250.44 M 492.82 249.43 C 491.12 248.84 489.12 250.12 485.06 250.44 M 485.06 250.44 C 485.11 249.98 486.26 249.23 487.87 247.71 M 485.06 250.44 C 485.59 249.64 486.71 248.96 487.87 247.71 M 487.87 247.71 C 487.99 246.3 487.4 244.95 487.36 243.83 M 487.87 247.71 C 487.8 247.1 487.79 246.32 487.36 243.83 M 487.36 243.83 C 489.6 244.12 490.9 246.92 492.82 249.43 M 487.36 243.83 C 489.66 245.27 490.48 247.63 492.82 249.43" pointer-events="all"/></g><g><g fill="#000" font-family="LXGW WenKai" font-size="11" text-anchor="middle"><rect width="68" height="14" x="387" y="221" fill="#FFF" stroke="none" stroke-width="0"/><text x="419.78" y="231.47">转发或重定向</text></g></g><g><path fill="none" stroke="none" d="M 345 198 L 487.26 325.75" pointer-events="stroke"/><path fill="none" stroke="none" d="M 491.17 329.25 L 483.62 327.18 L 487.26 325.75 L 488.3 321.97 Z" pointer-events="all"/><path fill="none" stroke="#000" stroke-linecap="round" stroke-linejoin="round" stroke-miterlimit="10" d="M 345 198 C 387.97 234.27 437.12 276.11 487.26 325.75 M 345 198 C 384.69 232.29 426.45 269.05 487.26 325.75" pointer-events="stroke"/><path fill="none" stroke="#000" stroke-linecap="round" stroke-linejoin="round" stroke-miterlimit="10" stroke-width=".5" d="M 483.83 326.94 C 483.83 326.94 483.83 326.94 483.83 326.94 M 483.83 326.94 C 483.83 326.94 483.83 326.94 483.83 326.94 M 488.16 328.05 C 488.57 327.31 489.31 326.95 490.13 325.79 M 488.16 328.05 C 488.84 327.42 489.4 326.2 490.13 325.79" pointer-events="all"/><path fill="none" stroke="#000" stroke-linecap="round" stroke-linejoin="round" stroke-miterlimit="10" d="M 491.17 329.25 C 487.88 327.85 487.41 328 483.62 327.18 M 491.17 329.25 C 488.29 328.13 487.03 328.02 483.62 327.18 M 483.62 327.18 C 485.48 326.35 486.53 326.94 487.26 325.75 M 483.62 327.18 C 484.8 326.67 485.64 326.31 487.26 325.75 M 487.26 325.75 C 487.57 324.95 488.17 324.36 488.3 321.97 M 487.26 325.75 C 487.32 325.04 488.08 323.7 488.3 321.97 M 488.3 321.97 C 488.46 322.27 489.32 323.37 491.17 329.25 M 488.3 321.97 C 488.61 323.71 490.11 326.17 491.17 329.25" pointer-events="all"/></g><g><g fill="#000" font-family="LXGW WenKai" font-size="11" text-anchor="middle"><rect width="68" height="14" x="380" y="252" fill="#FFF" stroke="none" stroke-width="0"/><text x="412.63" y="261.89">转发或重定向</text></g></g><g><path fill="none" stroke="none" d="M 445 62 L 445 39 L 854 39 L 854 62" pointer-events="all"/><path fill="none" stroke="#f2cc8f" stroke-linecap="round" stroke-linejoin="round" stroke-miterlimit="10" stroke-width=".5" d="M 445 39 C 445 39 445 39 445 39 M 445 39 C 445 39 445 39 445 39 M 444.74 45.4 C 445.47 43.1 448.76 40.28 449.99 39.36 M 444.74 45.4 C 446.33 43.63 447.75 42.64 449.99 39.36 M 445.13 51.04 C 445.76 45.59 450.35 45.88 455.63 38.97 M 445.13 51.04 C 447.29 47.03 450.76 44.3 455.63 38.97 M 444.87 57.44 C 450.24 55.61 453.61 46.62 460.62 39.33 M 444.87 57.44 C 448.84 50.71 456.02 42.56 460.62 39.33 M 445.92 62.33 C 447.92 56.74 456.59 48.83 466.26 38.93 M 445.92 62.33 C 453.38 56.91 455.8 49.42 466.26 38.93 M 450.91 62.69 C 454.03 59.63 459.74 49.46 471.25 39.29 M 450.91 62.69 C 455.42 59.02 462.14 51.27 471.25 39.29 M 456.55 62.29 C 459.5 57.68 466.34 47.87 476.89 38.9 M 456.55 62.29 C 466.38 51.59 472.3 43.13 476.89 38.9 M 461.54 62.65 C 468.86 55.39 479.11 45.22 481.88 39.26 M 461.54 62.65 C 467.36 55.42 477.37 47.55 481.88 39.26 M 467.18 62.26 C 474.41 52.48 478.42 47.86 487.52 38.86 M 467.18 62.26 C 471.59 55.43 480.15 46.09 487.52 38.86 M 472.17 62.62 C 475.02 54.74 483.59 51.33 492.51 39.22 M 472.17 62.62 C 478.58 56.24 482.61 51.84 492.51 39.22 M 477.81 62.22 C 485.5 59.6 484.64 48.38 498.15 38.83 M 477.81 62.22 C 480.87 54.89 486.19 51.09 498.15 38.83 M 482.8 62.58 C 493.52 51.97 501.88 41.12 503.14 39.19 M 482.8 62.58 C 490.89 56.39 496.1 47.1 503.14 39.19 M 487.79 62.94 C 490.21 59.67 502.85 52.83 508.78 38.79 M 487.79 62.94 C 494.3 53.37 504.41 45.08 508.78 38.79 M 493.43 62.55 C 498.04 58.43 508.35 46.22 513.77 39.15 M 493.43 62.55 C 499.38 54.67 507.82 48.37 513.77 39.15 M 498.42 62.91 C 508.43 52.24 510.04 44.01 519.41 38.76 M 498.42 62.91 C 503.78 53 514.53 45.36 519.41 38.76 M 504.06 62.51 C 505.7 53.7 514.22 47.71 524.4 39.12 M 504.06 62.51 C 510.04 55.47 513.52 52.38 524.4 39.12 M 509.05 62.87 C 514.4 60.21 523.05 46.93 530.04 38.72 M 509.05 62.87 C 514.64 55.05 521.22 47.71 530.04 38.72 M 514.69 62.48 C 516.38 55.65 526.67 52.12 535.03 39.08 M 514.69 62.48 C 520.66 57.45 523.6 50.23 535.03 39.08 M 519.68 62.84 C 525.6 51.33 535.72 47.59 540.67 38.69 M 519.68 62.84 C 524.65 57.36 532.3 49.38 540.67 38.69 M 525.32 62.45 C 533.26 58.93 533.46 49.34 545.66 39.05 M 525.32 62.45 C 532.6 54.64 538.63 51.23 545.66 39.05 M 530.31 62.81 C 537.63 59.04 540.32 48.36 551.3 38.66 M 530.31 62.81 C 535.85 55.16 542.38 47.3 551.3 38.66 M 535.95 62.41 C 540.4 54.82 548.42 53.1 556.29 39.02 M 535.95 62.41 C 540.84 56.14 547.6 48.53 556.29 39.02 M 540.94 62.77 C 544.85 59.24 553.83 53.42 561.27 39.38 M 540.94 62.77 C 543.86 57.17 550.15 53.6 561.27 39.38 M 546.58 62.38 C 556.05 49.99 560.92 46.36 566.92 38.98 M 546.58 62.38 C 551.12 56.26 556.97 49.94 566.92 38.98 M 551.57 62.74 C 557.76 52.88 570.7 43.63 571.91 39.34 M 551.57 62.74 C 559.9 56.13 565.57 47.05 571.91 39.34 M 557.21 62.34 C 563.4 58.51 566.25 52.78 577.55 38.95 M 557.21 62.34 C 564.98 54.02 571.89 44.11 577.55 38.95 M 562.2 62.7 C 568.34 52.41 575.57 51.81 582.54 39.31 M 562.2 62.7 C 568.81 57.52 573.97 52.08 582.54 39.31 M 567.84 62.31 C 571.88 56.07 579.65 44.03 588.18 38.91 M 567.84 62.31 C 573.34 57.35 577.4 52.06 588.18 38.91 M 572.83 62.67 C 578.17 49.62 592.3 42.39 593.17 39.27 M 572.83 62.67 C 582.7 55.64 587.27 43.82 593.17 39.27 M 578.47 62.27 C 582.73 55.81 588.96 52.59 598.81 38.88 M 578.47 62.27 C 582.12 57.52 588.54 52.96 598.81 38.88 M 583.46 62.63 C 590.41 55.01 591.35 47.78 603.8 39.24 M 583.46 62.63 C 593.1 53.56 599.25 46.27 603.8 39.24 M 589.1 62.24 C 593.53 51.51 599.93 50.69 609.44 38.84 M 589.1 62.24 C 597.8 52.54 603.6 46.8 609.44 38.84 M 594.09 62.6 C 597.71 54.74 606.2 47.87 614.43 39.2 M 594.09 62.6 C 600.38 55.19 607.46 47.76 614.43 39.2 M 599.07 62.96 C 608.14 56.23 609.79 54.91 620.07 38.81 M 599.07 62.96 C 604.05 55.6 608.76 51.41 620.07 38.81 M 604.72 62.56 C 613.62 52.88 620.24 41.69 625.06 39.17 M 604.72 62.56 C 611.65 56.12 618.92 45.73 625.06 39.17 M 609.7 62.92 C 616.46 52.74 622.91 44.49 630.7 38.77 M 609.7 62.92 C 613.74 56.78 621.97 48.79 630.7 38.77 M 615.35 62.53 C 625.63 51.2 628.13 43.86 635.69 39.13 M 615.35 62.53 C 625.44 53.94 630.81 45.08 635.69 39.13 M 620.33 62.89 C 621.02 57.38 629.26 54.09 641.33 38.74 M 620.33 62.89 C 624.86 55.21 633.34 48.3 641.33 38.74 M 625.98 62.5 C 629.43 56.96 637.94 53.69 646.32 39.1 M 625.98 62.5 C 631.25 57.83 637.91 48.46 646.32 39.1 M 630.96 62.86 C 637.23 50.55 649.98 44.19 651.96 38.7 M 630.96 62.86 C 637.75 54.06 645.98 48.27 651.96 38.7 M 636.61 62.46 C 641.84 56.96 652.35 42.53 656.95 39.06 M 636.61 62.46 C 642.18 57.8 645.58 50.77 656.95 39.06 M 641.59 62.82 C 643.23 55.18 648.86 50.13 662.59 38.67 M 641.59 62.82 C 647.24 53.02 656.21 49.05 662.59 38.67 M 647.24 62.43 C 651.53 57.24 662.73 51.6 667.58 39.03 M 647.24 62.43 C 654.97 52.16 661.43 45.33 667.58 39.03 M 652.23 62.79 C 654.2 55.64 665.06 50.99 673.22 38.64 M 652.23 62.79 C 659.06 55.47 666.09 43.36 673.22 38.64 M 657.87 62.39 C 667.52 50.85 670.44 44.24 678.21 39 M 657.87 62.39 C 664.09 54.82 673.51 47.22 678.21 39 M 662.86 62.75 C 668.78 60.53 669.72 47.26 683.19 39.36 M 662.86 62.75 C 668.07 52.72 677.12 46.49 683.19 39.36 M 668.5 62.36 C 675.47 51.15 686.46 45.39 688.84 38.96 M 668.5 62.36 C 675.58 55.54 684.28 47.49 688.84 38.96 M 673.49 62.72 C 683.28 56.19 685.59 42.4 693.82 39.32 M 673.49 62.72 C 679.9 55.86 689.28 44.53 693.82 39.32 M 679.13 62.32 C 687.58 54.95 693.73 44.58 699.47 38.93 M 679.13 62.32 C 687.44 53.36 694.88 43.91 699.47 38.93 M 684.12 62.68 C 686.44 54.88 692.42 54.87 704.45 39.29 M 684.12 62.68 C 691.98 55.56 700.22 46.26 704.45 39.29 M 689.76 62.29 C 693.79 51.53 702.05 47.76 710.1 38.89 M 689.76 62.29 C 697.08 51.8 704.6 44.17 710.1 38.89 M 694.75 62.65 C 700.4 56.24 705.04 46.21 715.08 39.25 M 694.75 62.65 C 699.52 55.5 704.39 50.63 715.08 39.25 M 700.39 62.25 C 702.2 60.77 712.75 53.28 720.73 38.86 M 700.39 62.25 C 707.74 54.01 713.28 45.11 720.73 38.86 M 705.38 62.61 C 710.35 57.88 718.34 49.15 725.71 39.22 M 705.38 62.61 C 712.72 55.41 718.1 52.05 725.71 39.22 M 710.36 62.97 C 718.6 55.01 718.25 50.34 731.36 38.82 M 710.36 62.97 C 715.76 56.32 720.84 49.29 731.36 38.82 M 716.01 62.58 C 724.33 54.33 723.43 47.19 736.34 39.18 M 716.01 62.58 C 720.29 57.45 726.75 50.88 736.34 39.18 M 720.99 62.94 C 726.08 56.77 728.92 46.76 741.99 38.79 M 720.99 62.94 C 725.88 56.29 733.93 45.84 741.99 38.79 M 726.64 62.54 C 733.79 57.76 740.14 43.35 746.97 39.15 M 726.64 62.54 C 732.73 53.47 740.42 48.58 746.97 39.15 M 731.62 62.91 C 740.5 51.78 745.78 46.84 752.62 38.75 M 731.62 62.91 C 737.63 57.54 740.92 48.36 752.62 38.75 M 737.27 62.51 C 743.85 56.8 751.04 45.68 757.6 39.11 M 737.27 62.51 C 740.01 55.39 747.22 50.2 757.6 39.11 M 742.25 62.87 C 748.18 50.09 761.28 42.67 763.25 38.72 M 742.25 62.87 C 751.23 55.7 757.93 45.76 763.25 38.72 M 747.9 62.48 C 751 53.82 759.42 53.82 768.23 39.08 M 747.9 62.48 C 753.93 57.69 756.06 50.06 768.23 39.08 M 752.88 62.84 C 754.36 57.63 759.88 49.56 773.88 38.69 M 752.88 62.84 C 758.92 58.93 763.18 51.47 773.88 38.69 M 758.53 62.44 C 768.82 56.97 771.05 46.39 778.86 39.05 M 758.53 62.44 C 762.09 55.85 766.27 54.33 778.86 39.05 M 763.51 62.8 C 768.94 51.42 776.63 45.89 784.51 38.65 M 763.51 62.8 C 771.61 56.57 777.27 45.46 784.51 38.65 M 769.16 62.41 C 774.54 51.42 784.3 40.92 789.49 39.01 M 769.16 62.41 C 775.68 52.47 783.61 44.41 789.49 39.01 M 774.14 62.77 C 777.81 57.6 786.65 50.08 794.48 39.37 M 774.14 62.77 C 778.61 57.99 784.71 53.55 794.48 39.37 M 779.79 62.37 C 784.92 57.87 794.53 43.02 800.12 38.98 M 779.79 62.37 C 785.34 55.84 791.84 50.85 800.12 38.98 M 784.77 62.73 C 787.27 56.59 800.09 49.99 805.11 39.34 M 784.77 62.73 C 791.31 56.44 796.2 50.36 805.11 39.34 M 790.42 62.34 C 798.51 53.68 800.1 50.16 810.75 38.94 M 790.42 62.34 C 795.89 56.12 803.94 48.18 810.75 38.94 M 795.4 62.7 C 798.67 58.44 810.51 51.35 815.74 39.3 M 795.4 62.7 C 798.75 55.76 805.85 49.44 815.74 39.3 M 801.05 62.3 C 810.13 58.63 812.92 44.75 821.38 38.91 M 801.05 62.3 C 806.36 57.85 809.59 49.48 821.38 38.91 M 806.03 62.66 C 814.77 56.8 818.3 46.4 826.37 39.27 M 806.03 62.66 C 812.08 56.22 817 52.63 826.37 39.27 M 811.68 62.27 C 816.33 61.01 823.76 49.62 832.01 38.87 M 811.68 62.27 C 817.87 55.33 827.53 48.31 832.01 38.87 M 816.66 62.63 C 822.31 59.68 825.12 48.28 837 39.23 M 816.66 62.63 C 823.11 56.17 828.34 49.28 837 39.23 M 822.31 62.23 C 829.18 53.48 836.37 44.47 842.64 38.84 M 822.31 62.23 C 829.83 55.73 833.32 46.61 842.64 38.84 M 827.29 62.59 C 829.23 53.49 839.11 47.07 847.63 39.2 M 827.29 62.59 C 832.26 54.37 837.91 46.67 847.63 39.2 M 832.28 62.95 C 841.83 54.23 840.71 48.26 853.27 38.8 M 832.28 62.95 C 838.32 55.54 850.42 42.79 853.27 38.8 M 837.92 62.56 C 839.53 55.01 844.85 51.36 854.33 43.69 M 837.92 62.56 C 843.54 56.73 845.13 53.73 854.33 43.69 M 842.91 62.92 C 842.61 63.23 851.39 54.05 854.06 50.09 M 842.91 62.92 C 848.16 56.77 849.74 52.41 854.06 50.09 M 848.55 62.53 C 850.13 61.44 850.46 59.95 854.46 55.73 M 848.55 62.53 C 850.06 61.22 852.26 57.88 854.46 55.73" pointer-events="all"/><path fill="none" stroke="#e07a5f" stroke-linecap="round" stroke-linejoin="round" stroke-miterlimit="10" d="M 445 62 C 443.38 54.5 441.12 50.55 445 39 M 445 62 C 446.66 55.14 446.25 48.85 445 39 M 445 39 C 531.5 42.28 617.64 40.74 854 39 M 445 39 C 606.8 35.92 768.69 37.5 854 39 M 854 39 C 850.59 46.61 856.15 57.46 854 62 M 854 39 C 852.09 45.81 852.74 57.76 854 62" pointer-events="all"/><path fill="none" stroke="#e07a5f" stroke-linecap="round" stroke-linejoin="round" stroke-miterlimit="10" d="M 445 62 C 445.85 97.51 443.6 136.57 445 177 M 445 62 C 444.38 95.78 443.97 130.13 445 177 M 445 177 C 531.5 180.28 617.64 178.74 854 177 M 445 177 C 606.8 173.92 768.69 175.5 854 177 M 854 177 C 848.38 137.31 853.94 100.87 854 62 M 854 177 C 853.32 131.99 853.96 92.14 854 62" pointer-events="none"/><path fill="none" stroke="#e07a5f" stroke-linecap="round" stroke-linejoin="round" stroke-miterlimit="10" d="M 445 62 C 571.81 61.31 698.05 63.09 854 62 M 445 62 C 566.15 62.94 686.37 63.21 854 62" pointer-events="none"/></g><g><g fill="#393C56" font-family="LXGW WenKai" font-size="15" font-weight="bold" text-anchor="middle"><text x="649" y="56.5">Model(模型)</text></g></g><g><path fill="none" stroke="none" d="M 480 116 L 480 86 L 620 86 L 620 116" pointer-events="all"/><path fill="#FFF" stroke="none" d="M 480 116 C 484.76 100.67 480.5 97.33 480 86 C 520.78 82.32 559.65 92.41 620 86 C 623.75 97.5 624.6 106.91 620 116" pointer-events="all"/><path fill="none" stroke="#000" stroke-linecap="round" stroke-linejoin="round" stroke-miterlimit="10" d="M 480 116 C 477.06 104.24 480.46 98.51 480 86 M 480 116 C 480.08 105.34 478.83 93.28 480 86 M 480 86 C 515.03 87.76 547.87 90.32 620 86 M 480 86 C 530.79 90.58 585.09 89 620 86 M 620 86 C 623.42 97.11 616.94 104.2 620 116 M 620 86 C 621.29 90.94 619.99 98.53 620 116" pointer-events="all"/><path fill="none" stroke="#000" stroke-linecap="round" stroke-linejoin="round" stroke-miterlimit="10" d="M 480 116 C 475.94 122.94 479.34 135.91 480 146 M 480 116 C 479.26 127.33 478 137.25 480 146 M 480 146 C 515.03 147.76 547.87 150.32 620 146 M 480 146 C 530.79 150.58 585.09 149 620 146 M 620 146 C 622.59 138.86 616.1 127.7 620 116 M 620 146 C 620.27 137.96 618.96 132.56 620 116" pointer-events="none"/><path fill="none" stroke="#000" stroke-linecap="round" stroke-linejoin="round" stroke-miterlimit="10" d="M 480 116 C 520.14 115.51 567.17 119.13 620 116 M 480 116 C 530.98 115.26 581.03 114.19 620 116" pointer-events="none"/></g><g><g fill="#000" font-family="LXGW WenKai" font-size="12" text-anchor="middle"><text x="549.5" y="105.5">Service</text></g></g><g><rect width="140" height="30" x="480" y="116" fill="none" stroke="none" pointer-events="all"/></g><g><g fill="#000" clip-path="url(#mx-clip-484-116-132-30-0)" font-family="LXGW WenKai" font-size="12"><text x="485.5" y="135.5">处理业务逻辑</text></g></g><g><path fill="none" stroke="none" d="M 345 168 L 473.86 132.68" pointer-events="stroke"/><path fill="none" stroke="none" d="M 478.92 131.3 L 473.1 136.52 L 473.86 132.68 L 471.25 129.77 Z" pointer-events="all"/><path fill="none" stroke="#000" stroke-linecap="round" stroke-linejoin="round" stroke-miterlimit="10" d="M 345 168 C 382.6 152.8 425.2 141.76 473.86 132.68 M 345 168 C 398.52 157.87 446.27 142.26 473.86 132.68" pointer-events="stroke"/><path fill="none" stroke="#000" stroke-linecap="round" stroke-linejoin="round" stroke-miterlimit="10" stroke-width=".5" d="M 471.54 129.43 C 471.54 129.43 471.54 129.43 471.54 129.43 M 471.54 129.43 C 471.54 129.43 471.54 129.43 471.54 129.43 M 473.91 132.81 C 474.61 132.61 475.39 130.79 475.88 130.55 M 473.91 132.81 C 474.21 132.52 474.54 132.14 475.88 130.55" pointer-events="all"/><path fill="none" stroke="#000" stroke-linecap="round" stroke-linejoin="round" stroke-miterlimit="10" d="M 478.92 131.3 C 476.22 131.96 475.35 133.58 473.1 136.52 M 478.92 131.3 C 477.27 133.89 473.55 135.36 473.1 136.52 M 473.1 136.52 C 473.69 134.82 473.94 133.51 473.86 132.68 M 473.1 136.52 C 473.16 135.63 473.72 135.02 473.86 132.68 M 473.86 132.68 C 472.54 131.83 472.53 131.49 471.25 129.77 M 473.86 132.68 C 473.52 131.66 472.42 130.85 471.25 129.77 M 471.25 129.77 C 473.53 131.64 475.21 131.19 478.92 131.3 M 471.25 129.77 C 473.82 130.74 477.38 130.46 478.92 131.3" pointer-events="all"/></g><g><path fill="none" stroke="none" d="M 704 115 L 704 85 L 844 85 L 844 115" pointer-events="all"/><path fill="#FFF" stroke="none" d="M 704 115 C 698.49 111.89 708.16 94.28 704 85 C 752.8 84.9 805.93 77.68 844 85 C 845.79 93.2 841.27 105.42 844 115" pointer-events="all"/><path fill="none" stroke="#000" stroke-linecap="round" stroke-linejoin="round" stroke-miterlimit="10" d="M 704 115 C 707.06 108.93 707.13 99.94 704 85 M 704 115 C 704.45 104.9 704.03 97.68 704 85 M 704 85 C 756.58 89.65 805.9 86.86 844 85 M 704 85 C 758.65 83.32 811.63 83.73 844 85 M 844 85 C 839.61 95.53 839.67 101.6 844 115 M 844 85 C 844.5 94.17 844.7 105.82 844 115" pointer-events="all"/><path fill="none" stroke="#000" stroke-linecap="round" stroke-linejoin="round" stroke-miterlimit="10" d="M 704 115 C 707.67 127.64 707.74 137.36 704 145 M 704 115 C 704 121.11 703.58 130.11 704 145 M 704 145 C 756.58 149.65 805.9 146.86 844 145 M 704 145 C 758.65 143.32 811.63 143.73 844 145 M 844 145 C 840.39 139.17 840.46 128.89 844 115 M 844 145 C 844.04 134.64 844.24 126.77 844 115" pointer-events="none"/><path fill="none" stroke="#000" stroke-linecap="round" stroke-linejoin="round" stroke-miterlimit="10" d="M 704 115 C 751.03 118.84 794.75 119.22 844 115 M 704 115 C 742.07 113.88 779.48 114.77 844 115" pointer-events="none"/></g><g><g fill="#000" font-family="LXGW WenKai" font-size="12" text-anchor="middle"><text x="773.5" y="104.5">Dao</text></g></g><g><rect width="140" height="30" x="704" y="115" fill="none" stroke="none" pointer-events="all"/></g><g><g fill="#000" clip-path="url(#mx-clip-708-115-132-30-0)" font-family="LXGW WenKai" font-size="12"><text x="709.5" y="134.5">负责数据库的增删改查</text></g></g><g><path fill="none" stroke="none" d="M 620 131 L 697.63 130.08" pointer-events="stroke"/><path fill="none" stroke="none" d="M 702.88 130.01 L 695.92 133.6 L 697.63 130.08 L 695.84 126.6 Z" pointer-events="all"/><path fill="none" stroke="#000" stroke-linecap="round" stroke-linejoin="round" stroke-miterlimit="10" d="M 620 131 C 646.43 130.4 667.86 132.45 697.63 130.08 M 620 131 C 641.02 130.24 660.35 127.79 697.63 130.08" pointer-events="stroke"/><path fill="none" stroke="#000" stroke-linecap="round" stroke-linejoin="round" stroke-miterlimit="10" stroke-width=".5" d="M 695.65 126.82 C 695.65 126.82 695.65 126.82 695.65 126.82 M 695.65 126.82 C 695.65 126.82 695.65 126.82 695.65 126.82 M 698.01 130.2 C 698.66 129.89 699.23 128.97 699.33 128.69 M 698.01 130.2 C 698.25 129.93 698.68 129.5 699.33 128.69" pointer-events="all"/><path fill="none" stroke="#000" stroke-linecap="round" stroke-linejoin="round" stroke-miterlimit="10" d="M 702.88 130.01 C 701.64 130.91 698.38 132.94 695.92 133.6 M 702.88 130.01 C 700.94 131.35 698.42 131.46 695.92 133.6 M 695.92 133.6 C 695.96 132.53 697.3 132.15 697.63 130.08 M 695.92 133.6 C 696.37 132.22 697.13 131.24 697.63 130.08 M 697.63 130.08 C 696.54 129.54 696.56 128.63 695.84 126.6 M 697.63 130.08 C 696.63 128.58 696.67 127.82 695.84 126.6 M 695.84 126.6 C 699.61 128.84 699.76 128.43 702.88 130.01 M 695.84 126.6 C 698.02 128 701.16 128.15 702.88 130.01" pointer-events="all"/></g><g><path fill="none" stroke="none" d="M 22 136 L 198.63 137.93" pointer-events="stroke"/><path fill="none" stroke="none" d="M 203.88 137.99 L 196.84 141.41 L 198.63 137.93 L 196.92 134.41 Z" pointer-events="all"/><path fill="none" stroke="#000" stroke-linecap="round" stroke-linejoin="round" stroke-miterlimit="10" d="M 22 136 C 74.73 138.98 130.33 134.71 198.63 137.93 M 22 136 C 60.61 138.04 99.09 137.13 198.63 137.93" pointer-events="stroke"/><path fill="none" stroke="#000" stroke-linecap="round" stroke-linejoin="round" stroke-miterlimit="10" stroke-width=".5" d="M 196.87 134.47 C 196.87 134.47 196.87 134.47 196.87 134.47 M 196.87 134.47 C 196.87 134.47 196.87 134.47 196.87 134.47 M 199.23 137.84 C 199.85 137.1 199.76 137.36 200.55 136.33 M 199.23 137.84 C 199.61 137.52 199.94 136.71 200.55 136.33" pointer-events="all"/><path fill="none" stroke="#000" stroke-linecap="round" stroke-linejoin="round" stroke-miterlimit="10" d="M 203.88 137.99 C 200.71 140.4 198.71 139.56 196.84 141.41 M 203.88 137.99 C 202.64 139.32 201.39 139.53 196.84 141.41 M 196.84 141.41 C 196.84 140.21 197.44 138.55 198.63 137.93 M 196.84 141.41 C 197.38 140 198.01 139.03 198.63 137.93 M 198.63 137.93 C 198.8 136.98 197.39 135.93 196.92 134.41 M 198.63 137.93 C 198.15 136.89 197.65 136.43 196.92 134.41 M 196.92 134.41 C 197.43 136.21 200.69 135.14 203.88 137.99 M 196.92 134.41 C 197.95 135.63 200.65 136.8 203.88 137.99" pointer-events="all"/></g><g><g fill="#000" font-family="LXGW WenKai" font-size="11" text-anchor="middle"><rect width="24" height="14" x="58" y="131" fill="#FFF" stroke="none" stroke-width="0"/><text x="69" y="141.01">请求</text></g></g></g></svg>