<?xml version="1.0" encoding="UTF-8"?>
<!-- Do not edit this file with editors other than draw.io -->
<!DOCTYPE svg PUBLIC "-//W3C//DTD SVG 1.1//EN" "http://www.w3.org/Graphics/SVG/1.1/DTD/svg11.dtd">
<svg xmlns="http://www.w3.org/2000/svg" xmlns:xlink="http://www.w3.org/1999/xlink" version="1.1" width="868px" height="429px" viewBox="-0.5 -0.5 868 429" content="&lt;mxfile host=&quot;app.diagrams.net&quot; modified=&quot;2024-05-29T09:16:07.982Z&quot; agent=&quot;Mozilla/5.0 (Windows NT 10.0; Win64; x64) AppleWebKit/537.36 (KHTML, like Gecko) Chrome/125.0.0.0 Safari/537.36&quot; etag=&quot;TMgOnxsM1UR_MZYLZ1hZ&quot; version=&quot;24.4.9&quot; type=&quot;github&quot;&gt;&#10;  &lt;diagram id=&quot;23iRSUPoRavnBvh4doch&quot; name=&quot;Page-1&quot;&gt;&#10;    &lt;mxGraphModel dx=&quot;2837&quot; dy=&quot;757&quot; grid=&quot;0&quot; gridSize=&quot;10&quot; guides=&quot;1&quot; tooltips=&quot;1&quot; connect=&quot;1&quot; arrows=&quot;1&quot; fold=&quot;1&quot; page=&quot;0&quot; pageScale=&quot;1&quot; pageWidth=&quot;827&quot; pageHeight=&quot;1169&quot; math=&quot;0&quot; shadow=&quot;0&quot;&gt;&#10;      &lt;root&gt;&#10;        &lt;mxCell id=&quot;0&quot; /&gt;&#10;        &lt;mxCell id=&quot;1&quot; parent=&quot;0&quot; /&gt;&#10;        &lt;mxCell id=&quot;PlhUNaWbmzm0HPJQHhij-37&quot; value=&quot;&quot; style=&quot;rounded=0;sketch=1;hachureGap=4;jiggle=2;curveFitting=1;fontFamily=Architects Daughter;fontSource=https%3A%2F%2Ffonts.googleapis.com%2Fcss%3Ffamily%3DArchitects%2BDaughter;&quot; vertex=&quot;1&quot; parent=&quot;1&quot;&gt;&#10;          &lt;mxGeometry x=&quot;-687&quot; y=&quot;307&quot; width=&quot;867&quot; height=&quot;428&quot; as=&quot;geometry&quot; /&gt;&#10;        &lt;/mxCell&gt;&#10;        &lt;mxCell id=&quot;PlhUNaWbmzm0HPJQHhij-1&quot; value=&quot;Controller(控制器)&quot; style=&quot;swimlane;sketch=1;hachureGap=4;jiggle=2;curveFitting=1;fontFamily=LXGW WenKai;fontSize=15;strokeColor=#E07A5F;align=center;verticalAlign=middle;fontColor=#393C56;fontStyle=1;fillColor=#F2CC8F;labelBackgroundColor=none;&quot; vertex=&quot;1&quot; parent=&quot;1&quot;&gt;&#10;          &lt;mxGeometry x=&quot;-553&quot; y=&quot;336&quot; width=&quot;297&quot; height=&quot;212&quot; as=&quot;geometry&quot; /&gt;&#10;        &lt;/mxCell&gt;&#10;        &lt;mxCell id=&quot;PlhUNaWbmzm0HPJQHhij-2&quot; value=&quot;Servlet&quot; style=&quot;swimlane;fontStyle=0;childLayout=stackLayout;horizontal=1;startSize=30;horizontalStack=0;resizeParent=1;resizeParentMax=0;resizeLast=0;collapsible=1;marginBottom=0;sketch=1;hachureGap=4;jiggle=2;curveFitting=1;fontFamily=LXGW WenKai;&quot; vertex=&quot;1&quot; parent=&quot;PlhUNaWbmzm0HPJQHhij-1&quot;&gt;&#10;          &lt;mxGeometry x=&quot;71&quot; y=&quot;64&quot; width=&quot;140&quot; height=&quot;120&quot; as=&quot;geometry&quot; /&gt;&#10;        &lt;/mxCell&gt;&#10;        &lt;mxCell id=&quot;PlhUNaWbmzm0HPJQHhij-3&quot; value=&quot;接收请求数据&quot; style=&quot;text;strokeColor=none;fillColor=none;align=left;verticalAlign=middle;spacingLeft=4;spacingRight=4;overflow=hidden;points=[[0,0.5],[1,0.5]];portConstraint=eastwest;rotatable=0;fontFamily=LXGW WenKai;&quot; vertex=&quot;1&quot; parent=&quot;PlhUNaWbmzm0HPJQHhij-2&quot;&gt;&#10;          &lt;mxGeometry y=&quot;30&quot; width=&quot;140&quot; height=&quot;30&quot; as=&quot;geometry&quot; /&gt;&#10;        &lt;/mxCell&gt;&#10;        &lt;mxCell id=&quot;PlhUNaWbmzm0HPJQHhij-4&quot; value=&quot;调度Moel处理业务&quot; style=&quot;text;strokeColor=none;fillColor=none;align=left;verticalAlign=middle;spacingLeft=4;spacingRight=4;overflow=hidden;points=[[0,0.5],[1,0.5]];portConstraint=eastwest;rotatable=0;fontFamily=LXGW WenKai;&quot; vertex=&quot;1&quot; parent=&quot;PlhUNaWbmzm0HPJQHhij-2&quot;&gt;&#10;          &lt;mxGeometry y=&quot;60&quot; width=&quot;140&quot; height=&quot;30&quot; as=&quot;geometry&quot; /&gt;&#10;        &lt;/mxCell&gt;&#10;        &lt;mxCell id=&quot;PlhUNaWbmzm0HPJQHhij-5&quot; value=&quot;调度View做页面展示&quot; style=&quot;text;strokeColor=none;fillColor=none;align=left;verticalAlign=middle;spacingLeft=4;spacingRight=4;overflow=hidden;points=[[0,0.5],[1,0.5]];portConstraint=eastwest;rotatable=0;fontFamily=LXGW WenKai;&quot; vertex=&quot;1&quot; parent=&quot;PlhUNaWbmzm0HPJQHhij-2&quot;&gt;&#10;          &lt;mxGeometry y=&quot;90&quot; width=&quot;140&quot; height=&quot;30&quot; as=&quot;geometry&quot; /&gt;&#10;        &lt;/mxCell&gt;&#10;        &lt;mxCell id=&quot;PlhUNaWbmzm0HPJQHhij-6&quot; value=&quot;View(视图)&quot; style=&quot;swimlane;sketch=1;hachureGap=4;jiggle=2;curveFitting=1;fontFamily=LXGW WenKai;fontSize=15;strokeColor=#E07A5F;align=center;verticalAlign=middle;fontColor=#393C56;fontStyle=1;fillColor=#F2CC8F;labelBackgroundColor=none;&quot; vertex=&quot;1&quot; parent=&quot;1&quot;&gt;&#10;          &lt;mxGeometry x=&quot;-232&quot; y=&quot;508&quot; width=&quot;164&quot; height=&quot;205&quot; as=&quot;geometry&quot; /&gt;&#10;        &lt;/mxCell&gt;&#10;        &lt;mxCell id=&quot;PlhUNaWbmzm0HPJQHhij-19&quot; value=&quot;JSP&quot; style=&quot;swimlane;fontStyle=0;childLayout=stackLayout;horizontal=1;startSize=30;horizontalStack=0;resizeParent=1;resizeParentMax=0;resizeLast=0;collapsible=1;marginBottom=0;sketch=1;hachureGap=4;jiggle=2;curveFitting=1;fontFamily=LXGW WenKai;&quot; vertex=&quot;1&quot; parent=&quot;PlhUNaWbmzm0HPJQHhij-6&quot;&gt;&#10;          &lt;mxGeometry x=&quot;15&quot; y=&quot;40&quot; width=&quot;140&quot; height=&quot;60&quot; as=&quot;geometry&quot; /&gt;&#10;        &lt;/mxCell&gt;&#10;        &lt;mxCell id=&quot;PlhUNaWbmzm0HPJQHhij-20&quot; value=&quot;正确页面&quot; style=&quot;text;strokeColor=none;fillColor=none;align=left;verticalAlign=middle;spacingLeft=4;spacingRight=4;overflow=hidden;points=[[0,0.5],[1,0.5]];portConstraint=eastwest;rotatable=0;fontFamily=LXGW WenKai;&quot; vertex=&quot;1&quot; parent=&quot;PlhUNaWbmzm0HPJQHhij-19&quot;&gt;&#10;          &lt;mxGeometry y=&quot;30&quot; width=&quot;140&quot; height=&quot;30&quot; as=&quot;geometry&quot; /&gt;&#10;        &lt;/mxCell&gt;&#10;        &lt;mxCell id=&quot;PlhUNaWbmzm0HPJQHhij-23&quot; value=&quot;JSP&quot; style=&quot;swimlane;fontStyle=0;childLayout=stackLayout;horizontal=1;startSize=30;horizontalStack=0;resizeParent=1;resizeParentMax=0;resizeLast=0;collapsible=1;marginBottom=0;sketch=1;hachureGap=4;jiggle=2;curveFitting=1;fontFamily=LXGW WenKai;&quot; vertex=&quot;1&quot; parent=&quot;PlhUNaWbmzm0HPJQHhij-6&quot;&gt;&#10;          &lt;mxGeometry x=&quot;12&quot; y=&quot;125&quot; width=&quot;140&quot; height=&quot;60&quot; as=&quot;geometry&quot; /&gt;&#10;        &lt;/mxCell&gt;&#10;        &lt;mxCell id=&quot;PlhUNaWbmzm0HPJQHhij-24&quot; value=&quot;错误页面&quot; style=&quot;text;strokeColor=none;fillColor=none;align=left;verticalAlign=middle;spacingLeft=4;spacingRight=4;overflow=hidden;points=[[0,0.5],[1,0.5]];portConstraint=eastwest;rotatable=0;fontFamily=LXGW WenKai;&quot; vertex=&quot;1&quot; parent=&quot;PlhUNaWbmzm0HPJQHhij-23&quot;&gt;&#10;          &lt;mxGeometry y=&quot;30&quot; width=&quot;140&quot; height=&quot;30&quot; as=&quot;geometry&quot; /&gt;&#10;        &lt;/mxCell&gt;&#10;        &lt;mxCell id=&quot;PlhUNaWbmzm0HPJQHhij-10&quot; style=&quot;edgeStyle=none;rounded=0;sketch=1;hachureGap=4;jiggle=2;curveFitting=1;orthogonalLoop=1;jettySize=auto;exitX=1;exitY=0.5;exitDx=0;exitDy=0;entryX=-0.008;entryY=0.33;entryDx=0;entryDy=0;fontFamily=LXGW WenKai;entryPerimeter=0;&quot; edge=&quot;1&quot; parent=&quot;1&quot; source=&quot;PlhUNaWbmzm0HPJQHhij-5&quot; target=&quot;PlhUNaWbmzm0HPJQHhij-19&quot;&gt;&#10;          &lt;mxGeometry relative=&quot;1&quot; as=&quot;geometry&quot;&gt;&#10;            &lt;mxPoint x=&quot;-188&quot; y=&quot;620&quot; as=&quot;targetPoint&quot; /&gt;&#10;          &lt;/mxGeometry&gt;&#10;        &lt;/mxCell&gt;&#10;        &lt;mxCell id=&quot;PlhUNaWbmzm0HPJQHhij-12&quot; value=&quot;重定向&quot; style=&quot;edgeLabel;align=center;verticalAlign=middle;resizable=0;points=[];sketch=1;hachureGap=4;jiggle=2;curveFitting=1;fontFamily=LXGW WenKai;&quot; vertex=&quot;1&quot; connectable=&quot;0&quot; parent=&quot;PlhUNaWbmzm0HPJQHhij-10&quot;&gt;&#10;          &lt;mxGeometry x=&quot;-0.0336&quot; relative=&quot;1&quot; as=&quot;geometry&quot;&gt;&#10;            &lt;mxPoint x=&quot;3&quot; y=&quot;4&quot; as=&quot;offset&quot; /&gt;&#10;          &lt;/mxGeometry&gt;&#10;        &lt;/mxCell&gt;&#10;        &lt;mxCell id=&quot;PlhUNaWbmzm0HPJQHhij-11&quot; style=&quot;edgeStyle=none;rounded=0;sketch=1;hachureGap=4;jiggle=2;curveFitting=1;orthogonalLoop=1;jettySize=auto;exitX=1;exitY=0.5;exitDx=0;exitDy=0;fontFamily=LXGW WenKai;entryX=0;entryY=0.25;entryDx=0;entryDy=0;&quot; edge=&quot;1&quot; parent=&quot;1&quot; source=&quot;PlhUNaWbmzm0HPJQHhij-5&quot; target=&quot;PlhUNaWbmzm0HPJQHhij-23&quot;&gt;&#10;          &lt;mxGeometry relative=&quot;1&quot; as=&quot;geometry&quot;&gt;&#10;            &lt;mxPoint x=&quot;-188&quot; y=&quot;699&quot; as=&quot;targetPoint&quot; /&gt;&#10;          &lt;/mxGeometry&gt;&#10;        &lt;/mxCell&gt;&#10;        &lt;mxCell id=&quot;PlhUNaWbmzm0HPJQHhij-13&quot; value=&quot;重定向&quot; style=&quot;edgeLabel;align=center;verticalAlign=middle;resizable=0;points=[];sketch=1;hachureGap=4;jiggle=2;curveFitting=1;fontFamily=LXGW WenKai;&quot; vertex=&quot;1&quot; connectable=&quot;0&quot; parent=&quot;PlhUNaWbmzm0HPJQHhij-11&quot;&gt;&#10;          &lt;mxGeometry x=&quot;-0.0853&quot; y=&quot;1&quot; relative=&quot;1&quot; as=&quot;geometry&quot;&gt;&#10;            &lt;mxPoint as=&quot;offset&quot; /&gt;&#10;          &lt;/mxGeometry&gt;&#10;        &lt;/mxCell&gt;&#10;        &lt;mxCell id=&quot;PlhUNaWbmzm0HPJQHhij-14&quot; value=&quot;Model(模型)&quot; style=&quot;swimlane;sketch=1;hachureGap=4;jiggle=2;curveFitting=1;fontFamily=LXGW WenKai;fontSize=15;strokeColor=#E07A5F;align=center;verticalAlign=middle;fontColor=#393C56;fontStyle=1;fillColor=#F2CC8F;labelBackgroundColor=none;&quot; vertex=&quot;1&quot; parent=&quot;1&quot;&gt;&#10;          &lt;mxGeometry x=&quot;-242&quot; y=&quot;346&quot; width=&quot;234&quot; height=&quot;138&quot; as=&quot;geometry&quot; /&gt;&#10;        &lt;/mxCell&gt;&#10;        &lt;mxCell id=&quot;PlhUNaWbmzm0HPJQHhij-15&quot; value=&quot;Service&quot; style=&quot;swimlane;fontStyle=0;childLayout=stackLayout;horizontal=1;startSize=30;horizontalStack=0;resizeParent=1;resizeParentMax=0;resizeLast=0;collapsible=1;marginBottom=0;sketch=1;hachureGap=4;jiggle=2;curveFitting=1;fontFamily=LXGW WenKai;&quot; vertex=&quot;1&quot; parent=&quot;PlhUNaWbmzm0HPJQHhij-14&quot;&gt;&#10;          &lt;mxGeometry x=&quot;35&quot; y=&quot;47&quot; width=&quot;140&quot; height=&quot;60&quot; as=&quot;geometry&quot; /&gt;&#10;        &lt;/mxCell&gt;&#10;        &lt;mxCell id=&quot;PlhUNaWbmzm0HPJQHhij-16&quot; value=&quot;处理业务逻辑&quot; style=&quot;text;strokeColor=none;fillColor=none;align=left;verticalAlign=middle;spacingLeft=4;spacingRight=4;overflow=hidden;points=[[0,0.5],[1,0.5]];portConstraint=eastwest;rotatable=0;fontFamily=LXGW WenKai;&quot; vertex=&quot;1&quot; parent=&quot;PlhUNaWbmzm0HPJQHhij-15&quot;&gt;&#10;          &lt;mxGeometry y=&quot;30&quot; width=&quot;140&quot; height=&quot;30&quot; as=&quot;geometry&quot; /&gt;&#10;        &lt;/mxCell&gt;&#10;        &lt;mxCell id=&quot;PlhUNaWbmzm0HPJQHhij-25&quot; style=&quot;edgeStyle=none;rounded=0;sketch=1;hachureGap=4;jiggle=2;curveFitting=1;orthogonalLoop=1;jettySize=auto;exitX=1;exitY=0.5;exitDx=0;exitDy=0;entryX=0;entryY=0.5;entryDx=0;entryDy=0;fontFamily=LXGW WenKai;&quot; edge=&quot;1&quot; parent=&quot;1&quot; source=&quot;PlhUNaWbmzm0HPJQHhij-4&quot; target=&quot;PlhUNaWbmzm0HPJQHhij-16&quot;&gt;&#10;          &lt;mxGeometry relative=&quot;1&quot; as=&quot;geometry&quot; /&gt;&#10;        &lt;/mxCell&gt;&#10;        &lt;mxCell id=&quot;PlhUNaWbmzm0HPJQHhij-26&quot; value=&quot;Dao&quot; style=&quot;swimlane;fontStyle=0;childLayout=stackLayout;horizontal=1;startSize=30;horizontalStack=0;resizeParent=1;resizeParentMax=0;resizeLast=0;collapsible=1;marginBottom=0;sketch=1;hachureGap=4;jiggle=2;curveFitting=1;fontFamily=LXGW WenKai;&quot; vertex=&quot;1&quot; parent=&quot;1&quot;&gt;&#10;          &lt;mxGeometry x=&quot;17&quot; y=&quot;392&quot; width=&quot;140&quot; height=&quot;60&quot; as=&quot;geometry&quot; /&gt;&#10;        &lt;/mxCell&gt;&#10;        &lt;mxCell id=&quot;PlhUNaWbmzm0HPJQHhij-27&quot; value=&quot;负责数据库的增删改查&quot; style=&quot;text;strokeColor=none;fillColor=none;align=left;verticalAlign=middle;spacingLeft=4;spacingRight=4;overflow=hidden;points=[[0,0.5],[1,0.5]];portConstraint=eastwest;rotatable=0;fontFamily=LXGW WenKai;&quot; vertex=&quot;1&quot; parent=&quot;PlhUNaWbmzm0HPJQHhij-26&quot;&gt;&#10;          &lt;mxGeometry y=&quot;30&quot; width=&quot;140&quot; height=&quot;30&quot; as=&quot;geometry&quot; /&gt;&#10;        &lt;/mxCell&gt;&#10;        &lt;mxCell id=&quot;PlhUNaWbmzm0HPJQHhij-30&quot; style=&quot;edgeStyle=none;rounded=0;sketch=1;hachureGap=4;jiggle=2;curveFitting=1;orthogonalLoop=1;jettySize=auto;exitX=1;exitY=0.5;exitDx=0;exitDy=0;entryX=0;entryY=0.5;entryDx=0;entryDy=0;fontFamily=LXGW WenKai;&quot; edge=&quot;1&quot; parent=&quot;1&quot; source=&quot;PlhUNaWbmzm0HPJQHhij-16&quot; target=&quot;PlhUNaWbmzm0HPJQHhij-27&quot;&gt;&#10;          &lt;mxGeometry relative=&quot;1&quot; as=&quot;geometry&quot; /&gt;&#10;        &lt;/mxCell&gt;&#10;        &lt;mxCell id=&quot;PlhUNaWbmzm0HPJQHhij-32&quot; style=&quot;edgeStyle=none;rounded=0;sketch=1;hachureGap=4;jiggle=2;curveFitting=1;orthogonalLoop=1;jettySize=auto;exitX=1;exitY=0.25;exitDx=0;exitDy=0;entryX=0;entryY=0.5;entryDx=0;entryDy=0;fontFamily=LXGW WenKai;&quot; edge=&quot;1&quot; parent=&quot;1&quot; target=&quot;PlhUNaWbmzm0HPJQHhij-3&quot;&gt;&#10;          &lt;mxGeometry relative=&quot;1&quot; as=&quot;geometry&quot;&gt;&#10;            &lt;mxPoint x=&quot;-665&quot; y=&quot;443&quot; as=&quot;sourcePoint&quot; /&gt;&#10;          &lt;/mxGeometry&gt;&#10;        &lt;/mxCell&gt;&#10;        &lt;mxCell id=&quot;PlhUNaWbmzm0HPJQHhij-34&quot; value=&quot;请求&quot; style=&quot;edgeLabel;align=center;verticalAlign=middle;resizable=0;points=[];sketch=1;hachureGap=4;jiggle=2;curveFitting=1;fontFamily=LXGW WenKai;&quot; vertex=&quot;1&quot; connectable=&quot;0&quot; parent=&quot;PlhUNaWbmzm0HPJQHhij-32&quot;&gt;&#10;          &lt;mxGeometry x=&quot;-0.4829&quot; relative=&quot;1&quot; as=&quot;geometry&quot;&gt;&#10;            &lt;mxPoint as=&quot;offset&quot; /&gt;&#10;          &lt;/mxGeometry&gt;&#10;        &lt;/mxCell&gt;&#10;      &lt;/root&gt;&#10;    &lt;/mxGraphModel&gt;&#10;  &lt;/diagram&gt;&#10;&lt;/mxfile&gt;&#10;" resource="https://app.diagrams.net/#Hluguosong%2Fimages%2Fmaster%2Fdiagrams%2Fjava_serve%2Fweb_application%2Fmvc%2FMVC%E6%9E%B6%E6%9E%84%E6%A8%A1%E5%BC%8F.svg#%7B%22pageId%22%3A%2223iRSUPoRavnBvh4doch%22%7D"><defs><clipPath id="mx-clip-209-123-132-30-0"><rect x="209" y="123" width="132" height="30"/></clipPath><clipPath id="mx-clip-209-153-132-30-0"><rect x="209" y="153" width="132" height="30"/></clipPath><clipPath id="mx-clip-209-183-132-30-0"><rect x="209" y="183" width="132" height="30"/></clipPath><clipPath id="mx-clip-474-271-132-30-0"><rect x="474" y="271" width="132" height="30"/></clipPath><clipPath id="mx-clip-471-356-132-30-0"><rect x="471" y="356" width="132" height="30"/></clipPath><clipPath id="mx-clip-484-116-132-30-0"><rect x="484" y="116" width="132" height="30"/></clipPath><clipPath id="mx-clip-708-115-132-30-0"><rect x="708" y="115" width="132" height="30"/></clipPath></defs><g><g><rect x="0" y="0" width="867" height="428" fill="none" stroke="none" pointer-events="all"/><path d="M -3.83 1.73 L 870.79 -1.58 L 869.83 427.36 L -3.08 426.23" fill="rgb(255, 255, 255)" stroke="none" pointer-events="all"/><path d="M 0 0 C 271.38 -1.58 540.56 -2.73 867 0 M 0 0 C 324.65 -6.99 649.15 -7.45 867 0 M 867 0 C 865.82 124 864.14 249.37 867 428 M 867 0 C 870.56 166.23 871.24 331.56 867 428 M 867 428 C 656.81 433.62 450.47 432.75 0 428 M 867 428 C 663.54 429.72 460.86 429.2 0 428 M 0 428 C -1.07 270.43 -0.62 110.13 0 0 M 0 428 C 2.92 259.11 3.1 89.94 0 0" fill="none" stroke="rgb(0, 0, 0)" stroke-linejoin="round" stroke-linecap="round" stroke-miterlimit="10" pointer-events="all"/></g><g><path d="M 134 52 L 134 29 L 431 29 L 431 52" fill="none" stroke="none" pointer-events="all"/><path d="M 134 29 C 134 29 134 29 134 29 M 134 29 C 134 29 134 29 134 29 M 133.74 35.4 C 135.57 32.21 135.59 31.59 138.99 29.36 M 133.74 35.4 C 135.19 33.39 136.15 32.15 138.99 29.36 M 134.13 41.04 C 140.02 34.88 139.82 29.8 144.63 28.97 M 134.13 41.04 C 136 37.83 140.23 32.64 144.63 28.97 M 133.87 47.44 C 134.41 39.71 143.65 39.48 149.62 29.33 M 133.87 47.44 C 139.28 41.44 146.44 35.53 149.62 29.33 M 134.92 52.33 C 144.33 42.9 148.67 35.72 155.26 28.93 M 134.92 52.33 C 142.52 45.48 147.28 37.43 155.26 28.93 M 139.91 52.69 C 144.57 45.38 156.25 33.58 160.25 29.29 M 139.91 52.69 C 145.68 45.43 154.15 35.27 160.25 29.29 M 145.55 52.29 C 151.59 43.96 159.58 37.28 165.89 28.9 M 145.55 52.29 C 150.91 48.44 154.13 41.67 165.89 28.9 M 150.54 52.65 C 158.29 44.35 166.27 38.52 170.88 29.26 M 150.54 52.65 C 159.28 45.49 163.2 36.96 170.88 29.26 M 156.18 52.26 C 163.18 48.22 167.3 39.09 176.52 28.86 M 156.18 52.26 C 163.52 47.25 169.23 39.71 176.52 28.86 M 161.17 52.62 C 165.35 43.83 174.67 39.74 181.51 29.22 M 161.17 52.62 C 165.95 45.73 171.81 41.5 181.51 29.22 M 166.81 52.22 C 174.62 45.34 182.58 38.14 187.15 28.83 M 166.81 52.22 C 173.62 44.82 178.3 39.41 187.15 28.83 M 171.8 52.58 C 177.08 43.86 183.3 44.9 192.14 29.19 M 171.8 52.58 C 180.43 43.41 187.17 33.64 192.14 29.19 M 176.79 52.94 C 182.06 46.7 189.46 39.91 197.78 28.79 M 176.79 52.94 C 180.17 46.34 186.59 40.83 197.78 28.79 M 182.43 52.55 C 188.16 48.86 197.79 36.92 202.77 29.15 M 182.43 52.55 C 190.18 45.08 198.57 36.24 202.77 29.15 M 187.42 52.91 C 196.75 47.87 199.08 37.33 208.41 28.76 M 187.42 52.91 C 194.37 43.64 200.86 36.63 208.41 28.76 M 193.06 52.51 C 202.5 41.62 209.25 34.05 213.4 29.12 M 193.06 52.51 C 199.59 42.54 205.99 34.13 213.4 29.12 M 198.05 52.87 C 207.35 47.77 208.64 35.26 219.04 28.72 M 198.05 52.87 C 203.69 43.89 209.86 38.57 219.04 28.72 M 203.69 52.48 C 211.07 46.92 216.31 35.33 224.03 29.08 M 203.69 52.48 C 209 46.07 218.98 37.43 224.03 29.08 M 208.68 52.84 C 218.09 45.06 223.08 38.04 229.67 28.69 M 208.68 52.84 C 216.32 47.41 220.99 40.2 229.67 28.69 M 214.32 52.45 C 222.24 49.72 227.36 39.61 234.66 29.05 M 214.32 52.45 C 220.71 45.37 226.69 37.74 234.66 29.05 M 219.31 52.81 C 220.81 44.31 231.53 42.65 240.3 28.66 M 219.31 52.81 C 226.29 44.35 232.96 35.77 240.3 28.66 M 224.95 52.41 C 231.59 45.68 238.42 40 245.29 29.02 M 224.95 52.41 C 230.91 44.56 241.72 35.89 245.29 29.02 M 229.94 52.77 C 237.29 47.16 237.29 42.9 250.27 29.38 M 229.94 52.77 C 236.05 47.53 242.08 42.06 250.27 29.38 M 235.58 52.38 C 240.81 44.26 251.93 34.91 255.92 28.98 M 235.58 52.38 C 239.5 47.11 246.01 42.84 255.92 28.98 M 240.57 52.74 C 249.85 46.19 256.89 35.31 260.91 29.34 M 240.57 52.74 C 244.91 46.15 252.1 40.06 260.91 29.34 M 246.21 52.34 C 252.79 49.31 255.87 42.14 266.55 28.95 M 246.21 52.34 C 250.6 43.27 259.49 37.04 266.55 28.95 M 251.2 52.7 C 257.69 41.91 267.69 32.45 271.54 29.31 M 251.2 52.7 C 256.26 46.19 259.69 43.79 271.54 29.31 M 256.84 52.31 C 266.91 39.84 275.27 35.43 277.18 28.91 M 256.84 52.31 C 263.95 45.58 271.13 39.39 277.18 28.91 M 261.83 52.67 C 265.32 42.09 276.9 37.46 282.17 29.27 M 261.83 52.67 C 266.81 44.06 276.74 34.89 282.17 29.27 M 267.47 52.27 C 271.25 44.71 275.9 42.05 287.81 28.88 M 267.47 52.27 C 274.48 45.25 282.85 34.88 287.81 28.88 M 272.46 52.63 C 277.5 44.47 288.43 30.38 292.8 29.24 M 272.46 52.63 C 277.83 45.62 285.16 36.56 292.8 29.24 M 278.1 52.24 C 282.8 45.11 297.28 32.38 298.44 28.84 M 278.1 52.24 C 281.71 45.49 286.67 39.95 298.44 28.84 M 283.09 52.6 C 292.25 45.95 299.68 31.33 303.43 29.2 M 283.09 52.6 C 289.83 45.18 295.92 37.22 303.43 29.2 M 288.07 52.96 C 296.63 42.17 297.1 36.83 309.07 28.81 M 288.07 52.96 C 298 45.71 305.52 35.03 309.07 28.81 M 293.72 52.56 C 301.68 40.62 306.62 36.47 314.06 29.17 M 293.72 52.56 C 299.08 42.71 309.3 33.69 314.06 29.17 M 298.7 52.92 C 306.9 48.13 308.3 33.77 319.7 28.77 M 298.7 52.92 C 306.43 44.36 309.61 37.97 319.7 28.77 M 304.35 52.53 C 308.26 46.8 315.93 41.76 324.69 29.13 M 304.35 52.53 C 310.78 45.49 316.12 36.92 324.69 29.13 M 309.33 52.89 C 315.27 47.38 319.98 42.71 330.33 28.74 M 309.33 52.89 C 316.3 42.58 326.26 35.61 330.33 28.74 M 314.98 52.5 C 317.68 49.41 321.9 41.36 335.32 29.1 M 314.98 52.5 C 321.02 48.95 323.69 40.07 335.32 29.1 M 319.96 52.86 C 326.46 43.86 332.86 36.91 340.96 28.7 M 319.96 52.86 C 325.61 41.91 336.21 36.7 340.96 28.7 M 325.61 52.46 C 333.7 44.06 341.28 31.63 345.95 29.06 M 325.61 52.46 C 331.87 41.66 343.11 34.9 345.95 29.06 M 330.59 52.82 C 337.79 48.25 336.05 42.41 351.59 28.67 M 330.59 52.82 C 339.74 44.05 345.72 34.55 351.59 28.67 M 336.24 52.43 C 343.44 43.12 350.44 34.65 356.58 29.03 M 336.24 52.43 C 343.09 43.95 348.47 37.71 356.58 29.03 M 341.23 52.79 C 348.7 46.61 353.97 40.85 362.22 28.64 M 341.23 52.79 C 348.67 46.01 354.95 37.46 362.22 28.64 M 346.87 52.39 C 350.11 49.87 358.31 45.57 367.21 29 M 346.87 52.39 C 350.71 43.85 360.02 36.59 367.21 29 M 351.86 52.75 C 356.75 43.12 360.53 43.07 372.19 29.36 M 351.86 52.75 C 356.43 45.17 363.82 39.51 372.19 29.36 M 357.5 52.36 C 362.34 46.3 375.74 33.17 377.84 28.96 M 357.5 52.36 C 360.31 46.98 365.06 44.65 377.84 28.96 M 362.49 52.72 C 367.88 46.99 371.46 38.19 382.82 29.32 M 362.49 52.72 C 368.19 46.46 371.43 40.62 382.82 29.32 M 368.13 52.32 C 375.77 42.17 384.65 36.28 388.47 28.93 M 368.13 52.32 C 373.58 44.85 380.77 38.32 388.47 28.93 M 373.12 52.68 C 374.38 50.77 384.46 43.62 393.45 29.29 M 373.12 52.68 C 382.72 42.86 387.6 35.47 393.45 29.29 M 378.76 52.29 C 386.4 43.09 395.96 35.06 399.1 28.89 M 378.76 52.29 C 385.12 44.98 394.69 33.52 399.1 28.89 M 383.75 52.65 C 395.18 45.65 400.59 33.39 404.08 29.25 M 383.75 52.65 C 386.63 46.14 391.59 41.47 404.08 29.25 M 389.39 52.25 C 399.3 41.11 401.95 32.4 409.73 28.86 M 389.39 52.25 C 397.23 44.52 399.7 38.55 409.73 28.86 M 394.38 52.61 C 405.12 40.94 408.93 33.95 414.71 29.22 M 394.38 52.61 C 397.66 47.17 403.77 42.47 414.71 29.22 M 399.36 52.97 C 404.54 45.81 412.51 31.97 420.36 28.82 M 399.36 52.97 C 404.89 48.87 411.26 42.52 420.36 28.82 M 405.01 52.58 C 409.56 48.17 417.68 35.47 425.34 29.18 M 405.01 52.58 C 410.36 43.84 418.72 37.5 425.34 29.18 M 409.99 52.94 C 417.34 47.23 418.17 39.1 430.99 28.79 M 409.99 52.94 C 419.46 45.63 426.43 35.98 430.99 28.79 M 415.64 52.54 C 424.28 43.56 428.01 34.49 431.38 34.43 M 415.64 52.54 C 422.51 44.89 426.11 37.23 431.38 34.43 M 420.62 52.91 C 424.88 49.77 431.06 45.85 431.78 40.08 M 420.62 52.91 C 424.27 49.43 428.61 44.23 431.78 40.08 M 426.27 52.51 C 428.24 50.82 428.88 50.65 431.51 46.47 M 426.27 52.51 C 427.65 51.86 428.69 49.21 431.51 46.47" fill="none" stroke="#f2cc8f" stroke-width="0.5" stroke-linejoin="round" stroke-linecap="round" stroke-miterlimit="10" pointer-events="all"/><path d="M 134 52 C 132.7 43.21 137.09 35.82 134 29 M 134 52 C 133.04 47.32 134.71 43.55 134 29 M 134 29 C 206.45 27.67 273.73 29.57 431 29 M 134 29 C 194.67 24.83 258.75 24.96 431 29 M 431 29 C 429.09 35.92 433.74 44.3 431 52 M 431 29 C 431.45 38.59 430.49 46.23 431 52" fill="none" stroke="#e07a5f" stroke-linejoin="round" stroke-linecap="round" stroke-miterlimit="10" pointer-events="all"/><path d="M 134 52 C 129.7 101.42 134.09 152.23 134 241 M 134 52 C 131.42 92.12 133.09 133.15 134 241 M 134 241 C 206.45 239.67 273.73 241.57 431 241 M 134 241 C 194.67 236.83 258.75 236.96 431 241 M 431 241 C 426.32 189.49 430.97 139.44 431 52 M 431 241 C 427.61 166.83 426.65 90.7 431 52" fill="none" stroke="#e07a5f" stroke-linejoin="round" stroke-linecap="round" stroke-miterlimit="10" pointer-events="none"/><path d="M 134 52 C 214.35 47.12 299.13 46.33 431 52 M 134 52 C 195.92 50.95 259.92 51.75 431 52" fill="none" stroke="#e07a5f" stroke-linejoin="round" stroke-linecap="round" stroke-miterlimit="10" pointer-events="none"/></g><g><g fill="#393C56" font-family="LXGW WenKai" font-weight="bold" text-anchor="middle" font-size="15px"><text x="282" y="46.5">Controller(控制器)</text></g></g><g><path d="M 205 123 L 205 93 L 345 93 L 345 123" fill="none" stroke="none" pointer-events="all"/><path d="M 205 123 C 204.4 117.7 205.74 106.26 205 93 C 245.65 101.49 285.2 97.75 345 93 C 340.6 97.49 347.32 106.72 345 123" fill="rgb(255, 255, 255)" stroke="none" pointer-events="all"/><path d="M 205 123 C 201.41 118.22 203.45 109.3 205 93 M 205 123 C 206.41 115.11 203.23 106.14 205 93 M 205 93 C 244.85 96.99 284.16 96.9 345 93 M 205 93 C 259.35 93.26 313.64 97 345 93 M 345 93 C 341.9 102.96 342.5 107.11 345 123 M 345 93 C 343.64 100.86 344.73 108.27 345 123" fill="none" stroke="rgb(0, 0, 0)" stroke-linejoin="round" stroke-linecap="round" stroke-miterlimit="10" pointer-events="all"/><path d="M 205 123 C 200.12 151.17 202.16 175.2 205 213 M 205 123 C 205.81 149.11 202.63 174.13 205 213 M 205 213 C 244.85 216.99 284.16 216.9 345 213 M 205 213 C 259.35 213.26 313.64 217 345 213 M 345 213 C 340.59 194.5 341.18 170.2 345 123 M 345 213 C 343.15 192.54 344.24 171.63 345 123" fill="none" stroke="rgb(0, 0, 0)" stroke-linejoin="round" stroke-linecap="round" stroke-miterlimit="10" pointer-events="none"/><path d="M 205 123 C 239.53 126.74 280.01 126.06 345 123 M 205 123 C 245.92 121.16 282.41 120.69 345 123" fill="none" stroke="rgb(0, 0, 0)" stroke-linejoin="round" stroke-linecap="round" stroke-miterlimit="10" pointer-events="none"/></g><g><g fill="rgb(0, 0, 0)" font-family="LXGW WenKai" text-anchor="middle" font-size="12px"><text x="274.5" y="112.5">Servlet</text></g></g><g><rect x="205" y="123" width="140" height="30" fill="none" stroke="none" pointer-events="all"/></g><g><g fill="rgb(0, 0, 0)" font-family="LXGW WenKai" clip-path="url(#mx-clip-209-123-132-30-0)" font-size="12px"><text x="210.5" y="142.5">接收请求数据</text></g></g><g><rect x="205" y="153" width="140" height="30" fill="none" stroke="none" pointer-events="all"/></g><g><g fill="rgb(0, 0, 0)" font-family="LXGW WenKai" clip-path="url(#mx-clip-209-153-132-30-0)" font-size="12px"><text x="210.5" y="172.5">调度Moel处理业务</text></g></g><g><rect x="205" y="183" width="140" height="30" fill="none" stroke="none" pointer-events="all"/></g><g><g fill="rgb(0, 0, 0)" font-family="LXGW WenKai" clip-path="url(#mx-clip-209-183-132-30-0)" font-size="12px"><text x="210.5" y="202.5">调度View做页面展示</text></g></g><g><path d="M 455 224 L 455 201 L 619 201 L 619 224" fill="none" stroke="none" pointer-events="all"/><path d="M 455 201 C 455 201 455 201 455 201 M 455 201 C 455 201 455 201 455 201 M 454.74 207.4 C 457.21 204.94 457.67 205.62 459.99 201.36 M 454.74 207.4 C 456.08 205.09 458.38 202.51 459.99 201.36 M 455.13 213.04 C 459.62 208.26 461.28 202.08 465.63 200.97 M 455.13 213.04 C 457.16 208.31 461.04 207.08 465.63 200.97 M 454.87 219.44 C 460.48 217.04 464.96 207.81 470.62 201.33 M 454.87 219.44 C 461.16 212.77 465.26 208.95 470.62 201.33 M 455.92 224.33 C 460.75 212.35 473.88 208.99 476.26 200.93 M 455.92 224.33 C 462.83 219.33 466.37 211.47 476.26 200.93 M 460.91 224.69 C 465.8 222.19 472.59 213.68 481.25 201.29 M 460.91 224.69 C 468.98 216.84 475.67 207.14 481.25 201.29 M 466.55 224.29 C 471.43 218.59 474.13 216.89 486.89 200.9 M 466.55 224.29 C 472.56 217.03 474.66 211.21 486.89 200.9 M 471.54 224.65 C 473.89 217.63 483.12 213.28 491.88 201.26 M 471.54 224.65 C 476.81 219.45 483.42 211.04 491.88 201.26 M 477.18 224.26 C 480.43 213.56 490.08 210.93 497.52 200.86 M 477.18 224.26 C 486.48 215.54 491.46 206.69 497.52 200.86 M 482.17 224.62 C 486.78 212.86 493.6 204.74 502.51 201.22 M 482.17 224.62 C 490.48 215.25 496.93 207.29 502.51 201.22 M 487.81 224.22 C 494.01 216.49 495.61 212.31 508.15 200.83 M 487.81 224.22 C 494.69 216.52 501.94 209.35 508.15 200.83 M 492.8 224.58 C 497.65 218.98 507.39 206.36 513.14 201.19 M 492.8 224.58 C 501.51 217.15 508.56 208.46 513.14 201.19 M 497.79 224.94 C 502.33 218.59 510.43 214.46 518.78 200.79 M 497.79 224.94 C 504.73 217.12 508.08 212.89 518.78 200.79 M 503.43 224.55 C 511.22 216.65 518.06 209.98 523.77 201.15 M 503.43 224.55 C 506.9 221.19 510.18 215.77 523.77 201.15 M 508.42 224.91 C 512.74 219.27 518.31 209.22 529.41 200.76 M 508.42 224.91 C 513.41 217.8 517.35 215.09 529.41 200.76 M 514.06 224.51 C 518 216.89 525.43 210.19 534.4 201.12 M 514.06 224.51 C 520.53 219.48 522.65 217.03 534.4 201.12 M 519.05 224.87 C 523.39 216.25 532.01 203.96 540.04 200.72 M 519.05 224.87 C 525.06 219.92 528.55 210.15 540.04 200.72 M 524.69 224.48 C 531.39 213.11 538.86 204.02 545.03 201.08 M 524.69 224.48 C 531.7 219.66 536.05 211.16 545.03 201.08 M 529.68 224.84 C 534.36 220.63 545.22 209.4 550.67 200.69 M 529.68 224.84 C 536.21 216.65 541.1 212.59 550.67 200.69 M 535.32 224.45 C 544.31 220.82 551.51 208.32 555.66 201.05 M 535.32 224.45 C 542.42 214.84 549.2 206.39 555.66 201.05 M 540.31 224.81 C 544.53 220.31 556.58 205.16 561.3 200.66 M 540.31 224.81 C 546.2 218.93 548.42 214.96 561.3 200.66 M 545.95 224.41 C 555.41 214.01 561.09 205.79 566.29 201.02 M 545.95 224.41 C 552.14 217.91 560.27 208.93 566.29 201.02 M 550.94 224.77 C 558.74 219.67 561.45 206.25 571.27 201.38 M 550.94 224.77 C 558.47 217.28 564.87 208.18 571.27 201.38 M 556.58 224.38 C 559.21 220.13 569.48 209.67 576.92 200.98 M 556.58 224.38 C 560.1 220.76 567.23 215.89 576.92 200.98 M 561.57 224.74 C 565.01 214.26 576.79 211.72 581.91 201.34 M 561.57 224.74 C 566.22 220.21 569.83 215.14 581.91 201.34 M 567.21 224.34 C 568.86 221 575.88 215.56 587.55 200.95 M 567.21 224.34 C 570.18 219.36 574.73 213.29 587.55 200.95 M 572.2 224.7 C 579.23 214.37 586.28 208.44 592.54 201.31 M 572.2 224.7 C 578.62 217.97 579.31 214.3 592.54 201.31 M 577.84 224.31 C 582.33 222.4 584.78 215.43 598.18 200.91 M 577.84 224.31 C 582.82 217.21 591.91 207.91 598.18 200.91 M 582.83 224.67 C 584.95 217.14 591.04 208.36 603.17 201.27 M 582.83 224.67 C 588.46 217.59 596.03 210.42 603.17 201.27 M 588.47 224.27 C 592.11 217.82 597.69 210.36 608.81 200.88 M 588.47 224.27 C 594.97 215.26 606.3 206.17 608.81 200.88 M 593.46 224.63 C 596.37 220.75 606.3 209.39 613.8 201.24 M 593.46 224.63 C 599.52 220.48 602.57 214.75 613.8 201.24 M 599.1 224.24 C 606.7 215.37 612.74 211.05 619.44 200.84 M 599.1 224.24 C 607.38 215.08 617.25 206.99 619.44 200.84 M 604.09 224.6 C 612.3 217.75 612.12 215.28 619.18 207.24 M 604.09 224.6 C 606.93 220.68 614.49 215.81 619.18 207.24 M 609.07 224.96 C 613.16 221.36 617.05 217.06 618.92 213.64 M 609.07 224.96 C 613.32 220.38 618.19 217.25 618.92 213.64 M 614.72 224.56 C 616.72 223.16 616.68 221.08 619.31 219.28 M 614.72 224.56 C 615.48 223.29 617.61 221.34 619.31 219.28" fill="none" stroke="#f2cc8f" stroke-width="0.5" stroke-linejoin="round" stroke-linecap="round" stroke-miterlimit="10" pointer-events="all"/><path d="M 455 224 C 457.88 220.85 458.5 207.45 455 201 M 455 224 C 453.69 213.78 455.12 206.51 455 201 M 455 201 C 488.67 207.45 523.68 204.7 619 201 M 455 201 C 500.18 203.25 546.66 201.25 619 201 M 619 201 C 618.76 211.4 619.17 210.94 619 224 M 619 201 C 619.18 212.09 620.45 220.71 619 224" fill="none" stroke="#e07a5f" stroke-linejoin="round" stroke-linecap="round" stroke-miterlimit="10" pointer-events="all"/><path d="M 455 224 C 458.47 277.14 459.09 320.03 455 406 M 455 224 C 454.89 289.89 456.32 358.74 455 406 M 455 406 C 488.67 412.45 523.68 409.7 619 406 M 455 406 C 500.18 408.25 546.66 406.25 619 406 M 619 406 C 618.23 358.35 618.64 299.84 619 224 M 619 406 C 621.66 335.17 622.94 261.85 619 224" fill="none" stroke="#e07a5f" stroke-linejoin="round" stroke-linecap="round" stroke-miterlimit="10" pointer-events="none"/><path d="M 455 224 C 502.98 224.84 548.63 217.75 619 224 M 455 224 C 514.72 224.66 577.03 225.93 619 224" fill="none" stroke="#e07a5f" stroke-linejoin="round" stroke-linecap="round" stroke-miterlimit="10" pointer-events="none"/></g><g><g fill="#393C56" font-family="LXGW WenKai" font-weight="bold" text-anchor="middle" font-size="15px"><text x="536.5" y="218.5">View(视图)</text></g></g><g><path d="M 470 271 L 470 241 L 610 241 L 610 271" fill="none" stroke="none" pointer-events="all"/><path d="M 470 271 C 468.23 256.55 469.91 252.17 470 241 C 514.58 244.21 558.04 239.53 610 241 C 610.92 247.69 609.69 251.65 610 271" fill="rgb(255, 255, 255)" stroke="none" pointer-events="all"/><path d="M 470 271 C 473.51 258.95 467.49 254.81 470 241 M 470 271 C 471.33 261.41 470.68 254.45 470 241 M 470 241 C 521.73 239.22 581.12 239.11 610 241 M 470 241 C 508.77 243.29 544.4 243.97 610 241 M 610 241 C 608.3 254.54 609.63 259 610 271 M 610 241 C 608.74 251.97 611.63 263.56 610 271" fill="none" stroke="rgb(0, 0, 0)" stroke-linejoin="round" stroke-linecap="round" stroke-miterlimit="10" pointer-events="all"/><path d="M 470 271 C 473.21 277.65 467.19 292.22 470 301 M 470 271 C 471.15 276.68 470.5 284.99 470 301 M 470 301 C 521.73 299.22 581.12 299.11 610 301 M 470 301 C 508.77 303.29 544.4 303.97 610 301 M 610 301 C 607.96 293.52 609.3 276.97 610 271 M 610 301 C 608.69 289.17 611.57 277.96 610 271" fill="none" stroke="rgb(0, 0, 0)" stroke-linejoin="round" stroke-linecap="round" stroke-miterlimit="10" pointer-events="none"/><path d="M 470 271 C 517 267.95 554.62 273.17 610 271 M 470 271 C 506.86 266.82 541.84 267.49 610 271" fill="none" stroke="rgb(0, 0, 0)" stroke-linejoin="round" stroke-linecap="round" stroke-miterlimit="10" pointer-events="none"/></g><g><g fill="rgb(0, 0, 0)" font-family="LXGW WenKai" text-anchor="middle" font-size="12px"><text x="539.5" y="260.5">JSP</text></g></g><g><rect x="470" y="271" width="140" height="30" fill="none" stroke="none" pointer-events="all"/></g><g><g fill="rgb(0, 0, 0)" font-family="LXGW WenKai" clip-path="url(#mx-clip-474-271-132-30-0)" font-size="12px"><text x="475.5" y="290.5">正确页面</text></g></g><g><path d="M 467 356 L 467 326 L 607 326 L 607 356" fill="none" stroke="none" pointer-events="all"/><path d="M 467 356 C 462.75 353.73 467.96 344 467 326 C 508.74 329.14 551.44 324.58 607 326 C 604.48 340.41 604.31 348.12 607 356" fill="rgb(255, 255, 255)" stroke="none" pointer-events="all"/><path d="M 467 356 C 469.23 348.14 468.35 337.96 467 326 M 467 356 C 468.51 349.09 466.64 339.05 467 326 M 467 326 C 507.06 320.9 540.46 326.11 607 326 M 467 326 C 500.66 324.63 538.64 322.36 607 326 M 607 326 C 606.45 341.21 610.65 349.75 607 356 M 607 326 C 608.11 330.65 606.17 337.29 607 356" fill="none" stroke="rgb(0, 0, 0)" stroke-linejoin="round" stroke-linecap="round" stroke-miterlimit="10" pointer-events="all"/><path d="M 467 356 C 469.22 366.85 468.35 375.38 467 386 M 467 356 C 467.58 364.35 465.71 369.56 467 386 M 467 386 C 507.06 380.9 540.46 386.11 607 386 M 467 386 C 500.66 384.63 538.64 382.36 607 386 M 607 386 C 606.86 377.92 611.06 363.18 607 356 M 607 386 C 607.53 378.48 605.58 372.97 607 356" fill="none" stroke="rgb(0, 0, 0)" stroke-linejoin="round" stroke-linecap="round" stroke-miterlimit="10" pointer-events="none"/><path d="M 467 356 C 512.88 356.96 555.66 356.14 607 356 M 467 356 C 503.65 357.07 537.38 354.65 607 356" fill="none" stroke="rgb(0, 0, 0)" stroke-linejoin="round" stroke-linecap="round" stroke-miterlimit="10" pointer-events="none"/></g><g><g fill="rgb(0, 0, 0)" font-family="LXGW WenKai" text-anchor="middle" font-size="12px"><text x="536.5" y="345.5">JSP</text></g></g><g><rect x="467" y="356" width="140" height="30" fill="none" stroke="none" pointer-events="all"/></g><g><g fill="rgb(0, 0, 0)" font-family="LXGW WenKai" clip-path="url(#mx-clip-471-356-132-30-0)" font-size="12px"><text x="472.5" y="375.5">错误页面</text></g></g><g><path d="M 345 198 L 463.2 257.92" fill="none" stroke="none" pointer-events="stroke"/><path d="M 467.88 260.29 L 460.06 260.25 L 463.2 257.92 L 463.22 254.01 Z" fill="none" stroke="none" pointer-events="all"/><path d="M 345 198 C 382.03 218.28 418.03 238.58 463.2 257.92 M 345 198 C 369.88 210.07 393.28 225.19 463.2 257.92" fill="none" stroke="rgb(0, 0, 0)" stroke-linejoin="round" stroke-linecap="round" stroke-miterlimit="10" pointer-events="stroke"/><path d="M 463.41 253.79 C 463.41 253.79 463.41 253.79 463.41 253.79 M 463.41 253.79 C 463.41 253.79 463.41 253.79 463.41 253.79 M 463.15 260.19 C 464.54 259.69 464.56 258.83 465.77 257.17 M 463.15 260.19 C 464.05 259.21 464.77 258.05 465.77 257.17" fill="none" stroke="rgb(0, 0, 0)" stroke-width="0.5" stroke-linejoin="round" stroke-linecap="round" stroke-miterlimit="10" pointer-events="all"/><path d="M 467.88 260.29 C 465.42 260.15 462.65 260.77 460.06 260.25 M 467.88 260.29 C 466.15 259.48 464.14 260.54 460.06 260.25 M 460.06 260.25 C 460.21 259.9 461.44 259.25 463.2 257.92 M 460.06 260.25 C 460.69 259.57 461.91 259 463.2 257.92 M 463.2 257.92 C 463.48 256.5 463.05 255.14 463.22 254.01 M 463.2 257.92 C 463.25 257.3 463.34 256.51 463.22 254.01 M 463.22 254.01 C 465.26 254.48 466.35 257.46 467.88 260.29 M 463.22 254.01 C 465.23 255.69 465.78 258.29 467.88 260.29" fill="none" stroke="rgb(0, 0, 0)" stroke-linejoin="round" stroke-linecap="round" stroke-miterlimit="10" pointer-events="all"/></g><g><g fill="rgb(0, 0, 0)" font-family="LXGW WenKai" text-anchor="middle" font-size="11px"><rect fill="rgb(255, 255, 255)" stroke="none" x="391" y="227" width="35" height="14" stroke-width="0"/><text x="407.51" y="236.59">重定向</text></g></g><g><path d="M 345 198 L 462.87 336.16" fill="none" stroke="none" pointer-events="stroke"/><path d="M 466.27 340.15 L 459.07 337.1 L 462.87 336.16 L 464.39 332.55 Z" fill="none" stroke="none" pointer-events="all"/><path d="M 345 198 C 380.45 237.76 422 282.84 462.87 336.16 M 345 198 C 378.06 235.18 413.02 274.84 462.87 336.16" fill="none" stroke="rgb(0, 0, 0)" stroke-linejoin="round" stroke-linecap="round" stroke-miterlimit="10" pointer-events="stroke"/><path d="M 458.89 337.31 C 458.89 337.31 458.89 337.31 458.89 337.31 M 458.89 337.31 C 458.89 337.31 458.89 337.31 458.89 337.31 M 463.22 338.43 C 463.77 337.44 464.74 336.96 465.84 335.41 M 463.22 338.43 C 464.12 337.59 464.87 335.95 465.84 335.41" fill="none" stroke="rgb(0, 0, 0)" stroke-width="0.5" stroke-linejoin="round" stroke-linecap="round" stroke-miterlimit="10" pointer-events="all"/><path d="M 466.27 340.15 C 463.08 338.44 462.72 338.28 459.07 337.1 M 466.27 340.15 C 463.48 338.76 462.31 338.37 459.07 337.1 M 459.07 337.1 C 460.97 336.42 462.07 337.16 462.87 336.16 M 459.07 337.1 C 460.3 336.71 461.18 336.5 462.87 336.16 M 462.87 336.16 C 463.3 335.4 464.03 334.85 464.39 332.55 M 462.87 336.16 C 463.05 335.49 463.93 334.19 464.39 332.55 M 464.39 332.55 C 464.35 332.93 465.01 334.09 466.27 340.15 M 464.39 332.55 C 464.41 334.36 465.62 336.92 466.27 340.15" fill="none" stroke="rgb(0, 0, 0)" stroke-linejoin="round" stroke-linecap="round" stroke-miterlimit="10" pointer-events="all"/></g><g><g fill="rgb(0, 0, 0)" font-family="LXGW WenKai" text-anchor="middle" font-size="11px"><rect fill="rgb(255, 255, 255)" stroke="none" x="385" y="257" width="35" height="14" stroke-width="0"/><text x="401.56" y="267.28">重定向</text></g></g><g><path d="M 445 62 L 445 39 L 679 39 L 679 62" fill="none" stroke="none" pointer-events="all"/><path d="M 445 39 C 445 39 445 39 445 39 M 445 39 C 445 39 445 39 445 39 M 444.74 45.4 C 445.47 43.1 448.76 40.28 449.99 39.36 M 444.74 45.4 C 446.33 43.63 447.75 42.64 449.99 39.36 M 445.13 51.04 C 445.76 45.59 450.35 45.88 455.63 38.97 M 445.13 51.04 C 447.29 47.03 450.76 44.3 455.63 38.97 M 444.87 57.44 C 450.24 55.61 453.61 46.62 460.62 39.33 M 444.87 57.44 C 448.84 50.71 456.02 42.56 460.62 39.33 M 445.92 62.33 C 447.92 56.74 456.59 48.83 466.26 38.93 M 445.92 62.33 C 453.38 56.91 455.8 49.42 466.26 38.93 M 450.91 62.69 C 454.03 59.63 459.74 49.46 471.25 39.29 M 450.91 62.69 C 455.42 59.02 462.14 51.27 471.25 39.29 M 456.55 62.29 C 459.5 57.68 466.34 47.87 476.89 38.9 M 456.55 62.29 C 466.38 51.59 472.3 43.13 476.89 38.9 M 461.54 62.65 C 468.86 55.39 479.11 45.22 481.88 39.26 M 461.54 62.65 C 467.36 55.42 477.37 47.55 481.88 39.26 M 467.18 62.26 C 474.41 52.48 478.42 47.86 487.52 38.86 M 467.18 62.26 C 471.59 55.43 480.15 46.09 487.52 38.86 M 472.17 62.62 C 475.02 54.74 483.59 51.33 492.51 39.22 M 472.17 62.62 C 478.58 56.24 482.61 51.84 492.51 39.22 M 477.81 62.22 C 485.5 59.6 484.64 48.38 498.15 38.83 M 477.81 62.22 C 480.87 54.89 486.19 51.09 498.15 38.83 M 482.8 62.58 C 493.52 51.97 501.88 41.12 503.14 39.19 M 482.8 62.58 C 490.89 56.39 496.1 47.1 503.14 39.19 M 487.79 62.94 C 490.21 59.67 502.85 52.83 508.78 38.79 M 487.79 62.94 C 494.3 53.37 504.41 45.08 508.78 38.79 M 493.43 62.55 C 498.04 58.43 508.35 46.22 513.77 39.15 M 493.43 62.55 C 499.38 54.67 507.82 48.37 513.77 39.15 M 498.42 62.91 C 508.43 52.24 510.04 44.01 519.41 38.76 M 498.42 62.91 C 503.78 53 514.53 45.36 519.41 38.76 M 504.06 62.51 C 505.7 53.7 514.22 47.71 524.4 39.12 M 504.06 62.51 C 510.04 55.47 513.52 52.38 524.4 39.12 M 509.05 62.87 C 514.4 60.21 523.05 46.93 530.04 38.72 M 509.05 62.87 C 514.64 55.05 521.22 47.71 530.04 38.72 M 514.69 62.48 C 516.38 55.65 526.67 52.12 535.03 39.08 M 514.69 62.48 C 520.66 57.45 523.6 50.23 535.03 39.08 M 519.68 62.84 C 525.6 51.33 535.72 47.59 540.67 38.69 M 519.68 62.84 C 524.65 57.36 532.3 49.38 540.67 38.69 M 525.32 62.45 C 533.26 58.93 533.46 49.34 545.66 39.05 M 525.32 62.45 C 532.6 54.64 538.63 51.23 545.66 39.05 M 530.31 62.81 C 537.63 59.04 540.32 48.36 551.3 38.66 M 530.31 62.81 C 535.85 55.16 542.38 47.3 551.3 38.66 M 535.95 62.41 C 540.4 54.82 548.42 53.1 556.29 39.02 M 535.95 62.41 C 540.84 56.14 547.6 48.53 556.29 39.02 M 540.94 62.77 C 544.85 59.24 553.83 53.42 561.27 39.38 M 540.94 62.77 C 543.86 57.17 550.15 53.6 561.27 39.38 M 546.58 62.38 C 556.05 49.99 560.92 46.36 566.92 38.98 M 546.58 62.38 C 551.12 56.26 556.97 49.94 566.92 38.98 M 551.57 62.74 C 557.76 52.88 570.7 43.63 571.91 39.34 M 551.57 62.74 C 559.9 56.13 565.57 47.05 571.91 39.34 M 557.21 62.34 C 563.4 58.51 566.25 52.78 577.55 38.95 M 557.21 62.34 C 564.98 54.02 571.89 44.11 577.55 38.95 M 562.2 62.7 C 568.34 52.41 575.57 51.81 582.54 39.31 M 562.2 62.7 C 568.81 57.52 573.97 52.08 582.54 39.31 M 567.84 62.31 C 571.88 56.07 579.65 44.03 588.18 38.91 M 567.84 62.31 C 573.34 57.35 577.4 52.06 588.18 38.91 M 572.83 62.67 C 578.17 49.62 592.3 42.39 593.17 39.27 M 572.83 62.67 C 582.7 55.64 587.27 43.82 593.17 39.27 M 578.47 62.27 C 582.73 55.81 588.96 52.59 598.81 38.88 M 578.47 62.27 C 582.12 57.52 588.54 52.96 598.81 38.88 M 583.46 62.63 C 590.41 55.01 591.35 47.78 603.8 39.24 M 583.46 62.63 C 593.1 53.56 599.25 46.27 603.8 39.24 M 589.1 62.24 C 593.53 51.51 599.93 50.69 609.44 38.84 M 589.1 62.24 C 597.8 52.54 603.6 46.8 609.44 38.84 M 594.09 62.6 C 597.71 54.74 606.2 47.87 614.43 39.2 M 594.09 62.6 C 600.38 55.19 607.46 47.76 614.43 39.2 M 599.07 62.96 C 608.14 56.23 609.79 54.91 620.07 38.81 M 599.07 62.96 C 604.05 55.6 608.76 51.41 620.07 38.81 M 604.72 62.56 C 613.62 52.88 620.24 41.69 625.06 39.17 M 604.72 62.56 C 611.65 56.12 618.92 45.73 625.06 39.17 M 609.7 62.92 C 616.46 52.74 622.91 44.49 630.7 38.77 M 609.7 62.92 C 613.74 56.78 621.97 48.79 630.7 38.77 M 615.35 62.53 C 625.63 51.2 628.13 43.86 635.69 39.13 M 615.35 62.53 C 625.44 53.94 630.81 45.08 635.69 39.13 M 620.33 62.89 C 621.02 57.38 629.26 54.09 641.33 38.74 M 620.33 62.89 C 624.86 55.21 633.34 48.3 641.33 38.74 M 625.98 62.5 C 629.43 56.96 637.94 53.69 646.32 39.1 M 625.98 62.5 C 631.25 57.83 637.91 48.46 646.32 39.1 M 630.96 62.86 C 637.23 50.55 649.98 44.19 651.96 38.7 M 630.96 62.86 C 637.75 54.06 645.98 48.27 651.96 38.7 M 636.61 62.46 C 641.84 56.96 652.35 42.53 656.95 39.06 M 636.61 62.46 C 642.18 57.8 645.58 50.77 656.95 39.06 M 641.59 62.82 C 643.23 55.18 648.86 50.13 662.59 38.67 M 641.59 62.82 C 647.24 53.02 656.21 49.05 662.59 38.67 M 647.24 62.43 C 651.53 57.24 662.73 51.6 667.58 39.03 M 647.24 62.43 C 654.97 52.16 661.43 45.33 667.58 39.03 M 652.23 62.79 C 654.2 55.64 665.06 50.99 673.22 38.64 M 652.23 62.79 C 659.06 55.47 666.09 43.36 673.22 38.64 M 657.87 62.39 C 667.52 50.85 670.44 44.24 678.21 39 M 657.87 62.39 C 664.09 54.82 673.51 47.22 678.21 39 M 662.86 62.75 C 667.79 61.71 667.74 49.59 679.26 43.88 M 662.86 62.75 C 666.68 54.33 674.36 49.66 679.26 43.88 M 668.5 62.36 C 671.84 55.94 678.51 53.77 679 50.28 M 668.5 62.36 C 672.05 59.15 677 55.03 679 50.28 M 673.49 62.72 C 676.62 61.27 676.42 56.49 679.39 55.93 M 673.49 62.72 C 675.09 61.01 678.07 57.34 679.39 55.93" fill="none" stroke="#f2cc8f" stroke-width="0.5" stroke-linejoin="round" stroke-linecap="round" stroke-miterlimit="10" pointer-events="all"/><path d="M 445 62 C 443.38 54.5 441.12 50.55 445 39 M 445 62 C 446.66 55.14 446.25 48.85 445 39 M 445 39 C 495.3 42.86 545.04 40.52 679 39 M 445 39 C 537.84 35.68 630.82 38.09 679 39 M 679 39 C 675.59 46.61 681.15 57.46 679 62 M 679 39 C 677.09 45.81 677.74 57.76 679 62" fill="none" stroke="#e07a5f" stroke-linejoin="round" stroke-linecap="round" stroke-miterlimit="10" pointer-events="all"/><path d="M 445 62 C 445.85 97.51 443.6 136.57 445 177 M 445 62 C 444.38 95.78 443.97 130.13 445 177 M 445 177 C 495.3 180.86 545.04 178.52 679 177 M 445 177 C 537.84 173.68 630.82 176.09 679 177 M 679 177 C 673.38 137.31 678.94 100.87 679 62 M 679 177 C 678.32 131.99 678.96 92.14 679 62" fill="none" stroke="#e07a5f" stroke-linejoin="round" stroke-linecap="round" stroke-miterlimit="10" pointer-events="none"/><path d="M 445 62 C 516.91 61.28 587.95 63.99 679 62 M 445 62 C 514.99 62.79 583.56 63.21 679 62" fill="none" stroke="#e07a5f" stroke-linejoin="round" stroke-linecap="round" stroke-miterlimit="10" pointer-events="none"/></g><g><g fill="#393C56" font-family="LXGW WenKai" font-weight="bold" text-anchor="middle" font-size="15px"><text x="561.5" y="56.5">Model(模型)</text></g></g><g><path d="M 480 116 L 480 86 L 620 86 L 620 116" fill="none" stroke="none" pointer-events="all"/><path d="M 480 116 C 484.76 100.67 480.5 97.33 480 86 C 520.78 82.32 559.65 92.41 620 86 C 623.75 97.5 624.6 106.91 620 116" fill="rgb(255, 255, 255)" stroke="none" pointer-events="all"/><path d="M 480 116 C 477.06 104.24 480.46 98.51 480 86 M 480 116 C 480.08 105.34 478.83 93.28 480 86 M 480 86 C 515.03 87.76 547.87 90.32 620 86 M 480 86 C 530.79 90.58 585.09 89 620 86 M 620 86 C 623.42 97.11 616.94 104.2 620 116 M 620 86 C 621.29 90.94 619.99 98.53 620 116" fill="none" stroke="rgb(0, 0, 0)" stroke-linejoin="round" stroke-linecap="round" stroke-miterlimit="10" pointer-events="all"/><path d="M 480 116 C 475.94 122.94 479.34 135.91 480 146 M 480 116 C 479.26 127.33 478 137.25 480 146 M 480 146 C 515.03 147.76 547.87 150.32 620 146 M 480 146 C 530.79 150.58 585.09 149 620 146 M 620 146 C 622.59 138.86 616.1 127.7 620 116 M 620 146 C 620.27 137.96 618.96 132.56 620 116" fill="none" stroke="rgb(0, 0, 0)" stroke-linejoin="round" stroke-linecap="round" stroke-miterlimit="10" pointer-events="none"/><path d="M 480 116 C 520.14 115.51 567.17 119.13 620 116 M 480 116 C 530.98 115.26 581.03 114.19 620 116" fill="none" stroke="rgb(0, 0, 0)" stroke-linejoin="round" stroke-linecap="round" stroke-miterlimit="10" pointer-events="none"/></g><g><g fill="rgb(0, 0, 0)" font-family="LXGW WenKai" text-anchor="middle" font-size="12px"><text x="549.5" y="105.5">Service</text></g></g><g><rect x="480" y="116" width="140" height="30" fill="none" stroke="none" pointer-events="all"/></g><g><g fill="rgb(0, 0, 0)" font-family="LXGW WenKai" clip-path="url(#mx-clip-484-116-132-30-0)" font-size="12px"><text x="485.5" y="135.5">处理业务逻辑</text></g></g><g><path d="M 345 168 L 473.86 132.68" fill="none" stroke="none" pointer-events="stroke"/><path d="M 478.92 131.3 L 473.1 136.52 L 473.86 132.68 L 471.25 129.77 Z" fill="none" stroke="none" pointer-events="all"/><path d="M 345 168 C 382.6 152.8 425.2 141.76 473.86 132.68 M 345 168 C 398.52 157.87 446.27 142.26 473.86 132.68" fill="none" stroke="rgb(0, 0, 0)" stroke-linejoin="round" stroke-linecap="round" stroke-miterlimit="10" pointer-events="stroke"/><path d="M 471.42 129.58 C 471.42 129.58 471.42 129.58 471.42 129.58 M 471.42 129.58 C 471.42 129.58 471.42 129.58 471.42 129.58 M 473.78 132.96 C 474.48 132.76 475.27 130.94 475.75 130.69 M 473.78 132.96 C 474.08 132.67 474.41 132.29 475.75 130.69" fill="none" stroke="rgb(0, 0, 0)" stroke-width="0.5" stroke-linejoin="round" stroke-linecap="round" stroke-miterlimit="10" pointer-events="all"/><path d="M 478.92 131.3 C 476.22 131.96 475.35 133.58 473.1 136.52 M 478.92 131.3 C 477.27 133.89 473.55 135.36 473.1 136.52 M 473.1 136.52 C 473.69 134.82 473.94 133.51 473.86 132.68 M 473.1 136.52 C 473.16 135.63 473.72 135.02 473.86 132.68 M 473.86 132.68 C 472.54 131.83 472.53 131.49 471.25 129.77 M 473.86 132.68 C 473.52 131.66 472.42 130.85 471.25 129.77 M 471.25 129.77 C 473.53 131.64 475.21 131.19 478.92 131.3 M 471.25 129.77 C 473.82 130.74 477.38 130.46 478.92 131.3" fill="none" stroke="rgb(0, 0, 0)" stroke-linejoin="round" stroke-linecap="round" stroke-miterlimit="10" pointer-events="all"/></g><g><path d="M 704 115 L 704 85 L 844 85 L 844 115" fill="none" stroke="none" pointer-events="all"/><path d="M 704 115 C 698.49 111.89 708.16 94.28 704 85 C 752.8 84.9 805.93 77.68 844 85 C 845.79 93.2 841.27 105.42 844 115" fill="rgb(255, 255, 255)" stroke="none" pointer-events="all"/><path d="M 704 115 C 707.06 108.93 707.13 99.94 704 85 M 704 115 C 704.45 104.9 704.03 97.68 704 85 M 704 85 C 756.58 89.65 805.9 86.86 844 85 M 704 85 C 758.65 83.32 811.63 83.73 844 85 M 844 85 C 839.61 95.53 839.67 101.6 844 115 M 844 85 C 844.5 94.17 844.7 105.82 844 115" fill="none" stroke="rgb(0, 0, 0)" stroke-linejoin="round" stroke-linecap="round" stroke-miterlimit="10" pointer-events="all"/><path d="M 704 115 C 707.67 127.64 707.74 137.36 704 145 M 704 115 C 704 121.11 703.58 130.11 704 145 M 704 145 C 756.58 149.65 805.9 146.86 844 145 M 704 145 C 758.65 143.32 811.63 143.73 844 145 M 844 145 C 840.39 139.17 840.46 128.89 844 115 M 844 145 C 844.04 134.64 844.24 126.77 844 115" fill="none" stroke="rgb(0, 0, 0)" stroke-linejoin="round" stroke-linecap="round" stroke-miterlimit="10" pointer-events="none"/><path d="M 704 115 C 751.03 118.84 794.75 119.22 844 115 M 704 115 C 742.07 113.88 779.48 114.77 844 115" fill="none" stroke="rgb(0, 0, 0)" stroke-linejoin="round" stroke-linecap="round" stroke-miterlimit="10" pointer-events="none"/></g><g><g fill="rgb(0, 0, 0)" font-family="LXGW WenKai" text-anchor="middle" font-size="12px"><text x="773.5" y="104.5">Dao</text></g></g><g><rect x="704" y="115" width="140" height="30" fill="none" stroke="none" pointer-events="all"/></g><g><g fill="rgb(0, 0, 0)" font-family="LXGW WenKai" clip-path="url(#mx-clip-708-115-132-30-0)" font-size="12px"><text x="709.5" y="134.5">负责数据库的增删改查</text></g></g><g><path d="M 620 131 L 697.63 130.08" fill="none" stroke="none" pointer-events="stroke"/><path d="M 702.88 130.01 L 695.92 133.6 L 697.63 130.08 L 695.84 126.6 Z" fill="none" stroke="none" pointer-events="all"/><path d="M 620 131 C 646.43 130.4 667.86 132.45 697.63 130.08 M 620 131 C 641.02 130.24 660.35 127.79 697.63 130.08" fill="none" stroke="rgb(0, 0, 0)" stroke-linejoin="round" stroke-linecap="round" stroke-miterlimit="10" pointer-events="stroke"/><path d="M 695.52 126.96 C 695.52 126.96 695.52 126.96 695.52 126.96 M 695.52 126.96 C 695.52 126.96 695.52 126.96 695.52 126.96 M 697.89 130.34 C 698.86 129.88 699.71 128.5 699.85 128.08 M 697.89 130.34 C 698.24 129.94 698.88 129.31 699.85 128.08" fill="none" stroke="rgb(0, 0, 0)" stroke-width="0.5" stroke-linejoin="round" stroke-linecap="round" stroke-miterlimit="10" pointer-events="all"/><path d="M 702.88 130.01 C 701.64 130.91 698.38 132.94 695.92 133.6 M 702.88 130.01 C 700.94 131.35 698.42 131.46 695.92 133.6 M 695.92 133.6 C 695.96 132.53 697.3 132.15 697.63 130.08 M 695.92 133.6 C 696.37 132.22 697.13 131.24 697.63 130.08 M 697.63 130.08 C 696.54 129.54 696.56 128.63 695.84 126.6 M 697.63 130.08 C 696.63 128.58 696.67 127.82 695.84 126.6 M 695.84 126.6 C 699.61 128.84 699.76 128.43 702.88 130.01 M 695.84 126.6 C 698.02 128 701.16 128.15 702.88 130.01" fill="none" stroke="rgb(0, 0, 0)" stroke-linejoin="round" stroke-linecap="round" stroke-miterlimit="10" pointer-events="all"/></g><g><path d="M 22 136 L 198.63 137.93" fill="none" stroke="none" pointer-events="stroke"/><path d="M 203.88 137.99 L 196.84 141.41 L 198.63 137.93 L 196.92 134.41 Z" fill="none" stroke="none" pointer-events="all"/><path d="M 22 136 C 74.73 138.98 130.33 134.71 198.63 137.93 M 22 136 C 60.61 138.04 99.09 137.13 198.63 137.93" fill="none" stroke="rgb(0, 0, 0)" stroke-linejoin="round" stroke-linecap="round" stroke-miterlimit="10" pointer-events="stroke"/><path d="M 196.75 134.61 C 196.75 134.61 196.75 134.61 196.75 134.61 M 196.75 134.61 C 196.75 134.61 196.75 134.61 196.75 134.61 M 199.11 137.99 C 199.72 137.24 199.64 137.51 200.42 136.48 M 199.11 137.99 C 199.49 137.67 199.81 136.86 200.42 136.48" fill="none" stroke="rgb(0, 0, 0)" stroke-width="0.5" stroke-linejoin="round" stroke-linecap="round" stroke-miterlimit="10" pointer-events="all"/><path d="M 203.88 137.99 C 200.71 140.4 198.71 139.56 196.84 141.41 M 203.88 137.99 C 202.64 139.32 201.39 139.53 196.84 141.41 M 196.84 141.41 C 196.84 140.21 197.44 138.55 198.63 137.93 M 196.84 141.41 C 197.38 140 198.01 139.03 198.63 137.93 M 198.63 137.93 C 198.8 136.98 197.39 135.93 196.92 134.41 M 198.63 137.93 C 198.15 136.89 197.65 136.43 196.92 134.41 M 196.92 134.41 C 197.43 136.21 200.69 135.14 203.88 137.99 M 196.92 134.41 C 197.95 135.63 200.65 136.8 203.88 137.99" fill="none" stroke="rgb(0, 0, 0)" stroke-linejoin="round" stroke-linecap="round" stroke-miterlimit="10" pointer-events="all"/></g><g><g fill="rgb(0, 0, 0)" font-family="LXGW WenKai" text-anchor="middle" font-size="11px"><rect fill="rgb(255, 255, 255)" stroke="none" x="58" y="131" width="24" height="14" stroke-width="0"/><text x="69.43" y="140.86">请求</text></g></g></g></svg>