<?xml version="1.0" encoding="UTF-8"?>
<!-- Do not edit this file with editors other than draw.io -->
<!DOCTYPE svg PUBLIC "-//W3C//DTD SVG 1.1//EN" "http://www.w3.org/Graphics/SVG/1.1/DTD/svg11.dtd">
<svg xmlns="http://www.w3.org/2000/svg" xmlns:xlink="http://www.w3.org/1999/xlink" version="1.1" width="1013px" height="418px" viewBox="-0.5 -0.5 1013 418" content="&lt;mxfile host=&quot;app.diagrams.net&quot; modified=&quot;2024-05-29T09:12:26.765Z&quot; agent=&quot;Mozilla/5.0 (Windows NT 10.0; Win64; x64) AppleWebKit/537.36 (KHTML, like Gecko) Chrome/125.0.0.0 Safari/537.36&quot; etag=&quot;ADJJHSo8sFVERsiju2oV&quot; version=&quot;24.4.9&quot; type=&quot;github&quot;&gt;&#10;  &lt;diagram id=&quot;23iRSUPoRavnBvh4doch&quot; name=&quot;Page-1&quot;&gt;&#10;    &lt;mxGraphModel dx=&quot;2837&quot; dy=&quot;757&quot; grid=&quot;0&quot; gridSize=&quot;10&quot; guides=&quot;1&quot; tooltips=&quot;1&quot; connect=&quot;1&quot; arrows=&quot;1&quot; fold=&quot;1&quot; page=&quot;0&quot; pageScale=&quot;1&quot; pageWidth=&quot;827&quot; pageHeight=&quot;1169&quot; math=&quot;0&quot; shadow=&quot;0&quot;&gt;&#10;      &lt;root&gt;&#10;        &lt;mxCell id=&quot;0&quot; /&gt;&#10;        &lt;mxCell id=&quot;1&quot; parent=&quot;0&quot; /&gt;&#10;        &lt;mxCell id=&quot;PlhUNaWbmzm0HPJQHhij-1&quot; value=&quot;Controller(控制器)&quot; style=&quot;swimlane;sketch=1;hachureGap=4;jiggle=2;curveFitting=1;fontFamily=LXGW WenKai;fontSize=15;strokeColor=#E07A5F;align=center;verticalAlign=middle;fontColor=#393C56;fontStyle=1;fillColor=#F2CC8F;labelBackgroundColor=none;&quot; vertex=&quot;1&quot; parent=&quot;1&quot;&gt;&#10;          &lt;mxGeometry x=&quot;-553&quot; y=&quot;336&quot; width=&quot;297&quot; height=&quot;212&quot; as=&quot;geometry&quot; /&gt;&#10;        &lt;/mxCell&gt;&#10;        &lt;mxCell id=&quot;PlhUNaWbmzm0HPJQHhij-2&quot; value=&quot;Servlet&quot; style=&quot;swimlane;fontStyle=0;childLayout=stackLayout;horizontal=1;startSize=30;horizontalStack=0;resizeParent=1;resizeParentMax=0;resizeLast=0;collapsible=1;marginBottom=0;sketch=1;hachureGap=4;jiggle=2;curveFitting=1;fontFamily=LXGW WenKai;&quot; vertex=&quot;1&quot; parent=&quot;PlhUNaWbmzm0HPJQHhij-1&quot;&gt;&#10;          &lt;mxGeometry x=&quot;71&quot; y=&quot;64&quot; width=&quot;140&quot; height=&quot;120&quot; as=&quot;geometry&quot; /&gt;&#10;        &lt;/mxCell&gt;&#10;        &lt;mxCell id=&quot;PlhUNaWbmzm0HPJQHhij-3&quot; value=&quot;接收请求数据&quot; style=&quot;text;strokeColor=none;fillColor=none;align=left;verticalAlign=middle;spacingLeft=4;spacingRight=4;overflow=hidden;points=[[0,0.5],[1,0.5]];portConstraint=eastwest;rotatable=0;fontFamily=LXGW WenKai;&quot; vertex=&quot;1&quot; parent=&quot;PlhUNaWbmzm0HPJQHhij-2&quot;&gt;&#10;          &lt;mxGeometry y=&quot;30&quot; width=&quot;140&quot; height=&quot;30&quot; as=&quot;geometry&quot; /&gt;&#10;        &lt;/mxCell&gt;&#10;        &lt;mxCell id=&quot;PlhUNaWbmzm0HPJQHhij-4&quot; value=&quot;调度Moel处理业务&quot; style=&quot;text;strokeColor=none;fillColor=none;align=left;verticalAlign=middle;spacingLeft=4;spacingRight=4;overflow=hidden;points=[[0,0.5],[1,0.5]];portConstraint=eastwest;rotatable=0;fontFamily=LXGW WenKai;&quot; vertex=&quot;1&quot; parent=&quot;PlhUNaWbmzm0HPJQHhij-2&quot;&gt;&#10;          &lt;mxGeometry y=&quot;60&quot; width=&quot;140&quot; height=&quot;30&quot; as=&quot;geometry&quot; /&gt;&#10;        &lt;/mxCell&gt;&#10;        &lt;mxCell id=&quot;PlhUNaWbmzm0HPJQHhij-5&quot; value=&quot;调度View做页面展示&quot; style=&quot;text;strokeColor=none;fillColor=none;align=left;verticalAlign=middle;spacingLeft=4;spacingRight=4;overflow=hidden;points=[[0,0.5],[1,0.5]];portConstraint=eastwest;rotatable=0;fontFamily=LXGW WenKai;&quot; vertex=&quot;1&quot; parent=&quot;PlhUNaWbmzm0HPJQHhij-2&quot;&gt;&#10;          &lt;mxGeometry y=&quot;90&quot; width=&quot;140&quot; height=&quot;30&quot; as=&quot;geometry&quot; /&gt;&#10;        &lt;/mxCell&gt;&#10;        &lt;mxCell id=&quot;PlhUNaWbmzm0HPJQHhij-6&quot; value=&quot;View(视图)&quot; style=&quot;swimlane;sketch=1;hachureGap=4;jiggle=2;curveFitting=1;fontFamily=LXGW WenKai;fontSize=15;strokeColor=#E07A5F;align=center;verticalAlign=middle;fontColor=#393C56;fontStyle=1;fillColor=#F2CC8F;labelBackgroundColor=none;&quot; vertex=&quot;1&quot; parent=&quot;1&quot;&gt;&#10;          &lt;mxGeometry x=&quot;-204&quot; y=&quot;548&quot; width=&quot;164&quot; height=&quot;205&quot; as=&quot;geometry&quot; /&gt;&#10;        &lt;/mxCell&gt;&#10;        &lt;mxCell id=&quot;PlhUNaWbmzm0HPJQHhij-19&quot; value=&quot;JSP&quot; style=&quot;swimlane;fontStyle=0;childLayout=stackLayout;horizontal=1;startSize=30;horizontalStack=0;resizeParent=1;resizeParentMax=0;resizeLast=0;collapsible=1;marginBottom=0;sketch=1;hachureGap=4;jiggle=2;curveFitting=1;fontFamily=LXGW WenKai;&quot; vertex=&quot;1&quot; parent=&quot;PlhUNaWbmzm0HPJQHhij-6&quot;&gt;&#10;          &lt;mxGeometry x=&quot;15&quot; y=&quot;40&quot; width=&quot;140&quot; height=&quot;60&quot; as=&quot;geometry&quot; /&gt;&#10;        &lt;/mxCell&gt;&#10;        &lt;mxCell id=&quot;PlhUNaWbmzm0HPJQHhij-20&quot; value=&quot;正确页面&quot; style=&quot;text;strokeColor=none;fillColor=none;align=left;verticalAlign=middle;spacingLeft=4;spacingRight=4;overflow=hidden;points=[[0,0.5],[1,0.5]];portConstraint=eastwest;rotatable=0;fontFamily=LXGW WenKai;&quot; vertex=&quot;1&quot; parent=&quot;PlhUNaWbmzm0HPJQHhij-19&quot;&gt;&#10;          &lt;mxGeometry y=&quot;30&quot; width=&quot;140&quot; height=&quot;30&quot; as=&quot;geometry&quot; /&gt;&#10;        &lt;/mxCell&gt;&#10;        &lt;mxCell id=&quot;PlhUNaWbmzm0HPJQHhij-23&quot; value=&quot;JSP&quot; style=&quot;swimlane;fontStyle=0;childLayout=stackLayout;horizontal=1;startSize=30;horizontalStack=0;resizeParent=1;resizeParentMax=0;resizeLast=0;collapsible=1;marginBottom=0;sketch=1;hachureGap=4;jiggle=2;curveFitting=1;fontFamily=LXGW WenKai;&quot; vertex=&quot;1&quot; parent=&quot;PlhUNaWbmzm0HPJQHhij-6&quot;&gt;&#10;          &lt;mxGeometry x=&quot;12&quot; y=&quot;125&quot; width=&quot;140&quot; height=&quot;60&quot; as=&quot;geometry&quot; /&gt;&#10;        &lt;/mxCell&gt;&#10;        &lt;mxCell id=&quot;PlhUNaWbmzm0HPJQHhij-24&quot; value=&quot;错误页面&quot; style=&quot;text;strokeColor=none;fillColor=none;align=left;verticalAlign=middle;spacingLeft=4;spacingRight=4;overflow=hidden;points=[[0,0.5],[1,0.5]];portConstraint=eastwest;rotatable=0;fontFamily=LXGW WenKai;&quot; vertex=&quot;1&quot; parent=&quot;PlhUNaWbmzm0HPJQHhij-23&quot;&gt;&#10;          &lt;mxGeometry y=&quot;30&quot; width=&quot;140&quot; height=&quot;30&quot; as=&quot;geometry&quot; /&gt;&#10;        &lt;/mxCell&gt;&#10;        &lt;mxCell id=&quot;PlhUNaWbmzm0HPJQHhij-10&quot; style=&quot;edgeStyle=none;rounded=0;sketch=1;hachureGap=4;jiggle=2;curveFitting=1;orthogonalLoop=1;jettySize=auto;exitX=1;exitY=0.5;exitDx=0;exitDy=0;entryX=-0.008;entryY=0.33;entryDx=0;entryDy=0;fontFamily=LXGW WenKai;entryPerimeter=0;&quot; edge=&quot;1&quot; parent=&quot;1&quot; source=&quot;PlhUNaWbmzm0HPJQHhij-5&quot; target=&quot;PlhUNaWbmzm0HPJQHhij-19&quot;&gt;&#10;          &lt;mxGeometry relative=&quot;1&quot; as=&quot;geometry&quot;&gt;&#10;            &lt;mxPoint x=&quot;-188&quot; y=&quot;620&quot; as=&quot;targetPoint&quot; /&gt;&#10;          &lt;/mxGeometry&gt;&#10;        &lt;/mxCell&gt;&#10;        &lt;mxCell id=&quot;PlhUNaWbmzm0HPJQHhij-12&quot; value=&quot;重定向&quot; style=&quot;edgeLabel;align=center;verticalAlign=middle;resizable=0;points=[];sketch=1;hachureGap=4;jiggle=2;curveFitting=1;fontFamily=LXGW WenKai;&quot; vertex=&quot;1&quot; connectable=&quot;0&quot; parent=&quot;PlhUNaWbmzm0HPJQHhij-10&quot;&gt;&#10;          &lt;mxGeometry x=&quot;-0.0336&quot; relative=&quot;1&quot; as=&quot;geometry&quot;&gt;&#10;            &lt;mxPoint x=&quot;3&quot; y=&quot;4&quot; as=&quot;offset&quot; /&gt;&#10;          &lt;/mxGeometry&gt;&#10;        &lt;/mxCell&gt;&#10;        &lt;mxCell id=&quot;PlhUNaWbmzm0HPJQHhij-11&quot; style=&quot;edgeStyle=none;rounded=0;sketch=1;hachureGap=4;jiggle=2;curveFitting=1;orthogonalLoop=1;jettySize=auto;exitX=1;exitY=0.5;exitDx=0;exitDy=0;fontFamily=LXGW WenKai;entryX=0;entryY=0.25;entryDx=0;entryDy=0;&quot; edge=&quot;1&quot; parent=&quot;1&quot; source=&quot;PlhUNaWbmzm0HPJQHhij-5&quot; target=&quot;PlhUNaWbmzm0HPJQHhij-23&quot;&gt;&#10;          &lt;mxGeometry relative=&quot;1&quot; as=&quot;geometry&quot;&gt;&#10;            &lt;mxPoint x=&quot;-188&quot; y=&quot;699&quot; as=&quot;targetPoint&quot; /&gt;&#10;          &lt;/mxGeometry&gt;&#10;        &lt;/mxCell&gt;&#10;        &lt;mxCell id=&quot;PlhUNaWbmzm0HPJQHhij-13&quot; value=&quot;重定向&quot; style=&quot;edgeLabel;align=center;verticalAlign=middle;resizable=0;points=[];sketch=1;hachureGap=4;jiggle=2;curveFitting=1;fontFamily=LXGW WenKai;&quot; vertex=&quot;1&quot; connectable=&quot;0&quot; parent=&quot;PlhUNaWbmzm0HPJQHhij-11&quot;&gt;&#10;          &lt;mxGeometry x=&quot;-0.0853&quot; y=&quot;1&quot; relative=&quot;1&quot; as=&quot;geometry&quot;&gt;&#10;            &lt;mxPoint as=&quot;offset&quot; /&gt;&#10;          &lt;/mxGeometry&gt;&#10;        &lt;/mxCell&gt;&#10;        &lt;mxCell id=&quot;PlhUNaWbmzm0HPJQHhij-14&quot; value=&quot;Model(模型)&quot; style=&quot;swimlane;sketch=1;hachureGap=4;jiggle=2;curveFitting=1;fontFamily=LXGW WenKai;fontSize=15;strokeColor=#E07A5F;align=center;verticalAlign=middle;fontColor=#393C56;fontStyle=1;fillColor=#F2CC8F;labelBackgroundColor=none;&quot; vertex=&quot;1&quot; parent=&quot;1&quot;&gt;&#10;          &lt;mxGeometry x=&quot;-185&quot; y=&quot;351&quot; width=&quot;234&quot; height=&quot;138&quot; as=&quot;geometry&quot; /&gt;&#10;        &lt;/mxCell&gt;&#10;        &lt;mxCell id=&quot;PlhUNaWbmzm0HPJQHhij-15&quot; value=&quot;Service&quot; style=&quot;swimlane;fontStyle=0;childLayout=stackLayout;horizontal=1;startSize=30;horizontalStack=0;resizeParent=1;resizeParentMax=0;resizeLast=0;collapsible=1;marginBottom=0;sketch=1;hachureGap=4;jiggle=2;curveFitting=1;fontFamily=LXGW WenKai;&quot; vertex=&quot;1&quot; parent=&quot;PlhUNaWbmzm0HPJQHhij-14&quot;&gt;&#10;          &lt;mxGeometry x=&quot;35&quot; y=&quot;47&quot; width=&quot;140&quot; height=&quot;60&quot; as=&quot;geometry&quot; /&gt;&#10;        &lt;/mxCell&gt;&#10;        &lt;mxCell id=&quot;PlhUNaWbmzm0HPJQHhij-16&quot; value=&quot;处理业务逻辑&quot; style=&quot;text;strokeColor=none;fillColor=none;align=left;verticalAlign=middle;spacingLeft=4;spacingRight=4;overflow=hidden;points=[[0,0.5],[1,0.5]];portConstraint=eastwest;rotatable=0;fontFamily=LXGW WenKai;&quot; vertex=&quot;1&quot; parent=&quot;PlhUNaWbmzm0HPJQHhij-15&quot;&gt;&#10;          &lt;mxGeometry y=&quot;30&quot; width=&quot;140&quot; height=&quot;30&quot; as=&quot;geometry&quot; /&gt;&#10;        &lt;/mxCell&gt;&#10;        &lt;mxCell id=&quot;PlhUNaWbmzm0HPJQHhij-25&quot; style=&quot;edgeStyle=none;rounded=0;sketch=1;hachureGap=4;jiggle=2;curveFitting=1;orthogonalLoop=1;jettySize=auto;exitX=1;exitY=0.5;exitDx=0;exitDy=0;entryX=0;entryY=0.5;entryDx=0;entryDy=0;fontFamily=LXGW WenKai;&quot; edge=&quot;1&quot; parent=&quot;1&quot; source=&quot;PlhUNaWbmzm0HPJQHhij-4&quot; target=&quot;PlhUNaWbmzm0HPJQHhij-16&quot;&gt;&#10;          &lt;mxGeometry relative=&quot;1&quot; as=&quot;geometry&quot; /&gt;&#10;        &lt;/mxCell&gt;&#10;        &lt;mxCell id=&quot;PlhUNaWbmzm0HPJQHhij-26&quot; value=&quot;Dao&quot; style=&quot;swimlane;fontStyle=0;childLayout=stackLayout;horizontal=1;startSize=30;horizontalStack=0;resizeParent=1;resizeParentMax=0;resizeLast=0;collapsible=1;marginBottom=0;sketch=1;hachureGap=4;jiggle=2;curveFitting=1;fontFamily=LXGW WenKai;&quot; vertex=&quot;1&quot; parent=&quot;1&quot;&gt;&#10;          &lt;mxGeometry x=&quot;87&quot; y=&quot;404&quot; width=&quot;140&quot; height=&quot;60&quot; as=&quot;geometry&quot; /&gt;&#10;        &lt;/mxCell&gt;&#10;        &lt;mxCell id=&quot;PlhUNaWbmzm0HPJQHhij-27&quot; value=&quot;负责数据库的增删改查&quot; style=&quot;text;strokeColor=none;fillColor=none;align=left;verticalAlign=middle;spacingLeft=4;spacingRight=4;overflow=hidden;points=[[0,0.5],[1,0.5]];portConstraint=eastwest;rotatable=0;fontFamily=LXGW WenKai;&quot; vertex=&quot;1&quot; parent=&quot;PlhUNaWbmzm0HPJQHhij-26&quot;&gt;&#10;          &lt;mxGeometry y=&quot;30&quot; width=&quot;140&quot; height=&quot;30&quot; as=&quot;geometry&quot; /&gt;&#10;        &lt;/mxCell&gt;&#10;        &lt;mxCell id=&quot;PlhUNaWbmzm0HPJQHhij-30&quot; style=&quot;edgeStyle=none;rounded=0;sketch=1;hachureGap=4;jiggle=2;curveFitting=1;orthogonalLoop=1;jettySize=auto;exitX=1;exitY=0.5;exitDx=0;exitDy=0;entryX=0;entryY=0.5;entryDx=0;entryDy=0;fontFamily=LXGW WenKai;&quot; edge=&quot;1&quot; parent=&quot;1&quot; source=&quot;PlhUNaWbmzm0HPJQHhij-16&quot; target=&quot;PlhUNaWbmzm0HPJQHhij-27&quot;&gt;&#10;          &lt;mxGeometry relative=&quot;1&quot; as=&quot;geometry&quot; /&gt;&#10;        &lt;/mxCell&gt;&#10;        &lt;mxCell id=&quot;PlhUNaWbmzm0HPJQHhij-32&quot; style=&quot;edgeStyle=none;rounded=0;sketch=1;hachureGap=4;jiggle=2;curveFitting=1;orthogonalLoop=1;jettySize=auto;exitX=1;exitY=0.25;exitDx=0;exitDy=0;entryX=0;entryY=0.5;entryDx=0;entryDy=0;fontFamily=LXGW WenKai;&quot; edge=&quot;1&quot; parent=&quot;1&quot; source=&quot;PlhUNaWbmzm0HPJQHhij-31&quot; target=&quot;PlhUNaWbmzm0HPJQHhij-3&quot;&gt;&#10;          &lt;mxGeometry relative=&quot;1&quot; as=&quot;geometry&quot; /&gt;&#10;        &lt;/mxCell&gt;&#10;        &lt;mxCell id=&quot;PlhUNaWbmzm0HPJQHhij-34&quot; value=&quot;请求&quot; style=&quot;edgeLabel;align=center;verticalAlign=middle;resizable=0;points=[];sketch=1;hachureGap=4;jiggle=2;curveFitting=1;fontFamily=LXGW WenKai;&quot; vertex=&quot;1&quot; connectable=&quot;0&quot; parent=&quot;PlhUNaWbmzm0HPJQHhij-32&quot;&gt;&#10;          &lt;mxGeometry x=&quot;-0.4829&quot; relative=&quot;1&quot; as=&quot;geometry&quot;&gt;&#10;            &lt;mxPoint as=&quot;offset&quot; /&gt;&#10;          &lt;/mxGeometry&gt;&#10;        &lt;/mxCell&gt;&#10;        &lt;mxCell id=&quot;PlhUNaWbmzm0HPJQHhij-31&quot; value=&quot;客户端&quot; style=&quot;rounded=0;sketch=1;hachureGap=4;jiggle=2;curveFitting=1;fontFamily=LXGW WenKai;&quot; vertex=&quot;1&quot; parent=&quot;1&quot;&gt;&#10;          &lt;mxGeometry x=&quot;-785&quot; y=&quot;428&quot; width=&quot;120&quot; height=&quot;60&quot; as=&quot;geometry&quot; /&gt;&#10;        &lt;/mxCell&gt;&#10;        &lt;mxCell id=&quot;PlhUNaWbmzm0HPJQHhij-33&quot; style=&quot;edgeStyle=none;rounded=0;sketch=1;hachureGap=4;jiggle=2;curveFitting=1;orthogonalLoop=1;jettySize=auto;exitX=0;exitY=0.5;exitDx=0;exitDy=0;entryX=1.015;entryY=0.859;entryDx=0;entryDy=0;entryPerimeter=0;fontFamily=LXGW WenKai;&quot; edge=&quot;1&quot; parent=&quot;1&quot; source=&quot;PlhUNaWbmzm0HPJQHhij-5&quot; target=&quot;PlhUNaWbmzm0HPJQHhij-31&quot;&gt;&#10;          &lt;mxGeometry relative=&quot;1&quot; as=&quot;geometry&quot; /&gt;&#10;        &lt;/mxCell&gt;&#10;        &lt;mxCell id=&quot;PlhUNaWbmzm0HPJQHhij-35&quot; value=&quot;响应&quot; style=&quot;edgeLabel;align=center;verticalAlign=middle;resizable=0;points=[];sketch=1;hachureGap=4;jiggle=2;curveFitting=1;fontFamily=LXGW WenKai;&quot; vertex=&quot;1&quot; connectable=&quot;0&quot; parent=&quot;PlhUNaWbmzm0HPJQHhij-33&quot;&gt;&#10;          &lt;mxGeometry x=&quot;0.4873&quot; y=&quot;2&quot; relative=&quot;1&quot; as=&quot;geometry&quot;&gt;&#10;            &lt;mxPoint as=&quot;offset&quot; /&gt;&#10;          &lt;/mxGeometry&gt;&#10;        &lt;/mxCell&gt;&#10;      &lt;/root&gt;&#10;    &lt;/mxGraphModel&gt;&#10;  &lt;/diagram&gt;&#10;&lt;/mxfile&gt;&#10;" resource="https://app.diagrams.net/#Hluguosong%2Fimages%2Fmaster%2Fdiagrams%2Fjava_serve%2Fweb_application%2Fmvc%2FMVC%E6%9E%B6%E6%9E%84%E6%A8%A1%E5%BC%8F.svg#%7B%22pageId%22%3A%2223iRSUPoRavnBvh4doch%22%7D"><defs><clipPath id="mx-clip-307-94-132-30-0"><rect x="307" y="94" width="132" height="30"/></clipPath><clipPath id="mx-clip-307-124-132-30-0"><rect x="307" y="124" width="132" height="30"/></clipPath><clipPath id="mx-clip-307-154-132-30-0"><rect x="307" y="154" width="132" height="30"/></clipPath><clipPath id="mx-clip-600-282-132-30-0"><rect x="600" y="282" width="132" height="30"/></clipPath><clipPath id="mx-clip-597-367-132-30-0"><rect x="597" y="367" width="132" height="30"/></clipPath><clipPath id="mx-clip-639-92-132-30-0"><rect x="639" y="92" width="132" height="30"/></clipPath><clipPath id="mx-clip-876-98-132-30-0"><rect x="876" y="98" width="132" height="30"/></clipPath></defs><g><g><path d="M 232 23 L 232 0 L 529 0 L 529 23" fill="none" stroke="none" pointer-events="all"/><path d="M 232 0 C 232 0 232 0 232 0 M 232 0 C 232 0 232 0 232 0 M 231.74 6.4 C 233.57 3.21 233.59 2.59 236.99 0.36 M 231.74 6.4 C 233.19 4.39 234.15 3.15 236.99 0.36 M 232.13 12.04 C 238.02 5.88 237.82 0.8 242.63 -0.03 M 232.13 12.04 C 234 8.83 238.23 3.64 242.63 -0.03 M 231.87 18.44 C 232.41 10.71 241.65 10.48 247.62 0.33 M 231.87 18.44 C 237.28 12.44 244.44 6.53 247.62 0.33 M 232.92 23.33 C 242.33 13.9 246.67 6.72 253.26 -0.07 M 232.92 23.33 C 240.52 16.48 245.28 8.43 253.26 -0.07 M 237.91 23.69 C 242.57 16.38 254.25 4.58 258.25 0.29 M 237.91 23.69 C 243.68 16.43 252.15 6.27 258.25 0.29 M 243.55 23.29 C 249.59 14.96 257.58 8.28 263.89 -0.1 M 243.55 23.29 C 248.91 19.44 252.13 12.67 263.89 -0.1 M 248.54 23.65 C 256.29 15.35 264.27 9.52 268.88 0.26 M 248.54 23.65 C 257.28 16.49 261.2 7.96 268.88 0.26 M 254.18 23.26 C 261.18 19.22 265.3 10.09 274.52 -0.14 M 254.18 23.26 C 261.52 18.25 267.23 10.71 274.52 -0.14 M 259.17 23.62 C 263.35 14.83 272.67 10.74 279.51 0.22 M 259.17 23.62 C 263.95 16.73 269.81 12.5 279.51 0.22 M 264.81 23.22 C 272.62 16.34 280.58 9.14 285.15 -0.17 M 264.81 23.22 C 271.62 15.82 276.3 10.41 285.15 -0.17 M 269.8 23.58 C 275.08 14.86 281.3 15.9 290.14 0.19 M 269.8 23.58 C 278.43 14.41 285.17 4.64 290.14 0.19 M 274.79 23.94 C 280.06 17.7 287.46 10.91 295.78 -0.21 M 274.79 23.94 C 278.17 17.34 284.59 11.83 295.78 -0.21 M 280.43 23.55 C 286.16 19.86 295.79 7.92 300.77 0.15 M 280.43 23.55 C 288.18 16.08 296.57 7.24 300.77 0.15 M 285.42 23.91 C 294.75 18.87 297.08 8.33 306.41 -0.24 M 285.42 23.91 C 292.37 14.64 298.86 7.63 306.41 -0.24 M 291.06 23.51 C 300.5 12.62 307.25 5.05 311.4 0.12 M 291.06 23.51 C 297.59 13.54 303.99 5.13 311.4 0.12 M 296.05 23.87 C 305.35 18.77 306.64 6.26 317.04 -0.28 M 296.05 23.87 C 301.69 14.89 307.86 9.57 317.04 -0.28 M 301.69 23.48 C 309.07 17.92 314.31 6.33 322.03 0.08 M 301.69 23.48 C 307 17.07 316.98 8.43 322.03 0.08 M 306.68 23.84 C 316.09 16.06 321.08 9.04 327.67 -0.31 M 306.68 23.84 C 314.32 18.41 318.99 11.2 327.67 -0.31 M 312.32 23.45 C 320.24 20.72 325.36 10.61 332.66 0.05 M 312.32 23.45 C 318.71 16.37 324.69 8.74 332.66 0.05 M 317.31 23.81 C 318.81 15.31 329.53 13.65 338.3 -0.34 M 317.31 23.81 C 324.29 15.35 330.96 6.77 338.3 -0.34 M 322.95 23.41 C 329.59 16.68 336.42 11 343.29 0.02 M 322.95 23.41 C 328.91 15.56 339.72 6.89 343.29 0.02 M 327.94 23.77 C 335.29 18.16 335.29 13.9 348.27 0.38 M 327.94 23.77 C 334.05 18.53 340.08 13.06 348.27 0.38 M 333.58 23.38 C 338.81 15.26 349.93 5.91 353.92 -0.02 M 333.58 23.38 C 337.5 18.11 344.01 13.84 353.92 -0.02 M 338.57 23.74 C 347.85 17.19 354.89 6.31 358.91 0.34 M 338.57 23.74 C 342.91 17.15 350.1 11.06 358.91 0.34 M 344.21 23.34 C 350.79 20.31 353.87 13.14 364.55 -0.05 M 344.21 23.34 C 348.6 14.27 357.49 8.04 364.55 -0.05 M 349.2 23.7 C 355.69 12.91 365.69 3.45 369.54 0.31 M 349.2 23.7 C 354.26 17.19 357.69 14.79 369.54 0.31 M 354.84 23.31 C 364.91 10.84 373.27 6.43 375.18 -0.09 M 354.84 23.31 C 361.95 16.58 369.13 10.39 375.18 -0.09 M 359.83 23.67 C 363.32 13.09 374.9 8.46 380.17 0.27 M 359.83 23.67 C 364.81 15.06 374.74 5.89 380.17 0.27 M 365.47 23.27 C 369.25 15.71 373.9 13.05 385.81 -0.12 M 365.47 23.27 C 372.48 16.25 380.85 5.88 385.81 -0.12 M 370.46 23.63 C 375.5 15.47 386.43 1.38 390.8 0.24 M 370.46 23.63 C 375.83 16.62 383.16 7.56 390.8 0.24 M 376.1 23.24 C 380.8 16.11 395.28 3.38 396.44 -0.16 M 376.1 23.24 C 379.71 16.49 384.67 10.95 396.44 -0.16 M 381.09 23.6 C 390.25 16.95 397.68 2.33 401.43 0.2 M 381.09 23.6 C 387.83 16.18 393.92 8.22 401.43 0.2 M 386.07 23.96 C 394.63 13.17 395.1 7.83 407.07 -0.19 M 386.07 23.96 C 396 16.71 403.52 6.03 407.07 -0.19 M 391.72 23.56 C 399.68 11.62 404.62 7.47 412.06 0.17 M 391.72 23.56 C 397.08 13.71 407.3 4.69 412.06 0.17 M 396.7 23.92 C 404.9 19.13 406.3 4.77 417.7 -0.23 M 396.7 23.92 C 404.43 15.36 407.61 8.97 417.7 -0.23 M 402.35 23.53 C 406.26 17.8 413.93 12.76 422.69 0.13 M 402.35 23.53 C 408.78 16.49 414.12 7.92 422.69 0.13 M 407.33 23.89 C 413.27 18.38 417.98 13.71 428.33 -0.26 M 407.33 23.89 C 414.3 13.58 424.26 6.61 428.33 -0.26 M 412.98 23.5 C 415.68 20.41 419.9 12.36 433.32 0.1 M 412.98 23.5 C 419.02 19.95 421.69 11.07 433.32 0.1 M 417.96 23.86 C 424.46 14.86 430.86 7.91 438.96 -0.3 M 417.96 23.86 C 423.61 12.91 434.21 7.7 438.96 -0.3 M 423.61 23.46 C 431.7 15.06 439.28 2.63 443.95 0.06 M 423.61 23.46 C 429.87 12.66 441.11 5.9 443.95 0.06 M 428.59 23.82 C 435.79 19.25 434.05 13.41 449.59 -0.33 M 428.59 23.82 C 437.74 15.05 443.72 5.55 449.59 -0.33 M 434.24 23.43 C 441.44 14.12 448.44 5.65 454.58 0.03 M 434.24 23.43 C 441.09 14.95 446.47 8.71 454.58 0.03 M 439.23 23.79 C 446.7 17.61 451.97 11.85 460.22 -0.36 M 439.23 23.79 C 446.67 17.01 452.95 8.46 460.22 -0.36 M 444.87 23.39 C 448.11 20.87 456.31 16.57 465.21 0 M 444.87 23.39 C 448.71 14.85 458.02 7.59 465.21 0 M 449.86 23.75 C 454.75 14.12 458.53 14.07 470.19 0.36 M 449.86 23.75 C 454.43 16.17 461.82 10.51 470.19 0.36 M 455.5 23.36 C 460.34 17.3 473.74 4.17 475.84 -0.04 M 455.5 23.36 C 458.31 17.98 463.06 15.65 475.84 -0.04 M 460.49 23.72 C 465.88 17.99 469.46 9.19 480.82 0.32 M 460.49 23.72 C 466.19 17.46 469.43 11.62 480.82 0.32 M 466.13 23.32 C 473.77 13.17 482.65 7.28 486.47 -0.07 M 466.13 23.32 C 471.58 15.85 478.77 9.32 486.47 -0.07 M 471.12 23.68 C 472.38 21.77 482.46 14.62 491.45 0.29 M 471.12 23.68 C 480.72 13.86 485.6 6.47 491.45 0.29 M 476.76 23.29 C 484.4 14.09 493.96 6.06 497.1 -0.11 M 476.76 23.29 C 483.12 15.98 492.69 4.52 497.1 -0.11 M 481.75 23.65 C 493.18 16.65 498.59 4.39 502.08 0.25 M 481.75 23.65 C 484.63 17.14 489.59 12.47 502.08 0.25 M 487.39 23.25 C 497.3 12.11 499.95 3.4 507.73 -0.14 M 487.39 23.25 C 495.23 15.52 497.7 9.55 507.73 -0.14 M 492.38 23.61 C 503.12 11.94 506.93 4.95 512.71 0.22 M 492.38 23.61 C 495.66 18.17 501.77 13.47 512.71 0.22 M 497.36 23.97 C 502.54 16.81 510.51 2.97 518.36 -0.18 M 497.36 23.97 C 502.89 19.87 509.26 13.52 518.36 -0.18 M 503.01 23.58 C 507.56 19.17 515.68 6.47 523.34 0.18 M 503.01 23.58 C 508.36 14.84 516.72 8.5 523.34 0.18 M 507.99 23.94 C 515.34 18.23 516.17 10.1 528.99 -0.21 M 507.99 23.94 C 517.46 16.63 524.43 6.98 528.99 -0.21 M 513.64 23.54 C 522.28 14.56 526.01 5.49 529.38 5.43 M 513.64 23.54 C 520.51 15.89 524.11 8.23 529.38 5.43 M 518.62 23.91 C 522.88 20.77 529.06 16.85 529.78 11.08 M 518.62 23.91 C 522.27 20.43 526.61 15.23 529.78 11.08 M 524.27 23.51 C 526.24 21.82 526.88 21.65 529.51 17.47 M 524.27 23.51 C 525.65 22.86 526.69 20.21 529.51 17.47" fill="none" stroke="#f2cc8f" stroke-width="0.5" stroke-linejoin="round" stroke-linecap="round" stroke-miterlimit="10" pointer-events="all"/><path d="M 232 23 C 230.7 14.21 235.09 6.82 232 0 M 232 23 C 231.04 18.32 232.71 14.55 232 0 M 232 0 C 304.45 -1.33 371.73 0.57 529 0 M 232 0 C 292.67 -4.17 356.75 -4.04 529 0 M 529 0 C 527.09 6.92 531.74 15.3 529 23 M 529 0 C 529.45 9.59 528.49 17.23 529 23" fill="none" stroke="#e07a5f" stroke-linejoin="round" stroke-linecap="round" stroke-miterlimit="10" pointer-events="all"/><path d="M 232 23 C 227.7 72.42 232.09 123.23 232 212 M 232 23 C 229.42 63.12 231.09 104.15 232 212 M 232 212 C 304.45 210.67 371.73 212.57 529 212 M 232 212 C 292.67 207.83 356.75 207.96 529 212 M 529 212 C 524.32 160.49 528.97 110.44 529 23 M 529 212 C 525.61 137.83 524.65 61.7 529 23" fill="none" stroke="#e07a5f" stroke-linejoin="round" stroke-linecap="round" stroke-miterlimit="10" pointer-events="none"/><path d="M 232 23 C 312.35 18.12 397.13 17.33 529 23 M 232 23 C 293.92 21.95 357.92 22.75 529 23" fill="none" stroke="#e07a5f" stroke-linejoin="round" stroke-linecap="round" stroke-miterlimit="10" pointer-events="none"/></g><g><g fill="#393C56" font-family="LXGW WenKai" font-weight="bold" text-anchor="middle" font-size="15px"><text x="380" y="17.5">Controller(控制器)</text></g></g><g><path d="M 303 94 L 303 64 L 443 64 L 443 94" fill="none" stroke="none" pointer-events="all"/><path d="M 303 94 C 302.4 88.7 303.74 77.26 303 64 C 343.65 72.49 383.2 68.75 443 64 C 438.6 68.49 445.32 77.72 443 94" fill="rgb(255, 255, 255)" stroke="none" pointer-events="all"/><path d="M 303 94 C 299.41 89.22 301.45 80.3 303 64 M 303 94 C 304.41 86.11 301.23 77.14 303 64 M 303 64 C 342.85 67.99 382.16 67.9 443 64 M 303 64 C 357.35 64.26 411.64 68 443 64 M 443 64 C 439.9 73.96 440.5 78.11 443 94 M 443 64 C 441.64 71.86 442.73 79.27 443 94" fill="none" stroke="rgb(0, 0, 0)" stroke-linejoin="round" stroke-linecap="round" stroke-miterlimit="10" pointer-events="all"/><path d="M 303 94 C 298.12 122.17 300.16 146.2 303 184 M 303 94 C 303.81 120.11 300.63 145.13 303 184 M 303 184 C 342.85 187.99 382.16 187.9 443 184 M 303 184 C 357.35 184.26 411.64 188 443 184 M 443 184 C 438.59 165.5 439.18 141.2 443 94 M 443 184 C 441.15 163.54 442.24 142.63 443 94" fill="none" stroke="rgb(0, 0, 0)" stroke-linejoin="round" stroke-linecap="round" stroke-miterlimit="10" pointer-events="none"/><path d="M 303 94 C 337.53 97.74 378.01 97.06 443 94 M 303 94 C 343.92 92.16 380.41 91.69 443 94" fill="none" stroke="rgb(0, 0, 0)" stroke-linejoin="round" stroke-linecap="round" stroke-miterlimit="10" pointer-events="none"/></g><g><g fill="rgb(0, 0, 0)" font-family="LXGW WenKai" text-anchor="middle" font-size="12px"><text x="372.5" y="83.5">Servlet</text></g></g><g><rect x="303" y="94" width="140" height="30" fill="none" stroke="none" pointer-events="all"/></g><g><g fill="rgb(0, 0, 0)" font-family="LXGW WenKai" clip-path="url(#mx-clip-307-94-132-30-0)" font-size="12px"><text x="308.5" y="113.5">接收请求数据</text></g></g><g><rect x="303" y="124" width="140" height="30" fill="none" stroke="none" pointer-events="all"/></g><g><g fill="rgb(0, 0, 0)" font-family="LXGW WenKai" clip-path="url(#mx-clip-307-124-132-30-0)" font-size="12px"><text x="308.5" y="143.5">调度Moel处理业务</text></g></g><g><rect x="303" y="154" width="140" height="30" fill="none" stroke="none" pointer-events="all"/></g><g><g fill="rgb(0, 0, 0)" font-family="LXGW WenKai" clip-path="url(#mx-clip-307-154-132-30-0)" font-size="12px"><text x="308.5" y="173.5">调度View做页面展示</text></g></g><g><path d="M 581 235 L 581 212 L 745 212 L 745 235" fill="none" stroke="none" pointer-events="all"/><path d="M 581 212 C 581 212 581 212 581 212 M 581 212 C 581 212 581 212 581 212 M 580.74 218.4 C 583.21 215.94 583.67 216.62 585.99 212.36 M 580.74 218.4 C 582.08 216.09 584.38 213.51 585.99 212.36 M 581.13 224.04 C 585.62 219.26 587.28 213.08 591.63 211.97 M 581.13 224.04 C 583.16 219.31 587.04 218.08 591.63 211.97 M 580.87 230.44 C 586.48 228.04 590.96 218.81 596.62 212.33 M 580.87 230.44 C 587.16 223.77 591.26 219.95 596.62 212.33 M 581.92 235.33 C 586.75 223.35 599.88 219.99 602.26 211.93 M 581.92 235.33 C 588.83 230.33 592.37 222.47 602.26 211.93 M 586.91 235.69 C 591.8 233.19 598.59 224.68 607.25 212.29 M 586.91 235.69 C 594.98 227.84 601.67 218.14 607.25 212.29 M 592.55 235.29 C 597.43 229.59 600.13 227.89 612.89 211.9 M 592.55 235.29 C 598.56 228.03 600.66 222.21 612.89 211.9 M 597.54 235.65 C 599.89 228.63 609.12 224.28 617.88 212.26 M 597.54 235.65 C 602.81 230.45 609.42 222.04 617.88 212.26 M 603.18 235.26 C 606.43 224.56 616.08 221.93 623.52 211.86 M 603.18 235.26 C 612.48 226.54 617.46 217.69 623.52 211.86 M 608.17 235.62 C 612.78 223.86 619.6 215.74 628.51 212.22 M 608.17 235.62 C 616.48 226.25 622.93 218.29 628.51 212.22 M 613.81 235.22 C 620.01 227.49 621.61 223.31 634.15 211.83 M 613.81 235.22 C 620.69 227.52 627.94 220.35 634.15 211.83 M 618.8 235.58 C 623.65 229.98 633.39 217.36 639.14 212.19 M 618.8 235.58 C 627.51 228.15 634.56 219.46 639.14 212.19 M 623.79 235.94 C 628.33 229.59 636.43 225.46 644.78 211.79 M 623.79 235.94 C 630.73 228.12 634.08 223.89 644.78 211.79 M 629.43 235.55 C 637.22 227.65 644.06 220.98 649.77 212.15 M 629.43 235.55 C 632.9 232.19 636.18 226.77 649.77 212.15 M 634.42 235.91 C 638.74 230.27 644.31 220.22 655.41 211.76 M 634.42 235.91 C 639.41 228.8 643.35 226.09 655.41 211.76 M 640.06 235.51 C 644 227.89 651.43 221.19 660.4 212.12 M 640.06 235.51 C 646.53 230.48 648.65 228.03 660.4 212.12 M 645.05 235.87 C 649.39 227.25 658.01 214.96 666.04 211.72 M 645.05 235.87 C 651.06 230.92 654.55 221.15 666.04 211.72 M 650.69 235.48 C 657.39 224.11 664.86 215.02 671.03 212.08 M 650.69 235.48 C 657.7 230.66 662.05 222.16 671.03 212.08 M 655.68 235.84 C 660.36 231.63 671.22 220.4 676.67 211.69 M 655.68 235.84 C 662.21 227.65 667.1 223.59 676.67 211.69 M 661.32 235.45 C 670.31 231.82 677.51 219.32 681.66 212.05 M 661.32 235.45 C 668.42 225.84 675.2 217.39 681.66 212.05 M 666.31 235.81 C 670.53 231.31 682.58 216.16 687.3 211.66 M 666.31 235.81 C 672.2 229.93 674.42 225.96 687.3 211.66 M 671.95 235.41 C 681.41 225.01 687.09 216.79 692.29 212.02 M 671.95 235.41 C 678.14 228.91 686.27 219.93 692.29 212.02 M 676.94 235.77 C 684.74 230.67 687.45 217.25 697.27 212.38 M 676.94 235.77 C 684.47 228.28 690.87 219.18 697.27 212.38 M 682.58 235.38 C 685.21 231.13 695.48 220.67 702.92 211.98 M 682.58 235.38 C 686.1 231.76 693.23 226.89 702.92 211.98 M 687.57 235.74 C 691.01 225.26 702.79 222.72 707.91 212.34 M 687.57 235.74 C 692.22 231.21 695.83 226.14 707.91 212.34 M 693.21 235.34 C 694.86 232 701.88 226.56 713.55 211.95 M 693.21 235.34 C 696.18 230.36 700.73 224.29 713.55 211.95 M 698.2 235.7 C 705.23 225.37 712.28 219.44 718.54 212.31 M 698.2 235.7 C 704.62 228.97 705.31 225.3 718.54 212.31 M 703.84 235.31 C 708.33 233.4 710.78 226.43 724.18 211.91 M 703.84 235.31 C 708.82 228.21 717.91 218.91 724.18 211.91 M 708.83 235.67 C 710.95 228.14 717.04 219.36 729.17 212.27 M 708.83 235.67 C 714.46 228.59 722.03 221.42 729.17 212.27 M 714.47 235.27 C 718.11 228.82 723.69 221.36 734.81 211.88 M 714.47 235.27 C 720.97 226.26 732.3 217.17 734.81 211.88 M 719.46 235.63 C 722.37 231.75 732.3 220.39 739.8 212.24 M 719.46 235.63 C 725.52 231.48 728.57 225.75 739.8 212.24 M 725.1 235.24 C 732.7 226.37 738.74 222.05 745.44 211.84 M 725.1 235.24 C 733.38 226.08 743.25 217.99 745.44 211.84 M 730.09 235.6 C 738.3 228.75 738.12 226.28 745.18 218.24 M 730.09 235.6 C 732.93 231.68 740.49 226.81 745.18 218.24 M 735.07 235.96 C 739.16 232.36 743.05 228.06 744.92 224.64 M 735.07 235.96 C 739.32 231.38 744.19 228.25 744.92 224.64 M 740.72 235.56 C 742.72 234.16 742.68 232.08 745.31 230.28 M 740.72 235.56 C 741.48 234.29 743.61 232.34 745.31 230.28" fill="none" stroke="#f2cc8f" stroke-width="0.5" stroke-linejoin="round" stroke-linecap="round" stroke-miterlimit="10" pointer-events="all"/><path d="M 581 235 C 583.88 231.85 584.5 218.45 581 212 M 581 235 C 579.69 224.78 581.12 217.51 581 212 M 581 212 C 614.67 218.45 649.68 215.7 745 212 M 581 212 C 626.18 214.25 672.66 212.25 745 212 M 745 212 C 744.76 222.4 745.17 221.94 745 235 M 745 212 C 745.18 223.09 746.45 231.71 745 235" fill="none" stroke="#e07a5f" stroke-linejoin="round" stroke-linecap="round" stroke-miterlimit="10" pointer-events="all"/><path d="M 581 235 C 584.47 288.14 585.09 331.03 581 417 M 581 235 C 580.89 300.89 582.32 369.74 581 417 M 581 417 C 614.67 423.45 649.68 420.7 745 417 M 581 417 C 626.18 419.25 672.66 417.25 745 417 M 745 417 C 744.23 369.35 744.64 310.84 745 235 M 745 417 C 747.66 346.17 748.94 272.85 745 235" fill="none" stroke="#e07a5f" stroke-linejoin="round" stroke-linecap="round" stroke-miterlimit="10" pointer-events="none"/><path d="M 581 235 C 628.98 235.84 674.63 228.75 745 235 M 581 235 C 640.72 235.66 703.03 236.93 745 235" fill="none" stroke="#e07a5f" stroke-linejoin="round" stroke-linecap="round" stroke-miterlimit="10" pointer-events="none"/></g><g><g fill="#393C56" font-family="LXGW WenKai" font-weight="bold" text-anchor="middle" font-size="15px"><text x="662.5" y="229.5">View(视图)</text></g></g><g><path d="M 596 282 L 596 252 L 736 252 L 736 282" fill="none" stroke="none" pointer-events="all"/><path d="M 596 282 C 594.23 267.55 595.91 263.17 596 252 C 640.58 255.21 684.04 250.53 736 252 C 736.92 258.69 735.69 262.65 736 282" fill="rgb(255, 255, 255)" stroke="none" pointer-events="all"/><path d="M 596 282 C 599.51 269.95 593.49 265.81 596 252 M 596 282 C 597.33 272.41 596.68 265.45 596 252 M 596 252 C 647.73 250.22 707.12 250.11 736 252 M 596 252 C 634.77 254.29 670.4 254.97 736 252 M 736 252 C 734.3 265.54 735.63 270 736 282 M 736 252 C 734.74 262.97 737.63 274.56 736 282" fill="none" stroke="rgb(0, 0, 0)" stroke-linejoin="round" stroke-linecap="round" stroke-miterlimit="10" pointer-events="all"/><path d="M 596 282 C 599.21 288.65 593.19 303.22 596 312 M 596 282 C 597.15 287.68 596.5 295.99 596 312 M 596 312 C 647.73 310.22 707.12 310.11 736 312 M 596 312 C 634.77 314.29 670.4 314.97 736 312 M 736 312 C 733.96 304.52 735.3 287.97 736 282 M 736 312 C 734.69 300.17 737.57 288.96 736 282" fill="none" stroke="rgb(0, 0, 0)" stroke-linejoin="round" stroke-linecap="round" stroke-miterlimit="10" pointer-events="none"/><path d="M 596 282 C 643 278.95 680.62 284.17 736 282 M 596 282 C 632.86 277.82 667.84 278.49 736 282" fill="none" stroke="rgb(0, 0, 0)" stroke-linejoin="round" stroke-linecap="round" stroke-miterlimit="10" pointer-events="none"/></g><g><g fill="rgb(0, 0, 0)" font-family="LXGW WenKai" text-anchor="middle" font-size="12px"><text x="665.5" y="271.5">JSP</text></g></g><g><rect x="596" y="282" width="140" height="30" fill="none" stroke="none" pointer-events="all"/></g><g><g fill="rgb(0, 0, 0)" font-family="LXGW WenKai" clip-path="url(#mx-clip-600-282-132-30-0)" font-size="12px"><text x="601.5" y="301.5">正确页面</text></g></g><g><path d="M 593 367 L 593 337 L 733 337 L 733 367" fill="none" stroke="none" pointer-events="all"/><path d="M 593 367 C 588.75 364.73 593.96 355 593 337 C 634.74 340.14 677.44 335.58 733 337 C 730.48 351.41 730.31 359.12 733 367" fill="rgb(255, 255, 255)" stroke="none" pointer-events="all"/><path d="M 593 367 C 595.23 359.14 594.35 348.96 593 337 M 593 367 C 594.51 360.09 592.64 350.05 593 337 M 593 337 C 633.06 331.9 666.46 337.11 733 337 M 593 337 C 626.66 335.63 664.64 333.36 733 337 M 733 337 C 732.45 352.21 736.65 360.75 733 367 M 733 337 C 734.11 341.65 732.17 348.29 733 367" fill="none" stroke="rgb(0, 0, 0)" stroke-linejoin="round" stroke-linecap="round" stroke-miterlimit="10" pointer-events="all"/><path d="M 593 367 C 595.22 377.85 594.35 386.38 593 397 M 593 367 C 593.58 375.35 591.71 380.56 593 397 M 593 397 C 633.06 391.9 666.46 397.11 733 397 M 593 397 C 626.66 395.63 664.64 393.36 733 397 M 733 397 C 732.86 388.92 737.06 374.18 733 367 M 733 397 C 733.53 389.48 731.58 383.97 733 367" fill="none" stroke="rgb(0, 0, 0)" stroke-linejoin="round" stroke-linecap="round" stroke-miterlimit="10" pointer-events="none"/><path d="M 593 367 C 638.88 367.96 681.66 367.14 733 367 M 593 367 C 629.65 368.07 663.38 365.65 733 367" fill="none" stroke="rgb(0, 0, 0)" stroke-linejoin="round" stroke-linecap="round" stroke-miterlimit="10" pointer-events="none"/></g><g><g fill="rgb(0, 0, 0)" font-family="LXGW WenKai" text-anchor="middle" font-size="12px"><text x="662.5" y="356.5">JSP</text></g></g><g><rect x="593" y="367" width="140" height="30" fill="none" stroke="none" pointer-events="all"/></g><g><g fill="rgb(0, 0, 0)" font-family="LXGW WenKai" clip-path="url(#mx-clip-597-367-132-30-0)" font-size="12px"><text x="598.5" y="386.5">错误页面</text></g></g><g><path d="M 443 169 L 589.61 268.23" fill="none" stroke="none" pointer-events="stroke"/><path d="M 593.95 271.17 L 586.2 270.15 L 589.61 268.23 L 590.12 264.35 Z" fill="none" stroke="none" pointer-events="all"/><path d="M 443 169 C 489.06 201.93 533.91 234.48 589.61 268.23 M 443 169 C 474.25 189.55 503.51 212.79 589.61 268.23" fill="none" stroke="rgb(0, 0, 0)" stroke-linejoin="round" stroke-linecap="round" stroke-miterlimit="10" pointer-events="stroke"/><path d="M 590.13 264.34 C 590.13 264.34 590.13 264.34 590.13 264.34 M 590.13 264.34 C 590.13 264.34 590.13 264.34 590.13 264.34 M 589.87 270.73 C 591.26 270.24 591.29 269.37 592.49 267.72 M 589.87 270.73 C 590.77 269.75 591.49 268.6 592.49 267.72" fill="none" stroke="rgb(0, 0, 0)" stroke-width="0.5" stroke-linejoin="round" stroke-linecap="round" stroke-miterlimit="10" pointer-events="all"/><path d="M 593.95 271.17 C 591.5 270.73 588.76 271.04 586.2 270.15 M 593.95 271.17 C 592.22 270.16 590.23 271.02 586.2 270.15 M 586.2 270.15 C 586.42 269.91 587.73 269.38 589.61 268.23 M 586.2 270.15 C 586.92 269.59 588.21 269.14 589.61 268.23 M 589.61 268.23 C 590.04 266.82 589.75 265.47 590.12 264.35 M 589.61 268.23 C 589.76 267.61 589.96 266.83 590.12 264.35 M 590.12 264.35 C 591.95 264.98 592.82 268.1 593.95 271.17 M 590.12 264.35 C 591.84 266.23 592.11 269.01 593.95 271.17" fill="none" stroke="rgb(0, 0, 0)" stroke-linejoin="round" stroke-linecap="round" stroke-miterlimit="10" pointer-events="all"/></g><g><g fill="rgb(0, 0, 0)" font-family="LXGW WenKai" text-anchor="middle" font-size="11px"><rect fill="rgb(255, 255, 255)" stroke="none" x="502" y="217" width="35" height="14" stroke-width="0"/><text x="518.95" y="226.83">重定向</text></g></g><g><path d="M 443 169 L 588.96 347.08" fill="none" stroke="none" pointer-events="stroke"/><path d="M 592.29 351.14 L 585.15 347.94 L 588.96 347.08 L 590.56 343.5 Z" fill="none" stroke="none" pointer-events="all"/><path d="M 443 169 C 487.66 221.45 537.24 278.68 588.96 347.08 M 443 169 C 484.37 217.51 526.84 268.11 588.96 347.08" fill="none" stroke="rgb(0, 0, 0)" stroke-linejoin="round" stroke-linecap="round" stroke-miterlimit="10" pointer-events="stroke"/><path d="M 585.39 347.66 C 585.39 347.66 585.39 347.66 585.39 347.66 M 585.39 347.66 C 585.39 347.66 585.39 347.66 585.39 347.66 M 589.06 349.53 C 589.61 348.55 590.59 348.07 591.69 346.52 M 589.06 349.53 C 589.97 348.69 590.72 347.06 591.69 346.52" fill="none" stroke="rgb(0, 0, 0)" stroke-width="0.5" stroke-linejoin="round" stroke-linecap="round" stroke-miterlimit="10" pointer-events="all"/><path d="M 592.29 351.14 C 589.12 349.39 588.78 349.18 585.15 347.94 M 592.29 351.14 C 589.51 349.71 588.36 349.28 585.15 347.94 M 585.15 347.94 C 587.05 347.29 588.15 348.05 588.96 347.08 M 585.15 347.94 C 586.38 347.58 587.27 347.38 588.96 347.08 M 588.96 347.08 C 589.41 346.33 590.16 345.79 590.56 343.5 M 588.96 347.08 C 589.16 346.42 590.06 345.12 590.56 343.5 M 590.56 343.5 C 590.49 343.89 591.12 345.06 592.29 351.14 M 590.56 343.5 C 590.53 345.32 591.71 347.89 592.29 351.14" fill="none" stroke="rgb(0, 0, 0)" stroke-linejoin="round" stroke-linecap="round" stroke-miterlimit="10" pointer-events="all"/></g><g><g fill="rgb(0, 0, 0)" font-family="LXGW WenKai" text-anchor="middle" font-size="11px"><rect fill="rgb(255, 255, 255)" stroke="none" x="496" y="246" width="35" height="14" stroke-width="0"/><text x="512.26" y="256.45">重定向</text></g></g><g><path d="M 600 38 L 600 15 L 834 15 L 834 38" fill="none" stroke="none" pointer-events="all"/><path d="M 600 15 C 600 15 600 15 600 15 M 600 15 C 600 15 600 15 600 15 M 599.74 21.4 C 600.47 19.1 603.76 16.28 604.99 15.36 M 599.74 21.4 C 601.33 19.63 602.75 18.64 604.99 15.36 M 600.13 27.04 C 600.76 21.59 605.35 21.88 610.63 14.97 M 600.13 27.04 C 602.29 23.03 605.76 20.3 610.63 14.97 M 599.87 33.44 C 605.24 31.61 608.61 22.62 615.62 15.33 M 599.87 33.44 C 603.84 26.71 611.02 18.56 615.62 15.33 M 600.92 38.33 C 602.92 32.74 611.59 24.83 621.26 14.93 M 600.92 38.33 C 608.38 32.91 610.8 25.42 621.26 14.93 M 605.91 38.69 C 609.03 35.63 614.74 25.46 626.25 15.29 M 605.91 38.69 C 610.42 35.02 617.14 27.27 626.25 15.29 M 611.55 38.29 C 614.5 33.68 621.34 23.87 631.89 14.9 M 611.55 38.29 C 621.38 27.59 627.3 19.13 631.89 14.9 M 616.54 38.65 C 623.86 31.39 634.11 21.22 636.88 15.26 M 616.54 38.65 C 622.36 31.42 632.37 23.55 636.88 15.26 M 622.18 38.26 C 629.41 28.48 633.42 23.86 642.52 14.86 M 622.18 38.26 C 626.59 31.43 635.15 22.09 642.52 14.86 M 627.17 38.62 C 630.02 30.74 638.59 27.33 647.51 15.22 M 627.17 38.62 C 633.58 32.24 637.61 27.84 647.51 15.22 M 632.81 38.22 C 640.5 35.6 639.64 24.38 653.15 14.83 M 632.81 38.22 C 635.87 30.89 641.19 27.09 653.15 14.83 M 637.8 38.58 C 648.52 27.97 656.88 17.12 658.14 15.19 M 637.8 38.58 C 645.89 32.39 651.1 23.1 658.14 15.19 M 642.79 38.94 C 645.21 35.67 657.85 28.83 663.78 14.79 M 642.79 38.94 C 649.3 29.37 659.41 21.08 663.78 14.79 M 648.43 38.55 C 653.04 34.43 663.35 22.22 668.77 15.15 M 648.43 38.55 C 654.38 30.67 662.82 24.37 668.77 15.15 M 653.42 38.91 C 663.43 28.24 665.04 20.01 674.41 14.76 M 653.42 38.91 C 658.78 29 669.53 21.36 674.41 14.76 M 659.06 38.51 C 660.7 29.7 669.22 23.71 679.4 15.12 M 659.06 38.51 C 665.04 31.47 668.52 28.38 679.4 15.12 M 664.05 38.87 C 669.4 36.21 678.05 22.93 685.04 14.72 M 664.05 38.87 C 669.64 31.05 676.22 23.71 685.04 14.72 M 669.69 38.48 C 671.38 31.65 681.67 28.12 690.03 15.08 M 669.69 38.48 C 675.66 33.45 678.6 26.23 690.03 15.08 M 674.68 38.84 C 680.6 27.33 690.72 23.59 695.67 14.69 M 674.68 38.84 C 679.65 33.36 687.3 25.38 695.67 14.69 M 680.32 38.45 C 688.26 34.93 688.46 25.34 700.66 15.05 M 680.32 38.45 C 687.6 30.64 693.63 27.23 700.66 15.05 M 685.31 38.81 C 692.63 35.04 695.32 24.36 706.3 14.66 M 685.31 38.81 C 690.85 31.16 697.38 23.3 706.3 14.66 M 690.95 38.41 C 695.4 30.82 703.42 29.1 711.29 15.02 M 690.95 38.41 C 695.84 32.14 702.6 24.53 711.29 15.02 M 695.94 38.77 C 699.85 35.24 708.83 29.42 716.27 15.38 M 695.94 38.77 C 698.86 33.17 705.15 29.6 716.27 15.38 M 701.58 38.38 C 711.05 25.99 715.92 22.36 721.92 14.98 M 701.58 38.38 C 706.12 32.26 711.97 25.94 721.92 14.98 M 706.57 38.74 C 712.76 28.88 725.7 19.63 726.91 15.34 M 706.57 38.74 C 714.9 32.13 720.57 23.05 726.91 15.34 M 712.21 38.34 C 718.4 34.51 721.25 28.78 732.55 14.95 M 712.21 38.34 C 719.98 30.02 726.89 20.11 732.55 14.95 M 717.2 38.7 C 723.34 28.41 730.57 27.81 737.54 15.31 M 717.2 38.7 C 723.81 33.52 728.97 28.08 737.54 15.31 M 722.84 38.31 C 726.88 32.07 734.65 20.03 743.18 14.91 M 722.84 38.31 C 728.34 33.35 732.4 28.06 743.18 14.91 M 727.83 38.67 C 733.17 25.62 747.3 18.39 748.17 15.27 M 727.83 38.67 C 737.7 31.64 742.27 19.82 748.17 15.27 M 733.47 38.27 C 737.73 31.81 743.96 28.59 753.81 14.88 M 733.47 38.27 C 737.12 33.52 743.54 28.96 753.81 14.88 M 738.46 38.63 C 745.41 31.01 746.35 23.78 758.8 15.24 M 738.46 38.63 C 748.1 29.56 754.25 22.27 758.8 15.24 M 744.1 38.24 C 748.53 27.51 754.93 26.69 764.44 14.84 M 744.1 38.24 C 752.8 28.54 758.6 22.8 764.44 14.84 M 749.09 38.6 C 752.71 30.74 761.2 23.87 769.43 15.2 M 749.09 38.6 C 755.38 31.19 762.46 23.76 769.43 15.2 M 754.07 38.96 C 763.14 32.23 764.79 30.91 775.07 14.81 M 754.07 38.96 C 759.05 31.6 763.76 27.41 775.07 14.81 M 759.72 38.56 C 768.62 28.88 775.24 17.69 780.06 15.17 M 759.72 38.56 C 766.65 32.12 773.92 21.73 780.06 15.17 M 764.7 38.92 C 771.46 28.74 777.91 20.49 785.7 14.77 M 764.7 38.92 C 768.74 32.78 776.97 24.79 785.7 14.77 M 770.35 38.53 C 780.63 27.2 783.13 19.86 790.69 15.13 M 770.35 38.53 C 780.44 29.94 785.81 21.08 790.69 15.13 M 775.33 38.89 C 776.02 33.38 784.26 30.09 796.33 14.74 M 775.33 38.89 C 779.86 31.21 788.34 24.3 796.33 14.74 M 780.98 38.5 C 784.43 32.96 792.94 29.69 801.32 15.1 M 780.98 38.5 C 786.25 33.83 792.91 24.46 801.32 15.1 M 785.96 38.86 C 792.23 26.55 804.98 20.19 806.96 14.7 M 785.96 38.86 C 792.75 30.06 800.98 24.27 806.96 14.7 M 791.61 38.46 C 796.84 32.96 807.35 18.53 811.95 15.06 M 791.61 38.46 C 797.18 33.8 800.58 26.77 811.95 15.06 M 796.59 38.82 C 798.23 31.18 803.86 26.13 817.59 14.67 M 796.59 38.82 C 802.24 29.02 811.21 25.05 817.59 14.67 M 802.24 38.43 C 806.53 33.24 817.73 27.6 822.58 15.03 M 802.24 38.43 C 809.97 28.16 816.43 21.33 822.58 15.03 M 807.23 38.79 C 809.2 31.64 820.06 26.99 828.22 14.64 M 807.23 38.79 C 814.06 31.47 821.09 19.36 828.22 14.64 M 812.87 38.39 C 822.52 26.85 825.44 20.24 833.21 15 M 812.87 38.39 C 819.09 30.82 828.51 23.22 833.21 15 M 817.86 38.75 C 822.79 37.71 822.74 25.59 834.26 19.88 M 817.86 38.75 C 821.68 30.33 829.36 25.66 834.26 19.88 M 823.5 38.36 C 826.84 31.94 833.51 29.77 834 26.28 M 823.5 38.36 C 827.05 35.15 832 31.03 834 26.28 M 828.49 38.72 C 831.62 37.27 831.42 32.49 834.39 31.93 M 828.49 38.72 C 830.09 37.01 833.07 33.34 834.39 31.93" fill="none" stroke="#f2cc8f" stroke-width="0.5" stroke-linejoin="round" stroke-linecap="round" stroke-miterlimit="10" pointer-events="all"/><path d="M 600 38 C 598.38 30.5 596.12 26.55 600 15 M 600 38 C 601.66 31.14 601.25 24.85 600 15 M 600 15 C 650.3 18.86 700.04 16.52 834 15 M 600 15 C 692.84 11.68 785.82 14.09 834 15 M 834 15 C 830.59 22.61 836.15 33.46 834 38 M 834 15 C 832.09 21.81 832.74 33.76 834 38" fill="none" stroke="#e07a5f" stroke-linejoin="round" stroke-linecap="round" stroke-miterlimit="10" pointer-events="all"/><path d="M 600 38 C 600.85 73.51 598.6 112.57 600 153 M 600 38 C 599.38 71.78 598.97 106.13 600 153 M 600 153 C 650.3 156.86 700.04 154.52 834 153 M 600 153 C 692.84 149.68 785.82 152.09 834 153 M 834 153 C 828.38 113.31 833.94 76.87 834 38 M 834 153 C 833.32 107.99 833.96 68.14 834 38" fill="none" stroke="#e07a5f" stroke-linejoin="round" stroke-linecap="round" stroke-miterlimit="10" pointer-events="none"/><path d="M 600 38 C 671.91 37.28 742.95 39.99 834 38 M 600 38 C 669.99 38.79 738.56 39.21 834 38" fill="none" stroke="#e07a5f" stroke-linejoin="round" stroke-linecap="round" stroke-miterlimit="10" pointer-events="none"/></g><g><g fill="#393C56" font-family="LXGW WenKai" font-weight="bold" text-anchor="middle" font-size="15px"><text x="716.5" y="32.5">Model(模型)</text></g></g><g><path d="M 635 92 L 635 62 L 775 62 L 775 92" fill="none" stroke="none" pointer-events="all"/><path d="M 635 92 C 639.76 76.67 635.5 73.33 635 62 C 675.78 58.32 714.65 68.41 775 62 C 778.75 73.5 779.6 82.91 775 92" fill="rgb(255, 255, 255)" stroke="none" pointer-events="all"/><path d="M 635 92 C 632.06 80.24 635.46 74.51 635 62 M 635 92 C 635.08 81.34 633.83 69.28 635 62 M 635 62 C 670.03 63.76 702.87 66.32 775 62 M 635 62 C 685.79 66.58 740.09 65 775 62 M 775 62 C 778.42 73.11 771.94 80.2 775 92 M 775 62 C 776.29 66.94 774.99 74.53 775 92" fill="none" stroke="rgb(0, 0, 0)" stroke-linejoin="round" stroke-linecap="round" stroke-miterlimit="10" pointer-events="all"/><path d="M 635 92 C 630.94 98.94 634.34 111.91 635 122 M 635 92 C 634.26 103.33 633 113.25 635 122 M 635 122 C 670.03 123.76 702.87 126.32 775 122 M 635 122 C 685.79 126.58 740.09 125 775 122 M 775 122 C 777.59 114.86 771.1 103.7 775 92 M 775 122 C 775.27 113.96 773.96 108.56 775 92" fill="none" stroke="rgb(0, 0, 0)" stroke-linejoin="round" stroke-linecap="round" stroke-miterlimit="10" pointer-events="none"/><path d="M 635 92 C 675.14 91.51 722.17 95.13 775 92 M 635 92 C 685.98 91.26 736.03 90.19 775 92" fill="none" stroke="rgb(0, 0, 0)" stroke-linejoin="round" stroke-linecap="round" stroke-miterlimit="10" pointer-events="none"/></g><g><g fill="rgb(0, 0, 0)" font-family="LXGW WenKai" text-anchor="middle" font-size="12px"><text x="704.5" y="81.5">Service</text></g></g><g><rect x="635" y="92" width="140" height="30" fill="none" stroke="none" pointer-events="all"/></g><g><g fill="rgb(0, 0, 0)" font-family="LXGW WenKai" clip-path="url(#mx-clip-639-92-132-30-0)" font-size="12px"><text x="640.5" y="111.5">处理业务逻辑</text></g></g><g><path d="M 443 139 L 628.72 108.05" fill="none" stroke="none" pointer-events="stroke"/><path d="M 633.9 107.18 L 627.57 111.79 L 628.72 108.05 L 626.42 104.88 Z" fill="none" stroke="none" pointer-events="all"/><path d="M 443 139 C 498.36 124.49 558.69 114.81 628.72 108.05 M 443 139 C 519.12 131.66 589.52 117.78 628.72 108.05" fill="none" stroke="rgb(0, 0, 0)" stroke-linejoin="round" stroke-linecap="round" stroke-miterlimit="10" pointer-events="stroke"/><path d="M 626.32 104.99 C 626.32 104.99 626.32 104.99 626.32 104.99 M 626.32 104.99 C 626.32 104.99 626.32 104.99 626.32 104.99 M 628.68 108.37 C 629.38 108.17 630.17 106.35 630.65 106.11 M 628.68 108.37 C 628.99 108.08 629.32 107.7 630.65 106.11" fill="none" stroke="rgb(0, 0, 0)" stroke-width="0.5" stroke-linejoin="round" stroke-linecap="round" stroke-miterlimit="10" pointer-events="all"/><path d="M 633.9 107.18 C 631.04 107.66 630.01 109.08 627.57 111.79 M 633.9 107.18 C 632.05 109.52 628.13 110.75 627.57 111.79 M 627.57 111.79 C 628.29 110.12 628.67 108.85 628.72 108.05 M 627.57 111.79 C 627.7 110.92 628.35 110.33 628.72 108.05 M 628.72 108.05 C 627.49 107.11 627.58 106.7 626.42 104.88 M 628.72 108.05 C 628.47 106.96 627.46 106.08 626.42 104.88 M 626.42 104.88 C 628.63 107 630.24 106.8 633.9 107.18 M 626.42 104.88 C 628.91 106.16 632.39 106.18 633.9 107.18" fill="none" stroke="rgb(0, 0, 0)" stroke-linejoin="round" stroke-linecap="round" stroke-miterlimit="10" pointer-events="all"/></g><g><path d="M 872 98 L 872 68 L 1012 68 L 1012 98" fill="none" stroke="none" pointer-events="all"/><path d="M 872 98 C 866.49 94.89 876.16 77.28 872 68 C 920.8 67.9 973.93 60.68 1012 68 C 1013.79 76.2 1009.27 88.42 1012 98" fill="rgb(255, 255, 255)" stroke="none" pointer-events="all"/><path d="M 872 98 C 875.06 91.93 875.13 82.94 872 68 M 872 98 C 872.45 87.9 872.03 80.68 872 68 M 872 68 C 924.58 72.65 973.9 69.86 1012 68 M 872 68 C 926.65 66.32 979.63 66.73 1012 68 M 1012 68 C 1007.61 78.53 1007.67 84.6 1012 98 M 1012 68 C 1012.5 77.17 1012.7 88.82 1012 98" fill="none" stroke="rgb(0, 0, 0)" stroke-linejoin="round" stroke-linecap="round" stroke-miterlimit="10" pointer-events="all"/><path d="M 872 98 C 875.67 110.64 875.74 120.36 872 128 M 872 98 C 872 104.11 871.58 113.11 872 128 M 872 128 C 924.58 132.65 973.9 129.86 1012 128 M 872 128 C 926.65 126.32 979.63 126.73 1012 128 M 1012 128 C 1008.39 122.17 1008.46 111.89 1012 98 M 1012 128 C 1012.04 117.64 1012.24 109.77 1012 98" fill="none" stroke="rgb(0, 0, 0)" stroke-linejoin="round" stroke-linecap="round" stroke-miterlimit="10" pointer-events="none"/><path d="M 872 98 C 919.03 101.84 962.75 102.22 1012 98 M 872 98 C 910.07 96.88 947.48 97.77 1012 98" fill="none" stroke="rgb(0, 0, 0)" stroke-linejoin="round" stroke-linecap="round" stroke-miterlimit="10" pointer-events="none"/></g><g><g fill="rgb(0, 0, 0)" font-family="LXGW WenKai" text-anchor="middle" font-size="12px"><text x="941.5" y="87.5">Dao</text></g></g><g><rect x="872" y="98" width="140" height="30" fill="none" stroke="none" pointer-events="all"/></g><g><g fill="rgb(0, 0, 0)" font-family="LXGW WenKai" clip-path="url(#mx-clip-876-98-132-30-0)" font-size="12px"><text x="877.5" y="117.5">负责数据库的增删改查</text></g></g><g><path d="M 775 107 L 865.64 112.61" fill="none" stroke="none" pointer-events="stroke"/><path d="M 870.88 112.93 L 863.68 115.99 L 865.64 112.61 L 864.11 109.01 Z" fill="none" stroke="none" pointer-events="all"/><path d="M 775 107 C 805.59 108.47 831.08 112.56 865.64 112.61 M 775 107 C 799.41 107.81 822.25 107.12 865.64 112.61" fill="none" stroke="rgb(0, 0, 0)" stroke-linejoin="round" stroke-linecap="round" stroke-miterlimit="10" pointer-events="stroke"/><path d="M 864.13 108.99 C 864.13 108.99 864.13 108.99 864.13 108.99 M 864.13 108.99 C 864.13 108.99 864.13 108.99 864.13 108.99 M 865.84 113.12 C 866.81 112.66 867.66 111.28 867.8 110.86 M 865.84 113.12 C 866.19 112.72 866.83 112.08 867.8 110.86" fill="none" stroke="rgb(0, 0, 0)" stroke-width="0.5" stroke-linejoin="round" stroke-linecap="round" stroke-miterlimit="10" pointer-events="all"/><path d="M 870.88 112.93 C 869.55 113.66 866.22 115.53 863.68 115.99 M 870.88 112.93 C 868.89 114.13 866.3 114.1 863.68 115.99 M 863.68 115.99 C 863.78 114.96 865.19 114.62 865.64 112.61 M 863.68 115.99 C 864.22 114.66 865.07 113.73 865.64 112.61 M 865.64 112.61 C 864.63 112.04 864.73 111.08 864.11 109.01 M 865.64 112.61 C 864.73 111.07 864.86 110.26 864.11 109.01 M 864.11 109.01 C 867.79 111.44 867.83 111.23 870.88 112.93 M 864.11 109.01 C 866.19 110.58 869.24 110.9 870.88 112.93" fill="none" stroke="rgb(0, 0, 0)" stroke-linejoin="round" stroke-linecap="round" stroke-miterlimit="10" pointer-events="all"/></g><g><path d="M 120 107 L 296.63 108.93" fill="none" stroke="none" pointer-events="stroke"/><path d="M 301.88 108.99 L 294.84 112.41 L 296.63 108.93 L 294.92 105.41 Z" fill="none" stroke="none" pointer-events="all"/><path d="M 120 107 C 172.73 109.98 228.33 105.71 296.63 108.93 M 120 107 C 158.61 109.04 197.09 108.13 296.63 108.93" fill="none" stroke="rgb(0, 0, 0)" stroke-linejoin="round" stroke-linecap="round" stroke-miterlimit="10" pointer-events="stroke"/><path d="M 294.75 105.61 C 294.75 105.61 294.75 105.61 294.75 105.61 M 294.75 105.61 C 294.75 105.61 294.75 105.61 294.75 105.61 M 297.11 108.99 C 297.72 108.24 297.64 108.51 298.42 107.48 M 297.11 108.99 C 297.49 108.67 297.81 107.86 298.42 107.48" fill="none" stroke="rgb(0, 0, 0)" stroke-width="0.5" stroke-linejoin="round" stroke-linecap="round" stroke-miterlimit="10" pointer-events="all"/><path d="M 301.88 108.99 C 298.71 111.4 296.71 110.56 294.84 112.41 M 301.88 108.99 C 300.64 110.32 299.39 110.53 294.84 112.41 M 294.84 112.41 C 294.84 111.21 295.44 109.55 296.63 108.93 M 294.84 112.41 C 295.38 111 296.01 110.03 296.63 108.93 M 296.63 108.93 C 296.8 107.98 295.39 106.93 294.92 105.41 M 296.63 108.93 C 296.15 107.89 295.65 107.43 294.92 105.41 M 294.92 105.41 C 295.43 107.21 298.69 106.14 301.88 108.99 M 294.92 105.41 C 295.95 106.63 298.65 107.8 301.88 108.99" fill="none" stroke="rgb(0, 0, 0)" stroke-linejoin="round" stroke-linecap="round" stroke-miterlimit="10" pointer-events="all"/></g><g><g fill="rgb(0, 0, 0)" font-family="LXGW WenKai" text-anchor="middle" font-size="11px"><rect fill="rgb(255, 255, 255)" stroke="none" x="156" y="102" width="24" height="14" stroke-width="0"/><text x="167.43" y="111.86">请求</text></g></g><g><rect x="0" y="92" width="120" height="60" fill="none" stroke="none" pointer-events="all"/><path d="M 1.86 90.99 L 122.44 93.87 L 116.94 153.03 L 1.81 150.42" fill="rgb(255, 255, 255)" stroke="none" pointer-events="all"/><path d="M 0 92 C 37.38 91.64 77.67 94.37 120 92 M 0 92 C 39.48 94.62 82.04 94.86 120 92 M 120 92 C 117.6 112.09 120.03 128.89 120 152 M 120 92 C 121.1 111.12 119.64 132.34 120 152 M 120 152 C 83.67 148.12 57.93 151.97 0 152 M 120 152 C 74.16 148.33 24.89 148.37 0 152 M 0 152 C -0.21 134.82 2.29 114.42 0 92 M 0 152 C 1.01 135.65 -0.64 119.68 0 92" fill="none" stroke="rgb(0, 0, 0)" stroke-linejoin="round" stroke-linecap="round" stroke-miterlimit="10" pointer-events="all"/></g><g><g fill="rgb(0, 0, 0)" font-family="LXGW WenKai" text-anchor="middle" font-size="12px"><text x="59.5" y="126.5">客户端</text></g></g><g><path d="M 303 169 L 128.11 144.43" fill="none" stroke="none" pointer-events="stroke"/><path d="M 122.91 143.7 L 130.33 141.2 L 128.11 144.43 L 129.35 148.14 Z" fill="none" stroke="none" pointer-events="all"/><path d="M 303 169 C 252.18 160.75 195.77 148.62 128.11 144.43 M 303 169 C 252.46 165.94 202.23 156.02 128.11 144.43" fill="none" stroke="rgb(0, 0, 0)" stroke-linejoin="round" stroke-linecap="round" stroke-miterlimit="10" pointer-events="stroke"/><path d="M 123.22 143.34 C 123.22 143.34 123.22 143.34 123.22 143.34 M 123.22 143.34 C 123.22 143.34 123.22 143.34 123.22 143.34 M 126.24 145.96 C 127 145.38 128.17 144.35 130.18 141.43 M 126.24 145.96 C 127.2 145.2 128.24 143.26 130.18 141.43" fill="none" stroke="rgb(0, 0, 0)" stroke-width="0.5" stroke-linejoin="round" stroke-linecap="round" stroke-miterlimit="10" pointer-events="all"/><path d="M 122.91 143.7 C 126.58 143.49 128.17 140.96 130.33 141.2 M 122.91 143.7 C 124.75 143.67 126.8 141.82 130.33 141.2 M 130.33 141.2 C 128.82 143.07 129.18 143.13 128.11 144.43 M 130.33 141.2 C 129.37 141.71 129.15 142.66 128.11 144.43 M 128.11 144.43 C 129 146.22 129.25 148.05 129.35 148.14 M 128.11 144.43 C 128.86 145.3 128.71 146.22 129.35 148.14 M 129.35 148.14 C 128.64 148.23 125.98 146.69 122.91 143.7 M 129.35 148.14 C 126.68 146.48 123.8 144.95 122.91 143.7" fill="none" stroke="rgb(0, 0, 0)" stroke-linejoin="round" stroke-linecap="round" stroke-miterlimit="10" pointer-events="all"/></g><g><g fill="rgb(0, 0, 0)" font-family="LXGW WenKai" text-anchor="middle" font-size="11px"><rect fill="rgb(255, 255, 255)" stroke="none" x="157" y="146" width="24" height="14" stroke-width="0"/><text x="168.03" y="156.42">响应</text></g></g></g></svg>