<?xml version="1.0" encoding="UTF-8"?>
<!-- Do not edit this file with editors other than draw.io -->
<!DOCTYPE svg PUBLIC "-//W3C//DTD SVG 1.1//EN" "http://www.w3.org/Graphics/SVG/1.1/DTD/svg11.dtd">
<svg xmlns="http://www.w3.org/2000/svg" xmlns:xlink="http://www.w3.org/1999/xlink" version="1.1" width="299px" height="213px" viewBox="-0.5 -0.5 299 213" content="&lt;mxfile host=&quot;app.diagrams.net&quot; modified=&quot;2024-05-29T09:06:12.788Z&quot; agent=&quot;Mozilla/5.0 (Windows NT 10.0; Win64; x64) AppleWebKit/537.36 (KHTML, like Gecko) Chrome/125.0.0.0 Safari/537.36&quot; etag=&quot;WzzqBk3cWK9Vgd6Ivtqz&quot; version=&quot;24.4.9&quot; type=&quot;github&quot;&gt;&#10;  &lt;diagram id=&quot;23iRSUPoRavnBvh4doch&quot; name=&quot;Page-1&quot;&gt;&#10;    &lt;mxGraphModel dx=&quot;1222&quot; dy=&quot;486&quot; grid=&quot;0&quot; gridSize=&quot;10&quot; guides=&quot;1&quot; tooltips=&quot;1&quot; connect=&quot;1&quot; arrows=&quot;1&quot; fold=&quot;1&quot; page=&quot;0&quot; pageScale=&quot;1&quot; pageWidth=&quot;827&quot; pageHeight=&quot;1169&quot; math=&quot;0&quot; shadow=&quot;0&quot;&gt;&#10;      &lt;root&gt;&#10;        &lt;mxCell id=&quot;0&quot; /&gt;&#10;        &lt;mxCell id=&quot;1&quot; parent=&quot;0&quot; /&gt;&#10;        &lt;mxCell id=&quot;PlhUNaWbmzm0HPJQHhij-1&quot; value=&quot;Controller(控制器)&quot; style=&quot;swimlane;sketch=1;hachureGap=4;jiggle=2;curveFitting=1;fontFamily=LXGW WenKai;fontSize=15;strokeColor=#E07A5F;align=center;verticalAlign=middle;fontColor=#393C56;fontStyle=1;fillColor=#F2CC8F;labelBackgroundColor=none;&quot; vertex=&quot;1&quot; parent=&quot;1&quot;&gt;&#10;          &lt;mxGeometry x=&quot;-60&quot; y=&quot;162&quot; width=&quot;297&quot; height=&quot;212&quot; as=&quot;geometry&quot; /&gt;&#10;        &lt;/mxCell&gt;&#10;        &lt;mxCell id=&quot;PlhUNaWbmzm0HPJQHhij-2&quot; value=&quot;Servlet&quot; style=&quot;swimlane;fontStyle=0;childLayout=stackLayout;horizontal=1;startSize=30;horizontalStack=0;resizeParent=1;resizeParentMax=0;resizeLast=0;collapsible=1;marginBottom=0;sketch=1;hachureGap=4;jiggle=2;curveFitting=1;fontFamily=LXGW WenKai;&quot; vertex=&quot;1&quot; parent=&quot;PlhUNaWbmzm0HPJQHhij-1&quot;&gt;&#10;          &lt;mxGeometry x=&quot;71&quot; y=&quot;64&quot; width=&quot;140&quot; height=&quot;120&quot; as=&quot;geometry&quot; /&gt;&#10;        &lt;/mxCell&gt;&#10;        &lt;mxCell id=&quot;PlhUNaWbmzm0HPJQHhij-3&quot; value=&quot;接收请求数据&quot; style=&quot;text;strokeColor=none;fillColor=none;align=left;verticalAlign=middle;spacingLeft=4;spacingRight=4;overflow=hidden;points=[[0,0.5],[1,0.5]];portConstraint=eastwest;rotatable=0;fontFamily=LXGW WenKai;&quot; vertex=&quot;1&quot; parent=&quot;PlhUNaWbmzm0HPJQHhij-2&quot;&gt;&#10;          &lt;mxGeometry y=&quot;30&quot; width=&quot;140&quot; height=&quot;30&quot; as=&quot;geometry&quot; /&gt;&#10;        &lt;/mxCell&gt;&#10;        &lt;mxCell id=&quot;PlhUNaWbmzm0HPJQHhij-4&quot; value=&quot;调度Moel处理业务&quot; style=&quot;text;strokeColor=none;fillColor=none;align=left;verticalAlign=middle;spacingLeft=4;spacingRight=4;overflow=hidden;points=[[0,0.5],[1,0.5]];portConstraint=eastwest;rotatable=0;fontFamily=LXGW WenKai;&quot; vertex=&quot;1&quot; parent=&quot;PlhUNaWbmzm0HPJQHhij-2&quot;&gt;&#10;          &lt;mxGeometry y=&quot;60&quot; width=&quot;140&quot; height=&quot;30&quot; as=&quot;geometry&quot; /&gt;&#10;        &lt;/mxCell&gt;&#10;        &lt;mxCell id=&quot;PlhUNaWbmzm0HPJQHhij-5&quot; value=&quot;调度View做页面展示&quot; style=&quot;text;strokeColor=none;fillColor=none;align=left;verticalAlign=middle;spacingLeft=4;spacingRight=4;overflow=hidden;points=[[0,0.5],[1,0.5]];portConstraint=eastwest;rotatable=0;fontFamily=LXGW WenKai;&quot; vertex=&quot;1&quot; parent=&quot;PlhUNaWbmzm0HPJQHhij-2&quot;&gt;&#10;          &lt;mxGeometry y=&quot;90&quot; width=&quot;140&quot; height=&quot;30&quot; as=&quot;geometry&quot; /&gt;&#10;        &lt;/mxCell&gt;&#10;      &lt;/root&gt;&#10;    &lt;/mxGraphModel&gt;&#10;  &lt;/diagram&gt;&#10;&lt;/mxfile&gt;&#10;" resource="https://app.diagrams.net/#Hluguosong%2Fimages%2Fmaster%2Fdiagrams%2Fjava_serve%2Fweb_application%2Fmvc%2FMVC%E6%9E%B6%E6%9E%84%E6%A8%A1%E5%BC%8F.svg#%7B%22pageId%22%3A%2223iRSUPoRavnBvh4doch%22%7D"><defs><clipPath id="mx-clip-75-94-132-30-0"><rect x="75" y="94" width="132" height="30"/></clipPath><clipPath id="mx-clip-75-124-132-30-0"><rect x="75" y="124" width="132" height="30"/></clipPath><clipPath id="mx-clip-75-154-132-30-0"><rect x="75" y="154" width="132" height="30"/></clipPath></defs><g><g><path d="M 0 23 L 0 0 L 297 0 L 297 23" fill="none" stroke="none" pointer-events="all"/><path d="M 0 0 C 0 0 0 0 0 0 M 0 0 C 0 0 0 0 0 0 M -0.26 6.4 C 1.57 3.21 1.59 2.59 4.99 0.36 M -0.26 6.4 C 1.19 4.39 2.15 3.15 4.99 0.36 M 0.13 12.04 C 6.02 5.88 5.82 0.8 10.63 -0.03 M 0.13 12.04 C 2 8.83 6.23 3.64 10.63 -0.03 M -0.13 18.44 C 0.41 10.71 9.65 10.48 15.62 0.33 M -0.13 18.44 C 5.28 12.44 12.44 6.53 15.62 0.33 M 0.92 23.33 C 10.33 13.9 14.67 6.72 21.26 -0.07 M 0.92 23.33 C 8.52 16.48 13.28 8.43 21.26 -0.07 M 5.91 23.69 C 10.57 16.38 22.25 4.58 26.25 0.29 M 5.91 23.69 C 11.68 16.43 20.15 6.27 26.25 0.29 M 11.55 23.29 C 17.59 14.96 25.58 8.28 31.89 -0.1 M 11.55 23.29 C 16.91 19.44 20.13 12.67 31.89 -0.1 M 16.54 23.65 C 24.29 15.35 32.27 9.52 36.88 0.26 M 16.54 23.65 C 25.28 16.49 29.2 7.96 36.88 0.26 M 22.18 23.26 C 29.18 19.22 33.3 10.09 42.52 -0.14 M 22.18 23.26 C 29.52 18.25 35.23 10.71 42.52 -0.14 M 27.17 23.62 C 31.35 14.83 40.67 10.74 47.51 0.22 M 27.17 23.62 C 31.95 16.73 37.81 12.5 47.51 0.22 M 32.81 23.22 C 40.62 16.34 48.58 9.14 53.15 -0.17 M 32.81 23.22 C 39.62 15.82 44.3 10.41 53.15 -0.17 M 37.8 23.58 C 43.08 14.86 49.3 15.9 58.14 0.19 M 37.8 23.58 C 46.43 14.41 53.17 4.64 58.14 0.19 M 42.79 23.94 C 48.06 17.7 55.46 10.91 63.78 -0.21 M 42.79 23.94 C 46.17 17.34 52.59 11.83 63.78 -0.21 M 48.43 23.55 C 54.16 19.86 63.79 7.92 68.77 0.15 M 48.43 23.55 C 56.18 16.08 64.57 7.24 68.77 0.15 M 53.42 23.91 C 62.75 18.87 65.08 8.33 74.41 -0.24 M 53.42 23.91 C 60.37 14.64 66.86 7.63 74.41 -0.24 M 59.06 23.51 C 68.5 12.62 75.25 5.05 79.4 0.12 M 59.06 23.51 C 65.59 13.54 71.99 5.13 79.4 0.12 M 64.05 23.87 C 73.35 18.77 74.64 6.26 85.04 -0.28 M 64.05 23.87 C 69.69 14.89 75.86 9.57 85.04 -0.28 M 69.69 23.48 C 77.07 17.92 82.31 6.33 90.03 0.08 M 69.69 23.48 C 75 17.07 84.98 8.43 90.03 0.08 M 74.68 23.84 C 84.09 16.06 89.08 9.04 95.67 -0.31 M 74.68 23.84 C 82.32 18.41 86.99 11.2 95.67 -0.31 M 80.32 23.45 C 88.24 20.72 93.36 10.61 100.66 0.05 M 80.32 23.45 C 86.71 16.37 92.69 8.74 100.66 0.05 M 85.31 23.81 C 86.81 15.31 97.53 13.65 106.3 -0.34 M 85.31 23.81 C 92.29 15.35 98.96 6.77 106.3 -0.34 M 90.95 23.41 C 97.59 16.68 104.42 11 111.29 0.02 M 90.95 23.41 C 96.91 15.56 107.72 6.89 111.29 0.02 M 95.94 23.77 C 103.29 18.16 103.29 13.9 116.27 0.38 M 95.94 23.77 C 102.05 18.53 108.08 13.06 116.27 0.38 M 101.58 23.38 C 106.81 15.26 117.93 5.91 121.92 -0.02 M 101.58 23.38 C 105.5 18.11 112.01 13.84 121.92 -0.02 M 106.57 23.74 C 115.85 17.19 122.89 6.31 126.91 0.34 M 106.57 23.74 C 110.91 17.15 118.1 11.06 126.91 0.34 M 112.21 23.34 C 118.79 20.31 121.87 13.14 132.55 -0.05 M 112.21 23.34 C 116.6 14.27 125.49 8.04 132.55 -0.05 M 117.2 23.7 C 123.69 12.91 133.69 3.45 137.54 0.31 M 117.2 23.7 C 122.26 17.19 125.69 14.79 137.54 0.31 M 122.84 23.31 C 132.91 10.84 141.27 6.43 143.18 -0.09 M 122.84 23.31 C 129.95 16.58 137.13 10.39 143.18 -0.09 M 127.83 23.67 C 131.32 13.09 142.9 8.46 148.17 0.27 M 127.83 23.67 C 132.81 15.06 142.74 5.89 148.17 0.27 M 133.47 23.27 C 137.25 15.71 141.9 13.05 153.81 -0.12 M 133.47 23.27 C 140.48 16.25 148.85 5.88 153.81 -0.12 M 138.46 23.63 C 143.5 15.47 154.43 1.38 158.8 0.24 M 138.46 23.63 C 143.83 16.62 151.16 7.56 158.8 0.24 M 144.1 23.24 C 148.8 16.11 163.28 3.38 164.44 -0.16 M 144.1 23.24 C 147.71 16.49 152.67 10.95 164.44 -0.16 M 149.09 23.6 C 158.25 16.95 165.68 2.33 169.43 0.2 M 149.09 23.6 C 155.83 16.18 161.92 8.22 169.43 0.2 M 154.07 23.96 C 162.63 13.17 163.1 7.83 175.07 -0.19 M 154.07 23.96 C 164 16.71 171.52 6.03 175.07 -0.19 M 159.72 23.56 C 167.68 11.62 172.62 7.47 180.06 0.17 M 159.72 23.56 C 165.08 13.71 175.3 4.69 180.06 0.17 M 164.7 23.92 C 172.9 19.13 174.3 4.77 185.7 -0.23 M 164.7 23.92 C 172.43 15.36 175.61 8.97 185.7 -0.23 M 170.35 23.53 C 174.26 17.8 181.93 12.76 190.69 0.13 M 170.35 23.53 C 176.78 16.49 182.12 7.92 190.69 0.13 M 175.33 23.89 C 181.27 18.38 185.98 13.71 196.33 -0.26 M 175.33 23.89 C 182.3 13.58 192.26 6.61 196.33 -0.26 M 180.98 23.5 C 183.68 20.41 187.9 12.36 201.32 0.1 M 180.98 23.5 C 187.02 19.95 189.69 11.07 201.32 0.1 M 185.96 23.86 C 192.46 14.86 198.86 7.91 206.96 -0.3 M 185.96 23.86 C 191.61 12.91 202.21 7.7 206.96 -0.3 M 191.61 23.46 C 199.7 15.06 207.28 2.63 211.95 0.06 M 191.61 23.46 C 197.87 12.66 209.11 5.9 211.95 0.06 M 196.59 23.82 C 203.79 19.25 202.05 13.41 217.59 -0.33 M 196.59 23.82 C 205.74 15.05 211.72 5.55 217.59 -0.33 M 202.24 23.43 C 209.44 14.12 216.44 5.65 222.58 0.03 M 202.24 23.43 C 209.09 14.95 214.47 8.71 222.58 0.03 M 207.23 23.79 C 214.7 17.61 219.97 11.85 228.22 -0.36 M 207.23 23.79 C 214.67 17.01 220.95 8.46 228.22 -0.36 M 212.87 23.39 C 216.11 20.87 224.31 16.57 233.21 0 M 212.87 23.39 C 216.71 14.85 226.02 7.59 233.21 0 M 217.86 23.75 C 222.75 14.12 226.53 14.07 238.19 0.36 M 217.86 23.75 C 222.43 16.17 229.82 10.51 238.19 0.36 M 223.5 23.36 C 228.34 17.3 241.74 4.17 243.84 -0.04 M 223.5 23.36 C 226.31 17.98 231.06 15.65 243.84 -0.04 M 228.49 23.72 C 233.88 17.99 237.46 9.19 248.82 0.32 M 228.49 23.72 C 234.19 17.46 237.43 11.62 248.82 0.32 M 234.13 23.32 C 241.77 13.17 250.65 7.28 254.47 -0.07 M 234.13 23.32 C 239.58 15.85 246.77 9.32 254.47 -0.07 M 239.12 23.68 C 240.38 21.77 250.46 14.62 259.45 0.29 M 239.12 23.68 C 248.72 13.86 253.6 6.47 259.45 0.29 M 244.76 23.29 C 252.4 14.09 261.96 6.06 265.1 -0.11 M 244.76 23.29 C 251.12 15.98 260.69 4.52 265.1 -0.11 M 249.75 23.65 C 261.18 16.65 266.59 4.39 270.08 0.25 M 249.75 23.65 C 252.63 17.14 257.59 12.47 270.08 0.25 M 255.39 23.25 C 265.3 12.11 267.95 3.4 275.73 -0.14 M 255.39 23.25 C 263.23 15.52 265.7 9.55 275.73 -0.14 M 260.38 23.61 C 271.12 11.94 274.93 4.95 280.71 0.22 M 260.38 23.61 C 263.66 18.17 269.77 13.47 280.71 0.22 M 265.36 23.97 C 270.54 16.81 278.51 2.97 286.36 -0.18 M 265.36 23.97 C 270.89 19.87 277.26 13.52 286.36 -0.18 M 271.01 23.58 C 275.56 19.17 283.68 6.47 291.34 0.18 M 271.01 23.58 C 276.36 14.84 284.72 8.5 291.34 0.18 M 275.99 23.94 C 283.34 18.23 284.17 10.1 296.99 -0.21 M 275.99 23.94 C 285.46 16.63 292.43 6.98 296.99 -0.21 M 281.64 23.54 C 290.28 14.56 294.01 5.49 297.38 5.43 M 281.64 23.54 C 288.51 15.89 292.11 8.23 297.38 5.43 M 286.62 23.91 C 290.88 20.77 297.06 16.85 297.78 11.08 M 286.62 23.91 C 290.27 20.43 294.61 15.23 297.78 11.08 M 292.27 23.51 C 294.24 21.82 294.88 21.65 297.51 17.47 M 292.27 23.51 C 293.65 22.86 294.69 20.21 297.51 17.47" fill="none" stroke="#f2cc8f" stroke-width="0.5" stroke-linejoin="round" stroke-linecap="round" stroke-miterlimit="10" pointer-events="all"/><path d="M 0 23 C -1.3 14.21 3.09 6.82 0 0 M 0 23 C -0.96 18.32 0.71 14.55 0 0 M 0 0 C 72.45 -1.33 139.73 0.57 297 0 M 0 0 C 60.67 -4.17 124.75 -4.04 297 0 M 297 0 C 295.09 6.92 299.74 15.3 297 23 M 297 0 C 297.45 9.59 296.49 17.23 297 23" fill="none" stroke="#e07a5f" stroke-linejoin="round" stroke-linecap="round" stroke-miterlimit="10" pointer-events="all"/><path d="M 0 23 C -4.3 72.42 0.09 123.23 0 212 M 0 23 C -2.58 63.12 -0.91 104.15 0 212 M 0 212 C 72.45 210.67 139.73 212.57 297 212 M 0 212 C 60.67 207.83 124.75 207.96 297 212 M 297 212 C 292.32 160.49 296.97 110.44 297 23 M 297 212 C 293.61 137.83 292.65 61.7 297 23" fill="none" stroke="#e07a5f" stroke-linejoin="round" stroke-linecap="round" stroke-miterlimit="10" pointer-events="none"/><path d="M 0 23 C 80.35 18.12 165.13 17.33 297 23 M 0 23 C 61.92 21.95 125.92 22.75 297 23" fill="none" stroke="#e07a5f" stroke-linejoin="round" stroke-linecap="round" stroke-miterlimit="10" pointer-events="none"/></g><g><g fill="#393C56" font-family="LXGW WenKai" font-weight="bold" text-anchor="middle" font-size="15px"><text x="148" y="17.5">Controller(控制器)</text></g></g><g><path d="M 71 94 L 71 64 L 211 64 L 211 94" fill="none" stroke="none" pointer-events="all"/><path d="M 71 94 C 70.4 88.7 71.74 77.26 71 64 C 111.65 72.49 151.2 68.75 211 64 C 206.6 68.49 213.32 77.72 211 94" fill="rgb(255, 255, 255)" stroke="none" pointer-events="all"/><path d="M 71 94 C 67.41 89.22 69.45 80.3 71 64 M 71 94 C 72.41 86.11 69.23 77.14 71 64 M 71 64 C 110.85 67.99 150.16 67.9 211 64 M 71 64 C 125.35 64.26 179.64 68 211 64 M 211 64 C 207.9 73.96 208.5 78.11 211 94 M 211 64 C 209.64 71.86 210.73 79.27 211 94" fill="none" stroke="rgb(0, 0, 0)" stroke-linejoin="round" stroke-linecap="round" stroke-miterlimit="10" pointer-events="all"/><path d="M 71 94 C 66.12 122.17 68.16 146.2 71 184 M 71 94 C 71.81 120.11 68.63 145.13 71 184 M 71 184 C 110.85 187.99 150.16 187.9 211 184 M 71 184 C 125.35 184.26 179.64 188 211 184 M 211 184 C 206.59 165.5 207.18 141.2 211 94 M 211 184 C 209.15 163.54 210.24 142.63 211 94" fill="none" stroke="rgb(0, 0, 0)" stroke-linejoin="round" stroke-linecap="round" stroke-miterlimit="10" pointer-events="none"/><path d="M 71 94 C 105.53 97.74 146.01 97.06 211 94 M 71 94 C 111.92 92.16 148.41 91.69 211 94" fill="none" stroke="rgb(0, 0, 0)" stroke-linejoin="round" stroke-linecap="round" stroke-miterlimit="10" pointer-events="none"/></g><g><g fill="rgb(0, 0, 0)" font-family="LXGW WenKai" text-anchor="middle" font-size="12px"><text x="140.5" y="83.5">Servlet</text></g></g><g><rect x="71" y="94" width="140" height="30" fill="none" stroke="none" pointer-events="all"/></g><g><g fill="rgb(0, 0, 0)" font-family="LXGW WenKai" clip-path="url(#mx-clip-75-94-132-30-0)" font-size="12px"><text x="76.5" y="113.5">接收请求数据</text></g></g><g><rect x="71" y="124" width="140" height="30" fill="none" stroke="none" pointer-events="all"/></g><g><g fill="rgb(0, 0, 0)" font-family="LXGW WenKai" clip-path="url(#mx-clip-75-124-132-30-0)" font-size="12px"><text x="76.5" y="143.5">调度Moel处理业务</text></g></g><g><rect x="71" y="154" width="140" height="30" fill="none" stroke="none" pointer-events="all"/></g><g><g fill="rgb(0, 0, 0)" font-family="LXGW WenKai" clip-path="url(#mx-clip-75-154-132-30-0)" font-size="12px"><text x="76.5" y="173.5">调度View做页面展示</text></g></g></g></svg>