<?xml version="1.0" encoding="UTF-8"?>
<!-- Do not edit this file with editors other than draw.io -->
<!DOCTYPE svg PUBLIC "-//W3C//DTD SVG 1.1//EN" "http://www.w3.org/Graphics/SVG/1.1/DTD/svg11.dtd">
<svg xmlns="http://www.w3.org/2000/svg" xmlns:xlink="http://www.w3.org/1999/xlink" version="1.1" width="1266px" height="1404px" viewBox="-0.5 -0.5 1266 1404" content="&lt;mxfile host=&quot;app.diagrams.net&quot; agent=&quot;Mozilla/5.0 (Windows NT 10.0; Win64; x64) AppleWebKit/537.36 (KHTML, like Gecko) Chrome/128.0.0.0 Safari/537.36&quot; version=&quot;24.7.8&quot;&gt;&#10;  &lt;diagram id=&quot;23iRSUPoRavnBvh4doch&quot; name=&quot;Page-1&quot;&gt;&#10;    &lt;mxGraphModel dx=&quot;2032&quot; dy=&quot;1097&quot; grid=&quot;0&quot; gridSize=&quot;10&quot; guides=&quot;1&quot; tooltips=&quot;1&quot; connect=&quot;1&quot; arrows=&quot;1&quot; fold=&quot;1&quot; page=&quot;0&quot; pageScale=&quot;1&quot; pageWidth=&quot;827&quot; pageHeight=&quot;1169&quot; background=&quot;#ffffff&quot; math=&quot;0&quot; shadow=&quot;0&quot;&gt;&#10;      &lt;root&gt;&#10;        &lt;mxCell id=&quot;0&quot; /&gt;&#10;        &lt;mxCell id=&quot;1&quot; parent=&quot;0&quot; /&gt;&#10;        &lt;mxCell id=&quot;gyem3hlseezmw4Tj-qo7-34&quot; value=&quot;Spring MVC执行流程&quot; style=&quot;swimlane;sketch=1;hachureGap=4;jiggle=2;curveFitting=1;fontFamily=LXGW WenKai;fontSize=15;strokeColor=#E07A5F;align=center;verticalAlign=middle;fontColor=#393C56;fontStyle=1;fillColor=#F2CC8F;labelBackgroundColor=none;startSize=23;&quot; parent=&quot;1&quot; vertex=&quot;1&quot;&gt;&#10;          &lt;mxGeometry x=&quot;-502&quot; y=&quot;362&quot; width=&quot;1087&quot; height=&quot;608&quot; as=&quot;geometry&quot; /&gt;&#10;        &lt;/mxCell&gt;&#10;        &lt;mxCell id=&quot;gyem3hlseezmw4Tj-qo7-24&quot; value=&quot;springmvc-servlet.xml&quot; style=&quot;fontFamily=LXGW WenKai;sketch=1;curveFitting=1;jiggle=2;&quot; parent=&quot;gyem3hlseezmw4Tj-qo7-34&quot; vertex=&quot;1&quot;&gt;&#10;          &lt;mxGeometry x=&quot;625&quot; y=&quot;269&quot; width=&quot;165&quot; height=&quot;50&quot; as=&quot;geometry&quot; /&gt;&#10;        &lt;/mxCell&gt;&#10;        &lt;mxCell id=&quot;gyem3hlseezmw4Tj-qo7-26&quot; value=&quot;hello.thymeleaf&quot; style=&quot;shape=mxgraph.basic.document;fontFamily=LXGW WenKai;sketch=1;curveFitting=1;jiggle=2;&quot; parent=&quot;gyem3hlseezmw4Tj-qo7-34&quot; vertex=&quot;1&quot;&gt;&#10;          &lt;mxGeometry x=&quot;306&quot; y=&quot;489&quot; width=&quot;163&quot; height=&quot;100&quot; as=&quot;geometry&quot; /&gt;&#10;        &lt;/mxCell&gt;&#10;        &lt;mxCell id=&quot;gyem3hlseezmw4Tj-qo7-18&quot; value=&quot;HelloController&quot; style=&quot;swimlane;fontStyle=1;align=center;verticalAlign=top;childLayout=stackLayout;horizontal=1;startSize=26;horizontalStack=0;resizeParent=1;resizeParentMax=0;resizeLast=0;collapsible=1;marginBottom=0;fontFamily=LXGW WenKai;sketch=1;curveFitting=1;jiggle=2;&quot; parent=&quot;gyem3hlseezmw4Tj-qo7-34&quot; vertex=&quot;1&quot;&gt;&#10;          &lt;mxGeometry x=&quot;903&quot; y=&quot;109&quot; width=&quot;160&quot; height=&quot;86&quot; as=&quot;geometry&quot; /&gt;&#10;        &lt;/mxCell&gt;&#10;        &lt;mxCell id=&quot;gyem3hlseezmw4Tj-qo7-19&quot; value=&quot;+ ...&quot; style=&quot;text;strokeColor=none;fillColor=none;align=left;verticalAlign=top;spacingLeft=4;spacingRight=4;overflow=hidden;rotatable=0;points=[[0,0.5],[1,0.5]];portConstraint=eastwest;fontFamily=LXGW WenKai;sketch=1;curveFitting=1;jiggle=2;&quot; parent=&quot;gyem3hlseezmw4Tj-qo7-18&quot; vertex=&quot;1&quot;&gt;&#10;          &lt;mxGeometry y=&quot;26&quot; width=&quot;160&quot; height=&quot;26&quot; as=&quot;geometry&quot; /&gt;&#10;        &lt;/mxCell&gt;&#10;        &lt;mxCell id=&quot;gyem3hlseezmw4Tj-qo7-20&quot; value=&quot;&quot; style=&quot;line;strokeWidth=1;fillColor=none;align=left;verticalAlign=middle;spacingTop=-1;spacingLeft=3;spacingRight=3;rotatable=0;labelPosition=right;points=[];portConstraint=eastwest;strokeColor=inherit;fontFamily=LXGW WenKai;sketch=1;curveFitting=1;jiggle=2;&quot; parent=&quot;gyem3hlseezmw4Tj-qo7-18&quot; vertex=&quot;1&quot;&gt;&#10;          &lt;mxGeometry y=&quot;52&quot; width=&quot;160&quot; height=&quot;8&quot; as=&quot;geometry&quot; /&gt;&#10;        &lt;/mxCell&gt;&#10;        &lt;mxCell id=&quot;gyem3hlseezmw4Tj-qo7-21&quot; value=&quot;+ ...&quot; style=&quot;text;strokeColor=none;fillColor=none;align=left;verticalAlign=top;spacingLeft=4;spacingRight=4;overflow=hidden;rotatable=0;points=[[0,0.5],[1,0.5]];portConstraint=eastwest;fontFamily=LXGW WenKai;sketch=1;curveFitting=1;jiggle=2;&quot; parent=&quot;gyem3hlseezmw4Tj-qo7-18&quot; vertex=&quot;1&quot;&gt;&#10;          &lt;mxGeometry y=&quot;60&quot; width=&quot;160&quot; height=&quot;26&quot; as=&quot;geometry&quot; /&gt;&#10;        &lt;/mxCell&gt;&#10;        &lt;mxCell id=&quot;gyem3hlseezmw4Tj-qo7-32&quot; value=&quot;Controller返回逻辑视图名称&quot; style=&quot;text;align=center;verticalAlign=middle;resizable=0;points=[];autosize=1;strokeColor=none;fillColor=none;fontFamily=LXGW WenKai;sketch=1;curveFitting=1;jiggle=2;&quot; parent=&quot;gyem3hlseezmw4Tj-qo7-34&quot; vertex=&quot;1&quot;&gt;&#10;          &lt;mxGeometry x=&quot;893&quot; y=&quot;81&quot; width=&quot;170&quot; height=&quot;26&quot; as=&quot;geometry&quot; /&gt;&#10;        &lt;/mxCell&gt;&#10;        &lt;mxCell id=&quot;NdV2gGG-6irBUMOK67j7-8&quot; value=&quot;视图&quot; style=&quot;text;align=center;verticalAlign=middle;resizable=0;points=[];autosize=1;strokeColor=none;fillColor=none;fontFamily=LXGW WenKai;&quot; parent=&quot;gyem3hlseezmw4Tj-qo7-34&quot; vertex=&quot;1&quot;&gt;&#10;          &lt;mxGeometry x=&quot;362&quot; y=&quot;461&quot; width=&quot;42&quot; height=&quot;26&quot; as=&quot;geometry&quot; /&gt;&#10;        &lt;/mxCell&gt;&#10;        &lt;mxCell id=&quot;NdV2gGG-6irBUMOK67j7-9&quot; value=&quot;spring mvc配置文件&quot; style=&quot;text;align=center;verticalAlign=middle;resizable=0;points=[];autosize=1;strokeColor=none;fillColor=none;fontFamily=LXGW WenKai;&quot; parent=&quot;gyem3hlseezmw4Tj-qo7-34&quot; vertex=&quot;1&quot;&gt;&#10;          &lt;mxGeometry x=&quot;643.5&quot; y=&quot;243&quot; width=&quot;128&quot; height=&quot;26&quot; as=&quot;geometry&quot; /&gt;&#10;        &lt;/mxCell&gt;&#10;        &lt;mxCell id=&quot;FLEe0FHFtyAksvvl3Y7G-5&quot; style=&quot;edgeStyle=orthogonalEdgeStyle;curved=1;rounded=0;orthogonalLoop=1;jettySize=auto;exitX=1;exitY=0.25;exitDx=0;exitDy=0;entryX=0.681;entryY=1.038;entryDx=0;entryDy=0;entryPerimeter=0;&quot; parent=&quot;gyem3hlseezmw4Tj-qo7-34&quot; source=&quot;gyem3hlseezmw4Tj-qo7-24&quot; target=&quot;gyem3hlseezmw4Tj-qo7-21&quot; edge=&quot;1&quot;&gt;&#10;          &lt;mxGeometry relative=&quot;1&quot; as=&quot;geometry&quot; /&gt;&#10;        &lt;/mxCell&gt;&#10;        &lt;mxCell id=&quot;FLEe0FHFtyAksvvl3Y7G-13&quot; value=&quot;4.通过配置文件中配置的组件扫描，&amp;#xa;找到对应Controller&quot; style=&quot;edgeLabel;align=center;verticalAlign=middle;resizable=0;points=[];&quot; parent=&quot;FLEe0FHFtyAksvvl3Y7G-5&quot; vertex=&quot;1&quot; connectable=&quot;0&quot;&gt;&#10;          &lt;mxGeometry x=&quot;-0.226&quot; y=&quot;10&quot; relative=&quot;1&quot; as=&quot;geometry&quot;&gt;&#10;            &lt;mxPoint x=&quot;16&quot; y=&quot;1&quot; as=&quot;offset&quot; /&gt;&#10;          &lt;/mxGeometry&gt;&#10;        &lt;/mxCell&gt;&#10;        &lt;mxCell id=&quot;FLEe0FHFtyAksvvl3Y7G-8&quot; style=&quot;edgeStyle=orthogonalEdgeStyle;curved=1;rounded=0;orthogonalLoop=1;jettySize=auto;exitX=0.5;exitY=1;exitDx=0;exitDy=0;entryX=1.006;entryY=0.58;entryDx=0;entryDy=0;entryPerimeter=0;&quot; parent=&quot;gyem3hlseezmw4Tj-qo7-34&quot; source=&quot;gyem3hlseezmw4Tj-qo7-24&quot; target=&quot;gyem3hlseezmw4Tj-qo7-26&quot; edge=&quot;1&quot;&gt;&#10;          &lt;mxGeometry relative=&quot;1&quot; as=&quot;geometry&quot; /&gt;&#10;        &lt;/mxCell&gt;&#10;        &lt;mxCell id=&quot;FLEe0FHFtyAksvvl3Y7G-16&quot; value=&quot;7.根据视图解析器配置，&amp;#xa;找到对应视图&quot; style=&quot;edgeLabel;align=center;verticalAlign=middle;resizable=0;points=[];&quot; parent=&quot;FLEe0FHFtyAksvvl3Y7G-8&quot; vertex=&quot;1&quot; connectable=&quot;0&quot;&gt;&#10;          &lt;mxGeometry x=&quot;-0.4114&quot; y=&quot;-32&quot; relative=&quot;1&quot; as=&quot;geometry&quot;&gt;&#10;            &lt;mxPoint as=&quot;offset&quot; /&gt;&#10;          &lt;/mxGeometry&gt;&#10;        &lt;/mxCell&gt;&#10;        &lt;mxCell id=&quot;gyem3hlseezmw4Tj-qo7-15&quot; style=&quot;edgeStyle=orthogonalEdgeStyle;curved=1;rounded=0;orthogonalLoop=1;jettySize=auto;exitX=1;exitY=0.5;exitDx=0;exitDy=0;exitPerimeter=0;entryX=0;entryY=0.5;entryDx=0;entryDy=0;fontFamily=LXGW WenKai;sketch=1;curveFitting=1;jiggle=2;&quot; parent=&quot;1&quot; source=&quot;wa0JLTWsgckLO4hLmPQc-1&quot; target=&quot;gyem3hlseezmw4Tj-qo7-8&quot; edge=&quot;1&quot;&gt;&#10;          &lt;mxGeometry relative=&quot;1&quot; as=&quot;geometry&quot; /&gt;&#10;        &lt;/mxCell&gt;&#10;        &lt;mxCell id=&quot;FLEe0FHFtyAksvvl3Y7G-10&quot; value=&quot;1&quot; style=&quot;edgeLabel;align=center;verticalAlign=middle;resizable=0;points=[];&quot; parent=&quot;gyem3hlseezmw4Tj-qo7-15&quot; vertex=&quot;1&quot; connectable=&quot;0&quot;&gt;&#10;          &lt;mxGeometry x=&quot;-0.1237&quot; y=&quot;2&quot; relative=&quot;1&quot; as=&quot;geometry&quot;&gt;&#10;            &lt;mxPoint y=&quot;1&quot; as=&quot;offset&quot; /&gt;&#10;          &lt;/mxGeometry&gt;&#10;        &lt;/mxCell&gt;&#10;        &lt;mxCell id=&quot;wa0JLTWsgckLO4hLmPQc-1&quot; value=&quot;客户端&quot; style=&quot;fontColor=#0066CC;verticalAlign=top;verticalLabelPosition=bottom;labelPosition=center;align=center;outlineConnect=0;fillColor=#CCCCCC;strokeColor=#6881B3;gradientColor=none;gradientDirection=north;strokeWidth=2;shape=mxgraph.networks.monitor;sketch=1;hachureGap=4;jiggle=2;curveFitting=1;fontFamily=LXGW WenKai;&quot; parent=&quot;1&quot; vertex=&quot;1&quot;&gt;&#10;          &lt;mxGeometry x=&quot;-485&quot; y=&quot;537&quot; width=&quot;80&quot; height=&quot;65&quot; as=&quot;geometry&quot; /&gt;&#10;        &lt;/mxCell&gt;&#10;        &lt;mxCell id=&quot;gyem3hlseezmw4Tj-qo7-16&quot; style=&quot;edgeStyle=orthogonalEdgeStyle;curved=1;rounded=0;orthogonalLoop=1;jettySize=auto;exitX=0.75;exitY=1;exitDx=0;exitDy=0;entryX=0;entryY=0.5;entryDx=0;entryDy=0;fontFamily=LXGW WenKai;sketch=1;curveFitting=1;jiggle=2;&quot; parent=&quot;1&quot; source=&quot;gyem3hlseezmw4Tj-qo7-8&quot; target=&quot;gyem3hlseezmw4Tj-qo7-10&quot; edge=&quot;1&quot;&gt;&#10;          &lt;mxGeometry relative=&quot;1&quot; as=&quot;geometry&quot; /&gt;&#10;        &lt;/mxCell&gt;&#10;        &lt;mxCell id=&quot;FLEe0FHFtyAksvvl3Y7G-11&quot; value=&quot;2&quot; style=&quot;edgeLabel;align=center;verticalAlign=middle;resizable=0;points=[];&quot; parent=&quot;gyem3hlseezmw4Tj-qo7-16&quot; vertex=&quot;1&quot; connectable=&quot;0&quot;&gt;&#10;          &lt;mxGeometry x=&quot;-0.4177&quot; y=&quot;4&quot; relative=&quot;1&quot; as=&quot;geometry&quot;&gt;&#10;            &lt;mxPoint as=&quot;offset&quot; /&gt;&#10;          &lt;/mxGeometry&gt;&#10;        &lt;/mxCell&gt;&#10;        &lt;mxCell id=&quot;gyem3hlseezmw4Tj-qo7-8&quot; value=&quot;web.xml&quot; style=&quot;fontFamily=LXGW WenKai;sketch=1;curveFitting=1;jiggle=2;&quot; parent=&quot;1&quot; vertex=&quot;1&quot;&gt;&#10;          &lt;mxGeometry x=&quot;-345&quot; y=&quot;455&quot; width=&quot;110&quot; height=&quot;50&quot; as=&quot;geometry&quot; /&gt;&#10;        &lt;/mxCell&gt;&#10;        &lt;mxCell id=&quot;FLEe0FHFtyAksvvl3Y7G-4&quot; style=&quot;edgeStyle=orthogonalEdgeStyle;curved=1;rounded=0;orthogonalLoop=1;jettySize=auto;exitX=1;exitY=0.25;exitDx=0;exitDy=0;entryX=0;entryY=0.25;entryDx=0;entryDy=0;&quot; parent=&quot;1&quot; source=&quot;gyem3hlseezmw4Tj-qo7-9&quot; target=&quot;gyem3hlseezmw4Tj-qo7-24&quot; edge=&quot;1&quot;&gt;&#10;          &lt;mxGeometry relative=&quot;1&quot; as=&quot;geometry&quot; /&gt;&#10;        &lt;/mxCell&gt;&#10;        &lt;mxCell id=&quot;FLEe0FHFtyAksvvl3Y7G-12&quot; value=&quot;3&quot; style=&quot;edgeLabel;align=center;verticalAlign=middle;resizable=0;points=[];&quot; parent=&quot;FLEe0FHFtyAksvvl3Y7G-4&quot; vertex=&quot;1&quot; connectable=&quot;0&quot;&gt;&#10;          &lt;mxGeometry x=&quot;-0.1512&quot; y=&quot;-4&quot; relative=&quot;1&quot; as=&quot;geometry&quot;&gt;&#10;            &lt;mxPoint y=&quot;1&quot; as=&quot;offset&quot; /&gt;&#10;          &lt;/mxGeometry&gt;&#10;        &lt;/mxCell&gt;&#10;        &lt;mxCell id=&quot;gyem3hlseezmw4Tj-qo7-9&quot; value=&quot;DispatcherServlet&quot; style=&quot;swimlane;fontStyle=1;align=center;verticalAlign=top;childLayout=stackLayout;horizontal=1;startSize=26;horizontalStack=0;resizeParent=1;resizeParentMax=0;resizeLast=0;collapsible=1;marginBottom=0;fontFamily=LXGW WenKai;sketch=1;curveFitting=1;jiggle=2;&quot; parent=&quot;1&quot; vertex=&quot;1&quot;&gt;&#10;          &lt;mxGeometry x=&quot;-195&quot; y=&quot;608&quot; width=&quot;160&quot; height=&quot;86&quot; as=&quot;geometry&quot; /&gt;&#10;        &lt;/mxCell&gt;&#10;        &lt;mxCell id=&quot;gyem3hlseezmw4Tj-qo7-10&quot; value=&quot;+ ...&quot; style=&quot;text;strokeColor=none;fillColor=none;align=left;verticalAlign=top;spacingLeft=4;spacingRight=4;overflow=hidden;rotatable=0;points=[[0,0.5],[1,0.5]];portConstraint=eastwest;fontFamily=LXGW WenKai;sketch=1;curveFitting=1;jiggle=2;&quot; parent=&quot;gyem3hlseezmw4Tj-qo7-9&quot; vertex=&quot;1&quot;&gt;&#10;          &lt;mxGeometry y=&quot;26&quot; width=&quot;160&quot; height=&quot;26&quot; as=&quot;geometry&quot; /&gt;&#10;        &lt;/mxCell&gt;&#10;        &lt;mxCell id=&quot;gyem3hlseezmw4Tj-qo7-11&quot; value=&quot;&quot; style=&quot;line;strokeWidth=1;fillColor=none;align=left;verticalAlign=middle;spacingTop=-1;spacingLeft=3;spacingRight=3;rotatable=0;labelPosition=right;points=[];portConstraint=eastwest;strokeColor=inherit;fontFamily=LXGW WenKai;sketch=1;curveFitting=1;jiggle=2;&quot; parent=&quot;gyem3hlseezmw4Tj-qo7-9&quot; vertex=&quot;1&quot;&gt;&#10;          &lt;mxGeometry y=&quot;52&quot; width=&quot;160&quot; height=&quot;8&quot; as=&quot;geometry&quot; /&gt;&#10;        &lt;/mxCell&gt;&#10;        &lt;mxCell id=&quot;gyem3hlseezmw4Tj-qo7-12&quot; value=&quot;+ ...&quot; style=&quot;text;strokeColor=none;fillColor=none;align=left;verticalAlign=top;spacingLeft=4;spacingRight=4;overflow=hidden;rotatable=0;points=[[0,0.5],[1,0.5]];portConstraint=eastwest;fontFamily=LXGW WenKai;sketch=1;curveFitting=1;jiggle=2;&quot; parent=&quot;gyem3hlseezmw4Tj-qo7-9&quot; vertex=&quot;1&quot;&gt;&#10;          &lt;mxGeometry y=&quot;60&quot; width=&quot;160&quot; height=&quot;26&quot; as=&quot;geometry&quot; /&gt;&#10;        &lt;/mxCell&gt;&#10;        &lt;mxCell id=&quot;gyem3hlseezmw4Tj-qo7-30&quot; value=&quot;web.xml中url-pattern配置的是 /&amp;#xa;因此所有请求都先经过DispatcherServlet&quot; style=&quot;text;align=center;verticalAlign=middle;resizable=0;points=[];autosize=1;strokeColor=none;fillColor=none;fontFamily=LXGW WenKai;sketch=1;curveFitting=1;jiggle=2;&quot; parent=&quot;1&quot; vertex=&quot;1&quot;&gt;&#10;          &lt;mxGeometry x=&quot;-402&quot; y=&quot;410&quot; width=&quot;238&quot; height=&quot;41&quot; as=&quot;geometry&quot; /&gt;&#10;        &lt;/mxCell&gt;&#10;        &lt;mxCell id=&quot;FLEe0FHFtyAksvvl3Y7G-6&quot; style=&quot;edgeStyle=orthogonalEdgeStyle;curved=1;rounded=0;orthogonalLoop=1;jettySize=auto;exitX=0;exitY=0.25;exitDx=0;exitDy=0;entryX=0.5;entryY=0;entryDx=0;entryDy=0;&quot; parent=&quot;1&quot; source=&quot;gyem3hlseezmw4Tj-qo7-18&quot; target=&quot;gyem3hlseezmw4Tj-qo7-9&quot; edge=&quot;1&quot;&gt;&#10;          &lt;mxGeometry relative=&quot;1&quot; as=&quot;geometry&quot; /&gt;&#10;        &lt;/mxCell&gt;&#10;        &lt;mxCell id=&quot;FLEe0FHFtyAksvvl3Y7G-14&quot; value=&quot;5&quot; style=&quot;edgeLabel;align=center;verticalAlign=middle;resizable=0;points=[];&quot; parent=&quot;FLEe0FHFtyAksvvl3Y7G-6&quot; vertex=&quot;1&quot; connectable=&quot;0&quot;&gt;&#10;          &lt;mxGeometry x=&quot;-0.1987&quot; y=&quot;11&quot; relative=&quot;1&quot; as=&quot;geometry&quot;&gt;&#10;            &lt;mxPoint as=&quot;offset&quot; /&gt;&#10;          &lt;/mxGeometry&gt;&#10;        &lt;/mxCell&gt;&#10;        &lt;mxCell id=&quot;FLEe0FHFtyAksvvl3Y7G-7&quot; style=&quot;edgeStyle=orthogonalEdgeStyle;curved=1;rounded=0;orthogonalLoop=1;jettySize=auto;exitX=1;exitY=0.5;exitDx=0;exitDy=0;entryX=0;entryY=0.75;entryDx=0;entryDy=0;&quot; parent=&quot;1&quot; source=&quot;gyem3hlseezmw4Tj-qo7-12&quot; target=&quot;gyem3hlseezmw4Tj-qo7-24&quot; edge=&quot;1&quot;&gt;&#10;          &lt;mxGeometry relative=&quot;1&quot; as=&quot;geometry&quot; /&gt;&#10;        &lt;/mxCell&gt;&#10;        &lt;mxCell id=&quot;FLEe0FHFtyAksvvl3Y7G-15&quot; value=&quot;6&quot; style=&quot;edgeLabel;align=center;verticalAlign=middle;resizable=0;points=[];&quot; parent=&quot;FLEe0FHFtyAksvvl3Y7G-7&quot; vertex=&quot;1&quot; connectable=&quot;0&quot;&gt;&#10;          &lt;mxGeometry x=&quot;-0.2962&quot; relative=&quot;1&quot; as=&quot;geometry&quot;&gt;&#10;            &lt;mxPoint as=&quot;offset&quot; /&gt;&#10;          &lt;/mxGeometry&gt;&#10;        &lt;/mxCell&gt;&#10;        &lt;mxCell id=&quot;FLEe0FHFtyAksvvl3Y7G-9&quot; style=&quot;edgeStyle=orthogonalEdgeStyle;curved=1;rounded=0;orthogonalLoop=1;jettySize=auto;exitX=0;exitY=0.5;exitDx=0;exitDy=0;exitPerimeter=0;&quot; parent=&quot;1&quot; source=&quot;gyem3hlseezmw4Tj-qo7-26&quot; target=&quot;wa0JLTWsgckLO4hLmPQc-1&quot; edge=&quot;1&quot;&gt;&#10;          &lt;mxGeometry relative=&quot;1&quot; as=&quot;geometry&quot; /&gt;&#10;        &lt;/mxCell&gt;&#10;        &lt;mxCell id=&quot;FLEe0FHFtyAksvvl3Y7G-19&quot; value=&quot;8&quot; style=&quot;edgeLabel;align=center;verticalAlign=middle;resizable=0;points=[];&quot; parent=&quot;FLEe0FHFtyAksvvl3Y7G-9&quot; vertex=&quot;1&quot; connectable=&quot;0&quot;&gt;&#10;          &lt;mxGeometry x=&quot;0.4453&quot; y=&quot;-23&quot; relative=&quot;1&quot; as=&quot;geometry&quot;&gt;&#10;            &lt;mxPoint as=&quot;offset&quot; /&gt;&#10;          &lt;/mxGeometry&gt;&#10;        &lt;/mxCell&gt;&#10;        &lt;mxCell id=&quot;JoW8kbm1Y7qwJiORCMFz-1&quot; value=&quot;DispatcherServlet&amp;#xa;（前端控制器）&quot; style=&quot;swimlane;fontStyle=1;align=center;verticalAlign=top;childLayout=stackLayout;horizontal=1;startSize=39;horizontalStack=0;resizeParent=1;resizeParentMax=0;resizeLast=0;collapsible=1;marginBottom=0;&quot; parent=&quot;1&quot; vertex=&quot;1&quot;&gt;&#10;          &lt;mxGeometry x=&quot;-341&quot; y=&quot;1628&quot; width=&quot;160&quot; height=&quot;93&quot; as=&quot;geometry&quot; /&gt;&#10;        &lt;/mxCell&gt;&#10;        &lt;mxCell id=&quot;JoW8kbm1Y7qwJiORCMFz-2&quot; value=&quot;+ ...&quot; style=&quot;text;strokeColor=none;fillColor=none;align=left;verticalAlign=top;spacingLeft=4;spacingRight=4;overflow=hidden;rotatable=0;points=[[0,0.5],[1,0.5]];portConstraint=eastwest;&quot; parent=&quot;JoW8kbm1Y7qwJiORCMFz-1&quot; vertex=&quot;1&quot;&gt;&#10;          &lt;mxGeometry y=&quot;39&quot; width=&quot;160&quot; height=&quot;20&quot; as=&quot;geometry&quot; /&gt;&#10;        &lt;/mxCell&gt;&#10;        &lt;mxCell id=&quot;JoW8kbm1Y7qwJiORCMFz-3&quot; value=&quot;&quot; style=&quot;line;strokeWidth=1;fillColor=none;align=left;verticalAlign=middle;spacingTop=-1;spacingLeft=3;spacingRight=3;rotatable=0;labelPosition=right;points=[];portConstraint=eastwest;strokeColor=inherit;&quot; parent=&quot;JoW8kbm1Y7qwJiORCMFz-1&quot; vertex=&quot;1&quot;&gt;&#10;          &lt;mxGeometry y=&quot;59&quot; width=&quot;160&quot; height=&quot;8&quot; as=&quot;geometry&quot; /&gt;&#10;        &lt;/mxCell&gt;&#10;        &lt;mxCell id=&quot;JoW8kbm1Y7qwJiORCMFz-4&quot; value=&quot;- void doDispatch()&quot; style=&quot;text;strokeColor=none;fillColor=none;align=left;verticalAlign=top;spacingLeft=4;spacingRight=4;overflow=hidden;rotatable=0;points=[[0,0.5],[1,0.5]];portConstraint=eastwest;&quot; parent=&quot;JoW8kbm1Y7qwJiORCMFz-1&quot; vertex=&quot;1&quot;&gt;&#10;          &lt;mxGeometry y=&quot;67&quot; width=&quot;160&quot; height=&quot;26&quot; as=&quot;geometry&quot; /&gt;&#10;        &lt;/mxCell&gt;&#10;        &lt;mxCell id=&quot;JoW8kbm1Y7qwJiORCMFz-5&quot; value=&quot;客户端&quot; style=&quot;fontColor=#0066CC;verticalAlign=top;verticalLabelPosition=bottom;labelPosition=center;align=center;outlineConnect=0;fillColor=#CCCCCC;strokeColor=#6881B3;gradientColor=none;gradientDirection=north;strokeWidth=2;shape=mxgraph.networks.monitor;sketch=1;hachureGap=4;jiggle=2;curveFitting=1;fontFamily=LXGW WenKai;&quot; parent=&quot;1&quot; vertex=&quot;1&quot;&gt;&#10;          &lt;mxGeometry x=&quot;-679&quot; y=&quot;1645&quot; width=&quot;80&quot; height=&quot;65&quot; as=&quot;geometry&quot; /&gt;&#10;        &lt;/mxCell&gt;&#10;        &lt;mxCell id=&quot;JoW8kbm1Y7qwJiORCMFz-8&quot; style=&quot;edgeStyle=orthogonalEdgeStyle;curved=1;rounded=0;orthogonalLoop=1;jettySize=auto;exitX=0.5;exitY=1;exitDx=0;exitDy=0;&quot; parent=&quot;1&quot; source=&quot;JoW8kbm1Y7qwJiORCMFz-6&quot; target=&quot;JoW8kbm1Y7qwJiORCMFz-1&quot; edge=&quot;1&quot;&gt;&#10;          &lt;mxGeometry relative=&quot;1&quot; as=&quot;geometry&quot; /&gt;&#10;        &lt;/mxCell&gt;&#10;        &lt;mxCell id=&quot;JoW8kbm1Y7qwJiORCMFz-9&quot; value=&quot;Web.xml中配置&amp;#xa;前端控制器&quot; style=&quot;edgeLabel;align=center;verticalAlign=middle;resizable=0;points=[];&quot; parent=&quot;JoW8kbm1Y7qwJiORCMFz-8&quot; vertex=&quot;1&quot; connectable=&quot;0&quot;&gt;&#10;          &lt;mxGeometry x=&quot;0.1077&quot; y=&quot;-1&quot; relative=&quot;1&quot; as=&quot;geometry&quot;&gt;&#10;            &lt;mxPoint as=&quot;offset&quot; /&gt;&#10;          &lt;/mxGeometry&gt;&#10;        &lt;/mxCell&gt;&#10;        &lt;mxCell id=&quot;JoW8kbm1Y7qwJiORCMFz-6&quot; value=&quot;web.xml&quot; style=&quot;fontFamily=LXGW WenKai;sketch=1;curveFitting=1;jiggle=2;&quot; parent=&quot;1&quot; vertex=&quot;1&quot;&gt;&#10;          &lt;mxGeometry x=&quot;-324&quot; y=&quot;1456&quot; width=&quot;110&quot; height=&quot;50&quot; as=&quot;geometry&quot; /&gt;&#10;        &lt;/mxCell&gt;&#10;        &lt;mxCell id=&quot;JoW8kbm1Y7qwJiORCMFz-10&quot; value=&quot;XXXController&quot; style=&quot;swimlane;fontStyle=1;align=center;verticalAlign=top;childLayout=stackLayout;horizontal=1;startSize=26;horizontalStack=0;resizeParent=1;resizeParentMax=0;resizeLast=0;collapsible=1;marginBottom=0;&quot; parent=&quot;1&quot; vertex=&quot;1&quot;&gt;&#10;          &lt;mxGeometry x=&quot;82&quot; y=&quot;1676&quot; width=&quot;160&quot; height=&quot;86&quot; as=&quot;geometry&quot; /&gt;&#10;        &lt;/mxCell&gt;&#10;        &lt;mxCell id=&quot;JoW8kbm1Y7qwJiORCMFz-11&quot; value=&quot;+ ...&quot; style=&quot;text;strokeColor=none;fillColor=none;align=left;verticalAlign=top;spacingLeft=4;spacingRight=4;overflow=hidden;rotatable=0;points=[[0,0.5],[1,0.5]];portConstraint=eastwest;&quot; parent=&quot;JoW8kbm1Y7qwJiORCMFz-10&quot; vertex=&quot;1&quot;&gt;&#10;          &lt;mxGeometry y=&quot;26&quot; width=&quot;160&quot; height=&quot;26&quot; as=&quot;geometry&quot; /&gt;&#10;        &lt;/mxCell&gt;&#10;        &lt;mxCell id=&quot;JoW8kbm1Y7qwJiORCMFz-12&quot; value=&quot;&quot; style=&quot;line;strokeWidth=1;fillColor=none;align=left;verticalAlign=middle;spacingTop=-1;spacingLeft=3;spacingRight=3;rotatable=0;labelPosition=right;points=[];portConstraint=eastwest;strokeColor=inherit;&quot; parent=&quot;JoW8kbm1Y7qwJiORCMFz-10&quot; vertex=&quot;1&quot;&gt;&#10;          &lt;mxGeometry y=&quot;52&quot; width=&quot;160&quot; height=&quot;8&quot; as=&quot;geometry&quot; /&gt;&#10;        &lt;/mxCell&gt;&#10;        &lt;mxCell id=&quot;JoW8kbm1Y7qwJiORCMFz-13&quot; value=&quot;+ String method()&quot; style=&quot;text;strokeColor=none;fillColor=none;align=left;verticalAlign=top;spacingLeft=4;spacingRight=4;overflow=hidden;rotatable=0;points=[[0,0.5],[1,0.5]];portConstraint=eastwest;&quot; parent=&quot;JoW8kbm1Y7qwJiORCMFz-10&quot; vertex=&quot;1&quot;&gt;&#10;          &lt;mxGeometry y=&quot;60&quot; width=&quot;160&quot; height=&quot;26&quot; as=&quot;geometry&quot; /&gt;&#10;        &lt;/mxCell&gt;&#10;        &lt;mxCell id=&quot;JoW8kbm1Y7qwJiORCMFz-14&quot; style=&quot;edgeStyle=orthogonalEdgeStyle;curved=1;rounded=0;orthogonalLoop=1;jettySize=auto;exitX=1;exitY=0.5;exitDx=0;exitDy=0;entryX=0;entryY=0.5;entryDx=0;entryDy=0;&quot; parent=&quot;1&quot; source=&quot;JoW8kbm1Y7qwJiORCMFz-2&quot; target=&quot;JoW8kbm1Y7qwJiORCMFz-11&quot; edge=&quot;1&quot;&gt;&#10;          &lt;mxGeometry relative=&quot;1&quot; as=&quot;geometry&quot; /&gt;&#10;        &lt;/mxCell&gt;&#10;        &lt;mxCell id=&quot;JoW8kbm1Y7qwJiORCMFz-15&quot; value=&quot;根据请求路径名称&amp;#xa;找到对应的处理器方法&quot; style=&quot;edgeLabel;align=center;verticalAlign=middle;resizable=0;points=[];&quot; parent=&quot;JoW8kbm1Y7qwJiORCMFz-14&quot; vertex=&quot;1&quot; connectable=&quot;0&quot;&gt;&#10;          &lt;mxGeometry x=&quot;-0.4201&quot; y=&quot;-5&quot; relative=&quot;1&quot; as=&quot;geometry&quot;&gt;&#10;            &lt;mxPoint x=&quot;53&quot; y=&quot;13&quot; as=&quot;offset&quot; /&gt;&#10;          &lt;/mxGeometry&gt;&#10;        &lt;/mxCell&gt;&#10;      &lt;/root&gt;&#10;    &lt;/mxGraphModel&gt;&#10;  &lt;/diagram&gt;&#10;&lt;/mxfile&gt;&#10;" resource="https://app.diagrams.net/#Hluguosong%2Fimages%2Fmaster%2Fdiagrams%2Fjava_serve%2Fweb_application%2Fmvc%2FSpringMVC%E6%89%A7%E8%A1%8C%E8%BF%87%E7%A8%8B.svg#%7B%22pageId%22%3A%2223iRSUPoRavnBvh4doch%22%7D" style="background-color: rgb(255, 255, 255);"><defs><clipPath id="mx-clip-1085-140-152-26-0"><rect x="1085" y="140" width="152" height="26"/></clipPath><clipPath id="mx-clip-1085-174-152-26-0"><rect x="1085" y="174" width="152" height="26"/></clipPath><clipPath id="mx-clip-489-277-152-26-0"><rect x="489" y="277" width="152" height="26"/></clipPath><clipPath id="mx-clip-489-311-152-26-0"><rect x="489" y="311" width="152" height="26"/></clipPath><clipPath id="mx-clip-343-1310-152-20-0"><rect x="343" y="1310" width="152" height="20"/></clipPath><clipPath id="mx-clip-343-1338-152-26-0"><rect x="343" y="1338" width="152" height="26"/></clipPath><clipPath id="mx-clip-766-1345-152-26-0"><rect x="766" y="1345" width="152" height="26"/></clipPath><clipPath id="mx-clip-766-1379-152-26-0"><rect x="766" y="1379" width="152" height="26"/></clipPath></defs><rect fill="#ffffff" width="100%" height="100%" x="0" y="0"/><g><g data-cell-id="0"><g data-cell-id="1"><g data-cell-id="gyem3hlseezmw4Tj-qo7-34"><g><path d="M 178 23 L 178 0 L 1265 0 L 1265 23" fill="none" stroke="none" pointer-events="all"/><path d="M 178 0 C 178 0 178 0 178 0 M 178 0 C 178 0 178 0 178 0 M 177.74 6.4 C 179.01 3.77 181.27 0.13 182.99 0.36 M 177.74 6.4 C 179.5 4.34 182.23 2 182.99 0.36 M 178.13 12.04 C 180.22 6.61 188.13 0.89 188.63 -0.03 M 178.13 12.04 C 180.04 9.26 184.05 2.92 188.63 -0.03 M 177.87 18.44 C 185.34 15.36 189.68 3.77 193.62 0.33 M 177.87 18.44 C 184.71 14.13 189.1 5.94 193.62 0.33 M 178.92 23.33 C 186.67 21.79 184.59 16.89 199.26 -0.07 M 178.92 23.33 C 187.11 15.33 191.54 9.43 199.26 -0.07 M 183.91 23.69 C 188.59 12.8 198.89 9.91 204.25 0.29 M 183.91 23.69 C 192.39 14.55 200.9 5.88 204.25 0.29 M 189.55 23.29 C 198.93 16.37 200.47 9.57 209.89 -0.1 M 189.55 23.29 C 197.24 14.31 200.68 9.53 209.89 -0.1 M 194.54 23.65 C 195.33 16.75 206.59 17.11 214.88 0.26 M 194.54 23.65 C 199.49 17.41 207.83 8.89 214.88 0.26 M 200.18 23.26 C 205.42 19.96 207.56 13.27 220.52 -0.14 M 200.18 23.26 C 204.61 19.39 211.62 12.26 220.52 -0.14 M 205.17 23.62 C 208.44 15.7 215.86 7.09 225.51 0.22 M 205.17 23.62 C 209.31 19.56 214.59 12.37 225.51 0.22 M 210.81 23.22 C 215.73 14.48 220.56 14.3 231.15 -0.17 M 210.81 23.22 C 216.85 18.74 222.9 13.41 231.15 -0.17 M 215.8 23.58 C 222.97 18.38 227.5 10.23 236.14 0.19 M 215.8 23.58 C 218.34 18.86 224.96 13.58 236.14 0.19 M 220.79 23.94 C 223.54 17.99 230.34 12.51 241.78 -0.21 M 220.79 23.94 C 226.31 17.49 232.31 7.29 241.78 -0.21 M 226.43 23.55 C 230.39 14.26 239.91 11.29 246.77 0.15 M 226.43 23.55 C 232.73 15.72 241.81 6.58 246.77 0.15 M 231.42 23.91 C 239.56 12.09 246.8 8.1 252.41 -0.24 M 231.42 23.91 C 237.92 16.35 245.95 4.56 252.41 -0.24 M 237.06 23.51 C 242.41 16.78 246.93 12.32 257.4 0.12 M 237.06 23.51 C 243.87 15.86 248.35 9.4 257.4 0.12 M 242.05 23.87 C 252.14 18.37 253.45 7.39 263.04 -0.28 M 242.05 23.87 C 247.13 16.65 255.21 9.75 263.04 -0.28 M 247.69 23.48 C 248.96 15.2 257.76 9.51 268.03 0.08 M 247.69 23.48 C 255.9 12.79 262.21 7.38 268.03 0.08 M 252.68 23.84 C 259.14 19.67 270.1 4.63 273.67 -0.31 M 252.68 23.84 C 260.88 14.69 267.6 8.26 273.67 -0.31 M 258.32 23.45 C 262.43 11.7 275.26 8.6 278.66 0.05 M 258.32 23.45 C 266.1 16.46 273.27 9.62 278.66 0.05 M 263.31 23.81 C 273.71 19.61 275.51 8.75 284.3 -0.34 M 263.31 23.81 C 270.27 15.37 276.55 10.36 284.3 -0.34 M 268.95 23.41 C 280.01 11.88 288.11 3.1 289.29 0.02 M 268.95 23.41 C 276.63 13.94 281.78 7.23 289.29 0.02 M 273.94 23.77 C 280.22 11.91 289.79 4.03 294.27 0.38 M 273.94 23.77 C 281.31 17.07 286.97 9.77 294.27 0.38 M 279.58 23.38 C 283.56 14.39 292.88 11.55 299.92 -0.02 M 279.58 23.38 C 283.65 16.15 289.18 13.16 299.92 -0.02 M 284.57 23.74 C 291.39 14.95 294.06 11.55 304.91 0.34 M 284.57 23.74 C 290.21 15.42 300.72 7.39 304.91 0.34 M 290.21 23.34 C 294.11 20.21 302.61 12.43 310.55 -0.05 M 290.21 23.34 C 296.15 16.82 307.3 8.02 310.55 -0.05 M 295.2 23.7 C 300.59 12.47 311.84 10.24 315.54 0.31 M 295.2 23.7 C 301.24 15.3 311.5 5.39 315.54 0.31 M 300.84 23.31 C 304.88 16.45 309.49 13.05 321.18 -0.09 M 300.84 23.31 C 308.29 18.01 312.21 12.09 321.18 -0.09 M 305.83 23.67 C 313.03 11.43 318.61 8.21 326.17 0.27 M 305.83 23.67 C 313.69 16.98 318.56 6.93 326.17 0.27 M 311.47 23.27 C 314.38 17.37 328.26 5.49 331.81 -0.12 M 311.47 23.27 C 318.07 13.66 325.46 5.1 331.81 -0.12 M 316.46 23.63 C 319.31 20.85 329.47 16.78 336.8 0.24 M 316.46 23.63 C 324.28 15.67 330.97 9.51 336.8 0.24 M 322.1 23.24 C 329.32 17.87 336.95 8.5 342.44 -0.16 M 322.1 23.24 C 327.36 17.91 331.49 10.92 342.44 -0.16 M 327.09 23.6 C 332.88 19.49 338.68 11.12 347.43 0.2 M 327.09 23.6 C 333.95 13.35 340.33 7.19 347.43 0.2 M 332.07 23.96 C 337.29 16.53 343.9 9.86 353.07 -0.19 M 332.07 23.96 C 335.71 20.58 342.21 12.51 353.07 -0.19 M 337.72 23.56 C 341.17 19.6 348.4 8.4 358.06 0.17 M 337.72 23.56 C 344.75 18.06 347.66 12.16 358.06 0.17 M 342.7 23.92 C 347.59 11.9 361.73 7.32 363.7 -0.23 M 342.7 23.92 C 349.11 14.18 354.86 9.87 363.7 -0.23 M 348.35 23.53 C 352.59 19.17 354.08 13.69 368.69 0.13 M 348.35 23.53 C 352.05 16.07 357.76 11.29 368.69 0.13 M 353.33 23.89 C 361.98 19.85 360.98 11.17 374.33 -0.26 M 353.33 23.89 C 360.6 18.03 367.13 9.21 374.33 -0.26 M 358.98 23.5 C 365.82 14.92 367.6 12.58 379.32 0.1 M 358.98 23.5 C 365.44 17.12 369.88 7.67 379.32 0.1 M 363.96 23.86 C 366.55 19.82 371.98 14.4 384.96 -0.3 M 363.96 23.86 C 373.28 14.03 378.4 6.43 384.96 -0.3 M 369.61 23.46 C 378.09 16.87 387.44 8.81 389.95 0.06 M 369.61 23.46 C 375.4 18.63 378.52 9.87 389.95 0.06 M 374.59 23.82 C 380.28 21.25 382.82 11.86 395.59 -0.33 M 374.59 23.82 C 378.69 16.23 385.55 9.39 395.59 -0.33 M 380.24 23.43 C 383.98 16.16 387.61 9.05 400.58 0.03 M 380.24 23.43 C 387.14 16.99 393.3 8.15 400.58 0.03 M 385.23 23.79 C 391.59 17.83 394.25 11.28 406.22 -0.36 M 385.23 23.79 C 390.72 17.8 395.35 12.86 406.22 -0.36 M 390.87 23.39 C 398.07 15.29 406.44 9.46 411.21 0 M 390.87 23.39 C 395.63 16.95 399.89 11.6 411.21 0 M 395.86 23.75 C 405.56 16.66 404.43 13.83 416.19 0.36 M 395.86 23.75 C 400.97 16.36 409.55 10.42 416.19 0.36 M 401.5 23.36 C 408.79 11.14 414.05 4.4 421.84 -0.04 M 401.5 23.36 C 407.46 15.88 416.02 4.67 421.84 -0.04 M 406.49 23.72 C 406.66 17.85 414.92 12.79 426.82 0.32 M 406.49 23.72 C 411.33 19.17 415.63 11.66 426.82 0.32 M 412.13 23.32 C 413.63 16.53 417.82 15.7 432.47 -0.07 M 412.13 23.32 C 419.88 14.53 428.27 6.31 432.47 -0.07 M 417.12 23.68 C 424.59 12.48 429.05 11.45 437.45 0.29 M 417.12 23.68 C 423.29 14.47 429.89 7.69 437.45 0.29 M 422.76 23.29 C 428.24 20.83 429.6 14.16 443.1 -0.11 M 422.76 23.29 C 426.95 18.29 432.45 10.87 443.1 -0.11 M 427.75 23.65 C 430.87 18.32 439.15 10.28 448.08 0.25 M 427.75 23.65 C 435.46 14 441.04 7.69 448.08 0.25 M 433.39 23.25 C 439.99 20.31 445.01 6.33 453.73 -0.14 M 433.39 23.25 C 437.59 19.52 441.66 12.75 453.73 -0.14 M 438.38 23.61 C 444.95 17.99 450.82 7.53 458.71 0.22 M 438.38 23.61 C 447.24 14.6 452.02 7.44 458.71 0.22 M 443.36 23.97 C 453.13 13.54 458.81 11.31 464.36 -0.18 M 443.36 23.97 C 449.59 19.51 454.31 11.18 464.36 -0.18 M 449.01 23.58 C 457.8 17.21 460.26 6.53 469.34 0.18 M 449.01 23.58 C 454.21 18.62 461.26 13.55 469.34 0.18 M 453.99 23.94 C 460.94 14.38 470.53 7 474.99 -0.21 M 453.99 23.94 C 461.18 17.36 463.01 10.29 474.99 -0.21 M 459.64 23.54 C 465.41 19.87 473.82 11.14 479.97 0.15 M 459.64 23.54 C 462.88 19.1 467.54 12.89 479.97 0.15 M 464.62 23.91 C 471.61 16.18 477.16 8.66 485.62 -0.25 M 464.62 23.91 C 469.67 16.98 476.42 13.11 485.62 -0.25 M 470.27 23.51 C 473.23 16.29 482.48 12.94 490.6 0.11 M 470.27 23.51 C 477.8 14.61 482.98 11.15 490.6 0.11 M 475.25 23.87 C 483.6 15.56 486.07 14.42 496.25 -0.28 M 475.25 23.87 C 481.83 16.38 486.82 10.73 496.25 -0.28 M 480.9 23.48 C 485.89 13.47 493.68 1.84 501.23 0.08 M 480.9 23.48 C 485.05 19.64 490.48 13.52 501.23 0.08 M 485.88 23.84 C 490.82 18.28 498.43 8.55 506.88 -0.31 M 485.88 23.84 C 493.72 14.99 500.03 7.86 506.88 -0.31 M 491.53 23.44 C 498.25 18.06 499.95 14.75 511.86 0.05 M 491.53 23.44 C 497.29 14.66 507.05 5.78 511.86 0.05 M 496.51 23.8 C 502.49 16.37 514.39 3.49 517.51 -0.35 M 496.51 23.8 C 502.65 15.78 513.58 5.73 517.51 -0.35 M 502.16 23.41 C 509.47 18.63 511.65 14.07 522.49 0.01 M 502.16 23.41 C 504.5 18.93 512.09 14.11 522.49 0.01 M 507.14 23.77 C 509.03 18.39 521.46 13.38 527.48 0.37 M 507.14 23.77 C 510.73 17.62 517.7 14.66 527.48 0.37 M 512.79 23.37 C 516.95 16.92 524.24 14.79 533.12 -0.02 M 512.79 23.37 C 517.25 17.13 525.26 11.35 533.12 -0.02 M 517.77 23.73 C 523.54 17.79 530.86 11.23 538.11 0.34 M 517.77 23.73 C 526.27 14.6 532.25 6.28 538.11 0.34 M 523.42 23.34 C 532.31 17.84 532.72 8.65 543.75 -0.06 M 523.42 23.34 C 530.57 16.06 535.81 9.39 543.75 -0.06 M 528.4 23.7 C 535.42 13.66 539.32 7.72 548.74 0.3 M 528.4 23.7 C 533.84 18.2 536.56 10.01 548.74 0.3 M 534.05 23.3 C 538.55 20.69 542.53 15.14 554.38 -0.09 M 534.05 23.3 C 542.84 13.04 547.75 6.6 554.38 -0.09 M 539.03 23.66 C 545.21 18.42 551.21 6.05 559.37 0.27 M 539.03 23.66 C 547.59 16.06 554.5 8.82 559.37 0.27 M 544.68 23.27 C 553.76 13.33 559.47 12.59 565.01 -0.13 M 544.68 23.27 C 551.01 14.26 560.97 5.14 565.01 -0.13 M 549.66 23.63 C 553.62 16.75 557.18 11.52 570 0.23 M 549.66 23.63 C 557.83 18.04 562.12 10.75 570 0.23 M 555.31 23.23 C 561.45 15.55 565.75 9.27 575.64 -0.16 M 555.31 23.23 C 563.31 14.76 569.99 4.62 575.64 -0.16 M 560.29 23.59 C 566.16 15.72 572.92 15.29 580.63 0.2 M 560.29 23.59 C 566.09 15.67 573.27 9.2 580.63 0.2 M 565.28 23.95 C 574.81 12.42 578.87 3.41 586.27 -0.2 M 565.28 23.95 C 571.36 14.98 578.34 8.04 586.27 -0.2 M 570.92 23.56 C 579.59 17.9 583.46 9.81 591.26 0.16 M 570.92 23.56 C 581.16 14.41 589.29 3.68 591.26 0.16 M 575.91 23.92 C 577.64 19.31 589.04 7.83 596.9 -0.23 M 575.91 23.92 C 582 17.14 587.3 10.33 596.9 -0.23 M 581.55 23.53 C 585.43 17.56 596.74 8.11 601.89 0.13 M 581.55 23.53 C 584.85 20.79 590.8 13.8 601.89 0.13 M 586.54 23.89 C 589.78 14.59 600.87 9.51 607.53 -0.26 M 586.54 23.89 C 592.92 19.4 599.33 10.91 607.53 -0.26 M 592.18 23.49 C 596.41 14.99 600.04 14.33 612.52 0.1 M 592.18 23.49 C 594.53 17.44 598.6 16.07 612.52 0.1 M 597.17 23.85 C 605.66 16.06 608 14.18 618.16 -0.3 M 597.17 23.85 C 602.04 19.42 607.89 11.19 618.16 -0.3 M 602.81 23.46 C 606.04 18.44 613.68 12.11 623.15 0.06 M 602.81 23.46 C 606.43 17.53 614.46 13.29 623.15 0.06 M 607.8 23.82 C 613 15.81 622.91 7.16 628.79 -0.33 M 607.8 23.82 C 616.31 14.18 621.08 5.26 628.79 -0.33 M 613.44 23.42 C 619.32 14.89 631.61 9.56 633.78 0.03 M 613.44 23.42 C 618.21 14.72 625.96 8.2 633.78 0.03 M 618.43 23.78 C 623.98 11.41 633.5 4.75 639.42 -0.37 M 618.43 23.78 C 624.44 15.13 631.75 7.92 639.42 -0.37 M 624.07 23.39 C 631.47 18.85 637.97 11.91 644.41 -0.01 M 624.07 23.39 C 630.61 13.64 638.17 7.58 644.41 -0.01 M 629.06 23.75 C 641.14 10.97 646.76 5.89 649.4 0.35 M 629.06 23.75 C 635.16 16.42 638.28 10.23 649.4 0.35 M 634.7 23.35 C 642.59 11.95 644.17 7.24 655.04 -0.04 M 634.7 23.35 C 638.64 16.77 646.63 12.87 655.04 -0.04 M 639.69 23.71 C 641.82 15.33 652.64 9.07 660.03 0.32 M 639.69 23.71 C 644.71 18.73 650.38 13.72 660.03 0.32 M 645.33 23.32 C 655.99 14.73 660.88 11.39 665.67 -0.08 M 645.33 23.32 C 651.58 17.77 655.74 8.43 665.67 -0.08 M 650.32 23.68 C 657.4 20.4 659.56 11.17 670.66 0.28 M 650.32 23.68 C 658.7 15.56 663.87 8.44 670.66 0.28 M 655.96 23.28 C 659.68 19.19 669.62 9.49 676.3 -0.11 M 655.96 23.28 C 661.84 16.91 665.13 10.64 676.3 -0.11 M 660.95 23.64 C 672.05 12.3 676.05 8.28 681.29 0.25 M 660.95 23.64 C 668.75 18.5 672.05 11.55 681.29 0.25 M 666.59 23.25 C 675.13 15.73 673.56 12.53 686.93 -0.15 M 666.59 23.25 C 672.98 15.86 676.1 9.74 686.93 -0.15 M 671.58 23.61 C 678.74 18.93 680.47 14.61 691.92 0.21 M 671.58 23.61 C 679.56 15.4 686.77 6.03 691.92 0.21 M 676.57 23.97 C 679.77 15.58 690.2 9.96 697.56 -0.18 M 676.57 23.97 C 680.42 19.64 686.14 15.93 697.56 -0.18 M 682.21 23.58 C 691.32 15.19 691.47 9.34 702.55 0.18 M 682.21 23.58 C 685.81 19.53 689.04 14.28 702.55 0.18 M 687.2 23.94 C 694.21 13.66 699.82 7.57 708.19 -0.22 M 687.2 23.94 C 694.22 16.02 697.47 11.04 708.19 -0.22 M 692.84 23.54 C 696.34 16.9 705.4 9.57 713.18 0.14 M 692.84 23.54 C 699.02 17.34 702.28 12.72 713.18 0.14 M 697.83 23.9 C 707.59 17.46 713.68 9.93 718.82 -0.25 M 697.83 23.9 C 701.2 18.26 705.66 14.76 718.82 -0.25 M 703.47 23.51 C 708.97 14.44 718.36 3.59 723.81 0.11 M 703.47 23.51 C 708.97 19.88 711.34 12.4 723.81 0.11 M 708.46 23.87 C 711.59 16.84 721.86 10.69 729.45 -0.28 M 708.46 23.87 C 716.9 16.15 721.5 7.65 729.45 -0.28 M 714.1 23.47 C 717.38 17.92 728.67 9.76 734.44 0.08 M 714.1 23.47 C 720.97 16.8 726 9.14 734.44 0.08 M 719.09 23.83 C 727.23 14.82 729.94 14.47 740.08 -0.32 M 719.09 23.83 C 727.8 12.86 734.56 5.53 740.08 -0.32 M 724.73 23.44 C 730.35 20.81 734.42 10.44 745.07 0.04 M 724.73 23.44 C 727.57 20.05 734.55 14.42 745.07 0.04 M 729.72 23.8 C 731.06 16.7 739.13 12.39 750.71 -0.35 M 729.72 23.8 C 737.84 16.81 742.56 9.6 750.71 -0.35 M 735.36 23.4 C 742.49 12.28 744.72 6.65 755.7 0.01 M 735.36 23.4 C 744.3 15.56 749.82 6.55 755.7 0.01 M 740.35 23.76 C 750.84 17.17 755.72 7.08 760.69 0.37 M 740.35 23.76 C 745.07 16.21 753.54 8.47 760.69 0.37 M 745.99 23.37 C 756.98 12.64 760.31 7.91 766.33 -0.03 M 745.99 23.37 C 753.48 13.68 762.46 7.58 766.33 -0.03 M 750.98 23.73 C 758.38 14.73 758.73 9.12 771.32 0.33 M 750.98 23.73 C 755.15 16.74 761.93 14.05 771.32 0.33 M 756.62 23.33 C 760.04 14.7 766.13 11.23 776.96 -0.06 M 756.62 23.33 C 761.38 17.89 768.61 13.62 776.96 -0.06 M 761.61 23.69 C 766.55 17.18 774.07 6.76 781.95 0.3 M 761.61 23.69 C 765.5 18.08 773.75 7.72 781.95 0.3 M 767.25 23.3 C 774.33 21.16 774.8 15.43 787.59 -0.1 M 767.25 23.3 C 772.67 17.49 778.22 6.49 787.59 -0.1 M 772.24 23.66 C 781 11.7 788.57 9 792.58 0.26 M 772.24 23.66 C 780.73 13.64 788.67 6.79 792.58 0.26 M 777.88 23.26 C 786.71 19.11 788.31 10.77 798.22 -0.13 M 777.88 23.26 C 784.24 15.84 786.59 11.04 798.22 -0.13 M 782.87 23.62 C 791.51 20.19 791.39 9.31 803.21 0.23 M 782.87 23.62 C 788.91 18.02 794.17 9.85 803.21 0.23 M 788.51 23.23 C 796.36 15.71 796.02 8.86 808.85 -0.17 M 788.51 23.23 C 794.63 19.13 798.19 13.52 808.85 -0.17 M 793.5 23.59 C 798.97 14.33 803.08 9.11 813.84 0.19 M 793.5 23.59 C 800.2 13.79 810.29 7.2 813.84 0.19 M 798.49 23.95 C 806.12 15.96 812.46 5.18 819.48 -0.2 M 798.49 23.95 C 803.41 19.58 807.96 13.68 819.48 -0.2 M 804.13 23.56 C 809.14 14.53 815.04 6.39 824.47 0.16 M 804.13 23.56 C 808.94 15.55 817.41 11.32 824.47 0.16 M 809.12 23.92 C 816.48 13.7 828.08 6.94 830.11 -0.23 M 809.12 23.92 C 814.9 16.61 818.47 11.54 830.11 -0.23 M 814.76 23.52 C 818.77 11.7 833.94 8.44 835.1 0.13 M 814.76 23.52 C 818.62 18.72 823.55 11.23 835.1 0.13 M 819.75 23.88 C 827.79 15.39 835.22 6.72 840.74 -0.27 M 819.75 23.88 C 826.68 13.76 835.42 4.93 840.74 -0.27 M 825.39 23.49 C 835.82 13.74 835.7 10.02 845.73 0.09 M 825.39 23.49 C 830.34 17.5 834.65 10.85 845.73 0.09 M 830.38 23.85 C 841.32 18.94 841.97 6.19 851.37 -0.3 M 830.38 23.85 C 836.64 16.63 843.68 12.18 851.37 -0.3 M 836.02 23.45 C 842.86 16.47 847.09 13.31 856.36 0.06 M 836.02 23.45 C 844.91 15.32 850.7 5.07 856.36 0.06 M 841.01 23.81 C 847.46 13.99 858.87 0.94 862 -0.34 M 841.01 23.81 C 845.01 20.28 852.28 13.56 862 -0.34 M 846.65 23.42 C 851.08 13.08 861.77 6.31 866.99 0.02 M 846.65 23.42 C 854.58 15.08 859.34 9.07 866.99 0.02 M 851.64 23.78 C 857.77 12.72 864.43 7.36 872.63 -0.37 M 851.64 23.78 C 858.96 19.96 864.36 10.95 872.63 -0.37 M 857.28 23.38 C 865.03 14.48 874.63 5.62 877.62 -0.01 M 857.28 23.38 C 862.82 15.67 870.02 9.75 877.62 -0.01 M 862.27 23.74 C 867.97 19.93 870.67 8 882.6 0.35 M 862.27 23.74 C 869.09 15.93 875.56 10.51 882.6 0.35 M 867.91 23.35 C 868.71 17.9 874.35 13.92 888.25 -0.05 M 867.91 23.35 C 872.28 15.48 879.54 10.25 888.25 -0.05 M 872.9 23.71 C 874.82 19.11 882.21 12.96 893.23 0.31 M 872.9 23.71 C 875.71 16.65 883.07 15.15 893.23 0.31 M 878.54 23.31 C 883.86 14.87 891.56 15.69 898.88 -0.08 M 878.54 23.31 C 884.66 18.9 890.11 13.54 898.88 -0.08 M 883.53 23.67 C 885.25 21.32 890.39 11.5 903.86 0.28 M 883.53 23.67 C 889.67 13.19 899.72 3.24 903.86 0.28 M 889.17 23.28 C 899.62 14.71 906.38 7.7 909.51 -0.12 M 889.17 23.28 C 892.34 18.97 899.04 13.93 909.51 -0.12 M 894.16 23.64 C 900.23 17.46 899.99 17.19 914.5 0.24 M 894.16 23.64 C 899.68 19 903.28 12.03 914.5 0.24 M 899.8 23.25 C 902.44 16.8 912.23 10.25 920.14 -0.15 M 899.8 23.25 C 903.34 16.25 909.58 11.75 920.14 -0.15 M 904.79 23.61 C 908.45 18.13 912.62 14.23 925.13 0.21 M 904.79 23.61 C 911.61 16.37 918.49 9.75 925.13 0.21 M 909.77 23.97 C 918.18 13.78 924.67 3.1 930.77 -0.19 M 909.77 23.97 C 916.78 16.33 920.56 11.57 930.77 -0.19 M 915.42 23.57 C 917.32 15.65 919.85 13.22 935.76 0.18 M 915.42 23.57 C 921.33 17.49 927.09 10.55 935.76 0.18 M 920.4 23.93 C 927.3 13.13 936.99 8.52 941.4 -0.22 M 920.4 23.93 C 923.29 18.82 928.2 10.32 941.4 -0.22 M 926.05 23.54 C 928.14 21.22 932.21 10.63 946.39 0.14 M 926.05 23.54 C 931.48 14.9 939.12 9.83 946.39 0.14 M 931.03 23.9 C 940.39 17.06 943.62 7.19 952.03 -0.25 M 931.03 23.9 C 936.38 18.27 940.46 10.73 952.03 -0.25 M 936.68 23.5 C 939.75 18.13 944.98 11.65 957.02 0.11 M 936.68 23.5 C 939.85 20.19 946.97 11.97 957.02 0.11 M 941.66 23.86 C 945.19 15.2 948 15.64 962.66 -0.29 M 941.66 23.86 C 948.07 17.91 953.94 10.13 962.66 -0.29 M 947.31 23.47 C 953.94 14.87 953.48 10.34 967.65 0.07 M 947.31 23.47 C 954.05 16.49 958.38 9.83 967.65 0.07 M 952.29 23.83 C 955.94 18.15 962.45 16.32 973.29 -0.32 M 952.29 23.83 C 959.88 14.99 967.21 7.33 973.29 -0.32 M 957.94 23.43 C 963.15 15.47 970.96 7.6 978.28 0.04 M 957.94 23.43 C 964.84 12.42 975.45 3.69 978.28 0.04 M 962.92 23.79 C 972.49 17.3 976.97 4.73 983.92 -0.36 M 962.92 23.79 C 972.11 15.39 979.68 4.31 983.92 -0.36 M 968.57 23.4 C 970.66 16.07 978.46 9.44 988.91 0 M 968.57 23.4 C 973.46 17.24 976.01 14.08 988.91 0 M 973.55 23.76 C 984.33 16.64 988.69 4.72 993.89 0.36 M 973.55 23.76 C 979.38 17.51 981.35 11.17 993.89 0.36 M 979.2 23.36 C 987.44 16.62 992.17 11.66 999.54 -0.03 M 979.2 23.36 C 985.98 16.11 994.39 6.67 999.54 -0.03 M 984.18 23.72 C 990.89 13.48 998.01 7.04 1004.52 0.33 M 984.18 23.72 C 994.13 13.28 999.33 6.41 1004.52 0.33 M 989.83 23.33 C 998.3 13.04 1002.96 7.68 1010.17 -0.07 M 989.83 23.33 C 993.41 19.05 998.82 10.97 1010.17 -0.07 M 994.82 23.69 C 1002.04 20.04 1005.15 11.49 1015.15 0.29 M 994.82 23.69 C 1001.37 16.3 1012.54 5.94 1015.15 0.29 M 1000.46 23.3 C 1003.59 16.08 1012.59 9.05 1020.8 -0.1 M 1000.46 23.3 C 1004.53 16.81 1010.92 14.42 1020.8 -0.1 M 1005.45 23.66 C 1012.63 12.17 1019.71 5.33 1025.78 0.26 M 1005.45 23.66 C 1013.36 17.46 1017.95 10.33 1025.78 0.26 M 1011.09 23.26 C 1016.86 12.08 1021.14 9.93 1031.43 -0.14 M 1011.09 23.26 C 1020.73 13.6 1026.22 5.54 1031.43 -0.14 M 1016.08 23.62 C 1020.56 13.59 1028.23 11.56 1036.41 0.22 M 1016.08 23.62 C 1022.85 13.73 1033.36 5.73 1036.41 0.22 M 1021.72 23.23 C 1025.81 15.44 1033.95 9.83 1042.06 -0.17 M 1021.72 23.23 C 1028.34 18.12 1032.31 8.01 1042.06 -0.17 M 1026.71 23.59 C 1034.92 14.12 1040.97 12.03 1047.04 0.19 M 1026.71 23.59 C 1033.5 18.3 1037.71 9.61 1047.04 0.19 M 1031.69 23.95 C 1042.02 16.06 1045.65 9.85 1052.69 -0.2 M 1031.69 23.95 C 1038.32 13.8 1047.32 7.45 1052.69 -0.2 M 1037.34 23.55 C 1045.69 20.27 1047 17.19 1057.67 0.16 M 1037.34 23.55 C 1042.54 17.11 1047.98 10.26 1057.67 0.16 M 1042.32 23.91 C 1047.77 16.66 1052.05 9.99 1063.32 -0.24 M 1042.32 23.91 C 1046.73 19.9 1052.74 13.58 1063.32 -0.24 M 1047.97 23.52 C 1050.8 13.85 1059.62 11.5 1068.3 0.12 M 1047.97 23.52 C 1052.02 16.4 1060.27 10.7 1068.3 0.12 M 1052.95 23.88 C 1056.05 16.56 1061.55 8.31 1073.95 -0.27 M 1052.95 23.88 C 1060.66 17.32 1063.71 8.82 1073.95 -0.27 M 1058.6 23.48 C 1064.2 18.34 1070.16 12.34 1078.93 0.09 M 1058.6 23.48 C 1064.5 15.74 1071.54 6.73 1078.93 0.09 M 1063.58 23.84 C 1069.79 20.92 1071.33 10.42 1084.58 -0.31 M 1063.58 23.84 C 1069.24 16.08 1075.93 8.03 1084.58 -0.31 M 1069.23 23.45 C 1077.98 17.39 1084.41 7.33 1089.56 0.05 M 1069.23 23.45 C 1074.47 14.19 1084.93 8.09 1089.56 0.05 M 1074.21 23.81 C 1082.01 18.63 1089.97 7.84 1095.21 -0.34 M 1074.21 23.81 C 1080.47 19.2 1081.46 13.21 1095.21 -0.34 M 1079.86 23.41 C 1090.06 15.4 1095.97 8.73 1100.19 0.02 M 1079.86 23.41 C 1084.01 18.67 1091.62 11.11 1100.19 0.02 M 1084.84 23.77 C 1089.95 21.14 1093.08 12.89 1105.84 -0.38 M 1084.84 23.77 C 1092.93 15.17 1098.71 6.76 1105.84 -0.38 M 1090.49 23.38 C 1096.56 16.32 1105.01 1.77 1110.82 -0.02 M 1090.49 23.38 C 1097.07 15.71 1098.99 13.5 1110.82 -0.02 M 1095.47 23.74 C 1105.12 13.35 1108.02 4.15 1115.81 0.34 M 1095.47 23.74 C 1099.12 19.31 1104.48 11.62 1115.81 0.34 M 1101.12 23.34 C 1103.36 21.46 1107.38 9.58 1121.45 -0.05 M 1101.12 23.34 C 1107.01 15.56 1112.2 8.15 1121.45 -0.05 M 1106.1 23.7 C 1114.72 13.99 1121.12 4.37 1126.44 0.31 M 1106.1 23.7 C 1110.78 15.9 1119.26 9.21 1126.44 0.31 M 1111.75 23.31 C 1118.62 12.6 1121.65 4.53 1132.08 -0.09 M 1111.75 23.31 C 1121.26 15.2 1128.74 5.08 1132.08 -0.09 M 1116.73 23.67 C 1119.47 17.28 1128.98 14.62 1137.07 0.27 M 1116.73 23.67 C 1125.66 15.58 1134.12 3.7 1137.07 0.27 M 1122.38 23.28 C 1122.31 14.44 1128.02 15.09 1142.71 -0.12 M 1122.38 23.28 C 1125.52 19.97 1132.68 14.8 1142.71 -0.12 M 1127.36 23.64 C 1135.05 17.51 1134.58 11.79 1147.7 0.24 M 1127.36 23.64 C 1135.77 13.44 1141.85 8.79 1147.7 0.24 M 1133.01 23.24 C 1140.44 16.09 1141.2 10.95 1153.34 -0.15 M 1133.01 23.24 C 1136.81 16.15 1145.98 7.82 1153.34 -0.15 M 1137.99 23.6 C 1149.81 13.47 1154.72 8.28 1158.33 0.21 M 1137.99 23.6 C 1145.01 17.63 1148.61 8.81 1158.33 0.21 M 1142.98 23.96 C 1150.72 14.35 1149.71 13.12 1163.97 -0.19 M 1142.98 23.96 C 1145.65 16.91 1152.32 12.19 1163.97 -0.19 M 1148.62 23.57 C 1156.76 11.63 1161.81 2.86 1168.96 0.17 M 1148.62 23.57 C 1153.47 14.81 1160.09 7.17 1168.96 0.17 M 1153.61 23.93 C 1159.14 16.35 1170.23 4.22 1174.6 -0.22 M 1153.61 23.93 C 1159.53 15.31 1166.55 11.32 1174.6 -0.22 M 1159.25 23.53 C 1163.9 12.19 1172.63 4.96 1179.59 0.14 M 1159.25 23.53 C 1165.88 15.52 1171.86 10.79 1179.59 0.14 M 1164.24 23.89 C 1168.16 20.08 1178.11 12.66 1185.23 -0.26 M 1164.24 23.89 C 1171.52 13.63 1181.57 2.95 1185.23 -0.26 M 1169.88 23.5 C 1179.8 12.88 1187.58 6.88 1190.22 0.1 M 1169.88 23.5 C 1176.2 16.85 1180.14 13.09 1190.22 0.1 M 1174.87 23.86 C 1178.93 17.09 1183.93 6.3 1195.86 -0.29 M 1174.87 23.86 C 1178.97 18.17 1184.7 10.88 1195.86 -0.29 M 1180.51 23.46 C 1189.92 18.37 1193.15 6.83 1200.85 0.07 M 1180.51 23.46 C 1186.17 15.27 1194.33 5.07 1200.85 0.07 M 1185.5 23.82 C 1189.53 15.4 1196.98 8.96 1206.49 -0.33 M 1185.5 23.82 C 1194.43 15.48 1199.42 8.05 1206.49 -0.33 M 1191.14 23.43 C 1201.28 18.99 1208.53 9.35 1211.48 0.03 M 1191.14 23.43 C 1197.6 16.56 1203.02 13.72 1211.48 0.03 M 1196.13 23.79 C 1201.06 13.98 1205.99 9.98 1217.12 -0.36 M 1196.13 23.79 C 1200.63 16.01 1208.95 12.4 1217.12 -0.36 M 1201.77 23.39 C 1211.94 18.37 1221.13 7.26 1222.11 0 M 1201.77 23.39 C 1205.2 18.96 1209.31 14.71 1222.11 0 M 1206.76 23.75 C 1215.51 14.03 1222.37 11.78 1227.1 0.36 M 1206.76 23.75 C 1212.12 16.33 1221.1 9.11 1227.1 0.36 M 1212.4 23.36 C 1221.46 12.95 1226.92 11.51 1232.74 -0.04 M 1212.4 23.36 C 1217.68 18.18 1221.51 15.1 1232.74 -0.04 M 1217.39 23.72 C 1220.2 17.47 1227.56 9 1237.73 0.32 M 1217.39 23.72 C 1225.7 16.9 1232.46 10.02 1237.73 0.32 M 1223.03 23.33 C 1232.32 18.29 1234.09 9.79 1243.37 -0.07 M 1223.03 23.33 C 1225.66 18.83 1231.21 13.16 1243.37 -0.07 M 1228.02 23.69 C 1229.24 20.06 1235.5 15.88 1248.36 0.29 M 1228.02 23.69 C 1232.06 19.17 1237.41 11.93 1248.36 0.29 M 1233.66 23.29 C 1240.64 14.6 1247.53 8.47 1254 -0.11 M 1233.66 23.29 C 1242.83 16.04 1248.42 6.22 1254 -0.11 M 1238.65 23.65 C 1247.6 13.33 1255.33 5.69 1258.99 0.26 M 1238.65 23.65 C 1245.24 15.54 1252.31 6.79 1258.99 0.26 M 1244.29 23.26 C 1248.51 21.91 1251.27 16.04 1264.63 -0.14 M 1244.29 23.26 C 1248.58 15.85 1254.05 10.88 1264.63 -0.14 M 1249.28 23.62 C 1254.73 16.86 1251.86 16.52 1265.68 4.75 M 1249.28 23.62 C 1256.24 16.82 1261.36 11.92 1265.68 4.75 M 1254.92 23.22 C 1254.96 19.2 1258.9 15.4 1265.42 11.15 M 1254.92 23.22 C 1258.13 19.45 1264.29 12.77 1265.42 11.15 M 1259.91 23.58 C 1260.98 22.26 1262.96 20.74 1265.16 17.54 M 1259.91 23.58 C 1262.09 21.59 1264.33 18.55 1265.16 17.54" fill="none" stroke="#f2cc8f" stroke-width="0.5" stroke-linejoin="round" stroke-linecap="round" stroke-miterlimit="10" pointer-events="all"/><path d="M 178 23 C 179.17 13.21 176.88 9.92 178 0 M 178 23 C 176.56 17.75 176.48 10.39 178 0 M 178 0 C 427.34 -4.34 677.59 -6.39 1265 0 M 178 0 C 414.34 1.09 650.68 2.15 1265 0 M 1265 0 C 1261.55 4.5 1261.05 14.3 1265 23 M 1265 0 C 1265.79 8.86 1265.76 18.48 1265 23" fill="none" stroke="#e07a5f" stroke-linejoin="round" stroke-linecap="round" stroke-miterlimit="10" pointer-events="all"/><path d="M 178 23 C 181.83 182.79 180.91 345.19 178 608 M 178 23 C 177.19 182 177.16 340.15 178 608 M 178 608 C 427.34 603.66 677.59 601.61 1265 608 M 178 608 C 414.34 609.09 650.68 610.15 1265 608 M 1265 608 C 1267.01 434.07 1266.82 262.27 1265 23 M 1265 608 C 1262.35 394.96 1262.34 182.23 1265 23" fill="none" stroke="#e07a5f" stroke-linejoin="round" stroke-linecap="round" stroke-miterlimit="10" pointer-events="none"/><path d="M 178 23 C 478.08 26.35 776.64 27.57 1265 23 M 178 23 C 472.12 25.25 766.79 24.79 1265 23" fill="none" stroke="#e07a5f" stroke-linejoin="round" stroke-linecap="round" stroke-miterlimit="10" pointer-events="none"/></g><g><g fill="#393C56" font-family="&quot;LXGW WenKai&quot;" font-weight="bold" text-anchor="middle" font-size="15px"><text x="721" y="17.5">Spring MVC执行流程</text></g></g><g data-cell-id="gyem3hlseezmw4Tj-qo7-24"><g><rect x="803" y="269" width="165" height="50" fill="none" stroke="none" pointer-events="all"/><path d="M 801.57 270.32 L 964.2 268.76 L 965.24 321.69 L 803.21 320.1" fill="rgb(255, 255, 255)" stroke="none" pointer-events="all"/><path d="M 803 269 C 848.77 265.21 892.9 271.9 968 269 M 803 269 C 842.86 271.76 880.59 271.1 968 269 M 968 269 C 965.88 282.94 965.13 305.56 968 319 M 968 269 C 967.89 288.98 968.57 308.39 968 319 M 968 319 C 923 316 872.25 314.07 803 319 M 968 319 C 918.61 315.89 870.23 314.1 803 319 M 803 319 C 805.76 305.19 800.47 283.22 803 269 M 803 319 C 804.32 301.85 803.22 285.01 803 269" fill="none" stroke="rgb(0, 0, 0)" stroke-linejoin="round" stroke-linecap="round" stroke-miterlimit="10" pointer-events="all"/></g><g><g fill="rgb(0, 0, 0)" font-family="&quot;LXGW WenKai&quot;" text-anchor="middle" font-size="12px"><text x="885" y="298.5">springmvc-servlet.xml</text></g></g></g><g data-cell-id="gyem3hlseezmw4Tj-qo7-26"><g><path d="M 645.35 503.29 L 645.35 589 L 484 589 L 484 489 L 622.3 489 Z" fill="none" stroke="none" pointer-events="all"/><path d="M 622.3 489 C 624.18 492.34 621.09 495.79 614.07 498.18 L 645.35 503.59" fill="none" stroke="none" pointer-events="all"/><path d="M 645.35 503.29 C 640.29 522.72 645.01 539.36 645.35 589 C 600.31 580.38 553.75 581.64 484 589 C 489.43 562.36 486.41 527.94 484 489 C 523.41 487.94 565.83 491.53 622.3 489 C 630.66 495.42 633.61 496.59 645.35 503.29" fill="rgb(255, 255, 255)" stroke="none" pointer-events="all"/><path d="M 645.35 503.29 C 648.7 527.53 642.68 550.63 645.35 589 M 645.35 503.29 C 646.58 536.75 647.12 569.81 645.35 589 M 645.35 589 C 615.22 589.56 575.84 589.8 484 589 M 645.35 589 C 592.51 589.49 538.86 588.85 484 589 M 484 589 C 483.54 563.93 480.36 546.81 484 489 M 484 589 C 482.52 551.55 483.12 511.5 484 489 M 484 489 C 517.77 491.36 544.45 485.34 622.3 489 M 484 489 C 517.73 490.91 551.34 490.59 622.3 489 M 622.3 489 C 626.07 489.02 629.25 494.16 645.35 503.29 M 622.3 489 C 628.65 492.97 635.86 498.46 645.35 503.29" fill="none" stroke="rgb(0, 0, 0)" stroke-linejoin="round" stroke-linecap="round" stroke-miterlimit="10" pointer-events="all"/><path d="M 622.3 489 C 623.2 491.38 623.41 499.56 614.07 498.18 M 622.3 489 C 624.91 489.75 621.24 499.62 614.07 498.18 M 614.07 498.18 C 624.82 502.87 634.76 497.55 645.35 503.59 M 614.07 498.18 C 625.44 499.04 638.04 502.56 645.35 503.59" fill="none" stroke="rgb(0, 0, 0)" stroke-linejoin="round" stroke-linecap="round" stroke-miterlimit="10" pointer-events="all"/></g><g><g fill="rgb(0, 0, 0)" font-family="&quot;LXGW WenKai&quot;" text-anchor="middle" font-size="12px"><text x="565" y="543.5">hello.thymeleaf</text></g></g></g><g data-cell-id="gyem3hlseezmw4Tj-qo7-18"><g><path d="M 1081 135 L 1081 109 L 1241 109 L 1241 135" fill="none" stroke="none" pointer-events="all"/><path d="M 1081 135 C 1082.87 120.77 1080.15 113.61 1081 109 C 1118.65 107.46 1164.34 110 1241 109 C 1245.77 118.13 1244.25 117.17 1241 135" fill="rgb(255, 255, 255)" stroke="none" pointer-events="all"/><path d="M 1081 135 C 1078.62 124.58 1076.86 121.35 1081 109 M 1081 135 C 1080.71 127.54 1081.88 121.42 1081 109 M 1081 109 C 1145.31 111.2 1204.84 108.78 1241 109 M 1081 109 C 1123 108.44 1159.39 108.49 1241 109 M 1241 109 C 1244.24 120.07 1238.37 125.72 1241 135 M 1241 109 C 1241.09 119.44 1242.33 127.92 1241 135" fill="none" stroke="rgb(0, 0, 0)" stroke-linejoin="round" stroke-linecap="round" stroke-miterlimit="10" pointer-events="all"/><path d="M 1081 135 C 1080.04 148.25 1078.28 168.7 1081 195 M 1081 135 C 1080.93 152.95 1082.1 172.24 1081 195 M 1081 195 C 1145.31 197.2 1204.84 194.78 1241 195 M 1081 195 C 1123 194.44 1159.39 194.49 1241 195 M 1241 195 C 1245.31 177.86 1239.44 155.31 1241 135 M 1241 195 C 1242.22 171.75 1243.46 146.53 1241 135" fill="none" stroke="rgb(0, 0, 0)" stroke-linejoin="round" stroke-linecap="round" stroke-miterlimit="10" pointer-events="none"/><path d="M 1081 135 C 1123.09 132.69 1165.37 136.62 1241 135 M 1081 135 C 1128.06 132.66 1176.49 134.22 1241 135" fill="none" stroke="rgb(0, 0, 0)" stroke-linejoin="round" stroke-linecap="round" stroke-miterlimit="10" pointer-events="none"/></g><g><g fill="rgb(0, 0, 0)" font-family="&quot;LXGW WenKai&quot;" font-weight="bold" text-anchor="middle" font-size="12px"><text x="1160.5" y="126.5">HelloController</text></g></g><g data-cell-id="gyem3hlseezmw4Tj-qo7-19"><g><rect x="1081" y="135" width="160" height="26" fill="none" stroke="none" pointer-events="all"/></g><g><g fill="rgb(0, 0, 0)" font-family="&quot;LXGW WenKai&quot;" clip-path="url(#mx-clip-1085-140-152-26-0)" font-size="12px"><text x="1086.5" y="152.5">+ ...</text></g></g></g><g data-cell-id="gyem3hlseezmw4Tj-qo7-20"><g><path d="M 1081 165 L 1241 165" fill="none" stroke="none" pointer-events="all"/><path d="M 1081 165 C 1126.54 164.11 1170.69 169.21 1241 165 M 1081 165 C 1136.02 160.88 1193.87 162.48 1241 165" fill="none" stroke="rgb(0, 0, 0)" stroke-linejoin="round" stroke-linecap="round" stroke-miterlimit="10" pointer-events="all"/></g></g><g data-cell-id="gyem3hlseezmw4Tj-qo7-21"><g><rect x="1081" y="169" width="160" height="26" fill="none" stroke="none" pointer-events="all"/></g><g><g fill="rgb(0, 0, 0)" font-family="&quot;LXGW WenKai&quot;" clip-path="url(#mx-clip-1085-174-152-26-0)" font-size="12px"><text x="1086.5" y="186.5">+ ...</text></g></g></g></g><g data-cell-id="gyem3hlseezmw4Tj-qo7-32"><g><rect x="1071" y="81" width="170" height="26" fill="none" stroke="none" pointer-events="all"/></g><g><g fill="rgb(0, 0, 0)" font-family="&quot;LXGW WenKai&quot;" text-anchor="middle" font-size="12px"><text x="1155.5" y="98.5">Controller返回逻辑视图名称</text></g></g></g><g data-cell-id="NdV2gGG-6irBUMOK67j7-8"><g><rect x="540" y="461" width="42" height="26" fill="none" stroke="none" pointer-events="all"/></g><g><g fill="rgb(0, 0, 0)" font-family="&quot;LXGW WenKai&quot;" text-anchor="middle" font-size="12px"><text x="560.5" y="478.5">视图</text></g></g></g><g data-cell-id="NdV2gGG-6irBUMOK67j7-9"><g><rect x="821.5" y="243" width="128" height="26" fill="none" stroke="none" pointer-events="all"/></g><g><g fill="rgb(0, 0, 0)" font-family="&quot;LXGW WenKai&quot;" text-anchor="middle" font-size="12px"><text x="885" y="260.5">spring mvc配置文件</text></g></g></g><g data-cell-id="FLEe0FHFtyAksvvl3Y7G-5"><g><path d="M 968 281.5 Q 1190 281.5 1189.96 202.36" fill="none" stroke="rgb(0, 0, 0)" stroke-miterlimit="10" pointer-events="stroke"/><path d="M 1189.96 197.11 L 1193.46 204.1 L 1189.96 202.36 L 1186.46 204.11 Z" fill="rgb(0, 0, 0)" stroke="rgb(0, 0, 0)" stroke-miterlimit="10" pointer-events="all"/></g><g data-cell-id="FLEe0FHFtyAksvvl3Y7G-13"><g><g fill="rgb(0, 0, 0)" font-family="&quot;Helvetica&quot;" text-anchor="middle" font-size="11px"><rect fill="rgb(255, 255, 255)" stroke="none" x="1016" y="261" width="176" height="27" stroke-width="0"/><text x="1103" y="270.5">4.通过配置文件中配置的组件扫描，</text><text x="1103" y="283.5">找到对应Controller</text></g></g></g></g><g data-cell-id="FLEe0FHFtyAksvvl3Y7G-8"><g><path d="M 885.5 319 Q 885.5 547 654.35 547" fill="none" stroke="rgb(0, 0, 0)" stroke-miterlimit="10" pointer-events="stroke"/><path d="M 649.1 547 L 656.1 543.5 L 654.35 547 L 656.1 550.5 Z" fill="rgb(0, 0, 0)" stroke="rgb(0, 0, 0)" stroke-miterlimit="10" pointer-events="all"/></g><g data-cell-id="FLEe0FHFtyAksvvl3Y7G-16"><g><g fill="rgb(0, 0, 0)" font-family="&quot;Helvetica&quot;" text-anchor="middle" font-size="11px"><rect fill="rgb(255, 255, 255)" stroke="none" x="794" y="444" width="121" height="27" stroke-width="0"/><text x="853.5" y="454">7.根据视图解析器配置，</text><text x="853.5" y="467">找到对应视图</text></g></g></g></g></g><g data-cell-id="gyem3hlseezmw4Tj-qo7-15"><g><path d="M 275 207.5 Q 305 207.5 305 162.75 Q 305 118 328.63 118" fill="none" stroke="none" pointer-events="stroke"/><path d="M 333.88 118 L 326.88 121.5 L 328.63 118 L 326.88 114.5 Z" fill="none" stroke="none" pointer-events="all"/><path d="M 275 207.5 C 294.01 208.77 305.38 189.49 305 162.75 M 275 207.5 C 298.39 210.04 302.34 191.64 305 162.75 M 305 162.75 C 303.89 136.88 314.08 115.88 328.63 118 M 305 162.75 C 305.72 135.65 312.27 120.4 328.63 118" fill="none" stroke="rgb(0, 0, 0)" stroke-linejoin="round" stroke-linecap="round" stroke-miterlimit="10" pointer-events="stroke"/><path d="M 326.94 114.43 C 326.94 114.43 326.94 114.43 326.94 114.43 M 326.94 114.43 C 326.94 114.43 326.94 114.43 326.94 114.43 M 328.65 118.56 C 329.67 118.39 329.84 117.14 330.61 116.3 M 328.65 118.56 C 328.93 117.67 329.81 117.54 330.61 116.3" fill="none" stroke="rgb(0, 0, 0)" stroke-width="0.5" stroke-linejoin="round" stroke-linecap="round" stroke-miterlimit="10" pointer-events="all"/><path d="M 333.88 118 C 330.76 120.13 330.91 119.04 326.88 121.5 M 333.88 118 C 332.14 118.7 330.07 120.56 326.88 121.5 M 326.88 121.5 C 328.09 120.96 327.73 119.48 328.63 118 M 326.88 121.5 C 327.12 120.07 328.24 119.2 328.63 118 M 328.63 118 C 328.07 117.88 327.31 116.27 326.88 114.5 M 328.63 118 C 328.39 116.91 327.74 116.16 326.88 114.5 M 326.88 114.5 C 330.09 114.23 330.28 117.78 333.88 118 M 326.88 114.5 C 329.42 116.23 332.56 116.78 333.88 118" fill="none" stroke="rgb(0, 0, 0)" stroke-linejoin="round" stroke-linecap="round" stroke-miterlimit="10" pointer-events="all"/></g><g data-cell-id="FLEe0FHFtyAksvvl3Y7G-10"><g><g fill="rgb(0, 0, 0)" font-family="&quot;Helvetica&quot;" text-anchor="middle" font-size="11px"><rect fill="rgb(255, 255, 255)" stroke="none" x="300" y="167" width="8" height="14" stroke-width="0"/><text x="303" y="177">1</text></g></g></g></g><g data-cell-id="wa0JLTWsgckLO4hLmPQc-1"><g><rect x="195" y="175" width="80" height="46.06" fill="none" stroke="none" pointer-events="all"/><path d="M 219.5 233.04 L 250.4 233.04 L 256.5 240 L 213.5 240 Z" fill="none" stroke="none" pointer-events="all"/><rect x="225" y="221.06" width="20" height="15.35" fill="none" stroke="none" pointer-events="all"/><rect x="198" y="178.07" width="73" height="39.92" fill="none" stroke="none" pointer-events="all"/><path d="M 195.18 174.79 C 195.18 174.79 195.18 174.79 195.18 174.79 M 195.18 174.79 C 195.18 174.79 195.18 174.79 195.18 174.79 M 194.92 181.19 C 196.15 179.77 198.85 178.93 200.17 175.15 M 194.92 181.19 C 197.04 179.61 196.94 178.26 200.17 175.15 M 195.31 186.84 C 197.83 185.49 199.43 177.78 205.81 174.76 M 195.31 186.84 C 198.65 182.88 198.73 182.38 205.81 174.76 M 195.05 193.23 C 197.5 189.71 204.11 181.61 210.8 175.12 M 195.05 193.23 C 201.68 186.57 207.31 182.69 210.8 175.12 M 194.79 199.63 C 200.67 190.55 209.87 181.1 216.44 174.73 M 194.79 199.63 C 202.5 191.46 211.33 181.92 216.44 174.73 M 195.18 205.27 C 201.25 190.82 211.9 184.44 221.43 175.09 M 195.18 205.27 C 200.26 197.11 207.87 194.03 221.43 175.09 M 194.92 211.67 C 203.02 201.89 212.86 197.96 227.07 174.69 M 194.92 211.67 C 206.41 200.16 218.67 183.25 227.07 174.69 M 195.32 217.31 C 209.66 200.81 224.37 189.01 232.06 175.05 M 195.32 217.31 C 208.84 202.99 219.23 190.16 232.06 175.05 M 197.02 221.45 C 208.37 209.81 217.57 199.06 237.7 174.66 M 197.02 221.45 C 210.25 207.18 222.46 193.1 237.7 174.66 M 202.01 221.81 C 211.86 211.33 222.51 191.5 242.69 175.02 M 202.01 221.81 C 216.43 206.83 230.7 193.3 242.69 175.02 M 207.65 221.41 C 223.45 208.06 231.01 198.14 247.67 175.38 M 207.65 221.41 C 214.8 210.89 221.84 201.83 247.67 175.38 M 212.64 221.77 C 223.99 213.09 228.86 203.59 253.32 174.98 M 212.64 221.77 C 227.35 203.39 242.89 186.8 253.32 174.98 M 218.28 221.38 C 228.12 202.49 244.52 193.39 258.3 175.34 M 218.28 221.38 C 227.08 211.32 236.18 201.43 258.3 175.34 M 223.27 221.74 C 231.92 211.02 244.19 194.6 263.95 174.95 M 223.27 221.74 C 235.97 208.69 243.9 195.99 263.95 174.95 M 228.91 221.35 C 242.25 201.41 263.52 187.69 268.93 175.31 M 228.91 221.35 C 244.91 205.41 259.39 186.84 268.93 175.31 M 233.9 221.71 C 249.86 208.23 256.57 190.44 274.58 174.91 M 233.9 221.71 C 242.92 211.86 250.56 202.75 274.58 174.91 M 239.54 221.31 C 251.2 215.05 258.59 203.38 275.63 179.8 M 239.54 221.31 C 249.03 212.92 255.16 203.58 275.63 179.8 M 244.53 221.67 C 251.52 213.82 259.47 201.43 275.37 186.2 M 244.53 221.67 C 255.35 210.59 266.03 194.27 275.37 186.2 M 250.17 221.28 C 254.2 210.42 262.23 207.96 275.76 191.84 M 250.17 221.28 C 256.84 211.61 266.17 203.04 275.76 191.84 M 255.16 221.64 C 261.98 216.64 264.23 208.95 275.5 198.24 M 255.16 221.64 C 261.27 213.2 266.43 210.66 275.5 198.24 M 260.8 221.24 C 263.32 217.08 273.9 208.63 275.24 204.64 M 260.8 221.24 C 266.06 216.89 266.45 212.25 275.24 204.64 M 265.79 221.6 C 266.45 218.35 273.9 215.13 275.63 210.28 M 265.79 221.6 C 268.19 217.14 271.21 216.76 275.63 210.28 M 271.43 221.21 C 271.64 218.95 275 217.12 275.37 216.68 M 271.43 221.21 C 272.53 220.03 273.3 218.71 275.37 216.68" fill="none" stroke="#cccccc" stroke-linejoin="round" stroke-linecap="round" stroke-miterlimit="10" pointer-events="all"/><path d="M 195 175 C 225.82 174.2 254.19 170.83 275 175 M 195 175 C 219.48 172.51 244.29 173.49 275 175 M 275 175 C 278.91 192.59 274.37 214.84 275 221.06 M 275 175 C 275.29 189.8 277.14 206.77 275 221.06 M 275 221.06 C 246.85 221.95 215.85 219.27 195 221.06 M 275 221.06 C 245.9 221.65 218.4 223.4 195 221.06 M 195 221.06 C 198.39 200.91 198.51 185.99 195 175 M 195 221.06 C 193.97 209.27 192.4 198.34 195 175" fill="none" stroke="#6881b3" stroke-width="2" stroke-linejoin="round" stroke-linecap="round" stroke-miterlimit="10" pointer-events="all"/><path d="M 219.5 233.04 C 219.5 233.04 219.5 233.04 219.5 233.04 M 219.5 233.04 C 219.5 233.04 219.5 233.04 219.5 233.04 M 217.93 240.95 C 219.46 239.16 222.85 238.12 224.49 233.4 M 217.93 240.95 C 220.58 238.97 220.45 237.28 224.49 233.4 M 223.57 240.55 C 225.14 239.71 226.15 234.89 230.13 233 M 223.57 240.55 C 225.66 238.08 225.71 237.76 230.13 233 M 228.56 240.91 C 229.36 239.65 232.24 236.09 235.12 233.36 M 228.56 240.91 C 231.44 238.08 233.81 236.64 235.12 233.36 M 234.2 240.52 C 235.78 237.42 239.1 234.17 240.76 232.97 M 234.2 240.52 C 236.48 238.23 239.4 235.18 240.76 232.97 M 239.19 240.88 C 239.81 236.55 242.57 236.3 245.75 233.33 M 239.19 240.88 C 240.34 238.45 242.73 238.53 245.75 233.33 M 244.83 240.48 C 246.54 238.44 248.98 238.95 250.74 233.69 M 244.83 240.48 C 246.78 238.89 249.13 234.92 250.74 233.69 M 249.82 240.84 C 251.49 238.69 253.36 238.08 253.75 236.31 M 249.82 240.84 C 251.54 239.37 252.24 238.3 253.75 236.31 M 255.46 240.45 C 255.68 240.22 255.81 240.06 256.12 239.69 M 255.46 240.45 C 255.66 240.24 255.83 240.04 256.12 239.69" fill="none" stroke="#cccccc" stroke-linejoin="round" stroke-linecap="round" stroke-miterlimit="10" pointer-events="all"/><path d="M 219.5 233.04 C 230.95 233.03 239.95 229.65 250.4 233.04 M 219.5 233.04 C 228.6 231.17 238.02 232.15 250.4 233.04 M 250.4 233.04 C 254.46 235.52 254.78 240.11 256.5 240 M 250.4 233.04 C 252.4 234.87 255.38 237.73 256.5 240 M 256.5 240 C 242.52 241.23 225.7 238.56 213.5 240 M 256.5 240 C 240.32 239.97 225.75 241.72 213.5 240 M 213.5 240 C 217.29 235.9 219.49 234.12 219.5 233.04 M 213.5 240 C 214.74 238.17 215.54 236.75 219.5 233.04" fill="none" stroke="#6881b3" stroke-width="2" stroke-linejoin="round" stroke-linecap="round" stroke-miterlimit="10" pointer-events="all"/><path d="M 225.23 220.8 C 225.23 220.8 225.23 220.8 225.23 220.8 M 225.23 220.8 C 225.23 220.8 225.23 220.8 225.23 220.8 M 224.97 227.19 C 226.2 225.77 228.91 224.93 230.22 221.16 M 224.97 227.19 C 227.1 225.61 226.99 224.26 230.22 221.16 M 224.71 233.59 C 227.38 232.16 229.09 223.97 235.86 220.76 M 224.71 233.59 C 228.25 229.39 228.34 228.85 235.86 220.76 M 227.07 236.97 C 228.89 234.2 234.87 226.83 240.85 221.12 M 227.07 236.97 C 233.05 231.06 238.02 227.93 240.85 221.12 M 232.06 237.33 C 235.43 230.92 242.26 224.18 245.84 221.48 M 232.06 237.33 C 236.86 232.48 242.92 226.11 245.84 221.48 M 237.7 236.94 C 238.45 231.74 241.76 231.45 245.58 227.88 M 237.7 236.94 C 239.08 234.02 241.95 234.13 245.58 227.88 M 242.69 237.3 C 243.64 236.16 245 236.44 245.97 233.52 M 242.69 237.3 C 243.77 236.41 245.08 234.21 245.97 233.52" fill="none" stroke="#cccccc" stroke-linejoin="round" stroke-linecap="round" stroke-miterlimit="10" pointer-events="all"/><path d="M 225 221.06 C 232.15 221.23 236.85 217.85 245 221.06 M 225 221.06 C 230.68 219.33 236.69 220.32 245 221.06 M 245 221.06 C 247.76 226.62 244.27 235.75 245 236.42 M 245 221.06 C 244.87 225.47 246.29 231.54 245 236.42 M 245 236.42 C 239.83 237.87 231.83 235.19 225 236.42 M 245 236.42 C 236.86 236.01 230.32 237.76 225 236.42 M 225 236.42 C 227.73 228.09 227.82 223.8 225 221.06 M 225 236.42 C 224.48 232.43 223.27 229.12 225 221.06" fill="none" stroke="#6881b3" stroke-width="2" stroke-linejoin="round" stroke-linecap="round" stroke-miterlimit="10" pointer-events="all"/><path d="M 197.51 177.5 L 269.29 180 L 267.57 214.48 L 196.97 215.86" fill="#ffffff" stroke="none" pointer-events="all"/></g><g><g fill="#0066CC" font-family="&quot;LXGW WenKai&quot;" text-anchor="middle" font-size="12px"><text x="234.5" y="257.5">客户端</text></g></g></g><g data-cell-id="gyem3hlseezmw4Tj-qo7-16"><g><path d="M 417.5 143 Q 417.5 285 478.63 285" fill="none" stroke="none" pointer-events="stroke"/><path d="M 483.88 285 L 476.88 288.5 L 478.63 285 L 476.88 281.5 Z" fill="none" stroke="none" pointer-events="all"/><path d="M 417.5 143 C 416.51 239.61 435.06 287.62 478.63 285 M 417.5 143 C 418.51 234.87 433.29 287.37 478.63 285" fill="none" stroke="rgb(0, 0, 0)" stroke-linejoin="round" stroke-linecap="round" stroke-miterlimit="10" pointer-events="stroke"/><path d="M 476.7 281.71 C 476.7 281.71 476.7 281.71 476.7 281.71 M 476.7 281.71 C 476.7 281.71 476.7 281.71 476.7 281.71 M 479.06 285.09 C 479.32 284.78 479.91 284.14 480.37 283.58 M 479.06 285.09 C 479.19 284.57 479.8 284.24 480.37 283.58" fill="none" stroke="rgb(0, 0, 0)" stroke-width="0.5" stroke-linejoin="round" stroke-linecap="round" stroke-miterlimit="10" pointer-events="all"/><path d="M 483.88 285 C 483.01 286.21 479.11 285.27 476.88 288.5 M 483.88 285 C 481.02 285.93 479.68 287.42 476.88 288.5 M 476.88 288.5 C 478.05 287.14 477.31 286.59 478.63 285 M 476.88 288.5 C 477.54 287.12 478.19 286.25 478.63 285 M 478.63 285 C 477.91 283.9 477.99 283.01 476.88 281.5 M 478.63 285 C 477.93 283.83 477.61 282.5 476.88 281.5 M 476.88 281.5 C 478.47 280.99 481.79 282.61 483.88 285 M 476.88 281.5 C 479.5 282.97 482.43 283.23 483.88 285" fill="none" stroke="rgb(0, 0, 0)" stroke-linejoin="round" stroke-linecap="round" stroke-miterlimit="10" pointer-events="all"/></g><g data-cell-id="FLEe0FHFtyAksvvl3Y7G-11"><g><g fill="rgb(0, 0, 0)" font-family="&quot;Helvetica&quot;" text-anchor="middle" font-size="11px"><rect fill="rgb(255, 255, 255)" stroke="none" x="419" y="199" width="8" height="14" stroke-width="0"/><text x="421.5" y="208.5">2</text></g></g></g></g><g data-cell-id="gyem3hlseezmw4Tj-qo7-8"><g><rect x="335" y="93" width="110" height="50" fill="none" stroke="none" pointer-events="all"/><path d="M 331.11 90.89 L 448.95 90.77 L 448.29 141.2 L 335.09 146.77" fill="rgb(255, 255, 255)" stroke="none" pointer-events="all"/><path d="M 335 93 C 370.63 97.6 410.03 93.34 445 93 M 335 93 C 369.01 92.87 406.37 94.35 445 93 M 445 93 C 447.05 109.63 448.79 127.72 445 143 M 445 93 C 446.24 111.46 444.73 129.5 445 143 M 445 143 C 418.25 147.54 386.33 147.01 335 143 M 445 143 C 421.41 140.95 396.35 141.08 335 143 M 335 143 C 332.4 124.41 338.88 104.86 335 93 M 335 143 C 334.99 133.06 335.49 118.97 335 93" fill="none" stroke="rgb(0, 0, 0)" stroke-linejoin="round" stroke-linecap="round" stroke-miterlimit="10" pointer-events="all"/></g><g><g fill="rgb(0, 0, 0)" font-family="&quot;LXGW WenKai&quot;" text-anchor="middle" font-size="12px"><text x="389.5" y="122.5">web.xml</text></g></g></g><g data-cell-id="FLEe0FHFtyAksvvl3Y7G-4"><g><path d="M 645 267.5 Q 724 267.5 724 274.5 Q 724 281.5 796.63 281.5" fill="none" stroke="rgb(0, 0, 0)" stroke-miterlimit="10" pointer-events="stroke"/><path d="M 801.88 281.5 L 794.88 285 L 796.63 281.5 L 794.88 278 Z" fill="rgb(0, 0, 0)" stroke="rgb(0, 0, 0)" stroke-miterlimit="10" pointer-events="all"/></g><g data-cell-id="FLEe0FHFtyAksvvl3Y7G-12"><g><g fill="rgb(0, 0, 0)" font-family="&quot;Helvetica&quot;" text-anchor="middle" font-size="11px"><rect fill="rgb(255, 255, 255)" stroke="none" x="715" y="267" width="8" height="14" stroke-width="0"/><text x="718" y="277">3</text></g></g></g></g><g data-cell-id="gyem3hlseezmw4Tj-qo7-9"><g><path d="M 485 272 L 485 246 L 645 246 L 645 272" fill="none" stroke="none" pointer-events="all"/><path d="M 485 272 C 488.69 264.19 488.05 260.16 485 246 C 548.6 248.26 612.58 240.66 645 246 C 647.09 251.78 649.98 259.5 645 272" fill="rgb(255, 255, 255)" stroke="none" pointer-events="all"/><path d="M 485 272 C 486.85 264.48 484.6 251.33 485 246 M 485 272 C 485.28 260.97 486 250.55 485 246 M 485 246 C 548.76 251.06 610.87 248.66 645 246 M 485 246 C 539.78 247.77 595.32 246.87 645 246 M 645 246 C 646.65 249.56 648.25 258.02 645 272 M 645 246 C 644.16 252.85 645.91 261.67 645 272" fill="none" stroke="rgb(0, 0, 0)" stroke-linejoin="round" stroke-linecap="round" stroke-miterlimit="10" pointer-events="all"/><path d="M 485 272 C 487.48 295.21 485.23 312.79 485 332 M 485 272 C 486.39 295.14 487.11 318.9 485 332 M 485 332 C 548.76 337.06 610.87 334.66 645 332 M 485 332 C 539.78 333.77 595.32 332.87 645 332 M 645 332 C 646.47 315.75 648.07 304.41 645 272 M 645 332 C 645.8 315.97 647.55 301.92 645 272" fill="none" stroke="rgb(0, 0, 0)" stroke-linejoin="round" stroke-linecap="round" stroke-miterlimit="10" pointer-events="none"/><path d="M 485 272 C 544.21 271.02 599.12 267.17 645 272 M 485 272 C 549.19 270.82 613.49 270.74 645 272" fill="none" stroke="rgb(0, 0, 0)" stroke-linejoin="round" stroke-linecap="round" stroke-miterlimit="10" pointer-events="none"/></g><g><g fill="rgb(0, 0, 0)" font-family="&quot;LXGW WenKai&quot;" font-weight="bold" text-anchor="middle" font-size="12px"><text x="564.5" y="263.5">DispatcherServlet</text></g></g><g data-cell-id="gyem3hlseezmw4Tj-qo7-10"><g><rect x="485" y="272" width="160" height="26" fill="none" stroke="none" pointer-events="all"/></g><g><g fill="rgb(0, 0, 0)" font-family="&quot;LXGW WenKai&quot;" clip-path="url(#mx-clip-489-277-152-26-0)" font-size="12px"><text x="490.5" y="289.5">+ ...</text></g></g></g><g data-cell-id="gyem3hlseezmw4Tj-qo7-11"><g><path d="M 485 302 L 645 302" fill="none" stroke="none" pointer-events="all"/><path d="M 485 302 C 527.08 307.53 569.84 300.68 645 302 M 485 302 C 546.68 301.38 608.42 301.88 645 302" fill="none" stroke="rgb(0, 0, 0)" stroke-linejoin="round" stroke-linecap="round" stroke-miterlimit="10" pointer-events="all"/></g></g><g data-cell-id="gyem3hlseezmw4Tj-qo7-12"><g><rect x="485" y="306" width="160" height="26" fill="none" stroke="none" pointer-events="all"/></g><g><g fill="rgb(0, 0, 0)" font-family="&quot;LXGW WenKai&quot;" clip-path="url(#mx-clip-489-311-152-26-0)" font-size="12px"><text x="490.5" y="323.5">+ ...</text></g></g></g></g><g data-cell-id="gyem3hlseezmw4Tj-qo7-30"><g><rect x="278" y="48" width="238" height="41" fill="none" stroke="none" pointer-events="all"/></g><g><g fill="rgb(0, 0, 0)" font-family="&quot;LXGW WenKai&quot;" text-anchor="middle" font-size="12px"><text x="396.5" y="66">web.xml中url-pattern配置的是 /</text><text x="396.5" y="80">因此所有请求都先经过DispatcherServlet</text></g></g></g><g data-cell-id="FLEe0FHFtyAksvvl3Y7G-6"><g><path d="M 1081 130.5 Q 565 130.5 565 239.63" fill="none" stroke="rgb(0, 0, 0)" stroke-miterlimit="10" pointer-events="stroke"/><path d="M 565 244.88 L 561.5 237.88 L 565 239.63 L 568.5 237.88 Z" fill="rgb(0, 0, 0)" stroke="rgb(0, 0, 0)" stroke-miterlimit="10" pointer-events="all"/></g><g data-cell-id="FLEe0FHFtyAksvvl3Y7G-14"><g><g fill="rgb(0, 0, 0)" font-family="&quot;Helvetica&quot;" text-anchor="middle" font-size="11px"><rect fill="rgb(255, 255, 255)" stroke="none" x="825" y="136" width="8" height="14" stroke-width="0"/><text x="828" y="146">5</text></g></g></g></g><g data-cell-id="FLEe0FHFtyAksvvl3Y7G-7"><g><path d="M 645 319 Q 724 319 724 312.75 Q 724 306.5 796.63 306.5" fill="none" stroke="rgb(0, 0, 0)" stroke-miterlimit="10" pointer-events="stroke"/><path d="M 801.88 306.5 L 794.88 310 L 796.63 306.5 L 794.88 303 Z" fill="rgb(0, 0, 0)" stroke="rgb(0, 0, 0)" stroke-miterlimit="10" pointer-events="all"/></g><g data-cell-id="FLEe0FHFtyAksvvl3Y7G-15"><g><g fill="rgb(0, 0, 0)" font-family="&quot;Helvetica&quot;" text-anchor="middle" font-size="11px"><rect fill="rgb(255, 255, 255)" stroke="none" x="702" y="314" width="8" height="14" stroke-width="0"/><text x="705" y="323.5">6</text></g></g></g></g><g data-cell-id="FLEe0FHFtyAksvvl3Y7G-9"><g><path d="M 484 539 Q 235 539 235 246.37" fill="none" stroke="rgb(0, 0, 0)" stroke-miterlimit="10" pointer-events="stroke"/><path d="M 235 241.12 L 238.5 248.12 L 235 246.37 L 231.5 248.12 Z" fill="rgb(0, 0, 0)" stroke="rgb(0, 0, 0)" stroke-miterlimit="10" pointer-events="all"/></g><g data-cell-id="FLEe0FHFtyAksvvl3Y7G-19"><g><g fill="rgb(0, 0, 0)" font-family="&quot;Helvetica&quot;" text-anchor="middle" font-size="11px"><rect fill="rgb(255, 255, 255)" stroke="none" x="255" y="387" width="8" height="14" stroke-width="0"/><text x="258" y="396.5">8</text></g></g></g></g><g data-cell-id="JoW8kbm1Y7qwJiORCMFz-1"><g><path d="M 339 1305 L 339 1266 L 499 1266 L 499 1305" fill="rgb(255, 255, 255)" stroke="rgb(0, 0, 0)" stroke-miterlimit="10" pointer-events="all"/><path d="M 339 1305 L 339 1359 L 499 1359 L 499 1305" fill="none" stroke="rgb(0, 0, 0)" stroke-miterlimit="10" pointer-events="none"/><path d="M 339 1305 L 499 1305" fill="none" stroke="rgb(0, 0, 0)" stroke-miterlimit="10" pointer-events="none"/></g><g><g fill="rgb(0, 0, 0)" font-family="&quot;Helvetica&quot;" font-weight="bold" text-anchor="middle" font-size="12px"><text x="418.5" y="1283.5">DispatcherServlet</text><text x="418.5" y="1297.5">（前端控制器）</text></g></g><g data-cell-id="JoW8kbm1Y7qwJiORCMFz-2"><g><rect x="339" y="1305" width="160" height="20" fill="none" stroke="none" pointer-events="all"/></g><g><g fill="rgb(0, 0, 0)" font-family="&quot;Helvetica&quot;" clip-path="url(#mx-clip-343-1310-152-20-0)" font-size="12px"><text x="344.5" y="1322.5">+ ...</text></g></g></g><g data-cell-id="JoW8kbm1Y7qwJiORCMFz-3"><g><path d="M 339 1329 L 499 1329" fill="none" stroke="rgb(0, 0, 0)" stroke-miterlimit="10" pointer-events="all"/></g></g><g data-cell-id="JoW8kbm1Y7qwJiORCMFz-4"><g><rect x="339" y="1333" width="160" height="26" fill="none" stroke="none" pointer-events="all"/></g><g><g fill="rgb(0, 0, 0)" font-family="&quot;Helvetica&quot;" clip-path="url(#mx-clip-343-1338-152-26-0)" font-size="12px"><text x="344.5" y="1350.5">- void doDispatch()</text></g></g></g></g><g data-cell-id="JoW8kbm1Y7qwJiORCMFz-5"><g><rect x="1" y="1283" width="80" height="46.06" fill="none" stroke="none" pointer-events="all"/><path d="M 25.5 1341.04 L 56.4 1341.04 L 62.5 1348 L 19.5 1348 Z" fill="none" stroke="none" pointer-events="all"/><rect x="31" y="1329.06" width="20" height="15.35" fill="none" stroke="none" pointer-events="all"/><rect x="4" y="1286.07" width="73" height="39.92" fill="none" stroke="none" pointer-events="all"/><path d="M 0.85 1283.18 C 0.85 1283.18 0.85 1283.18 0.85 1283.18 M 0.85 1283.18 C 0.85 1283.18 0.85 1283.18 0.85 1283.18 M 1.24 1288.82 C 1.47 1288.19 3.94 1284.23 6.49 1282.78 M 1.24 1288.82 C 2.84 1288.09 3.2 1285.41 6.49 1282.78 M 0.98 1295.22 C 4.85 1293.61 2.64 1292.08 11.48 1283.14 M 0.98 1295.22 C 5.26 1291.35 6.83 1289.53 11.48 1283.14 M 0.72 1301.62 C 5.08 1293.28 10.04 1289.49 17.12 1282.75 M 0.72 1301.62 C 4.75 1294.51 12.51 1286.41 17.12 1282.75 M 1.11 1307.26 C 5.79 1302.82 14.77 1289.74 22.11 1283.11 M 1.11 1307.26 C 7.56 1297.75 15.06 1287.37 22.11 1283.11 M 0.85 1313.66 C 8.69 1304.22 13.41 1303.6 27.75 1282.71 M 0.85 1313.66 C 10.55 1302.93 18.24 1295.99 27.75 1282.71 M 1.25 1319.3 C 12.96 1310.16 18.49 1302.39 32.74 1283.07 M 1.25 1319.3 C 10.58 1306.23 22.41 1294.73 32.74 1283.07 M 0.98 1325.7 C 13.25 1311.75 24.33 1303.25 38.38 1282.68 M 0.98 1325.7 C 9.01 1316.54 16.16 1307.35 38.38 1282.68 M 2.69 1329.83 C 8.3 1319.53 21.31 1306.42 43.37 1283.04 M 2.69 1329.83 C 13.83 1317 26.66 1302.2 43.37 1283.04 M 8.33 1329.44 C 19.94 1317.34 34.81 1299.45 49.01 1282.64 M 8.33 1329.44 C 19.63 1315.15 32.11 1301.58 49.01 1282.64 M 13.32 1329.8 C 24.38 1315.3 35.27 1304.91 54 1283 M 13.32 1329.8 C 27.07 1314.83 40.8 1299.57 54 1283 M 18.96 1329.4 C 28.47 1314 40.47 1296.31 58.98 1283.36 M 18.96 1329.4 C 29.3 1318.93 40.93 1305 58.98 1283.36 M 23.95 1329.76 C 40.26 1312.87 51.4 1301.15 64.63 1282.97 M 23.95 1329.76 C 36.44 1316.01 51.25 1299.24 64.63 1282.97 M 29.59 1329.37 C 42.76 1315.26 59.61 1291.01 69.61 1283.33 M 29.59 1329.37 C 43.9 1312.4 55.23 1298.37 69.61 1283.33 M 34.58 1329.73 C 45.62 1312.77 57.81 1296.22 75.26 1282.94 M 34.58 1329.73 C 45.32 1316.33 57.48 1301.66 75.26 1282.94 M 40.22 1329.33 C 48.51 1319.43 51.56 1309.38 80.24 1283.3 M 40.22 1329.33 C 49.45 1321.15 57.48 1308.84 80.24 1283.3 M 45.21 1329.69 C 55.93 1317.62 63.91 1305.75 81.29 1288.18 M 45.21 1329.69 C 54.82 1320.62 62.7 1310.23 81.29 1288.18 M 50.85 1329.3 C 63.75 1322.13 70.27 1307.11 81.69 1293.83 M 50.85 1329.3 C 56.5 1319.83 63.85 1312.57 81.69 1293.83 M 55.84 1329.66 C 67.89 1319.61 74.05 1313.04 81.43 1300.22 M 55.84 1329.66 C 63.41 1318.37 73.94 1309.32 81.43 1300.22 M 61.48 1329.26 C 70.82 1322.16 73.98 1307.92 81.17 1306.62 M 61.48 1329.26 C 71.37 1318.91 78.13 1311.23 81.17 1306.62 M 66.47 1329.62 C 68 1321.76 75.38 1319.66 81.56 1312.27 M 66.47 1329.62 C 69.59 1326.42 76.21 1319.17 81.56 1312.27 M 72.11 1329.23 C 75.31 1325.2 76.27 1324.37 81.3 1318.66 M 72.11 1329.23 C 73.62 1327.54 76.26 1323.67 81.3 1318.66 M 77.1 1329.59 C 80.1 1326.63 80.36 1324.65 81.69 1324.31 M 77.1 1329.59 C 78.08 1327.87 80.56 1326.15 81.69 1324.31" fill="none" stroke="#cccccc" stroke-linejoin="round" stroke-linecap="round" stroke-miterlimit="10" pointer-events="all"/><path d="M 1 1283 C 24.4 1278.32 44.11 1284.16 81 1283 M 1 1283 C 31.23 1283.71 59.65 1283.28 81 1283 M 81 1283 C 81.93 1290.18 78.37 1304.72 81 1329.06 M 81 1283 C 81.49 1297.12 81.04 1309.19 81 1329.06 M 81 1329.06 C 53.97 1329.73 31.83 1330 1 1329.06 M 81 1329.06 C 51.02 1328.72 16.89 1327.76 1 1329.06 M 1 1329.06 C 4.01 1314.07 3.67 1290.54 1 1283 M 1 1329.06 C 0.68 1319.7 1.79 1305.28 1 1283" fill="none" stroke="#6881b3" stroke-width="2" stroke-linejoin="round" stroke-linecap="round" stroke-miterlimit="10" pointer-events="all"/><path d="M 25.83 1340.67 C 25.83 1340.67 25.83 1340.67 25.83 1340.67 M 25.83 1340.67 C 25.83 1340.67 25.83 1340.67 25.83 1340.67 M 24.25 1348.57 C 24.54 1347.79 27.63 1342.83 30.81 1341.03 M 24.25 1348.57 C 26.26 1347.66 26.7 1344.31 30.81 1341.03 M 29.24 1348.93 C 31.66 1347.93 30.27 1346.97 35.8 1341.39 M 29.24 1348.93 C 31.92 1346.52 32.9 1345.38 35.8 1341.39 M 34.88 1348.54 C 36.44 1345.14 38.26 1343.99 41.44 1340.99 M 34.88 1348.54 C 36.3 1345.69 39.57 1342.34 41.44 1340.99 M 39.87 1348.9 C 40.87 1348.14 44.06 1343.09 46.43 1341.35 M 39.87 1348.9 C 41.63 1345.85 43.91 1342.36 46.43 1341.35 M 45.51 1348.5 C 47.98 1345.41 48.88 1346.77 52.07 1340.96 M 45.51 1348.5 C 48.35 1345.59 50.15 1344.47 52.07 1340.96 M 50.5 1348.86 C 53.59 1347.26 53.76 1346.36 57.06 1341.32 M 50.5 1348.86 C 51.86 1346.19 54.41 1344.31 57.06 1341.32 M 56.14 1348.47 C 57.33 1346.96 58.3 1346.9 59.42 1344.7 M 56.14 1348.47 C 56.79 1347.69 57.24 1346.93 59.42 1344.7 M 61.13 1348.83 C 61.15 1348.5 61.84 1347.89 62.44 1347.32 M 61.13 1348.83 C 61.44 1348.5 61.86 1348.01 62.44 1347.32" fill="none" stroke="#cccccc" stroke-linejoin="round" stroke-linecap="round" stroke-miterlimit="10" pointer-events="all"/><path d="M 25.5 1341.04 C 35.82 1336.98 42.45 1342.83 56.4 1341.04 M 25.5 1341.04 C 37.62 1342.33 47.93 1341.9 56.4 1341.04 M 56.4 1341.04 C 58.01 1341.08 57.8 1344.43 62.5 1348 M 56.4 1341.04 C 58.57 1343.46 60.11 1344.91 62.5 1348 M 62.5 1348 C 47.64 1348.42 37.68 1348.68 19.5 1348 M 62.5 1348 C 46.9 1348.12 27.16 1347.16 19.5 1348 M 19.5 1348 C 23.16 1346.69 25.38 1341.5 25.5 1341.04 M 19.5 1348 C 20.78 1347.25 22.74 1344.06 25.5 1341.04" fill="none" stroke="#6881b3" stroke-width="2" stroke-linejoin="round" stroke-linecap="round" stroke-miterlimit="10" pointer-events="all"/><path d="M 30.9 1329.18 C 30.9 1329.18 30.9 1329.18 30.9 1329.18 M 30.9 1329.18 C 30.9 1329.18 30.9 1329.18 30.9 1329.18 M 31.3 1334.82 C 31.53 1334.19 33.99 1330.23 36.54 1328.78 M 31.3 1334.82 C 32.9 1334.09 33.26 1331.41 36.54 1328.78 M 31.03 1341.22 C 34.9 1339.61 32.69 1338.08 41.53 1329.14 M 31.03 1341.22 C 35.32 1337.35 36.89 1335.53 41.53 1329.14 M 32.74 1345.35 C 36.35 1337.93 40.52 1335.05 47.17 1328.75 M 32.74 1345.35 C 36.06 1339.09 43.08 1331.83 47.17 1328.75 M 38.38 1344.96 C 40.38 1343.45 46.77 1333.34 51.5 1329.86 M 38.38 1344.96 C 41.92 1338.86 46.46 1331.89 51.5 1329.86 M 43.37 1345.32 C 46.58 1341.29 47.75 1343.07 51.9 1335.51 M 43.37 1345.32 C 47.05 1341.53 49.39 1340.07 51.9 1335.51 M 49.01 1344.92 C 50.25 1344.28 50.32 1343.92 51.64 1341.9 M 49.01 1344.92 C 49.56 1343.85 50.58 1343.1 51.64 1341.9" fill="none" stroke="#cccccc" stroke-linejoin="round" stroke-linecap="round" stroke-miterlimit="10" pointer-events="all"/><path d="M 31 1329.06 C 38.42 1325.15 42.14 1330.99 51 1329.06 M 31 1329.06 C 39.1 1330.48 45.39 1330.05 51 1329.06 M 51 1329.06 C 51.35 1329.86 48.61 1336.31 51 1344.42 M 51 1329.06 C 51.64 1334.15 51.29 1337.66 51 1344.42 M 51 1344.42 C 43.71 1344.68 41.32 1344.95 31 1344.42 M 51 1344.42 C 44.34 1344.83 33.54 1343.87 31 1344.42 M 31 1344.42 C 33.17 1340.82 32.92 1330.67 31 1329.06 M 31 1344.42 C 30.72 1342.07 31.57 1335.85 31 1329.06" fill="none" stroke="#6881b3" stroke-width="2" stroke-linejoin="round" stroke-linecap="round" stroke-miterlimit="10" pointer-events="all"/><path d="M 2.94 1282.51 L 78.99 1284.2 L 73.11 1323.24 L 7.93 1327.97" fill="#ffffff" stroke="none" pointer-events="all"/></g><g><g fill="#0066CC" font-family="&quot;LXGW WenKai&quot;" text-anchor="middle" font-size="12px"><text x="40.5" y="1365.5">客户端</text></g></g></g><g data-cell-id="JoW8kbm1Y7qwJiORCMFz-8"><g><path d="M 411 1144 Q 411 1205 415 1205 Q 419 1205 419 1259.63" fill="none" stroke="rgb(0, 0, 0)" stroke-miterlimit="10" pointer-events="stroke"/><path d="M 419 1264.88 L 415.5 1257.88 L 419 1259.63 L 422.5 1257.88 Z" fill="rgb(0, 0, 0)" stroke="rgb(0, 0, 0)" stroke-miterlimit="10" pointer-events="all"/></g><g data-cell-id="JoW8kbm1Y7qwJiORCMFz-9"><g><g fill="rgb(0, 0, 0)" font-family="&quot;Helvetica&quot;" text-anchor="middle" font-size="11px"><rect fill="rgb(255, 255, 255)" stroke="none" x="380" y="1196" width="78" height="27" stroke-width="0"/><text x="418" y="1206">Web.xml中配置</text><text x="418" y="1219">前端控制器</text></g></g></g></g><g data-cell-id="JoW8kbm1Y7qwJiORCMFz-6"><g><rect x="356" y="1094" width="110" height="50" fill="none" stroke="none" pointer-events="all"/><path d="M 357.99 1094.9 L 468.21 1095.56 L 465.76 1146.3 L 359.11 1141.95" fill="rgb(255, 255, 255)" stroke="none" pointer-events="all"/><path d="M 356 1094 C 385.1 1096.62 418.45 1094.86 466 1094 M 356 1094 C 381.61 1093.86 410.16 1095.86 466 1094 M 466 1094 C 465.52 1108.21 467.68 1122.77 466 1144 M 466 1094 C 465.08 1107.55 466.42 1119.08 466 1144 M 466 1144 C 432.11 1147.53 400.3 1142.79 356 1144 M 466 1144 C 440.34 1144 414.1 1144.82 356 1144 M 356 1144 C 356.73 1130.37 357.45 1111.86 356 1094 M 356 1144 C 356.05 1125.94 353.49 1102.68 356 1094" fill="none" stroke="rgb(0, 0, 0)" stroke-linejoin="round" stroke-linecap="round" stroke-miterlimit="10" pointer-events="all"/></g><g><g fill="rgb(0, 0, 0)" font-family="&quot;LXGW WenKai&quot;" text-anchor="middle" font-size="12px"><text x="410.5" y="1123.5">web.xml</text></g></g></g><g data-cell-id="JoW8kbm1Y7qwJiORCMFz-10"><g><path d="M 762 1340 L 762 1314 L 922 1314 L 922 1340" fill="rgb(255, 255, 255)" stroke="rgb(0, 0, 0)" stroke-miterlimit="10" pointer-events="all"/><path d="M 762 1340 L 762 1400 L 922 1400 L 922 1340" fill="none" stroke="rgb(0, 0, 0)" stroke-miterlimit="10" pointer-events="none"/><path d="M 762 1340 L 922 1340" fill="none" stroke="rgb(0, 0, 0)" stroke-miterlimit="10" pointer-events="none"/></g><g><g fill="rgb(0, 0, 0)" font-family="&quot;Helvetica&quot;" font-weight="bold" text-anchor="middle" font-size="12px"><text x="841.5" y="1331.5">XXXController</text></g></g><g data-cell-id="JoW8kbm1Y7qwJiORCMFz-11"><g><rect x="762" y="1340" width="160" height="26" fill="none" stroke="none" pointer-events="all"/></g><g><g fill="rgb(0, 0, 0)" font-family="&quot;Helvetica&quot;" clip-path="url(#mx-clip-766-1345-152-26-0)" font-size="12px"><text x="767.5" y="1357.5">+ ...</text></g></g></g><g data-cell-id="JoW8kbm1Y7qwJiORCMFz-12"><g><path d="M 762 1370 L 922 1370" fill="none" stroke="rgb(0, 0, 0)" stroke-miterlimit="10" pointer-events="all"/></g></g><g data-cell-id="JoW8kbm1Y7qwJiORCMFz-13"><g><rect x="762" y="1374" width="160" height="26" fill="none" stroke="none" pointer-events="all"/></g><g><g fill="rgb(0, 0, 0)" font-family="&quot;Helvetica&quot;" clip-path="url(#mx-clip-766-1379-152-26-0)" font-size="12px"><text x="767.5" y="1391.5">+ String method()</text></g></g></g></g><g data-cell-id="JoW8kbm1Y7qwJiORCMFz-14"><g><path d="M 499 1315 Q 630.5 1315 630.5 1334 Q 630.5 1353 755.63 1353" fill="none" stroke="rgb(0, 0, 0)" stroke-miterlimit="10" pointer-events="stroke"/><path d="M 760.88 1353 L 753.88 1356.5 L 755.63 1353 L 753.88 1349.5 Z" fill="rgb(0, 0, 0)" stroke="rgb(0, 0, 0)" stroke-miterlimit="10" pointer-events="all"/></g><g data-cell-id="JoW8kbm1Y7qwJiORCMFz-15"><g><g fill="rgb(0, 0, 0)" font-family="&quot;Helvetica&quot;" text-anchor="middle" font-size="11px"><rect fill="rgb(255, 255, 255)" stroke="none" x="584" y="1321" width="112" height="27" stroke-width="0"/><text x="639" y="1331">根据请求路径名称</text><text x="639" y="1344">找到对应的处理器方法</text></g></g></g></g></g></g></g></svg>