<?xml version="1.0" encoding="UTF-8"?>
<!-- Do not edit this file with editors other than draw.io -->
<!DOCTYPE svg PUBLIC "-//W3C//DTD SVG 1.1//EN" "http://www.w3.org/Graphics/SVG/1.1/DTD/svg11.dtd">
<svg xmlns="http://www.w3.org/2000/svg" xmlns:xlink="http://www.w3.org/1999/xlink" version="1.1" width="465px" height="209px" viewBox="-0.5 -0.5 465 209" content="&lt;mxfile host=&quot;app.diagrams.net&quot; modified=&quot;2024-06-27T13:59:45.148Z&quot; agent=&quot;Mozilla/5.0 (Windows NT 10.0; Win64; x64) AppleWebKit/537.36 (KHTML, like Gecko) Chrome/126.0.0.0 Safari/537.36&quot; etag=&quot;OPVu4vrZ5orOF-aHJHtP&quot; version=&quot;24.6.3&quot; type=&quot;github&quot;&gt;&#10;  &lt;diagram id=&quot;23iRSUPoRavnBvh4doch&quot; name=&quot;Page-1&quot;&gt;&#10;    &lt;mxGraphModel dx=&quot;2874&quot; dy=&quot;698&quot; grid=&quot;0&quot; gridSize=&quot;10&quot; guides=&quot;1&quot; tooltips=&quot;1&quot; connect=&quot;1&quot; arrows=&quot;1&quot; fold=&quot;1&quot; page=&quot;0&quot; pageScale=&quot;1&quot; pageWidth=&quot;827&quot; pageHeight=&quot;1169&quot; math=&quot;0&quot; shadow=&quot;0&quot;&gt;&#10;      &lt;root&gt;&#10;        &lt;mxCell id=&quot;0&quot; /&gt;&#10;        &lt;mxCell id=&quot;1&quot; parent=&quot;0&quot; /&gt;&#10;        &lt;mxCell id=&quot;gyem3hlseezmw4Tj-qo7-15&quot; style=&quot;edgeStyle=orthogonalEdgeStyle;curved=1;rounded=0;orthogonalLoop=1;jettySize=auto;exitX=1;exitY=0.5;exitDx=0;exitDy=0;exitPerimeter=0;entryX=0;entryY=0.5;entryDx=0;entryDy=0;&quot; edge=&quot;1&quot; parent=&quot;1&quot; source=&quot;wa0JLTWsgckLO4hLmPQc-1&quot; target=&quot;gyem3hlseezmw4Tj-qo7-8&quot;&gt;&#10;          &lt;mxGeometry relative=&quot;1&quot; as=&quot;geometry&quot; /&gt;&#10;        &lt;/mxCell&gt;&#10;        &lt;mxCell id=&quot;wa0JLTWsgckLO4hLmPQc-1&quot; value=&quot;客户端&quot; style=&quot;fontColor=#0066CC;verticalAlign=top;verticalLabelPosition=bottom;labelPosition=center;align=center;outlineConnect=0;fillColor=#CCCCCC;strokeColor=#6881B3;gradientColor=none;gradientDirection=north;strokeWidth=2;shape=mxgraph.networks.monitor;sketch=1;hachureGap=4;jiggle=2;curveFitting=1;fontFamily=Architects Daughter;fontSource=https%3A%2F%2Ffonts.googleapis.com%2Fcss%3Ffamily%3DArchitects%2BDaughter;&quot; parent=&quot;1&quot; vertex=&quot;1&quot;&gt;&#10;          &lt;mxGeometry x=&quot;-485&quot; y=&quot;537&quot; width=&quot;80&quot; height=&quot;65&quot; as=&quot;geometry&quot; /&gt;&#10;        &lt;/mxCell&gt;&#10;        &lt;mxCell id=&quot;gyem3hlseezmw4Tj-qo7-16&quot; style=&quot;edgeStyle=orthogonalEdgeStyle;curved=1;rounded=0;orthogonalLoop=1;jettySize=auto;exitX=0.75;exitY=1;exitDx=0;exitDy=0;entryX=0;entryY=0.5;entryDx=0;entryDy=0;&quot; edge=&quot;1&quot; parent=&quot;1&quot; source=&quot;gyem3hlseezmw4Tj-qo7-8&quot; target=&quot;gyem3hlseezmw4Tj-qo7-10&quot;&gt;&#10;          &lt;mxGeometry relative=&quot;1&quot; as=&quot;geometry&quot; /&gt;&#10;        &lt;/mxCell&gt;&#10;        &lt;mxCell id=&quot;gyem3hlseezmw4Tj-qo7-8&quot; value=&quot;web.xml&quot; style=&quot;&quot; vertex=&quot;1&quot; parent=&quot;1&quot;&gt;&#10;          &lt;mxGeometry x=&quot;-326&quot; y=&quot;449&quot; width=&quot;110&quot; height=&quot;50&quot; as=&quot;geometry&quot; /&gt;&#10;        &lt;/mxCell&gt;&#10;        &lt;mxCell id=&quot;gyem3hlseezmw4Tj-qo7-9&quot; value=&quot;DispatcherServlet&quot; style=&quot;swimlane;fontStyle=1;align=center;verticalAlign=top;childLayout=stackLayout;horizontal=1;startSize=26;horizontalStack=0;resizeParent=1;resizeParentMax=0;resizeLast=0;collapsible=1;marginBottom=0;&quot; vertex=&quot;1&quot; parent=&quot;1&quot;&gt;&#10;          &lt;mxGeometry x=&quot;-182&quot; y=&quot;568&quot; width=&quot;160&quot; height=&quot;86&quot; as=&quot;geometry&quot; /&gt;&#10;        &lt;/mxCell&gt;&#10;        &lt;mxCell id=&quot;gyem3hlseezmw4Tj-qo7-10&quot; value=&quot;+ ...&quot; style=&quot;text;strokeColor=none;fillColor=none;align=left;verticalAlign=top;spacingLeft=4;spacingRight=4;overflow=hidden;rotatable=0;points=[[0,0.5],[1,0.5]];portConstraint=eastwest;&quot; vertex=&quot;1&quot; parent=&quot;gyem3hlseezmw4Tj-qo7-9&quot;&gt;&#10;          &lt;mxGeometry y=&quot;26&quot; width=&quot;160&quot; height=&quot;26&quot; as=&quot;geometry&quot; /&gt;&#10;        &lt;/mxCell&gt;&#10;        &lt;mxCell id=&quot;gyem3hlseezmw4Tj-qo7-11&quot; value=&quot;&quot; style=&quot;line;strokeWidth=1;fillColor=none;align=left;verticalAlign=middle;spacingTop=-1;spacingLeft=3;spacingRight=3;rotatable=0;labelPosition=right;points=[];portConstraint=eastwest;strokeColor=inherit;&quot; vertex=&quot;1&quot; parent=&quot;gyem3hlseezmw4Tj-qo7-9&quot;&gt;&#10;          &lt;mxGeometry y=&quot;52&quot; width=&quot;160&quot; height=&quot;8&quot; as=&quot;geometry&quot; /&gt;&#10;        &lt;/mxCell&gt;&#10;        &lt;mxCell id=&quot;gyem3hlseezmw4Tj-qo7-12&quot; value=&quot;+ ...&quot; style=&quot;text;strokeColor=none;fillColor=none;align=left;verticalAlign=top;spacingLeft=4;spacingRight=4;overflow=hidden;rotatable=0;points=[[0,0.5],[1,0.5]];portConstraint=eastwest;&quot; vertex=&quot;1&quot; parent=&quot;gyem3hlseezmw4Tj-qo7-9&quot;&gt;&#10;          &lt;mxGeometry y=&quot;60&quot; width=&quot;160&quot; height=&quot;26&quot; as=&quot;geometry&quot; /&gt;&#10;        &lt;/mxCell&gt;&#10;      &lt;/root&gt;&#10;    &lt;/mxGraphModel&gt;&#10;  &lt;/diagram&gt;&#10;&lt;/mxfile&gt;&#10;" resource="https://app.diagrams.net/#Hluguosong%2Fimages%2Fmaster%2Fdiagrams%2Fjava_serve%2Fweb_application%2Fmvc%2FSpringMVC%E6%89%A7%E8%A1%8C%E8%BF%87%E7%A8%8B.svg#%7B%22pageId%22%3A%2223iRSUPoRavnBvh4doch%22%7D"><defs><clipPath id="mx-clip-308-150-152-26-0"><rect x="308" y="150" width="152" height="26"/></clipPath><clipPath id="mx-clip-308-184-152-26-0"><rect x="308" y="184" width="152" height="26"/></clipPath></defs><g><g data-cell-id="0"><g data-cell-id="1"><g data-cell-id="gyem3hlseezmw4Tj-qo7-15"><g><path d="M 81 120.5 Q 120.5 120.5 120.5 72.75 Q 120.5 25 153.63 25" fill="none" stroke="rgb(0, 0, 0)" stroke-miterlimit="10" pointer-events="stroke"/><path d="M 158.88 25 L 151.88 28.5 L 153.63 25 L 151.88 21.5 Z" fill="rgb(0, 0, 0)" stroke="rgb(0, 0, 0)" stroke-miterlimit="10" pointer-events="all"/></g></g><g data-cell-id="wa0JLTWsgckLO4hLmPQc-1"><g><rect x="1" y="88" width="80" height="46.06" fill="none" stroke="none" pointer-events="all"/><path d="M 25.5 146.04 L 56.4 146.04 L 62.5 153 L 19.5 153 Z" fill="none" stroke="none" pointer-events="all"/><rect x="31" y="134.06" width="20" height="15.35" fill="none" stroke="none" pointer-events="all"/><rect x="4" y="91.07" width="73" height="39.92" fill="none" stroke="none" pointer-events="all"/><path d="M 0.83 88.2 C 0.83 88.2 0.83 88.2 0.83 88.2 M 0.83 88.2 C 0.83 88.2 0.83 88.2 0.83 88.2 M 1.22 93.84 C 2.45 92.41 5.16 91.58 6.47 87.8 M 1.22 93.84 C 3.35 92.25 3.25 90.91 6.47 87.8 M 0.96 100.24 C 3.48 98.89 5.08 91.18 11.46 88.16 M 0.96 100.24 C 4.3 96.28 4.38 95.78 11.46 88.16 M 0.7 106.63 C 3.36 102.86 10.18 94.51 17.1 87.77 M 0.7 106.63 C 7.55 99.72 13.39 95.58 17.1 87.77 M 1.1 112.28 C 6.77 103.42 15.77 94.19 22.09 88.13 M 1.1 112.28 C 8.57 104.38 17.16 95.11 22.09 88.13 M 0.84 118.67 C 7.15 103.94 18.05 97.25 27.73 87.73 M 0.84 118.67 C 6.06 110.35 13.81 107.11 27.73 87.73 M 1.23 124.32 C 9.18 114.72 18.87 110.96 32.72 88.09 M 1.23 124.32 C 12.47 113.08 24.49 96.45 32.72 88.09 M 0.97 130.72 C 15.55 113.95 30.5 101.88 38.36 87.7 M 0.97 130.72 C 14.71 116.12 25.32 103.05 38.36 87.7 M 2.67 134.85 C 14.03 123.22 23.22 112.46 43.35 88.06 M 2.67 134.85 C 15.91 120.58 28.12 106.5 43.35 88.06 M 8.32 134.45 C 18.16 123.98 28.82 104.14 48.99 87.66 M 8.32 134.45 C 22.74 119.48 37.01 105.95 48.99 87.66 M 13.31 134.81 C 29.3 121.25 37.05 111.11 53.98 88.02 M 13.31 134.81 C 20.57 124.12 27.75 114.92 53.98 88.02 M 18.95 134.42 C 30.3 125.74 35.17 116.24 59.62 87.63 M 18.95 134.42 C 33.66 116.04 49.2 99.45 59.62 87.63 M 23.94 134.78 C 33.99 115.65 50.61 106.29 64.61 87.99 M 23.94 134.78 C 32.87 124.55 42.12 114.49 64.61 87.99 M 29.58 134.39 C 38.04 123.87 50.12 107.66 69.6 88.35 M 29.58 134.39 C 42.1 121.53 49.85 109.05 69.6 88.35 M 34.57 134.75 C 48.16 114.51 69.68 100.49 75.24 87.95 M 34.57 134.75 C 50.82 118.52 65.54 99.67 75.24 87.95 M 40.21 134.35 C 55.96 121.12 62.46 103.58 80.23 88.31 M 40.21 134.35 C 49.08 124.67 56.58 115.73 80.23 88.31 M 45.2 134.71 C 56.85 128.45 64.24 116.78 81.28 93.2 M 45.2 134.71 C 54.69 126.32 60.81 116.98 81.28 93.2 M 50.84 134.32 C 57.82 126.46 65.78 114.07 81.67 98.85 M 50.84 134.32 C 61.66 123.23 72.34 106.91 81.67 98.85 M 55.83 134.68 C 59.85 123.82 67.89 121.36 81.41 105.24 M 55.83 134.68 C 62.49 125.01 71.83 116.44 81.41 105.24 M 61.47 134.28 C 68.13 129.47 70.23 121.96 81.15 111.64 M 61.47 134.28 C 67.39 126.05 72.37 123.72 81.15 111.64 M 66.46 134.64 C 69.24 130.19 80.07 121.46 81.54 117.28 M 66.46 134.64 C 71.86 130.13 72.4 125.32 81.54 117.28 M 72.1 134.25 C 72.71 131.21 79.67 128.21 81.28 123.68 M 72.1 134.25 C 74.34 130.09 77.16 129.73 81.28 123.68 M 77.09 134.61 C 77.32 131.97 81.25 129.84 81.68 129.32 M 77.09 134.61 C 78.37 133.24 79.27 131.69 81.68 129.32" fill="none" stroke="#cccccc" stroke-linejoin="round" stroke-linecap="round" stroke-miterlimit="10" pointer-events="all"/><path d="M 1 88 C 31.82 87.2 60.19 83.83 81 88 M 1 88 C 25.48 85.51 50.29 86.49 81 88 M 81 88 C 84.91 105.59 80.37 127.84 81 134.06 M 81 88 C 81.29 102.8 83.14 119.77 81 134.06 M 81 134.06 C 52.85 134.95 21.85 132.27 1 134.06 M 81 134.06 C 51.9 134.65 24.4 136.4 1 134.06 M 1 134.06 C 4.39 113.91 4.51 98.99 1 88 M 1 134.06 C -0.03 122.27 -1.6 111.34 1 88" fill="none" stroke="#6881b3" stroke-width="2" stroke-linejoin="round" stroke-linecap="round" stroke-miterlimit="10" pointer-events="all"/><path d="M 25.81 145.68 C 25.81 145.68 25.81 145.68 25.81 145.68 M 25.81 145.68 C 25.81 145.68 25.81 145.68 25.81 145.68 M 24.24 153.59 C 25.77 151.81 29.16 150.76 30.8 146.04 M 24.24 153.59 C 26.89 151.61 26.76 149.93 30.8 146.04 M 29.22 153.95 C 30.79 153.11 31.8 148.29 35.78 146.4 M 29.22 153.95 C 31.31 151.48 31.36 151.16 35.78 146.4 M 34.87 153.56 C 35.67 152.3 38.55 148.73 41.43 146.01 M 34.87 153.56 C 37.74 150.73 40.12 149.29 41.43 146.01 M 39.85 153.92 C 41.43 150.82 44.75 147.57 46.41 146.37 M 39.85 153.92 C 42.13 151.63 45.05 148.58 46.41 146.37 M 45.5 153.52 C 46.12 149.2 48.88 148.95 52.06 145.98 M 45.5 153.52 C 46.64 151.09 49.03 151.18 52.06 145.98 M 50.48 153.88 C 52.38 151.61 55.1 152.18 57.04 146.34 M 50.48 153.88 C 52.65 152.11 55.26 147.7 57.04 146.34 M 56.13 153.49 C 57.52 151.7 59.08 151.19 59.41 149.71 M 56.13 153.49 C 57.56 152.26 58.14 151.37 59.41 149.71 M 61.11 153.85 C 61.56 153.4 61.82 153.08 62.42 152.34 M 61.11 153.85 C 61.51 153.43 61.86 153.03 62.42 152.34" fill="none" stroke="#cccccc" stroke-linejoin="round" stroke-linecap="round" stroke-miterlimit="10" pointer-events="all"/><path d="M 25.5 146.04 C 36.95 146.03 45.95 142.65 56.4 146.04 M 25.5 146.04 C 34.6 144.17 44.02 145.15 56.4 146.04 M 56.4 146.04 C 60.46 148.52 60.78 153.11 62.5 153 M 56.4 146.04 C 58.4 147.87 61.38 150.73 62.5 153 M 62.5 153 C 48.52 154.23 31.7 151.56 19.5 153 M 62.5 153 C 46.32 152.97 31.75 154.72 19.5 153 M 19.5 153 C 23.29 148.9 25.49 147.12 25.5 146.04 M 19.5 153 C 20.74 151.17 21.54 149.75 25.5 146.04" fill="none" stroke="#6881b3" stroke-width="2" stroke-linejoin="round" stroke-linecap="round" stroke-miterlimit="10" pointer-events="all"/><path d="M 30.88 134.2 C 30.88 134.2 30.88 134.2 30.88 134.2 M 30.88 134.2 C 30.88 134.2 30.88 134.2 30.88 134.2 M 31.28 139.84 C 32.51 138.41 35.21 137.58 36.53 133.8 M 31.28 139.84 C 33.4 138.26 33.3 136.91 36.53 133.8 M 31.02 146.24 C 33.53 144.89 35.14 137.18 41.51 134.16 M 31.02 146.24 C 34.35 142.28 34.43 141.78 41.51 134.16 M 32.72 150.37 C 34.75 147.35 40.94 139.74 47.16 133.77 M 32.72 150.37 C 38.92 144.21 44.11 140.83 47.16 133.77 M 38.37 149.98 C 41.53 143.79 48.16 137.28 51.49 134.88 M 38.37 149.98 C 42.92 145.4 48.76 139.3 51.49 134.88 M 43.35 150.34 C 44.16 144.71 47.75 144.39 51.88 140.52 M 43.35 150.34 C 44.85 147.18 47.96 147.29 51.88 140.52 M 49 149.94 C 49.75 149.03 50.84 149.26 51.62 146.92 M 49 149.94 C 49.86 149.23 50.91 147.47 51.62 146.92" fill="none" stroke="#cccccc" stroke-linejoin="round" stroke-linecap="round" stroke-miterlimit="10" pointer-events="all"/><path d="M 31 134.06 C 38.15 134.23 42.85 130.85 51 134.06 M 31 134.06 C 36.68 132.33 42.69 133.32 51 134.06 M 51 134.06 C 53.76 139.62 50.27 148.75 51 149.42 M 51 134.06 C 50.87 138.47 52.29 144.54 51 149.42 M 51 149.42 C 45.83 150.87 37.83 148.19 31 149.42 M 51 149.42 C 42.86 149.01 36.32 150.76 31 149.42 M 31 149.42 C 33.73 141.09 33.82 136.8 31 134.06 M 31 149.42 C 30.48 145.43 29.27 142.12 31 134.06" fill="none" stroke="#6881b3" stroke-width="2" stroke-linejoin="round" stroke-linecap="round" stroke-miterlimit="10" pointer-events="all"/><path d="M 3.51 90.5 L 75.29 93 L 73.57 127.48 L 2.97 128.86" fill="#ffffff" stroke="none" pointer-events="all"/></g><g><g fill="#0066CC" font-family="&quot;Architects Daughter&quot;" text-anchor="middle" font-size="12px"><text x="40.5" y="170.5">客户端</text></g></g></g><g data-cell-id="gyem3hlseezmw4Tj-qo7-16"><g><path d="M 242.5 50 Q 242.5 158 297.63 158" fill="none" stroke="rgb(0, 0, 0)" stroke-miterlimit="10" pointer-events="stroke"/><path d="M 302.88 158 L 295.88 161.5 L 297.63 158 L 295.88 154.5 Z" fill="rgb(0, 0, 0)" stroke="rgb(0, 0, 0)" stroke-miterlimit="10" pointer-events="all"/></g></g><g data-cell-id="gyem3hlseezmw4Tj-qo7-8"><g><rect x="160" y="0" width="110" height="50" fill="rgb(255, 255, 255)" stroke="rgb(0, 0, 0)" pointer-events="all"/></g><g><g fill="rgb(0, 0, 0)" font-family="&quot;Helvetica&quot;" text-anchor="middle" font-size="12px"><text x="214.5" y="29.5">web.xml</text></g></g></g><g data-cell-id="gyem3hlseezmw4Tj-qo7-9"><g><path d="M 304 145 L 304 119 L 464 119 L 464 145" fill="rgb(255, 255, 255)" stroke="rgb(0, 0, 0)" stroke-miterlimit="10" pointer-events="all"/><path d="M 304 145 L 304 205 L 464 205 L 464 145" fill="none" stroke="rgb(0, 0, 0)" stroke-miterlimit="10" pointer-events="none"/><path d="M 304 145 L 464 145" fill="none" stroke="rgb(0, 0, 0)" stroke-miterlimit="10" pointer-events="none"/></g><g><g fill="rgb(0, 0, 0)" font-family="&quot;Helvetica&quot;" font-weight="bold" text-anchor="middle" font-size="12px"><text x="383.5" y="136.5">DispatcherServlet</text></g></g><g data-cell-id="gyem3hlseezmw4Tj-qo7-10"><g><rect x="304" y="145" width="160" height="26" fill="none" stroke="none" pointer-events="all"/></g><g><g fill="rgb(0, 0, 0)" font-family="&quot;Helvetica&quot;" clip-path="url(#mx-clip-308-150-152-26-0)" font-size="12px"><text x="309.5" y="162.5">+ ...</text></g></g></g><g data-cell-id="gyem3hlseezmw4Tj-qo7-11"><g><path d="M 304 175 L 464 175" fill="none" stroke="rgb(0, 0, 0)" stroke-miterlimit="10" pointer-events="all"/></g></g><g data-cell-id="gyem3hlseezmw4Tj-qo7-12"><g><rect x="304" y="179" width="160" height="26" fill="none" stroke="none" pointer-events="all"/></g><g><g fill="rgb(0, 0, 0)" font-family="&quot;Helvetica&quot;" clip-path="url(#mx-clip-308-184-152-26-0)" font-size="12px"><text x="309.5" y="196.5">+ ...</text></g></g></g></g></g></g></g></svg>