<?xml version="1.0" encoding="UTF-8"?>
<!-- Do not edit this file with editors other than draw.io -->
<!DOCTYPE svg PUBLIC "-//W3C//DTD SVG 1.1//EN" "http://www.w3.org/Graphics/SVG/1.1/DTD/svg11.dtd">
<svg xmlns="http://www.w3.org/2000/svg" xmlns:xlink="http://www.w3.org/1999/xlink" version="1.1" width="82px" height="89px" viewBox="-0.5 -0.5 82 89" content="&lt;mxfile host=&quot;app.diagrams.net&quot; modified=&quot;2024-06-27T13:51:36.414Z&quot; agent=&quot;Mozilla/5.0 (Windows NT 10.0; Win64; x64) AppleWebKit/537.36 (KHTML, like Gecko) Chrome/126.0.0.0 Safari/537.36&quot; etag=&quot;yJ2IVYWwmGQvpwMuvDbY&quot; version=&quot;24.6.3&quot; type=&quot;github&quot;&gt;&#10;  &lt;diagram id=&quot;23iRSUPoRavnBvh4doch&quot; name=&quot;Page-1&quot;&gt;&#10;    &lt;mxGraphModel dx=&quot;2474&quot; dy=&quot;698&quot; grid=&quot;0&quot; gridSize=&quot;10&quot; guides=&quot;1&quot; tooltips=&quot;1&quot; connect=&quot;1&quot; arrows=&quot;1&quot; fold=&quot;1&quot; page=&quot;0&quot; pageScale=&quot;1&quot; pageWidth=&quot;827&quot; pageHeight=&quot;1169&quot; math=&quot;0&quot; shadow=&quot;0&quot;&gt;&#10;      &lt;root&gt;&#10;        &lt;mxCell id=&quot;0&quot; /&gt;&#10;        &lt;mxCell id=&quot;1&quot; parent=&quot;0&quot; /&gt;&#10;        &lt;mxCell id=&quot;wa0JLTWsgckLO4hLmPQc-1&quot; value=&quot;客户端&quot; style=&quot;fontColor=#0066CC;verticalAlign=top;verticalLabelPosition=bottom;labelPosition=center;align=center;outlineConnect=0;fillColor=#CCCCCC;strokeColor=#6881B3;gradientColor=none;gradientDirection=north;strokeWidth=2;shape=mxgraph.networks.monitor;sketch=1;hachureGap=4;jiggle=2;curveFitting=1;fontFamily=Architects Daughter;fontSource=https%3A%2F%2Ffonts.googleapis.com%2Fcss%3Ffamily%3DArchitects%2BDaughter;&quot; vertex=&quot;1&quot; parent=&quot;1&quot;&gt;&#10;          &lt;mxGeometry x=&quot;-276&quot; y=&quot;438&quot; width=&quot;80&quot; height=&quot;65&quot; as=&quot;geometry&quot; /&gt;&#10;        &lt;/mxCell&gt;&#10;      &lt;/root&gt;&#10;    &lt;/mxGraphModel&gt;&#10;  &lt;/diagram&gt;&#10;&lt;/mxfile&gt;&#10;" resource="https://app.diagrams.net/#Hluguosong%2Fimages%2Fmaster%2Fdiagrams%2Fjava_serve%2Fweb_application%2Fmvc%2FSpringMVC%E6%89%A7%E8%A1%8C%E8%BF%87%E7%A8%8B.svg#%7B%22pageId%22%3A%2223iRSUPoRavnBvh4doch%22%7D"><defs/><g><g data-cell-id="0"><g data-cell-id="1"><g data-cell-id="wa0JLTWsgckLO4hLmPQc-1"><g><rect x="1" y="1" width="80" height="46.06" fill="none" stroke="none" pointer-events="all"/><path d="M 25.5 59.04 L 56.4 59.04 L 62.5 66 L 19.5 66 Z" fill="none" stroke="none" pointer-events="all"/><rect x="31" y="47.06" width="20" height="15.35" fill="none" stroke="none" pointer-events="all"/><rect x="4" y="4.07" width="73" height="39.92" fill="none" stroke="none" pointer-events="all"/><path d="M 1.22 0.75 C 1.22 0.75 1.22 0.75 1.22 0.75 M 1.22 0.75 C 1.22 0.75 1.22 0.75 1.22 0.75 M 0.96 7.15 C 2.18 5.72 4.89 4.88 6.21 1.11 M 0.96 7.15 C 3.08 5.56 2.98 4.22 6.21 1.11 M 0.7 13.54 C 3.37 12.11 5.07 3.93 11.85 0.71 M 0.7 13.54 C 4.24 9.34 4.33 8.81 11.85 0.71 M 1.09 19.19 C 3.54 15.67 10.15 7.56 16.84 1.07 M 1.09 19.19 C 7.72 12.53 13.35 8.64 16.84 1.07 M 0.83 25.59 C 6.71 16.51 15.91 7.05 22.48 0.68 M 0.83 25.59 C 8.54 17.42 17.37 7.88 22.48 0.68 M 1.22 31.23 C 7.29 16.78 17.94 10.39 27.47 1.04 M 1.22 31.23 C 6.3 23.07 13.91 19.99 27.47 1.04 M 0.96 37.63 C 9.06 27.85 18.9 23.92 33.11 0.65 M 0.96 37.63 C 12.45 26.12 24.71 9.2 33.11 0.65 M 0.7 44.02 C 15.28 27.26 30.23 15.19 38.1 1.01 M 0.7 44.02 C 14.44 29.43 25.05 16.36 38.1 1.01 M 3.06 47.4 C 14.25 35.94 23.29 25.37 43.08 1.37 M 3.06 47.4 C 16.07 33.37 28.08 19.53 43.08 1.37 M 8.05 47.76 C 17.9 37.29 28.55 17.45 48.73 0.97 M 8.05 47.76 C 22.47 32.79 36.74 19.26 48.73 0.97 M 13.69 47.37 C 29.49 34.02 37.05 24.1 53.71 1.33 M 13.69 47.37 C 20.84 36.84 27.88 27.79 53.71 1.33 M 18.68 47.73 C 30.03 39.05 34.9 29.55 59.36 0.94 M 18.68 47.73 C 33.39 29.35 48.93 12.76 59.36 0.94 M 24.32 47.33 C 34.15 28.45 50.56 19.35 64.34 1.3 M 24.32 47.33 C 33.12 37.28 42.22 27.39 64.34 1.3 M 29.31 47.69 C 37.96 36.97 50.23 20.56 69.99 0.9 M 29.31 47.69 C 42.01 34.64 49.94 21.95 69.99 0.9 M 34.95 47.3 C 48.29 27.37 69.56 13.64 74.97 1.26 M 34.95 47.3 C 50.95 31.37 65.43 12.8 74.97 1.26 M 39.94 47.66 C 55.9 34.19 62.61 16.4 80.62 0.87 M 39.94 47.66 C 48.95 37.82 56.6 28.71 80.62 0.87 M 45.58 47.27 C 57.24 41 64.63 29.33 81.67 5.76 M 45.58 47.27 C 55.07 38.87 61.2 29.53 81.67 5.76 M 50.57 47.63 C 57.56 39.77 65.51 27.38 81.4 12.15 M 50.57 47.63 C 61.39 36.54 72.07 20.22 81.4 12.15 M 56.21 47.23 C 60.04 36.59 67.88 34.35 81.14 18.55 M 56.21 47.23 C 62.67 37.8 71.8 29.48 81.14 18.55 M 61.2 47.59 C 68.02 42.59 70.27 34.9 81.54 24.19 M 61.2 47.59 C 67.31 39.15 72.47 36.61 81.54 24.19 M 66.19 47.95 C 68.97 43.5 79.8 34.77 81.28 30.59 M 66.19 47.95 C 71.59 43.44 72.13 38.63 81.28 30.59 M 71.83 47.56 C 72.49 44.31 79.94 41.09 81.67 36.24 M 71.83 47.56 C 74.23 43.1 77.25 42.71 81.67 36.24 M 76.82 47.92 C 77.06 45.28 80.98 43.15 81.41 42.63 M 76.82 47.92 C 78.1 46.55 79 45 81.41 42.63" fill="none" stroke="#cccccc" stroke-linejoin="round" stroke-linecap="round" stroke-miterlimit="10" pointer-events="all"/><path d="M 1 1 C 31.82 0.2 60.19 -3.17 81 1 M 1 1 C 25.48 -1.49 50.29 -0.51 81 1 M 81 1 C 84.91 18.59 80.37 40.84 81 47.06 M 81 1 C 81.29 15.8 83.14 32.77 81 47.06 M 81 47.06 C 52.85 47.95 21.85 45.27 1 47.06 M 81 47.06 C 51.9 47.65 24.4 49.4 1 47.06 M 1 47.06 C 4.39 26.91 4.51 11.99 1 1 M 1 47.06 C -0.03 35.27 -1.6 24.34 1 1" fill="none" stroke="#6881b3" stroke-width="2" stroke-linejoin="round" stroke-linecap="round" stroke-miterlimit="10" pointer-events="all"/><path d="M 25.54 58.99 C 25.54 58.99 25.54 58.99 25.54 58.99 M 25.54 58.99 C 25.54 58.99 25.54 58.99 25.54 58.99 M 23.97 66.9 C 25.5 65.12 28.89 64.07 30.53 59.35 M 23.97 66.9 C 26.62 64.92 26.49 63.24 30.53 59.35 M 29.61 66.51 C 31.18 65.66 32.19 60.85 36.17 58.96 M 29.61 66.51 C 31.7 64.03 31.75 63.72 36.17 58.96 M 34.6 66.87 C 35.4 65.61 38.28 62.04 41.16 59.32 M 34.6 66.87 C 37.48 64.04 39.85 62.6 41.16 59.32 M 40.24 66.47 C 41.82 63.38 45.14 60.12 46.8 58.92 M 40.24 66.47 C 42.52 64.18 45.44 61.13 46.8 58.92 M 45.23 66.83 C 45.85 62.5 48.61 62.26 51.79 59.28 M 45.23 66.83 C 46.38 64.4 48.77 64.49 51.79 59.28 M 50.87 66.44 C 52.57 64.4 55.02 64.9 56.78 59.64 M 50.87 66.44 C 52.82 64.85 55.17 60.88 56.78 59.64 M 55.86 66.8 C 57.53 64.65 59.4 64.03 59.79 62.27 M 55.86 66.8 C 57.58 65.33 58.28 64.26 59.79 62.27 M 61.5 66.4 C 61.72 66.18 61.85 66.02 62.16 65.65 M 61.5 66.4 C 61.7 66.19 61.87 65.99 62.16 65.65" fill="none" stroke="#cccccc" stroke-linejoin="round" stroke-linecap="round" stroke-miterlimit="10" pointer-events="all"/><path d="M 25.5 59.04 C 36.95 59.03 45.95 55.65 56.4 59.04 M 25.5 59.04 C 34.6 57.17 44.02 58.15 56.4 59.04 M 56.4 59.04 C 60.46 61.52 60.78 66.11 62.5 66 M 56.4 59.04 C 58.4 60.87 61.38 63.73 62.5 66 M 62.5 66 C 48.52 67.23 31.7 64.56 19.5 66 M 62.5 66 C 46.32 65.97 31.75 67.72 19.5 66 M 19.5 66 C 23.29 61.9 25.49 60.12 25.5 59.04 M 19.5 66 C 20.74 64.17 21.54 62.75 25.5 59.04" fill="none" stroke="#6881b3" stroke-width="2" stroke-linejoin="round" stroke-linecap="round" stroke-miterlimit="10" pointer-events="all"/><path d="M 31.27 46.75 C 31.27 46.75 31.27 46.75 31.27 46.75 M 31.27 46.75 C 31.27 46.75 31.27 46.75 31.27 46.75 M 31.01 53.15 C 32.24 51.72 34.95 50.89 36.26 47.11 M 31.01 53.15 C 33.13 51.56 33.03 50.22 36.26 47.11 M 30.75 59.55 C 33.42 58.11 35.13 49.93 41.9 46.72 M 30.75 59.55 C 34.29 55.34 34.38 54.81 41.9 46.72 M 33.11 62.92 C 34.93 60.16 40.91 52.78 46.89 47.08 M 33.11 62.92 C 39.09 57.02 44.06 53.89 46.89 47.08 M 38.1 63.28 C 41.47 56.88 48.3 50.14 51.88 47.44 M 38.1 63.28 C 42.9 58.43 48.96 52.07 51.88 47.44 M 43.74 62.89 C 44.49 57.7 47.8 57.4 51.61 53.83 M 43.74 62.89 C 45.12 59.98 47.99 60.08 51.61 53.83 M 48.73 63.25 C 49.68 62.12 51.04 62.4 52.01 59.48 M 48.73 63.25 C 49.81 62.37 51.12 60.16 52.01 59.48" fill="none" stroke="#cccccc" stroke-linejoin="round" stroke-linecap="round" stroke-miterlimit="10" pointer-events="all"/><path d="M 31 47.06 C 38.15 47.23 42.85 43.85 51 47.06 M 31 47.06 C 36.68 45.33 42.69 46.32 51 47.06 M 51 47.06 C 53.76 52.62 50.27 61.75 51 62.42 M 51 47.06 C 50.87 51.47 52.29 57.54 51 62.42 M 51 62.42 C 45.83 63.87 37.83 61.19 31 62.42 M 51 62.42 C 42.86 62.01 36.32 63.76 31 62.42 M 31 62.42 C 33.73 54.09 33.82 49.8 31 47.06 M 31 62.42 C 30.48 58.43 29.27 55.12 31 47.06" fill="none" stroke="#6881b3" stroke-width="2" stroke-linejoin="round" stroke-linecap="round" stroke-miterlimit="10" pointer-events="all"/><path d="M 3.51 3.5 L 75.29 6 L 73.57 40.48 L 2.97 41.86" fill="#ffffff" stroke="none" pointer-events="all"/></g><g><g fill="#0066CC" font-family="&quot;Architects Daughter&quot;" text-anchor="middle" font-size="12px"><text x="40.5" y="83.5">客户端</text></g></g></g></g></g></g></svg>