<?xml version="1.0" encoding="UTF-8"?>
<!-- Do not edit this file with editors other than draw.io -->
<!DOCTYPE svg PUBLIC "-//W3C//DTD SVG 1.1//EN" "http://www.w3.org/Graphics/SVG/1.1/DTD/svg11.dtd">
<svg xmlns="http://www.w3.org/2000/svg" xmlns:xlink="http://www.w3.org/1999/xlink" version="1.1" width="792px" height="1002px" viewBox="-0.5 -0.5 792 1002" content="&lt;mxfile host=&quot;app.diagrams.net&quot; agent=&quot;Mozilla/5.0 (Windows NT 10.0; Win64; x64) AppleWebKit/537.36 (KHTML, like Gecko) Chrome/127.0.0.0 Safari/537.36&quot; version=&quot;24.7.6&quot;&gt;&#10;  &lt;diagram id=&quot;23iRSUPoRavnBvh4doch&quot; name=&quot;Page-1&quot;&gt;&#10;    &lt;mxGraphModel dx=&quot;2021&quot; dy=&quot;725&quot; grid=&quot;0&quot; gridSize=&quot;10&quot; guides=&quot;1&quot; tooltips=&quot;1&quot; connect=&quot;1&quot; arrows=&quot;1&quot; fold=&quot;1&quot; page=&quot;0&quot; pageScale=&quot;1&quot; pageWidth=&quot;827&quot; pageHeight=&quot;1169&quot; background=&quot;#ffffff&quot; math=&quot;0&quot; shadow=&quot;0&quot;&gt;&#10;      &lt;root&gt;&#10;        &lt;mxCell id=&quot;0&quot; /&gt;&#10;        &lt;mxCell id=&quot;1&quot; parent=&quot;0&quot; /&gt;&#10;        &lt;mxCell id=&quot;gyem3hlseezmw4Tj-qo7-34&quot; value=&quot;Vertical Container&quot; style=&quot;swimlane;sketch=1;hachureGap=4;jiggle=2;curveFitting=1;fontFamily=LXGW WenKai;fontSize=15;strokeColor=#E07A5F;align=center;verticalAlign=middle;fontColor=#393C56;fontStyle=1;fillColor=#F2CC8F;fontSource=https%3A%2F%2Ffonts.googleapis.com%2Fcss%3Ffamily%3DArchitects%2BDaughter;labelBackgroundColor=none;&quot; parent=&quot;1&quot; vertex=&quot;1&quot;&gt;&#10;          &lt;mxGeometry x=&quot;-527&quot; y=&quot;362&quot; width=&quot;791&quot; height=&quot;1001&quot; as=&quot;geometry&quot; /&gt;&#10;        &lt;/mxCell&gt;&#10;        &lt;mxCell id=&quot;gyem3hlseezmw4Tj-qo7-24&quot; value=&quot;springmvc-servlet.xml&quot; style=&quot;fontFamily=LXGW WenKai;sketch=1;curveFitting=1;jiggle=2;&quot; parent=&quot;gyem3hlseezmw4Tj-qo7-34&quot; vertex=&quot;1&quot;&gt;&#10;          &lt;mxGeometry x=&quot;332&quot; y=&quot;401&quot; width=&quot;165&quot; height=&quot;50&quot; as=&quot;geometry&quot; /&gt;&#10;        &lt;/mxCell&gt;&#10;        &lt;mxCell id=&quot;gyem3hlseezmw4Tj-qo7-26&quot; value=&quot;hello.thymeleaf&quot; style=&quot;shape=mxgraph.basic.document;fontFamily=LXGW WenKai;sketch=1;curveFitting=1;jiggle=2;&quot; parent=&quot;gyem3hlseezmw4Tj-qo7-34&quot; vertex=&quot;1&quot;&gt;&#10;          &lt;mxGeometry x=&quot;340&quot; y=&quot;586&quot; width=&quot;163&quot; height=&quot;100&quot; as=&quot;geometry&quot; /&gt;&#10;        &lt;/mxCell&gt;&#10;        &lt;mxCell id=&quot;gyem3hlseezmw4Tj-qo7-27&quot; style=&quot;edgeStyle=orthogonalEdgeStyle;curved=1;rounded=0;orthogonalLoop=1;jettySize=auto;exitX=0.64;exitY=0.974;exitDx=0;exitDy=0;entryX=0.5;entryY=0;entryDx=0;entryDy=0;entryPerimeter=0;fontFamily=LXGW WenKai;sketch=1;curveFitting=1;jiggle=2;exitPerimeter=0;&quot; parent=&quot;gyem3hlseezmw4Tj-qo7-34&quot; source=&quot;gyem3hlseezmw4Tj-qo7-33&quot; target=&quot;gyem3hlseezmw4Tj-qo7-26&quot; edge=&quot;1&quot;&gt;&#10;          &lt;mxGeometry relative=&quot;1&quot; as=&quot;geometry&quot; /&gt;&#10;        &lt;/mxCell&gt;&#10;        &lt;mxCell id=&quot;qSzuw7H5UFeYLlG2jMTL-2&quot; value=&quot;&quot; style=&quot;edgeStyle=orthogonalEdgeStyle;curved=1;rounded=0;orthogonalLoop=1;jettySize=auto;exitX=0.5;exitY=1;exitDx=0;exitDy=0;entryX=0.516;entryY=0.064;entryDx=0;entryDy=0;entryPerimeter=0;fontFamily=LXGW WenKai;sketch=1;curveFitting=1;jiggle=2;&quot; edge=&quot;1&quot; parent=&quot;gyem3hlseezmw4Tj-qo7-34&quot; source=&quot;gyem3hlseezmw4Tj-qo7-24&quot; target=&quot;gyem3hlseezmw4Tj-qo7-33&quot;&gt;&#10;          &lt;mxGeometry relative=&quot;1&quot; as=&quot;geometry&quot;&gt;&#10;            &lt;mxPoint x=&quot;-71&quot; y=&quot;763&quot; as=&quot;sourcePoint&quot; /&gt;&#10;            &lt;mxPoint x=&quot;178&quot; y=&quot;666&quot; as=&quot;targetPoint&quot; /&gt;&#10;          &lt;/mxGeometry&gt;&#10;        &lt;/mxCell&gt;&#10;        &lt;mxCell id=&quot;gyem3hlseezmw4Tj-qo7-33&quot; value=&quot;根据视图解析器配置，找到对应视图&quot; style=&quot;text;align=center;verticalAlign=middle;resizable=0;points=[];autosize=1;strokeColor=none;fillColor=none;fontFamily=LXGW WenKai;sketch=1;curveFitting=1;jiggle=2;&quot; parent=&quot;gyem3hlseezmw4Tj-qo7-34&quot; vertex=&quot;1&quot;&gt;&#10;          &lt;mxGeometry x=&quot;340&quot; y=&quot;495&quot; width=&quot;210&quot; height=&quot;26&quot; as=&quot;geometry&quot; /&gt;&#10;        &lt;/mxCell&gt;&#10;        &lt;mxCell id=&quot;gyem3hlseezmw4Tj-qo7-15&quot; style=&quot;edgeStyle=orthogonalEdgeStyle;curved=1;rounded=0;orthogonalLoop=1;jettySize=auto;exitX=1;exitY=0.5;exitDx=0;exitDy=0;exitPerimeter=0;entryX=0;entryY=0.5;entryDx=0;entryDy=0;fontFamily=LXGW WenKai;sketch=1;curveFitting=1;jiggle=2;&quot; parent=&quot;1&quot; source=&quot;wa0JLTWsgckLO4hLmPQc-1&quot; target=&quot;gyem3hlseezmw4Tj-qo7-8&quot; edge=&quot;1&quot;&gt;&#10;          &lt;mxGeometry relative=&quot;1&quot; as=&quot;geometry&quot; /&gt;&#10;        &lt;/mxCell&gt;&#10;        &lt;mxCell id=&quot;wa0JLTWsgckLO4hLmPQc-1&quot; value=&quot;客户端&quot; style=&quot;fontColor=#0066CC;verticalAlign=top;verticalLabelPosition=bottom;labelPosition=center;align=center;outlineConnect=0;fillColor=#CCCCCC;strokeColor=#6881B3;gradientColor=none;gradientDirection=north;strokeWidth=2;shape=mxgraph.networks.monitor;sketch=1;hachureGap=4;jiggle=2;curveFitting=1;fontFamily=LXGW WenKai;&quot; parent=&quot;1&quot; vertex=&quot;1&quot;&gt;&#10;          &lt;mxGeometry x=&quot;-485&quot; y=&quot;537&quot; width=&quot;80&quot; height=&quot;65&quot; as=&quot;geometry&quot; /&gt;&#10;        &lt;/mxCell&gt;&#10;        &lt;mxCell id=&quot;gyem3hlseezmw4Tj-qo7-16&quot; style=&quot;edgeStyle=orthogonalEdgeStyle;curved=1;rounded=0;orthogonalLoop=1;jettySize=auto;exitX=0.75;exitY=1;exitDx=0;exitDy=0;entryX=0;entryY=0.5;entryDx=0;entryDy=0;fontFamily=LXGW WenKai;sketch=1;curveFitting=1;jiggle=2;&quot; parent=&quot;1&quot; source=&quot;gyem3hlseezmw4Tj-qo7-8&quot; target=&quot;gyem3hlseezmw4Tj-qo7-10&quot; edge=&quot;1&quot;&gt;&#10;          &lt;mxGeometry relative=&quot;1&quot; as=&quot;geometry&quot; /&gt;&#10;        &lt;/mxCell&gt;&#10;        &lt;mxCell id=&quot;gyem3hlseezmw4Tj-qo7-8&quot; value=&quot;web.xml&quot; style=&quot;fontFamily=LXGW WenKai;sketch=1;curveFitting=1;jiggle=2;&quot; parent=&quot;1&quot; vertex=&quot;1&quot;&gt;&#10;          &lt;mxGeometry x=&quot;-345&quot; y=&quot;455&quot; width=&quot;110&quot; height=&quot;50&quot; as=&quot;geometry&quot; /&gt;&#10;        &lt;/mxCell&gt;&#10;        &lt;mxCell id=&quot;gyem3hlseezmw4Tj-qo7-9&quot; value=&quot;DispatcherServlet&quot; style=&quot;swimlane;fontStyle=1;align=center;verticalAlign=top;childLayout=stackLayout;horizontal=1;startSize=26;horizontalStack=0;resizeParent=1;resizeParentMax=0;resizeLast=0;collapsible=1;marginBottom=0;fontFamily=LXGW WenKai;sketch=1;curveFitting=1;jiggle=2;&quot; parent=&quot;1&quot; vertex=&quot;1&quot;&gt;&#10;          &lt;mxGeometry x=&quot;-195&quot; y=&quot;608&quot; width=&quot;160&quot; height=&quot;86&quot; as=&quot;geometry&quot; /&gt;&#10;        &lt;/mxCell&gt;&#10;        &lt;mxCell id=&quot;gyem3hlseezmw4Tj-qo7-10&quot; value=&quot;+ ...&quot; style=&quot;text;strokeColor=none;fillColor=none;align=left;verticalAlign=top;spacingLeft=4;spacingRight=4;overflow=hidden;rotatable=0;points=[[0,0.5],[1,0.5]];portConstraint=eastwest;fontFamily=LXGW WenKai;sketch=1;curveFitting=1;jiggle=2;&quot; parent=&quot;gyem3hlseezmw4Tj-qo7-9&quot; vertex=&quot;1&quot;&gt;&#10;          &lt;mxGeometry y=&quot;26&quot; width=&quot;160&quot; height=&quot;26&quot; as=&quot;geometry&quot; /&gt;&#10;        &lt;/mxCell&gt;&#10;        &lt;mxCell id=&quot;gyem3hlseezmw4Tj-qo7-11&quot; value=&quot;&quot; style=&quot;line;strokeWidth=1;fillColor=none;align=left;verticalAlign=middle;spacingTop=-1;spacingLeft=3;spacingRight=3;rotatable=0;labelPosition=right;points=[];portConstraint=eastwest;strokeColor=inherit;fontFamily=LXGW WenKai;sketch=1;curveFitting=1;jiggle=2;&quot; parent=&quot;gyem3hlseezmw4Tj-qo7-9&quot; vertex=&quot;1&quot;&gt;&#10;          &lt;mxGeometry y=&quot;52&quot; width=&quot;160&quot; height=&quot;8&quot; as=&quot;geometry&quot; /&gt;&#10;        &lt;/mxCell&gt;&#10;        &lt;mxCell id=&quot;gyem3hlseezmw4Tj-qo7-12&quot; value=&quot;+ ...&quot; style=&quot;text;strokeColor=none;fillColor=none;align=left;verticalAlign=top;spacingLeft=4;spacingRight=4;overflow=hidden;rotatable=0;points=[[0,0.5],[1,0.5]];portConstraint=eastwest;fontFamily=LXGW WenKai;sketch=1;curveFitting=1;jiggle=2;&quot; parent=&quot;gyem3hlseezmw4Tj-qo7-9&quot; vertex=&quot;1&quot;&gt;&#10;          &lt;mxGeometry y=&quot;60&quot; width=&quot;160&quot; height=&quot;26&quot; as=&quot;geometry&quot; /&gt;&#10;        &lt;/mxCell&gt;&#10;        &lt;mxCell id=&quot;gyem3hlseezmw4Tj-qo7-18&quot; value=&quot;HelloController&quot; style=&quot;swimlane;fontStyle=1;align=center;verticalAlign=top;childLayout=stackLayout;horizontal=1;startSize=26;horizontalStack=0;resizeParent=1;resizeParentMax=0;resizeLast=0;collapsible=1;marginBottom=0;fontFamily=LXGW WenKai;sketch=1;curveFitting=1;jiggle=2;&quot; parent=&quot;1&quot; vertex=&quot;1&quot;&gt;&#10;          &lt;mxGeometry x=&quot;-6&quot; y=&quot;451&quot; width=&quot;160&quot; height=&quot;86&quot; as=&quot;geometry&quot; /&gt;&#10;        &lt;/mxCell&gt;&#10;        &lt;mxCell id=&quot;gyem3hlseezmw4Tj-qo7-19&quot; value=&quot;+ ...&quot; style=&quot;text;strokeColor=none;fillColor=none;align=left;verticalAlign=top;spacingLeft=4;spacingRight=4;overflow=hidden;rotatable=0;points=[[0,0.5],[1,0.5]];portConstraint=eastwest;fontFamily=LXGW WenKai;sketch=1;curveFitting=1;jiggle=2;&quot; parent=&quot;gyem3hlseezmw4Tj-qo7-18&quot; vertex=&quot;1&quot;&gt;&#10;          &lt;mxGeometry y=&quot;26&quot; width=&quot;160&quot; height=&quot;26&quot; as=&quot;geometry&quot; /&gt;&#10;        &lt;/mxCell&gt;&#10;        &lt;mxCell id=&quot;gyem3hlseezmw4Tj-qo7-20&quot; value=&quot;&quot; style=&quot;line;strokeWidth=1;fillColor=none;align=left;verticalAlign=middle;spacingTop=-1;spacingLeft=3;spacingRight=3;rotatable=0;labelPosition=right;points=[];portConstraint=eastwest;strokeColor=inherit;fontFamily=LXGW WenKai;sketch=1;curveFitting=1;jiggle=2;&quot; parent=&quot;gyem3hlseezmw4Tj-qo7-18&quot; vertex=&quot;1&quot;&gt;&#10;          &lt;mxGeometry y=&quot;52&quot; width=&quot;160&quot; height=&quot;8&quot; as=&quot;geometry&quot; /&gt;&#10;        &lt;/mxCell&gt;&#10;        &lt;mxCell id=&quot;gyem3hlseezmw4Tj-qo7-21&quot; value=&quot;+ ...&quot; style=&quot;text;strokeColor=none;fillColor=none;align=left;verticalAlign=top;spacingLeft=4;spacingRight=4;overflow=hidden;rotatable=0;points=[[0,0.5],[1,0.5]];portConstraint=eastwest;fontFamily=LXGW WenKai;sketch=1;curveFitting=1;jiggle=2;&quot; parent=&quot;gyem3hlseezmw4Tj-qo7-18&quot; vertex=&quot;1&quot;&gt;&#10;          &lt;mxGeometry y=&quot;60&quot; width=&quot;160&quot; height=&quot;26&quot; as=&quot;geometry&quot; /&gt;&#10;        &lt;/mxCell&gt;&#10;        &lt;mxCell id=&quot;gyem3hlseezmw4Tj-qo7-23&quot; style=&quot;edgeStyle=orthogonalEdgeStyle;curved=1;rounded=0;orthogonalLoop=1;jettySize=auto;entryX=0.394;entryY=1.038;entryDx=0;entryDy=0;entryPerimeter=0;fontFamily=LXGW WenKai;sketch=1;curveFitting=1;jiggle=2;&quot; parent=&quot;1&quot; source=&quot;gyem3hlseezmw4Tj-qo7-31&quot; target=&quot;gyem3hlseezmw4Tj-qo7-21&quot; edge=&quot;1&quot;&gt;&#10;          &lt;mxGeometry relative=&quot;1&quot; as=&quot;geometry&quot; /&gt;&#10;        &lt;/mxCell&gt;&#10;        &lt;mxCell id=&quot;gyem3hlseezmw4Tj-qo7-25&quot; style=&quot;edgeStyle=orthogonalEdgeStyle;curved=1;rounded=0;orthogonalLoop=1;jettySize=auto;exitX=0.608;exitY=1.013;exitDx=0;exitDy=0;entryX=0.5;entryY=0;entryDx=0;entryDy=0;fontFamily=LXGW WenKai;sketch=1;curveFitting=1;jiggle=2;exitPerimeter=0;&quot; parent=&quot;1&quot; source=&quot;gyem3hlseezmw4Tj-qo7-12&quot; target=&quot;gyem3hlseezmw4Tj-qo7-24&quot; edge=&quot;1&quot;&gt;&#10;          &lt;mxGeometry relative=&quot;1&quot; as=&quot;geometry&quot;&gt;&#10;            &lt;Array as=&quot;points&quot;&gt;&#10;              &lt;mxPoint x=&quot;-98&quot; y=&quot;734&quot; /&gt;&#10;              &lt;mxPoint x=&quot;-108&quot; y=&quot;734&quot; /&gt;&#10;              &lt;mxPoint x=&quot;-108&quot; y=&quot;763&quot; /&gt;&#10;            &lt;/Array&gt;&#10;          &lt;/mxGeometry&gt;&#10;        &lt;/mxCell&gt;&#10;        &lt;mxCell id=&quot;gyem3hlseezmw4Tj-qo7-30&quot; value=&quot;web.xml中url-pattern配置的是 /&amp;#xa;因此所有请求都先经过DispatcherServlet&quot; style=&quot;text;align=center;verticalAlign=middle;resizable=0;points=[];autosize=1;strokeColor=none;fillColor=none;fontFamily=LXGW WenKai;sketch=1;curveFitting=1;jiggle=2;&quot; parent=&quot;1&quot; vertex=&quot;1&quot;&gt;&#10;          &lt;mxGeometry x=&quot;-402&quot; y=&quot;410&quot; width=&quot;238&quot; height=&quot;41&quot; as=&quot;geometry&quot; /&gt;&#10;        &lt;/mxCell&gt;&#10;        &lt;mxCell id=&quot;gyem3hlseezmw4Tj-qo7-32&quot; value=&quot;Controller返回逻辑视图名称&quot; style=&quot;text;align=center;verticalAlign=middle;resizable=0;points=[];autosize=1;strokeColor=none;fillColor=none;fontFamily=LXGW WenKai;sketch=1;curveFitting=1;jiggle=2;&quot; parent=&quot;1&quot; vertex=&quot;1&quot;&gt;&#10;          &lt;mxGeometry x=&quot;-16&quot; y=&quot;417.5&quot; width=&quot;170&quot; height=&quot;26&quot; as=&quot;geometry&quot; /&gt;&#10;        &lt;/mxCell&gt;&#10;        &lt;mxCell id=&quot;qSzuw7H5UFeYLlG2jMTL-1&quot; value=&quot;&quot; style=&quot;edgeStyle=orthogonalEdgeStyle;curved=1;rounded=0;orthogonalLoop=1;jettySize=auto;exitX=1;exitY=0.5;exitDx=0;exitDy=0;entryX=0.394;entryY=1.038;entryDx=0;entryDy=0;entryPerimeter=0;fontFamily=LXGW WenKai;sketch=1;curveFitting=1;jiggle=2;&quot; edge=&quot;1&quot; parent=&quot;1&quot; source=&quot;gyem3hlseezmw4Tj-qo7-10&quot; target=&quot;gyem3hlseezmw4Tj-qo7-31&quot;&gt;&#10;          &lt;mxGeometry relative=&quot;1&quot; as=&quot;geometry&quot;&gt;&#10;            &lt;mxPoint x=&quot;-35&quot; y=&quot;647&quot; as=&quot;sourcePoint&quot; /&gt;&#10;            &lt;mxPoint x=&quot;57&quot; y=&quot;538&quot; as=&quot;targetPoint&quot; /&gt;&#10;          &lt;/mxGeometry&gt;&#10;        &lt;/mxCell&gt;&#10;        &lt;mxCell id=&quot;gyem3hlseezmw4Tj-qo7-31&quot; value=&quot;DispatcherServlet找到对应Controller&quot; style=&quot;text;align=center;verticalAlign=middle;resizable=0;points=[];autosize=1;strokeColor=none;fillColor=none;fontFamily=LXGW WenKai;sketch=1;curveFitting=1;jiggle=2;&quot; parent=&quot;1&quot; vertex=&quot;1&quot;&gt;&#10;          &lt;mxGeometry x=&quot;-74&quot; y=&quot;576&quot; width=&quot;223&quot; height=&quot;26&quot; as=&quot;geometry&quot; /&gt;&#10;        &lt;/mxCell&gt;&#10;      &lt;/root&gt;&#10;    &lt;/mxGraphModel&gt;&#10;  &lt;/diagram&gt;&#10;&lt;/mxfile&gt;&#10;" resource="https://app.diagrams.net/#Hluguosong%2Fimages%2Fmaster%2Fdiagrams%2Fjava_serve%2Fweb_application%2Fmvc%2FSpringMVC%E6%89%A7%E8%A1%8C%E8%BF%87%E7%A8%8B.svg#%7B%22pageId%22%3A%2223iRSUPoRavnBvh4doch%22%7D" style="background-color: rgb(255, 255, 255);"><defs><clipPath id="mx-clip-336-277-152-26-0"><rect x="336" y="277" width="152" height="26"/></clipPath><clipPath id="mx-clip-336-311-152-26-0"><rect x="336" y="311" width="152" height="26"/></clipPath><clipPath id="mx-clip-525-120-152-26-0"><rect x="525" y="120" width="152" height="26"/></clipPath><clipPath id="mx-clip-525-154-152-26-0"><rect x="525" y="154" width="152" height="26"/></clipPath></defs><rect fill="#ffffff" width="100%" height="100%" x="0" y="0"/><g><g data-cell-id="0"><g data-cell-id="1"><g data-cell-id="gyem3hlseezmw4Tj-qo7-34"><g><path d="M 0 23 L 0 0 L 791 0 L 791 23" fill="none" stroke="none" pointer-events="all"/><path d="M 0 0 C 0 0 0 0 0 0 M 0 0 C 0 0 0 0 0 0 M -0.26 6.4 C 1.01 3.77 3.27 0.13 4.99 0.36 M -0.26 6.4 C 1.5 4.34 4.23 2 4.99 0.36 M 0.13 12.04 C 2.22 6.61 10.13 0.89 10.63 -0.03 M 0.13 12.04 C 2.04 9.26 6.05 2.92 10.63 -0.03 M -0.13 18.44 C 7.34 15.36 11.68 3.77 15.62 0.33 M -0.13 18.44 C 6.71 14.13 11.1 5.94 15.62 0.33 M 0.92 23.33 C 8.67 21.79 6.59 16.89 21.26 -0.07 M 0.92 23.33 C 9.11 15.33 13.54 9.43 21.26 -0.07 M 5.91 23.69 C 10.59 12.8 20.89 9.91 26.25 0.29 M 5.91 23.69 C 14.39 14.55 22.9 5.88 26.25 0.29 M 11.55 23.29 C 20.93 16.37 22.47 9.57 31.89 -0.1 M 11.55 23.29 C 19.24 14.31 22.68 9.53 31.89 -0.1 M 16.54 23.65 C 17.33 16.75 28.59 17.11 36.88 0.26 M 16.54 23.65 C 21.49 17.41 29.83 8.89 36.88 0.26 M 22.18 23.26 C 27.42 19.96 29.56 13.27 42.52 -0.14 M 22.18 23.26 C 26.61 19.39 33.62 12.26 42.52 -0.14 M 27.17 23.62 C 30.44 15.7 37.86 7.09 47.51 0.22 M 27.17 23.62 C 31.31 19.56 36.59 12.37 47.51 0.22 M 32.81 23.22 C 37.73 14.48 42.56 14.3 53.15 -0.17 M 32.81 23.22 C 38.85 18.74 44.9 13.41 53.15 -0.17 M 37.8 23.58 C 44.97 18.38 49.5 10.23 58.14 0.19 M 37.8 23.58 C 40.34 18.86 46.96 13.58 58.14 0.19 M 42.79 23.94 C 45.54 17.99 52.34 12.51 63.78 -0.21 M 42.79 23.94 C 48.31 17.49 54.31 7.29 63.78 -0.21 M 48.43 23.55 C 52.39 14.26 61.91 11.29 68.77 0.15 M 48.43 23.55 C 54.73 15.72 63.81 6.58 68.77 0.15 M 53.42 23.91 C 61.56 12.09 68.8 8.1 74.41 -0.24 M 53.42 23.91 C 59.92 16.35 67.95 4.56 74.41 -0.24 M 59.06 23.51 C 64.41 16.78 68.93 12.32 79.4 0.12 M 59.06 23.51 C 65.87 15.86 70.35 9.4 79.4 0.12 M 64.05 23.87 C 74.14 18.37 75.45 7.39 85.04 -0.28 M 64.05 23.87 C 69.13 16.65 77.21 9.75 85.04 -0.28 M 69.69 23.48 C 70.96 15.2 79.76 9.51 90.03 0.08 M 69.69 23.48 C 77.9 12.79 84.21 7.38 90.03 0.08 M 74.68 23.84 C 81.14 19.67 92.1 4.63 95.67 -0.31 M 74.68 23.84 C 82.88 14.69 89.6 8.26 95.67 -0.31 M 80.32 23.45 C 84.43 11.7 97.26 8.6 100.66 0.05 M 80.32 23.45 C 88.1 16.46 95.27 9.62 100.66 0.05 M 85.31 23.81 C 95.71 19.61 97.51 8.75 106.3 -0.34 M 85.31 23.81 C 92.27 15.37 98.55 10.36 106.3 -0.34 M 90.95 23.41 C 102.01 11.88 110.11 3.1 111.29 0.02 M 90.95 23.41 C 98.63 13.94 103.78 7.23 111.29 0.02 M 95.94 23.77 C 102.22 11.91 111.79 4.03 116.27 0.38 M 95.94 23.77 C 103.31 17.07 108.97 9.77 116.27 0.38 M 101.58 23.38 C 105.56 14.39 114.88 11.55 121.92 -0.02 M 101.58 23.38 C 105.65 16.15 111.18 13.16 121.92 -0.02 M 106.57 23.74 C 113.39 14.95 116.06 11.55 126.91 0.34 M 106.57 23.74 C 112.21 15.42 122.72 7.39 126.91 0.34 M 112.21 23.34 C 116.11 20.21 124.61 12.43 132.55 -0.05 M 112.21 23.34 C 118.15 16.82 129.3 8.02 132.55 -0.05 M 117.2 23.7 C 122.59 12.47 133.84 10.24 137.54 0.31 M 117.2 23.7 C 123.24 15.3 133.5 5.39 137.54 0.31 M 122.84 23.31 C 126.88 16.45 131.49 13.05 143.18 -0.09 M 122.84 23.31 C 130.29 18.01 134.21 12.09 143.18 -0.09 M 127.83 23.67 C 135.03 11.43 140.61 8.21 148.17 0.27 M 127.83 23.67 C 135.69 16.98 140.56 6.93 148.17 0.27 M 133.47 23.27 C 136.38 17.37 150.26 5.49 153.81 -0.12 M 133.47 23.27 C 140.07 13.66 147.46 5.1 153.81 -0.12 M 138.46 23.63 C 141.31 20.85 151.47 16.78 158.8 0.24 M 138.46 23.63 C 146.28 15.67 152.97 9.51 158.8 0.24 M 144.1 23.24 C 151.32 17.87 158.95 8.5 164.44 -0.16 M 144.1 23.24 C 149.36 17.91 153.49 10.92 164.44 -0.16 M 149.09 23.6 C 154.88 19.49 160.68 11.12 169.43 0.2 M 149.09 23.6 C 155.95 13.35 162.33 7.19 169.43 0.2 M 154.07 23.96 C 159.29 16.53 165.9 9.86 175.07 -0.19 M 154.07 23.96 C 157.71 20.58 164.21 12.51 175.07 -0.19 M 159.72 23.56 C 163.17 19.6 170.4 8.4 180.06 0.17 M 159.72 23.56 C 166.75 18.06 169.66 12.16 180.06 0.17 M 164.7 23.92 C 169.59 11.9 183.73 7.32 185.7 -0.23 M 164.7 23.92 C 171.11 14.18 176.86 9.87 185.7 -0.23 M 170.35 23.53 C 174.59 19.17 176.08 13.69 190.69 0.13 M 170.35 23.53 C 174.05 16.07 179.76 11.29 190.69 0.13 M 175.33 23.89 C 183.98 19.85 182.98 11.17 196.33 -0.26 M 175.33 23.89 C 182.6 18.03 189.13 9.21 196.33 -0.26 M 180.98 23.5 C 187.82 14.92 189.6 12.58 201.32 0.1 M 180.98 23.5 C 187.44 17.12 191.88 7.67 201.32 0.1 M 185.96 23.86 C 188.55 19.82 193.98 14.4 206.96 -0.3 M 185.96 23.86 C 195.28 14.03 200.4 6.43 206.96 -0.3 M 191.61 23.46 C 200.09 16.87 209.44 8.81 211.95 0.06 M 191.61 23.46 C 197.4 18.63 200.52 9.87 211.95 0.06 M 196.59 23.82 C 202.28 21.25 204.82 11.86 217.59 -0.33 M 196.59 23.82 C 200.69 16.23 207.55 9.39 217.59 -0.33 M 202.24 23.43 C 205.98 16.16 209.61 9.05 222.58 0.03 M 202.24 23.43 C 209.14 16.99 215.3 8.15 222.58 0.03 M 207.23 23.79 C 213.59 17.83 216.25 11.28 228.22 -0.36 M 207.23 23.79 C 212.72 17.8 217.35 12.86 228.22 -0.36 M 212.87 23.39 C 220.07 15.29 228.44 9.46 233.21 0 M 212.87 23.39 C 217.63 16.95 221.89 11.6 233.21 0 M 217.86 23.75 C 227.56 16.66 226.43 13.83 238.19 0.36 M 217.86 23.75 C 222.97 16.36 231.55 10.42 238.19 0.36 M 223.5 23.36 C 230.79 11.14 236.05 4.4 243.84 -0.04 M 223.5 23.36 C 229.46 15.88 238.02 4.67 243.84 -0.04 M 228.49 23.72 C 228.66 17.85 236.92 12.79 248.82 0.32 M 228.49 23.72 C 233.33 19.17 237.63 11.66 248.82 0.32 M 234.13 23.32 C 235.63 16.53 239.82 15.7 254.47 -0.07 M 234.13 23.32 C 241.88 14.53 250.27 6.31 254.47 -0.07 M 239.12 23.68 C 246.59 12.48 251.05 11.45 259.45 0.29 M 239.12 23.68 C 245.29 14.47 251.89 7.69 259.45 0.29 M 244.76 23.29 C 250.24 20.83 251.6 14.16 265.1 -0.11 M 244.76 23.29 C 248.95 18.29 254.45 10.87 265.1 -0.11 M 249.75 23.65 C 252.87 18.32 261.15 10.28 270.08 0.25 M 249.75 23.65 C 257.46 14 263.04 7.69 270.08 0.25 M 255.39 23.25 C 261.99 20.31 267.01 6.33 275.73 -0.14 M 255.39 23.25 C 259.59 19.52 263.66 12.75 275.73 -0.14 M 260.38 23.61 C 266.95 17.99 272.82 7.53 280.71 0.22 M 260.38 23.61 C 269.24 14.6 274.02 7.44 280.71 0.22 M 265.36 23.97 C 275.13 13.54 280.81 11.31 286.36 -0.18 M 265.36 23.97 C 271.59 19.51 276.31 11.18 286.36 -0.18 M 271.01 23.58 C 279.8 17.21 282.26 6.53 291.34 0.18 M 271.01 23.58 C 276.21 18.62 283.26 13.55 291.34 0.18 M 275.99 23.94 C 282.94 14.38 292.53 7 296.99 -0.21 M 275.99 23.94 C 283.18 17.36 285.01 10.29 296.99 -0.21 M 281.64 23.54 C 287.41 19.87 295.82 11.14 301.97 0.15 M 281.64 23.54 C 284.88 19.1 289.54 12.89 301.97 0.15 M 286.62 23.91 C 293.61 16.18 299.16 8.66 307.62 -0.25 M 286.62 23.91 C 291.67 16.98 298.42 13.11 307.62 -0.25 M 292.27 23.51 C 295.23 16.29 304.48 12.94 312.6 0.11 M 292.27 23.51 C 299.8 14.61 304.98 11.15 312.6 0.11 M 297.25 23.87 C 305.6 15.56 308.07 14.42 318.25 -0.28 M 297.25 23.87 C 303.83 16.38 308.82 10.73 318.25 -0.28 M 302.9 23.48 C 307.89 13.47 315.68 1.84 323.23 0.08 M 302.9 23.48 C 307.05 19.64 312.48 13.52 323.23 0.08 M 307.88 23.84 C 312.82 18.28 320.43 8.55 328.88 -0.31 M 307.88 23.84 C 315.72 14.99 322.03 7.86 328.88 -0.31 M 313.53 23.44 C 320.25 18.06 321.95 14.75 333.86 0.05 M 313.53 23.44 C 319.29 14.66 329.05 5.78 333.86 0.05 M 318.51 23.8 C 324.49 16.37 336.39 3.49 339.51 -0.35 M 318.51 23.8 C 324.65 15.78 335.58 5.73 339.51 -0.35 M 324.16 23.41 C 331.47 18.63 333.65 14.07 344.49 0.01 M 324.16 23.41 C 326.5 18.93 334.09 14.11 344.49 0.01 M 329.14 23.77 C 331.03 18.39 343.46 13.38 349.48 0.37 M 329.14 23.77 C 332.73 17.62 339.7 14.66 349.48 0.37 M 334.79 23.37 C 338.95 16.92 346.24 14.79 355.12 -0.02 M 334.79 23.37 C 339.25 17.13 347.26 11.35 355.12 -0.02 M 339.77 23.73 C 345.54 17.79 352.86 11.23 360.11 0.34 M 339.77 23.73 C 348.27 14.6 354.25 6.28 360.11 0.34 M 345.42 23.34 C 354.31 17.84 354.72 8.65 365.75 -0.06 M 345.42 23.34 C 352.57 16.06 357.81 9.39 365.75 -0.06 M 350.4 23.7 C 357.42 13.66 361.32 7.72 370.74 0.3 M 350.4 23.7 C 355.84 18.2 358.56 10.01 370.74 0.3 M 356.05 23.3 C 360.55 20.69 364.53 15.14 376.38 -0.09 M 356.05 23.3 C 364.84 13.04 369.75 6.6 376.38 -0.09 M 361.03 23.66 C 367.21 18.42 373.21 6.05 381.37 0.27 M 361.03 23.66 C 369.59 16.06 376.5 8.82 381.37 0.27 M 366.68 23.27 C 375.76 13.33 381.47 12.59 387.01 -0.13 M 366.68 23.27 C 373.01 14.26 382.97 5.14 387.01 -0.13 M 371.66 23.63 C 375.62 16.75 379.18 11.52 392 0.23 M 371.66 23.63 C 379.83 18.04 384.12 10.75 392 0.23 M 377.31 23.23 C 383.45 15.55 387.75 9.27 397.64 -0.16 M 377.31 23.23 C 385.31 14.76 391.99 4.62 397.64 -0.16 M 382.29 23.59 C 388.16 15.72 394.92 15.29 402.63 0.2 M 382.29 23.59 C 388.09 15.67 395.27 9.2 402.63 0.2 M 387.28 23.95 C 396.81 12.42 400.87 3.41 408.27 -0.2 M 387.28 23.95 C 393.36 14.98 400.34 8.04 408.27 -0.2 M 392.92 23.56 C 401.59 17.9 405.46 9.81 413.26 0.16 M 392.92 23.56 C 403.16 14.41 411.29 3.68 413.26 0.16 M 397.91 23.92 C 399.64 19.31 411.04 7.83 418.9 -0.23 M 397.91 23.92 C 404 17.14 409.3 10.33 418.9 -0.23 M 403.55 23.53 C 407.43 17.56 418.74 8.11 423.89 0.13 M 403.55 23.53 C 406.85 20.79 412.8 13.8 423.89 0.13 M 408.54 23.89 C 411.78 14.59 422.87 9.51 429.53 -0.26 M 408.54 23.89 C 414.92 19.4 421.33 10.91 429.53 -0.26 M 414.18 23.49 C 418.41 14.99 422.04 14.33 434.52 0.1 M 414.18 23.49 C 416.53 17.44 420.6 16.07 434.52 0.1 M 419.17 23.85 C 427.66 16.06 430 14.18 440.16 -0.3 M 419.17 23.85 C 424.04 19.42 429.89 11.19 440.16 -0.3 M 424.81 23.46 C 428.04 18.44 435.68 12.11 445.15 0.06 M 424.81 23.46 C 428.43 17.53 436.46 13.29 445.15 0.06 M 429.8 23.82 C 435 15.81 444.91 7.16 450.79 -0.33 M 429.8 23.82 C 438.31 14.18 443.08 5.26 450.79 -0.33 M 435.44 23.42 C 441.32 14.89 453.61 9.56 455.78 0.03 M 435.44 23.42 C 440.21 14.72 447.96 8.2 455.78 0.03 M 440.43 23.78 C 445.98 11.41 455.5 4.75 461.42 -0.37 M 440.43 23.78 C 446.44 15.13 453.75 7.92 461.42 -0.37 M 446.07 23.39 C 453.47 18.85 459.97 11.91 466.41 -0.01 M 446.07 23.39 C 452.61 13.64 460.17 7.58 466.41 -0.01 M 451.06 23.75 C 463.14 10.97 468.76 5.89 471.4 0.35 M 451.06 23.75 C 457.16 16.42 460.28 10.23 471.4 0.35 M 456.7 23.35 C 464.59 11.95 466.17 7.24 477.04 -0.04 M 456.7 23.35 C 460.64 16.77 468.63 12.87 477.04 -0.04 M 461.69 23.71 C 463.82 15.33 474.64 9.07 482.03 0.32 M 461.69 23.71 C 466.71 18.73 472.38 13.72 482.03 0.32 M 467.33 23.32 C 477.99 14.73 482.88 11.39 487.67 -0.08 M 467.33 23.32 C 473.58 17.77 477.74 8.43 487.67 -0.08 M 472.32 23.68 C 479.4 20.4 481.56 11.17 492.66 0.28 M 472.32 23.68 C 480.7 15.56 485.87 8.44 492.66 0.28 M 477.96 23.28 C 481.68 19.19 491.62 9.49 498.3 -0.11 M 477.96 23.28 C 483.84 16.91 487.13 10.64 498.3 -0.11 M 482.95 23.64 C 494.05 12.3 498.05 8.28 503.29 0.25 M 482.95 23.64 C 490.75 18.5 494.05 11.55 503.29 0.25 M 488.59 23.25 C 497.13 15.73 495.56 12.53 508.93 -0.15 M 488.59 23.25 C 494.98 15.86 498.1 9.74 508.93 -0.15 M 493.58 23.61 C 500.74 18.93 502.47 14.61 513.92 0.21 M 493.58 23.61 C 501.56 15.4 508.77 6.03 513.92 0.21 M 498.57 23.97 C 501.77 15.58 512.2 9.96 519.56 -0.18 M 498.57 23.97 C 502.42 19.64 508.14 15.93 519.56 -0.18 M 504.21 23.58 C 513.32 15.19 513.47 9.34 524.55 0.18 M 504.21 23.58 C 507.81 19.53 511.04 14.28 524.55 0.18 M 509.2 23.94 C 516.21 13.66 521.82 7.57 530.19 -0.22 M 509.2 23.94 C 516.22 16.02 519.47 11.04 530.19 -0.22 M 514.84 23.54 C 518.34 16.9 527.4 9.57 535.18 0.14 M 514.84 23.54 C 521.02 17.34 524.28 12.72 535.18 0.14 M 519.83 23.9 C 529.59 17.46 535.68 9.93 540.82 -0.25 M 519.83 23.9 C 523.2 18.26 527.66 14.76 540.82 -0.25 M 525.47 23.51 C 530.97 14.44 540.36 3.59 545.81 0.11 M 525.47 23.51 C 530.97 19.88 533.34 12.4 545.81 0.11 M 530.46 23.87 C 533.59 16.84 543.86 10.69 551.45 -0.28 M 530.46 23.87 C 538.9 16.15 543.5 7.65 551.45 -0.28 M 536.1 23.47 C 539.38 17.92 550.67 9.76 556.44 0.08 M 536.1 23.47 C 542.97 16.8 548 9.14 556.44 0.08 M 541.09 23.83 C 549.23 14.82 551.94 14.47 562.08 -0.32 M 541.09 23.83 C 549.8 12.86 556.56 5.53 562.08 -0.32 M 546.73 23.44 C 552.35 20.81 556.42 10.44 567.07 0.04 M 546.73 23.44 C 549.57 20.05 556.55 14.42 567.07 0.04 M 551.72 23.8 C 553.06 16.7 561.13 12.39 572.71 -0.35 M 551.72 23.8 C 559.84 16.81 564.56 9.6 572.71 -0.35 M 557.36 23.4 C 564.49 12.28 566.72 6.65 577.7 0.01 M 557.36 23.4 C 566.3 15.56 571.82 6.55 577.7 0.01 M 562.35 23.76 C 572.84 17.17 577.72 7.08 582.69 0.37 M 562.35 23.76 C 567.07 16.21 575.54 8.47 582.69 0.37 M 567.99 23.37 C 578.98 12.64 582.31 7.91 588.33 -0.03 M 567.99 23.37 C 575.48 13.68 584.46 7.58 588.33 -0.03 M 572.98 23.73 C 580.38 14.73 580.73 9.12 593.32 0.33 M 572.98 23.73 C 577.15 16.74 583.93 14.05 593.32 0.33 M 578.62 23.33 C 582.04 14.7 588.13 11.23 598.96 -0.06 M 578.62 23.33 C 583.38 17.89 590.61 13.62 598.96 -0.06 M 583.61 23.69 C 588.55 17.18 596.07 6.76 603.95 0.3 M 583.61 23.69 C 587.5 18.08 595.75 7.72 603.95 0.3 M 589.25 23.3 C 596.33 21.16 596.8 15.43 609.59 -0.1 M 589.25 23.3 C 594.67 17.49 600.22 6.49 609.59 -0.1 M 594.24 23.66 C 603 11.7 610.57 9 614.58 0.26 M 594.24 23.66 C 602.73 13.64 610.67 6.79 614.58 0.26 M 599.88 23.26 C 608.71 19.11 610.31 10.77 620.22 -0.13 M 599.88 23.26 C 606.24 15.84 608.59 11.04 620.22 -0.13 M 604.87 23.62 C 613.51 20.19 613.39 9.31 625.21 0.23 M 604.87 23.62 C 610.91 18.02 616.17 9.85 625.21 0.23 M 610.51 23.23 C 618.36 15.71 618.02 8.86 630.85 -0.17 M 610.51 23.23 C 616.63 19.13 620.19 13.52 630.85 -0.17 M 615.5 23.59 C 620.97 14.33 625.08 9.11 635.84 0.19 M 615.5 23.59 C 622.2 13.79 632.29 7.2 635.84 0.19 M 620.49 23.95 C 628.12 15.96 634.46 5.18 641.48 -0.2 M 620.49 23.95 C 625.41 19.58 629.96 13.68 641.48 -0.2 M 626.13 23.56 C 631.14 14.53 637.04 6.39 646.47 0.16 M 626.13 23.56 C 630.94 15.55 639.41 11.32 646.47 0.16 M 631.12 23.92 C 638.48 13.7 650.08 6.94 652.11 -0.23 M 631.12 23.92 C 636.9 16.61 640.47 11.54 652.11 -0.23 M 636.76 23.52 C 640.77 11.7 655.94 8.44 657.1 0.13 M 636.76 23.52 C 640.62 18.72 645.55 11.23 657.1 0.13 M 641.75 23.88 C 649.79 15.39 657.22 6.72 662.74 -0.27 M 641.75 23.88 C 648.68 13.76 657.42 4.93 662.74 -0.27 M 647.39 23.49 C 657.82 13.74 657.7 10.02 667.73 0.09 M 647.39 23.49 C 652.34 17.5 656.65 10.85 667.73 0.09 M 652.38 23.85 C 663.32 18.94 663.97 6.19 673.37 -0.3 M 652.38 23.85 C 658.64 16.63 665.68 12.18 673.37 -0.3 M 658.02 23.45 C 664.86 16.47 669.09 13.31 678.36 0.06 M 658.02 23.45 C 666.91 15.32 672.7 5.07 678.36 0.06 M 663.01 23.81 C 669.46 13.99 680.87 0.94 684 -0.34 M 663.01 23.81 C 667.01 20.28 674.28 13.56 684 -0.34 M 668.65 23.42 C 673.08 13.08 683.77 6.31 688.99 0.02 M 668.65 23.42 C 676.58 15.08 681.34 9.07 688.99 0.02 M 673.64 23.78 C 679.77 12.72 686.43 7.36 694.63 -0.37 M 673.64 23.78 C 680.96 19.96 686.36 10.95 694.63 -0.37 M 679.28 23.38 C 687.03 14.48 696.63 5.62 699.62 -0.01 M 679.28 23.38 C 684.82 15.67 692.02 9.75 699.62 -0.01 M 684.27 23.74 C 689.97 19.93 692.67 8 704.6 0.35 M 684.27 23.74 C 691.09 15.93 697.56 10.51 704.6 0.35 M 689.91 23.35 C 690.71 17.9 696.35 13.92 710.25 -0.05 M 689.91 23.35 C 694.28 15.48 701.54 10.25 710.25 -0.05 M 694.9 23.71 C 696.82 19.11 704.21 12.96 715.23 0.31 M 694.9 23.71 C 697.71 16.65 705.07 15.15 715.23 0.31 M 700.54 23.31 C 705.86 14.87 713.56 15.69 720.88 -0.08 M 700.54 23.31 C 706.66 18.9 712.11 13.54 720.88 -0.08 M 705.53 23.67 C 707.25 21.32 712.39 11.5 725.86 0.28 M 705.53 23.67 C 711.67 13.19 721.72 3.24 725.86 0.28 M 711.17 23.28 C 721.62 14.71 728.38 7.7 731.51 -0.12 M 711.17 23.28 C 714.34 18.97 721.04 13.93 731.51 -0.12 M 716.16 23.64 C 722.23 17.46 721.99 17.19 736.5 0.24 M 716.16 23.64 C 721.68 19 725.28 12.03 736.5 0.24 M 721.8 23.25 C 724.44 16.8 734.23 10.25 742.14 -0.15 M 721.8 23.25 C 725.34 16.25 731.58 11.75 742.14 -0.15 M 726.79 23.61 C 730.45 18.13 734.62 14.23 747.13 0.21 M 726.79 23.61 C 733.61 16.37 740.49 9.75 747.13 0.21 M 731.77 23.97 C 740.18 13.78 746.67 3.1 752.77 -0.19 M 731.77 23.97 C 738.78 16.33 742.56 11.57 752.77 -0.19 M 737.42 23.57 C 739.32 15.65 741.85 13.22 757.76 0.18 M 737.42 23.57 C 743.33 17.49 749.09 10.55 757.76 0.18 M 742.4 23.93 C 749.3 13.13 758.99 8.52 763.4 -0.22 M 742.4 23.93 C 745.29 18.82 750.2 10.32 763.4 -0.22 M 748.05 23.54 C 750.14 21.22 754.21 10.63 768.39 0.14 M 748.05 23.54 C 753.48 14.9 761.12 9.83 768.39 0.14 M 753.03 23.9 C 762.39 17.06 765.62 7.19 774.03 -0.25 M 753.03 23.9 C 758.38 18.27 762.46 10.73 774.03 -0.25 M 758.68 23.5 C 761.75 18.13 766.98 11.65 779.02 0.11 M 758.68 23.5 C 761.85 20.19 768.97 11.97 779.02 0.11 M 763.66 23.86 C 767.19 15.2 770 15.64 784.66 -0.29 M 763.66 23.86 C 770.07 17.91 775.94 10.13 784.66 -0.29 M 769.31 23.47 C 775.94 14.87 775.48 10.34 789.65 0.07 M 769.31 23.47 C 776.05 16.49 780.38 9.83 789.65 0.07 M 774.29 23.83 C 776.92 19.3 782.44 18.61 790.7 4.96 M 774.29 23.83 C 780.15 16.97 785.82 11.22 790.7 4.96 M 779.94 23.43 C 782.21 19.15 786.67 14.96 791.09 10.6 M 779.94 23.43 C 783.49 16.85 790.08 12.21 791.09 10.6 M 784.92 23.79 C 787.9 22.39 788.6 18.24 790.83 17 M 784.92 23.79 C 787.69 21.63 789.72 18.22 790.83 17 M 790.57 23.4 C 790.6 23.12 790.91 22.88 791.22 22.64 M 790.57 23.4 C 790.73 23.18 790.78 23.1 791.22 22.64" fill="none" stroke="#f2cc8f" stroke-width="0.5" stroke-linejoin="round" stroke-linecap="round" stroke-miterlimit="10" pointer-events="all"/><path d="M 0 23 C 1.17 13.21 -1.12 9.92 0 0 M 0 23 C -1.44 17.75 -1.52 10.39 0 0 M 0 0 C 181.26 -2.77 363.43 -4.81 791 0 M 0 0 C 172.02 0.62 344.03 1.68 791 0 M 791 0 C 787.55 4.5 787.05 14.3 791 23 M 791 0 C 791.79 8.86 791.76 18.48 791 23" fill="none" stroke="#e07a5f" stroke-linejoin="round" stroke-linecap="round" stroke-miterlimit="10" pointer-events="all"/><path d="M 0 23 C 6 291.07 5.08 561.74 0 1001 M 0 23 C -0.95 288.55 -0.98 553.25 0 1001 M 0 1001 C 181.26 998.23 363.43 996.19 791 1001 M 0 1001 C 172.02 1001.62 344.03 1002.68 791 1001 M 791 1001 C 795.21 710.85 795.01 422.82 791 23 M 791 1001 C 786.44 644.71 786.43 288.73 791 23" fill="none" stroke="#e07a5f" stroke-linejoin="round" stroke-linecap="round" stroke-miterlimit="10" pointer-events="none"/><path d="M 0 23 C 218.52 25.06 435.54 26.28 791 23 M 0 23 C 213.87 24.74 428.29 24.29 791 23" fill="none" stroke="#e07a5f" stroke-linejoin="round" stroke-linecap="round" stroke-miterlimit="10" pointer-events="none"/></g><g><g fill="#393C56" font-family="&quot;LXGW WenKai&quot;" font-weight="bold" text-anchor="middle" font-size="15px"><text x="395" y="17.5">Vertical Container</text></g></g><g data-cell-id="gyem3hlseezmw4Tj-qo7-24"><g><rect x="332" y="401" width="165" height="50" fill="none" stroke="none" pointer-events="all"/><path d="M 330.57 402.32 L 493.2 400.76 L 494.24 453.69 L 332.21 452.1" fill="rgb(255, 255, 255)" stroke="none" pointer-events="all"/><path d="M 332 401 C 377.77 397.21 421.9 403.9 497 401 M 332 401 C 371.86 403.76 409.59 403.1 497 401 M 497 401 C 494.88 414.94 494.13 437.56 497 451 M 497 401 C 496.89 420.98 497.57 440.39 497 451 M 497 451 C 452 448 401.25 446.07 332 451 M 497 451 C 447.61 447.89 399.23 446.1 332 451 M 332 451 C 334.76 437.19 329.47 415.22 332 401 M 332 451 C 333.32 433.85 332.22 417.01 332 401" fill="none" stroke="rgb(0, 0, 0)" stroke-linejoin="round" stroke-linecap="round" stroke-miterlimit="10" pointer-events="all"/></g><g><g fill="rgb(0, 0, 0)" font-family="&quot;LXGW WenKai&quot;" text-anchor="middle" font-size="12px"><text x="414" y="430.5">springmvc-servlet.xml</text></g></g></g><g data-cell-id="gyem3hlseezmw4Tj-qo7-26"><g><path d="M 501.35 600.29 L 501.35 686 L 340 686 L 340 586 L 478.3 586 Z" fill="none" stroke="none" pointer-events="all"/><path d="M 478.3 586 C 480.18 589.34 477.09 592.79 470.07 595.18 L 501.35 600.59" fill="none" stroke="none" pointer-events="all"/><path d="M 501.35 600.29 C 496.29 619.72 501.01 636.36 501.35 686 C 456.31 677.38 409.75 678.64 340 686 C 345.43 659.36 342.41 624.94 340 586 C 379.41 584.94 421.83 588.53 478.3 586 C 486.66 592.42 489.61 593.59 501.35 600.29" fill="rgb(255, 255, 255)" stroke="none" pointer-events="all"/><path d="M 501.35 600.29 C 504.7 624.53 498.68 647.63 501.35 686 M 501.35 600.29 C 502.58 633.75 503.12 666.81 501.35 686 M 501.35 686 C 471.22 686.56 431.84 686.8 340 686 M 501.35 686 C 448.51 686.49 394.86 685.85 340 686 M 340 686 C 339.54 660.93 336.36 643.81 340 586 M 340 686 C 338.52 648.55 339.12 608.5 340 586 M 340 586 C 373.77 588.36 400.45 582.34 478.3 586 M 340 586 C 373.73 587.91 407.34 587.59 478.3 586 M 478.3 586 C 482.07 586.02 485.25 591.16 501.35 600.29 M 478.3 586 C 484.65 589.97 491.86 595.46 501.35 600.29" fill="none" stroke="rgb(0, 0, 0)" stroke-linejoin="round" stroke-linecap="round" stroke-miterlimit="10" pointer-events="all"/><path d="M 478.3 586 C 479.2 588.38 479.41 596.56 470.07 595.18 M 478.3 586 C 480.91 586.75 477.24 596.62 470.07 595.18 M 470.07 595.18 C 480.82 599.87 490.76 594.55 501.35 600.59 M 470.07 595.18 C 481.44 596.04 494.04 599.56 501.35 600.59" fill="none" stroke="rgb(0, 0, 0)" stroke-linejoin="round" stroke-linecap="round" stroke-miterlimit="10" pointer-events="all"/></g><g><g fill="rgb(0, 0, 0)" font-family="&quot;LXGW WenKai&quot;" text-anchor="middle" font-size="12px"><text x="421" y="640.5">hello.thymeleaf</text></g></g></g><g data-cell-id="gyem3hlseezmw4Tj-qo7-27"><g><path d="M 474.4 520.32 Q 474.4 553.5 447.95 553.5 Q 421.5 553.5 421.5 579.63" fill="none" stroke="none" pointer-events="stroke"/><path d="M 421.5 584.88 L 418 577.88 L 421.5 579.63 L 425 577.88 Z" fill="none" stroke="none" pointer-events="all"/><path d="M 474.4 520.32 C 473.42 542.16 464.71 554.98 447.95 553.5 M 474.4 520.32 C 472.75 543.71 463.81 551.44 447.95 553.5 M 447.95 553.5 C 431.02 557.09 420.6 564.27 421.5 579.63 M 447.95 553.5 C 428.58 552.77 419.03 563.38 421.5 579.63" fill="none" stroke="rgb(0, 0, 0)" stroke-linejoin="round" stroke-linecap="round" stroke-miterlimit="10" pointer-events="stroke"/><path d="M 418.08 577.79 C 418.08 577.79 418.08 577.79 418.08 577.79 M 418.08 577.79 C 418.08 577.79 418.08 577.79 418.08 577.79 M 419.78 581.93 C 420.76 581.09 420.37 580.65 421.75 579.66 M 419.78 581.93 C 419.97 581.6 420.56 581.24 421.75 579.66" fill="none" stroke="rgb(0, 0, 0)" stroke-width="0.5" stroke-linejoin="round" stroke-linecap="round" stroke-miterlimit="10" pointer-events="all"/><path d="M 421.5 584.88 C 421.13 582.38 420.01 580.41 418 577.88 M 421.5 584.88 C 420.41 583.56 419.39 581.24 418 577.88 M 418 577.88 C 419.49 578.66 420.44 578.62 421.5 579.63 M 418 577.88 C 419 578.25 420.49 578.58 421.5 579.63 M 421.5 579.63 C 422.6 578.68 424.06 577.84 425 577.88 M 421.5 579.63 C 422.05 579.39 423.34 578.92 425 577.88 M 425 577.88 C 424.01 581.49 421.93 583.05 421.5 584.88 M 425 577.88 C 424.06 580.43 422.63 582.96 421.5 584.88" fill="none" stroke="rgb(0, 0, 0)" stroke-linejoin="round" stroke-linecap="round" stroke-miterlimit="10" pointer-events="all"/></g></g><g data-cell-id="qSzuw7H5UFeYLlG2jMTL-2"><g><path d="M 414.5 451 Q 414.5 473 431.45 473 Q 448.4 473 448.37 490.3" fill="none" stroke="none" pointer-events="stroke"/><path d="M 448.36 495.55 L 444.87 488.54 L 448.37 490.3 L 451.87 488.55 Z" fill="none" stroke="none" pointer-events="all"/><path d="M 414.5 451 C 418.2 465 419.75 470.4 431.45 473 M 414.5 451 C 414.42 466.38 424.71 476.56 431.45 473 M 431.45 473 C 443.77 473.69 448.3 478.39 448.37 490.3 M 431.45 473 C 440.74 469.64 452.85 476.29 448.37 490.3" fill="none" stroke="rgb(0, 0, 0)" stroke-linejoin="round" stroke-linecap="round" stroke-miterlimit="10" pointer-events="stroke"/><path d="M 444.91 488.49 C 444.91 488.49 444.91 488.49 444.91 488.49 M 444.91 488.49 C 444.91 488.49 444.91 488.49 444.91 488.49 M 446.62 492.63 C 446.95 492.01 446.96 492.11 448.59 490.36 M 446.62 492.63 C 446.97 491.95 447.86 491.39 448.59 490.36" fill="none" stroke="rgb(0, 0, 0)" stroke-width="0.5" stroke-linejoin="round" stroke-linecap="round" stroke-miterlimit="10" pointer-events="all"/><path d="M 448.36 495.55 C 446 492.76 445.89 491.59 444.87 488.54 M 448.36 495.55 C 446.99 492.84 445.35 489.7 444.87 488.54 M 444.87 488.54 C 446.82 490.01 448.09 490.16 448.37 490.3 M 444.87 488.54 C 446.15 489.09 447.36 489.97 448.37 490.3 M 448.37 490.3 C 449.78 489.85 450.95 488.76 451.87 488.55 M 448.37 490.3 C 449.25 490.13 450.37 489.42 451.87 488.55 M 451.87 488.55 C 452.05 488.85 450.93 490.44 448.36 495.55 M 451.87 488.55 C 450.8 491.28 449.28 494.12 448.36 495.55" fill="none" stroke="rgb(0, 0, 0)" stroke-linejoin="round" stroke-linecap="round" stroke-miterlimit="10" pointer-events="all"/></g></g><g data-cell-id="gyem3hlseezmw4Tj-qo7-33"><g><rect x="340" y="495" width="210" height="26" fill="none" stroke="none" pointer-events="all"/></g><g><g fill="rgb(0, 0, 0)" font-family="&quot;LXGW WenKai&quot;" text-anchor="middle" font-size="12px"><text x="444.5" y="512.5">根据视图解析器配置，找到对应视图</text></g></g></g></g><g data-cell-id="gyem3hlseezmw4Tj-qo7-15"><g><path d="M 122 207.5 Q 152 207.5 152 162.75 Q 152 118 175.63 118" fill="none" stroke="none" pointer-events="stroke"/><path d="M 180.88 118 L 173.88 121.5 L 175.63 118 L 173.88 114.5 Z" fill="none" stroke="none" pointer-events="all"/><path d="M 122 207.5 C 141.01 208.77 152.38 189.49 152 162.75 M 122 207.5 C 145.39 210.04 149.34 191.64 152 162.75 M 152 162.75 C 150.89 136.88 161.08 115.88 175.63 118 M 152 162.75 C 152.72 135.65 159.27 120.4 175.63 118" fill="none" stroke="rgb(0, 0, 0)" stroke-linejoin="round" stroke-linecap="round" stroke-miterlimit="10" pointer-events="stroke"/><path d="M 173.59 114.84 C 173.59 114.84 173.59 114.84 173.59 114.84 M 173.59 114.84 C 173.59 114.84 173.59 114.84 173.59 114.84 M 175.95 118.21 C 176.64 118.1 176.75 117.26 177.26 116.7 M 175.95 118.21 C 176.14 117.62 176.73 117.53 177.26 116.7" fill="none" stroke="rgb(0, 0, 0)" stroke-width="0.5" stroke-linejoin="round" stroke-linecap="round" stroke-miterlimit="10" pointer-events="all"/><path d="M 180.88 118 C 177.76 120.13 177.91 119.04 173.88 121.5 M 180.88 118 C 179.14 118.7 177.07 120.56 173.88 121.5 M 173.88 121.5 C 175.09 120.96 174.73 119.48 175.63 118 M 173.88 121.5 C 174.12 120.07 175.24 119.2 175.63 118 M 175.63 118 C 175.07 117.88 174.31 116.27 173.88 114.5 M 175.63 118 C 175.39 116.91 174.74 116.16 173.88 114.5 M 173.88 114.5 C 177.09 114.23 177.28 117.78 180.88 118 M 173.88 114.5 C 176.42 116.23 179.56 116.78 180.88 118" fill="none" stroke="rgb(0, 0, 0)" stroke-linejoin="round" stroke-linecap="round" stroke-miterlimit="10" pointer-events="all"/></g></g><g data-cell-id="wa0JLTWsgckLO4hLmPQc-1"><g><rect x="42" y="175" width="80" height="46.06" fill="none" stroke="none" pointer-events="all"/><path d="M 66.5 233.04 L 97.4 233.04 L 103.5 240 L 60.5 240 Z" fill="none" stroke="none" pointer-events="all"/><rect x="72" y="221.06" width="20" height="15.35" fill="none" stroke="none" pointer-events="all"/><rect x="45" y="178.07" width="73" height="39.92" fill="none" stroke="none" pointer-events="all"/><path d="M 41.83 175.2 C 41.83 175.2 41.83 175.2 41.83 175.2 M 41.83 175.2 C 41.83 175.2 41.83 175.2 41.83 175.2 M 42.22 180.84 C 43.45 179.41 46.16 178.58 47.47 174.8 M 42.22 180.84 C 44.35 179.26 44.24 177.91 47.47 174.8 M 41.96 187.24 C 44.48 185.89 46.08 178.19 52.46 175.16 M 41.96 187.24 C 45.3 183.28 45.38 182.78 52.46 175.16 M 41.7 193.64 C 44.36 189.86 51.18 181.52 58.1 174.77 M 41.7 193.64 C 48.55 186.72 54.39 182.59 58.1 174.77 M 42.09 199.28 C 47.77 190.43 56.77 181.19 63.09 175.13 M 42.09 199.28 C 49.57 191.39 58.16 182.11 63.09 175.13 M 41.83 205.68 C 48.14 190.94 59.05 184.25 68.73 174.74 M 41.83 205.68 C 47.05 197.35 54.8 194.11 68.73 174.74 M 42.23 211.32 C 50.18 201.72 59.86 197.97 73.72 175.1 M 42.23 211.32 C 53.47 200.09 65.49 183.45 73.72 175.1 M 41.97 217.72 C 56.55 200.96 71.5 188.88 79.36 174.7 M 41.97 217.72 C 55.7 203.13 66.32 190.05 79.36 174.7 M 43.67 221.85 C 55.02 210.22 64.22 199.46 84.35 175.06 M 43.67 221.85 C 56.9 207.58 69.11 193.5 84.35 175.06 M 49.32 221.46 C 59.16 210.98 69.82 191.15 89.99 174.67 M 49.32 221.46 C 63.73 206.48 78.01 192.95 89.99 174.67 M 54.3 221.82 C 70.3 208.25 78.04 198.12 94.98 175.03 M 54.3 221.82 C 61.57 211.13 68.74 201.92 94.98 175.03 M 59.95 221.42 C 71.3 212.74 76.17 203.24 100.62 174.63 M 59.95 221.42 C 74.66 203.04 90.19 186.45 100.62 174.63 M 64.93 221.78 C 74.98 202.65 91.61 193.29 105.61 174.99 M 64.93 221.78 C 73.87 211.55 83.12 201.49 105.61 174.99 M 70.58 221.39 C 79.04 210.87 91.12 194.66 110.59 175.35 M 70.58 221.39 C 83.1 208.54 90.85 196.06 110.59 175.35 M 75.56 221.75 C 89.15 201.51 110.68 187.49 116.24 174.96 M 75.56 221.75 C 91.81 205.53 106.54 186.67 116.24 174.96 M 81.21 221.35 C 96.96 208.12 103.46 190.58 121.22 175.32 M 81.21 221.35 C 90.07 211.67 97.57 202.73 121.22 175.32 M 86.19 221.71 C 97.85 215.45 105.24 203.78 122.28 180.21 M 86.19 221.71 C 95.68 213.32 101.81 203.98 122.28 180.21 M 91.84 221.32 C 98.82 213.47 106.77 201.08 122.67 185.85 M 91.84 221.32 C 102.66 210.24 113.34 193.92 122.67 185.85 M 96.82 221.68 C 100.85 210.82 108.88 208.36 122.41 192.25 M 96.82 221.68 C 103.49 212.01 112.82 203.45 122.41 192.25 M 102.47 221.29 C 109.12 216.47 111.23 208.96 122.15 198.64 M 102.47 221.29 C 108.38 213.06 113.36 210.73 122.15 198.64 M 107.45 221.65 C 110.24 217.2 121.07 208.46 122.54 204.29 M 107.45 221.65 C 112.86 217.13 113.39 212.33 122.54 204.29 M 113.1 221.25 C 113.71 218.22 120.66 215.21 122.28 210.69 M 113.1 221.25 C 115.34 217.09 118.16 216.73 122.28 210.69 M 118.08 221.61 C 118.32 218.98 122.25 216.84 122.68 216.33 M 118.08 221.61 C 119.36 220.24 120.26 218.7 122.68 216.33" fill="none" stroke="#cccccc" stroke-linejoin="round" stroke-linecap="round" stroke-miterlimit="10" pointer-events="all"/><path d="M 42 175 C 72.82 174.2 101.19 170.83 122 175 M 42 175 C 66.48 172.51 91.29 173.49 122 175 M 122 175 C 125.91 192.59 121.37 214.84 122 221.06 M 122 175 C 122.29 189.8 124.14 206.77 122 221.06 M 122 221.06 C 93.85 221.95 62.85 219.27 42 221.06 M 122 221.06 C 92.9 221.65 65.4 223.4 42 221.06 M 42 221.06 C 45.39 200.91 45.51 185.99 42 175 M 42 221.06 C 40.97 209.27 39.4 198.34 42 175" fill="none" stroke="#6881b3" stroke-width="2" stroke-linejoin="round" stroke-linecap="round" stroke-miterlimit="10" pointer-events="all"/><path d="M 66.81 232.69 C 66.81 232.69 66.81 232.69 66.81 232.69 M 66.81 232.69 C 66.81 232.69 66.81 232.69 66.81 232.69 M 65.23 240.59 C 66.77 238.81 70.15 237.77 71.79 233.05 M 65.23 240.59 C 67.89 238.62 67.76 236.93 71.79 233.05 M 70.22 240.96 C 71.79 240.11 72.8 235.3 76.78 233.41 M 70.22 240.96 C 72.31 238.48 72.35 238.17 76.78 233.41 M 75.86 240.56 C 76.67 239.3 79.55 235.74 82.42 233.01 M 75.86 240.56 C 78.74 237.73 81.12 236.29 82.42 233.01 M 80.85 240.92 C 82.43 237.83 85.75 234.57 87.41 233.37 M 80.85 240.92 C 83.13 238.63 86.05 235.58 87.41 233.37 M 86.49 240.53 C 87.11 236.2 89.87 235.95 93.05 232.98 M 86.49 240.53 C 87.64 238.1 90.03 238.18 93.05 232.98 M 91.48 240.89 C 93.37 238.62 96.09 239.18 98.04 233.34 M 91.48 240.89 C 93.65 239.12 96.26 234.71 98.04 233.34 M 97.12 240.49 C 98.52 238.7 100.08 238.19 100.4 236.72 M 97.12 240.49 C 98.56 239.27 99.14 238.37 100.4 236.72 M 102.11 240.85 C 102.55 240.4 102.82 240.09 103.42 239.34 M 102.11 240.85 C 102.51 240.43 102.86 240.03 103.42 239.34" fill="none" stroke="#cccccc" stroke-linejoin="round" stroke-linecap="round" stroke-miterlimit="10" pointer-events="all"/><path d="M 66.5 233.04 C 77.95 233.03 86.95 229.65 97.4 233.04 M 66.5 233.04 C 75.6 231.17 85.02 232.15 97.4 233.04 M 97.4 233.04 C 101.46 235.52 101.78 240.11 103.5 240 M 97.4 233.04 C 99.4 234.87 102.38 237.73 103.5 240 M 103.5 240 C 89.52 241.23 72.7 238.56 60.5 240 M 103.5 240 C 87.32 239.97 72.75 241.72 60.5 240 M 60.5 240 C 64.29 235.9 66.49 234.12 66.5 233.04 M 60.5 240 C 61.74 238.17 62.54 236.75 66.5 233.04" fill="none" stroke="#6881b3" stroke-width="2" stroke-linejoin="round" stroke-linecap="round" stroke-miterlimit="10" pointer-events="all"/><path d="M 71.88 221.2 C 71.88 221.2 71.88 221.2 71.88 221.2 M 71.88 221.2 C 71.88 221.2 71.88 221.2 71.88 221.2 M 72.28 226.84 C 73.5 225.42 76.21 224.58 77.52 220.8 M 72.28 226.84 C 74.4 225.26 74.3 223.91 77.52 220.8 M 72.01 233.24 C 74.53 231.89 76.14 224.19 82.51 221.16 M 72.01 233.24 C 75.35 229.28 75.43 228.78 82.51 221.16 M 73.72 237.37 C 75.75 234.36 81.94 226.74 88.15 220.77 M 73.72 237.37 C 79.91 231.22 85.1 227.83 88.15 220.77 M 79.36 236.98 C 82.53 230.79 89.16 224.28 92.49 221.89 M 79.36 236.98 C 83.92 232.4 89.76 226.3 92.49 221.89 M 84.35 237.34 C 85.16 231.71 88.75 231.39 92.88 227.53 M 84.35 237.34 C 85.84 234.18 88.95 234.3 92.88 227.53 M 89.99 236.94 C 90.75 236.04 91.84 236.26 92.62 233.93 M 89.99 236.94 C 90.86 236.24 91.91 234.47 92.62 233.93" fill="none" stroke="#cccccc" stroke-linejoin="round" stroke-linecap="round" stroke-miterlimit="10" pointer-events="all"/><path d="M 72 221.06 C 79.15 221.23 83.85 217.85 92 221.06 M 72 221.06 C 77.68 219.33 83.69 220.32 92 221.06 M 92 221.06 C 94.76 226.62 91.27 235.75 92 236.42 M 92 221.06 C 91.87 225.47 93.29 231.54 92 236.42 M 92 236.42 C 86.83 237.87 78.83 235.19 72 236.42 M 92 236.42 C 83.86 236.01 77.32 237.76 72 236.42 M 72 236.42 C 74.73 228.09 74.82 223.8 72 221.06 M 72 236.42 C 71.48 232.43 70.27 229.12 72 221.06" fill="none" stroke="#6881b3" stroke-width="2" stroke-linejoin="round" stroke-linecap="round" stroke-miterlimit="10" pointer-events="all"/><path d="M 44.51 177.5 L 116.29 180 L 114.57 214.48 L 43.97 215.86" fill="#ffffff" stroke="none" pointer-events="all"/></g><g><g fill="#0066CC" font-family="&quot;LXGW WenKai&quot;" text-anchor="middle" font-size="12px"><text x="81.5" y="257.5">客户端</text></g></g></g><g data-cell-id="gyem3hlseezmw4Tj-qo7-16"><g><path d="M 264.5 143 Q 264.5 285 325.63 285" fill="none" stroke="none" pointer-events="stroke"/><path d="M 330.88 285 L 323.88 288.5 L 325.63 285 L 323.88 281.5 Z" fill="none" stroke="none" pointer-events="all"/><path d="M 264.5 143 C 263.51 239.61 282.06 287.62 325.63 285 M 264.5 143 C 265.51 234.87 280.29 287.37 325.63 285" fill="none" stroke="rgb(0, 0, 0)" stroke-linejoin="round" stroke-linecap="round" stroke-miterlimit="10" pointer-events="stroke"/><path d="M 324 281.36 C 324 281.36 324 281.36 324 281.36 M 324 281.36 C 324 281.36 324 281.36 324 281.36 M 325.71 285.5 C 326.11 285.03 326.98 284.07 327.68 283.23 M 325.71 285.5 C 325.9 284.71 326.81 284.22 327.68 283.23" fill="none" stroke="rgb(0, 0, 0)" stroke-width="0.5" stroke-linejoin="round" stroke-linecap="round" stroke-miterlimit="10" pointer-events="all"/><path d="M 330.88 285 C 330.01 286.21 326.11 285.27 323.88 288.5 M 330.88 285 C 328.02 285.93 326.68 287.42 323.88 288.5 M 323.88 288.5 C 325.05 287.14 324.31 286.59 325.63 285 M 323.88 288.5 C 324.54 287.12 325.19 286.25 325.63 285 M 325.63 285 C 324.91 283.9 324.99 283.01 323.88 281.5 M 325.63 285 C 324.93 283.83 324.61 282.5 323.88 281.5 M 323.88 281.5 C 325.47 280.99 328.79 282.61 330.88 285 M 323.88 281.5 C 326.5 282.97 329.43 283.23 330.88 285" fill="none" stroke="rgb(0, 0, 0)" stroke-linejoin="round" stroke-linecap="round" stroke-miterlimit="10" pointer-events="all"/></g></g><g data-cell-id="gyem3hlseezmw4Tj-qo7-8"><g><rect x="182" y="93" width="110" height="50" fill="none" stroke="none" pointer-events="all"/><path d="M 178.11 90.89 L 295.95 90.77 L 295.29 141.2 L 182.09 146.77" fill="rgb(255, 255, 255)" stroke="none" pointer-events="all"/><path d="M 182 93 C 217.63 97.6 257.03 93.34 292 93 M 182 93 C 216.01 92.87 253.37 94.35 292 93 M 292 93 C 294.05 109.63 295.79 127.72 292 143 M 292 93 C 293.24 111.46 291.73 129.5 292 143 M 292 143 C 265.25 147.54 233.33 147.01 182 143 M 292 143 C 268.41 140.95 243.35 141.08 182 143 M 182 143 C 179.4 124.41 185.88 104.86 182 93 M 182 143 C 181.99 133.06 182.49 118.97 182 93" fill="none" stroke="rgb(0, 0, 0)" stroke-linejoin="round" stroke-linecap="round" stroke-miterlimit="10" pointer-events="all"/></g><g><g fill="rgb(0, 0, 0)" font-family="&quot;LXGW WenKai&quot;" text-anchor="middle" font-size="12px"><text x="236.5" y="122.5">web.xml</text></g></g></g><g data-cell-id="gyem3hlseezmw4Tj-qo7-9"><g><path d="M 332 272 L 332 246 L 492 246 L 492 272" fill="none" stroke="none" pointer-events="all"/><path d="M 332 272 C 335.69 264.19 335.05 260.16 332 246 C 395.6 248.26 459.58 240.66 492 246 C 494.09 251.78 496.98 259.5 492 272" fill="rgb(255, 255, 255)" stroke="none" pointer-events="all"/><path d="M 332 272 C 333.85 264.48 331.6 251.33 332 246 M 332 272 C 332.28 260.97 333 250.55 332 246 M 332 246 C 395.76 251.06 457.87 248.66 492 246 M 332 246 C 386.78 247.77 442.32 246.87 492 246 M 492 246 C 493.65 249.56 495.25 258.02 492 272 M 492 246 C 491.16 252.85 492.91 261.67 492 272" fill="none" stroke="rgb(0, 0, 0)" stroke-linejoin="round" stroke-linecap="round" stroke-miterlimit="10" pointer-events="all"/><path d="M 332 272 C 334.48 295.21 332.23 312.79 332 332 M 332 272 C 333.39 295.14 334.11 318.9 332 332 M 332 332 C 395.76 337.06 457.87 334.66 492 332 M 332 332 C 386.78 333.77 442.32 332.87 492 332 M 492 332 C 493.47 315.75 495.07 304.41 492 272 M 492 332 C 492.8 315.97 494.55 301.92 492 272" fill="none" stroke="rgb(0, 0, 0)" stroke-linejoin="round" stroke-linecap="round" stroke-miterlimit="10" pointer-events="none"/><path d="M 332 272 C 391.21 271.02 446.12 267.17 492 272 M 332 272 C 396.19 270.82 460.49 270.74 492 272" fill="none" stroke="rgb(0, 0, 0)" stroke-linejoin="round" stroke-linecap="round" stroke-miterlimit="10" pointer-events="none"/></g><g><g fill="rgb(0, 0, 0)" font-family="&quot;LXGW WenKai&quot;" font-weight="bold" text-anchor="middle" font-size="12px"><text x="411.5" y="263.5">DispatcherServlet</text></g></g><g data-cell-id="gyem3hlseezmw4Tj-qo7-10"><g><rect x="332" y="272" width="160" height="26" fill="none" stroke="none" pointer-events="all"/></g><g><g fill="rgb(0, 0, 0)" font-family="&quot;LXGW WenKai&quot;" clip-path="url(#mx-clip-336-277-152-26-0)" font-size="12px"><text x="337.5" y="289.5">+ ...</text></g></g></g><g data-cell-id="gyem3hlseezmw4Tj-qo7-11"><g><path d="M 332 302 L 492 302" fill="none" stroke="none" pointer-events="all"/><path d="M 332 302 C 374.08 307.53 416.84 300.68 492 302 M 332 302 C 393.68 301.38 455.42 301.88 492 302" fill="none" stroke="rgb(0, 0, 0)" stroke-linejoin="round" stroke-linecap="round" stroke-miterlimit="10" pointer-events="all"/></g></g><g data-cell-id="gyem3hlseezmw4Tj-qo7-12"><g><rect x="332" y="306" width="160" height="26" fill="none" stroke="none" pointer-events="all"/></g><g><g fill="rgb(0, 0, 0)" font-family="&quot;LXGW WenKai&quot;" clip-path="url(#mx-clip-336-311-152-26-0)" font-size="12px"><text x="337.5" y="323.5">+ ...</text></g></g></g></g><g data-cell-id="gyem3hlseezmw4Tj-qo7-18"><g><path d="M 521 115 L 521 89 L 681 89 L 681 115" fill="none" stroke="none" pointer-events="all"/><path d="M 521 115 C 522.87 100.77 520.15 93.61 521 89 C 558.65 87.46 604.34 90 681 89 C 685.77 98.13 684.25 97.17 681 115" fill="rgb(255, 255, 255)" stroke="none" pointer-events="all"/><path d="M 521 115 C 518.62 104.58 516.86 101.35 521 89 M 521 115 C 520.71 107.54 521.88 101.42 521 89 M 521 89 C 585.31 91.2 644.84 88.78 681 89 M 521 89 C 563 88.44 599.39 88.49 681 89 M 681 89 C 684.24 100.07 678.37 105.72 681 115 M 681 89 C 681.09 99.44 682.33 107.92 681 115" fill="none" stroke="rgb(0, 0, 0)" stroke-linejoin="round" stroke-linecap="round" stroke-miterlimit="10" pointer-events="all"/><path d="M 521 115 C 520.04 128.25 518.28 148.7 521 175 M 521 115 C 520.93 132.95 522.1 152.24 521 175 M 521 175 C 585.31 177.2 644.84 174.78 681 175 M 521 175 C 563 174.44 599.39 174.49 681 175 M 681 175 C 685.31 157.86 679.44 135.31 681 115 M 681 175 C 682.22 151.75 683.46 126.53 681 115" fill="none" stroke="rgb(0, 0, 0)" stroke-linejoin="round" stroke-linecap="round" stroke-miterlimit="10" pointer-events="none"/><path d="M 521 115 C 563.09 112.69 605.37 116.62 681 115 M 521 115 C 568.06 112.66 616.49 114.22 681 115" fill="none" stroke="rgb(0, 0, 0)" stroke-linejoin="round" stroke-linecap="round" stroke-miterlimit="10" pointer-events="none"/></g><g><g fill="rgb(0, 0, 0)" font-family="&quot;LXGW WenKai&quot;" font-weight="bold" text-anchor="middle" font-size="12px"><text x="600.5" y="106.5">HelloController</text></g></g><g data-cell-id="gyem3hlseezmw4Tj-qo7-19"><g><rect x="521" y="115" width="160" height="26" fill="none" stroke="none" pointer-events="all"/></g><g><g fill="rgb(0, 0, 0)" font-family="&quot;LXGW WenKai&quot;" clip-path="url(#mx-clip-525-120-152-26-0)" font-size="12px"><text x="526.5" y="132.5">+ ...</text></g></g></g><g data-cell-id="gyem3hlseezmw4Tj-qo7-20"><g><path d="M 521 145 L 681 145" fill="none" stroke="none" pointer-events="all"/><path d="M 521 145 C 566.54 144.11 610.69 149.21 681 145 M 521 145 C 576.02 140.88 633.87 142.48 681 145" fill="none" stroke="rgb(0, 0, 0)" stroke-linejoin="round" stroke-linecap="round" stroke-miterlimit="10" pointer-events="all"/></g></g><g data-cell-id="gyem3hlseezmw4Tj-qo7-21"><g><rect x="521" y="149" width="160" height="26" fill="none" stroke="none" pointer-events="all"/></g><g><g fill="rgb(0, 0, 0)" font-family="&quot;LXGW WenKai&quot;" clip-path="url(#mx-clip-525-154-152-26-0)" font-size="12px"><text x="526.5" y="166.5">+ ...</text></g></g></g></g><g data-cell-id="gyem3hlseezmw4Tj-qo7-23"><g><path d="M 564.5 214 Q 564.5 194 574.25 194 Q 584 194 584.03 182.36" fill="none" stroke="none" pointer-events="stroke"/><path d="M 584.04 177.11 L 587.52 184.11 L 584.03 182.36 L 580.52 184.1 Z" fill="none" stroke="none" pointer-events="all"/><path d="M 564.5 214 C 563.51 197.66 571.63 196.62 574.25 194 M 564.5 214 C 563.18 204.88 564.47 197.1 574.25 194 M 574.25 194 C 579.29 195.94 587.97 188.77 584.03 182.36 M 574.25 194 C 583.21 194.53 584.27 186.42 584.03 182.36" fill="none" stroke="rgb(0, 0, 0)" stroke-linejoin="round" stroke-linecap="round" stroke-miterlimit="10" pointer-events="stroke"/><path d="M 583.86 177.32 C 583.86 177.32 583.86 177.32 583.86 177.32 M 583.86 177.32 C 583.86 177.32 583.86 177.32 583.86 177.32 M 584.25 182.97 C 585.26 182.24 585.62 181.85 586.22 180.7 M 584.25 182.97 C 584.71 181.98 585.78 181.26 586.22 180.7" fill="none" stroke="rgb(0, 0, 0)" stroke-width="0.5" stroke-linejoin="round" stroke-linecap="round" stroke-miterlimit="10" pointer-events="all"/><path d="M 584.04 177.11 C 585.92 178.52 587.28 179.78 587.52 184.11 M 584.04 177.11 C 586.04 179.38 586.96 182.31 587.52 184.11 M 587.52 184.11 C 586.12 183.72 585.35 183.24 584.03 182.36 M 587.52 184.11 C 587.14 184.03 586.2 183.8 584.03 182.36 M 584.03 182.36 C 583.66 182.34 581.13 183.51 580.52 184.1 M 584.03 182.36 C 583.3 182.78 582.1 183.31 580.52 184.1 M 580.52 184.1 C 580.69 182.53 582.72 179.44 584.04 177.11 M 580.52 184.1 C 581.73 181.38 582.55 178.89 584.04 177.11" fill="none" stroke="rgb(0, 0, 0)" stroke-linejoin="round" stroke-linecap="round" stroke-miterlimit="10" pointer-events="all"/></g></g><g data-cell-id="gyem3hlseezmw4Tj-qo7-25"><g><path d="M 429.28 332.34 Q 429.3 372 424.15 372 Q 419 372 419 386.5 Q 419 401 420.87 401" fill="none" stroke="none" pointer-events="stroke"/><path d="M 415.62 401 L 422.62 397.5 L 420.87 401 L 422.62 404.5 Z" fill="none" stroke="none" pointer-events="all"/><path d="M 429.28 332.34 C 428.31 357.13 425.09 370.05 424.15 372 M 429.28 332.34 C 432.41 361.52 429.66 372.52 424.15 372 M 424.15 372 C 420.34 370.76 416.53 377.19 419 386.5 M 424.15 372 C 421.08 376.5 422.5 375.57 419 386.5 M 419 386.5 C 416.93 392.85 420.86 402.65 420.87 401 M 419 386.5 C 414.57 398.87 419.17 399.41 420.87 401" fill="none" stroke="rgb(0, 0, 0)" stroke-linejoin="round" stroke-linecap="round" stroke-miterlimit="10" pointer-events="stroke"/><path d="M 415.74 400.86 C 415.74 400.86 415.74 400.86 415.74 400.86 M 415.74 400.86 C 415.74 400.86 415.74 400.86 415.74 400.86 M 419.42 402.73 C 420.11 402.61 420.5 401.93 420.73 401.22 M 419.42 402.73 C 419.6 402.32 419.95 401.76 420.73 401.22" fill="none" stroke="rgb(0, 0, 0)" stroke-width="0.5" stroke-linejoin="round" stroke-linecap="round" stroke-miterlimit="10" pointer-events="all"/><path d="M 415.62 401 C 416.81 401.18 420.44 399.87 422.62 397.5 M 415.62 401 C 417.32 400.02 420.05 399.63 422.62 397.5 M 422.62 397.5 C 421.29 399.04 421.61 399.36 420.87 401 M 422.62 397.5 C 421.71 398.81 421.57 400.02 420.87 401 M 420.87 401 C 421.62 402.26 422.23 403.35 422.62 404.5 M 420.87 401 C 421.83 402.22 422.13 403.4 422.62 404.5 M 422.62 404.5 C 420.22 404.66 419.77 403.06 415.62 401 M 422.62 404.5 C 419.89 403.27 419.09 402.24 415.62 401" fill="none" stroke="rgb(0, 0, 0)" stroke-linejoin="round" stroke-linecap="round" stroke-miterlimit="10" pointer-events="all"/></g></g><g data-cell-id="gyem3hlseezmw4Tj-qo7-30"><g><rect x="125" y="48" width="238" height="41" fill="none" stroke="none" pointer-events="all"/></g><g><g fill="rgb(0, 0, 0)" font-family="&quot;LXGW WenKai&quot;" text-anchor="middle" font-size="12px"><text x="243.5" y="66">web.xml中url-pattern配置的是 /</text><text x="243.5" y="80">因此所有请求都先经过DispatcherServlet</text></g></g></g><g data-cell-id="gyem3hlseezmw4Tj-qo7-32"><g><rect x="511" y="55.5" width="170" height="26" fill="none" stroke="none" pointer-events="all"/></g><g><g fill="rgb(0, 0, 0)" font-family="&quot;LXGW WenKai&quot;" text-anchor="middle" font-size="12px"><text x="595.5" y="73">Controller返回逻辑视图名称</text></g></g></g><g data-cell-id="qSzuw7H5UFeYLlG2jMTL-1"><g><path d="M 492 285 Q 540.9 285 540.87 247.36" fill="none" stroke="none" pointer-events="stroke"/><path d="M 540.86 242.11 L 544.37 249.1 L 540.87 247.36 L 537.37 249.11 Z" fill="none" stroke="none" pointer-events="all"/><path d="M 492 285 C 528.3 283.65 543.68 272.14 540.87 247.36 M 492 285 C 526.9 281.84 538.17 272.7 540.87 247.36" fill="none" stroke="rgb(0, 0, 0)" stroke-linejoin="round" stroke-linecap="round" stroke-miterlimit="10" pointer-events="stroke"/><path d="M 540.93 242.03 C 540.93 242.03 540.93 242.03 540.93 242.03 M 540.93 242.03 C 540.93 242.03 540.93 242.03 540.93 242.03 M 541.32 247.67 C 541.97 247.51 542.29 246.59 542.63 246.17 M 541.32 247.67 C 541.62 247.1 542.19 246.97 542.63 246.17" fill="none" stroke="rgb(0, 0, 0)" stroke-width="0.5" stroke-linejoin="round" stroke-linecap="round" stroke-miterlimit="10" pointer-events="all"/><path d="M 540.86 242.11 C 542.07 245.59 542.49 246.62 544.37 249.1 M 540.86 242.11 C 542.56 244.03 543.64 246.28 544.37 249.1 M 544.37 249.1 C 543.82 248.3 541.31 247.64 540.87 247.36 M 544.37 249.1 C 543.86 248.64 542.65 248.58 540.87 247.36 M 540.87 247.36 C 540.32 247.59 538.48 248.59 537.37 249.11 M 540.87 247.36 C 539.91 248.17 538.51 248.17 537.37 249.11 M 537.37 249.11 C 537.37 246.24 540.58 246.31 540.86 242.11 M 537.37 249.11 C 537.73 247.9 538.11 246.82 540.86 242.11" fill="none" stroke="rgb(0, 0, 0)" stroke-linejoin="round" stroke-linecap="round" stroke-miterlimit="10" pointer-events="all"/></g></g><g data-cell-id="gyem3hlseezmw4Tj-qo7-31"><g><rect x="453" y="214" width="223" height="26" fill="none" stroke="none" pointer-events="all"/></g><g><g fill="rgb(0, 0, 0)" font-family="&quot;LXGW WenKai&quot;" text-anchor="middle" font-size="12px"><text x="564" y="231.5">DispatcherServlet找到对应Controller</text></g></g></g></g></g></g></svg>