<?xml version="1.0" encoding="UTF-8"?>
<!-- Do not edit this file with editors other than draw.io -->
<!DOCTYPE svg PUBLIC "-//W3C//DTD SVG 1.1//EN" "http://www.w3.org/Graphics/SVG/1.1/DTD/svg11.dtd">
<svg xmlns="http://www.w3.org/2000/svg" xmlns:xlink="http://www.w3.org/1999/xlink" version="1.1" width="980px" height="329px" viewBox="-0.5 -0.5 980 329" content="&lt;mxfile host=&quot;app.diagrams.net&quot; modified=&quot;2024-06-27T14:07:20.219Z&quot; agent=&quot;Mozilla/5.0 (Windows NT 10.0; Win64; x64) AppleWebKit/537.36 (KHTML, like Gecko) Chrome/126.0.0.0 Safari/537.36&quot; etag=&quot;p4JhGX8zTn7os3nLNzf6&quot; version=&quot;24.6.3&quot; type=&quot;github&quot;&gt;&#10;  &lt;diagram id=&quot;23iRSUPoRavnBvh4doch&quot; name=&quot;Page-1&quot;&gt;&#10;    &lt;mxGraphModel dx=&quot;2874&quot; dy=&quot;698&quot; grid=&quot;0&quot; gridSize=&quot;10&quot; guides=&quot;1&quot; tooltips=&quot;1&quot; connect=&quot;1&quot; arrows=&quot;1&quot; fold=&quot;1&quot; page=&quot;0&quot; pageScale=&quot;1&quot; pageWidth=&quot;827&quot; pageHeight=&quot;1169&quot; math=&quot;0&quot; shadow=&quot;0&quot;&gt;&#10;      &lt;root&gt;&#10;        &lt;mxCell id=&quot;0&quot; /&gt;&#10;        &lt;mxCell id=&quot;1&quot; parent=&quot;0&quot; /&gt;&#10;        &lt;mxCell id=&quot;gyem3hlseezmw4Tj-qo7-15&quot; style=&quot;edgeStyle=orthogonalEdgeStyle;curved=1;rounded=0;orthogonalLoop=1;jettySize=auto;exitX=1;exitY=0.5;exitDx=0;exitDy=0;exitPerimeter=0;entryX=0;entryY=0.5;entryDx=0;entryDy=0;fontFamily=LXGW WenKai;sketch=1;curveFitting=1;jiggle=2;&quot; edge=&quot;1&quot; parent=&quot;1&quot; source=&quot;wa0JLTWsgckLO4hLmPQc-1&quot; target=&quot;gyem3hlseezmw4Tj-qo7-8&quot;&gt;&#10;          &lt;mxGeometry relative=&quot;1&quot; as=&quot;geometry&quot; /&gt;&#10;        &lt;/mxCell&gt;&#10;        &lt;mxCell id=&quot;wa0JLTWsgckLO4hLmPQc-1&quot; value=&quot;客户端&quot; style=&quot;fontColor=#0066CC;verticalAlign=top;verticalLabelPosition=bottom;labelPosition=center;align=center;outlineConnect=0;fillColor=#CCCCCC;strokeColor=#6881B3;gradientColor=none;gradientDirection=north;strokeWidth=2;shape=mxgraph.networks.monitor;sketch=1;hachureGap=4;jiggle=2;curveFitting=1;fontFamily=LXGW WenKai;&quot; parent=&quot;1&quot; vertex=&quot;1&quot;&gt;&#10;          &lt;mxGeometry x=&quot;-485&quot; y=&quot;537&quot; width=&quot;80&quot; height=&quot;65&quot; as=&quot;geometry&quot; /&gt;&#10;        &lt;/mxCell&gt;&#10;        &lt;mxCell id=&quot;gyem3hlseezmw4Tj-qo7-16&quot; style=&quot;edgeStyle=orthogonalEdgeStyle;curved=1;rounded=0;orthogonalLoop=1;jettySize=auto;exitX=0.75;exitY=1;exitDx=0;exitDy=0;entryX=0;entryY=0.5;entryDx=0;entryDy=0;fontFamily=LXGW WenKai;sketch=1;curveFitting=1;jiggle=2;&quot; edge=&quot;1&quot; parent=&quot;1&quot; source=&quot;gyem3hlseezmw4Tj-qo7-8&quot; target=&quot;gyem3hlseezmw4Tj-qo7-10&quot;&gt;&#10;          &lt;mxGeometry relative=&quot;1&quot; as=&quot;geometry&quot; /&gt;&#10;        &lt;/mxCell&gt;&#10;        &lt;mxCell id=&quot;gyem3hlseezmw4Tj-qo7-8&quot; value=&quot;web.xml&quot; style=&quot;fontFamily=LXGW WenKai;sketch=1;curveFitting=1;jiggle=2;&quot; vertex=&quot;1&quot; parent=&quot;1&quot;&gt;&#10;          &lt;mxGeometry x=&quot;-345&quot; y=&quot;455&quot; width=&quot;110&quot; height=&quot;50&quot; as=&quot;geometry&quot; /&gt;&#10;        &lt;/mxCell&gt;&#10;        &lt;mxCell id=&quot;gyem3hlseezmw4Tj-qo7-9&quot; value=&quot;DispatcherServlet&quot; style=&quot;swimlane;fontStyle=1;align=center;verticalAlign=top;childLayout=stackLayout;horizontal=1;startSize=26;horizontalStack=0;resizeParent=1;resizeParentMax=0;resizeLast=0;collapsible=1;marginBottom=0;fontFamily=LXGW WenKai;sketch=1;curveFitting=1;jiggle=2;&quot; vertex=&quot;1&quot; parent=&quot;1&quot;&gt;&#10;          &lt;mxGeometry x=&quot;-195&quot; y=&quot;608&quot; width=&quot;160&quot; height=&quot;86&quot; as=&quot;geometry&quot; /&gt;&#10;        &lt;/mxCell&gt;&#10;        &lt;mxCell id=&quot;gyem3hlseezmw4Tj-qo7-10&quot; value=&quot;+ ...&quot; style=&quot;text;strokeColor=none;fillColor=none;align=left;verticalAlign=top;spacingLeft=4;spacingRight=4;overflow=hidden;rotatable=0;points=[[0,0.5],[1,0.5]];portConstraint=eastwest;fontFamily=LXGW WenKai;sketch=1;curveFitting=1;jiggle=2;&quot; vertex=&quot;1&quot; parent=&quot;gyem3hlseezmw4Tj-qo7-9&quot;&gt;&#10;          &lt;mxGeometry y=&quot;26&quot; width=&quot;160&quot; height=&quot;26&quot; as=&quot;geometry&quot; /&gt;&#10;        &lt;/mxCell&gt;&#10;        &lt;mxCell id=&quot;gyem3hlseezmw4Tj-qo7-11&quot; value=&quot;&quot; style=&quot;line;strokeWidth=1;fillColor=none;align=left;verticalAlign=middle;spacingTop=-1;spacingLeft=3;spacingRight=3;rotatable=0;labelPosition=right;points=[];portConstraint=eastwest;strokeColor=inherit;fontFamily=LXGW WenKai;sketch=1;curveFitting=1;jiggle=2;&quot; vertex=&quot;1&quot; parent=&quot;gyem3hlseezmw4Tj-qo7-9&quot;&gt;&#10;          &lt;mxGeometry y=&quot;52&quot; width=&quot;160&quot; height=&quot;8&quot; as=&quot;geometry&quot; /&gt;&#10;        &lt;/mxCell&gt;&#10;        &lt;mxCell id=&quot;gyem3hlseezmw4Tj-qo7-12&quot; value=&quot;+ ...&quot; style=&quot;text;strokeColor=none;fillColor=none;align=left;verticalAlign=top;spacingLeft=4;spacingRight=4;overflow=hidden;rotatable=0;points=[[0,0.5],[1,0.5]];portConstraint=eastwest;fontFamily=LXGW WenKai;sketch=1;curveFitting=1;jiggle=2;&quot; vertex=&quot;1&quot; parent=&quot;gyem3hlseezmw4Tj-qo7-9&quot;&gt;&#10;          &lt;mxGeometry y=&quot;60&quot; width=&quot;160&quot; height=&quot;26&quot; as=&quot;geometry&quot; /&gt;&#10;        &lt;/mxCell&gt;&#10;        &lt;mxCell id=&quot;gyem3hlseezmw4Tj-qo7-18&quot; value=&quot;HelloController&quot; style=&quot;swimlane;fontStyle=1;align=center;verticalAlign=top;childLayout=stackLayout;horizontal=1;startSize=26;horizontalStack=0;resizeParent=1;resizeParentMax=0;resizeLast=0;collapsible=1;marginBottom=0;fontFamily=LXGW WenKai;sketch=1;curveFitting=1;jiggle=2;&quot; vertex=&quot;1&quot; parent=&quot;1&quot;&gt;&#10;          &lt;mxGeometry x=&quot;-6&quot; y=&quot;451&quot; width=&quot;160&quot; height=&quot;86&quot; as=&quot;geometry&quot; /&gt;&#10;        &lt;/mxCell&gt;&#10;        &lt;mxCell id=&quot;gyem3hlseezmw4Tj-qo7-19&quot; value=&quot;+ ...&quot; style=&quot;text;strokeColor=none;fillColor=none;align=left;verticalAlign=top;spacingLeft=4;spacingRight=4;overflow=hidden;rotatable=0;points=[[0,0.5],[1,0.5]];portConstraint=eastwest;fontFamily=LXGW WenKai;sketch=1;curveFitting=1;jiggle=2;&quot; vertex=&quot;1&quot; parent=&quot;gyem3hlseezmw4Tj-qo7-18&quot;&gt;&#10;          &lt;mxGeometry y=&quot;26&quot; width=&quot;160&quot; height=&quot;26&quot; as=&quot;geometry&quot; /&gt;&#10;        &lt;/mxCell&gt;&#10;        &lt;mxCell id=&quot;gyem3hlseezmw4Tj-qo7-20&quot; value=&quot;&quot; style=&quot;line;strokeWidth=1;fillColor=none;align=left;verticalAlign=middle;spacingTop=-1;spacingLeft=3;spacingRight=3;rotatable=0;labelPosition=right;points=[];portConstraint=eastwest;strokeColor=inherit;fontFamily=LXGW WenKai;sketch=1;curveFitting=1;jiggle=2;&quot; vertex=&quot;1&quot; parent=&quot;gyem3hlseezmw4Tj-qo7-18&quot;&gt;&#10;          &lt;mxGeometry y=&quot;52&quot; width=&quot;160&quot; height=&quot;8&quot; as=&quot;geometry&quot; /&gt;&#10;        &lt;/mxCell&gt;&#10;        &lt;mxCell id=&quot;gyem3hlseezmw4Tj-qo7-21&quot; value=&quot;+ ...&quot; style=&quot;text;strokeColor=none;fillColor=none;align=left;verticalAlign=top;spacingLeft=4;spacingRight=4;overflow=hidden;rotatable=0;points=[[0,0.5],[1,0.5]];portConstraint=eastwest;fontFamily=LXGW WenKai;sketch=1;curveFitting=1;jiggle=2;&quot; vertex=&quot;1&quot; parent=&quot;gyem3hlseezmw4Tj-qo7-18&quot;&gt;&#10;          &lt;mxGeometry y=&quot;60&quot; width=&quot;160&quot; height=&quot;26&quot; as=&quot;geometry&quot; /&gt;&#10;        &lt;/mxCell&gt;&#10;        &lt;mxCell id=&quot;gyem3hlseezmw4Tj-qo7-23&quot; style=&quot;edgeStyle=orthogonalEdgeStyle;curved=1;rounded=0;orthogonalLoop=1;jettySize=auto;exitX=1;exitY=0.5;exitDx=0;exitDy=0;entryX=0.394;entryY=1.038;entryDx=0;entryDy=0;entryPerimeter=0;fontFamily=LXGW WenKai;sketch=1;curveFitting=1;jiggle=2;&quot; edge=&quot;1&quot; parent=&quot;1&quot; source=&quot;gyem3hlseezmw4Tj-qo7-10&quot; target=&quot;gyem3hlseezmw4Tj-qo7-21&quot;&gt;&#10;          &lt;mxGeometry relative=&quot;1&quot; as=&quot;geometry&quot; /&gt;&#10;        &lt;/mxCell&gt;&#10;        &lt;mxCell id=&quot;gyem3hlseezmw4Tj-qo7-24&quot; value=&quot;springmvc-servlet.xml&quot; style=&quot;fontFamily=LXGW WenKai;sketch=1;curveFitting=1;jiggle=2;&quot; vertex=&quot;1&quot; parent=&quot;1&quot;&gt;&#10;          &lt;mxGeometry x=&quot;161&quot; y=&quot;656&quot; width=&quot;165&quot; height=&quot;50&quot; as=&quot;geometry&quot; /&gt;&#10;        &lt;/mxCell&gt;&#10;        &lt;mxCell id=&quot;gyem3hlseezmw4Tj-qo7-25&quot; style=&quot;edgeStyle=orthogonalEdgeStyle;curved=1;rounded=0;orthogonalLoop=1;jettySize=auto;exitX=1;exitY=0.5;exitDx=0;exitDy=0;entryX=0.25;entryY=0;entryDx=0;entryDy=0;fontFamily=LXGW WenKai;sketch=1;curveFitting=1;jiggle=2;&quot; edge=&quot;1&quot; parent=&quot;1&quot; source=&quot;gyem3hlseezmw4Tj-qo7-19&quot; target=&quot;gyem3hlseezmw4Tj-qo7-24&quot;&gt;&#10;          &lt;mxGeometry relative=&quot;1&quot; as=&quot;geometry&quot; /&gt;&#10;        &lt;/mxCell&gt;&#10;        &lt;mxCell id=&quot;gyem3hlseezmw4Tj-qo7-26&quot; value=&quot;hello.thymeleaf&quot; style=&quot;shape=mxgraph.basic.document;fontFamily=LXGW WenKai;sketch=1;curveFitting=1;jiggle=2;&quot; vertex=&quot;1&quot; parent=&quot;1&quot;&gt;&#10;          &lt;mxGeometry x=&quot;330&quot; y=&quot;463&quot; width=&quot;163&quot; height=&quot;100&quot; as=&quot;geometry&quot; /&gt;&#10;        &lt;/mxCell&gt;&#10;        &lt;mxCell id=&quot;gyem3hlseezmw4Tj-qo7-27&quot; style=&quot;edgeStyle=orthogonalEdgeStyle;curved=1;rounded=0;orthogonalLoop=1;jettySize=auto;exitX=0.75;exitY=0;exitDx=0;exitDy=0;entryX=0;entryY=0.5;entryDx=0;entryDy=0;entryPerimeter=0;fontFamily=LXGW WenKai;sketch=1;curveFitting=1;jiggle=2;&quot; edge=&quot;1&quot; parent=&quot;1&quot; source=&quot;gyem3hlseezmw4Tj-qo7-24&quot; target=&quot;gyem3hlseezmw4Tj-qo7-26&quot;&gt;&#10;          &lt;mxGeometry relative=&quot;1&quot; as=&quot;geometry&quot; /&gt;&#10;        &lt;/mxCell&gt;&#10;        &lt;mxCell id=&quot;gyem3hlseezmw4Tj-qo7-30&quot; value=&quot;web.xml中url-pattern配置的是 /&amp;#xa;因此所有请求都先经过DispatcherServlet&quot; style=&quot;text;align=center;verticalAlign=middle;resizable=0;points=[];autosize=1;strokeColor=none;fillColor=none;fontFamily=LXGW WenKai;sketch=1;curveFitting=1;jiggle=2;&quot; vertex=&quot;1&quot; parent=&quot;1&quot;&gt;&#10;          &lt;mxGeometry x=&quot;-402&quot; y=&quot;410&quot; width=&quot;238&quot; height=&quot;41&quot; as=&quot;geometry&quot; /&gt;&#10;        &lt;/mxCell&gt;&#10;        &lt;mxCell id=&quot;gyem3hlseezmw4Tj-qo7-31&quot; value=&quot;DispatcherServlet找到对应Controller&quot; style=&quot;text;align=center;verticalAlign=middle;resizable=0;points=[];autosize=1;strokeColor=none;fillColor=none;fontFamily=LXGW WenKai;sketch=1;curveFitting=1;jiggle=2;&quot; vertex=&quot;1&quot; parent=&quot;1&quot;&gt;&#10;          &lt;mxGeometry x=&quot;-224&quot; y=&quot;704&quot; width=&quot;223&quot; height=&quot;26&quot; as=&quot;geometry&quot; /&gt;&#10;        &lt;/mxCell&gt;&#10;        &lt;mxCell id=&quot;gyem3hlseezmw4Tj-qo7-32&quot; value=&quot;Controller返回逻辑视图名称&quot; style=&quot;text;align=center;verticalAlign=middle;resizable=0;points=[];autosize=1;strokeColor=none;fillColor=none;fontFamily=LXGW WenKai;sketch=1;curveFitting=1;jiggle=2;&quot; vertex=&quot;1&quot; parent=&quot;1&quot;&gt;&#10;          &lt;mxGeometry x=&quot;-16&quot; y=&quot;417.5&quot; width=&quot;170&quot; height=&quot;26&quot; as=&quot;geometry&quot; /&gt;&#10;        &lt;/mxCell&gt;&#10;        &lt;mxCell id=&quot;gyem3hlseezmw4Tj-qo7-33&quot; value=&quot;根据视图解析器配置，找到对应视图&quot; style=&quot;text;align=center;verticalAlign=middle;resizable=0;points=[];autosize=1;strokeColor=none;fillColor=none;fontFamily=LXGW WenKai;sketch=1;curveFitting=1;jiggle=2;&quot; vertex=&quot;1&quot; parent=&quot;1&quot;&gt;&#10;          &lt;mxGeometry x=&quot;149&quot; y=&quot;713&quot; width=&quot;210&quot; height=&quot;26&quot; as=&quot;geometry&quot; /&gt;&#10;        &lt;/mxCell&gt;&#10;      &lt;/root&gt;&#10;    &lt;/mxGraphModel&gt;&#10;  &lt;/diagram&gt;&#10;&lt;/mxfile&gt;&#10;" resource="https://app.diagrams.net/#Hluguosong%2Fimages%2Fmaster%2Fdiagrams%2Fjava_serve%2Fweb_application%2Fmvc%2FSpringMVC%E6%89%A7%E8%A1%8C%E8%BF%87%E7%A8%8B.svg#%7B%22pageId%22%3A%2223iRSUPoRavnBvh4doch%22%7D"><defs><clipPath id="mx-clip-295-229-152-26-0"><rect x="295" y="229" width="152" height="26"/></clipPath><clipPath id="mx-clip-295-263-152-26-0"><rect x="295" y="263" width="152" height="26"/></clipPath><clipPath id="mx-clip-484-72-152-26-0"><rect x="484" y="72" width="152" height="26"/></clipPath><clipPath id="mx-clip-484-106-152-26-0"><rect x="484" y="106" width="152" height="26"/></clipPath></defs><g><g data-cell-id="0"><g data-cell-id="1"><g data-cell-id="gyem3hlseezmw4Tj-qo7-15"><g><path d="M 81 159.5 Q 111 159.5 111 114.75 Q 111 70 134.63 70" fill="none" stroke="none" pointer-events="stroke"/><path d="M 139.88 70 L 132.88 73.5 L 134.63 70 L 132.88 66.5 Z" fill="none" stroke="none" pointer-events="all"/><path d="M 81 159.5 C 100.01 160.77 111.38 141.49 111 114.75 M 81 159.5 C 104.39 162.04 108.34 143.64 111 114.75 M 111 114.75 C 109.89 88.88 120.08 67.88 134.63 70 M 111 114.75 C 111.72 87.65 118.27 72.4 134.63 70" fill="none" stroke="rgb(0, 0, 0)" stroke-linejoin="round" stroke-linecap="round" stroke-miterlimit="10" pointer-events="stroke"/><path d="M 132.59 66.83 C 132.59 66.83 132.59 66.83 132.59 66.83 M 132.59 66.83 C 132.59 66.83 132.59 66.83 132.59 66.83 M 134.95 70.21 C 135.64 70.1 135.75 69.26 136.27 68.7 M 134.95 70.21 C 135.14 69.62 135.73 69.53 136.27 68.7" fill="none" stroke="rgb(0, 0, 0)" stroke-width="0.5" stroke-linejoin="round" stroke-linecap="round" stroke-miterlimit="10" pointer-events="all"/><path d="M 139.88 70 C 136.76 72.13 136.91 71.04 132.88 73.5 M 139.88 70 C 138.14 70.7 136.07 72.56 132.88 73.5 M 132.88 73.5 C 134.09 72.96 133.73 71.48 134.63 70 M 132.88 73.5 C 133.12 72.07 134.24 71.2 134.63 70 M 134.63 70 C 134.07 69.88 133.31 68.27 132.88 66.5 M 134.63 70 C 134.39 68.91 133.74 68.16 132.88 66.5 M 132.88 66.5 C 136.09 66.23 136.28 69.78 139.88 70 M 132.88 66.5 C 135.42 68.23 138.56 68.78 139.88 70" fill="none" stroke="rgb(0, 0, 0)" stroke-linejoin="round" stroke-linecap="round" stroke-miterlimit="10" pointer-events="all"/></g></g><g data-cell-id="wa0JLTWsgckLO4hLmPQc-1"><g><rect x="1" y="127" width="80" height="46.06" fill="none" stroke="none" pointer-events="all"/><path d="M 25.5 185.04 L 56.4 185.04 L 62.5 192 L 19.5 192 Z" fill="none" stroke="none" pointer-events="all"/><rect x="31" y="173.06" width="20" height="15.35" fill="none" stroke="none" pointer-events="all"/><rect x="4" y="130.07" width="73" height="39.92" fill="none" stroke="none" pointer-events="all"/><path d="M 0.83 127.2 C 0.83 127.2 0.83 127.2 0.83 127.2 M 0.83 127.2 C 0.83 127.2 0.83 127.2 0.83 127.2 M 1.22 132.84 C 2.45 131.41 5.16 130.58 6.47 126.8 M 1.22 132.84 C 3.35 131.25 3.25 129.91 6.47 126.8 M 0.96 139.24 C 3.48 137.89 5.08 130.18 11.46 127.16 M 0.96 139.24 C 4.3 135.28 4.38 134.78 11.46 127.16 M 0.7 145.63 C 3.36 141.86 10.18 133.51 17.1 126.77 M 0.7 145.63 C 7.55 138.72 13.39 134.58 17.1 126.77 M 1.1 151.28 C 6.77 142.42 15.77 133.19 22.09 127.13 M 1.1 151.28 C 8.57 143.38 17.16 134.11 22.09 127.13 M 0.84 157.67 C 7.15 142.94 18.05 136.25 27.73 126.73 M 0.84 157.67 C 6.06 149.35 13.81 146.11 27.73 126.73 M 1.23 163.32 C 9.18 153.72 18.87 149.96 32.72 127.09 M 1.23 163.32 C 12.47 152.08 24.49 135.45 32.72 127.09 M 0.97 169.72 C 15.55 152.95 30.5 140.88 38.36 126.7 M 0.97 169.72 C 14.71 155.12 25.32 142.05 38.36 126.7 M 2.67 173.85 C 14.03 162.22 23.22 151.46 43.35 127.06 M 2.67 173.85 C 15.91 159.58 28.12 145.5 43.35 127.06 M 8.32 173.45 C 18.16 162.98 28.82 143.14 48.99 126.66 M 8.32 173.45 C 22.74 158.48 37.01 144.95 48.99 126.66 M 13.31 173.81 C 29.3 160.25 37.05 150.11 53.98 127.02 M 13.31 173.81 C 20.57 163.12 27.75 153.92 53.98 127.02 M 18.95 173.42 C 30.3 164.74 35.17 155.24 59.62 126.63 M 18.95 173.42 C 33.66 155.04 49.2 138.45 59.62 126.63 M 23.94 173.78 C 33.99 154.65 50.61 145.29 64.61 126.99 M 23.94 173.78 C 32.87 163.55 42.12 153.49 64.61 126.99 M 29.58 173.39 C 38.04 162.87 50.12 146.66 69.6 127.35 M 29.58 173.39 C 42.1 160.53 49.85 148.05 69.6 127.35 M 34.57 173.75 C 48.16 153.51 69.68 139.49 75.24 126.95 M 34.57 173.75 C 50.82 157.52 65.54 138.67 75.24 126.95 M 40.21 173.35 C 55.96 160.12 62.46 142.58 80.23 127.31 M 40.21 173.35 C 49.08 163.67 56.58 154.73 80.23 127.31 M 45.2 173.71 C 56.85 167.45 64.24 155.78 81.28 132.2 M 45.2 173.71 C 54.69 165.32 60.81 155.98 81.28 132.2 M 50.84 173.32 C 57.82 165.46 65.78 153.07 81.67 137.85 M 50.84 173.32 C 61.66 162.23 72.34 145.91 81.67 137.85 M 55.83 173.68 C 59.85 162.82 67.89 160.36 81.41 144.24 M 55.83 173.68 C 62.49 164.01 71.83 155.44 81.41 144.24 M 61.47 173.28 C 68.13 168.47 70.23 160.96 81.15 150.64 M 61.47 173.28 C 67.39 165.05 72.37 162.72 81.15 150.64 M 66.46 173.64 C 69.24 169.19 80.07 160.46 81.54 156.28 M 66.46 173.64 C 71.86 169.13 72.4 164.32 81.54 156.28 M 72.1 173.25 C 72.71 170.21 79.67 167.21 81.28 162.68 M 72.1 173.25 C 74.34 169.09 77.16 168.73 81.28 162.68 M 77.09 173.61 C 77.32 170.97 81.25 168.84 81.68 168.32 M 77.09 173.61 C 78.37 172.24 79.27 170.69 81.68 168.32" fill="none" stroke="#cccccc" stroke-linejoin="round" stroke-linecap="round" stroke-miterlimit="10" pointer-events="all"/><path d="M 1 127 C 31.82 126.2 60.19 122.83 81 127 M 1 127 C 25.48 124.51 50.29 125.49 81 127 M 81 127 C 84.91 144.59 80.37 166.84 81 173.06 M 81 127 C 81.29 141.8 83.14 158.77 81 173.06 M 81 173.06 C 52.85 173.95 21.85 171.27 1 173.06 M 81 173.06 C 51.9 173.65 24.4 175.4 1 173.06 M 1 173.06 C 4.39 152.91 4.51 137.99 1 127 M 1 173.06 C -0.03 161.27 -1.6 150.34 1 127" fill="none" stroke="#6881b3" stroke-width="2" stroke-linejoin="round" stroke-linecap="round" stroke-miterlimit="10" pointer-events="all"/><path d="M 25.81 184.68 C 25.81 184.68 25.81 184.68 25.81 184.68 M 25.81 184.68 C 25.81 184.68 25.81 184.68 25.81 184.68 M 24.24 192.59 C 25.77 190.81 29.16 189.76 30.8 185.04 M 24.24 192.59 C 26.89 190.61 26.76 188.93 30.8 185.04 M 29.22 192.95 C 30.79 192.11 31.8 187.29 35.78 185.4 M 29.22 192.95 C 31.31 190.48 31.36 190.16 35.78 185.4 M 34.87 192.56 C 35.67 191.3 38.55 187.73 41.43 185.01 M 34.87 192.56 C 37.74 189.73 40.12 188.29 41.43 185.01 M 39.85 192.92 C 41.43 189.82 44.75 186.57 46.41 185.37 M 39.85 192.92 C 42.13 190.63 45.05 187.58 46.41 185.37 M 45.5 192.52 C 46.12 188.2 48.88 187.95 52.06 184.98 M 45.5 192.52 C 46.64 190.09 49.03 190.18 52.06 184.98 M 50.48 192.88 C 52.38 190.61 55.1 191.18 57.04 185.34 M 50.48 192.88 C 52.65 191.11 55.26 186.7 57.04 185.34 M 56.13 192.49 C 57.52 190.7 59.08 190.19 59.41 188.71 M 56.13 192.49 C 57.56 191.26 58.14 190.37 59.41 188.71 M 61.11 192.85 C 61.56 192.4 61.82 192.08 62.42 191.34 M 61.11 192.85 C 61.51 192.43 61.86 192.03 62.42 191.34" fill="none" stroke="#cccccc" stroke-linejoin="round" stroke-linecap="round" stroke-miterlimit="10" pointer-events="all"/><path d="M 25.5 185.04 C 36.95 185.03 45.95 181.65 56.4 185.04 M 25.5 185.04 C 34.6 183.17 44.02 184.15 56.4 185.04 M 56.4 185.04 C 60.46 187.52 60.78 192.11 62.5 192 M 56.4 185.04 C 58.4 186.87 61.38 189.73 62.5 192 M 62.5 192 C 48.52 193.23 31.7 190.56 19.5 192 M 62.5 192 C 46.32 191.97 31.75 193.72 19.5 192 M 19.5 192 C 23.29 187.9 25.49 186.12 25.5 185.04 M 19.5 192 C 20.74 190.17 21.54 188.75 25.5 185.04" fill="none" stroke="#6881b3" stroke-width="2" stroke-linejoin="round" stroke-linecap="round" stroke-miterlimit="10" pointer-events="all"/><path d="M 30.88 173.2 C 30.88 173.2 30.88 173.2 30.88 173.2 M 30.88 173.2 C 30.88 173.2 30.88 173.2 30.88 173.2 M 31.28 178.84 C 32.51 177.41 35.21 176.58 36.53 172.8 M 31.28 178.84 C 33.4 177.26 33.3 175.91 36.53 172.8 M 31.02 185.24 C 33.53 183.89 35.14 176.18 41.51 173.16 M 31.02 185.24 C 34.35 181.28 34.43 180.78 41.51 173.16 M 32.72 189.37 C 34.75 186.35 40.94 178.74 47.16 172.77 M 32.72 189.37 C 38.92 183.21 44.11 179.83 47.16 172.77 M 38.37 188.98 C 41.53 182.79 48.16 176.28 51.49 173.88 M 38.37 188.98 C 42.92 184.4 48.76 178.3 51.49 173.88 M 43.35 189.34 C 44.16 183.71 47.75 183.39 51.88 179.52 M 43.35 189.34 C 44.85 186.18 47.96 186.29 51.88 179.52 M 49 188.94 C 49.75 188.03 50.84 188.26 51.62 185.92 M 49 188.94 C 49.86 188.23 50.91 186.47 51.62 185.92" fill="none" stroke="#cccccc" stroke-linejoin="round" stroke-linecap="round" stroke-miterlimit="10" pointer-events="all"/><path d="M 31 173.06 C 38.15 173.23 42.85 169.85 51 173.06 M 31 173.06 C 36.68 171.33 42.69 172.32 51 173.06 M 51 173.06 C 53.76 178.62 50.27 187.75 51 188.42 M 51 173.06 C 50.87 177.47 52.29 183.54 51 188.42 M 51 188.42 C 45.83 189.87 37.83 187.19 31 188.42 M 51 188.42 C 42.86 188.01 36.32 189.76 31 188.42 M 31 188.42 C 33.73 180.09 33.82 175.8 31 173.06 M 31 188.42 C 30.48 184.43 29.27 181.12 31 173.06" fill="none" stroke="#6881b3" stroke-width="2" stroke-linejoin="round" stroke-linecap="round" stroke-miterlimit="10" pointer-events="all"/><path d="M 3.51 129.5 L 75.29 132 L 73.57 166.48 L 2.97 167.86" fill="#ffffff" stroke="none" pointer-events="all"/></g><g><g fill="#0066CC" font-family="&quot;LXGW WenKai&quot;" text-anchor="middle" font-size="12px"><text x="40.5" y="209.5">客户端</text></g></g></g><g data-cell-id="gyem3hlseezmw4Tj-qo7-16"><g><path d="M 223.5 95 Q 223.5 237 284.63 237" fill="none" stroke="none" pointer-events="stroke"/><path d="M 289.88 237 L 282.88 240.5 L 284.63 237 L 282.88 233.5 Z" fill="none" stroke="none" pointer-events="all"/><path d="M 223.5 95 C 222.51 191.61 241.06 239.62 284.63 237 M 223.5 95 C 224.51 186.87 239.29 239.37 284.63 237" fill="none" stroke="rgb(0, 0, 0)" stroke-linejoin="round" stroke-linecap="round" stroke-miterlimit="10" pointer-events="stroke"/><path d="M 283 233.36 C 283 233.36 283 233.36 283 233.36 M 283 233.36 C 283 233.36 283 233.36 283 233.36 M 284.71 237.49 C 285.11 237.03 285.98 236.07 286.68 235.23 M 284.71 237.49 C 284.9 236.71 285.82 236.21 286.68 235.23" fill="none" stroke="rgb(0, 0, 0)" stroke-width="0.5" stroke-linejoin="round" stroke-linecap="round" stroke-miterlimit="10" pointer-events="all"/><path d="M 289.88 237 C 289.01 238.21 285.11 237.27 282.88 240.5 M 289.88 237 C 287.02 237.93 285.68 239.42 282.88 240.5 M 282.88 240.5 C 284.05 239.14 283.31 238.59 284.63 237 M 282.88 240.5 C 283.54 239.12 284.19 238.25 284.63 237 M 284.63 237 C 283.91 235.9 283.99 235.01 282.88 233.5 M 284.63 237 C 283.93 235.83 283.61 234.5 282.88 233.5 M 282.88 233.5 C 284.47 232.99 287.79 234.61 289.88 237 M 282.88 233.5 C 285.5 234.97 288.43 235.23 289.88 237" fill="none" stroke="rgb(0, 0, 0)" stroke-linejoin="round" stroke-linecap="round" stroke-miterlimit="10" pointer-events="all"/></g></g><g data-cell-id="gyem3hlseezmw4Tj-qo7-8"><g><rect x="141" y="45" width="110" height="50" fill="none" stroke="none" pointer-events="all"/><path d="M 137.11 42.89 L 254.95 42.77 L 254.29 93.2 L 141.09 98.77" fill="rgb(255, 255, 255)" stroke="none" pointer-events="all"/><path d="M 141 45 C 176.63 49.6 216.03 45.34 251 45 M 141 45 C 175.01 44.87 212.37 46.35 251 45 M 251 45 C 253.05 61.63 254.79 79.72 251 95 M 251 45 C 252.24 63.46 250.73 81.5 251 95 M 251 95 C 224.25 99.54 192.33 99.01 141 95 M 251 95 C 227.41 92.95 202.35 93.08 141 95 M 141 95 C 138.4 76.41 144.88 56.86 141 45 M 141 95 C 140.99 85.06 141.49 70.97 141 45" fill="none" stroke="rgb(0, 0, 0)" stroke-linejoin="round" stroke-linecap="round" stroke-miterlimit="10" pointer-events="all"/></g><g><g fill="rgb(0, 0, 0)" font-family="&quot;LXGW WenKai&quot;" text-anchor="middle" font-size="12px"><text x="195.5" y="74.5">web.xml</text></g></g></g><g data-cell-id="gyem3hlseezmw4Tj-qo7-9"><g><path d="M 291 224 L 291 198 L 451 198 L 451 224" fill="none" stroke="none" pointer-events="all"/><path d="M 291 224 C 294.69 216.19 294.05 212.16 291 198 C 354.6 200.26 418.58 192.66 451 198 C 453.09 203.78 455.98 211.5 451 224" fill="rgb(255, 255, 255)" stroke="none" pointer-events="all"/><path d="M 291 224 C 292.85 216.48 290.6 203.33 291 198 M 291 224 C 291.28 212.97 292 202.55 291 198 M 291 198 C 354.76 203.06 416.87 200.66 451 198 M 291 198 C 345.78 199.77 401.32 198.87 451 198 M 451 198 C 452.65 201.56 454.25 210.02 451 224 M 451 198 C 450.16 204.85 451.91 213.67 451 224" fill="none" stroke="rgb(0, 0, 0)" stroke-linejoin="round" stroke-linecap="round" stroke-miterlimit="10" pointer-events="all"/><path d="M 291 224 C 293.48 247.21 291.23 264.79 291 284 M 291 224 C 292.39 247.14 293.11 270.9 291 284 M 291 284 C 354.76 289.06 416.87 286.66 451 284 M 291 284 C 345.78 285.77 401.32 284.87 451 284 M 451 284 C 452.47 267.75 454.07 256.41 451 224 M 451 284 C 451.8 267.97 453.55 253.92 451 224" fill="none" stroke="rgb(0, 0, 0)" stroke-linejoin="round" stroke-linecap="round" stroke-miterlimit="10" pointer-events="none"/><path d="M 291 224 C 350.21 223.02 405.12 219.17 451 224 M 291 224 C 355.19 222.82 419.49 222.74 451 224" fill="none" stroke="rgb(0, 0, 0)" stroke-linejoin="round" stroke-linecap="round" stroke-miterlimit="10" pointer-events="none"/></g><g><g fill="rgb(0, 0, 0)" font-family="&quot;LXGW WenKai&quot;" font-weight="bold" text-anchor="middle" font-size="12px"><text x="370.5" y="215.5">DispatcherServlet</text></g></g><g data-cell-id="gyem3hlseezmw4Tj-qo7-10"><g><rect x="291" y="224" width="160" height="26" fill="none" stroke="none" pointer-events="all"/></g><g><g fill="rgb(0, 0, 0)" font-family="&quot;LXGW WenKai&quot;" clip-path="url(#mx-clip-295-229-152-26-0)" font-size="12px"><text x="296.5" y="241.5">+ ...</text></g></g></g><g data-cell-id="gyem3hlseezmw4Tj-qo7-11"><g><path d="M 291 254 L 451 254" fill="none" stroke="none" pointer-events="all"/><path d="M 291 254 C 333.08 259.53 375.84 252.68 451 254 M 291 254 C 352.68 253.38 414.42 253.88 451 254" fill="none" stroke="rgb(0, 0, 0)" stroke-linejoin="round" stroke-linecap="round" stroke-miterlimit="10" pointer-events="all"/></g></g><g data-cell-id="gyem3hlseezmw4Tj-qo7-12"><g><rect x="291" y="258" width="160" height="26" fill="none" stroke="none" pointer-events="all"/></g><g><g fill="rgb(0, 0, 0)" font-family="&quot;LXGW WenKai&quot;" clip-path="url(#mx-clip-295-263-152-26-0)" font-size="12px"><text x="296.5" y="275.5">+ ...</text></g></g></g></g><g data-cell-id="gyem3hlseezmw4Tj-qo7-18"><g><path d="M 480 67 L 480 41 L 640 41 L 640 67" fill="none" stroke="none" pointer-events="all"/><path d="M 480 67 C 481.87 52.77 479.15 45.61 480 41 C 517.65 39.46 563.34 42 640 41 C 644.77 50.13 643.25 49.17 640 67" fill="rgb(255, 255, 255)" stroke="none" pointer-events="all"/><path d="M 480 67 C 477.62 56.58 475.86 53.35 480 41 M 480 67 C 479.71 59.54 480.88 53.42 480 41 M 480 41 C 544.31 43.2 603.84 40.78 640 41 M 480 41 C 522 40.44 558.39 40.49 640 41 M 640 41 C 643.24 52.07 637.37 57.72 640 67 M 640 41 C 640.09 51.44 641.33 59.92 640 67" fill="none" stroke="rgb(0, 0, 0)" stroke-linejoin="round" stroke-linecap="round" stroke-miterlimit="10" pointer-events="all"/><path d="M 480 67 C 479.04 80.25 477.28 100.7 480 127 M 480 67 C 479.93 84.95 481.1 104.24 480 127 M 480 127 C 544.31 129.2 603.84 126.78 640 127 M 480 127 C 522 126.44 558.39 126.49 640 127 M 640 127 C 644.31 109.86 638.44 87.31 640 67 M 640 127 C 641.22 103.75 642.46 78.53 640 67" fill="none" stroke="rgb(0, 0, 0)" stroke-linejoin="round" stroke-linecap="round" stroke-miterlimit="10" pointer-events="none"/><path d="M 480 67 C 522.09 64.69 564.37 68.62 640 67 M 480 67 C 527.06 64.66 575.49 66.22 640 67" fill="none" stroke="rgb(0, 0, 0)" stroke-linejoin="round" stroke-linecap="round" stroke-miterlimit="10" pointer-events="none"/></g><g><g fill="rgb(0, 0, 0)" font-family="&quot;LXGW WenKai&quot;" font-weight="bold" text-anchor="middle" font-size="12px"><text x="559.5" y="58.5">HelloController</text></g></g><g data-cell-id="gyem3hlseezmw4Tj-qo7-19"><g><rect x="480" y="67" width="160" height="26" fill="none" stroke="none" pointer-events="all"/></g><g><g fill="rgb(0, 0, 0)" font-family="&quot;LXGW WenKai&quot;" clip-path="url(#mx-clip-484-72-152-26-0)" font-size="12px"><text x="485.5" y="84.5">+ ...</text></g></g></g><g data-cell-id="gyem3hlseezmw4Tj-qo7-20"><g><path d="M 480 97 L 640 97" fill="none" stroke="none" pointer-events="all"/><path d="M 480 97 C 525.54 96.11 569.69 101.21 640 97 M 480 97 C 535.02 92.88 592.87 94.48 640 97" fill="none" stroke="rgb(0, 0, 0)" stroke-linejoin="round" stroke-linecap="round" stroke-miterlimit="10" pointer-events="all"/></g></g><g data-cell-id="gyem3hlseezmw4Tj-qo7-21"><g><rect x="480" y="101" width="160" height="26" fill="none" stroke="none" pointer-events="all"/></g><g><g fill="rgb(0, 0, 0)" font-family="&quot;LXGW WenKai&quot;" clip-path="url(#mx-clip-484-106-152-26-0)" font-size="12px"><text x="485.5" y="118.5">+ ...</text></g></g></g></g><g data-cell-id="gyem3hlseezmw4Tj-qo7-23"><g><path d="M 451 237 Q 543 237 543.04 134.36" fill="none" stroke="none" pointer-events="stroke"/><path d="M 543.04 129.11 L 546.54 136.11 L 543.04 134.36 L 539.54 136.1 Z" fill="none" stroke="none" pointer-events="all"/><path d="M 451 237 C 511.35 233.99 546.9 205.41 543.04 134.36 M 451 237 C 511.02 241.21 539.74 205.88 543.04 134.36" fill="none" stroke="rgb(0, 0, 0)" stroke-linejoin="round" stroke-linecap="round" stroke-miterlimit="10" pointer-events="stroke"/><path d="M 542.86 129.32 C 542.86 129.32 542.86 129.32 542.86 129.32 M 542.86 129.32 C 542.86 129.32 542.86 129.32 542.86 129.32 M 543.25 134.96 C 544.26 134.24 544.62 133.85 545.22 132.7 M 543.25 134.96 C 543.71 133.98 544.79 133.26 545.22 132.7" fill="none" stroke="rgb(0, 0, 0)" stroke-width="0.5" stroke-linejoin="round" stroke-linecap="round" stroke-miterlimit="10" pointer-events="all"/><path d="M 543.04 129.11 C 544.93 130.52 546.3 131.78 546.54 136.11 M 543.04 129.11 C 545.05 131.38 545.98 134.31 546.54 136.11 M 546.54 136.11 C 545.14 135.72 544.37 135.24 543.04 134.36 M 546.54 136.11 C 546.16 136.03 545.21 135.8 543.04 134.36 M 543.04 134.36 C 542.67 134.34 540.15 135.51 539.54 136.1 M 543.04 134.36 C 542.31 134.78 541.12 135.31 539.54 136.1 M 539.54 136.1 C 539.7 134.53 541.72 131.44 543.04 129.11 M 539.54 136.1 C 540.74 133.38 541.55 130.89 543.04 129.11" fill="none" stroke="rgb(0, 0, 0)" stroke-linejoin="round" stroke-linecap="round" stroke-miterlimit="10" pointer-events="all"/></g></g><g data-cell-id="gyem3hlseezmw4Tj-qo7-24"><g><rect x="647" y="246" width="165" height="50" fill="none" stroke="none" pointer-events="all"/><path d="M 645.57 247.32 L 808.2 245.76 L 809.24 298.69 L 647.21 297.1" fill="rgb(255, 255, 255)" stroke="none" pointer-events="all"/><path d="M 647 246 C 692.77 242.21 736.9 248.9 812 246 M 647 246 C 686.86 248.76 724.59 248.1 812 246 M 812 246 C 809.88 259.94 809.13 282.56 812 296 M 812 246 C 811.89 265.98 812.57 285.39 812 296 M 812 296 C 767 293 716.25 291.07 647 296 M 812 296 C 762.61 292.89 714.23 291.1 647 296 M 647 296 C 649.76 282.19 644.47 260.22 647 246 M 647 296 C 648.32 278.85 647.22 262.01 647 246" fill="none" stroke="rgb(0, 0, 0)" stroke-linejoin="round" stroke-linecap="round" stroke-miterlimit="10" pointer-events="all"/></g><g><g fill="rgb(0, 0, 0)" font-family="&quot;LXGW WenKai&quot;" text-anchor="middle" font-size="12px"><text x="729" y="275.5">springmvc-servlet.xml</text></g></g></g><g data-cell-id="gyem3hlseezmw4Tj-qo7-25"><g><path d="M 640 80 Q 688.3 80 688.25 239.63" fill="none" stroke="none" pointer-events="stroke"/><path d="M 688.25 244.88 L 684.75 237.88 L 688.25 239.63 L 691.75 237.88 Z" fill="none" stroke="none" pointer-events="all"/><path d="M 640 80 C 671.22 78.35 685.79 131.26 688.25 239.63 M 640 80 C 675.32 82.74 690.36 133.73 688.25 239.63" fill="none" stroke="rgb(0, 0, 0)" stroke-linejoin="round" stroke-linecap="round" stroke-miterlimit="10" pointer-events="stroke"/><path d="M 684.65 238 C 684.65 238 684.65 238 684.65 238 M 684.65 238 C 684.65 238 684.65 238 684.65 238 M 687.01 241.38 C 687.7 241.26 688.09 240.58 688.32 239.87 M 687.01 241.38 C 687.19 240.97 687.55 240.41 688.32 239.87" fill="none" stroke="rgb(0, 0, 0)" stroke-width="0.5" stroke-linejoin="round" stroke-linecap="round" stroke-miterlimit="10" pointer-events="all"/><path d="M 688.25 244.88 C 686.58 243.97 687.31 241.69 684.75 237.88 M 688.25 244.88 C 686.69 242.75 686.15 241.27 684.75 237.88 M 684.75 237.88 C 685.41 238.82 687.69 238.48 688.25 239.63 M 684.75 237.88 C 685.73 238.6 687.47 239.18 688.25 239.63 M 688.25 239.63 C 689.39 239.6 690.44 239.37 691.75 237.88 M 688.25 239.63 C 689.83 239.1 690.73 238.51 691.75 237.88 M 691.75 237.88 C 690.4 240.93 690.92 242.22 688.25 244.88 M 691.75 237.88 C 690.21 239.81 690.44 241.87 688.25 244.88" fill="none" stroke="rgb(0, 0, 0)" stroke-linejoin="round" stroke-linecap="round" stroke-miterlimit="10" pointer-events="all"/></g></g><g data-cell-id="gyem3hlseezmw4Tj-qo7-26"><g><path d="M 977.35 67.29 L 977.35 153 L 816 153 L 816 53 L 954.3 53 Z" fill="none" stroke="none" pointer-events="all"/><path d="M 954.3 53 C 956.18 56.34 953.09 59.79 946.07 62.18 L 977.35 67.59" fill="none" stroke="none" pointer-events="all"/><path d="M 977.35 67.29 C 972.29 86.72 977.01 103.36 977.35 153 C 932.31 144.38 885.75 145.64 816 153 C 821.43 126.36 818.41 91.94 816 53 C 855.41 51.94 897.83 55.53 954.3 53 C 962.66 59.42 965.61 60.59 977.35 67.29" fill="rgb(255, 255, 255)" stroke="none" pointer-events="all"/><path d="M 977.35 67.29 C 980.7 91.53 974.68 114.63 977.35 153 M 977.35 67.29 C 978.58 100.75 979.12 133.81 977.35 153 M 977.35 153 C 947.22 153.56 907.84 153.8 816 153 M 977.35 153 C 924.51 153.49 870.86 152.85 816 153 M 816 153 C 815.54 127.93 812.36 110.81 816 53 M 816 153 C 814.52 115.55 815.12 75.5 816 53 M 816 53 C 849.77 55.36 876.45 49.34 954.3 53 M 816 53 C 849.73 54.91 883.34 54.59 954.3 53 M 954.3 53 C 958.07 53.02 961.25 58.16 977.35 67.29 M 954.3 53 C 960.65 56.97 967.86 62.46 977.35 67.29" fill="none" stroke="rgb(0, 0, 0)" stroke-linejoin="round" stroke-linecap="round" stroke-miterlimit="10" pointer-events="all"/><path d="M 954.3 53 C 955.2 55.38 955.41 63.56 946.07 62.18 M 954.3 53 C 956.91 53.75 953.24 63.62 946.07 62.18 M 946.07 62.18 C 956.82 66.87 966.76 61.55 977.35 67.59 M 946.07 62.18 C 957.44 63.04 970.04 66.56 977.35 67.59" fill="none" stroke="rgb(0, 0, 0)" stroke-linejoin="round" stroke-linecap="round" stroke-miterlimit="10" pointer-events="all"/></g><g><g fill="rgb(0, 0, 0)" font-family="&quot;LXGW WenKai&quot;" text-anchor="middle" font-size="12px"><text x="897" y="107.5">hello.thymeleaf</text></g></g></g><g data-cell-id="gyem3hlseezmw4Tj-qo7-27"><g><path d="M 770.75 246 Q 770.8 103 809.63 103" fill="none" stroke="none" pointer-events="stroke"/><path d="M 814.88 103 L 807.88 106.5 L 809.63 103 L 807.88 99.5 Z" fill="none" stroke="none" pointer-events="all"/><path d="M 770.75 246 C 769.8 150.38 782.87 104.48 809.63 103 M 770.75 246 C 769.13 151.94 781.97 100.94 809.63 103" fill="none" stroke="rgb(0, 0, 0)" stroke-linejoin="round" stroke-linecap="round" stroke-miterlimit="10" pointer-events="stroke"/><path d="M 807.63 99.78 C 807.63 99.78 807.63 99.78 807.63 99.78 M 807.63 99.78 C 807.63 99.78 807.63 99.78 807.63 99.78 M 810 103.16 C 810.65 102.6 810.39 102.31 811.31 101.65 M 810 103.16 C 810.12 102.95 810.51 102.7 811.31 101.65" fill="none" stroke="rgb(0, 0, 0)" stroke-width="0.5" stroke-linejoin="round" stroke-linecap="round" stroke-miterlimit="10" pointer-events="all"/><path d="M 814.88 103 C 813.53 103.37 811.45 104.29 807.88 106.5 M 814.88 103 C 812.93 104.42 811.02 104.79 807.88 106.5 M 807.88 106.5 C 808.92 106 809.43 104.67 809.63 103 M 807.88 106.5 C 808.31 105.28 809.26 103.98 809.63 103 M 809.63 103 C 808.76 101.37 808.26 99.88 807.88 99.5 M 809.63 103 C 809.02 102.35 809.16 101.49 807.88 99.5 M 807.88 99.5 C 810.69 101.79 812.36 102.1 814.88 103 M 807.88 99.5 C 811.07 100.79 813.82 101.93 814.88 103" fill="none" stroke="rgb(0, 0, 0)" stroke-linejoin="round" stroke-linecap="round" stroke-miterlimit="10" pointer-events="all"/></g></g><g data-cell-id="gyem3hlseezmw4Tj-qo7-30"><g><rect x="84" y="0" width="238" height="41" fill="none" stroke="none" pointer-events="all"/></g><g><g fill="rgb(0, 0, 0)" font-family="&quot;LXGW WenKai&quot;" text-anchor="middle" font-size="12px"><text x="202.5" y="18">web.xml中url-pattern配置的是 /</text><text x="202.5" y="32">因此所有请求都先经过DispatcherServlet</text></g></g></g><g data-cell-id="gyem3hlseezmw4Tj-qo7-31"><g><rect x="262" y="294" width="223" height="26" fill="none" stroke="none" pointer-events="all"/></g><g><g fill="rgb(0, 0, 0)" font-family="&quot;LXGW WenKai&quot;" text-anchor="middle" font-size="12px"><text x="373" y="311.5">DispatcherServlet找到对应Controller</text></g></g></g><g data-cell-id="gyem3hlseezmw4Tj-qo7-32"><g><rect x="470" y="7.5" width="170" height="26" fill="none" stroke="none" pointer-events="all"/></g><g><g fill="rgb(0, 0, 0)" font-family="&quot;LXGW WenKai&quot;" text-anchor="middle" font-size="12px"><text x="554.5" y="25">Controller返回逻辑视图名称</text></g></g></g><g data-cell-id="gyem3hlseezmw4Tj-qo7-33"><g><rect x="635" y="303" width="210" height="26" fill="none" stroke="none" pointer-events="all"/></g><g><g fill="rgb(0, 0, 0)" font-family="&quot;LXGW WenKai&quot;" text-anchor="middle" font-size="12px"><text x="739.5" y="320.5">根据视图解析器配置，找到对应视图</text></g></g></g></g></g></g></svg>