<?xml version="1.0" encoding="UTF-8"?>
<!-- Do not edit this file with editors other than draw.io -->
<!DOCTYPE svg PUBLIC "-//W3C//DTD SVG 1.1//EN" "http://www.w3.org/Graphics/SVG/1.1/DTD/svg11.dtd">
<svg xmlns="http://www.w3.org/2000/svg" xmlns:xlink="http://www.w3.org/1999/xlink" version="1.1" width="1120px" height="400px" viewBox="-0.5 -0.5 1120 400" content="&lt;mxfile host=&quot;app.diagrams.net&quot; modified=&quot;2024-06-27T14:08:50.565Z&quot; agent=&quot;Mozilla/5.0 (Windows NT 10.0; Win64; x64) AppleWebKit/537.36 (KHTML, like Gecko) Chrome/126.0.0.0 Safari/537.36&quot; etag=&quot;8u2f0IIU1vFpmLKe4irY&quot; version=&quot;24.6.3&quot; type=&quot;github&quot;&gt;&#10;  &lt;diagram id=&quot;23iRSUPoRavnBvh4doch&quot; name=&quot;Page-1&quot;&gt;&#10;    &lt;mxGraphModel dx=&quot;2874&quot; dy=&quot;1098&quot; grid=&quot;0&quot; gridSize=&quot;10&quot; guides=&quot;1&quot; tooltips=&quot;1&quot; connect=&quot;1&quot; arrows=&quot;1&quot; fold=&quot;1&quot; page=&quot;0&quot; pageScale=&quot;1&quot; pageWidth=&quot;827&quot; pageHeight=&quot;1169&quot; background=&quot;#ffffff&quot; math=&quot;0&quot; shadow=&quot;0&quot;&gt;&#10;      &lt;root&gt;&#10;        &lt;mxCell id=&quot;0&quot; /&gt;&#10;        &lt;mxCell id=&quot;1&quot; parent=&quot;0&quot; /&gt;&#10;        &lt;mxCell id=&quot;gyem3hlseezmw4Tj-qo7-34&quot; value=&quot;Vertical Container&quot; style=&quot;swimlane;sketch=1;hachureGap=4;jiggle=2;curveFitting=1;fontFamily=LXGW WenKai;fontSize=15;strokeColor=#E07A5F;align=center;verticalAlign=middle;fontColor=#393C56;fontStyle=1;fillColor=#F2CC8F;fontSource=https%3A%2F%2Ffonts.googleapis.com%2Fcss%3Ffamily%3DArchitects%2BDaughter;labelBackgroundColor=none;&quot; vertex=&quot;1&quot; parent=&quot;1&quot;&gt;&#10;          &lt;mxGeometry x=&quot;-549&quot; y=&quot;373&quot; width=&quot;1119&quot; height=&quot;399&quot; as=&quot;geometry&quot; /&gt;&#10;        &lt;/mxCell&gt;&#10;        &lt;mxCell id=&quot;gyem3hlseezmw4Tj-qo7-15&quot; style=&quot;edgeStyle=orthogonalEdgeStyle;curved=1;rounded=0;orthogonalLoop=1;jettySize=auto;exitX=1;exitY=0.5;exitDx=0;exitDy=0;exitPerimeter=0;entryX=0;entryY=0.5;entryDx=0;entryDy=0;fontFamily=LXGW WenKai;sketch=1;curveFitting=1;jiggle=2;&quot; edge=&quot;1&quot; parent=&quot;1&quot; source=&quot;wa0JLTWsgckLO4hLmPQc-1&quot; target=&quot;gyem3hlseezmw4Tj-qo7-8&quot;&gt;&#10;          &lt;mxGeometry relative=&quot;1&quot; as=&quot;geometry&quot; /&gt;&#10;        &lt;/mxCell&gt;&#10;        &lt;mxCell id=&quot;wa0JLTWsgckLO4hLmPQc-1&quot; value=&quot;客户端&quot; style=&quot;fontColor=#0066CC;verticalAlign=top;verticalLabelPosition=bottom;labelPosition=center;align=center;outlineConnect=0;fillColor=#CCCCCC;strokeColor=#6881B3;gradientColor=none;gradientDirection=north;strokeWidth=2;shape=mxgraph.networks.monitor;sketch=1;hachureGap=4;jiggle=2;curveFitting=1;fontFamily=LXGW WenKai;&quot; parent=&quot;1&quot; vertex=&quot;1&quot;&gt;&#10;          &lt;mxGeometry x=&quot;-485&quot; y=&quot;537&quot; width=&quot;80&quot; height=&quot;65&quot; as=&quot;geometry&quot; /&gt;&#10;        &lt;/mxCell&gt;&#10;        &lt;mxCell id=&quot;gyem3hlseezmw4Tj-qo7-16&quot; style=&quot;edgeStyle=orthogonalEdgeStyle;curved=1;rounded=0;orthogonalLoop=1;jettySize=auto;exitX=0.75;exitY=1;exitDx=0;exitDy=0;entryX=0;entryY=0.5;entryDx=0;entryDy=0;fontFamily=LXGW WenKai;sketch=1;curveFitting=1;jiggle=2;&quot; edge=&quot;1&quot; parent=&quot;1&quot; source=&quot;gyem3hlseezmw4Tj-qo7-8&quot; target=&quot;gyem3hlseezmw4Tj-qo7-10&quot;&gt;&#10;          &lt;mxGeometry relative=&quot;1&quot; as=&quot;geometry&quot; /&gt;&#10;        &lt;/mxCell&gt;&#10;        &lt;mxCell id=&quot;gyem3hlseezmw4Tj-qo7-8&quot; value=&quot;web.xml&quot; style=&quot;fontFamily=LXGW WenKai;sketch=1;curveFitting=1;jiggle=2;&quot; vertex=&quot;1&quot; parent=&quot;1&quot;&gt;&#10;          &lt;mxGeometry x=&quot;-345&quot; y=&quot;455&quot; width=&quot;110&quot; height=&quot;50&quot; as=&quot;geometry&quot; /&gt;&#10;        &lt;/mxCell&gt;&#10;        &lt;mxCell id=&quot;gyem3hlseezmw4Tj-qo7-9&quot; value=&quot;DispatcherServlet&quot; style=&quot;swimlane;fontStyle=1;align=center;verticalAlign=top;childLayout=stackLayout;horizontal=1;startSize=26;horizontalStack=0;resizeParent=1;resizeParentMax=0;resizeLast=0;collapsible=1;marginBottom=0;fontFamily=LXGW WenKai;sketch=1;curveFitting=1;jiggle=2;&quot; vertex=&quot;1&quot; parent=&quot;1&quot;&gt;&#10;          &lt;mxGeometry x=&quot;-195&quot; y=&quot;608&quot; width=&quot;160&quot; height=&quot;86&quot; as=&quot;geometry&quot; /&gt;&#10;        &lt;/mxCell&gt;&#10;        &lt;mxCell id=&quot;gyem3hlseezmw4Tj-qo7-10&quot; value=&quot;+ ...&quot; style=&quot;text;strokeColor=none;fillColor=none;align=left;verticalAlign=top;spacingLeft=4;spacingRight=4;overflow=hidden;rotatable=0;points=[[0,0.5],[1,0.5]];portConstraint=eastwest;fontFamily=LXGW WenKai;sketch=1;curveFitting=1;jiggle=2;&quot; vertex=&quot;1&quot; parent=&quot;gyem3hlseezmw4Tj-qo7-9&quot;&gt;&#10;          &lt;mxGeometry y=&quot;26&quot; width=&quot;160&quot; height=&quot;26&quot; as=&quot;geometry&quot; /&gt;&#10;        &lt;/mxCell&gt;&#10;        &lt;mxCell id=&quot;gyem3hlseezmw4Tj-qo7-11&quot; value=&quot;&quot; style=&quot;line;strokeWidth=1;fillColor=none;align=left;verticalAlign=middle;spacingTop=-1;spacingLeft=3;spacingRight=3;rotatable=0;labelPosition=right;points=[];portConstraint=eastwest;strokeColor=inherit;fontFamily=LXGW WenKai;sketch=1;curveFitting=1;jiggle=2;&quot; vertex=&quot;1&quot; parent=&quot;gyem3hlseezmw4Tj-qo7-9&quot;&gt;&#10;          &lt;mxGeometry y=&quot;52&quot; width=&quot;160&quot; height=&quot;8&quot; as=&quot;geometry&quot; /&gt;&#10;        &lt;/mxCell&gt;&#10;        &lt;mxCell id=&quot;gyem3hlseezmw4Tj-qo7-12&quot; value=&quot;+ ...&quot; style=&quot;text;strokeColor=none;fillColor=none;align=left;verticalAlign=top;spacingLeft=4;spacingRight=4;overflow=hidden;rotatable=0;points=[[0,0.5],[1,0.5]];portConstraint=eastwest;fontFamily=LXGW WenKai;sketch=1;curveFitting=1;jiggle=2;&quot; vertex=&quot;1&quot; parent=&quot;gyem3hlseezmw4Tj-qo7-9&quot;&gt;&#10;          &lt;mxGeometry y=&quot;60&quot; width=&quot;160&quot; height=&quot;26&quot; as=&quot;geometry&quot; /&gt;&#10;        &lt;/mxCell&gt;&#10;        &lt;mxCell id=&quot;gyem3hlseezmw4Tj-qo7-18&quot; value=&quot;HelloController&quot; style=&quot;swimlane;fontStyle=1;align=center;verticalAlign=top;childLayout=stackLayout;horizontal=1;startSize=26;horizontalStack=0;resizeParent=1;resizeParentMax=0;resizeLast=0;collapsible=1;marginBottom=0;fontFamily=LXGW WenKai;sketch=1;curveFitting=1;jiggle=2;&quot; vertex=&quot;1&quot; parent=&quot;1&quot;&gt;&#10;          &lt;mxGeometry x=&quot;-6&quot; y=&quot;451&quot; width=&quot;160&quot; height=&quot;86&quot; as=&quot;geometry&quot; /&gt;&#10;        &lt;/mxCell&gt;&#10;        &lt;mxCell id=&quot;gyem3hlseezmw4Tj-qo7-19&quot; value=&quot;+ ...&quot; style=&quot;text;strokeColor=none;fillColor=none;align=left;verticalAlign=top;spacingLeft=4;spacingRight=4;overflow=hidden;rotatable=0;points=[[0,0.5],[1,0.5]];portConstraint=eastwest;fontFamily=LXGW WenKai;sketch=1;curveFitting=1;jiggle=2;&quot; vertex=&quot;1&quot; parent=&quot;gyem3hlseezmw4Tj-qo7-18&quot;&gt;&#10;          &lt;mxGeometry y=&quot;26&quot; width=&quot;160&quot; height=&quot;26&quot; as=&quot;geometry&quot; /&gt;&#10;        &lt;/mxCell&gt;&#10;        &lt;mxCell id=&quot;gyem3hlseezmw4Tj-qo7-20&quot; value=&quot;&quot; style=&quot;line;strokeWidth=1;fillColor=none;align=left;verticalAlign=middle;spacingTop=-1;spacingLeft=3;spacingRight=3;rotatable=0;labelPosition=right;points=[];portConstraint=eastwest;strokeColor=inherit;fontFamily=LXGW WenKai;sketch=1;curveFitting=1;jiggle=2;&quot; vertex=&quot;1&quot; parent=&quot;gyem3hlseezmw4Tj-qo7-18&quot;&gt;&#10;          &lt;mxGeometry y=&quot;52&quot; width=&quot;160&quot; height=&quot;8&quot; as=&quot;geometry&quot; /&gt;&#10;        &lt;/mxCell&gt;&#10;        &lt;mxCell id=&quot;gyem3hlseezmw4Tj-qo7-21&quot; value=&quot;+ ...&quot; style=&quot;text;strokeColor=none;fillColor=none;align=left;verticalAlign=top;spacingLeft=4;spacingRight=4;overflow=hidden;rotatable=0;points=[[0,0.5],[1,0.5]];portConstraint=eastwest;fontFamily=LXGW WenKai;sketch=1;curveFitting=1;jiggle=2;&quot; vertex=&quot;1&quot; parent=&quot;gyem3hlseezmw4Tj-qo7-18&quot;&gt;&#10;          &lt;mxGeometry y=&quot;60&quot; width=&quot;160&quot; height=&quot;26&quot; as=&quot;geometry&quot; /&gt;&#10;        &lt;/mxCell&gt;&#10;        &lt;mxCell id=&quot;gyem3hlseezmw4Tj-qo7-23&quot; style=&quot;edgeStyle=orthogonalEdgeStyle;curved=1;rounded=0;orthogonalLoop=1;jettySize=auto;exitX=1;exitY=0.5;exitDx=0;exitDy=0;entryX=0.394;entryY=1.038;entryDx=0;entryDy=0;entryPerimeter=0;fontFamily=LXGW WenKai;sketch=1;curveFitting=1;jiggle=2;&quot; edge=&quot;1&quot; parent=&quot;1&quot; source=&quot;gyem3hlseezmw4Tj-qo7-10&quot; target=&quot;gyem3hlseezmw4Tj-qo7-21&quot;&gt;&#10;          &lt;mxGeometry relative=&quot;1&quot; as=&quot;geometry&quot; /&gt;&#10;        &lt;/mxCell&gt;&#10;        &lt;mxCell id=&quot;gyem3hlseezmw4Tj-qo7-24&quot; value=&quot;springmvc-servlet.xml&quot; style=&quot;fontFamily=LXGW WenKai;sketch=1;curveFitting=1;jiggle=2;&quot; vertex=&quot;1&quot; parent=&quot;1&quot;&gt;&#10;          &lt;mxGeometry x=&quot;161&quot; y=&quot;656&quot; width=&quot;165&quot; height=&quot;50&quot; as=&quot;geometry&quot; /&gt;&#10;        &lt;/mxCell&gt;&#10;        &lt;mxCell id=&quot;gyem3hlseezmw4Tj-qo7-25&quot; style=&quot;edgeStyle=orthogonalEdgeStyle;curved=1;rounded=0;orthogonalLoop=1;jettySize=auto;exitX=1;exitY=0.5;exitDx=0;exitDy=0;entryX=0.25;entryY=0;entryDx=0;entryDy=0;fontFamily=LXGW WenKai;sketch=1;curveFitting=1;jiggle=2;&quot; edge=&quot;1&quot; parent=&quot;1&quot; source=&quot;gyem3hlseezmw4Tj-qo7-19&quot; target=&quot;gyem3hlseezmw4Tj-qo7-24&quot;&gt;&#10;          &lt;mxGeometry relative=&quot;1&quot; as=&quot;geometry&quot; /&gt;&#10;        &lt;/mxCell&gt;&#10;        &lt;mxCell id=&quot;gyem3hlseezmw4Tj-qo7-26&quot; value=&quot;hello.thymeleaf&quot; style=&quot;shape=mxgraph.basic.document;fontFamily=LXGW WenKai;sketch=1;curveFitting=1;jiggle=2;&quot; vertex=&quot;1&quot; parent=&quot;1&quot;&gt;&#10;          &lt;mxGeometry x=&quot;330&quot; y=&quot;463&quot; width=&quot;163&quot; height=&quot;100&quot; as=&quot;geometry&quot; /&gt;&#10;        &lt;/mxCell&gt;&#10;        &lt;mxCell id=&quot;gyem3hlseezmw4Tj-qo7-27&quot; style=&quot;edgeStyle=orthogonalEdgeStyle;curved=1;rounded=0;orthogonalLoop=1;jettySize=auto;exitX=0.75;exitY=0;exitDx=0;exitDy=0;entryX=0;entryY=0.5;entryDx=0;entryDy=0;entryPerimeter=0;fontFamily=LXGW WenKai;sketch=1;curveFitting=1;jiggle=2;&quot; edge=&quot;1&quot; parent=&quot;1&quot; source=&quot;gyem3hlseezmw4Tj-qo7-24&quot; target=&quot;gyem3hlseezmw4Tj-qo7-26&quot;&gt;&#10;          &lt;mxGeometry relative=&quot;1&quot; as=&quot;geometry&quot; /&gt;&#10;        &lt;/mxCell&gt;&#10;        &lt;mxCell id=&quot;gyem3hlseezmw4Tj-qo7-30&quot; value=&quot;web.xml中url-pattern配置的是 /&amp;#xa;因此所有请求都先经过DispatcherServlet&quot; style=&quot;text;align=center;verticalAlign=middle;resizable=0;points=[];autosize=1;strokeColor=none;fillColor=none;fontFamily=LXGW WenKai;sketch=1;curveFitting=1;jiggle=2;&quot; vertex=&quot;1&quot; parent=&quot;1&quot;&gt;&#10;          &lt;mxGeometry x=&quot;-402&quot; y=&quot;410&quot; width=&quot;238&quot; height=&quot;41&quot; as=&quot;geometry&quot; /&gt;&#10;        &lt;/mxCell&gt;&#10;        &lt;mxCell id=&quot;gyem3hlseezmw4Tj-qo7-31&quot; value=&quot;DispatcherServlet找到对应Controller&quot; style=&quot;text;align=center;verticalAlign=middle;resizable=0;points=[];autosize=1;strokeColor=none;fillColor=none;fontFamily=LXGW WenKai;sketch=1;curveFitting=1;jiggle=2;&quot; vertex=&quot;1&quot; parent=&quot;1&quot;&gt;&#10;          &lt;mxGeometry x=&quot;-224&quot; y=&quot;704&quot; width=&quot;223&quot; height=&quot;26&quot; as=&quot;geometry&quot; /&gt;&#10;        &lt;/mxCell&gt;&#10;        &lt;mxCell id=&quot;gyem3hlseezmw4Tj-qo7-32&quot; value=&quot;Controller返回逻辑视图名称&quot; style=&quot;text;align=center;verticalAlign=middle;resizable=0;points=[];autosize=1;strokeColor=none;fillColor=none;fontFamily=LXGW WenKai;sketch=1;curveFitting=1;jiggle=2;&quot; vertex=&quot;1&quot; parent=&quot;1&quot;&gt;&#10;          &lt;mxGeometry x=&quot;-16&quot; y=&quot;417.5&quot; width=&quot;170&quot; height=&quot;26&quot; as=&quot;geometry&quot; /&gt;&#10;        &lt;/mxCell&gt;&#10;        &lt;mxCell id=&quot;gyem3hlseezmw4Tj-qo7-33&quot; value=&quot;根据视图解析器配置，找到对应视图&quot; style=&quot;text;align=center;verticalAlign=middle;resizable=0;points=[];autosize=1;strokeColor=none;fillColor=none;fontFamily=LXGW WenKai;sketch=1;curveFitting=1;jiggle=2;&quot; vertex=&quot;1&quot; parent=&quot;1&quot;&gt;&#10;          &lt;mxGeometry x=&quot;149&quot; y=&quot;713&quot; width=&quot;210&quot; height=&quot;26&quot; as=&quot;geometry&quot; /&gt;&#10;        &lt;/mxCell&gt;&#10;      &lt;/root&gt;&#10;    &lt;/mxGraphModel&gt;&#10;  &lt;/diagram&gt;&#10;&lt;/mxfile&gt;&#10;" resource="https://app.diagrams.net/#Hluguosong%2Fimages%2Fmaster%2Fdiagrams%2Fjava_serve%2Fweb_application%2Fmvc%2FSpringMVC%E6%89%A7%E8%A1%8C%E8%BF%87%E7%A8%8B.svg#%7B%22pageId%22%3A%2223iRSUPoRavnBvh4doch%22%7D" style="background-color: rgb(255, 255, 255);"><defs><clipPath id="mx-clip-358-266-152-26-0"><rect x="358" y="266" width="152" height="26"/></clipPath><clipPath id="mx-clip-358-300-152-26-0"><rect x="358" y="300" width="152" height="26"/></clipPath><clipPath id="mx-clip-547-109-152-26-0"><rect x="547" y="109" width="152" height="26"/></clipPath><clipPath id="mx-clip-547-143-152-26-0"><rect x="547" y="143" width="152" height="26"/></clipPath></defs><rect fill="#ffffff" width="100%" height="100%" x="0" y="0"/><g><g data-cell-id="0"><g data-cell-id="1"><g data-cell-id="gyem3hlseezmw4Tj-qo7-34"><g><path d="M 0 23 L 0 0 L 1119 0 L 1119 23" fill="none" stroke="none" pointer-events="all"/><path d="M 0 0 C 0 0 0 0 0 0 M 0 0 C 0 0 0 0 0 0 M -0.26 6.4 C 1.01 3.77 3.27 0.13 4.99 0.36 M -0.26 6.4 C 1.5 4.34 4.23 2 4.99 0.36 M 0.13 12.04 C 2.22 6.61 10.13 0.89 10.63 -0.03 M 0.13 12.04 C 2.04 9.26 6.05 2.92 10.63 -0.03 M -0.13 18.44 C 7.34 15.36 11.68 3.77 15.62 0.33 M -0.13 18.44 C 6.71 14.13 11.1 5.94 15.62 0.33 M 0.92 23.33 C 8.67 21.79 6.59 16.89 21.26 -0.07 M 0.92 23.33 C 9.11 15.33 13.54 9.43 21.26 -0.07 M 5.91 23.69 C 10.59 12.8 20.89 9.91 26.25 0.29 M 5.91 23.69 C 14.39 14.55 22.9 5.88 26.25 0.29 M 11.55 23.29 C 20.93 16.37 22.47 9.57 31.89 -0.1 M 11.55 23.29 C 19.24 14.31 22.68 9.53 31.89 -0.1 M 16.54 23.65 C 17.33 16.75 28.59 17.11 36.88 0.26 M 16.54 23.65 C 21.49 17.41 29.83 8.89 36.88 0.26 M 22.18 23.26 C 27.42 19.96 29.56 13.27 42.52 -0.14 M 22.18 23.26 C 26.61 19.39 33.62 12.26 42.52 -0.14 M 27.17 23.62 C 30.44 15.7 37.86 7.09 47.51 0.22 M 27.17 23.62 C 31.31 19.56 36.59 12.37 47.51 0.22 M 32.81 23.22 C 37.73 14.48 42.56 14.3 53.15 -0.17 M 32.81 23.22 C 38.85 18.74 44.9 13.41 53.15 -0.17 M 37.8 23.58 C 44.97 18.38 49.5 10.23 58.14 0.19 M 37.8 23.58 C 40.34 18.86 46.96 13.58 58.14 0.19 M 42.79 23.94 C 45.54 17.99 52.34 12.51 63.78 -0.21 M 42.79 23.94 C 48.31 17.49 54.31 7.29 63.78 -0.21 M 48.43 23.55 C 52.39 14.26 61.91 11.29 68.77 0.15 M 48.43 23.55 C 54.73 15.72 63.81 6.58 68.77 0.15 M 53.42 23.91 C 61.56 12.09 68.8 8.1 74.41 -0.24 M 53.42 23.91 C 59.92 16.35 67.95 4.56 74.41 -0.24 M 59.06 23.51 C 64.41 16.78 68.93 12.32 79.4 0.12 M 59.06 23.51 C 65.87 15.86 70.35 9.4 79.4 0.12 M 64.05 23.87 C 74.14 18.37 75.45 7.39 85.04 -0.28 M 64.05 23.87 C 69.13 16.65 77.21 9.75 85.04 -0.28 M 69.69 23.48 C 70.96 15.2 79.76 9.51 90.03 0.08 M 69.69 23.48 C 77.9 12.79 84.21 7.38 90.03 0.08 M 74.68 23.84 C 81.14 19.67 92.1 4.63 95.67 -0.31 M 74.68 23.84 C 82.88 14.69 89.6 8.26 95.67 -0.31 M 80.32 23.45 C 84.43 11.7 97.26 8.6 100.66 0.05 M 80.32 23.45 C 88.1 16.46 95.27 9.62 100.66 0.05 M 85.31 23.81 C 95.71 19.61 97.51 8.75 106.3 -0.34 M 85.31 23.81 C 92.27 15.37 98.55 10.36 106.3 -0.34 M 90.95 23.41 C 102.01 11.88 110.11 3.1 111.29 0.02 M 90.95 23.41 C 98.63 13.94 103.78 7.23 111.29 0.02 M 95.94 23.77 C 102.22 11.91 111.79 4.03 116.27 0.38 M 95.94 23.77 C 103.31 17.07 108.97 9.77 116.27 0.38 M 101.58 23.38 C 105.56 14.39 114.88 11.55 121.92 -0.02 M 101.58 23.38 C 105.65 16.15 111.18 13.16 121.92 -0.02 M 106.57 23.74 C 113.39 14.95 116.06 11.55 126.91 0.34 M 106.57 23.74 C 112.21 15.42 122.72 7.39 126.91 0.34 M 112.21 23.34 C 116.11 20.21 124.61 12.43 132.55 -0.05 M 112.21 23.34 C 118.15 16.82 129.3 8.02 132.55 -0.05 M 117.2 23.7 C 122.59 12.47 133.84 10.24 137.54 0.31 M 117.2 23.7 C 123.24 15.3 133.5 5.39 137.54 0.31 M 122.84 23.31 C 126.88 16.45 131.49 13.05 143.18 -0.09 M 122.84 23.31 C 130.29 18.01 134.21 12.09 143.18 -0.09 M 127.83 23.67 C 135.03 11.43 140.61 8.21 148.17 0.27 M 127.83 23.67 C 135.69 16.98 140.56 6.93 148.17 0.27 M 133.47 23.27 C 136.38 17.37 150.26 5.49 153.81 -0.12 M 133.47 23.27 C 140.07 13.66 147.46 5.1 153.81 -0.12 M 138.46 23.63 C 141.31 20.85 151.47 16.78 158.8 0.24 M 138.46 23.63 C 146.28 15.67 152.97 9.51 158.8 0.24 M 144.1 23.24 C 151.32 17.87 158.95 8.5 164.44 -0.16 M 144.1 23.24 C 149.36 17.91 153.49 10.92 164.44 -0.16 M 149.09 23.6 C 154.88 19.49 160.68 11.12 169.43 0.2 M 149.09 23.6 C 155.95 13.35 162.33 7.19 169.43 0.2 M 154.07 23.96 C 159.29 16.53 165.9 9.86 175.07 -0.19 M 154.07 23.96 C 157.71 20.58 164.21 12.51 175.07 -0.19 M 159.72 23.56 C 163.17 19.6 170.4 8.4 180.06 0.17 M 159.72 23.56 C 166.75 18.06 169.66 12.16 180.06 0.17 M 164.7 23.92 C 169.59 11.9 183.73 7.32 185.7 -0.23 M 164.7 23.92 C 171.11 14.18 176.86 9.87 185.7 -0.23 M 170.35 23.53 C 174.59 19.17 176.08 13.69 190.69 0.13 M 170.35 23.53 C 174.05 16.07 179.76 11.29 190.69 0.13 M 175.33 23.89 C 183.98 19.85 182.98 11.17 196.33 -0.26 M 175.33 23.89 C 182.6 18.03 189.13 9.21 196.33 -0.26 M 180.98 23.5 C 187.82 14.92 189.6 12.58 201.32 0.1 M 180.98 23.5 C 187.44 17.12 191.88 7.67 201.32 0.1 M 185.96 23.86 C 188.55 19.82 193.98 14.4 206.96 -0.3 M 185.96 23.86 C 195.28 14.03 200.4 6.43 206.96 -0.3 M 191.61 23.46 C 200.09 16.87 209.44 8.81 211.95 0.06 M 191.61 23.46 C 197.4 18.63 200.52 9.87 211.95 0.06 M 196.59 23.82 C 202.28 21.25 204.82 11.86 217.59 -0.33 M 196.59 23.82 C 200.69 16.23 207.55 9.39 217.59 -0.33 M 202.24 23.43 C 205.98 16.16 209.61 9.05 222.58 0.03 M 202.24 23.43 C 209.14 16.99 215.3 8.15 222.58 0.03 M 207.23 23.79 C 213.59 17.83 216.25 11.28 228.22 -0.36 M 207.23 23.79 C 212.72 17.8 217.35 12.86 228.22 -0.36 M 212.87 23.39 C 220.07 15.29 228.44 9.46 233.21 0 M 212.87 23.39 C 217.63 16.95 221.89 11.6 233.21 0 M 217.86 23.75 C 227.56 16.66 226.43 13.83 238.19 0.36 M 217.86 23.75 C 222.97 16.36 231.55 10.42 238.19 0.36 M 223.5 23.36 C 230.79 11.14 236.05 4.4 243.84 -0.04 M 223.5 23.36 C 229.46 15.88 238.02 4.67 243.84 -0.04 M 228.49 23.72 C 228.66 17.85 236.92 12.79 248.82 0.32 M 228.49 23.72 C 233.33 19.17 237.63 11.66 248.82 0.32 M 234.13 23.32 C 235.63 16.53 239.82 15.7 254.47 -0.07 M 234.13 23.32 C 241.88 14.53 250.27 6.31 254.47 -0.07 M 239.12 23.68 C 246.59 12.48 251.05 11.45 259.45 0.29 M 239.12 23.68 C 245.29 14.47 251.89 7.69 259.45 0.29 M 244.76 23.29 C 250.24 20.83 251.6 14.16 265.1 -0.11 M 244.76 23.29 C 248.95 18.29 254.45 10.87 265.1 -0.11 M 249.75 23.65 C 252.87 18.32 261.15 10.28 270.08 0.25 M 249.75 23.65 C 257.46 14 263.04 7.69 270.08 0.25 M 255.39 23.25 C 261.99 20.31 267.01 6.33 275.73 -0.14 M 255.39 23.25 C 259.59 19.52 263.66 12.75 275.73 -0.14 M 260.38 23.61 C 266.95 17.99 272.82 7.53 280.71 0.22 M 260.38 23.61 C 269.24 14.6 274.02 7.44 280.71 0.22 M 265.36 23.97 C 275.13 13.54 280.81 11.31 286.36 -0.18 M 265.36 23.97 C 271.59 19.51 276.31 11.18 286.36 -0.18 M 271.01 23.58 C 279.8 17.21 282.26 6.53 291.34 0.18 M 271.01 23.58 C 276.21 18.62 283.26 13.55 291.34 0.18 M 275.99 23.94 C 282.94 14.38 292.53 7 296.99 -0.21 M 275.99 23.94 C 283.18 17.36 285.01 10.29 296.99 -0.21 M 281.64 23.54 C 287.41 19.87 295.82 11.14 301.97 0.15 M 281.64 23.54 C 284.88 19.1 289.54 12.89 301.97 0.15 M 286.62 23.91 C 293.61 16.18 299.16 8.66 307.62 -0.25 M 286.62 23.91 C 291.67 16.98 298.42 13.11 307.62 -0.25 M 292.27 23.51 C 295.23 16.29 304.48 12.94 312.6 0.11 M 292.27 23.51 C 299.8 14.61 304.98 11.15 312.6 0.11 M 297.25 23.87 C 305.6 15.56 308.07 14.42 318.25 -0.28 M 297.25 23.87 C 303.83 16.38 308.82 10.73 318.25 -0.28 M 302.9 23.48 C 307.89 13.47 315.68 1.84 323.23 0.08 M 302.9 23.48 C 307.05 19.64 312.48 13.52 323.23 0.08 M 307.88 23.84 C 312.82 18.28 320.43 8.55 328.88 -0.31 M 307.88 23.84 C 315.72 14.99 322.03 7.86 328.88 -0.31 M 313.53 23.44 C 320.25 18.06 321.95 14.75 333.86 0.05 M 313.53 23.44 C 319.29 14.66 329.05 5.78 333.86 0.05 M 318.51 23.8 C 324.49 16.37 336.39 3.49 339.51 -0.35 M 318.51 23.8 C 324.65 15.78 335.58 5.73 339.51 -0.35 M 324.16 23.41 C 331.47 18.63 333.65 14.07 344.49 0.01 M 324.16 23.41 C 326.5 18.93 334.09 14.11 344.49 0.01 M 329.14 23.77 C 331.03 18.39 343.46 13.38 349.48 0.37 M 329.14 23.77 C 332.73 17.62 339.7 14.66 349.48 0.37 M 334.79 23.37 C 338.95 16.92 346.24 14.79 355.12 -0.02 M 334.79 23.37 C 339.25 17.13 347.26 11.35 355.12 -0.02 M 339.77 23.73 C 345.54 17.79 352.86 11.23 360.11 0.34 M 339.77 23.73 C 348.27 14.6 354.25 6.28 360.11 0.34 M 345.42 23.34 C 354.31 17.84 354.72 8.65 365.75 -0.06 M 345.42 23.34 C 352.57 16.06 357.81 9.39 365.75 -0.06 M 350.4 23.7 C 357.42 13.66 361.32 7.72 370.74 0.3 M 350.4 23.7 C 355.84 18.2 358.56 10.01 370.74 0.3 M 356.05 23.3 C 360.55 20.69 364.53 15.14 376.38 -0.09 M 356.05 23.3 C 364.84 13.04 369.75 6.6 376.38 -0.09 M 361.03 23.66 C 367.21 18.42 373.21 6.05 381.37 0.27 M 361.03 23.66 C 369.59 16.06 376.5 8.82 381.37 0.27 M 366.68 23.27 C 375.76 13.33 381.47 12.59 387.01 -0.13 M 366.68 23.27 C 373.01 14.26 382.97 5.14 387.01 -0.13 M 371.66 23.63 C 375.62 16.75 379.18 11.52 392 0.23 M 371.66 23.63 C 379.83 18.04 384.12 10.75 392 0.23 M 377.31 23.23 C 383.45 15.55 387.75 9.27 397.64 -0.16 M 377.31 23.23 C 385.31 14.76 391.99 4.62 397.64 -0.16 M 382.29 23.59 C 388.16 15.72 394.92 15.29 402.63 0.2 M 382.29 23.59 C 388.09 15.67 395.27 9.2 402.63 0.2 M 387.28 23.95 C 396.81 12.42 400.87 3.41 408.27 -0.2 M 387.28 23.95 C 393.36 14.98 400.34 8.04 408.27 -0.2 M 392.92 23.56 C 401.59 17.9 405.46 9.81 413.26 0.16 M 392.92 23.56 C 403.16 14.41 411.29 3.68 413.26 0.16 M 397.91 23.92 C 399.64 19.31 411.04 7.83 418.9 -0.23 M 397.91 23.92 C 404 17.14 409.3 10.33 418.9 -0.23 M 403.55 23.53 C 407.43 17.56 418.74 8.11 423.89 0.13 M 403.55 23.53 C 406.85 20.79 412.8 13.8 423.89 0.13 M 408.54 23.89 C 411.78 14.59 422.87 9.51 429.53 -0.26 M 408.54 23.89 C 414.92 19.4 421.33 10.91 429.53 -0.26 M 414.18 23.49 C 418.41 14.99 422.04 14.33 434.52 0.1 M 414.18 23.49 C 416.53 17.44 420.6 16.07 434.52 0.1 M 419.17 23.85 C 427.66 16.06 430 14.18 440.16 -0.3 M 419.17 23.85 C 424.04 19.42 429.89 11.19 440.16 -0.3 M 424.81 23.46 C 428.04 18.44 435.68 12.11 445.15 0.06 M 424.81 23.46 C 428.43 17.53 436.46 13.29 445.15 0.06 M 429.8 23.82 C 435 15.81 444.91 7.16 450.79 -0.33 M 429.8 23.82 C 438.31 14.18 443.08 5.26 450.79 -0.33 M 435.44 23.42 C 441.32 14.89 453.61 9.56 455.78 0.03 M 435.44 23.42 C 440.21 14.72 447.96 8.2 455.78 0.03 M 440.43 23.78 C 445.98 11.41 455.5 4.75 461.42 -0.37 M 440.43 23.78 C 446.44 15.13 453.75 7.92 461.42 -0.37 M 446.07 23.39 C 453.47 18.85 459.97 11.91 466.41 -0.01 M 446.07 23.39 C 452.61 13.64 460.17 7.58 466.41 -0.01 M 451.06 23.75 C 463.14 10.97 468.76 5.89 471.4 0.35 M 451.06 23.75 C 457.16 16.42 460.28 10.23 471.4 0.35 M 456.7 23.35 C 464.59 11.95 466.17 7.24 477.04 -0.04 M 456.7 23.35 C 460.64 16.77 468.63 12.87 477.04 -0.04 M 461.69 23.71 C 463.82 15.33 474.64 9.07 482.03 0.32 M 461.69 23.71 C 466.71 18.73 472.38 13.72 482.03 0.32 M 467.33 23.32 C 477.99 14.73 482.88 11.39 487.67 -0.08 M 467.33 23.32 C 473.58 17.77 477.74 8.43 487.67 -0.08 M 472.32 23.68 C 479.4 20.4 481.56 11.17 492.66 0.28 M 472.32 23.68 C 480.7 15.56 485.87 8.44 492.66 0.28 M 477.96 23.28 C 481.68 19.19 491.62 9.49 498.3 -0.11 M 477.96 23.28 C 483.84 16.91 487.13 10.64 498.3 -0.11 M 482.95 23.64 C 494.05 12.3 498.05 8.28 503.29 0.25 M 482.95 23.64 C 490.75 18.5 494.05 11.55 503.29 0.25 M 488.59 23.25 C 497.13 15.73 495.56 12.53 508.93 -0.15 M 488.59 23.25 C 494.98 15.86 498.1 9.74 508.93 -0.15 M 493.58 23.61 C 500.74 18.93 502.47 14.61 513.92 0.21 M 493.58 23.61 C 501.56 15.4 508.77 6.03 513.92 0.21 M 498.57 23.97 C 501.77 15.58 512.2 9.96 519.56 -0.18 M 498.57 23.97 C 502.42 19.64 508.14 15.93 519.56 -0.18 M 504.21 23.58 C 513.32 15.19 513.47 9.34 524.55 0.18 M 504.21 23.58 C 507.81 19.53 511.04 14.28 524.55 0.18 M 509.2 23.94 C 516.21 13.66 521.82 7.57 530.19 -0.22 M 509.2 23.94 C 516.22 16.02 519.47 11.04 530.19 -0.22 M 514.84 23.54 C 518.34 16.9 527.4 9.57 535.18 0.14 M 514.84 23.54 C 521.02 17.34 524.28 12.72 535.18 0.14 M 519.83 23.9 C 529.59 17.46 535.68 9.93 540.82 -0.25 M 519.83 23.9 C 523.2 18.26 527.66 14.76 540.82 -0.25 M 525.47 23.51 C 530.97 14.44 540.36 3.59 545.81 0.11 M 525.47 23.51 C 530.97 19.88 533.34 12.4 545.81 0.11 M 530.46 23.87 C 533.59 16.84 543.86 10.69 551.45 -0.28 M 530.46 23.87 C 538.9 16.15 543.5 7.65 551.45 -0.28 M 536.1 23.47 C 539.38 17.92 550.67 9.76 556.44 0.08 M 536.1 23.47 C 542.97 16.8 548 9.14 556.44 0.08 M 541.09 23.83 C 549.23 14.82 551.94 14.47 562.08 -0.32 M 541.09 23.83 C 549.8 12.86 556.56 5.53 562.08 -0.32 M 546.73 23.44 C 552.35 20.81 556.42 10.44 567.07 0.04 M 546.73 23.44 C 549.57 20.05 556.55 14.42 567.07 0.04 M 551.72 23.8 C 553.06 16.7 561.13 12.39 572.71 -0.35 M 551.72 23.8 C 559.84 16.81 564.56 9.6 572.71 -0.35 M 557.36 23.4 C 564.49 12.28 566.72 6.65 577.7 0.01 M 557.36 23.4 C 566.3 15.56 571.82 6.55 577.7 0.01 M 562.35 23.76 C 572.84 17.17 577.72 7.08 582.69 0.37 M 562.35 23.76 C 567.07 16.21 575.54 8.47 582.69 0.37 M 567.99 23.37 C 578.98 12.64 582.31 7.91 588.33 -0.03 M 567.99 23.37 C 575.48 13.68 584.46 7.58 588.33 -0.03 M 572.98 23.73 C 580.38 14.73 580.73 9.12 593.32 0.33 M 572.98 23.73 C 577.15 16.74 583.93 14.05 593.32 0.33 M 578.62 23.33 C 582.04 14.7 588.13 11.23 598.96 -0.06 M 578.62 23.33 C 583.38 17.89 590.61 13.62 598.96 -0.06 M 583.61 23.69 C 588.55 17.18 596.07 6.76 603.95 0.3 M 583.61 23.69 C 587.5 18.08 595.75 7.72 603.95 0.3 M 589.25 23.3 C 596.33 21.16 596.8 15.43 609.59 -0.1 M 589.25 23.3 C 594.67 17.49 600.22 6.49 609.59 -0.1 M 594.24 23.66 C 603 11.7 610.57 9 614.58 0.26 M 594.24 23.66 C 602.73 13.64 610.67 6.79 614.58 0.26 M 599.88 23.26 C 608.71 19.11 610.31 10.77 620.22 -0.13 M 599.88 23.26 C 606.24 15.84 608.59 11.04 620.22 -0.13 M 604.87 23.62 C 613.51 20.19 613.39 9.31 625.21 0.23 M 604.87 23.62 C 610.91 18.02 616.17 9.85 625.21 0.23 M 610.51 23.23 C 618.36 15.71 618.02 8.86 630.85 -0.17 M 610.51 23.23 C 616.63 19.13 620.19 13.52 630.85 -0.17 M 615.5 23.59 C 620.97 14.33 625.08 9.11 635.84 0.19 M 615.5 23.59 C 622.2 13.79 632.29 7.2 635.84 0.19 M 620.49 23.95 C 628.12 15.96 634.46 5.18 641.48 -0.2 M 620.49 23.95 C 625.41 19.58 629.96 13.68 641.48 -0.2 M 626.13 23.56 C 631.14 14.53 637.04 6.39 646.47 0.16 M 626.13 23.56 C 630.94 15.55 639.41 11.32 646.47 0.16 M 631.12 23.92 C 638.48 13.7 650.08 6.94 652.11 -0.23 M 631.12 23.92 C 636.9 16.61 640.47 11.54 652.11 -0.23 M 636.76 23.52 C 640.77 11.7 655.94 8.44 657.1 0.13 M 636.76 23.52 C 640.62 18.72 645.55 11.23 657.1 0.13 M 641.75 23.88 C 649.79 15.39 657.22 6.72 662.74 -0.27 M 641.75 23.88 C 648.68 13.76 657.42 4.93 662.74 -0.27 M 647.39 23.49 C 657.82 13.74 657.7 10.02 667.73 0.09 M 647.39 23.49 C 652.34 17.5 656.65 10.85 667.73 0.09 M 652.38 23.85 C 663.32 18.94 663.97 6.19 673.37 -0.3 M 652.38 23.85 C 658.64 16.63 665.68 12.18 673.37 -0.3 M 658.02 23.45 C 664.86 16.47 669.09 13.31 678.36 0.06 M 658.02 23.45 C 666.91 15.32 672.7 5.07 678.36 0.06 M 663.01 23.81 C 669.46 13.99 680.87 0.94 684 -0.34 M 663.01 23.81 C 667.01 20.28 674.28 13.56 684 -0.34 M 668.65 23.42 C 673.08 13.08 683.77 6.31 688.99 0.02 M 668.65 23.42 C 676.58 15.08 681.34 9.07 688.99 0.02 M 673.64 23.78 C 679.77 12.72 686.43 7.36 694.63 -0.37 M 673.64 23.78 C 680.96 19.96 686.36 10.95 694.63 -0.37 M 679.28 23.38 C 687.03 14.48 696.63 5.62 699.62 -0.01 M 679.28 23.38 C 684.82 15.67 692.02 9.75 699.62 -0.01 M 684.27 23.74 C 689.97 19.93 692.67 8 704.6 0.35 M 684.27 23.74 C 691.09 15.93 697.56 10.51 704.6 0.35 M 689.91 23.35 C 690.71 17.9 696.35 13.92 710.25 -0.05 M 689.91 23.35 C 694.28 15.48 701.54 10.25 710.25 -0.05 M 694.9 23.71 C 696.82 19.11 704.21 12.96 715.23 0.31 M 694.9 23.71 C 697.71 16.65 705.07 15.15 715.23 0.31 M 700.54 23.31 C 705.86 14.87 713.56 15.69 720.88 -0.08 M 700.54 23.31 C 706.66 18.9 712.11 13.54 720.88 -0.08 M 705.53 23.67 C 707.25 21.32 712.39 11.5 725.86 0.28 M 705.53 23.67 C 711.67 13.19 721.72 3.24 725.86 0.28 M 711.17 23.28 C 721.62 14.71 728.38 7.7 731.51 -0.12 M 711.17 23.28 C 714.34 18.97 721.04 13.93 731.51 -0.12 M 716.16 23.64 C 722.23 17.46 721.99 17.19 736.5 0.24 M 716.16 23.64 C 721.68 19 725.28 12.03 736.5 0.24 M 721.8 23.25 C 724.44 16.8 734.23 10.25 742.14 -0.15 M 721.8 23.25 C 725.34 16.25 731.58 11.75 742.14 -0.15 M 726.79 23.61 C 730.45 18.13 734.62 14.23 747.13 0.21 M 726.79 23.61 C 733.61 16.37 740.49 9.75 747.13 0.21 M 731.77 23.97 C 740.18 13.78 746.67 3.1 752.77 -0.19 M 731.77 23.97 C 738.78 16.33 742.56 11.57 752.77 -0.19 M 737.42 23.57 C 739.32 15.65 741.85 13.22 757.76 0.18 M 737.42 23.57 C 743.33 17.49 749.09 10.55 757.76 0.18 M 742.4 23.93 C 749.3 13.13 758.99 8.52 763.4 -0.22 M 742.4 23.93 C 745.29 18.82 750.2 10.32 763.4 -0.22 M 748.05 23.54 C 750.14 21.22 754.21 10.63 768.39 0.14 M 748.05 23.54 C 753.48 14.9 761.12 9.83 768.39 0.14 M 753.03 23.9 C 762.39 17.06 765.62 7.19 774.03 -0.25 M 753.03 23.9 C 758.38 18.27 762.46 10.73 774.03 -0.25 M 758.68 23.5 C 761.75 18.13 766.98 11.65 779.02 0.11 M 758.68 23.5 C 761.85 20.19 768.97 11.97 779.02 0.11 M 763.66 23.86 C 767.19 15.2 770 15.64 784.66 -0.29 M 763.66 23.86 C 770.07 17.91 775.94 10.13 784.66 -0.29 M 769.31 23.47 C 775.94 14.87 775.48 10.34 789.65 0.07 M 769.31 23.47 C 776.05 16.49 780.38 9.83 789.65 0.07 M 774.29 23.83 C 777.94 18.15 784.45 16.32 795.29 -0.32 M 774.29 23.83 C 781.88 14.99 789.21 7.33 795.29 -0.32 M 779.94 23.43 C 785.15 15.47 792.96 7.6 800.28 0.04 M 779.94 23.43 C 786.84 12.42 797.45 3.69 800.28 0.04 M 784.92 23.79 C 794.49 17.3 798.97 4.73 805.92 -0.36 M 784.92 23.79 C 794.11 15.39 801.68 4.31 805.92 -0.36 M 790.57 23.4 C 792.66 16.07 800.46 9.44 810.91 0 M 790.57 23.4 C 795.46 17.24 798.01 14.08 810.91 0 M 795.55 23.76 C 806.33 16.64 810.69 4.72 815.89 0.36 M 795.55 23.76 C 801.38 17.51 803.35 11.17 815.89 0.36 M 801.2 23.36 C 809.44 16.62 814.17 11.66 821.54 -0.03 M 801.2 23.36 C 807.98 16.11 816.39 6.67 821.54 -0.03 M 806.18 23.72 C 812.89 13.48 820.01 7.04 826.52 0.33 M 806.18 23.72 C 816.13 13.28 821.33 6.41 826.52 0.33 M 811.83 23.33 C 820.3 13.04 824.96 7.68 832.17 -0.07 M 811.83 23.33 C 815.41 19.05 820.82 10.97 832.17 -0.07 M 816.82 23.69 C 824.04 20.04 827.15 11.49 837.15 0.29 M 816.82 23.69 C 823.37 16.3 834.54 5.94 837.15 0.29 M 822.46 23.3 C 825.59 16.08 834.59 9.05 842.8 -0.1 M 822.46 23.3 C 826.53 16.81 832.92 14.42 842.8 -0.1 M 827.45 23.66 C 834.63 12.17 841.71 5.33 847.78 0.26 M 827.45 23.66 C 835.36 17.46 839.95 10.33 847.78 0.26 M 833.09 23.26 C 838.86 12.08 843.14 9.93 853.43 -0.14 M 833.09 23.26 C 842.73 13.6 848.22 5.54 853.43 -0.14 M 838.08 23.62 C 842.56 13.59 850.23 11.56 858.41 0.22 M 838.08 23.62 C 844.85 13.73 855.36 5.73 858.41 0.22 M 843.72 23.23 C 847.81 15.44 855.95 9.83 864.06 -0.17 M 843.72 23.23 C 850.34 18.12 854.31 8.01 864.06 -0.17 M 848.71 23.59 C 856.92 14.12 862.97 12.03 869.04 0.19 M 848.71 23.59 C 855.5 18.3 859.71 9.61 869.04 0.19 M 853.69 23.95 C 864.02 16.06 867.65 9.85 874.69 -0.2 M 853.69 23.95 C 860.32 13.8 869.32 7.45 874.69 -0.2 M 859.34 23.55 C 867.69 20.27 869 17.19 879.67 0.16 M 859.34 23.55 C 864.54 17.11 869.98 10.26 879.67 0.16 M 864.32 23.91 C 869.77 16.66 874.05 9.99 885.32 -0.24 M 864.32 23.91 C 868.73 19.9 874.74 13.58 885.32 -0.24 M 869.97 23.52 C 872.8 13.85 881.62 11.5 890.3 0.12 M 869.97 23.52 C 874.02 16.4 882.27 10.7 890.3 0.12 M 874.95 23.88 C 878.05 16.56 883.55 8.31 895.95 -0.27 M 874.95 23.88 C 882.66 17.32 885.71 8.82 895.95 -0.27 M 880.6 23.48 C 886.2 18.34 892.16 12.34 900.93 0.09 M 880.6 23.48 C 886.5 15.74 893.54 6.73 900.93 0.09 M 885.58 23.84 C 891.79 20.92 893.33 10.42 906.58 -0.31 M 885.58 23.84 C 891.24 16.08 897.93 8.03 906.58 -0.31 M 891.23 23.45 C 899.98 17.39 906.41 7.33 911.56 0.05 M 891.23 23.45 C 896.47 14.19 906.93 8.09 911.56 0.05 M 896.21 23.81 C 904.01 18.63 911.97 7.84 917.21 -0.34 M 896.21 23.81 C 902.47 19.2 903.46 13.21 917.21 -0.34 M 901.86 23.41 C 912.06 15.4 917.97 8.73 922.19 0.02 M 901.86 23.41 C 906.01 18.67 913.62 11.11 922.19 0.02 M 906.84 23.77 C 911.95 21.14 915.08 12.89 927.84 -0.38 M 906.84 23.77 C 914.93 15.17 920.71 6.76 927.84 -0.38 M 912.49 23.38 C 918.56 16.32 927.01 1.77 932.82 -0.02 M 912.49 23.38 C 919.07 15.71 920.99 13.5 932.82 -0.02 M 917.47 23.74 C 927.12 13.35 930.02 4.15 937.81 0.34 M 917.47 23.74 C 921.12 19.31 926.48 11.62 937.81 0.34 M 923.12 23.34 C 925.36 21.46 929.38 9.58 943.45 -0.05 M 923.12 23.34 C 929.01 15.56 934.2 8.15 943.45 -0.05 M 928.1 23.7 C 936.72 13.99 943.12 4.37 948.44 0.31 M 928.1 23.7 C 932.78 15.9 941.26 9.21 948.44 0.31 M 933.75 23.31 C 940.62 12.6 943.65 4.53 954.08 -0.09 M 933.75 23.31 C 943.26 15.2 950.74 5.08 954.08 -0.09 M 938.73 23.67 C 941.47 17.28 950.98 14.62 959.07 0.27 M 938.73 23.67 C 947.66 15.58 956.12 3.7 959.07 0.27 M 944.38 23.28 C 944.31 14.44 950.02 15.09 964.71 -0.12 M 944.38 23.28 C 947.52 19.97 954.68 14.8 964.71 -0.12 M 949.36 23.64 C 957.05 17.51 956.58 11.79 969.7 0.24 M 949.36 23.64 C 957.77 13.44 963.85 8.79 969.7 0.24 M 955.01 23.24 C 962.44 16.09 963.2 10.95 975.34 -0.15 M 955.01 23.24 C 958.81 16.15 967.98 7.82 975.34 -0.15 M 959.99 23.6 C 971.81 13.47 976.72 8.28 980.33 0.21 M 959.99 23.6 C 967.01 17.63 970.61 8.81 980.33 0.21 M 964.98 23.96 C 972.72 14.35 971.71 13.12 985.97 -0.19 M 964.98 23.96 C 967.65 16.91 974.32 12.19 985.97 -0.19 M 970.62 23.57 C 978.76 11.63 983.81 2.86 990.96 0.17 M 970.62 23.57 C 975.47 14.81 982.09 7.17 990.96 0.17 M 975.61 23.93 C 981.14 16.35 992.23 4.22 996.6 -0.22 M 975.61 23.93 C 981.53 15.31 988.55 11.32 996.6 -0.22 M 981.25 23.53 C 985.9 12.19 994.63 4.96 1001.59 0.14 M 981.25 23.53 C 987.88 15.52 993.86 10.79 1001.59 0.14 M 986.24 23.89 C 990.16 20.08 1000.11 12.66 1007.23 -0.26 M 986.24 23.89 C 993.52 13.63 1003.57 2.95 1007.23 -0.26 M 991.88 23.5 C 1001.8 12.88 1009.58 6.88 1012.22 0.1 M 991.88 23.5 C 998.2 16.85 1002.14 13.09 1012.22 0.1 M 996.87 23.86 C 1000.93 17.09 1005.93 6.3 1017.86 -0.29 M 996.87 23.86 C 1000.97 18.17 1006.7 10.88 1017.86 -0.29 M 1002.51 23.46 C 1011.92 18.37 1015.15 6.83 1022.85 0.07 M 1002.51 23.46 C 1008.17 15.27 1016.33 5.07 1022.85 0.07 M 1007.5 23.82 C 1011.53 15.4 1018.98 8.96 1028.49 -0.33 M 1007.5 23.82 C 1016.43 15.48 1021.42 8.05 1028.49 -0.33 M 1013.14 23.43 C 1023.28 18.99 1030.53 9.35 1033.48 0.03 M 1013.14 23.43 C 1019.6 16.56 1025.02 13.72 1033.48 0.03 M 1018.13 23.79 C 1023.06 13.98 1027.99 9.98 1039.12 -0.36 M 1018.13 23.79 C 1022.63 16.01 1030.95 12.4 1039.12 -0.36 M 1023.77 23.39 C 1033.94 18.37 1043.13 7.26 1044.11 0 M 1023.77 23.39 C 1027.2 18.96 1031.31 14.71 1044.11 0 M 1028.76 23.75 C 1037.51 14.03 1044.37 11.78 1049.1 0.36 M 1028.76 23.75 C 1034.12 16.33 1043.1 9.11 1049.1 0.36 M 1034.4 23.36 C 1043.46 12.95 1048.92 11.51 1054.74 -0.04 M 1034.4 23.36 C 1039.68 18.18 1043.51 15.1 1054.74 -0.04 M 1039.39 23.72 C 1042.2 17.47 1049.56 9 1059.73 0.32 M 1039.39 23.72 C 1047.7 16.9 1054.46 10.02 1059.73 0.32 M 1045.03 23.33 C 1054.32 18.29 1056.09 9.79 1065.37 -0.07 M 1045.03 23.33 C 1047.66 18.83 1053.21 13.16 1065.37 -0.07 M 1050.02 23.69 C 1051.24 20.06 1057.5 15.88 1070.36 0.29 M 1050.02 23.69 C 1054.06 19.17 1059.41 11.93 1070.36 0.29 M 1055.66 23.29 C 1062.64 14.6 1069.53 8.47 1076 -0.11 M 1055.66 23.29 C 1064.83 16.04 1070.42 6.22 1076 -0.11 M 1060.65 23.65 C 1069.6 13.33 1077.33 5.69 1080.99 0.26 M 1060.65 23.65 C 1067.24 15.54 1074.31 6.79 1080.99 0.26 M 1066.29 23.26 C 1070.51 21.91 1073.27 16.04 1086.63 -0.14 M 1066.29 23.26 C 1070.58 15.85 1076.05 10.88 1086.63 -0.14 M 1071.28 23.62 C 1077.5 15.93 1075.42 14.68 1091.62 0.22 M 1071.28 23.62 C 1079.46 15.28 1085.86 8.9 1091.62 0.22 M 1076.92 23.22 C 1078.46 16.37 1085.01 9.75 1097.26 -0.17 M 1076.92 23.22 C 1083.69 15.43 1094.07 4 1097.26 -0.17 M 1081.91 23.58 C 1087.07 17.35 1094.51 10.71 1102.25 0.19 M 1081.91 23.58 C 1090.1 15.61 1098.4 4.92 1102.25 0.19 M 1086.9 23.94 C 1093.67 19.1 1098.4 10.54 1107.89 -0.21 M 1086.9 23.94 C 1092.02 17.44 1098.72 10.09 1107.89 -0.21 M 1092.54 23.55 C 1095.44 18.81 1104.14 10.55 1112.88 0.15 M 1092.54 23.55 C 1097.96 17.15 1103.93 13.67 1112.88 0.15 M 1097.53 23.91 C 1106.95 14.44 1109.09 9.42 1118.52 -0.24 M 1097.53 23.91 C 1099.93 19.53 1107.61 15.97 1118.52 -0.24 M 1103.17 23.51 C 1112.29 17.98 1113.43 5.93 1119.57 4.65 M 1103.17 23.51 C 1108.5 17.19 1114.41 11.78 1119.57 4.65 M 1108.16 23.87 C 1113.75 22.45 1113.14 13.56 1119.31 11.04 M 1108.16 23.87 C 1111.59 21.2 1113.8 18.56 1119.31 11.04 M 1113.8 23.48 C 1115.08 23.18 1117.38 18.5 1119.05 17.44 M 1113.8 23.48 C 1115.27 20.88 1117.28 18.39 1119.05 17.44" fill="none" stroke="#f2cc8f" stroke-width="0.5" stroke-linejoin="round" stroke-linecap="round" stroke-miterlimit="10" pointer-events="all"/><path d="M 0 23 C 1.17 13.21 -1.12 9.92 0 0 M 0 23 C -1.44 17.75 -1.52 10.39 0 0 M 0 0 C 256.7 -4.51 514.31 -6.56 1119 0 M 0 0 C 243.29 1.14 486.59 2.2 1119 0 M 1119 0 C 1115.55 4.5 1115.05 14.3 1119 23 M 1119 0 C 1119.79 8.86 1119.76 18.48 1119 23" fill="none" stroke="#e07a5f" stroke-linejoin="round" stroke-linecap="round" stroke-miterlimit="10" pointer-events="all"/><path d="M 0 23 C 4.05 124.5 2.66 229.94 0 399 M 0 23 C -1.1 125.54 -1.15 226.79 0 399 M 0 399 C 256.7 394.49 514.31 392.44 1119 399 M 0 399 C 243.29 400.14 486.59 401.2 1119 399 M 1119 399 C 1120.28 286.41 1119.99 177.03 1119 23 M 1119 399 C 1116.53 262.24 1116.51 125.94 1119 23" fill="none" stroke="#e07a5f" stroke-linejoin="round" stroke-linecap="round" stroke-miterlimit="10" pointer-events="none"/><path d="M 0 23 C 308.89 26.49 616.27 27.71 1119 23 M 0 23 C 302.79 25.3 606.14 24.85 1119 23" fill="none" stroke="#e07a5f" stroke-linejoin="round" stroke-linecap="round" stroke-miterlimit="10" pointer-events="none"/></g><g><g fill="#393C56" font-family="&quot;LXGW WenKai&quot;" font-weight="bold" text-anchor="middle" font-size="15px"><text x="559" y="17.5">Vertical Container</text></g></g></g><g data-cell-id="gyem3hlseezmw4Tj-qo7-15"><g><path d="M 144 196.5 Q 174 196.5 174 151.75 Q 174 107 197.63 107" fill="none" stroke="none" pointer-events="stroke"/><path d="M 202.88 107 L 195.88 110.5 L 197.63 107 L 195.88 103.5 Z" fill="none" stroke="none" pointer-events="all"/><path d="M 144 196.5 C 163.01 197.77 174.38 178.49 174 151.75 M 144 196.5 C 167.39 199.04 171.34 180.64 174 151.75 M 174 151.75 C 172.89 125.88 183.08 104.88 197.63 107 M 174 151.75 C 174.72 124.65 181.27 109.4 197.63 107" fill="none" stroke="rgb(0, 0, 0)" stroke-linejoin="round" stroke-linecap="round" stroke-miterlimit="10" pointer-events="stroke"/><path d="M 196.17 103.16 C 196.17 103.16 196.17 103.16 196.17 103.16 M 196.17 103.16 C 196.17 103.16 196.17 103.16 196.17 103.16 M 197.88 107.3 C 198.91 107.13 199.07 105.87 199.85 105.03 M 197.88 107.3 C 198.16 106.41 199.05 106.28 199.85 105.03" fill="none" stroke="rgb(0, 0, 0)" stroke-width="0.5" stroke-linejoin="round" stroke-linecap="round" stroke-miterlimit="10" pointer-events="all"/><path d="M 202.88 107 C 199.76 109.13 199.91 108.04 195.88 110.5 M 202.88 107 C 201.14 107.7 199.07 109.56 195.88 110.5 M 195.88 110.5 C 197.09 109.96 196.73 108.48 197.63 107 M 195.88 110.5 C 196.12 109.07 197.24 108.2 197.63 107 M 197.63 107 C 197.07 106.88 196.31 105.27 195.88 103.5 M 197.63 107 C 197.39 105.91 196.74 105.16 195.88 103.5 M 195.88 103.5 C 199.09 103.23 199.28 106.78 202.88 107 M 195.88 103.5 C 198.42 105.23 201.56 105.78 202.88 107" fill="none" stroke="rgb(0, 0, 0)" stroke-linejoin="round" stroke-linecap="round" stroke-miterlimit="10" pointer-events="all"/></g></g><g data-cell-id="wa0JLTWsgckLO4hLmPQc-1"><g><rect x="64" y="164" width="80" height="46.06" fill="none" stroke="none" pointer-events="all"/><path d="M 88.5 222.04 L 119.4 222.04 L 125.5 229 L 82.5 229 Z" fill="none" stroke="none" pointer-events="all"/><rect x="94" y="210.06" width="20" height="15.35" fill="none" stroke="none" pointer-events="all"/><rect x="67" y="167.07" width="73" height="39.92" fill="none" stroke="none" pointer-events="all"/><path d="M 63.75 164.28 C 63.75 164.28 63.75 164.28 63.75 164.28 M 63.75 164.28 C 63.75 164.28 63.75 164.28 63.75 164.28 M 64.15 169.93 C 65.38 168.5 68.08 167.66 69.4 163.89 M 64.15 169.93 C 66.27 168.34 66.17 166.99 69.4 163.89 M 63.89 176.32 C 66.4 174.98 68.01 167.27 74.38 164.25 M 63.89 176.32 C 67.22 172.37 67.3 171.86 74.38 164.25 M 64.28 181.97 C 66.73 178.45 73.34 170.34 80.03 163.85 M 64.28 181.97 C 70.91 175.31 76.54 171.42 80.03 163.85 M 64.02 188.36 C 69.7 179.51 78.69 170.28 85.01 164.21 M 64.02 188.36 C 71.49 180.47 80.09 171.2 85.01 164.21 M 63.76 194.76 C 70.07 180.02 80.97 173.34 90.66 163.82 M 63.76 194.76 C 68.98 186.44 76.73 183.2 90.66 163.82 M 64.15 200.41 C 72.1 190.81 81.79 187.05 95.64 164.18 M 64.15 200.41 C 75.39 189.17 87.42 172.53 95.64 164.18 M 63.89 206.8 C 78.48 190.04 93.43 177.97 101.29 163.78 M 63.89 206.8 C 77.63 192.21 88.24 179.13 101.29 163.78 M 65.6 210.94 C 76.95 199.3 86.15 188.55 106.27 164.14 M 65.6 210.94 C 78.83 196.67 91.04 182.58 106.27 164.14 M 71.24 210.54 C 81.09 200.07 91.75 180.23 111.92 163.75 M 71.24 210.54 C 85.66 195.56 99.93 182.04 111.92 163.75 M 76.23 210.9 C 92.22 197.34 99.97 187.2 116.9 164.11 M 76.23 210.9 C 83.49 200.21 90.67 191 116.9 164.11 M 81.87 210.51 C 93.22 201.83 98.09 192.33 122.55 163.72 M 81.87 210.51 C 96.58 192.13 112.12 175.54 122.55 163.72 M 86.86 210.87 C 96.91 191.74 113.53 182.38 127.53 164.08 M 86.86 210.87 C 95.8 200.64 105.04 190.58 127.53 164.08 M 92.5 210.47 C 101.16 199.75 113.42 183.34 133.18 163.68 M 92.5 210.47 C 105.2 197.42 113.14 184.73 133.18 163.68 M 97.49 210.83 C 111.08 190.59 132.6 176.58 138.16 164.04 M 97.49 210.83 C 113.74 194.61 128.47 175.76 138.16 164.04 M 103.13 210.44 C 119.09 196.97 125.8 179.18 143.81 163.65 M 103.13 210.44 C 112.15 200.6 119.79 191.49 143.81 163.65 M 108.12 210.8 C 119.78 204.54 127.17 192.86 144.2 169.29 M 108.12 210.8 C 117.61 202.4 123.74 193.07 144.2 169.29 M 113.76 210.4 C 120.75 202.55 128.7 190.16 144.6 174.93 M 113.76 210.4 C 124.58 199.32 135.26 183 144.6 174.93 M 118.75 210.76 C 122.78 199.9 130.81 197.44 144.34 181.33 M 118.75 210.76 C 125.41 201.09 134.75 192.53 144.34 181.33 M 124.39 210.37 C 131.21 205.37 133.47 197.68 144.73 186.97 M 124.39 210.37 C 130.5 201.93 135.66 199.39 144.73 186.97 M 129.38 210.73 C 132.16 206.28 143 197.55 144.47 193.37 M 129.38 210.73 C 134.78 206.22 135.32 201.41 144.47 193.37 M 135.02 210.34 C 135.64 207.3 142.59 204.3 144.21 199.77 M 135.02 210.34 C 137.26 206.18 140.08 205.82 144.21 199.77 M 140.01 210.7 C 140.25 208.06 144.17 205.93 144.6 205.41 M 140.01 210.7 C 141.29 209.33 142.19 207.78 144.6 205.41" fill="none" stroke="#cccccc" stroke-linejoin="round" stroke-linecap="round" stroke-miterlimit="10" pointer-events="all"/><path d="M 64 164 C 94.82 163.2 123.19 159.83 144 164 M 64 164 C 88.48 161.51 113.29 162.49 144 164 M 144 164 C 147.91 181.59 143.37 203.84 144 210.06 M 144 164 C 144.29 178.8 146.14 195.77 144 210.06 M 144 210.06 C 115.85 210.95 84.85 208.27 64 210.06 M 144 210.06 C 114.9 210.65 87.4 212.4 64 210.06 M 64 210.06 C 67.39 189.91 67.51 174.99 64 164 M 64 210.06 C 62.97 198.27 61.4 187.34 64 164" fill="none" stroke="#6881b3" stroke-width="2" stroke-linejoin="round" stroke-linecap="round" stroke-miterlimit="10" pointer-events="all"/><path d="M 88.73 221.77 C 88.73 221.77 88.73 221.77 88.73 221.77 M 88.73 221.77 C 88.73 221.77 88.73 221.77 88.73 221.77 M 87.16 229.68 C 88.69 227.9 92.08 226.85 93.72 222.13 M 87.16 229.68 C 89.81 227.7 89.69 226.01 93.72 222.13 M 92.8 229.28 C 94.37 228.44 95.38 223.63 99.36 221.74 M 92.8 229.28 C 94.89 226.81 94.94 226.5 99.36 221.74 M 97.79 229.64 C 98.6 228.39 101.48 224.82 104.35 222.1 M 97.79 229.64 C 100.67 226.82 103.04 225.38 104.35 222.1 M 102.78 230 C 104.52 226.6 108.16 223.02 109.99 221.7 M 102.78 230 C 105.28 227.49 108.49 224.13 109.99 221.7 M 108.42 229.61 C 109.04 225.28 111.8 225.04 114.98 222.06 M 108.42 229.61 C 109.57 227.18 111.96 227.27 114.98 222.06 M 113.41 229.97 C 115.3 227.7 118.02 228.27 119.97 222.42 M 113.41 229.97 C 115.57 228.2 118.19 223.79 119.97 222.42 M 119.05 229.58 C 120.45 227.78 122 227.27 122.33 225.8 M 119.05 229.58 C 120.48 228.35 121.07 227.46 122.33 225.8 M 124.04 229.94 C 124.48 229.49 124.74 229.17 125.35 228.43 M 124.04 229.94 C 124.44 229.52 124.78 229.11 125.35 228.43" fill="none" stroke="#cccccc" stroke-linejoin="round" stroke-linecap="round" stroke-miterlimit="10" pointer-events="all"/><path d="M 88.5 222.04 C 99.95 222.03 108.95 218.65 119.4 222.04 M 88.5 222.04 C 97.6 220.17 107.02 221.15 119.4 222.04 M 119.4 222.04 C 123.46 224.52 123.78 229.11 125.5 229 M 119.4 222.04 C 121.4 223.87 124.38 226.73 125.5 229 M 125.5 229 C 111.52 230.23 94.7 227.56 82.5 229 M 125.5 229 C 109.32 228.97 94.75 230.72 82.5 229 M 82.5 229 C 86.29 224.9 88.49 223.12 88.5 222.04 M 82.5 229 C 83.74 227.17 84.54 225.75 88.5 222.04" fill="none" stroke="#6881b3" stroke-width="2" stroke-linejoin="round" stroke-linecap="round" stroke-miterlimit="10" pointer-events="all"/><path d="M 93.81 210.28 C 93.81 210.28 93.81 210.28 93.81 210.28 M 93.81 210.28 C 93.81 210.28 93.81 210.28 93.81 210.28 M 94.2 215.93 C 95.43 214.5 98.14 213.66 99.45 209.89 M 94.2 215.93 C 96.33 214.34 96.22 213 99.45 209.89 M 93.94 222.32 C 96.46 220.98 98.06 213.27 104.44 210.25 M 93.94 222.32 C 97.28 218.37 97.36 217.86 104.44 210.25 M 96.3 225.7 C 98.13 222.94 104.1 215.56 110.08 209.85 M 96.3 225.7 C 102.28 219.8 107.25 216.66 110.08 209.85 M 101.29 226.06 C 104.45 219.88 111.09 213.37 114.41 210.97 M 101.29 226.06 C 105.85 221.49 111.68 215.39 114.41 210.97 M 106.93 225.67 C 107.68 220.48 110.99 220.18 114.81 216.61 M 106.93 225.67 C 108.31 222.76 111.18 222.86 114.81 216.61 M 111.92 226.03 C 112.68 225.12 113.77 225.35 114.55 223.01 M 111.92 226.03 C 112.79 225.32 113.83 223.56 114.55 223.01" fill="none" stroke="#cccccc" stroke-linejoin="round" stroke-linecap="round" stroke-miterlimit="10" pointer-events="all"/><path d="M 94 210.06 C 101.15 210.23 105.85 206.85 114 210.06 M 94 210.06 C 99.68 208.33 105.69 209.32 114 210.06 M 114 210.06 C 116.76 215.62 113.27 224.75 114 225.42 M 114 210.06 C 113.87 214.47 115.29 220.54 114 225.42 M 114 225.42 C 108.83 226.87 100.83 224.19 94 225.42 M 114 225.42 C 105.86 225.01 99.32 226.76 94 225.42 M 94 225.42 C 96.73 217.09 96.82 212.8 94 210.06 M 94 225.42 C 93.48 221.43 92.27 218.12 94 210.06" fill="none" stroke="#6881b3" stroke-width="2" stroke-linejoin="round" stroke-linecap="round" stroke-miterlimit="10" pointer-events="all"/><path d="M 66.51 166.5 L 138.29 169 L 136.57 203.48 L 65.97 204.86" fill="#ffffff" stroke="none" pointer-events="all"/></g><g><g fill="#0066CC" font-family="&quot;LXGW WenKai&quot;" text-anchor="middle" font-size="12px"><text x="103.5" y="246.5">客户端</text></g></g></g><g data-cell-id="gyem3hlseezmw4Tj-qo7-16"><g><path d="M 286.5 132 Q 286.5 274 347.63 274" fill="none" stroke="none" pointer-events="stroke"/><path d="M 352.88 274 L 345.88 277.5 L 347.63 274 L 345.88 270.5 Z" fill="none" stroke="none" pointer-events="all"/><path d="M 286.5 132 C 285.51 228.61 304.06 276.62 347.63 274 M 286.5 132 C 287.51 223.87 302.29 276.37 347.63 274" fill="none" stroke="rgb(0, 0, 0)" stroke-linejoin="round" stroke-linecap="round" stroke-miterlimit="10" pointer-events="stroke"/><path d="M 345.93 270.45 C 345.93 270.45 345.93 270.45 345.93 270.45 M 345.93 270.45 C 345.93 270.45 345.93 270.45 345.93 270.45 M 347.63 274.58 C 348.03 274.12 348.91 273.15 349.6 272.32 M 347.63 274.58 C 347.83 273.79 348.74 273.3 349.6 272.32" fill="none" stroke="rgb(0, 0, 0)" stroke-width="0.5" stroke-linejoin="round" stroke-linecap="round" stroke-miterlimit="10" pointer-events="all"/><path d="M 352.88 274 C 352.01 275.21 348.11 274.27 345.88 277.5 M 352.88 274 C 350.02 274.93 348.68 276.42 345.88 277.5 M 345.88 277.5 C 347.05 276.14 346.31 275.59 347.63 274 M 345.88 277.5 C 346.54 276.12 347.19 275.25 347.63 274 M 347.63 274 C 346.91 272.9 346.99 272.01 345.88 270.5 M 347.63 274 C 346.93 272.83 346.61 271.5 345.88 270.5 M 345.88 270.5 C 347.47 269.99 350.79 271.61 352.88 274 M 345.88 270.5 C 348.5 271.97 351.43 272.23 352.88 274" fill="none" stroke="rgb(0, 0, 0)" stroke-linejoin="round" stroke-linecap="round" stroke-miterlimit="10" pointer-events="all"/></g></g><g data-cell-id="gyem3hlseezmw4Tj-qo7-8"><g><rect x="204" y="82" width="110" height="50" fill="none" stroke="none" pointer-events="all"/><path d="M 200.11 79.89 L 317.95 79.77 L 317.29 130.2 L 204.09 135.77" fill="rgb(255, 255, 255)" stroke="none" pointer-events="all"/><path d="M 204 82 C 239.63 86.6 279.03 82.34 314 82 M 204 82 C 238.01 81.87 275.37 83.35 314 82 M 314 82 C 316.05 98.63 317.79 116.72 314 132 M 314 82 C 315.24 100.46 313.73 118.5 314 132 M 314 132 C 287.25 136.54 255.33 136.01 204 132 M 314 132 C 290.41 129.95 265.35 130.08 204 132 M 204 132 C 201.4 113.41 207.88 93.86 204 82 M 204 132 C 203.99 122.06 204.49 107.97 204 82" fill="none" stroke="rgb(0, 0, 0)" stroke-linejoin="round" stroke-linecap="round" stroke-miterlimit="10" pointer-events="all"/></g><g><g fill="rgb(0, 0, 0)" font-family="&quot;LXGW WenKai&quot;" text-anchor="middle" font-size="12px"><text x="258.5" y="111.5">web.xml</text></g></g></g><g data-cell-id="gyem3hlseezmw4Tj-qo7-9"><g><path d="M 354 261 L 354 235 L 514 235 L 514 261" fill="none" stroke="none" pointer-events="all"/><path d="M 354 261 C 357.69 253.19 357.05 249.16 354 235 C 417.6 237.26 481.58 229.66 514 235 C 516.09 240.78 518.98 248.5 514 261" fill="rgb(255, 255, 255)" stroke="none" pointer-events="all"/><path d="M 354 261 C 355.85 253.48 353.6 240.33 354 235 M 354 261 C 354.28 249.97 355 239.55 354 235 M 354 235 C 417.76 240.06 479.87 237.66 514 235 M 354 235 C 408.78 236.77 464.32 235.87 514 235 M 514 235 C 515.65 238.56 517.25 247.02 514 261 M 514 235 C 513.16 241.85 514.91 250.67 514 261" fill="none" stroke="rgb(0, 0, 0)" stroke-linejoin="round" stroke-linecap="round" stroke-miterlimit="10" pointer-events="all"/><path d="M 354 261 C 356.48 284.21 354.23 301.79 354 321 M 354 261 C 355.39 284.14 356.11 307.9 354 321 M 354 321 C 417.76 326.06 479.87 323.66 514 321 M 354 321 C 408.78 322.77 464.32 321.87 514 321 M 514 321 C 515.47 304.75 517.07 293.41 514 261 M 514 321 C 514.8 304.97 516.55 290.92 514 261" fill="none" stroke="rgb(0, 0, 0)" stroke-linejoin="round" stroke-linecap="round" stroke-miterlimit="10" pointer-events="none"/><path d="M 354 261 C 413.21 260.02 468.12 256.17 514 261 M 354 261 C 418.19 259.82 482.49 259.74 514 261" fill="none" stroke="rgb(0, 0, 0)" stroke-linejoin="round" stroke-linecap="round" stroke-miterlimit="10" pointer-events="none"/></g><g><g fill="rgb(0, 0, 0)" font-family="&quot;LXGW WenKai&quot;" font-weight="bold" text-anchor="middle" font-size="12px"><text x="433.5" y="252.5">DispatcherServlet</text></g></g><g data-cell-id="gyem3hlseezmw4Tj-qo7-10"><g><rect x="354" y="261" width="160" height="26" fill="none" stroke="none" pointer-events="all"/></g><g><g fill="rgb(0, 0, 0)" font-family="&quot;LXGW WenKai&quot;" clip-path="url(#mx-clip-358-266-152-26-0)" font-size="12px"><text x="359.5" y="278.5">+ ...</text></g></g></g><g data-cell-id="gyem3hlseezmw4Tj-qo7-11"><g><path d="M 354 291 L 514 291" fill="none" stroke="none" pointer-events="all"/><path d="M 354 291 C 396.08 296.53 438.84 289.68 514 291 M 354 291 C 415.68 290.38 477.42 290.88 514 291" fill="none" stroke="rgb(0, 0, 0)" stroke-linejoin="round" stroke-linecap="round" stroke-miterlimit="10" pointer-events="all"/></g></g><g data-cell-id="gyem3hlseezmw4Tj-qo7-12"><g><rect x="354" y="295" width="160" height="26" fill="none" stroke="none" pointer-events="all"/></g><g><g fill="rgb(0, 0, 0)" font-family="&quot;LXGW WenKai&quot;" clip-path="url(#mx-clip-358-300-152-26-0)" font-size="12px"><text x="359.5" y="312.5">+ ...</text></g></g></g></g><g data-cell-id="gyem3hlseezmw4Tj-qo7-18"><g><path d="M 543 104 L 543 78 L 703 78 L 703 104" fill="none" stroke="none" pointer-events="all"/><path d="M 543 104 C 544.87 89.77 542.15 82.61 543 78 C 580.65 76.46 626.34 79 703 78 C 707.77 87.13 706.25 86.17 703 104" fill="rgb(255, 255, 255)" stroke="none" pointer-events="all"/><path d="M 543 104 C 540.62 93.58 538.86 90.35 543 78 M 543 104 C 542.71 96.54 543.88 90.42 543 78 M 543 78 C 607.31 80.2 666.84 77.78 703 78 M 543 78 C 585 77.44 621.39 77.49 703 78 M 703 78 C 706.24 89.07 700.37 94.72 703 104 M 703 78 C 703.09 88.44 704.33 96.92 703 104" fill="none" stroke="rgb(0, 0, 0)" stroke-linejoin="round" stroke-linecap="round" stroke-miterlimit="10" pointer-events="all"/><path d="M 543 104 C 542.04 117.25 540.28 137.7 543 164 M 543 104 C 542.93 121.95 544.1 141.24 543 164 M 543 164 C 607.31 166.2 666.84 163.78 703 164 M 543 164 C 585 163.44 621.39 163.49 703 164 M 703 164 C 707.31 146.86 701.44 124.31 703 104 M 703 164 C 704.22 140.75 705.46 115.53 703 104" fill="none" stroke="rgb(0, 0, 0)" stroke-linejoin="round" stroke-linecap="round" stroke-miterlimit="10" pointer-events="none"/><path d="M 543 104 C 585.09 101.69 627.37 105.62 703 104 M 543 104 C 590.06 101.66 638.49 103.22 703 104" fill="none" stroke="rgb(0, 0, 0)" stroke-linejoin="round" stroke-linecap="round" stroke-miterlimit="10" pointer-events="none"/></g><g><g fill="rgb(0, 0, 0)" font-family="&quot;LXGW WenKai&quot;" font-weight="bold" text-anchor="middle" font-size="12px"><text x="622.5" y="95.5">HelloController</text></g></g><g data-cell-id="gyem3hlseezmw4Tj-qo7-19"><g><rect x="543" y="104" width="160" height="26" fill="none" stroke="none" pointer-events="all"/></g><g><g fill="rgb(0, 0, 0)" font-family="&quot;LXGW WenKai&quot;" clip-path="url(#mx-clip-547-109-152-26-0)" font-size="12px"><text x="548.5" y="121.5">+ ...</text></g></g></g><g data-cell-id="gyem3hlseezmw4Tj-qo7-20"><g><path d="M 543 134 L 703 134" fill="none" stroke="none" pointer-events="all"/><path d="M 543 134 C 588.54 133.11 632.69 138.21 703 134 M 543 134 C 598.02 129.88 655.87 131.48 703 134" fill="none" stroke="rgb(0, 0, 0)" stroke-linejoin="round" stroke-linecap="round" stroke-miterlimit="10" pointer-events="all"/></g></g><g data-cell-id="gyem3hlseezmw4Tj-qo7-21"><g><rect x="543" y="138" width="160" height="26" fill="none" stroke="none" pointer-events="all"/></g><g><g fill="rgb(0, 0, 0)" font-family="&quot;LXGW WenKai&quot;" clip-path="url(#mx-clip-547-143-152-26-0)" font-size="12px"><text x="548.5" y="155.5">+ ...</text></g></g></g></g><g data-cell-id="gyem3hlseezmw4Tj-qo7-23"><g><path d="M 514 274 Q 606 274 606.04 171.36" fill="none" stroke="none" pointer-events="stroke"/><path d="M 606.04 166.11 L 609.54 173.11 L 606.04 171.36 L 602.54 173.1 Z" fill="none" stroke="none" pointer-events="all"/><path d="M 514 274 C 574.35 270.99 609.9 242.41 606.04 171.36 M 514 274 C 574.02 278.21 602.74 242.88 606.04 171.36" fill="none" stroke="rgb(0, 0, 0)" stroke-linejoin="round" stroke-linecap="round" stroke-miterlimit="10" pointer-events="stroke"/><path d="M 605.78 166.41 C 605.78 166.41 605.78 166.41 605.78 166.41 M 605.78 166.41 C 605.78 166.41 605.78 166.41 605.78 166.41 M 606.18 172.05 C 607.19 171.33 607.54 170.93 608.15 169.79 M 606.18 172.05 C 606.63 171.06 607.71 170.35 608.15 169.79" fill="none" stroke="rgb(0, 0, 0)" stroke-width="0.5" stroke-linejoin="round" stroke-linecap="round" stroke-miterlimit="10" pointer-events="all"/><path d="M 606.04 166.11 C 607.93 167.52 609.3 168.78 609.54 173.11 M 606.04 166.11 C 608.05 168.38 608.98 171.31 609.54 173.11 M 609.54 173.11 C 608.14 172.72 607.37 172.24 606.04 171.36 M 609.54 173.11 C 609.16 173.03 608.21 172.8 606.04 171.36 M 606.04 171.36 C 605.67 171.34 603.15 172.51 602.54 173.1 M 606.04 171.36 C 605.31 171.78 604.12 172.31 602.54 173.1 M 602.54 173.1 C 602.7 171.53 604.72 168.44 606.04 166.11 M 602.54 173.1 C 603.74 170.38 604.55 167.89 606.04 166.11" fill="none" stroke="rgb(0, 0, 0)" stroke-linejoin="round" stroke-linecap="round" stroke-miterlimit="10" pointer-events="all"/></g></g><g data-cell-id="gyem3hlseezmw4Tj-qo7-24"><g><rect x="710" y="283" width="165" height="50" fill="none" stroke="none" pointer-events="all"/><path d="M 708.57 284.32 L 871.2 282.76 L 872.24 335.69 L 710.21 334.1" fill="rgb(255, 255, 255)" stroke="none" pointer-events="all"/><path d="M 710 283 C 755.77 279.21 799.9 285.9 875 283 M 710 283 C 749.86 285.76 787.59 285.1 875 283 M 875 283 C 872.88 296.94 872.13 319.56 875 333 M 875 283 C 874.89 302.98 875.57 322.39 875 333 M 875 333 C 830 330 779.25 328.07 710 333 M 875 333 C 825.61 329.89 777.23 328.1 710 333 M 710 333 C 712.76 319.19 707.47 297.22 710 283 M 710 333 C 711.32 315.85 710.22 299.01 710 283" fill="none" stroke="rgb(0, 0, 0)" stroke-linejoin="round" stroke-linecap="round" stroke-miterlimit="10" pointer-events="all"/></g><g><g fill="rgb(0, 0, 0)" font-family="&quot;LXGW WenKai&quot;" text-anchor="middle" font-size="12px"><text x="792" y="312.5">springmvc-servlet.xml</text></g></g></g><g data-cell-id="gyem3hlseezmw4Tj-qo7-25"><g><path d="M 703 117 Q 751.3 117 751.25 276.63" fill="none" stroke="none" pointer-events="stroke"/><path d="M 751.25 281.88 L 747.75 274.88 L 751.25 276.63 L 754.75 274.88 Z" fill="none" stroke="none" pointer-events="all"/><path d="M 703 117 C 734.22 115.35 748.79 168.26 751.25 276.63 M 703 117 C 738.32 119.74 753.36 170.73 751.25 276.63" fill="none" stroke="rgb(0, 0, 0)" stroke-linejoin="round" stroke-linecap="round" stroke-miterlimit="10" pointer-events="stroke"/><path d="M 747.57 275.09 C 747.57 275.09 747.57 275.09 747.57 275.09 M 747.57 275.09 C 747.57 275.09 747.57 275.09 747.57 275.09 M 749.93 278.46 C 750.63 278.35 751.01 277.67 751.25 276.96 M 749.93 278.46 C 750.12 278.06 750.47 277.5 751.25 276.96" fill="none" stroke="rgb(0, 0, 0)" stroke-width="0.5" stroke-linejoin="round" stroke-linecap="round" stroke-miterlimit="10" pointer-events="all"/><path d="M 751.25 281.88 C 749.58 280.97 750.31 278.69 747.75 274.88 M 751.25 281.88 C 749.69 279.75 749.15 278.27 747.75 274.88 M 747.75 274.88 C 748.41 275.82 750.69 275.48 751.25 276.63 M 747.75 274.88 C 748.73 275.6 750.47 276.18 751.25 276.63 M 751.25 276.63 C 752.39 276.6 753.44 276.37 754.75 274.88 M 751.25 276.63 C 752.83 276.1 753.73 275.51 754.75 274.88 M 754.75 274.88 C 753.4 277.93 753.92 279.22 751.25 281.88 M 754.75 274.88 C 753.21 276.81 753.44 278.87 751.25 281.88" fill="none" stroke="rgb(0, 0, 0)" stroke-linejoin="round" stroke-linecap="round" stroke-miterlimit="10" pointer-events="all"/></g></g><g data-cell-id="gyem3hlseezmw4Tj-qo7-26"><g><path d="M 1040.35 104.29 L 1040.35 190 L 879 190 L 879 90 L 1017.3 90 Z" fill="none" stroke="none" pointer-events="all"/><path d="M 1017.3 90 C 1019.18 93.34 1016.09 96.79 1009.07 99.18 L 1040.35 104.59" fill="none" stroke="none" pointer-events="all"/><path d="M 1040.35 104.29 C 1035.29 123.72 1040.01 140.36 1040.35 190 C 995.31 181.38 948.75 182.64 879 190 C 884.43 163.36 881.41 128.94 879 90 C 918.41 88.94 960.83 92.53 1017.3 90 C 1025.66 96.42 1028.61 97.59 1040.35 104.29" fill="rgb(255, 255, 255)" stroke="none" pointer-events="all"/><path d="M 1040.35 104.29 C 1043.7 128.53 1037.68 151.63 1040.35 190 M 1040.35 104.29 C 1041.58 137.75 1042.12 170.81 1040.35 190 M 1040.35 190 C 1010.22 190.56 970.84 190.8 879 190 M 1040.35 190 C 987.51 190.49 933.86 189.85 879 190 M 879 190 C 878.54 164.93 875.36 147.81 879 90 M 879 190 C 877.52 152.55 878.12 112.5 879 90 M 879 90 C 912.77 92.36 939.45 86.34 1017.3 90 M 879 90 C 912.73 91.91 946.34 91.59 1017.3 90 M 1017.3 90 C 1021.07 90.02 1024.25 95.16 1040.35 104.29 M 1017.3 90 C 1023.65 93.97 1030.86 99.46 1040.35 104.29" fill="none" stroke="rgb(0, 0, 0)" stroke-linejoin="round" stroke-linecap="round" stroke-miterlimit="10" pointer-events="all"/><path d="M 1017.3 90 C 1018.2 92.38 1018.41 100.56 1009.07 99.18 M 1017.3 90 C 1019.91 90.75 1016.24 100.62 1009.07 99.18 M 1009.07 99.18 C 1019.82 103.87 1029.76 98.55 1040.35 104.59 M 1009.07 99.18 C 1020.44 100.04 1033.04 103.56 1040.35 104.59" fill="none" stroke="rgb(0, 0, 0)" stroke-linejoin="round" stroke-linecap="round" stroke-miterlimit="10" pointer-events="all"/></g><g><g fill="rgb(0, 0, 0)" font-family="&quot;LXGW WenKai&quot;" text-anchor="middle" font-size="12px"><text x="960" y="144.5">hello.thymeleaf</text></g></g></g><g data-cell-id="gyem3hlseezmw4Tj-qo7-27"><g><path d="M 833.75 283 Q 833.8 140 872.63 140" fill="none" stroke="none" pointer-events="stroke"/><path d="M 877.88 140 L 870.88 143.5 L 872.63 140 L 870.88 136.5 Z" fill="none" stroke="none" pointer-events="all"/><path d="M 833.75 283 C 832.8 187.38 845.87 141.48 872.63 140 M 833.75 283 C 832.13 188.94 844.97 137.94 872.63 140" fill="none" stroke="rgb(0, 0, 0)" stroke-linejoin="round" stroke-linecap="round" stroke-miterlimit="10" pointer-events="stroke"/><path d="M 870.56 136.87 C 870.56 136.87 870.56 136.87 870.56 136.87 M 870.56 136.87 C 870.56 136.87 870.56 136.87 870.56 136.87 M 872.92 140.25 C 873.9 139.41 873.5 138.97 874.89 137.98 M 872.92 140.25 C 873.1 139.93 873.69 139.56 874.89 137.98" fill="none" stroke="rgb(0, 0, 0)" stroke-width="0.5" stroke-linejoin="round" stroke-linecap="round" stroke-miterlimit="10" pointer-events="all"/><path d="M 877.88 140 C 876.53 140.37 874.45 141.29 870.88 143.5 M 877.88 140 C 875.93 141.42 874.02 141.79 870.88 143.5 M 870.88 143.5 C 871.92 143 872.43 141.67 872.63 140 M 870.88 143.5 C 871.31 142.28 872.26 140.98 872.63 140 M 872.63 140 C 871.76 138.37 871.26 136.88 870.88 136.5 M 872.63 140 C 872.02 139.35 872.16 138.49 870.88 136.5 M 870.88 136.5 C 873.69 138.79 875.36 139.1 877.88 140 M 870.88 136.5 C 874.07 137.79 876.82 138.93 877.88 140" fill="none" stroke="rgb(0, 0, 0)" stroke-linejoin="round" stroke-linecap="round" stroke-miterlimit="10" pointer-events="all"/></g></g><g data-cell-id="gyem3hlseezmw4Tj-qo7-30"><g><rect x="147" y="37" width="238" height="41" fill="none" stroke="none" pointer-events="all"/></g><g><g fill="rgb(0, 0, 0)" font-family="&quot;LXGW WenKai&quot;" text-anchor="middle" font-size="12px"><text x="265.5" y="55">web.xml中url-pattern配置的是 /</text><text x="265.5" y="69">因此所有请求都先经过DispatcherServlet</text></g></g></g><g data-cell-id="gyem3hlseezmw4Tj-qo7-31"><g><rect x="325" y="331" width="223" height="26" fill="none" stroke="none" pointer-events="all"/></g><g><g fill="rgb(0, 0, 0)" font-family="&quot;LXGW WenKai&quot;" text-anchor="middle" font-size="12px"><text x="436" y="348.5">DispatcherServlet找到对应Controller</text></g></g></g><g data-cell-id="gyem3hlseezmw4Tj-qo7-32"><g><rect x="533" y="44.5" width="170" height="26" fill="none" stroke="none" pointer-events="all"/></g><g><g fill="rgb(0, 0, 0)" font-family="&quot;LXGW WenKai&quot;" text-anchor="middle" font-size="12px"><text x="617.5" y="62">Controller返回逻辑视图名称</text></g></g></g><g data-cell-id="gyem3hlseezmw4Tj-qo7-33"><g><rect x="698" y="340" width="210" height="26" fill="none" stroke="none" pointer-events="all"/></g><g><g fill="rgb(0, 0, 0)" font-family="&quot;LXGW WenKai&quot;" text-anchor="middle" font-size="12px"><text x="802.5" y="357.5">根据视图解析器配置，找到对应视图</text></g></g></g></g></g></g></svg>