<?xml version="1.0" encoding="UTF-8"?>
<!-- Do not edit this file with editors other than draw.io -->
<!DOCTYPE svg PUBLIC "-//W3C//DTD SVG 1.1//EN" "http://www.w3.org/Graphics/SVG/1.1/DTD/svg11.dtd">
<svg xmlns="http://www.w3.org/2000/svg" xmlns:xlink="http://www.w3.org/1999/xlink" version="1.1" width="1088px" height="609px" viewBox="-0.5 -0.5 1088 609" content="&lt;mxfile host=&quot;app.diagrams.net&quot; agent=&quot;Mozilla/5.0 (Windows NT 10.0; Win64; x64) AppleWebKit/537.36 (KHTML, like Gecko) Chrome/127.0.0.0 Safari/537.36&quot; version=&quot;24.7.6&quot;&gt;&#10;  &lt;diagram id=&quot;23iRSUPoRavnBvh4doch&quot; name=&quot;Page-1&quot;&gt;&#10;    &lt;mxGraphModel dx=&quot;3994&quot; dy=&quot;1098&quot; grid=&quot;0&quot; gridSize=&quot;10&quot; guides=&quot;1&quot; tooltips=&quot;1&quot; connect=&quot;1&quot; arrows=&quot;1&quot; fold=&quot;1&quot; page=&quot;0&quot; pageScale=&quot;1&quot; pageWidth=&quot;827&quot; pageHeight=&quot;1169&quot; background=&quot;#ffffff&quot; math=&quot;0&quot; shadow=&quot;0&quot;&gt;&#10;      &lt;root&gt;&#10;        &lt;mxCell id=&quot;0&quot; /&gt;&#10;        &lt;mxCell id=&quot;1&quot; parent=&quot;0&quot; /&gt;&#10;        &lt;mxCell id=&quot;gyem3hlseezmw4Tj-qo7-34&quot; value=&quot;Spring MVC执行流程&quot; style=&quot;swimlane;sketch=1;hachureGap=4;jiggle=2;curveFitting=1;fontFamily=LXGW WenKai;fontSize=15;strokeColor=#E07A5F;align=center;verticalAlign=middle;fontColor=#393C56;fontStyle=1;fillColor=#F2CC8F;labelBackgroundColor=none;startSize=23;&quot; parent=&quot;1&quot; vertex=&quot;1&quot;&gt;&#10;          &lt;mxGeometry x=&quot;-502&quot; y=&quot;362&quot; width=&quot;1087&quot; height=&quot;608&quot; as=&quot;geometry&quot; /&gt;&#10;        &lt;/mxCell&gt;&#10;        &lt;mxCell id=&quot;gyem3hlseezmw4Tj-qo7-24&quot; value=&quot;springmvc-servlet.xml&quot; style=&quot;fontFamily=LXGW WenKai;sketch=1;curveFitting=1;jiggle=2;&quot; parent=&quot;gyem3hlseezmw4Tj-qo7-34&quot; vertex=&quot;1&quot;&gt;&#10;          &lt;mxGeometry x=&quot;625&quot; y=&quot;269&quot; width=&quot;165&quot; height=&quot;50&quot; as=&quot;geometry&quot; /&gt;&#10;        &lt;/mxCell&gt;&#10;        &lt;mxCell id=&quot;gyem3hlseezmw4Tj-qo7-26&quot; value=&quot;hello.thymeleaf&quot; style=&quot;shape=mxgraph.basic.document;fontFamily=LXGW WenKai;sketch=1;curveFitting=1;jiggle=2;&quot; parent=&quot;gyem3hlseezmw4Tj-qo7-34&quot; vertex=&quot;1&quot;&gt;&#10;          &lt;mxGeometry x=&quot;306&quot; y=&quot;489&quot; width=&quot;163&quot; height=&quot;100&quot; as=&quot;geometry&quot; /&gt;&#10;        &lt;/mxCell&gt;&#10;        &lt;mxCell id=&quot;gyem3hlseezmw4Tj-qo7-18&quot; value=&quot;HelloController&quot; style=&quot;swimlane;fontStyle=1;align=center;verticalAlign=top;childLayout=stackLayout;horizontal=1;startSize=26;horizontalStack=0;resizeParent=1;resizeParentMax=0;resizeLast=0;collapsible=1;marginBottom=0;fontFamily=LXGW WenKai;sketch=1;curveFitting=1;jiggle=2;&quot; parent=&quot;gyem3hlseezmw4Tj-qo7-34&quot; vertex=&quot;1&quot;&gt;&#10;          &lt;mxGeometry x=&quot;903&quot; y=&quot;109&quot; width=&quot;160&quot; height=&quot;86&quot; as=&quot;geometry&quot; /&gt;&#10;        &lt;/mxCell&gt;&#10;        &lt;mxCell id=&quot;gyem3hlseezmw4Tj-qo7-19&quot; value=&quot;+ ...&quot; style=&quot;text;strokeColor=none;fillColor=none;align=left;verticalAlign=top;spacingLeft=4;spacingRight=4;overflow=hidden;rotatable=0;points=[[0,0.5],[1,0.5]];portConstraint=eastwest;fontFamily=LXGW WenKai;sketch=1;curveFitting=1;jiggle=2;&quot; parent=&quot;gyem3hlseezmw4Tj-qo7-18&quot; vertex=&quot;1&quot;&gt;&#10;          &lt;mxGeometry y=&quot;26&quot; width=&quot;160&quot; height=&quot;26&quot; as=&quot;geometry&quot; /&gt;&#10;        &lt;/mxCell&gt;&#10;        &lt;mxCell id=&quot;gyem3hlseezmw4Tj-qo7-20&quot; value=&quot;&quot; style=&quot;line;strokeWidth=1;fillColor=none;align=left;verticalAlign=middle;spacingTop=-1;spacingLeft=3;spacingRight=3;rotatable=0;labelPosition=right;points=[];portConstraint=eastwest;strokeColor=inherit;fontFamily=LXGW WenKai;sketch=1;curveFitting=1;jiggle=2;&quot; parent=&quot;gyem3hlseezmw4Tj-qo7-18&quot; vertex=&quot;1&quot;&gt;&#10;          &lt;mxGeometry y=&quot;52&quot; width=&quot;160&quot; height=&quot;8&quot; as=&quot;geometry&quot; /&gt;&#10;        &lt;/mxCell&gt;&#10;        &lt;mxCell id=&quot;gyem3hlseezmw4Tj-qo7-21&quot; value=&quot;+ ...&quot; style=&quot;text;strokeColor=none;fillColor=none;align=left;verticalAlign=top;spacingLeft=4;spacingRight=4;overflow=hidden;rotatable=0;points=[[0,0.5],[1,0.5]];portConstraint=eastwest;fontFamily=LXGW WenKai;sketch=1;curveFitting=1;jiggle=2;&quot; parent=&quot;gyem3hlseezmw4Tj-qo7-18&quot; vertex=&quot;1&quot;&gt;&#10;          &lt;mxGeometry y=&quot;60&quot; width=&quot;160&quot; height=&quot;26&quot; as=&quot;geometry&quot; /&gt;&#10;        &lt;/mxCell&gt;&#10;        &lt;mxCell id=&quot;gyem3hlseezmw4Tj-qo7-32&quot; value=&quot;Controller返回逻辑视图名称&quot; style=&quot;text;align=center;verticalAlign=middle;resizable=0;points=[];autosize=1;strokeColor=none;fillColor=none;fontFamily=LXGW WenKai;sketch=1;curveFitting=1;jiggle=2;&quot; parent=&quot;gyem3hlseezmw4Tj-qo7-34&quot; vertex=&quot;1&quot;&gt;&#10;          &lt;mxGeometry x=&quot;893&quot; y=&quot;81&quot; width=&quot;170&quot; height=&quot;26&quot; as=&quot;geometry&quot; /&gt;&#10;        &lt;/mxCell&gt;&#10;        &lt;mxCell id=&quot;NdV2gGG-6irBUMOK67j7-8&quot; value=&quot;视图&quot; style=&quot;text;align=center;verticalAlign=middle;resizable=0;points=[];autosize=1;strokeColor=none;fillColor=none;fontFamily=LXGW WenKai;&quot; parent=&quot;gyem3hlseezmw4Tj-qo7-34&quot; vertex=&quot;1&quot;&gt;&#10;          &lt;mxGeometry x=&quot;362&quot; y=&quot;461&quot; width=&quot;42&quot; height=&quot;26&quot; as=&quot;geometry&quot; /&gt;&#10;        &lt;/mxCell&gt;&#10;        &lt;mxCell id=&quot;NdV2gGG-6irBUMOK67j7-9&quot; value=&quot;spring mvc配置文件&quot; style=&quot;text;align=center;verticalAlign=middle;resizable=0;points=[];autosize=1;strokeColor=none;fillColor=none;fontFamily=LXGW WenKai;&quot; parent=&quot;gyem3hlseezmw4Tj-qo7-34&quot; vertex=&quot;1&quot;&gt;&#10;          &lt;mxGeometry x=&quot;643.5&quot; y=&quot;243&quot; width=&quot;128&quot; height=&quot;26&quot; as=&quot;geometry&quot; /&gt;&#10;        &lt;/mxCell&gt;&#10;        &lt;mxCell id=&quot;FLEe0FHFtyAksvvl3Y7G-5&quot; style=&quot;edgeStyle=orthogonalEdgeStyle;curved=1;rounded=0;orthogonalLoop=1;jettySize=auto;exitX=1;exitY=0.25;exitDx=0;exitDy=0;entryX=0.681;entryY=1.038;entryDx=0;entryDy=0;entryPerimeter=0;&quot; edge=&quot;1&quot; parent=&quot;gyem3hlseezmw4Tj-qo7-34&quot; source=&quot;gyem3hlseezmw4Tj-qo7-24&quot; target=&quot;gyem3hlseezmw4Tj-qo7-21&quot;&gt;&#10;          &lt;mxGeometry relative=&quot;1&quot; as=&quot;geometry&quot; /&gt;&#10;        &lt;/mxCell&gt;&#10;        &lt;mxCell id=&quot;FLEe0FHFtyAksvvl3Y7G-13&quot; value=&quot;4.通过配置文件中配置的组件扫描，&amp;#xa;找到对应Controller&quot; style=&quot;edgeLabel;align=center;verticalAlign=middle;resizable=0;points=[];&quot; vertex=&quot;1&quot; connectable=&quot;0&quot; parent=&quot;FLEe0FHFtyAksvvl3Y7G-5&quot;&gt;&#10;          &lt;mxGeometry x=&quot;-0.226&quot; y=&quot;10&quot; relative=&quot;1&quot; as=&quot;geometry&quot;&gt;&#10;            &lt;mxPoint x=&quot;16&quot; y=&quot;1&quot; as=&quot;offset&quot; /&gt;&#10;          &lt;/mxGeometry&gt;&#10;        &lt;/mxCell&gt;&#10;        &lt;mxCell id=&quot;FLEe0FHFtyAksvvl3Y7G-8&quot; style=&quot;edgeStyle=orthogonalEdgeStyle;curved=1;rounded=0;orthogonalLoop=1;jettySize=auto;exitX=0.5;exitY=1;exitDx=0;exitDy=0;entryX=1.006;entryY=0.58;entryDx=0;entryDy=0;entryPerimeter=0;&quot; edge=&quot;1&quot; parent=&quot;gyem3hlseezmw4Tj-qo7-34&quot; source=&quot;gyem3hlseezmw4Tj-qo7-24&quot; target=&quot;gyem3hlseezmw4Tj-qo7-26&quot;&gt;&#10;          &lt;mxGeometry relative=&quot;1&quot; as=&quot;geometry&quot; /&gt;&#10;        &lt;/mxCell&gt;&#10;        &lt;mxCell id=&quot;FLEe0FHFtyAksvvl3Y7G-16&quot; value=&quot;7.根据视图解析器配置，&amp;#xa;找到对应视图&quot; style=&quot;edgeLabel;align=center;verticalAlign=middle;resizable=0;points=[];&quot; vertex=&quot;1&quot; connectable=&quot;0&quot; parent=&quot;FLEe0FHFtyAksvvl3Y7G-8&quot;&gt;&#10;          &lt;mxGeometry x=&quot;-0.4114&quot; y=&quot;-32&quot; relative=&quot;1&quot; as=&quot;geometry&quot;&gt;&#10;            &lt;mxPoint as=&quot;offset&quot; /&gt;&#10;          &lt;/mxGeometry&gt;&#10;        &lt;/mxCell&gt;&#10;        &lt;mxCell id=&quot;gyem3hlseezmw4Tj-qo7-15&quot; style=&quot;edgeStyle=orthogonalEdgeStyle;curved=1;rounded=0;orthogonalLoop=1;jettySize=auto;exitX=1;exitY=0.5;exitDx=0;exitDy=0;exitPerimeter=0;entryX=0;entryY=0.5;entryDx=0;entryDy=0;fontFamily=LXGW WenKai;sketch=1;curveFitting=1;jiggle=2;&quot; parent=&quot;1&quot; source=&quot;wa0JLTWsgckLO4hLmPQc-1&quot; target=&quot;gyem3hlseezmw4Tj-qo7-8&quot; edge=&quot;1&quot;&gt;&#10;          &lt;mxGeometry relative=&quot;1&quot; as=&quot;geometry&quot; /&gt;&#10;        &lt;/mxCell&gt;&#10;        &lt;mxCell id=&quot;FLEe0FHFtyAksvvl3Y7G-10&quot; value=&quot;1&quot; style=&quot;edgeLabel;align=center;verticalAlign=middle;resizable=0;points=[];&quot; vertex=&quot;1&quot; connectable=&quot;0&quot; parent=&quot;gyem3hlseezmw4Tj-qo7-15&quot;&gt;&#10;          &lt;mxGeometry x=&quot;-0.1237&quot; y=&quot;2&quot; relative=&quot;1&quot; as=&quot;geometry&quot;&gt;&#10;            &lt;mxPoint y=&quot;1&quot; as=&quot;offset&quot; /&gt;&#10;          &lt;/mxGeometry&gt;&#10;        &lt;/mxCell&gt;&#10;        &lt;mxCell id=&quot;wa0JLTWsgckLO4hLmPQc-1&quot; value=&quot;客户端&quot; style=&quot;fontColor=#0066CC;verticalAlign=top;verticalLabelPosition=bottom;labelPosition=center;align=center;outlineConnect=0;fillColor=#CCCCCC;strokeColor=#6881B3;gradientColor=none;gradientDirection=north;strokeWidth=2;shape=mxgraph.networks.monitor;sketch=1;hachureGap=4;jiggle=2;curveFitting=1;fontFamily=LXGW WenKai;&quot; parent=&quot;1&quot; vertex=&quot;1&quot;&gt;&#10;          &lt;mxGeometry x=&quot;-485&quot; y=&quot;537&quot; width=&quot;80&quot; height=&quot;65&quot; as=&quot;geometry&quot; /&gt;&#10;        &lt;/mxCell&gt;&#10;        &lt;mxCell id=&quot;gyem3hlseezmw4Tj-qo7-16&quot; style=&quot;edgeStyle=orthogonalEdgeStyle;curved=1;rounded=0;orthogonalLoop=1;jettySize=auto;exitX=0.75;exitY=1;exitDx=0;exitDy=0;entryX=0;entryY=0.5;entryDx=0;entryDy=0;fontFamily=LXGW WenKai;sketch=1;curveFitting=1;jiggle=2;&quot; parent=&quot;1&quot; source=&quot;gyem3hlseezmw4Tj-qo7-8&quot; target=&quot;gyem3hlseezmw4Tj-qo7-10&quot; edge=&quot;1&quot;&gt;&#10;          &lt;mxGeometry relative=&quot;1&quot; as=&quot;geometry&quot; /&gt;&#10;        &lt;/mxCell&gt;&#10;        &lt;mxCell id=&quot;FLEe0FHFtyAksvvl3Y7G-11&quot; value=&quot;2&quot; style=&quot;edgeLabel;align=center;verticalAlign=middle;resizable=0;points=[];&quot; vertex=&quot;1&quot; connectable=&quot;0&quot; parent=&quot;gyem3hlseezmw4Tj-qo7-16&quot;&gt;&#10;          &lt;mxGeometry x=&quot;-0.4177&quot; y=&quot;4&quot; relative=&quot;1&quot; as=&quot;geometry&quot;&gt;&#10;            &lt;mxPoint as=&quot;offset&quot; /&gt;&#10;          &lt;/mxGeometry&gt;&#10;        &lt;/mxCell&gt;&#10;        &lt;mxCell id=&quot;gyem3hlseezmw4Tj-qo7-8&quot; value=&quot;web.xml&quot; style=&quot;fontFamily=LXGW WenKai;sketch=1;curveFitting=1;jiggle=2;&quot; parent=&quot;1&quot; vertex=&quot;1&quot;&gt;&#10;          &lt;mxGeometry x=&quot;-345&quot; y=&quot;455&quot; width=&quot;110&quot; height=&quot;50&quot; as=&quot;geometry&quot; /&gt;&#10;        &lt;/mxCell&gt;&#10;        &lt;mxCell id=&quot;FLEe0FHFtyAksvvl3Y7G-4&quot; style=&quot;edgeStyle=orthogonalEdgeStyle;curved=1;rounded=0;orthogonalLoop=1;jettySize=auto;exitX=1;exitY=0.25;exitDx=0;exitDy=0;entryX=0;entryY=0.25;entryDx=0;entryDy=0;&quot; edge=&quot;1&quot; parent=&quot;1&quot; source=&quot;gyem3hlseezmw4Tj-qo7-9&quot; target=&quot;gyem3hlseezmw4Tj-qo7-24&quot;&gt;&#10;          &lt;mxGeometry relative=&quot;1&quot; as=&quot;geometry&quot; /&gt;&#10;        &lt;/mxCell&gt;&#10;        &lt;mxCell id=&quot;FLEe0FHFtyAksvvl3Y7G-12&quot; value=&quot;3&quot; style=&quot;edgeLabel;align=center;verticalAlign=middle;resizable=0;points=[];&quot; vertex=&quot;1&quot; connectable=&quot;0&quot; parent=&quot;FLEe0FHFtyAksvvl3Y7G-4&quot;&gt;&#10;          &lt;mxGeometry x=&quot;-0.1512&quot; y=&quot;-4&quot; relative=&quot;1&quot; as=&quot;geometry&quot;&gt;&#10;            &lt;mxPoint y=&quot;1&quot; as=&quot;offset&quot; /&gt;&#10;          &lt;/mxGeometry&gt;&#10;        &lt;/mxCell&gt;&#10;        &lt;mxCell id=&quot;gyem3hlseezmw4Tj-qo7-9&quot; value=&quot;DispatcherServlet&quot; style=&quot;swimlane;fontStyle=1;align=center;verticalAlign=top;childLayout=stackLayout;horizontal=1;startSize=26;horizontalStack=0;resizeParent=1;resizeParentMax=0;resizeLast=0;collapsible=1;marginBottom=0;fontFamily=LXGW WenKai;sketch=1;curveFitting=1;jiggle=2;&quot; parent=&quot;1&quot; vertex=&quot;1&quot;&gt;&#10;          &lt;mxGeometry x=&quot;-195&quot; y=&quot;608&quot; width=&quot;160&quot; height=&quot;86&quot; as=&quot;geometry&quot; /&gt;&#10;        &lt;/mxCell&gt;&#10;        &lt;mxCell id=&quot;gyem3hlseezmw4Tj-qo7-10&quot; value=&quot;+ ...&quot; style=&quot;text;strokeColor=none;fillColor=none;align=left;verticalAlign=top;spacingLeft=4;spacingRight=4;overflow=hidden;rotatable=0;points=[[0,0.5],[1,0.5]];portConstraint=eastwest;fontFamily=LXGW WenKai;sketch=1;curveFitting=1;jiggle=2;&quot; parent=&quot;gyem3hlseezmw4Tj-qo7-9&quot; vertex=&quot;1&quot;&gt;&#10;          &lt;mxGeometry y=&quot;26&quot; width=&quot;160&quot; height=&quot;26&quot; as=&quot;geometry&quot; /&gt;&#10;        &lt;/mxCell&gt;&#10;        &lt;mxCell id=&quot;gyem3hlseezmw4Tj-qo7-11&quot; value=&quot;&quot; style=&quot;line;strokeWidth=1;fillColor=none;align=left;verticalAlign=middle;spacingTop=-1;spacingLeft=3;spacingRight=3;rotatable=0;labelPosition=right;points=[];portConstraint=eastwest;strokeColor=inherit;fontFamily=LXGW WenKai;sketch=1;curveFitting=1;jiggle=2;&quot; parent=&quot;gyem3hlseezmw4Tj-qo7-9&quot; vertex=&quot;1&quot;&gt;&#10;          &lt;mxGeometry y=&quot;52&quot; width=&quot;160&quot; height=&quot;8&quot; as=&quot;geometry&quot; /&gt;&#10;        &lt;/mxCell&gt;&#10;        &lt;mxCell id=&quot;gyem3hlseezmw4Tj-qo7-12&quot; value=&quot;+ ...&quot; style=&quot;text;strokeColor=none;fillColor=none;align=left;verticalAlign=top;spacingLeft=4;spacingRight=4;overflow=hidden;rotatable=0;points=[[0,0.5],[1,0.5]];portConstraint=eastwest;fontFamily=LXGW WenKai;sketch=1;curveFitting=1;jiggle=2;&quot; parent=&quot;gyem3hlseezmw4Tj-qo7-9&quot; vertex=&quot;1&quot;&gt;&#10;          &lt;mxGeometry y=&quot;60&quot; width=&quot;160&quot; height=&quot;26&quot; as=&quot;geometry&quot; /&gt;&#10;        &lt;/mxCell&gt;&#10;        &lt;mxCell id=&quot;gyem3hlseezmw4Tj-qo7-30&quot; value=&quot;web.xml中url-pattern配置的是 /&amp;#xa;因此所有请求都先经过DispatcherServlet&quot; style=&quot;text;align=center;verticalAlign=middle;resizable=0;points=[];autosize=1;strokeColor=none;fillColor=none;fontFamily=LXGW WenKai;sketch=1;curveFitting=1;jiggle=2;&quot; parent=&quot;1&quot; vertex=&quot;1&quot;&gt;&#10;          &lt;mxGeometry x=&quot;-402&quot; y=&quot;410&quot; width=&quot;238&quot; height=&quot;41&quot; as=&quot;geometry&quot; /&gt;&#10;        &lt;/mxCell&gt;&#10;        &lt;mxCell id=&quot;FLEe0FHFtyAksvvl3Y7G-6&quot; style=&quot;edgeStyle=orthogonalEdgeStyle;curved=1;rounded=0;orthogonalLoop=1;jettySize=auto;exitX=0;exitY=0.25;exitDx=0;exitDy=0;entryX=0.5;entryY=0;entryDx=0;entryDy=0;&quot; edge=&quot;1&quot; parent=&quot;1&quot; source=&quot;gyem3hlseezmw4Tj-qo7-18&quot; target=&quot;gyem3hlseezmw4Tj-qo7-9&quot;&gt;&#10;          &lt;mxGeometry relative=&quot;1&quot; as=&quot;geometry&quot; /&gt;&#10;        &lt;/mxCell&gt;&#10;        &lt;mxCell id=&quot;FLEe0FHFtyAksvvl3Y7G-14&quot; value=&quot;5&quot; style=&quot;edgeLabel;align=center;verticalAlign=middle;resizable=0;points=[];&quot; vertex=&quot;1&quot; connectable=&quot;0&quot; parent=&quot;FLEe0FHFtyAksvvl3Y7G-6&quot;&gt;&#10;          &lt;mxGeometry x=&quot;-0.1987&quot; y=&quot;11&quot; relative=&quot;1&quot; as=&quot;geometry&quot;&gt;&#10;            &lt;mxPoint as=&quot;offset&quot; /&gt;&#10;          &lt;/mxGeometry&gt;&#10;        &lt;/mxCell&gt;&#10;        &lt;mxCell id=&quot;FLEe0FHFtyAksvvl3Y7G-7&quot; style=&quot;edgeStyle=orthogonalEdgeStyle;curved=1;rounded=0;orthogonalLoop=1;jettySize=auto;exitX=1;exitY=0.5;exitDx=0;exitDy=0;entryX=0;entryY=0.75;entryDx=0;entryDy=0;&quot; edge=&quot;1&quot; parent=&quot;1&quot; source=&quot;gyem3hlseezmw4Tj-qo7-12&quot; target=&quot;gyem3hlseezmw4Tj-qo7-24&quot;&gt;&#10;          &lt;mxGeometry relative=&quot;1&quot; as=&quot;geometry&quot; /&gt;&#10;        &lt;/mxCell&gt;&#10;        &lt;mxCell id=&quot;FLEe0FHFtyAksvvl3Y7G-15&quot; value=&quot;6&quot; style=&quot;edgeLabel;align=center;verticalAlign=middle;resizable=0;points=[];&quot; vertex=&quot;1&quot; connectable=&quot;0&quot; parent=&quot;FLEe0FHFtyAksvvl3Y7G-7&quot;&gt;&#10;          &lt;mxGeometry x=&quot;-0.2962&quot; relative=&quot;1&quot; as=&quot;geometry&quot;&gt;&#10;            &lt;mxPoint as=&quot;offset&quot; /&gt;&#10;          &lt;/mxGeometry&gt;&#10;        &lt;/mxCell&gt;&#10;        &lt;mxCell id=&quot;FLEe0FHFtyAksvvl3Y7G-9&quot; style=&quot;edgeStyle=orthogonalEdgeStyle;curved=1;rounded=0;orthogonalLoop=1;jettySize=auto;exitX=0;exitY=0.5;exitDx=0;exitDy=0;exitPerimeter=0;&quot; edge=&quot;1&quot; parent=&quot;1&quot; source=&quot;gyem3hlseezmw4Tj-qo7-26&quot; target=&quot;wa0JLTWsgckLO4hLmPQc-1&quot;&gt;&#10;          &lt;mxGeometry relative=&quot;1&quot; as=&quot;geometry&quot; /&gt;&#10;        &lt;/mxCell&gt;&#10;        &lt;mxCell id=&quot;FLEe0FHFtyAksvvl3Y7G-19&quot; value=&quot;8&quot; style=&quot;edgeLabel;align=center;verticalAlign=middle;resizable=0;points=[];&quot; vertex=&quot;1&quot; connectable=&quot;0&quot; parent=&quot;FLEe0FHFtyAksvvl3Y7G-9&quot;&gt;&#10;          &lt;mxGeometry x=&quot;0.4453&quot; y=&quot;-23&quot; relative=&quot;1&quot; as=&quot;geometry&quot;&gt;&#10;            &lt;mxPoint as=&quot;offset&quot; /&gt;&#10;          &lt;/mxGeometry&gt;&#10;        &lt;/mxCell&gt;&#10;      &lt;/root&gt;&#10;    &lt;/mxGraphModel&gt;&#10;  &lt;/diagram&gt;&#10;&lt;/mxfile&gt;&#10;" resource="https://app.diagrams.net/#Hluguosong%2Fimages%2Fmaster%2Fdiagrams%2Fjava_serve%2Fweb_application%2Fmvc%2FSpringMVC%E6%89%A7%E8%A1%8C%E8%BF%87%E7%A8%8B.svg#%7B%22pageId%22%3A%2223iRSUPoRavnBvh4doch%22%7D" style="background-color: rgb(255, 255, 255);"><defs><clipPath id="mx-clip-907-140-152-26-0"><rect x="907" y="140" width="152" height="26"/></clipPath><clipPath id="mx-clip-907-174-152-26-0"><rect x="907" y="174" width="152" height="26"/></clipPath><clipPath id="mx-clip-311-277-152-26-0"><rect x="311" y="277" width="152" height="26"/></clipPath><clipPath id="mx-clip-311-311-152-26-0"><rect x="311" y="311" width="152" height="26"/></clipPath></defs><rect fill="#ffffff" width="100%" height="100%" x="0" y="0"/><g><g data-cell-id="0"><g data-cell-id="1"><g data-cell-id="gyem3hlseezmw4Tj-qo7-34"><g><path d="M 0 23 L 0 0 L 1087 0 L 1087 23" fill="none" stroke="none" pointer-events="all"/><path d="M 0 0 C 0 0 0 0 0 0 M 0 0 C 0 0 0 0 0 0 M -0.26 6.4 C 1.01 3.77 3.27 0.13 4.99 0.36 M -0.26 6.4 C 1.5 4.34 4.23 2 4.99 0.36 M 0.13 12.04 C 2.22 6.61 10.13 0.89 10.63 -0.03 M 0.13 12.04 C 2.04 9.26 6.05 2.92 10.63 -0.03 M -0.13 18.44 C 7.34 15.36 11.68 3.77 15.62 0.33 M -0.13 18.44 C 6.71 14.13 11.1 5.94 15.62 0.33 M 0.92 23.33 C 8.67 21.79 6.59 16.89 21.26 -0.07 M 0.92 23.33 C 9.11 15.33 13.54 9.43 21.26 -0.07 M 5.91 23.69 C 10.59 12.8 20.89 9.91 26.25 0.29 M 5.91 23.69 C 14.39 14.55 22.9 5.88 26.25 0.29 M 11.55 23.29 C 20.93 16.37 22.47 9.57 31.89 -0.1 M 11.55 23.29 C 19.24 14.31 22.68 9.53 31.89 -0.1 M 16.54 23.65 C 17.33 16.75 28.59 17.11 36.88 0.26 M 16.54 23.65 C 21.49 17.41 29.83 8.89 36.88 0.26 M 22.18 23.26 C 27.42 19.96 29.56 13.27 42.52 -0.14 M 22.18 23.26 C 26.61 19.39 33.62 12.26 42.52 -0.14 M 27.17 23.62 C 30.44 15.7 37.86 7.09 47.51 0.22 M 27.17 23.62 C 31.31 19.56 36.59 12.37 47.51 0.22 M 32.81 23.22 C 37.73 14.48 42.56 14.3 53.15 -0.17 M 32.81 23.22 C 38.85 18.74 44.9 13.41 53.15 -0.17 M 37.8 23.58 C 44.97 18.38 49.5 10.23 58.14 0.19 M 37.8 23.58 C 40.34 18.86 46.96 13.58 58.14 0.19 M 42.79 23.94 C 45.54 17.99 52.34 12.51 63.78 -0.21 M 42.79 23.94 C 48.31 17.49 54.31 7.29 63.78 -0.21 M 48.43 23.55 C 52.39 14.26 61.91 11.29 68.77 0.15 M 48.43 23.55 C 54.73 15.72 63.81 6.58 68.77 0.15 M 53.42 23.91 C 61.56 12.09 68.8 8.1 74.41 -0.24 M 53.42 23.91 C 59.92 16.35 67.95 4.56 74.41 -0.24 M 59.06 23.51 C 64.41 16.78 68.93 12.32 79.4 0.12 M 59.06 23.51 C 65.87 15.86 70.35 9.4 79.4 0.12 M 64.05 23.87 C 74.14 18.37 75.45 7.39 85.04 -0.28 M 64.05 23.87 C 69.13 16.65 77.21 9.75 85.04 -0.28 M 69.69 23.48 C 70.96 15.2 79.76 9.51 90.03 0.08 M 69.69 23.48 C 77.9 12.79 84.21 7.38 90.03 0.08 M 74.68 23.84 C 81.14 19.67 92.1 4.63 95.67 -0.31 M 74.68 23.84 C 82.88 14.69 89.6 8.26 95.67 -0.31 M 80.32 23.45 C 84.43 11.7 97.26 8.6 100.66 0.05 M 80.32 23.45 C 88.1 16.46 95.27 9.62 100.66 0.05 M 85.31 23.81 C 95.71 19.61 97.51 8.75 106.3 -0.34 M 85.31 23.81 C 92.27 15.37 98.55 10.36 106.3 -0.34 M 90.95 23.41 C 102.01 11.88 110.11 3.1 111.29 0.02 M 90.95 23.41 C 98.63 13.94 103.78 7.23 111.29 0.02 M 95.94 23.77 C 102.22 11.91 111.79 4.03 116.27 0.38 M 95.94 23.77 C 103.31 17.07 108.97 9.77 116.27 0.38 M 101.58 23.38 C 105.56 14.39 114.88 11.55 121.92 -0.02 M 101.58 23.38 C 105.65 16.15 111.18 13.16 121.92 -0.02 M 106.57 23.74 C 113.39 14.95 116.06 11.55 126.91 0.34 M 106.57 23.74 C 112.21 15.42 122.72 7.39 126.91 0.34 M 112.21 23.34 C 116.11 20.21 124.61 12.43 132.55 -0.05 M 112.21 23.34 C 118.15 16.82 129.3 8.02 132.55 -0.05 M 117.2 23.7 C 122.59 12.47 133.84 10.24 137.54 0.31 M 117.2 23.7 C 123.24 15.3 133.5 5.39 137.54 0.31 M 122.84 23.31 C 126.88 16.45 131.49 13.05 143.18 -0.09 M 122.84 23.31 C 130.29 18.01 134.21 12.09 143.18 -0.09 M 127.83 23.67 C 135.03 11.43 140.61 8.21 148.17 0.27 M 127.83 23.67 C 135.69 16.98 140.56 6.93 148.17 0.27 M 133.47 23.27 C 136.38 17.37 150.26 5.49 153.81 -0.12 M 133.47 23.27 C 140.07 13.66 147.46 5.1 153.81 -0.12 M 138.46 23.63 C 141.31 20.85 151.47 16.78 158.8 0.24 M 138.46 23.63 C 146.28 15.67 152.97 9.51 158.8 0.24 M 144.1 23.24 C 151.32 17.87 158.95 8.5 164.44 -0.16 M 144.1 23.24 C 149.36 17.91 153.49 10.92 164.44 -0.16 M 149.09 23.6 C 154.88 19.49 160.68 11.12 169.43 0.2 M 149.09 23.6 C 155.95 13.35 162.33 7.19 169.43 0.2 M 154.07 23.96 C 159.29 16.53 165.9 9.86 175.07 -0.19 M 154.07 23.96 C 157.71 20.58 164.21 12.51 175.07 -0.19 M 159.72 23.56 C 163.17 19.6 170.4 8.4 180.06 0.17 M 159.72 23.56 C 166.75 18.06 169.66 12.16 180.06 0.17 M 164.7 23.92 C 169.59 11.9 183.73 7.32 185.7 -0.23 M 164.7 23.92 C 171.11 14.18 176.86 9.87 185.7 -0.23 M 170.35 23.53 C 174.59 19.17 176.08 13.69 190.69 0.13 M 170.35 23.53 C 174.05 16.07 179.76 11.29 190.69 0.13 M 175.33 23.89 C 183.98 19.85 182.98 11.17 196.33 -0.26 M 175.33 23.89 C 182.6 18.03 189.13 9.21 196.33 -0.26 M 180.98 23.5 C 187.82 14.92 189.6 12.58 201.32 0.1 M 180.98 23.5 C 187.44 17.12 191.88 7.67 201.32 0.1 M 185.96 23.86 C 188.55 19.82 193.98 14.4 206.96 -0.3 M 185.96 23.86 C 195.28 14.03 200.4 6.43 206.96 -0.3 M 191.61 23.46 C 200.09 16.87 209.44 8.81 211.95 0.06 M 191.61 23.46 C 197.4 18.63 200.52 9.87 211.95 0.06 M 196.59 23.82 C 202.28 21.25 204.82 11.86 217.59 -0.33 M 196.59 23.82 C 200.69 16.23 207.55 9.39 217.59 -0.33 M 202.24 23.43 C 205.98 16.16 209.61 9.05 222.58 0.03 M 202.24 23.43 C 209.14 16.99 215.3 8.15 222.58 0.03 M 207.23 23.79 C 213.59 17.83 216.25 11.28 228.22 -0.36 M 207.23 23.79 C 212.72 17.8 217.35 12.86 228.22 -0.36 M 212.87 23.39 C 220.07 15.29 228.44 9.46 233.21 0 M 212.87 23.39 C 217.63 16.95 221.89 11.6 233.21 0 M 217.86 23.75 C 227.56 16.66 226.43 13.83 238.19 0.36 M 217.86 23.75 C 222.97 16.36 231.55 10.42 238.19 0.36 M 223.5 23.36 C 230.79 11.14 236.05 4.4 243.84 -0.04 M 223.5 23.36 C 229.46 15.88 238.02 4.67 243.84 -0.04 M 228.49 23.72 C 228.66 17.85 236.92 12.79 248.82 0.32 M 228.49 23.72 C 233.33 19.17 237.63 11.66 248.82 0.32 M 234.13 23.32 C 235.63 16.53 239.82 15.7 254.47 -0.07 M 234.13 23.32 C 241.88 14.53 250.27 6.31 254.47 -0.07 M 239.12 23.68 C 246.59 12.48 251.05 11.45 259.45 0.29 M 239.12 23.68 C 245.29 14.47 251.89 7.69 259.45 0.29 M 244.76 23.29 C 250.24 20.83 251.6 14.16 265.1 -0.11 M 244.76 23.29 C 248.95 18.29 254.45 10.87 265.1 -0.11 M 249.75 23.65 C 252.87 18.32 261.15 10.28 270.08 0.25 M 249.75 23.65 C 257.46 14 263.04 7.69 270.08 0.25 M 255.39 23.25 C 261.99 20.31 267.01 6.33 275.73 -0.14 M 255.39 23.25 C 259.59 19.52 263.66 12.75 275.73 -0.14 M 260.38 23.61 C 266.95 17.99 272.82 7.53 280.71 0.22 M 260.38 23.61 C 269.24 14.6 274.02 7.44 280.71 0.22 M 265.36 23.97 C 275.13 13.54 280.81 11.31 286.36 -0.18 M 265.36 23.97 C 271.59 19.51 276.31 11.18 286.36 -0.18 M 271.01 23.58 C 279.8 17.21 282.26 6.53 291.34 0.18 M 271.01 23.58 C 276.21 18.62 283.26 13.55 291.34 0.18 M 275.99 23.94 C 282.94 14.38 292.53 7 296.99 -0.21 M 275.99 23.94 C 283.18 17.36 285.01 10.29 296.99 -0.21 M 281.64 23.54 C 287.41 19.87 295.82 11.14 301.97 0.15 M 281.64 23.54 C 284.88 19.1 289.54 12.89 301.97 0.15 M 286.62 23.91 C 293.61 16.18 299.16 8.66 307.62 -0.25 M 286.62 23.91 C 291.67 16.98 298.42 13.11 307.62 -0.25 M 292.27 23.51 C 295.23 16.29 304.48 12.94 312.6 0.11 M 292.27 23.51 C 299.8 14.61 304.98 11.15 312.6 0.11 M 297.25 23.87 C 305.6 15.56 308.07 14.42 318.25 -0.28 M 297.25 23.87 C 303.83 16.38 308.82 10.73 318.25 -0.28 M 302.9 23.48 C 307.89 13.47 315.68 1.84 323.23 0.08 M 302.9 23.48 C 307.05 19.64 312.48 13.52 323.23 0.08 M 307.88 23.84 C 312.82 18.28 320.43 8.55 328.88 -0.31 M 307.88 23.84 C 315.72 14.99 322.03 7.86 328.88 -0.31 M 313.53 23.44 C 320.25 18.06 321.95 14.75 333.86 0.05 M 313.53 23.44 C 319.29 14.66 329.05 5.78 333.86 0.05 M 318.51 23.8 C 324.49 16.37 336.39 3.49 339.51 -0.35 M 318.51 23.8 C 324.65 15.78 335.58 5.73 339.51 -0.35 M 324.16 23.41 C 331.47 18.63 333.65 14.07 344.49 0.01 M 324.16 23.41 C 326.5 18.93 334.09 14.11 344.49 0.01 M 329.14 23.77 C 331.03 18.39 343.46 13.38 349.48 0.37 M 329.14 23.77 C 332.73 17.62 339.7 14.66 349.48 0.37 M 334.79 23.37 C 338.95 16.92 346.24 14.79 355.12 -0.02 M 334.79 23.37 C 339.25 17.13 347.26 11.35 355.12 -0.02 M 339.77 23.73 C 345.54 17.79 352.86 11.23 360.11 0.34 M 339.77 23.73 C 348.27 14.6 354.25 6.28 360.11 0.34 M 345.42 23.34 C 354.31 17.84 354.72 8.65 365.75 -0.06 M 345.42 23.34 C 352.57 16.06 357.81 9.39 365.75 -0.06 M 350.4 23.7 C 357.42 13.66 361.32 7.72 370.74 0.3 M 350.4 23.7 C 355.84 18.2 358.56 10.01 370.74 0.3 M 356.05 23.3 C 360.55 20.69 364.53 15.14 376.38 -0.09 M 356.05 23.3 C 364.84 13.04 369.75 6.6 376.38 -0.09 M 361.03 23.66 C 367.21 18.42 373.21 6.05 381.37 0.27 M 361.03 23.66 C 369.59 16.06 376.5 8.82 381.37 0.27 M 366.68 23.27 C 375.76 13.33 381.47 12.59 387.01 -0.13 M 366.68 23.27 C 373.01 14.26 382.97 5.14 387.01 -0.13 M 371.66 23.63 C 375.62 16.75 379.18 11.52 392 0.23 M 371.66 23.63 C 379.83 18.04 384.12 10.75 392 0.23 M 377.31 23.23 C 383.45 15.55 387.75 9.27 397.64 -0.16 M 377.31 23.23 C 385.31 14.76 391.99 4.62 397.64 -0.16 M 382.29 23.59 C 388.16 15.72 394.92 15.29 402.63 0.2 M 382.29 23.59 C 388.09 15.67 395.27 9.2 402.63 0.2 M 387.28 23.95 C 396.81 12.42 400.87 3.41 408.27 -0.2 M 387.28 23.95 C 393.36 14.98 400.34 8.04 408.27 -0.2 M 392.92 23.56 C 401.59 17.9 405.46 9.81 413.26 0.16 M 392.92 23.56 C 403.16 14.41 411.29 3.68 413.26 0.16 M 397.91 23.92 C 399.64 19.31 411.04 7.83 418.9 -0.23 M 397.91 23.92 C 404 17.14 409.3 10.33 418.9 -0.23 M 403.55 23.53 C 407.43 17.56 418.74 8.11 423.89 0.13 M 403.55 23.53 C 406.85 20.79 412.8 13.8 423.89 0.13 M 408.54 23.89 C 411.78 14.59 422.87 9.51 429.53 -0.26 M 408.54 23.89 C 414.92 19.4 421.33 10.91 429.53 -0.26 M 414.18 23.49 C 418.41 14.99 422.04 14.33 434.52 0.1 M 414.18 23.49 C 416.53 17.44 420.6 16.07 434.52 0.1 M 419.17 23.85 C 427.66 16.06 430 14.18 440.16 -0.3 M 419.17 23.85 C 424.04 19.42 429.89 11.19 440.16 -0.3 M 424.81 23.46 C 428.04 18.44 435.68 12.11 445.15 0.06 M 424.81 23.46 C 428.43 17.53 436.46 13.29 445.15 0.06 M 429.8 23.82 C 435 15.81 444.91 7.16 450.79 -0.33 M 429.8 23.82 C 438.31 14.18 443.08 5.26 450.79 -0.33 M 435.44 23.42 C 441.32 14.89 453.61 9.56 455.78 0.03 M 435.44 23.42 C 440.21 14.72 447.96 8.2 455.78 0.03 M 440.43 23.78 C 445.98 11.41 455.5 4.75 461.42 -0.37 M 440.43 23.78 C 446.44 15.13 453.75 7.92 461.42 -0.37 M 446.07 23.39 C 453.47 18.85 459.97 11.91 466.41 -0.01 M 446.07 23.39 C 452.61 13.64 460.17 7.58 466.41 -0.01 M 451.06 23.75 C 463.14 10.97 468.76 5.89 471.4 0.35 M 451.06 23.75 C 457.16 16.42 460.28 10.23 471.4 0.35 M 456.7 23.35 C 464.59 11.95 466.17 7.24 477.04 -0.04 M 456.7 23.35 C 460.64 16.77 468.63 12.87 477.04 -0.04 M 461.69 23.71 C 463.82 15.33 474.64 9.07 482.03 0.32 M 461.69 23.71 C 466.71 18.73 472.38 13.72 482.03 0.32 M 467.33 23.32 C 477.99 14.73 482.88 11.39 487.67 -0.08 M 467.33 23.32 C 473.58 17.77 477.74 8.43 487.67 -0.08 M 472.32 23.68 C 479.4 20.4 481.56 11.17 492.66 0.28 M 472.32 23.68 C 480.7 15.56 485.87 8.44 492.66 0.28 M 477.96 23.28 C 481.68 19.19 491.62 9.49 498.3 -0.11 M 477.96 23.28 C 483.84 16.91 487.13 10.64 498.3 -0.11 M 482.95 23.64 C 494.05 12.3 498.05 8.28 503.29 0.25 M 482.95 23.64 C 490.75 18.5 494.05 11.55 503.29 0.25 M 488.59 23.25 C 497.13 15.73 495.56 12.53 508.93 -0.15 M 488.59 23.25 C 494.98 15.86 498.1 9.74 508.93 -0.15 M 493.58 23.61 C 500.74 18.93 502.47 14.61 513.92 0.21 M 493.58 23.61 C 501.56 15.4 508.77 6.03 513.92 0.21 M 498.57 23.97 C 501.77 15.58 512.2 9.96 519.56 -0.18 M 498.57 23.97 C 502.42 19.64 508.14 15.93 519.56 -0.18 M 504.21 23.58 C 513.32 15.19 513.47 9.34 524.55 0.18 M 504.21 23.58 C 507.81 19.53 511.04 14.28 524.55 0.18 M 509.2 23.94 C 516.21 13.66 521.82 7.57 530.19 -0.22 M 509.2 23.94 C 516.22 16.02 519.47 11.04 530.19 -0.22 M 514.84 23.54 C 518.34 16.9 527.4 9.57 535.18 0.14 M 514.84 23.54 C 521.02 17.34 524.28 12.72 535.18 0.14 M 519.83 23.9 C 529.59 17.46 535.68 9.93 540.82 -0.25 M 519.83 23.9 C 523.2 18.26 527.66 14.76 540.82 -0.25 M 525.47 23.51 C 530.97 14.44 540.36 3.59 545.81 0.11 M 525.47 23.51 C 530.97 19.88 533.34 12.4 545.81 0.11 M 530.46 23.87 C 533.59 16.84 543.86 10.69 551.45 -0.28 M 530.46 23.87 C 538.9 16.15 543.5 7.65 551.45 -0.28 M 536.1 23.47 C 539.38 17.92 550.67 9.76 556.44 0.08 M 536.1 23.47 C 542.97 16.8 548 9.14 556.44 0.08 M 541.09 23.83 C 549.23 14.82 551.94 14.47 562.08 -0.32 M 541.09 23.83 C 549.8 12.86 556.56 5.53 562.08 -0.32 M 546.73 23.44 C 552.35 20.81 556.42 10.44 567.07 0.04 M 546.73 23.44 C 549.57 20.05 556.55 14.42 567.07 0.04 M 551.72 23.8 C 553.06 16.7 561.13 12.39 572.71 -0.35 M 551.72 23.8 C 559.84 16.81 564.56 9.6 572.71 -0.35 M 557.36 23.4 C 564.49 12.28 566.72 6.65 577.7 0.01 M 557.36 23.4 C 566.3 15.56 571.82 6.55 577.7 0.01 M 562.35 23.76 C 572.84 17.17 577.72 7.08 582.69 0.37 M 562.35 23.76 C 567.07 16.21 575.54 8.47 582.69 0.37 M 567.99 23.37 C 578.98 12.64 582.31 7.91 588.33 -0.03 M 567.99 23.37 C 575.48 13.68 584.46 7.58 588.33 -0.03 M 572.98 23.73 C 580.38 14.73 580.73 9.12 593.32 0.33 M 572.98 23.73 C 577.15 16.74 583.93 14.05 593.32 0.33 M 578.62 23.33 C 582.04 14.7 588.13 11.23 598.96 -0.06 M 578.62 23.33 C 583.38 17.89 590.61 13.62 598.96 -0.06 M 583.61 23.69 C 588.55 17.18 596.07 6.76 603.95 0.3 M 583.61 23.69 C 587.5 18.08 595.75 7.72 603.95 0.3 M 589.25 23.3 C 596.33 21.16 596.8 15.43 609.59 -0.1 M 589.25 23.3 C 594.67 17.49 600.22 6.49 609.59 -0.1 M 594.24 23.66 C 603 11.7 610.57 9 614.58 0.26 M 594.24 23.66 C 602.73 13.64 610.67 6.79 614.58 0.26 M 599.88 23.26 C 608.71 19.11 610.31 10.77 620.22 -0.13 M 599.88 23.26 C 606.24 15.84 608.59 11.04 620.22 -0.13 M 604.87 23.62 C 613.51 20.19 613.39 9.31 625.21 0.23 M 604.87 23.62 C 610.91 18.02 616.17 9.85 625.21 0.23 M 610.51 23.23 C 618.36 15.71 618.02 8.86 630.85 -0.17 M 610.51 23.23 C 616.63 19.13 620.19 13.52 630.85 -0.17 M 615.5 23.59 C 620.97 14.33 625.08 9.11 635.84 0.19 M 615.5 23.59 C 622.2 13.79 632.29 7.2 635.84 0.19 M 620.49 23.95 C 628.12 15.96 634.46 5.18 641.48 -0.2 M 620.49 23.95 C 625.41 19.58 629.96 13.68 641.48 -0.2 M 626.13 23.56 C 631.14 14.53 637.04 6.39 646.47 0.16 M 626.13 23.56 C 630.94 15.55 639.41 11.32 646.47 0.16 M 631.12 23.92 C 638.48 13.7 650.08 6.94 652.11 -0.23 M 631.12 23.92 C 636.9 16.61 640.47 11.54 652.11 -0.23 M 636.76 23.52 C 640.77 11.7 655.94 8.44 657.1 0.13 M 636.76 23.52 C 640.62 18.72 645.55 11.23 657.1 0.13 M 641.75 23.88 C 649.79 15.39 657.22 6.72 662.74 -0.27 M 641.75 23.88 C 648.68 13.76 657.42 4.93 662.74 -0.27 M 647.39 23.49 C 657.82 13.74 657.7 10.02 667.73 0.09 M 647.39 23.49 C 652.34 17.5 656.65 10.85 667.73 0.09 M 652.38 23.85 C 663.32 18.94 663.97 6.19 673.37 -0.3 M 652.38 23.85 C 658.64 16.63 665.68 12.18 673.37 -0.3 M 658.02 23.45 C 664.86 16.47 669.09 13.31 678.36 0.06 M 658.02 23.45 C 666.91 15.32 672.7 5.07 678.36 0.06 M 663.01 23.81 C 669.46 13.99 680.87 0.94 684 -0.34 M 663.01 23.81 C 667.01 20.28 674.28 13.56 684 -0.34 M 668.65 23.42 C 673.08 13.08 683.77 6.31 688.99 0.02 M 668.65 23.42 C 676.58 15.08 681.34 9.07 688.99 0.02 M 673.64 23.78 C 679.77 12.72 686.43 7.36 694.63 -0.37 M 673.64 23.78 C 680.96 19.96 686.36 10.95 694.63 -0.37 M 679.28 23.38 C 687.03 14.48 696.63 5.62 699.62 -0.01 M 679.28 23.38 C 684.82 15.67 692.02 9.75 699.62 -0.01 M 684.27 23.74 C 689.97 19.93 692.67 8 704.6 0.35 M 684.27 23.74 C 691.09 15.93 697.56 10.51 704.6 0.35 M 689.91 23.35 C 690.71 17.9 696.35 13.92 710.25 -0.05 M 689.91 23.35 C 694.28 15.48 701.54 10.25 710.25 -0.05 M 694.9 23.71 C 696.82 19.11 704.21 12.96 715.23 0.31 M 694.9 23.71 C 697.71 16.65 705.07 15.15 715.23 0.31 M 700.54 23.31 C 705.86 14.87 713.56 15.69 720.88 -0.08 M 700.54 23.31 C 706.66 18.9 712.11 13.54 720.88 -0.08 M 705.53 23.67 C 707.25 21.32 712.39 11.5 725.86 0.28 M 705.53 23.67 C 711.67 13.19 721.72 3.24 725.86 0.28 M 711.17 23.28 C 721.62 14.71 728.38 7.7 731.51 -0.12 M 711.17 23.28 C 714.34 18.97 721.04 13.93 731.51 -0.12 M 716.16 23.64 C 722.23 17.46 721.99 17.19 736.5 0.24 M 716.16 23.64 C 721.68 19 725.28 12.03 736.5 0.24 M 721.8 23.25 C 724.44 16.8 734.23 10.25 742.14 -0.15 M 721.8 23.25 C 725.34 16.25 731.58 11.75 742.14 -0.15 M 726.79 23.61 C 730.45 18.13 734.62 14.23 747.13 0.21 M 726.79 23.61 C 733.61 16.37 740.49 9.75 747.13 0.21 M 731.77 23.97 C 740.18 13.78 746.67 3.1 752.77 -0.19 M 731.77 23.97 C 738.78 16.33 742.56 11.57 752.77 -0.19 M 737.42 23.57 C 739.32 15.65 741.85 13.22 757.76 0.18 M 737.42 23.57 C 743.33 17.49 749.09 10.55 757.76 0.18 M 742.4 23.93 C 749.3 13.13 758.99 8.52 763.4 -0.22 M 742.4 23.93 C 745.29 18.82 750.2 10.32 763.4 -0.22 M 748.05 23.54 C 750.14 21.22 754.21 10.63 768.39 0.14 M 748.05 23.54 C 753.48 14.9 761.12 9.83 768.39 0.14 M 753.03 23.9 C 762.39 17.06 765.62 7.19 774.03 -0.25 M 753.03 23.9 C 758.38 18.27 762.46 10.73 774.03 -0.25 M 758.68 23.5 C 761.75 18.13 766.98 11.65 779.02 0.11 M 758.68 23.5 C 761.85 20.19 768.97 11.97 779.02 0.11 M 763.66 23.86 C 767.19 15.2 770 15.64 784.66 -0.29 M 763.66 23.86 C 770.07 17.91 775.94 10.13 784.66 -0.29 M 769.31 23.47 C 775.94 14.87 775.48 10.34 789.65 0.07 M 769.31 23.47 C 776.05 16.49 780.38 9.83 789.65 0.07 M 774.29 23.83 C 777.94 18.15 784.45 16.32 795.29 -0.32 M 774.29 23.83 C 781.88 14.99 789.21 7.33 795.29 -0.32 M 779.94 23.43 C 785.15 15.47 792.96 7.6 800.28 0.04 M 779.94 23.43 C 786.84 12.42 797.45 3.69 800.28 0.04 M 784.92 23.79 C 794.49 17.3 798.97 4.73 805.92 -0.36 M 784.92 23.79 C 794.11 15.39 801.68 4.31 805.92 -0.36 M 790.57 23.4 C 792.66 16.07 800.46 9.44 810.91 0 M 790.57 23.4 C 795.46 17.24 798.01 14.08 810.91 0 M 795.55 23.76 C 806.33 16.64 810.69 4.72 815.89 0.36 M 795.55 23.76 C 801.38 17.51 803.35 11.17 815.89 0.36 M 801.2 23.36 C 809.44 16.62 814.17 11.66 821.54 -0.03 M 801.2 23.36 C 807.98 16.11 816.39 6.67 821.54 -0.03 M 806.18 23.72 C 812.89 13.48 820.01 7.04 826.52 0.33 M 806.18 23.72 C 816.13 13.28 821.33 6.41 826.52 0.33 M 811.83 23.33 C 820.3 13.04 824.96 7.68 832.17 -0.07 M 811.83 23.33 C 815.41 19.05 820.82 10.97 832.17 -0.07 M 816.82 23.69 C 824.04 20.04 827.15 11.49 837.15 0.29 M 816.82 23.69 C 823.37 16.3 834.54 5.94 837.15 0.29 M 822.46 23.3 C 825.59 16.08 834.59 9.05 842.8 -0.1 M 822.46 23.3 C 826.53 16.81 832.92 14.42 842.8 -0.1 M 827.45 23.66 C 834.63 12.17 841.71 5.33 847.78 0.26 M 827.45 23.66 C 835.36 17.46 839.95 10.33 847.78 0.26 M 833.09 23.26 C 838.86 12.08 843.14 9.93 853.43 -0.14 M 833.09 23.26 C 842.73 13.6 848.22 5.54 853.43 -0.14 M 838.08 23.62 C 842.56 13.59 850.23 11.56 858.41 0.22 M 838.08 23.62 C 844.85 13.73 855.36 5.73 858.41 0.22 M 843.72 23.23 C 847.81 15.44 855.95 9.83 864.06 -0.17 M 843.72 23.23 C 850.34 18.12 854.31 8.01 864.06 -0.17 M 848.71 23.59 C 856.92 14.12 862.97 12.03 869.04 0.19 M 848.71 23.59 C 855.5 18.3 859.71 9.61 869.04 0.19 M 853.69 23.95 C 864.02 16.06 867.65 9.85 874.69 -0.2 M 853.69 23.95 C 860.32 13.8 869.32 7.45 874.69 -0.2 M 859.34 23.55 C 867.69 20.27 869 17.19 879.67 0.16 M 859.34 23.55 C 864.54 17.11 869.98 10.26 879.67 0.16 M 864.32 23.91 C 869.77 16.66 874.05 9.99 885.32 -0.24 M 864.32 23.91 C 868.73 19.9 874.74 13.58 885.32 -0.24 M 869.97 23.52 C 872.8 13.85 881.62 11.5 890.3 0.12 M 869.97 23.52 C 874.02 16.4 882.27 10.7 890.3 0.12 M 874.95 23.88 C 878.05 16.56 883.55 8.31 895.95 -0.27 M 874.95 23.88 C 882.66 17.32 885.71 8.82 895.95 -0.27 M 880.6 23.48 C 886.2 18.34 892.16 12.34 900.93 0.09 M 880.6 23.48 C 886.5 15.74 893.54 6.73 900.93 0.09 M 885.58 23.84 C 891.79 20.92 893.33 10.42 906.58 -0.31 M 885.58 23.84 C 891.24 16.08 897.93 8.03 906.58 -0.31 M 891.23 23.45 C 899.98 17.39 906.41 7.33 911.56 0.05 M 891.23 23.45 C 896.47 14.19 906.93 8.09 911.56 0.05 M 896.21 23.81 C 904.01 18.63 911.97 7.84 917.21 -0.34 M 896.21 23.81 C 902.47 19.2 903.46 13.21 917.21 -0.34 M 901.86 23.41 C 912.06 15.4 917.97 8.73 922.19 0.02 M 901.86 23.41 C 906.01 18.67 913.62 11.11 922.19 0.02 M 906.84 23.77 C 911.95 21.14 915.08 12.89 927.84 -0.38 M 906.84 23.77 C 914.93 15.17 920.71 6.76 927.84 -0.38 M 912.49 23.38 C 918.56 16.32 927.01 1.77 932.82 -0.02 M 912.49 23.38 C 919.07 15.71 920.99 13.5 932.82 -0.02 M 917.47 23.74 C 927.12 13.35 930.02 4.15 937.81 0.34 M 917.47 23.74 C 921.12 19.31 926.48 11.62 937.81 0.34 M 923.12 23.34 C 925.36 21.46 929.38 9.58 943.45 -0.05 M 923.12 23.34 C 929.01 15.56 934.2 8.15 943.45 -0.05 M 928.1 23.7 C 936.72 13.99 943.12 4.37 948.44 0.31 M 928.1 23.7 C 932.78 15.9 941.26 9.21 948.44 0.31 M 933.75 23.31 C 940.62 12.6 943.65 4.53 954.08 -0.09 M 933.75 23.31 C 943.26 15.2 950.74 5.08 954.08 -0.09 M 938.73 23.67 C 941.47 17.28 950.98 14.62 959.07 0.27 M 938.73 23.67 C 947.66 15.58 956.12 3.7 959.07 0.27 M 944.38 23.28 C 944.31 14.44 950.02 15.09 964.71 -0.12 M 944.38 23.28 C 947.52 19.97 954.68 14.8 964.71 -0.12 M 949.36 23.64 C 957.05 17.51 956.58 11.79 969.7 0.24 M 949.36 23.64 C 957.77 13.44 963.85 8.79 969.7 0.24 M 955.01 23.24 C 962.44 16.09 963.2 10.95 975.34 -0.15 M 955.01 23.24 C 958.81 16.15 967.98 7.82 975.34 -0.15 M 959.99 23.6 C 971.81 13.47 976.72 8.28 980.33 0.21 M 959.99 23.6 C 967.01 17.63 970.61 8.81 980.33 0.21 M 964.98 23.96 C 972.72 14.35 971.71 13.12 985.97 -0.19 M 964.98 23.96 C 967.65 16.91 974.32 12.19 985.97 -0.19 M 970.62 23.57 C 978.76 11.63 983.81 2.86 990.96 0.17 M 970.62 23.57 C 975.47 14.81 982.09 7.17 990.96 0.17 M 975.61 23.93 C 981.14 16.35 992.23 4.22 996.6 -0.22 M 975.61 23.93 C 981.53 15.31 988.55 11.32 996.6 -0.22 M 981.25 23.53 C 985.9 12.19 994.63 4.96 1001.59 0.14 M 981.25 23.53 C 987.88 15.52 993.86 10.79 1001.59 0.14 M 986.24 23.89 C 990.16 20.08 1000.11 12.66 1007.23 -0.26 M 986.24 23.89 C 993.52 13.63 1003.57 2.95 1007.23 -0.26 M 991.88 23.5 C 1001.8 12.88 1009.58 6.88 1012.22 0.1 M 991.88 23.5 C 998.2 16.85 1002.14 13.09 1012.22 0.1 M 996.87 23.86 C 1000.93 17.09 1005.93 6.3 1017.86 -0.29 M 996.87 23.86 C 1000.97 18.17 1006.7 10.88 1017.86 -0.29 M 1002.51 23.46 C 1011.92 18.37 1015.15 6.83 1022.85 0.07 M 1002.51 23.46 C 1008.17 15.27 1016.33 5.07 1022.85 0.07 M 1007.5 23.82 C 1011.53 15.4 1018.98 8.96 1028.49 -0.33 M 1007.5 23.82 C 1016.43 15.48 1021.42 8.05 1028.49 -0.33 M 1013.14 23.43 C 1023.28 18.99 1030.53 9.35 1033.48 0.03 M 1013.14 23.43 C 1019.6 16.56 1025.02 13.72 1033.48 0.03 M 1018.13 23.79 C 1023.06 13.98 1027.99 9.98 1039.12 -0.36 M 1018.13 23.79 C 1022.63 16.01 1030.95 12.4 1039.12 -0.36 M 1023.77 23.39 C 1033.94 18.37 1043.13 7.26 1044.11 0 M 1023.77 23.39 C 1027.2 18.96 1031.31 14.71 1044.11 0 M 1028.76 23.75 C 1037.51 14.03 1044.37 11.78 1049.1 0.36 M 1028.76 23.75 C 1034.12 16.33 1043.1 9.11 1049.1 0.36 M 1034.4 23.36 C 1043.46 12.95 1048.92 11.51 1054.74 -0.04 M 1034.4 23.36 C 1039.68 18.18 1043.51 15.1 1054.74 -0.04 M 1039.39 23.72 C 1042.2 17.47 1049.56 9 1059.73 0.32 M 1039.39 23.72 C 1047.7 16.9 1054.46 10.02 1059.73 0.32 M 1045.03 23.33 C 1054.32 18.29 1056.09 9.79 1065.37 -0.07 M 1045.03 23.33 C 1047.66 18.83 1053.21 13.16 1065.37 -0.07 M 1050.02 23.69 C 1051.24 20.06 1057.5 15.88 1070.36 0.29 M 1050.02 23.69 C 1054.06 19.17 1059.41 11.93 1070.36 0.29 M 1055.66 23.29 C 1062.64 14.6 1069.53 8.47 1076 -0.11 M 1055.66 23.29 C 1064.83 16.04 1070.42 6.22 1076 -0.11 M 1060.65 23.65 C 1069.6 13.33 1077.33 5.69 1080.99 0.26 M 1060.65 23.65 C 1067.24 15.54 1074.31 6.79 1080.99 0.26 M 1066.29 23.26 C 1070.51 21.91 1073.27 16.04 1086.63 -0.14 M 1066.29 23.26 C 1070.58 15.85 1076.05 10.88 1086.63 -0.14 M 1071.28 23.62 C 1076.73 16.86 1073.86 16.52 1087.68 4.75 M 1071.28 23.62 C 1078.24 16.82 1083.36 11.92 1087.68 4.75 M 1076.92 23.22 C 1076.96 19.2 1080.9 15.4 1087.42 11.15 M 1076.92 23.22 C 1080.13 19.45 1086.29 12.77 1087.42 11.15 M 1081.91 23.58 C 1082.98 22.26 1084.96 20.74 1087.16 17.54 M 1081.91 23.58 C 1084.09 21.59 1086.33 18.55 1087.16 17.54" fill="none" stroke="#f2cc8f" stroke-width="0.5" stroke-linejoin="round" stroke-linecap="round" stroke-miterlimit="10" pointer-events="all"/><path d="M 0 23 C 1.17 13.21 -1.12 9.92 0 0 M 0 23 C -1.44 17.75 -1.52 10.39 0 0 M 0 0 C 249.34 -4.34 499.59 -6.39 1087 0 M 0 0 C 236.34 1.09 472.68 2.15 1087 0 M 1087 0 C 1083.55 4.5 1083.05 14.3 1087 23 M 1087 0 C 1087.79 8.86 1087.76 18.48 1087 23" fill="none" stroke="#e07a5f" stroke-linejoin="round" stroke-linecap="round" stroke-miterlimit="10" pointer-events="all"/><path d="M 0 23 C 3.83 182.79 2.91 345.19 0 608 M 0 23 C -0.81 182 -0.84 340.15 0 608 M 0 608 C 249.34 603.66 499.59 601.61 1087 608 M 0 608 C 236.34 609.09 472.68 610.15 1087 608 M 1087 608 C 1089.01 434.07 1088.82 262.27 1087 23 M 1087 608 C 1084.35 394.96 1084.34 182.23 1087 23" fill="none" stroke="#e07a5f" stroke-linejoin="round" stroke-linecap="round" stroke-miterlimit="10" pointer-events="none"/><path d="M 0 23 C 300.08 26.35 598.64 27.57 1087 23 M 0 23 C 294.12 25.25 588.79 24.79 1087 23" fill="none" stroke="#e07a5f" stroke-linejoin="round" stroke-linecap="round" stroke-miterlimit="10" pointer-events="none"/></g><g><g fill="#393C56" font-family="&quot;LXGW WenKai&quot;" font-weight="bold" text-anchor="middle" font-size="15px"><text x="543" y="17.5">Spring MVC执行流程</text></g></g><g data-cell-id="gyem3hlseezmw4Tj-qo7-24"><g><rect x="625" y="269" width="165" height="50" fill="none" stroke="none" pointer-events="all"/><path d="M 623.57 270.32 L 786.2 268.76 L 787.24 321.69 L 625.21 320.1" fill="rgb(255, 255, 255)" stroke="none" pointer-events="all"/><path d="M 625 269 C 670.77 265.21 714.9 271.9 790 269 M 625 269 C 664.86 271.76 702.59 271.1 790 269 M 790 269 C 787.88 282.94 787.13 305.56 790 319 M 790 269 C 789.89 288.98 790.57 308.39 790 319 M 790 319 C 745 316 694.25 314.07 625 319 M 790 319 C 740.61 315.89 692.23 314.1 625 319 M 625 319 C 627.76 305.19 622.47 283.22 625 269 M 625 319 C 626.32 301.85 625.22 285.01 625 269" fill="none" stroke="rgb(0, 0, 0)" stroke-linejoin="round" stroke-linecap="round" stroke-miterlimit="10" pointer-events="all"/></g><g><g fill="rgb(0, 0, 0)" font-family="&quot;LXGW WenKai&quot;" text-anchor="middle" font-size="12px"><text x="707" y="298.5">springmvc-servlet.xml</text></g></g></g><g data-cell-id="gyem3hlseezmw4Tj-qo7-26"><g><path d="M 467.35 503.29 L 467.35 589 L 306 589 L 306 489 L 444.3 489 Z" fill="none" stroke="none" pointer-events="all"/><path d="M 444.3 489 C 446.18 492.34 443.09 495.79 436.07 498.18 L 467.35 503.59" fill="none" stroke="none" pointer-events="all"/><path d="M 467.35 503.29 C 462.29 522.72 467.01 539.36 467.35 589 C 422.31 580.38 375.75 581.64 306 589 C 311.43 562.36 308.41 527.94 306 489 C 345.41 487.94 387.83 491.53 444.3 489 C 452.66 495.42 455.61 496.59 467.35 503.29" fill="rgb(255, 255, 255)" stroke="none" pointer-events="all"/><path d="M 467.35 503.29 C 470.7 527.53 464.68 550.63 467.35 589 M 467.35 503.29 C 468.58 536.75 469.12 569.81 467.35 589 M 467.35 589 C 437.22 589.56 397.84 589.8 306 589 M 467.35 589 C 414.51 589.49 360.86 588.85 306 589 M 306 589 C 305.54 563.93 302.36 546.81 306 489 M 306 589 C 304.52 551.55 305.12 511.5 306 489 M 306 489 C 339.77 491.36 366.45 485.34 444.3 489 M 306 489 C 339.73 490.91 373.34 490.59 444.3 489 M 444.3 489 C 448.07 489.02 451.25 494.16 467.35 503.29 M 444.3 489 C 450.65 492.97 457.86 498.46 467.35 503.29" fill="none" stroke="rgb(0, 0, 0)" stroke-linejoin="round" stroke-linecap="round" stroke-miterlimit="10" pointer-events="all"/><path d="M 444.3 489 C 445.2 491.38 445.41 499.56 436.07 498.18 M 444.3 489 C 446.91 489.75 443.24 499.62 436.07 498.18 M 436.07 498.18 C 446.82 502.87 456.76 497.55 467.35 503.59 M 436.07 498.18 C 447.44 499.04 460.04 502.56 467.35 503.59" fill="none" stroke="rgb(0, 0, 0)" stroke-linejoin="round" stroke-linecap="round" stroke-miterlimit="10" pointer-events="all"/></g><g><g fill="rgb(0, 0, 0)" font-family="&quot;LXGW WenKai&quot;" text-anchor="middle" font-size="12px"><text x="387" y="543.5">hello.thymeleaf</text></g></g></g><g data-cell-id="gyem3hlseezmw4Tj-qo7-18"><g><path d="M 903 135 L 903 109 L 1063 109 L 1063 135" fill="none" stroke="none" pointer-events="all"/><path d="M 903 135 C 904.87 120.77 902.15 113.61 903 109 C 940.65 107.46 986.34 110 1063 109 C 1067.77 118.13 1066.25 117.17 1063 135" fill="rgb(255, 255, 255)" stroke="none" pointer-events="all"/><path d="M 903 135 C 900.62 124.58 898.86 121.35 903 109 M 903 135 C 902.71 127.54 903.88 121.42 903 109 M 903 109 C 967.31 111.2 1026.84 108.78 1063 109 M 903 109 C 945 108.44 981.39 108.49 1063 109 M 1063 109 C 1066.24 120.07 1060.37 125.72 1063 135 M 1063 109 C 1063.09 119.44 1064.33 127.92 1063 135" fill="none" stroke="rgb(0, 0, 0)" stroke-linejoin="round" stroke-linecap="round" stroke-miterlimit="10" pointer-events="all"/><path d="M 903 135 C 902.04 148.25 900.28 168.7 903 195 M 903 135 C 902.93 152.95 904.1 172.24 903 195 M 903 195 C 967.31 197.2 1026.84 194.78 1063 195 M 903 195 C 945 194.44 981.39 194.49 1063 195 M 1063 195 C 1067.31 177.86 1061.44 155.31 1063 135 M 1063 195 C 1064.22 171.75 1065.46 146.53 1063 135" fill="none" stroke="rgb(0, 0, 0)" stroke-linejoin="round" stroke-linecap="round" stroke-miterlimit="10" pointer-events="none"/><path d="M 903 135 C 945.09 132.69 987.37 136.62 1063 135 M 903 135 C 950.06 132.66 998.49 134.22 1063 135" fill="none" stroke="rgb(0, 0, 0)" stroke-linejoin="round" stroke-linecap="round" stroke-miterlimit="10" pointer-events="none"/></g><g><g fill="rgb(0, 0, 0)" font-family="&quot;LXGW WenKai&quot;" font-weight="bold" text-anchor="middle" font-size="12px"><text x="982.5" y="126.5">HelloController</text></g></g><g data-cell-id="gyem3hlseezmw4Tj-qo7-19"><g><rect x="903" y="135" width="160" height="26" fill="none" stroke="none" pointer-events="all"/></g><g><g fill="rgb(0, 0, 0)" font-family="&quot;LXGW WenKai&quot;" clip-path="url(#mx-clip-907-140-152-26-0)" font-size="12px"><text x="908.5" y="152.5">+ ...</text></g></g></g><g data-cell-id="gyem3hlseezmw4Tj-qo7-20"><g><path d="M 903 165 L 1063 165" fill="none" stroke="none" pointer-events="all"/><path d="M 903 165 C 948.54 164.11 992.69 169.21 1063 165 M 903 165 C 958.02 160.88 1015.87 162.48 1063 165" fill="none" stroke="rgb(0, 0, 0)" stroke-linejoin="round" stroke-linecap="round" stroke-miterlimit="10" pointer-events="all"/></g></g><g data-cell-id="gyem3hlseezmw4Tj-qo7-21"><g><rect x="903" y="169" width="160" height="26" fill="none" stroke="none" pointer-events="all"/></g><g><g fill="rgb(0, 0, 0)" font-family="&quot;LXGW WenKai&quot;" clip-path="url(#mx-clip-907-174-152-26-0)" font-size="12px"><text x="908.5" y="186.5">+ ...</text></g></g></g></g><g data-cell-id="gyem3hlseezmw4Tj-qo7-32"><g><rect x="893" y="81" width="170" height="26" fill="none" stroke="none" pointer-events="all"/></g><g><g fill="rgb(0, 0, 0)" font-family="&quot;LXGW WenKai&quot;" text-anchor="middle" font-size="12px"><text x="977.5" y="98.5">Controller返回逻辑视图名称</text></g></g></g><g data-cell-id="NdV2gGG-6irBUMOK67j7-8"><g><rect x="362" y="461" width="42" height="26" fill="none" stroke="none" pointer-events="all"/></g><g><g fill="rgb(0, 0, 0)" font-family="&quot;LXGW WenKai&quot;" text-anchor="middle" font-size="12px"><text x="382.5" y="478.5">视图</text></g></g></g><g data-cell-id="NdV2gGG-6irBUMOK67j7-9"><g><rect x="643.5" y="243" width="128" height="26" fill="none" stroke="none" pointer-events="all"/></g><g><g fill="rgb(0, 0, 0)" font-family="&quot;LXGW WenKai&quot;" text-anchor="middle" font-size="12px"><text x="707" y="260.5">spring mvc配置文件</text></g></g></g><g data-cell-id="FLEe0FHFtyAksvvl3Y7G-5"><g><path d="M 790 281.5 Q 1012 281.5 1011.96 202.36" fill="none" stroke="rgb(0, 0, 0)" stroke-miterlimit="10" pointer-events="stroke"/><path d="M 1011.96 197.11 L 1015.46 204.1 L 1011.96 202.36 L 1008.46 204.11 Z" fill="rgb(0, 0, 0)" stroke="rgb(0, 0, 0)" stroke-miterlimit="10" pointer-events="all"/></g><g data-cell-id="FLEe0FHFtyAksvvl3Y7G-13"><g><g fill="rgb(0, 0, 0)" font-family="&quot;Helvetica&quot;" text-anchor="middle" font-size="11px"><rect fill="rgb(255, 255, 255)" stroke="none" x="838" y="261" width="176" height="27" stroke-width="0"/><text x="925" y="270.5">4.通过配置文件中配置的组件扫描，</text><text x="925" y="283.5">找到对应Controller</text></g></g></g></g><g data-cell-id="FLEe0FHFtyAksvvl3Y7G-8"><g><path d="M 707.5 319 Q 707.5 547 476.35 547" fill="none" stroke="rgb(0, 0, 0)" stroke-miterlimit="10" pointer-events="stroke"/><path d="M 471.1 547 L 478.1 543.5 L 476.35 547 L 478.1 550.5 Z" fill="rgb(0, 0, 0)" stroke="rgb(0, 0, 0)" stroke-miterlimit="10" pointer-events="all"/></g><g data-cell-id="FLEe0FHFtyAksvvl3Y7G-16"><g><g fill="rgb(0, 0, 0)" font-family="&quot;Helvetica&quot;" text-anchor="middle" font-size="11px"><rect fill="rgb(255, 255, 255)" stroke="none" x="616" y="444" width="121" height="27" stroke-width="0"/><text x="675.5" y="454">7.根据视图解析器配置，</text><text x="675.5" y="467">找到对应视图</text></g></g></g></g></g><g data-cell-id="gyem3hlseezmw4Tj-qo7-15"><g><path d="M 97 207.5 Q 127 207.5 127 162.75 Q 127 118 150.63 118" fill="none" stroke="none" pointer-events="stroke"/><path d="M 155.88 118 L 148.88 121.5 L 150.63 118 L 148.88 114.5 Z" fill="none" stroke="none" pointer-events="all"/><path d="M 97 207.5 C 116.01 208.77 127.38 189.49 127 162.75 M 97 207.5 C 120.39 210.04 124.34 191.64 127 162.75 M 127 162.75 C 125.89 136.88 136.08 115.88 150.63 118 M 127 162.75 C 127.72 135.65 134.27 120.4 150.63 118" fill="none" stroke="rgb(0, 0, 0)" stroke-linejoin="round" stroke-linecap="round" stroke-miterlimit="10" pointer-events="stroke"/><path d="M 148.66 114.76 C 148.66 114.76 148.66 114.76 148.66 114.76 M 148.66 114.76 C 148.66 114.76 148.66 114.76 148.66 114.76 M 151.02 118.14 C 151.7 118.02 151.81 117.19 152.33 116.63 M 151.02 118.14 C 151.21 117.54 151.8 117.45 152.33 116.63" fill="none" stroke="rgb(0, 0, 0)" stroke-width="0.5" stroke-linejoin="round" stroke-linecap="round" stroke-miterlimit="10" pointer-events="all"/><path d="M 155.88 118 C 152.76 120.13 152.91 119.04 148.88 121.5 M 155.88 118 C 154.14 118.7 152.07 120.56 148.88 121.5 M 148.88 121.5 C 150.09 120.96 149.73 119.48 150.63 118 M 148.88 121.5 C 149.12 120.07 150.24 119.2 150.63 118 M 150.63 118 C 150.07 117.88 149.31 116.27 148.88 114.5 M 150.63 118 C 150.39 116.91 149.74 116.16 148.88 114.5 M 148.88 114.5 C 152.09 114.23 152.28 117.78 155.88 118 M 148.88 114.5 C 151.42 116.23 154.56 116.78 155.88 118" fill="none" stroke="rgb(0, 0, 0)" stroke-linejoin="round" stroke-linecap="round" stroke-miterlimit="10" pointer-events="all"/></g><g data-cell-id="FLEe0FHFtyAksvvl3Y7G-10"><g><g fill="rgb(0, 0, 0)" font-family="&quot;Helvetica&quot;" text-anchor="middle" font-size="11px"><rect fill="rgb(255, 255, 255)" stroke="none" x="122" y="167" width="8" height="14" stroke-width="0"/><text x="125" y="177">1</text></g></g></g></g><g data-cell-id="wa0JLTWsgckLO4hLmPQc-1"><g><rect x="17" y="175" width="80" height="46.06" fill="none" stroke="none" pointer-events="all"/><path d="M 41.5 233.04 L 72.4 233.04 L 78.5 240 L 35.5 240 Z" fill="none" stroke="none" pointer-events="all"/><rect x="47" y="221.06" width="20" height="15.35" fill="none" stroke="none" pointer-events="all"/><rect x="20" y="178.07" width="73" height="39.92" fill="none" stroke="none" pointer-events="all"/><path d="M 16.89 175.12 C 16.89 175.12 16.89 175.12 16.89 175.12 M 16.89 175.12 C 16.89 175.12 16.89 175.12 16.89 175.12 M 17.29 180.76 C 18.52 179.34 21.22 178.5 22.54 174.73 M 17.29 180.76 C 19.41 179.18 19.31 177.83 22.54 174.73 M 17.03 187.16 C 19.54 185.81 21.15 178.11 27.52 175.09 M 17.03 187.16 C 20.36 183.21 20.44 182.7 27.52 175.09 M 16.77 193.56 C 19.42 189.79 26.24 181.44 33.17 174.69 M 16.77 193.56 C 23.61 186.65 29.46 182.51 33.17 174.69 M 17.16 199.2 C 22.84 190.35 31.83 181.12 38.15 175.05 M 17.16 199.2 C 24.63 191.31 33.23 182.04 38.15 175.05 M 16.9 205.6 C 23.21 190.86 34.11 184.18 43.8 174.66 M 16.9 205.6 C 22.12 197.27 29.87 194.03 43.8 174.66 M 17.29 211.24 C 25.25 201.64 34.93 197.89 48.78 175.02 M 17.29 211.24 C 28.53 200.01 40.56 183.37 48.78 175.02 M 17.03 217.64 C 31.62 200.88 46.57 188.81 54.43 174.62 M 17.03 217.64 C 30.77 203.05 41.38 189.97 54.43 174.62 M 18.74 221.78 C 30.09 210.14 39.29 199.39 59.41 174.98 M 18.74 221.78 C 31.97 207.51 44.18 193.42 59.41 174.98 M 24.38 221.38 C 34.05 211.12 44.52 191.5 64.4 175.34 M 24.38 221.38 C 38.58 206.64 52.63 193.36 64.4 175.34 M 29.37 221.74 C 45.36 208.18 53.11 198.04 70.04 174.95 M 29.37 221.74 C 36.64 211.05 43.81 201.84 70.04 174.95 M 35.01 221.35 C 46.21 212.84 50.92 203.51 75.03 175.31 M 35.01 221.35 C 49.46 203.24 64.75 186.93 75.03 175.31 M 40 221.71 C 50.05 202.57 66.67 193.22 80.67 174.91 M 40 221.71 C 48.94 211.48 58.18 201.42 80.67 174.91 M 45.64 221.31 C 54.11 210.79 66.19 194.59 85.66 175.27 M 45.64 221.31 C 58.16 208.46 65.91 195.98 85.66 175.27 M 50.63 221.67 C 64.22 201.43 85.75 187.41 91.31 174.88 M 50.63 221.67 C 66.88 205.45 81.61 186.6 91.31 174.88 M 56.27 221.28 C 72.03 208.05 78.52 190.5 96.29 175.24 M 56.27 221.28 C 65.14 211.59 72.64 202.65 96.29 175.24 M 61.26 221.64 C 72.92 215.38 80.31 203.7 97.34 180.13 M 61.26 221.64 C 70.75 213.24 76.88 203.91 97.34 180.13 M 66.9 221.24 C 73.89 213.39 81.84 201 97.74 185.77 M 66.9 221.24 C 77.72 210.16 88.4 193.84 97.74 185.77 M 71.89 221.6 C 75.92 210.74 83.95 208.28 97.48 192.17 M 71.89 221.6 C 78.55 211.93 87.89 203.37 97.48 192.17 M 77.53 221.21 C 84.19 216.39 86.3 208.88 97.21 198.57 M 77.53 221.21 C 83.45 212.98 88.43 210.65 97.21 198.57 M 82.52 221.57 C 85.3 217.12 96.14 208.38 97.61 204.21 M 82.52 221.57 C 87.92 217.05 88.46 212.25 97.61 204.21 M 87.51 221.93 C 88.17 218.68 95.61 215.46 97.35 210.61 M 87.51 221.93 C 89.91 217.47 92.93 217.09 97.35 210.61 M 93.15 221.53 C 93.39 218.9 97.31 216.77 97.74 216.25 M 93.15 221.53 C 94.43 220.16 95.33 218.62 97.74 216.25" fill="none" stroke="#cccccc" stroke-linejoin="round" stroke-linecap="round" stroke-miterlimit="10" pointer-events="all"/><path d="M 17 175 C 47.82 174.2 76.19 170.83 97 175 M 17 175 C 41.48 172.51 66.29 173.49 97 175 M 97 175 C 100.91 192.59 96.37 214.84 97 221.06 M 97 175 C 97.29 189.8 99.14 206.77 97 221.06 M 97 221.06 C 68.85 221.95 37.85 219.27 17 221.06 M 97 221.06 C 67.9 221.65 40.4 223.4 17 221.06 M 17 221.06 C 20.39 200.91 20.51 185.99 17 175 M 17 221.06 C 15.97 209.27 14.4 198.34 17 175" fill="none" stroke="#6881b3" stroke-width="2" stroke-linejoin="round" stroke-linecap="round" stroke-miterlimit="10" pointer-events="all"/><path d="M 41.22 233.37 C 41.22 233.37 41.22 233.37 41.22 233.37 M 41.22 233.37 C 41.22 233.37 41.22 233.37 41.22 233.37 M 40.3 240.52 C 41.84 238.73 45.22 237.69 46.86 232.97 M 40.3 240.52 C 42.95 238.54 42.83 236.85 46.86 232.97 M 45.29 240.88 C 46.86 240.04 47.86 235.22 51.85 233.33 M 45.29 240.88 C 47.37 238.4 47.42 238.09 51.85 233.33 M 50.93 240.48 C 51.74 239.23 54.62 235.66 57.49 232.94 M 50.93 240.48 C 53.81 237.66 56.18 236.22 57.49 232.94 M 55.92 240.84 C 57.5 237.75 60.82 234.49 62.48 233.3 M 55.92 240.84 C 58.19 238.55 61.11 235.5 62.48 233.3 M 61.56 240.45 C 62.18 236.12 64.94 235.88 68.12 232.9 M 61.56 240.45 C 62.71 238.02 65.1 238.11 68.12 232.9 M 66.55 240.81 C 68.44 238.54 71.16 239.11 73.11 233.26 M 66.55 240.81 C 68.71 239.04 71.33 234.63 73.11 233.26 M 72.19 240.41 C 73.59 238.62 75.14 238.11 75.47 236.64 M 72.19 240.41 C 73.62 239.19 74.21 238.3 75.47 236.64 M 77.18 240.77 C 77.62 240.33 77.88 240.01 78.49 239.27 M 77.18 240.77 C 77.58 240.36 77.92 239.95 78.49 239.27" fill="none" stroke="#cccccc" stroke-linejoin="round" stroke-linecap="round" stroke-miterlimit="10" pointer-events="all"/><path d="M 41.5 233.04 C 52.95 233.03 61.95 229.65 72.4 233.04 M 41.5 233.04 C 50.6 231.17 60.02 232.15 72.4 233.04 M 72.4 233.04 C 76.46 235.52 76.78 240.11 78.5 240 M 72.4 233.04 C 74.4 234.87 77.38 237.73 78.5 240 M 78.5 240 C 64.52 241.23 47.7 238.56 35.5 240 M 78.5 240 C 62.32 239.97 47.75 241.72 35.5 240 M 35.5 240 C 39.29 235.9 41.49 234.12 41.5 233.04 M 35.5 240 C 36.74 238.17 37.54 236.75 41.5 233.04" fill="none" stroke="#6881b3" stroke-width="2" stroke-linejoin="round" stroke-linecap="round" stroke-miterlimit="10" pointer-events="all"/><path d="M 46.95 221.12 C 46.95 221.12 46.95 221.12 46.95 221.12 M 46.95 221.12 C 46.95 221.12 46.95 221.12 46.95 221.12 M 46.69 227.52 C 48.07 225.91 51.11 224.97 52.59 220.73 M 46.69 227.52 C 49.08 225.74 48.96 224.22 52.59 220.73 M 47.08 233.16 C 49.6 231.82 51.2 224.11 57.58 221.09 M 47.08 233.16 C 50.42 229.21 50.5 228.7 57.58 221.09 M 48.79 237.3 C 50.82 234.28 57 226.66 63.22 220.69 M 48.79 237.3 C 54.98 231.14 60.17 227.75 63.22 220.69 M 54.43 236.9 C 57.59 230.72 64.23 224.2 67.55 221.81 M 54.43 236.9 C 58.99 232.32 64.82 226.22 67.55 221.81 M 59.42 237.26 C 60.22 231.64 63.81 231.32 67.95 227.45 M 59.42 237.26 C 60.91 234.11 64.02 234.22 67.95 227.45 M 65.06 236.87 C 65.82 235.96 66.91 236.19 67.69 233.85 M 65.06 236.87 C 65.93 236.16 66.97 234.4 67.69 233.85" fill="none" stroke="#cccccc" stroke-linejoin="round" stroke-linecap="round" stroke-miterlimit="10" pointer-events="all"/><path d="M 47 221.06 C 54.15 221.23 58.85 217.85 67 221.06 M 47 221.06 C 52.68 219.33 58.69 220.32 67 221.06 M 67 221.06 C 69.76 226.62 66.27 235.75 67 236.42 M 67 221.06 C 66.87 225.47 68.29 231.54 67 236.42 M 67 236.42 C 61.83 237.87 53.83 235.19 47 236.42 M 67 236.42 C 58.86 236.01 52.32 237.76 47 236.42 M 47 236.42 C 49.73 228.09 49.82 223.8 47 221.06 M 47 236.42 C 46.48 232.43 45.27 229.12 47 221.06" fill="none" stroke="#6881b3" stroke-width="2" stroke-linejoin="round" stroke-linecap="round" stroke-miterlimit="10" pointer-events="all"/><path d="M 19.51 177.5 L 91.29 180 L 89.57 214.48 L 18.97 215.86" fill="#ffffff" stroke="none" pointer-events="all"/></g><g><g fill="#0066CC" font-family="&quot;LXGW WenKai&quot;" text-anchor="middle" font-size="12px"><text x="56.5" y="257.5">客户端</text></g></g></g><g data-cell-id="gyem3hlseezmw4Tj-qo7-16"><g><path d="M 239.5 143 Q 239.5 285 300.63 285" fill="none" stroke="none" pointer-events="stroke"/><path d="M 305.88 285 L 298.88 288.5 L 300.63 285 L 298.88 281.5 Z" fill="none" stroke="none" pointer-events="all"/><path d="M 239.5 143 C 238.51 239.61 257.06 287.62 300.63 285 M 239.5 143 C 240.51 234.87 255.29 287.37 300.63 285" fill="none" stroke="rgb(0, 0, 0)" stroke-linejoin="round" stroke-linecap="round" stroke-miterlimit="10" pointer-events="stroke"/><path d="M 299.07 281.28 C 299.07 281.28 299.07 281.28 299.07 281.28 M 299.07 281.28 C 299.07 281.28 299.07 281.28 299.07 281.28 M 300.77 285.42 C 301.17 284.96 302.05 283.99 302.74 283.15 M 300.77 285.42 C 300.97 284.63 301.88 284.14 302.74 283.15" fill="none" stroke="rgb(0, 0, 0)" stroke-width="0.5" stroke-linejoin="round" stroke-linecap="round" stroke-miterlimit="10" pointer-events="all"/><path d="M 305.88 285 C 305.01 286.21 301.11 285.27 298.88 288.5 M 305.88 285 C 303.02 285.93 301.68 287.42 298.88 288.5 M 298.88 288.5 C 300.05 287.14 299.31 286.59 300.63 285 M 298.88 288.5 C 299.54 287.12 300.19 286.25 300.63 285 M 300.63 285 C 299.91 283.9 299.99 283.01 298.88 281.5 M 300.63 285 C 299.93 283.83 299.61 282.5 298.88 281.5 M 298.88 281.5 C 300.47 280.99 303.79 282.61 305.88 285 M 298.88 281.5 C 301.5 282.97 304.43 283.23 305.88 285" fill="none" stroke="rgb(0, 0, 0)" stroke-linejoin="round" stroke-linecap="round" stroke-miterlimit="10" pointer-events="all"/></g><g data-cell-id="FLEe0FHFtyAksvvl3Y7G-11"><g><g fill="rgb(0, 0, 0)" font-family="&quot;Helvetica&quot;" text-anchor="middle" font-size="11px"><rect fill="rgb(255, 255, 255)" stroke="none" x="241" y="199" width="8" height="14" stroke-width="0"/><text x="243.5" y="208.5">2</text></g></g></g></g><g data-cell-id="gyem3hlseezmw4Tj-qo7-8"><g><rect x="157" y="93" width="110" height="50" fill="none" stroke="none" pointer-events="all"/><path d="M 153.11 90.89 L 270.95 90.77 L 270.29 141.2 L 157.09 146.77" fill="rgb(255, 255, 255)" stroke="none" pointer-events="all"/><path d="M 157 93 C 192.63 97.6 232.03 93.34 267 93 M 157 93 C 191.01 92.87 228.37 94.35 267 93 M 267 93 C 269.05 109.63 270.79 127.72 267 143 M 267 93 C 268.24 111.46 266.73 129.5 267 143 M 267 143 C 240.25 147.54 208.33 147.01 157 143 M 267 143 C 243.41 140.95 218.35 141.08 157 143 M 157 143 C 154.4 124.41 160.88 104.86 157 93 M 157 143 C 156.99 133.06 157.49 118.97 157 93" fill="none" stroke="rgb(0, 0, 0)" stroke-linejoin="round" stroke-linecap="round" stroke-miterlimit="10" pointer-events="all"/></g><g><g fill="rgb(0, 0, 0)" font-family="&quot;LXGW WenKai&quot;" text-anchor="middle" font-size="12px"><text x="211.5" y="122.5">web.xml</text></g></g></g><g data-cell-id="FLEe0FHFtyAksvvl3Y7G-4"><g><path d="M 467 267.5 Q 546 267.5 546 274.5 Q 546 281.5 618.63 281.5" fill="none" stroke="rgb(0, 0, 0)" stroke-miterlimit="10" pointer-events="stroke"/><path d="M 623.88 281.5 L 616.88 285 L 618.63 281.5 L 616.88 278 Z" fill="rgb(0, 0, 0)" stroke="rgb(0, 0, 0)" stroke-miterlimit="10" pointer-events="all"/></g><g data-cell-id="FLEe0FHFtyAksvvl3Y7G-12"><g><g fill="rgb(0, 0, 0)" font-family="&quot;Helvetica&quot;" text-anchor="middle" font-size="11px"><rect fill="rgb(255, 255, 255)" stroke="none" x="537" y="267" width="8" height="14" stroke-width="0"/><text x="540" y="277">3</text></g></g></g></g><g data-cell-id="gyem3hlseezmw4Tj-qo7-9"><g><path d="M 307 272 L 307 246 L 467 246 L 467 272" fill="none" stroke="none" pointer-events="all"/><path d="M 307 272 C 310.69 264.19 310.05 260.16 307 246 C 370.6 248.26 434.58 240.66 467 246 C 469.09 251.78 471.98 259.5 467 272" fill="rgb(255, 255, 255)" stroke="none" pointer-events="all"/><path d="M 307 272 C 308.85 264.48 306.6 251.33 307 246 M 307 272 C 307.28 260.97 308 250.55 307 246 M 307 246 C 370.76 251.06 432.87 248.66 467 246 M 307 246 C 361.78 247.77 417.32 246.87 467 246 M 467 246 C 468.65 249.56 470.25 258.02 467 272 M 467 246 C 466.16 252.85 467.91 261.67 467 272" fill="none" stroke="rgb(0, 0, 0)" stroke-linejoin="round" stroke-linecap="round" stroke-miterlimit="10" pointer-events="all"/><path d="M 307 272 C 309.48 295.21 307.23 312.79 307 332 M 307 272 C 308.39 295.14 309.11 318.9 307 332 M 307 332 C 370.76 337.06 432.87 334.66 467 332 M 307 332 C 361.78 333.77 417.32 332.87 467 332 M 467 332 C 468.47 315.75 470.07 304.41 467 272 M 467 332 C 467.8 315.97 469.55 301.92 467 272" fill="none" stroke="rgb(0, 0, 0)" stroke-linejoin="round" stroke-linecap="round" stroke-miterlimit="10" pointer-events="none"/><path d="M 307 272 C 366.21 271.02 421.12 267.17 467 272 M 307 272 C 371.19 270.82 435.49 270.74 467 272" fill="none" stroke="rgb(0, 0, 0)" stroke-linejoin="round" stroke-linecap="round" stroke-miterlimit="10" pointer-events="none"/></g><g><g fill="rgb(0, 0, 0)" font-family="&quot;LXGW WenKai&quot;" font-weight="bold" text-anchor="middle" font-size="12px"><text x="386.5" y="263.5">DispatcherServlet</text></g></g><g data-cell-id="gyem3hlseezmw4Tj-qo7-10"><g><rect x="307" y="272" width="160" height="26" fill="none" stroke="none" pointer-events="all"/></g><g><g fill="rgb(0, 0, 0)" font-family="&quot;LXGW WenKai&quot;" clip-path="url(#mx-clip-311-277-152-26-0)" font-size="12px"><text x="312.5" y="289.5">+ ...</text></g></g></g><g data-cell-id="gyem3hlseezmw4Tj-qo7-11"><g><path d="M 307 302 L 467 302" fill="none" stroke="none" pointer-events="all"/><path d="M 307 302 C 349.08 307.53 391.84 300.68 467 302 M 307 302 C 368.68 301.38 430.42 301.88 467 302" fill="none" stroke="rgb(0, 0, 0)" stroke-linejoin="round" stroke-linecap="round" stroke-miterlimit="10" pointer-events="all"/></g></g><g data-cell-id="gyem3hlseezmw4Tj-qo7-12"><g><rect x="307" y="306" width="160" height="26" fill="none" stroke="none" pointer-events="all"/></g><g><g fill="rgb(0, 0, 0)" font-family="&quot;LXGW WenKai&quot;" clip-path="url(#mx-clip-311-311-152-26-0)" font-size="12px"><text x="312.5" y="323.5">+ ...</text></g></g></g></g><g data-cell-id="gyem3hlseezmw4Tj-qo7-30"><g><rect x="100" y="48" width="238" height="41" fill="none" stroke="none" pointer-events="all"/></g><g><g fill="rgb(0, 0, 0)" font-family="&quot;LXGW WenKai&quot;" text-anchor="middle" font-size="12px"><text x="218.5" y="66">web.xml中url-pattern配置的是 /</text><text x="218.5" y="80">因此所有请求都先经过DispatcherServlet</text></g></g></g><g data-cell-id="FLEe0FHFtyAksvvl3Y7G-6"><g><path d="M 903 130.5 Q 387 130.5 387 239.63" fill="none" stroke="rgb(0, 0, 0)" stroke-miterlimit="10" pointer-events="stroke"/><path d="M 387 244.88 L 383.5 237.88 L 387 239.63 L 390.5 237.88 Z" fill="rgb(0, 0, 0)" stroke="rgb(0, 0, 0)" stroke-miterlimit="10" pointer-events="all"/></g><g data-cell-id="FLEe0FHFtyAksvvl3Y7G-14"><g><g fill="rgb(0, 0, 0)" font-family="&quot;Helvetica&quot;" text-anchor="middle" font-size="11px"><rect fill="rgb(255, 255, 255)" stroke="none" x="647" y="136" width="8" height="14" stroke-width="0"/><text x="650" y="146">5</text></g></g></g></g><g data-cell-id="FLEe0FHFtyAksvvl3Y7G-7"><g><path d="M 467 319 Q 546 319 546 312.75 Q 546 306.5 618.63 306.5" fill="none" stroke="rgb(0, 0, 0)" stroke-miterlimit="10" pointer-events="stroke"/><path d="M 623.88 306.5 L 616.88 310 L 618.63 306.5 L 616.88 303 Z" fill="rgb(0, 0, 0)" stroke="rgb(0, 0, 0)" stroke-miterlimit="10" pointer-events="all"/></g><g data-cell-id="FLEe0FHFtyAksvvl3Y7G-15"><g><g fill="rgb(0, 0, 0)" font-family="&quot;Helvetica&quot;" text-anchor="middle" font-size="11px"><rect fill="rgb(255, 255, 255)" stroke="none" x="524" y="314" width="8" height="14" stroke-width="0"/><text x="527" y="323.5">6</text></g></g></g></g><g data-cell-id="FLEe0FHFtyAksvvl3Y7G-9"><g><path d="M 306 539 Q 57 539 57 246.37" fill="none" stroke="rgb(0, 0, 0)" stroke-miterlimit="10" pointer-events="stroke"/><path d="M 57 241.12 L 60.5 248.12 L 57 246.37 L 53.5 248.12 Z" fill="rgb(0, 0, 0)" stroke="rgb(0, 0, 0)" stroke-miterlimit="10" pointer-events="all"/></g><g data-cell-id="FLEe0FHFtyAksvvl3Y7G-19"><g><g fill="rgb(0, 0, 0)" font-family="&quot;Helvetica&quot;" text-anchor="middle" font-size="11px"><rect fill="rgb(255, 255, 255)" stroke="none" x="77" y="387" width="8" height="14" stroke-width="0"/><text x="80" y="396.5">8</text></g></g></g></g></g></g></g></svg>