<svg xmlns="http://www.w3.org/2000/svg" xmlns:xlink="http://www.w3.org/1999/xlink" width="1121" height="835" content="&lt;mxfile host=&quot;app.diagrams.net&quot; modified=&quot;2023-10-16T08:11:10.295Z&quot; agent=&quot;Mozilla/5.0 (Windows NT 10.0; Win64; x64) AppleWebKit/537.36 (KHTML, like Gecko) Chrome/118.0.0.0 Safari/537.36&quot; etag=&quot;xEmLCgcQh39NeVzhgrvx&quot; version=&quot;22.0.4&quot; type=&quot;github&quot;&gt; &lt;diagram id=&quot;23iRSUPoRavnBvh4doch&quot; name=&quot;Page-1&quot;&gt; &lt;mxGraphModel dx=&quot;1221&quot; dy=&quot;419&quot; grid=&quot;0&quot; gridSize=&quot;10&quot; guides=&quot;1&quot; tooltips=&quot;1&quot; connect=&quot;1&quot; arrows=&quot;1&quot; fold=&quot;1&quot; page=&quot;0&quot; pageScale=&quot;1&quot; pageWidth=&quot;827&quot; pageHeight=&quot;1169&quot; math=&quot;0&quot; shadow=&quot;0&quot;&gt; &lt;root&gt; &lt;mxCell id=&quot;0&quot; /&gt; &lt;mxCell id=&quot;1&quot; parent=&quot;0&quot; /&gt; &lt;mxCell id=&quot;O_NmqYBHqCmTGQZXU40C-2&quot; value=&quot;AppContextProvider(AppContext)&quot; style=&quot;swimlane;sketch=1;hachureGap=4;jiggle=2;curveFitting=1;fontFamily=Architects Daughter;fontSource=https%3A%2F%2Ffonts.googleapis.com%2Fcss%3Ffamily%3DArchitects%2BDaughter;fontSize=20;&quot; vertex=&quot;1&quot; parent=&quot;1&quot;&gt; &lt;mxGeometry x=&quot;194&quot; y=&quot;404&quot; width=&quot;1120&quot; height=&quot;834&quot; as=&quot;geometry&quot; /&gt; &lt;/mxCell&gt; &lt;mxCell id=&quot;O_NmqYBHqCmTGQZXU40C-4&quot; value=&quot;HashRouter&quot; style=&quot;swimlane;sketch=1;hachureGap=4;jiggle=2;curveFitting=1;fontFamily=Architects Daughter;fontSource=https%3A%2F%2Ffonts.googleapis.com%2Fcss%3Ffamily%3DArchitects%2BDaughter;fontSize=20;&quot; vertex=&quot;1&quot; parent=&quot;O_NmqYBHqCmTGQZXU40C-2&quot;&gt; &lt;mxGeometry x=&quot;159&quot; y=&quot;41&quot; width=&quot;934&quot; height=&quot;772&quot; as=&quot;geometry&quot; /&gt; &lt;/mxCell&gt; &lt;mxCell id=&quot;O_NmqYBHqCmTGQZXU40C-5&quot; value=&quot;DefaultLayout&quot; style=&quot;swimlane;sketch=1;hachureGap=4;jiggle=2;curveFitting=1;fontFamily=Architects Daughter;fontSource=https%3A%2F%2Ffonts.googleapis.com%2Fcss%3Ffamily%3DArchitects%2BDaughter;fontSize=20;startSize=23;&quot; vertex=&quot;1&quot; parent=&quot;O_NmqYBHqCmTGQZXU40C-4&quot;&gt; &lt;mxGeometry x=&quot;30&quot; y=&quot;40&quot; width=&quot;891&quot; height=&quot;710&quot; as=&quot;geometry&quot; /&gt; &lt;/mxCell&gt; &lt;/root&gt; &lt;/mxGraphModel&gt; &lt;/diagram&gt; &lt;/mxfile&gt;" resource="https://app.diagrams.net/#Hluguosong%2Fimages%2Fmaster%2Fdiagrams%2Fopen-cloud%2FSystemArchitecture.svg" version="1.1" viewBox="-0.5 -0.5 1121 835"><g><path fill="none" stroke="none" d="M 0 23 L 0 0 L 1120 0 L 1120 23" pointer-events="all"/><path fill="#FFF" stroke="none" d="M 2.69 21.92 L -1.4 2.73 L 1123.08 -3.09 L 1123.03 19.44" pointer-events="all"/><path fill="none" stroke="#000" stroke-linecap="round" stroke-linejoin="round" stroke-miterlimit="10" d="M 0 23 M 0 23 C 3.81 19.16 0.74 5.8 0 0 M 0 23 C -1.45 17.44 0.79 9.49 0 0 M 0 0 C 238.62 -5.82 478.35 -7.96 1120 0 M 0 0 C 396.42 5.99 791.98 6.38 1120 0 M 1120 0 C 1118.47 7.74 1119.97 11.22 1120 23 M 1120 0 C 1119.44 10.33 1121.47 19.02 1120 23" pointer-events="all"/><path fill="none" stroke="#000" stroke-linecap="round" stroke-linejoin="round" stroke-miterlimit="10" d="M 0 23 M 0 23 C -0.66 322.17 -2.99 620.09 0 834 M 0 23 C 2.64 194.77 2.76 365.25 0 834 M 0 834 C 281.13 833.01 562.6 834.8 1120 834 M 0 834 C 362.31 827.17 723.99 827.35 1120 834 M 1120 834 C 1115.51 634.32 1117.23 432.92 1120 23 M 1120 834 C 1125.83 514.21 1126.87 194.97 1120 23" pointer-events="none"/><path fill="none" stroke="#000" stroke-linecap="round" stroke-linejoin="round" stroke-miterlimit="10" d="M 0 23 M 0 23 C 412.55 27.36 821.68 27.34 1120 23 M 0 23 C 236.92 32.56 473.33 31.94 1120 23" pointer-events="none"/><g fill="#000" font-family="Architects Daughter" font-size="20" font-weight="bold" text-anchor="middle"><text x="559.5" y="20">AppContextProvider(AppContext)</text></g><path fill="none" stroke="none" d="M 159 64 L 159 41 L 1093 41 L 1093 64" pointer-events="all"/><path fill="#FFF" stroke="none" d="M 161.7 64.28 L 159.23 39.16 L 1091.94 44.63 L 1092.68 66.2" pointer-events="all"/><path fill="none" stroke="#000" stroke-linecap="round" stroke-linejoin="round" stroke-miterlimit="10" d="M 159 64 M 159 64 C 155.96 57.71 162.63 48.37 159 41 M 159 64 C 157.49 54.2 157.06 47.07 159 41 M 159 41 C 389.83 45.1 625 47.73 1093 41 M 159 41 C 469.37 35.16 780.77 35.11 1093 41 M 1093 41 C 1092.77 44.23 1093.37 50.22 1093 64 M 1093 41 C 1092.54 46.45 1094.19 52.12 1093 64" pointer-events="all"/><path fill="none" stroke="#000" stroke-linecap="round" stroke-linejoin="round" stroke-miterlimit="10" d="M 159 64 M 159 64 C 158.68 338.75 160.87 614.21 159 813 M 159 64 C 161.82 329.28 162.86 596.47 159 813 M 159 813 C 458.54 805.69 757.2 805.34 1093 813 M 159 813 C 413.84 813.77 669.12 815.2 1093 813 M 1093 813 C 1092.26 535.09 1090.74 259.25 1093 64 M 1093 813 C 1095.17 606.39 1094.65 399.91 1093 64" pointer-events="none"/><path fill="none" stroke="#000" stroke-linecap="round" stroke-linejoin="round" stroke-miterlimit="10" d="M 159 64 M 159 64 C 501.4 63.15 846.72 63.45 1093 64 M 159 64 C 489.88 61.81 822.45 63.14 1093 64" pointer-events="none"/><g fill="#000" font-family="Architects Daughter" font-size="20" font-weight="bold" text-anchor="middle"><text x="625.5" y="61">HashRouter</text></g><path fill="none" stroke="none" d="M 189 104 L 189 81 L 1080 81 L 1080 104" pointer-events="all"/><path fill="#FFF" stroke="none" d="M 191.7 104.96 L 186.04 84.87 L 1076.87 79.99 L 1078 101.08" pointer-events="all"/><path fill="none" stroke="#000" stroke-linecap="round" stroke-linejoin="round" stroke-miterlimit="10" d="M 189 104 M 189 104 C 186.54 92.49 190.08 89.16 189 81 M 189 104 C 189.92 98.38 188.16 89.96 189 81 M 189 81 C 427.55 76.28 664.07 78.1 1080 81 M 189 81 C 476.18 78.14 762.93 77.87 1080 81 M 1080 81 C 1080.42 88.28 1076.57 101.81 1080 104 M 1080 81 C 1079.59 88.61 1079.05 97.38 1080 104" pointer-events="all"/><path fill="none" stroke="#000" stroke-linecap="round" stroke-linejoin="round" stroke-miterlimit="10" d="M 189 104 M 189 104 C 191.87 355.14 189.91 607.99 189 791 M 189 104 C 193.23 259.5 192.33 416.12 189 791 M 189 791 C 505.75 789.72 824.2 788.31 1080 791 M 189 791 C 411.03 789.28 631.65 788.93 1080 791 M 1080 791 C 1079.51 563.38 1079.58 334.91 1080 104 M 1080 791 C 1074.25 573.49 1074.55 355.12 1080 104" pointer-events="none"/><path fill="none" stroke="#000" stroke-linecap="round" stroke-linejoin="round" stroke-miterlimit="10" d="M 189 104 M 189 104 C 517.89 108.03 843.28 108.48 1080 104 M 189 104 C 391.52 97.75 592.83 98.46 1080 104" pointer-events="none"/><g fill="#000" font-family="Architects Daughter" font-size="20" font-weight="bold" text-anchor="middle"><text x="634" y="101">DefaultLayout</text></g></g></svg>