<?xml version="1.0" encoding="UTF-8"?>
<!-- Do not edit this file with editors other than draw.io -->
<!DOCTYPE svg PUBLIC "-//W3C//DTD SVG 1.1//EN" "http://www.w3.org/Graphics/SVG/1.1/DTD/svg11.dtd">
<svg xmlns="http://www.w3.org/2000/svg" xmlns:xlink="http://www.w3.org/1999/xlink" version="1.1" width="558px" height="648px" viewBox="-0.5 -0.5 558 648" content="&lt;mxfile host=&quot;app.diagrams.net&quot; modified=&quot;2024-05-30T08:46:10.511Z&quot; agent=&quot;Mozilla/5.0 (Windows NT 10.0; Win64; x64) AppleWebKit/537.36 (KHTML, like Gecko) Chrome/125.0.0.0 Safari/537.36&quot; etag=&quot;VbsT1OE0WJ6vkX3vEuii&quot; version=&quot;24.4.9&quot; type=&quot;github&quot;&gt;&#10;  &lt;diagram id=&quot;23iRSUPoRavnBvh4doch&quot; name=&quot;Page-1&quot;&gt;&#10;    &lt;mxGraphModel dx=&quot;1621&quot; dy=&quot;725&quot; grid=&quot;0&quot; gridSize=&quot;10&quot; guides=&quot;1&quot; tooltips=&quot;1&quot; connect=&quot;1&quot; arrows=&quot;1&quot; fold=&quot;1&quot; page=&quot;0&quot; pageScale=&quot;1&quot; pageWidth=&quot;827&quot; pageHeight=&quot;1169&quot; math=&quot;0&quot; shadow=&quot;0&quot;&gt;&#10;      &lt;root&gt;&#10;        &lt;mxCell id=&quot;0&quot; /&gt;&#10;        &lt;mxCell id=&quot;1&quot; parent=&quot;0&quot; /&gt;&#10;        &lt;mxCell id=&quot;KcuzkjQ-ewqLWEiKw4dD-25&quot; value=&quot;&quot; style=&quot;rounded=0;sketch=1;hachureGap=4;jiggle=2;curveFitting=1;fontFamily=Architects Daughter;fontSource=https%3A%2F%2Ffonts.googleapis.com%2Fcss%3Ffamily%3DArchitects%2BDaughter;&quot; vertex=&quot;1&quot; parent=&quot;1&quot;&gt;&#10;          &lt;mxGeometry x=&quot;-252&quot; y=&quot;148&quot; width=&quot;557&quot; height=&quot;647&quot; as=&quot;geometry&quot; /&gt;&#10;        &lt;/mxCell&gt;&#10;        &lt;mxCell id=&quot;KcuzkjQ-ewqLWEiKw4dD-12&quot; style=&quot;edgeStyle=none;rounded=0;sketch=1;hachureGap=4;jiggle=2;curveFitting=1;orthogonalLoop=1;jettySize=auto;exitX=0.5;exitY=1;exitDx=0;exitDy=0;entryX=0.5;entryY=0;entryDx=0;entryDy=0;fontFamily=LXGW WenKai;fontSize=15;&quot; edge=&quot;1&quot; parent=&quot;1&quot; source=&quot;KcuzkjQ-ewqLWEiKw4dD-1&quot; target=&quot;KcuzkjQ-ewqLWEiKw4dD-2&quot;&gt;&#10;          &lt;mxGeometry relative=&quot;1&quot; as=&quot;geometry&quot; /&gt;&#10;        &lt;/mxCell&gt;&#10;        &lt;mxCell id=&quot;KcuzkjQ-ewqLWEiKw4dD-13&quot; value=&quot;new ClassPathXmlApplicationContext(&amp;quot;spring_config_hello.xml&amp;quot;);&quot; style=&quot;edgeLabel;align=center;verticalAlign=middle;resizable=0;points=[];sketch=1;hachureGap=4;jiggle=2;curveFitting=1;fontFamily=LXGW WenKai;fontColor=#808080;fontSize=15;&quot; vertex=&quot;1&quot; connectable=&quot;0&quot; parent=&quot;KcuzkjQ-ewqLWEiKw4dD-12&quot;&gt;&#10;          &lt;mxGeometry x=&quot;-0.087&quot; relative=&quot;1&quot; as=&quot;geometry&quot;&gt;&#10;            &lt;mxPoint x=&quot;3&quot; y=&quot;3&quot; as=&quot;offset&quot; /&gt;&#10;          &lt;/mxGeometry&gt;&#10;        &lt;/mxCell&gt;&#10;        &lt;mxCell id=&quot;KcuzkjQ-ewqLWEiKw4dD-1&quot; value=&quot;&amp;lt;?xml version=&amp;quot;1.0&amp;quot; encoding=&amp;quot;UTF-8&amp;quot;?&amp;gt;&amp;#xa;&amp;lt;beans&amp;gt;&amp;#xa;    &amp;lt;bean id=&amp;quot;id1&amp;quot; class=&amp;quot;com.luguosong.Object1&amp;quot;/&amp;gt;&amp;#xa;&amp;#x9;    &amp;lt;bean id=&amp;quot;id2&amp;quot; class=&amp;quot;com.luguosong.Object2&amp;quot;/&amp;gt;&amp;#xa;&amp;#x9;    &amp;lt;bean id=&amp;quot;id3&amp;quot; class=&amp;quot;com.luguosong.Object3&amp;quot;/&amp;gt;&amp;#xa;&amp;#x9;    ...&amp;#xa;&amp;lt;/beans&amp;gt;&quot; style=&quot;text;align=left;verticalAlign=middle;rounded=0;fontFamily=LXGW WenKai;fontSize=15;&quot; vertex=&quot;1&quot; parent=&quot;1&quot;&gt;&#10;          &lt;mxGeometry x=&quot;-183&quot; y=&quot;148&quot; width=&quot;417&quot; height=&quot;139&quot; as=&quot;geometry&quot; /&gt;&#10;        &lt;/mxCell&gt;&#10;        &lt;mxCell id=&quot;KcuzkjQ-ewqLWEiKw4dD-15&quot; value=&quot;&quot; style=&quot;edgeStyle=none;rounded=0;sketch=1;hachureGap=4;jiggle=2;curveFitting=1;orthogonalLoop=1;jettySize=auto;fontFamily=LXGW WenKai;fontSize=15;&quot; edge=&quot;1&quot; parent=&quot;1&quot; source=&quot;KcuzkjQ-ewqLWEiKw4dD-2&quot; target=&quot;KcuzkjQ-ewqLWEiKw4dD-14&quot;&gt;&#10;          &lt;mxGeometry relative=&quot;1&quot; as=&quot;geometry&quot; /&gt;&#10;        &lt;/mxCell&gt;&#10;        &lt;mxCell id=&quot;KcuzkjQ-ewqLWEiKw4dD-16&quot; value=&quot;context.getBean(&amp;quot;id1&amp;quot;);&quot; style=&quot;edgeLabel;align=center;verticalAlign=middle;resizable=0;points=[];sketch=1;hachureGap=4;jiggle=2;curveFitting=1;fontFamily=LXGW WenKai;fontSize=15;&quot; vertex=&quot;1&quot; connectable=&quot;0&quot; parent=&quot;KcuzkjQ-ewqLWEiKw4dD-15&quot;&gt;&#10;          &lt;mxGeometry x=&quot;-0.0773&quot; y=&quot;-6&quot; relative=&quot;1&quot; as=&quot;geometry&quot;&gt;&#10;            &lt;mxPoint x=&quot;-38&quot; y=&quot;26&quot; as=&quot;offset&quot; /&gt;&#10;          &lt;/mxGeometry&gt;&#10;        &lt;/mxCell&gt;&#10;        &lt;mxCell id=&quot;KcuzkjQ-ewqLWEiKw4dD-2&quot; value=&quot;Map集合&quot; style=&quot;shape=table;startSize=30;container=1;collapsible=0;childLayout=tableLayout;fixedRows=1;rowLines=0;fontStyle=0;strokeColor=default;fontSize=15;sketch=1;hachureGap=4;jiggle=2;curveFitting=1;fontFamily=LXGW WenKai;&quot; vertex=&quot;1&quot; parent=&quot;1&quot;&gt;&#10;          &lt;mxGeometry x=&quot;-105&quot; y=&quot;439&quot; width=&quot;197.16668701171875&quot; height=&quot;120&quot; as=&quot;geometry&quot; /&gt;&#10;        &lt;/mxCell&gt;&#10;        &lt;mxCell id=&quot;KcuzkjQ-ewqLWEiKw4dD-3&quot; value=&quot;&quot; style=&quot;shape=tableRow;horizontal=0;startSize=0;swimlaneHead=0;swimlaneBody=0;top=0;left=0;bottom=0;right=0;collapsible=0;dropTarget=0;fillColor=none;points=[[0,0.5],[1,0.5]];portConstraint=eastwest;strokeColor=inherit;fontSize=15;sketch=1;hachureGap=4;jiggle=2;curveFitting=1;fontFamily=LXGW WenKai;&quot; vertex=&quot;1&quot; parent=&quot;KcuzkjQ-ewqLWEiKw4dD-2&quot;&gt;&#10;          &lt;mxGeometry y=&quot;30&quot; width=&quot;197.16668701171875&quot; height=&quot;30&quot; as=&quot;geometry&quot; /&gt;&#10;        &lt;/mxCell&gt;&#10;        &lt;mxCell id=&quot;KcuzkjQ-ewqLWEiKw4dD-4&quot; value=&quot;id1&quot; style=&quot;shape=partialRectangle;connectable=0;fillColor=none;top=0;left=0;bottom=0;right=0;overflow=hidden;pointerEvents=1;strokeColor=inherit;fontSize=15;sketch=1;hachureGap=4;jiggle=2;curveFitting=1;fontFamily=LXGW WenKai;&quot; vertex=&quot;1&quot; parent=&quot;KcuzkjQ-ewqLWEiKw4dD-3&quot;&gt;&#10;          &lt;mxGeometry width=&quot;40&quot; height=&quot;30&quot; as=&quot;geometry&quot;&gt;&#10;            &lt;mxRectangle width=&quot;40&quot; height=&quot;30&quot; as=&quot;alternateBounds&quot; /&gt;&#10;          &lt;/mxGeometry&gt;&#10;        &lt;/mxCell&gt;&#10;        &lt;mxCell id=&quot;KcuzkjQ-ewqLWEiKw4dD-5&quot; value=&quot;Object1对象实例&quot; style=&quot;shape=partialRectangle;connectable=0;fillColor=none;top=0;left=0;bottom=0;right=0;align=left;spacingLeft=6;overflow=hidden;strokeColor=inherit;fontSize=15;sketch=1;hachureGap=4;jiggle=2;curveFitting=1;fontFamily=LXGW WenKai;&quot; vertex=&quot;1&quot; parent=&quot;KcuzkjQ-ewqLWEiKw4dD-3&quot;&gt;&#10;          &lt;mxGeometry x=&quot;40&quot; width=&quot;157&quot; height=&quot;30&quot; as=&quot;geometry&quot;&gt;&#10;            &lt;mxRectangle width=&quot;157&quot; height=&quot;30&quot; as=&quot;alternateBounds&quot; /&gt;&#10;          &lt;/mxGeometry&gt;&#10;        &lt;/mxCell&gt;&#10;        &lt;mxCell id=&quot;KcuzkjQ-ewqLWEiKw4dD-6&quot; value=&quot;&quot; style=&quot;shape=tableRow;horizontal=0;startSize=0;swimlaneHead=0;swimlaneBody=0;top=0;left=0;bottom=0;right=0;collapsible=0;dropTarget=0;fillColor=none;points=[[0,0.5],[1,0.5]];portConstraint=eastwest;strokeColor=inherit;fontSize=15;sketch=1;hachureGap=4;jiggle=2;curveFitting=1;fontFamily=LXGW WenKai;&quot; vertex=&quot;1&quot; parent=&quot;KcuzkjQ-ewqLWEiKw4dD-2&quot;&gt;&#10;          &lt;mxGeometry y=&quot;60&quot; width=&quot;197.16668701171875&quot; height=&quot;30&quot; as=&quot;geometry&quot; /&gt;&#10;        &lt;/mxCell&gt;&#10;        &lt;mxCell id=&quot;KcuzkjQ-ewqLWEiKw4dD-7&quot; value=&quot;id2&quot; style=&quot;shape=partialRectangle;connectable=0;fillColor=none;top=0;left=0;bottom=0;right=0;overflow=hidden;strokeColor=inherit;fontSize=15;sketch=1;hachureGap=4;jiggle=2;curveFitting=1;fontFamily=LXGW WenKai;&quot; vertex=&quot;1&quot; parent=&quot;KcuzkjQ-ewqLWEiKw4dD-6&quot;&gt;&#10;          &lt;mxGeometry width=&quot;40&quot; height=&quot;30&quot; as=&quot;geometry&quot;&gt;&#10;            &lt;mxRectangle width=&quot;40&quot; height=&quot;30&quot; as=&quot;alternateBounds&quot; /&gt;&#10;          &lt;/mxGeometry&gt;&#10;        &lt;/mxCell&gt;&#10;        &lt;mxCell id=&quot;KcuzkjQ-ewqLWEiKw4dD-8&quot; value=&quot;Object2对象实例&quot; style=&quot;shape=partialRectangle;connectable=0;fillColor=none;top=0;left=0;bottom=0;right=0;align=left;spacingLeft=6;overflow=hidden;strokeColor=inherit;fontSize=15;sketch=1;hachureGap=4;jiggle=2;curveFitting=1;fontFamily=LXGW WenKai;&quot; vertex=&quot;1&quot; parent=&quot;KcuzkjQ-ewqLWEiKw4dD-6&quot;&gt;&#10;          &lt;mxGeometry x=&quot;40&quot; width=&quot;157&quot; height=&quot;30&quot; as=&quot;geometry&quot;&gt;&#10;            &lt;mxRectangle width=&quot;157&quot; height=&quot;30&quot; as=&quot;alternateBounds&quot; /&gt;&#10;          &lt;/mxGeometry&gt;&#10;        &lt;/mxCell&gt;&#10;        &lt;mxCell id=&quot;KcuzkjQ-ewqLWEiKw4dD-9&quot; value=&quot;&quot; style=&quot;shape=tableRow;horizontal=0;startSize=0;swimlaneHead=0;swimlaneBody=0;top=0;left=0;bottom=0;right=0;collapsible=0;dropTarget=0;fillColor=none;points=[[0,0.5],[1,0.5]];portConstraint=eastwest;strokeColor=inherit;fontSize=15;sketch=1;hachureGap=4;jiggle=2;curveFitting=1;fontFamily=LXGW WenKai;&quot; vertex=&quot;1&quot; parent=&quot;KcuzkjQ-ewqLWEiKw4dD-2&quot;&gt;&#10;          &lt;mxGeometry y=&quot;90&quot; width=&quot;197.16668701171875&quot; height=&quot;30&quot; as=&quot;geometry&quot; /&gt;&#10;        &lt;/mxCell&gt;&#10;        &lt;mxCell id=&quot;KcuzkjQ-ewqLWEiKw4dD-10&quot; value=&quot;id3&quot; style=&quot;shape=partialRectangle;connectable=0;fillColor=none;top=0;left=0;bottom=0;right=0;overflow=hidden;strokeColor=inherit;fontSize=15;sketch=1;hachureGap=4;jiggle=2;curveFitting=1;fontFamily=LXGW WenKai;&quot; vertex=&quot;1&quot; parent=&quot;KcuzkjQ-ewqLWEiKw4dD-9&quot;&gt;&#10;          &lt;mxGeometry width=&quot;40&quot; height=&quot;30&quot; as=&quot;geometry&quot;&gt;&#10;            &lt;mxRectangle width=&quot;40&quot; height=&quot;30&quot; as=&quot;alternateBounds&quot; /&gt;&#10;          &lt;/mxGeometry&gt;&#10;        &lt;/mxCell&gt;&#10;        &lt;mxCell id=&quot;KcuzkjQ-ewqLWEiKw4dD-11&quot; value=&quot;Object3对象实例&quot; style=&quot;shape=partialRectangle;connectable=0;fillColor=none;top=0;left=0;bottom=0;right=0;align=left;spacingLeft=6;overflow=hidden;strokeColor=inherit;fontSize=15;sketch=1;hachureGap=4;jiggle=2;curveFitting=1;fontFamily=LXGW WenKai;&quot; vertex=&quot;1&quot; parent=&quot;KcuzkjQ-ewqLWEiKw4dD-9&quot;&gt;&#10;          &lt;mxGeometry x=&quot;40&quot; width=&quot;157&quot; height=&quot;30&quot; as=&quot;geometry&quot;&gt;&#10;            &lt;mxRectangle width=&quot;157&quot; height=&quot;30&quot; as=&quot;alternateBounds&quot; /&gt;&#10;          &lt;/mxGeometry&gt;&#10;        &lt;/mxCell&gt;&#10;        &lt;mxCell id=&quot;KcuzkjQ-ewqLWEiKw4dD-14&quot; value=&quot;Object1&quot; style=&quot;rounded=0;sketch=1;hachureGap=4;jiggle=2;curveFitting=1;fontFamily=LXGW WenKai;fontSize=15;&quot; vertex=&quot;1&quot; parent=&quot;1&quot;&gt;&#10;          &lt;mxGeometry x=&quot;-220&quot; y=&quot;708&quot; width=&quot;120&quot; height=&quot;60&quot; as=&quot;geometry&quot; /&gt;&#10;        &lt;/mxCell&gt;&#10;        &lt;mxCell id=&quot;KcuzkjQ-ewqLWEiKw4dD-17&quot; value=&quot;Object2&quot; style=&quot;rounded=0;sketch=1;hachureGap=4;jiggle=2;curveFitting=1;fontFamily=LXGW WenKai;fontSize=15;&quot; vertex=&quot;1&quot; parent=&quot;1&quot;&gt;&#10;          &lt;mxGeometry x=&quot;-70&quot; y=&quot;708&quot; width=&quot;120&quot; height=&quot;60&quot; as=&quot;geometry&quot; /&gt;&#10;        &lt;/mxCell&gt;&#10;        &lt;mxCell id=&quot;KcuzkjQ-ewqLWEiKw4dD-20&quot; value=&quot;&quot; style=&quot;edgeStyle=none;rounded=0;sketch=1;hachureGap=4;jiggle=2;curveFitting=1;orthogonalLoop=1;jettySize=auto;fontFamily=LXGW WenKai;fontSize=15;entryX=0.5;entryY=0;entryDx=0;entryDy=0;&quot; edge=&quot;1&quot; parent=&quot;1&quot; source=&quot;KcuzkjQ-ewqLWEiKw4dD-2&quot; target=&quot;KcuzkjQ-ewqLWEiKw4dD-17&quot;&gt;&#10;          &lt;mxGeometry relative=&quot;1&quot; as=&quot;geometry&quot; /&gt;&#10;        &lt;/mxCell&gt;&#10;        &lt;mxCell id=&quot;KcuzkjQ-ewqLWEiKw4dD-21&quot; value=&quot;context.getBean(&amp;quot;id2&amp;quot;);&quot; style=&quot;edgeLabel;align=center;verticalAlign=middle;resizable=0;points=[];sketch=1;hachureGap=4;jiggle=2;curveFitting=1;fontFamily=LXGW WenKai;fontSize=15;&quot; vertex=&quot;1&quot; connectable=&quot;0&quot; parent=&quot;KcuzkjQ-ewqLWEiKw4dD-20&quot;&gt;&#10;          &lt;mxGeometry x=&quot;-0.0773&quot; y=&quot;-6&quot; relative=&quot;1&quot; as=&quot;geometry&quot;&gt;&#10;            &lt;mxPoint x=&quot;21&quot; y=&quot;-4&quot; as=&quot;offset&quot; /&gt;&#10;          &lt;/mxGeometry&gt;&#10;        &lt;/mxCell&gt;&#10;        &lt;mxCell id=&quot;KcuzkjQ-ewqLWEiKw4dD-22&quot; value=&quot;Object3&quot; style=&quot;rounded=0;sketch=1;hachureGap=4;jiggle=2;curveFitting=1;fontFamily=LXGW WenKai;fontSize=15;&quot; vertex=&quot;1&quot; parent=&quot;1&quot;&gt;&#10;          &lt;mxGeometry x=&quot;114&quot; y=&quot;710&quot; width=&quot;120&quot; height=&quot;60&quot; as=&quot;geometry&quot; /&gt;&#10;        &lt;/mxCell&gt;&#10;        &lt;mxCell id=&quot;KcuzkjQ-ewqLWEiKw4dD-23&quot; value=&quot;&quot; style=&quot;edgeStyle=none;rounded=0;sketch=1;hachureGap=4;jiggle=2;curveFitting=1;orthogonalLoop=1;jettySize=auto;fontFamily=LXGW WenKai;fontSize=15;entryX=0.5;entryY=0;entryDx=0;entryDy=0;&quot; edge=&quot;1&quot; parent=&quot;1&quot; source=&quot;KcuzkjQ-ewqLWEiKw4dD-2&quot; target=&quot;KcuzkjQ-ewqLWEiKw4dD-22&quot;&gt;&#10;          &lt;mxGeometry relative=&quot;1&quot; as=&quot;geometry&quot; /&gt;&#10;        &lt;/mxCell&gt;&#10;        &lt;mxCell id=&quot;KcuzkjQ-ewqLWEiKw4dD-24&quot; value=&quot;context.getBean(&amp;quot;id3&amp;quot;);&quot; style=&quot;edgeLabel;align=center;verticalAlign=middle;resizable=0;points=[];sketch=1;hachureGap=4;jiggle=2;curveFitting=1;fontFamily=LXGW WenKai;fontSize=15;&quot; vertex=&quot;1&quot; connectable=&quot;0&quot; parent=&quot;KcuzkjQ-ewqLWEiKw4dD-23&quot;&gt;&#10;          &lt;mxGeometry x=&quot;-0.0773&quot; y=&quot;-6&quot; relative=&quot;1&quot; as=&quot;geometry&quot;&gt;&#10;            &lt;mxPoint x=&quot;29&quot; y=&quot;28&quot; as=&quot;offset&quot; /&gt;&#10;          &lt;/mxGeometry&gt;&#10;        &lt;/mxCell&gt;&#10;      &lt;/root&gt;&#10;    &lt;/mxGraphModel&gt;&#10;  &lt;/diagram&gt;&#10;&lt;/mxfile&gt;&#10;" resource="https://app.diagrams.net/#Hluguosong%2Fimages%2Fmaster%2Fdiagrams%2Fjava_serve%2Fspring%2Fbasic%2FSpring%20IOC%E5%8E%9F%E7%90%86.svg#%7B%22pageId%22%3A%2223iRSUPoRavnBvh4doch%22%7D"><defs><clipPath id="mx-clip-147-321-40-30-0"><rect x="147" y="321" width="40" height="30"/></clipPath><clipPath id="mx-clip-193-321-151-30-0"><rect x="193" y="321" width="151" height="30"/></clipPath><clipPath id="mx-clip-147-351-40-30-0"><rect x="147" y="351" width="40" height="30"/></clipPath><clipPath id="mx-clip-193-351-151-30-0"><rect x="193" y="351" width="151" height="30"/></clipPath><clipPath id="mx-clip-147-381-40-30-0"><rect x="147" y="381" width="40" height="30"/></clipPath><clipPath id="mx-clip-193-381-151-30-0"><rect x="193" y="381" width="151" height="30"/></clipPath></defs><g><g><rect x="0" y="0" width="557" height="647" fill="none" stroke="none" pointer-events="all"/><path d="M -1.13 -2.54 L 553 -2.1 L 553.52 650.39 L 2.41 644.17" fill="rgb(255, 255, 255)" stroke="none" pointer-events="all"/><path d="M 0 0 C 137.34 -2.69 275.15 -3.04 557 0 M 0 0 C 181.11 -0.66 361.03 -0.72 557 0 M 557 0 C 558.47 184.27 558.37 370.76 557 647 M 557 0 C 554.68 160.42 554.66 322.2 557 647 M 557 647 C 375.14 645.53 193.08 644.48 0 647 M 557 647 C 438.51 650.43 320.86 650.35 0 647 M 0 647 C -5.13 399.84 -3.4 153.64 0 0 M 0 647 C -0.95 445.26 -0.42 242.58 0 0" fill="none" stroke="rgb(0, 0, 0)" stroke-linejoin="round" stroke-linecap="round" stroke-miterlimit="10" pointer-events="all"/></g><g><path d="M 277.5 139 L 246.89 284.77" fill="none" stroke="none" pointer-events="stroke"/><path d="M 245.81 289.91 L 243.83 282.34 L 246.89 284.77 L 250.68 283.77 Z" fill="none" stroke="none" pointer-events="all"/><path d="M 277.5 139 C 276.31 172.6 267.77 210.32 246.89 284.77 M 277.5 139 C 267.52 180.97 258.79 218.21 246.89 284.77" fill="none" stroke="rgb(0, 0, 0)" stroke-linejoin="round" stroke-linecap="round" stroke-miterlimit="10" pointer-events="stroke"/><path d="M 243.72 282.46 C 243.72 282.46 243.72 282.46 243.72 282.46 M 243.72 282.46 C 243.72 282.46 243.72 282.46 243.72 282.46 M 244.77 287.35 C 245.05 286.3 246.11 285.64 246.74 285.09 M 244.77 287.35 C 245.45 286.8 245.58 285.94 246.74 285.09" fill="none" stroke="rgb(0, 0, 0)" stroke-width="0.5" stroke-linejoin="round" stroke-linecap="round" stroke-miterlimit="10" pointer-events="all"/><path d="M 245.81 289.91 C 246.55 287.11 245.69 285.84 243.83 282.34 M 245.81 289.91 C 245.56 288.56 244.9 285.3 243.83 282.34 M 243.83 282.34 C 244.54 283.22 244.89 283.29 246.89 284.77 M 243.83 282.34 C 244.64 282.82 245.32 283.77 246.89 284.77 M 246.89 284.77 C 248.32 285.31 248.09 284.97 250.68 283.77 M 246.89 284.77 C 247.42 284.22 248.92 284.67 250.68 283.77 M 250.68 283.77 C 249.94 285.85 248.11 290.22 245.81 289.91 M 250.68 283.77 C 249.14 285.35 246.59 288.09 245.81 289.91" fill="none" stroke="rgb(0, 0, 0)" stroke-linejoin="round" stroke-linecap="round" stroke-miterlimit="10" pointer-events="all"/></g><g><g fill="#808080" font-family="LXGW WenKai" text-anchor="middle" font-size="15px"><rect fill="rgb(255, 255, 255)" stroke="none" x="39" y="203" width="455" height="19" stroke-width="0"/><text x="265.91" y="217.98">new ClassPathXmlApplicationContext("spring_config_hello.xml");</text></g></g><g><rect x="69" y="0" width="417" height="139" fill="none" stroke="none" pointer-events="all"/></g><g><g fill="rgb(0, 0, 0)" font-family="LXGW WenKai" font-size="15px"><text x="70.5" y="21.5">&lt;?xml version="1.0" encoding="UTF-8"?&gt;</text><text x="70.5" y="39.5">&lt;beans&gt;</text><text x="70.5" y="57.5">    &lt;bean id="id1" class="com.luguosong.Object1"/&gt;</text><text x="70.5" y="75.5">	    &lt;bean id="id2" class="com.luguosong.Object2"/&gt;</text><text x="70.5" y="93.5">	    &lt;bean id="id3" class="com.luguosong.Object3"/&gt;</text><text x="70.5" y="111.5">	    ...</text><text x="70.5" y="129.5">&lt;/beans&gt;</text></g></g><g><path d="M 207.03 411 L 114.72 554.64" fill="none" stroke="none" pointer-events="stroke"/><path d="M 111.88 559.06 L 112.72 551.28 L 114.72 554.64 L 118.61 555.06 Z" fill="none" stroke="none" pointer-events="all"/><path d="M 207.03 411 C 179.36 444.69 156.46 483.08 114.72 554.64 M 207.03 411 C 178.91 451.21 153.13 493.47 114.72 554.64" fill="none" stroke="rgb(0, 0, 0)" stroke-linejoin="round" stroke-linecap="round" stroke-miterlimit="10" pointer-events="stroke"/><path d="M 112.6 551.41 C 112.6 551.41 112.6 551.41 112.6 551.41 M 112.6 551.41 C 112.6 551.41 112.6 551.41 112.6 551.41 M 111.69 558.57 C 113.65 556.34 113.64 555.93 114.97 554.79 M 111.69 558.57 C 113.16 556.69 114.18 555.68 114.97 554.79" fill="none" stroke="rgb(0, 0, 0)" stroke-width="0.5" stroke-linejoin="round" stroke-linecap="round" stroke-miterlimit="10" pointer-events="all"/><path d="M 111.88 559.06 C 110.86 556.93 111.07 556.08 112.72 551.28 M 111.88 559.06 C 112.04 556.49 112.74 554.34 112.72 551.28 M 112.72 551.28 C 112.87 552.18 114.92 554.44 114.72 554.64 M 112.72 551.28 C 112.98 552.3 113.48 553.01 114.72 554.64 M 114.72 554.64 C 115.77 555.27 116.64 555.49 118.61 555.06 M 114.72 554.64 C 116.41 554.57 117.26 554.87 118.61 555.06 M 118.61 555.06 C 117.96 555.34 114.7 556.14 111.88 559.06 M 118.61 555.06 C 117.37 556.73 115.53 556.17 111.88 559.06" fill="none" stroke="rgb(0, 0, 0)" stroke-linejoin="round" stroke-linecap="round" stroke-miterlimit="10" pointer-events="all"/></g><g><g fill="rgb(0, 0, 0)" font-family="LXGW WenKai" text-anchor="middle" font-size="15px"><rect fill="rgb(255, 255, 255)" stroke="none" x="39" y="495" width="164" height="19" stroke-width="0"/><text x="119.65" y="509.24">context.getBean("id1");</text></g></g><g><path d="M 147 321 L 147 291 L 344.17 291 L 344.17 321" fill="none" stroke="none" pointer-events="all"/><path d="M 147 321 C 151.22 313.59 145.26 311.62 147 291 C 227.33 294.93 293.84 285.48 344.17 291 C 343.38 297.91 341.53 313.09 344.17 321" fill="rgb(255, 255, 255)" stroke="none" pointer-events="all"/><path d="M 147 321 C 150.02 310.02 144.2 296.62 147 291 M 147 321 C 147.26 307.53 145.07 298.61 147 291 M 147 291 C 218.82 287.05 286.62 286.26 344.17 291 M 147 291 C 220.03 293.21 296.03 293.78 344.17 291 M 344.17 291 C 341.51 298.93 340.96 300.33 344.17 321 M 344.17 291 C 343.98 296.88 341.93 304.72 344.17 321" fill="none" stroke="rgb(0, 0, 0)" stroke-linejoin="round" stroke-linecap="round" stroke-miterlimit="10" pointer-events="all"/><path d="M 147 321 C 148.14 353.56 142.33 383.7 147 411 M 147 321 C 149.18 354.4 146.98 392.35 147 411 M 147 411 C 218.82 407.05 286.62 406.26 344.17 411 M 147 411 C 220.03 413.21 296.03 413.78 344.17 411 M 344.17 411 C 340.01 393.51 339.46 369.49 344.17 321 M 344.17 411 C 345.15 387.29 343.1 365.54 344.17 321" fill="none" stroke="rgb(0, 0, 0)" stroke-linejoin="round" stroke-linecap="round" stroke-miterlimit="10" pointer-events="none"/><path d="M 147 321 C 221.09 324.62 286.81 322.1 344.17 321 M 147 321 C 224.75 319.99 299.57 322.78 344.17 321" fill="none" stroke="rgb(0, 0, 0)" stroke-linejoin="round" stroke-linecap="round" stroke-miterlimit="10" pointer-events="none"/><path d="M 187 321 C 189.08 331.79 183.26 340.16 187 351 M 187 321 C 188.22 330.97 186.02 345.48 187 351 M 187 351 C 187.07 358.71 183.48 368.78 187 381 M 187 351 C 186.45 362.04 188.93 373.8 187 381 M 187 381 C 184.34 388.93 183.79 390.33 187 411 M 187 381 C 186.81 386.88 184.76 394.72 187 411" fill="none" stroke="rgb(0, 0, 0)" stroke-linejoin="round" stroke-linecap="round" stroke-miterlimit="10" pointer-events="none"/></g><g><g fill="rgb(0, 0, 0)" font-family="LXGW WenKai" text-anchor="middle" font-size="15px"><text x="245.08" y="312">Map集合</text></g></g><g/><g><rect x="147" y="321" width="40" height="30" fill="none" stroke="none" pointer-events="all"/><path d="M 147 321 M 187 321 M 187 351 M 147 351" fill="none" stroke="none" pointer-events="all"/></g><g><g fill="rgb(0, 0, 0)" font-family="LXGW WenKai" clip-path="url(#mx-clip-147-321-40-30-0)" text-anchor="middle" font-size="15px"><text x="166.5" y="342">id1</text></g></g><g><rect x="187" y="321" width="157" height="30" fill="none" stroke="none" pointer-events="all"/><path d="M 187 321 M 344 321 M 344 351 M 187 351" fill="none" stroke="none" pointer-events="all"/></g><g><g fill="rgb(0, 0, 0)" font-family="LXGW WenKai" clip-path="url(#mx-clip-193-321-151-30-0)" font-size="15px"><text x="194.5" y="342">Object1对象实例</text></g></g><g/><g><rect x="147" y="351" width="40" height="30" fill="none" stroke="none" pointer-events="all"/><path d="M 147 351 M 187 351 M 187 381 M 147 381" fill="none" stroke="none" pointer-events="all"/></g><g><g fill="rgb(0, 0, 0)" font-family="LXGW WenKai" clip-path="url(#mx-clip-147-351-40-30-0)" text-anchor="middle" font-size="15px"><text x="166.5" y="372">id2</text></g></g><g><rect x="187" y="351" width="157" height="30" fill="none" stroke="none" pointer-events="all"/><path d="M 187 351 M 344 351 M 344 381 M 187 381" fill="none" stroke="none" pointer-events="all"/></g><g><g fill="rgb(0, 0, 0)" font-family="LXGW WenKai" clip-path="url(#mx-clip-193-351-151-30-0)" font-size="15px"><text x="194.5" y="372">Object2对象实例</text></g></g><g/><g><rect x="147" y="381" width="40" height="30" fill="none" stroke="none" pointer-events="all"/><path d="M 147 381 M 187 381 M 187 411 M 147 411" fill="none" stroke="none" pointer-events="all"/></g><g><g fill="rgb(0, 0, 0)" font-family="LXGW WenKai" clip-path="url(#mx-clip-147-381-40-30-0)" text-anchor="middle" font-size="15px"><text x="166.5" y="402">id3</text></g></g><g><rect x="187" y="381" width="157" height="30" fill="none" stroke="none" pointer-events="all"/><path d="M 187 381 M 344 381 M 344 411 M 187 411" fill="none" stroke="none" pointer-events="all"/></g><g><g fill="rgb(0, 0, 0)" font-family="LXGW WenKai" clip-path="url(#mx-clip-193-381-151-30-0)" font-size="15px"><text x="194.5" y="402">Object3对象实例</text></g></g><g><rect x="32" y="560" width="120" height="60" fill="none" stroke="none" pointer-events="all"/><path d="M 29.22 558.81 L 148.76 560.3 L 151.77 621.62 L 28.53 618.15" fill="rgb(255, 255, 255)" stroke="none" pointer-events="all"/><path d="M 32 560 C 60.71 561.41 92.81 563.78 152 560 M 32 560 C 59.67 556.66 84.11 558.53 152 560 M 152 560 C 149.68 583.18 150.35 604.32 152 620 M 152 560 C 152.65 576.21 151.18 587 152 620 M 152 620 C 109.16 619.97 68.23 617.42 32 620 M 152 620 C 115.03 619.73 78.14 622.73 32 620 M 32 620 C 29.37 602.15 31.74 589.62 32 560 M 32 620 C 32.15 602.24 34.8 587.12 32 560" fill="none" stroke="rgb(0, 0, 0)" stroke-linejoin="round" stroke-linecap="round" stroke-miterlimit="10" pointer-events="all"/></g><g><g fill="rgb(0, 0, 0)" font-family="LXGW WenKai" text-anchor="middle" font-size="15px"><text x="91.5" y="596">Object1</text></g></g><g><rect x="182" y="560" width="120" height="60" fill="none" stroke="none" pointer-events="all"/><path d="M 180.37 556.18 L 299.44 562.57 L 304.72 620.78 L 184.08 622.06" fill="rgb(255, 255, 255)" stroke="none" pointer-events="all"/><path d="M 182 560 C 211.85 564.14 244.9 559.7 302 560 M 182 560 C 210.76 558.4 238.57 559.58 302 560 M 302 560 C 305.19 574.54 299.03 590 302 620 M 302 560 C 302.65 582.37 302.56 603.4 302 620 M 302 620 C 269.35 620.04 246.15 618.49 182 620 M 302 620 C 273.76 622.01 248.28 622.34 182 620 M 182 620 C 178.43 600.7 183.98 581.69 182 560 M 182 620 C 181.09 602.48 180.74 583.12 182 560" fill="none" stroke="rgb(0, 0, 0)" stroke-linejoin="round" stroke-linecap="round" stroke-miterlimit="10" pointer-events="all"/></g><g><g fill="rgb(0, 0, 0)" font-family="LXGW WenKai" text-anchor="middle" font-size="15px"><text x="241.5" y="596">Object2</text></g></g><g><path d="M 244.55 411 L 242.11 553.63" fill="none" stroke="none" pointer-events="stroke"/><path d="M 242.02 558.88 L 238.64 551.82 L 242.11 553.63 L 245.64 551.94 Z" fill="none" stroke="none" pointer-events="all"/><path d="M 244.55 411 C 244.96 447.99 239.14 480.5 242.11 553.63 M 244.55 411 C 243.3 461.17 241.52 516.73 242.11 553.63" fill="none" stroke="rgb(0, 0, 0)" stroke-linejoin="round" stroke-linecap="round" stroke-miterlimit="10" pointer-events="stroke"/><path d="M 238.39 552.11 C 238.39 552.11 238.39 552.11 238.39 552.11 M 238.39 552.11 C 238.39 552.11 238.39 552.11 238.39 552.11 M 240.75 555.49 C 240.92 555.22 241.76 554.55 242.06 553.98 M 240.75 555.49 C 241.32 555.11 241.53 554.54 242.06 553.98" fill="none" stroke="rgb(0, 0, 0)" stroke-width="0.5" stroke-linejoin="round" stroke-linecap="round" stroke-miterlimit="10" pointer-events="all"/><path d="M 242.02 558.88 C 241.68 557.78 238.8 554.9 238.64 551.82 M 242.02 558.88 C 241.63 555.6 240.05 554.46 238.64 551.82 M 238.64 551.82 C 240.03 552.19 240.16 552.62 242.11 553.63 M 238.64 551.82 C 239.75 552.8 241.63 553.59 242.11 553.63 M 242.11 553.63 C 243.1 552.52 243.62 553.23 245.64 551.94 M 242.11 553.63 C 242.56 552.98 243.83 553.2 245.64 551.94 M 245.64 551.94 C 243.5 552.9 242.12 557.09 242.02 558.88 M 245.64 551.94 C 244.84 555.09 243.41 557.59 242.02 558.88" fill="none" stroke="rgb(0, 0, 0)" stroke-linejoin="round" stroke-linecap="round" stroke-miterlimit="10" pointer-events="all"/></g><g><g fill="rgb(0, 0, 0)" font-family="LXGW WenKai" text-anchor="middle" font-size="15px"><rect fill="rgb(255, 255, 255)" stroke="none" x="177" y="468" width="164" height="19" stroke-width="0"/><text x="258.37" y="482.39">context.getBean("id2");</text></g></g><g><rect x="366" y="562" width="120" height="60" fill="none" stroke="none" pointer-events="all"/><path d="M 363.72 562.08 L 489.32 565.62 L 487.58 618.22 L 362.86 623.26" fill="rgb(255, 255, 255)" stroke="none" pointer-events="all"/><path d="M 366 562 C 392.45 557.21 428.3 563.14 486 562 M 366 562 C 401.59 560.26 439.94 560.79 486 562 M 486 562 C 486.87 584.34 485.47 609.26 486 622 M 486 562 C 484.77 581.77 483.33 600.85 486 622 M 486 622 C 453.74 621.64 429.44 618.04 366 622 M 486 622 C 450.7 621.41 414.82 623.88 366 622 M 366 622 C 364.2 598.11 365.34 581.65 366 562 M 366 622 C 366.55 607.85 366.86 591.85 366 562" fill="none" stroke="rgb(0, 0, 0)" stroke-linejoin="round" stroke-linecap="round" stroke-miterlimit="10" pointer-events="all"/></g><g><g fill="rgb(0, 0, 0)" font-family="LXGW WenKai" text-anchor="middle" font-size="15px"><text x="425.5" y="598">Object3</text></g></g><g><path d="M 296.89 411 L 421.86 557.16" fill="none" stroke="none" pointer-events="stroke"/><path d="M 425.27 561.15 L 418.06 558.1 L 421.86 557.16 L 423.38 553.56 Z" fill="none" stroke="none" pointer-events="all"/><path d="M 296.89 411 C 331.54 450.31 358.27 484.9 421.86 557.16 M 296.89 411 C 344.3 463.66 392.34 518.15 421.86 557.16" fill="none" stroke="rgb(0, 0, 0)" stroke-linejoin="round" stroke-linecap="round" stroke-miterlimit="10" pointer-events="stroke"/><path d="M 417.83 558.37 C 417.83 558.37 417.83 558.37 417.83 558.37 M 417.83 558.37 C 417.83 558.37 417.83 558.37 417.83 558.37 M 422.16 559.48 C 423.3 559.17 423.03 557.39 424.78 556.46 M 422.16 559.48 C 423.05 558.57 423.59 557.58 424.78 556.46" fill="none" stroke="rgb(0, 0, 0)" stroke-width="0.5" stroke-linejoin="round" stroke-linecap="round" stroke-miterlimit="10" pointer-events="all"/><path d="M 425.27 561.15 C 424.39 561.73 420.93 560.31 418.06 558.1 M 425.27 561.15 C 422.96 559.97 420.44 558.41 418.06 558.1 M 418.06 558.1 C 418.76 558.66 420.42 558.34 421.86 557.16 M 418.06 558.1 C 418.88 557.74 420.08 557.31 421.86 557.16 M 421.86 557.16 C 422.89 555.69 421.79 556.4 423.38 553.56 M 421.86 557.16 C 422.8 555.81 422.69 554.67 423.38 553.56 M 423.38 553.56 C 422.48 554.9 423.91 557.42 425.27 561.15 M 423.38 553.56 C 424.28 555.63 424.93 556.89 425.27 561.15" fill="none" stroke="rgb(0, 0, 0)" stroke-linejoin="round" stroke-linecap="round" stroke-miterlimit="10" pointer-events="all"/></g><g><g fill="rgb(0, 0, 0)" font-family="LXGW WenKai" text-anchor="middle" font-size="15px"><rect fill="rgb(255, 255, 255)" stroke="none" x="300" y="505" width="164" height="19" stroke-width="0"/><text x="381.12" y="519.32">context.getBean("id3");</text></g></g></g></svg>