<?xml version="1.0" encoding="UTF-8"?>
<!-- Do not edit this file with editors other than draw.io -->
<!DOCTYPE svg PUBLIC "-//W3C//DTD SVG 1.1//EN" "http://www.w3.org/Graphics/SVG/1.1/DTD/svg11.dtd">
<svg xmlns="http://www.w3.org/2000/svg" xmlns:xlink="http://www.w3.org/1999/xlink" version="1.1" width="463px" height="623px" viewBox="-0.5 -0.5 463 623" content="&lt;mxfile host=&quot;app.diagrams.net&quot; modified=&quot;2024-05-30T08:45:42.930Z&quot; agent=&quot;Mozilla/5.0 (Windows NT 10.0; Win64; x64) AppleWebKit/537.36 (KHTML, like Gecko) Chrome/125.0.0.0 Safari/537.36&quot; etag=&quot;mN9oLZ9F-K9xZ2I33AEr&quot; version=&quot;24.4.9&quot; type=&quot;github&quot;&gt;&#10;  &lt;diagram id=&quot;23iRSUPoRavnBvh4doch&quot; name=&quot;Page-1&quot;&gt;&#10;    &lt;mxGraphModel dx=&quot;1621&quot; dy=&quot;725&quot; grid=&quot;0&quot; gridSize=&quot;10&quot; guides=&quot;1&quot; tooltips=&quot;1&quot; connect=&quot;1&quot; arrows=&quot;1&quot; fold=&quot;1&quot; page=&quot;0&quot; pageScale=&quot;1&quot; pageWidth=&quot;827&quot; pageHeight=&quot;1169&quot; math=&quot;0&quot; shadow=&quot;0&quot;&gt;&#10;      &lt;root&gt;&#10;        &lt;mxCell id=&quot;0&quot; /&gt;&#10;        &lt;mxCell id=&quot;1&quot; parent=&quot;0&quot; /&gt;&#10;        &lt;mxCell id=&quot;KcuzkjQ-ewqLWEiKw4dD-12&quot; style=&quot;edgeStyle=none;rounded=0;sketch=1;hachureGap=4;jiggle=2;curveFitting=1;orthogonalLoop=1;jettySize=auto;exitX=0.5;exitY=1;exitDx=0;exitDy=0;entryX=0.5;entryY=0;entryDx=0;entryDy=0;fontFamily=LXGW WenKai;fontSize=15;&quot; edge=&quot;1&quot; parent=&quot;1&quot; source=&quot;KcuzkjQ-ewqLWEiKw4dD-1&quot; target=&quot;KcuzkjQ-ewqLWEiKw4dD-2&quot;&gt;&#10;          &lt;mxGeometry relative=&quot;1&quot; as=&quot;geometry&quot; /&gt;&#10;        &lt;/mxCell&gt;&#10;        &lt;mxCell id=&quot;KcuzkjQ-ewqLWEiKw4dD-13&quot; value=&quot;new ClassPathXmlApplicationContext(&amp;quot;spring_config_hello.xml&amp;quot;);&quot; style=&quot;edgeLabel;align=center;verticalAlign=middle;resizable=0;points=[];sketch=1;hachureGap=4;jiggle=2;curveFitting=1;fontFamily=LXGW WenKai;fontColor=#808080;fontSize=15;&quot; vertex=&quot;1&quot; connectable=&quot;0&quot; parent=&quot;KcuzkjQ-ewqLWEiKw4dD-12&quot;&gt;&#10;          &lt;mxGeometry x=&quot;-0.087&quot; relative=&quot;1&quot; as=&quot;geometry&quot;&gt;&#10;            &lt;mxPoint x=&quot;3&quot; y=&quot;3&quot; as=&quot;offset&quot; /&gt;&#10;          &lt;/mxGeometry&gt;&#10;        &lt;/mxCell&gt;&#10;        &lt;mxCell id=&quot;KcuzkjQ-ewqLWEiKw4dD-1&quot; value=&quot;&amp;lt;?xml version=&amp;quot;1.0&amp;quot; encoding=&amp;quot;UTF-8&amp;quot;?&amp;gt;&amp;#xa;&amp;lt;beans&amp;gt;&amp;#xa;    &amp;lt;bean id=&amp;quot;id1&amp;quot; class=&amp;quot;com.luguosong.Object1&amp;quot;/&amp;gt;&amp;#xa;&amp;#x9;    &amp;lt;bean id=&amp;quot;id2&amp;quot; class=&amp;quot;com.luguosong.Object2&amp;quot;/&amp;gt;&amp;#xa;&amp;#x9;    &amp;lt;bean id=&amp;quot;id3&amp;quot; class=&amp;quot;com.luguosong.Object3&amp;quot;/&amp;gt;&amp;#xa;&amp;#x9;    ...&amp;#xa;&amp;lt;/beans&amp;gt;&quot; style=&quot;text;align=left;verticalAlign=middle;rounded=0;fontFamily=LXGW WenKai;fontSize=15;&quot; vertex=&quot;1&quot; parent=&quot;1&quot;&gt;&#10;          &lt;mxGeometry x=&quot;-183&quot; y=&quot;148&quot; width=&quot;417&quot; height=&quot;139&quot; as=&quot;geometry&quot; /&gt;&#10;        &lt;/mxCell&gt;&#10;        &lt;mxCell id=&quot;KcuzkjQ-ewqLWEiKw4dD-15&quot; value=&quot;&quot; style=&quot;edgeStyle=none;rounded=0;sketch=1;hachureGap=4;jiggle=2;curveFitting=1;orthogonalLoop=1;jettySize=auto;fontFamily=LXGW WenKai;fontSize=15;&quot; edge=&quot;1&quot; parent=&quot;1&quot; source=&quot;KcuzkjQ-ewqLWEiKw4dD-2&quot; target=&quot;KcuzkjQ-ewqLWEiKw4dD-14&quot;&gt;&#10;          &lt;mxGeometry relative=&quot;1&quot; as=&quot;geometry&quot; /&gt;&#10;        &lt;/mxCell&gt;&#10;        &lt;mxCell id=&quot;KcuzkjQ-ewqLWEiKw4dD-16&quot; value=&quot;context.getBean(&amp;quot;id1&amp;quot;);&quot; style=&quot;edgeLabel;align=center;verticalAlign=middle;resizable=0;points=[];sketch=1;hachureGap=4;jiggle=2;curveFitting=1;fontFamily=LXGW WenKai;fontSize=15;&quot; vertex=&quot;1&quot; connectable=&quot;0&quot; parent=&quot;KcuzkjQ-ewqLWEiKw4dD-15&quot;&gt;&#10;          &lt;mxGeometry x=&quot;-0.0773&quot; y=&quot;-6&quot; relative=&quot;1&quot; as=&quot;geometry&quot;&gt;&#10;            &lt;mxPoint x=&quot;-38&quot; y=&quot;26&quot; as=&quot;offset&quot; /&gt;&#10;          &lt;/mxGeometry&gt;&#10;        &lt;/mxCell&gt;&#10;        &lt;mxCell id=&quot;KcuzkjQ-ewqLWEiKw4dD-2&quot; value=&quot;Map集合&quot; style=&quot;shape=table;startSize=30;container=1;collapsible=0;childLayout=tableLayout;fixedRows=1;rowLines=0;fontStyle=0;strokeColor=default;fontSize=15;sketch=1;hachureGap=4;jiggle=2;curveFitting=1;fontFamily=LXGW WenKai;&quot; vertex=&quot;1&quot; parent=&quot;1&quot;&gt;&#10;          &lt;mxGeometry x=&quot;-105&quot; y=&quot;439&quot; width=&quot;197.16668701171875&quot; height=&quot;120&quot; as=&quot;geometry&quot; /&gt;&#10;        &lt;/mxCell&gt;&#10;        &lt;mxCell id=&quot;KcuzkjQ-ewqLWEiKw4dD-3&quot; value=&quot;&quot; style=&quot;shape=tableRow;horizontal=0;startSize=0;swimlaneHead=0;swimlaneBody=0;top=0;left=0;bottom=0;right=0;collapsible=0;dropTarget=0;fillColor=none;points=[[0,0.5],[1,0.5]];portConstraint=eastwest;strokeColor=inherit;fontSize=15;sketch=1;hachureGap=4;jiggle=2;curveFitting=1;fontFamily=LXGW WenKai;&quot; vertex=&quot;1&quot; parent=&quot;KcuzkjQ-ewqLWEiKw4dD-2&quot;&gt;&#10;          &lt;mxGeometry y=&quot;30&quot; width=&quot;197.16668701171875&quot; height=&quot;30&quot; as=&quot;geometry&quot; /&gt;&#10;        &lt;/mxCell&gt;&#10;        &lt;mxCell id=&quot;KcuzkjQ-ewqLWEiKw4dD-4&quot; value=&quot;id1&quot; style=&quot;shape=partialRectangle;connectable=0;fillColor=none;top=0;left=0;bottom=0;right=0;overflow=hidden;pointerEvents=1;strokeColor=inherit;fontSize=15;sketch=1;hachureGap=4;jiggle=2;curveFitting=1;fontFamily=LXGW WenKai;&quot; vertex=&quot;1&quot; parent=&quot;KcuzkjQ-ewqLWEiKw4dD-3&quot;&gt;&#10;          &lt;mxGeometry width=&quot;40&quot; height=&quot;30&quot; as=&quot;geometry&quot;&gt;&#10;            &lt;mxRectangle width=&quot;40&quot; height=&quot;30&quot; as=&quot;alternateBounds&quot; /&gt;&#10;          &lt;/mxGeometry&gt;&#10;        &lt;/mxCell&gt;&#10;        &lt;mxCell id=&quot;KcuzkjQ-ewqLWEiKw4dD-5&quot; value=&quot;Object1对象实例&quot; style=&quot;shape=partialRectangle;connectable=0;fillColor=none;top=0;left=0;bottom=0;right=0;align=left;spacingLeft=6;overflow=hidden;strokeColor=inherit;fontSize=15;sketch=1;hachureGap=4;jiggle=2;curveFitting=1;fontFamily=LXGW WenKai;&quot; vertex=&quot;1&quot; parent=&quot;KcuzkjQ-ewqLWEiKw4dD-3&quot;&gt;&#10;          &lt;mxGeometry x=&quot;40&quot; width=&quot;157&quot; height=&quot;30&quot; as=&quot;geometry&quot;&gt;&#10;            &lt;mxRectangle width=&quot;157&quot; height=&quot;30&quot; as=&quot;alternateBounds&quot; /&gt;&#10;          &lt;/mxGeometry&gt;&#10;        &lt;/mxCell&gt;&#10;        &lt;mxCell id=&quot;KcuzkjQ-ewqLWEiKw4dD-6&quot; value=&quot;&quot; style=&quot;shape=tableRow;horizontal=0;startSize=0;swimlaneHead=0;swimlaneBody=0;top=0;left=0;bottom=0;right=0;collapsible=0;dropTarget=0;fillColor=none;points=[[0,0.5],[1,0.5]];portConstraint=eastwest;strokeColor=inherit;fontSize=15;sketch=1;hachureGap=4;jiggle=2;curveFitting=1;fontFamily=LXGW WenKai;&quot; vertex=&quot;1&quot; parent=&quot;KcuzkjQ-ewqLWEiKw4dD-2&quot;&gt;&#10;          &lt;mxGeometry y=&quot;60&quot; width=&quot;197.16668701171875&quot; height=&quot;30&quot; as=&quot;geometry&quot; /&gt;&#10;        &lt;/mxCell&gt;&#10;        &lt;mxCell id=&quot;KcuzkjQ-ewqLWEiKw4dD-7&quot; value=&quot;id2&quot; style=&quot;shape=partialRectangle;connectable=0;fillColor=none;top=0;left=0;bottom=0;right=0;overflow=hidden;strokeColor=inherit;fontSize=15;sketch=1;hachureGap=4;jiggle=2;curveFitting=1;fontFamily=LXGW WenKai;&quot; vertex=&quot;1&quot; parent=&quot;KcuzkjQ-ewqLWEiKw4dD-6&quot;&gt;&#10;          &lt;mxGeometry width=&quot;40&quot; height=&quot;30&quot; as=&quot;geometry&quot;&gt;&#10;            &lt;mxRectangle width=&quot;40&quot; height=&quot;30&quot; as=&quot;alternateBounds&quot; /&gt;&#10;          &lt;/mxGeometry&gt;&#10;        &lt;/mxCell&gt;&#10;        &lt;mxCell id=&quot;KcuzkjQ-ewqLWEiKw4dD-8&quot; value=&quot;Object2对象实例&quot; style=&quot;shape=partialRectangle;connectable=0;fillColor=none;top=0;left=0;bottom=0;right=0;align=left;spacingLeft=6;overflow=hidden;strokeColor=inherit;fontSize=15;sketch=1;hachureGap=4;jiggle=2;curveFitting=1;fontFamily=LXGW WenKai;&quot; vertex=&quot;1&quot; parent=&quot;KcuzkjQ-ewqLWEiKw4dD-6&quot;&gt;&#10;          &lt;mxGeometry x=&quot;40&quot; width=&quot;157&quot; height=&quot;30&quot; as=&quot;geometry&quot;&gt;&#10;            &lt;mxRectangle width=&quot;157&quot; height=&quot;30&quot; as=&quot;alternateBounds&quot; /&gt;&#10;          &lt;/mxGeometry&gt;&#10;        &lt;/mxCell&gt;&#10;        &lt;mxCell id=&quot;KcuzkjQ-ewqLWEiKw4dD-9&quot; value=&quot;&quot; style=&quot;shape=tableRow;horizontal=0;startSize=0;swimlaneHead=0;swimlaneBody=0;top=0;left=0;bottom=0;right=0;collapsible=0;dropTarget=0;fillColor=none;points=[[0,0.5],[1,0.5]];portConstraint=eastwest;strokeColor=inherit;fontSize=15;sketch=1;hachureGap=4;jiggle=2;curveFitting=1;fontFamily=LXGW WenKai;&quot; vertex=&quot;1&quot; parent=&quot;KcuzkjQ-ewqLWEiKw4dD-2&quot;&gt;&#10;          &lt;mxGeometry y=&quot;90&quot; width=&quot;197.16668701171875&quot; height=&quot;30&quot; as=&quot;geometry&quot; /&gt;&#10;        &lt;/mxCell&gt;&#10;        &lt;mxCell id=&quot;KcuzkjQ-ewqLWEiKw4dD-10&quot; value=&quot;id3&quot; style=&quot;shape=partialRectangle;connectable=0;fillColor=none;top=0;left=0;bottom=0;right=0;overflow=hidden;strokeColor=inherit;fontSize=15;sketch=1;hachureGap=4;jiggle=2;curveFitting=1;fontFamily=LXGW WenKai;&quot; vertex=&quot;1&quot; parent=&quot;KcuzkjQ-ewqLWEiKw4dD-9&quot;&gt;&#10;          &lt;mxGeometry width=&quot;40&quot; height=&quot;30&quot; as=&quot;geometry&quot;&gt;&#10;            &lt;mxRectangle width=&quot;40&quot; height=&quot;30&quot; as=&quot;alternateBounds&quot; /&gt;&#10;          &lt;/mxGeometry&gt;&#10;        &lt;/mxCell&gt;&#10;        &lt;mxCell id=&quot;KcuzkjQ-ewqLWEiKw4dD-11&quot; value=&quot;Object3对象实例&quot; style=&quot;shape=partialRectangle;connectable=0;fillColor=none;top=0;left=0;bottom=0;right=0;align=left;spacingLeft=6;overflow=hidden;strokeColor=inherit;fontSize=15;sketch=1;hachureGap=4;jiggle=2;curveFitting=1;fontFamily=LXGW WenKai;&quot; vertex=&quot;1&quot; parent=&quot;KcuzkjQ-ewqLWEiKw4dD-9&quot;&gt;&#10;          &lt;mxGeometry x=&quot;40&quot; width=&quot;157&quot; height=&quot;30&quot; as=&quot;geometry&quot;&gt;&#10;            &lt;mxRectangle width=&quot;157&quot; height=&quot;30&quot; as=&quot;alternateBounds&quot; /&gt;&#10;          &lt;/mxGeometry&gt;&#10;        &lt;/mxCell&gt;&#10;        &lt;mxCell id=&quot;KcuzkjQ-ewqLWEiKw4dD-14&quot; value=&quot;Object1&quot; style=&quot;rounded=0;sketch=1;hachureGap=4;jiggle=2;curveFitting=1;fontFamily=LXGW WenKai;fontSize=15;&quot; vertex=&quot;1&quot; parent=&quot;1&quot;&gt;&#10;          &lt;mxGeometry x=&quot;-220&quot; y=&quot;708&quot; width=&quot;120&quot; height=&quot;60&quot; as=&quot;geometry&quot; /&gt;&#10;        &lt;/mxCell&gt;&#10;        &lt;mxCell id=&quot;KcuzkjQ-ewqLWEiKw4dD-17&quot; value=&quot;Object2&quot; style=&quot;rounded=0;sketch=1;hachureGap=4;jiggle=2;curveFitting=1;fontFamily=LXGW WenKai;fontSize=15;&quot; vertex=&quot;1&quot; parent=&quot;1&quot;&gt;&#10;          &lt;mxGeometry x=&quot;-70&quot; y=&quot;708&quot; width=&quot;120&quot; height=&quot;60&quot; as=&quot;geometry&quot; /&gt;&#10;        &lt;/mxCell&gt;&#10;        &lt;mxCell id=&quot;KcuzkjQ-ewqLWEiKw4dD-20&quot; value=&quot;&quot; style=&quot;edgeStyle=none;rounded=0;sketch=1;hachureGap=4;jiggle=2;curveFitting=1;orthogonalLoop=1;jettySize=auto;fontFamily=LXGW WenKai;fontSize=15;entryX=0.5;entryY=0;entryDx=0;entryDy=0;&quot; edge=&quot;1&quot; parent=&quot;1&quot; source=&quot;KcuzkjQ-ewqLWEiKw4dD-2&quot; target=&quot;KcuzkjQ-ewqLWEiKw4dD-17&quot;&gt;&#10;          &lt;mxGeometry relative=&quot;1&quot; as=&quot;geometry&quot; /&gt;&#10;        &lt;/mxCell&gt;&#10;        &lt;mxCell id=&quot;KcuzkjQ-ewqLWEiKw4dD-21&quot; value=&quot;context.getBean(&amp;quot;id2&amp;quot;);&quot; style=&quot;edgeLabel;align=center;verticalAlign=middle;resizable=0;points=[];sketch=1;hachureGap=4;jiggle=2;curveFitting=1;fontFamily=LXGW WenKai;fontSize=15;&quot; vertex=&quot;1&quot; connectable=&quot;0&quot; parent=&quot;KcuzkjQ-ewqLWEiKw4dD-20&quot;&gt;&#10;          &lt;mxGeometry x=&quot;-0.0773&quot; y=&quot;-6&quot; relative=&quot;1&quot; as=&quot;geometry&quot;&gt;&#10;            &lt;mxPoint x=&quot;21&quot; y=&quot;-4&quot; as=&quot;offset&quot; /&gt;&#10;          &lt;/mxGeometry&gt;&#10;        &lt;/mxCell&gt;&#10;        &lt;mxCell id=&quot;KcuzkjQ-ewqLWEiKw4dD-22&quot; value=&quot;Object3&quot; style=&quot;rounded=0;sketch=1;hachureGap=4;jiggle=2;curveFitting=1;fontFamily=LXGW WenKai;fontSize=15;&quot; vertex=&quot;1&quot; parent=&quot;1&quot;&gt;&#10;          &lt;mxGeometry x=&quot;114&quot; y=&quot;710&quot; width=&quot;120&quot; height=&quot;60&quot; as=&quot;geometry&quot; /&gt;&#10;        &lt;/mxCell&gt;&#10;        &lt;mxCell id=&quot;KcuzkjQ-ewqLWEiKw4dD-23&quot; value=&quot;&quot; style=&quot;edgeStyle=none;rounded=0;sketch=1;hachureGap=4;jiggle=2;curveFitting=1;orthogonalLoop=1;jettySize=auto;fontFamily=LXGW WenKai;fontSize=15;entryX=0.5;entryY=0;entryDx=0;entryDy=0;&quot; edge=&quot;1&quot; parent=&quot;1&quot; source=&quot;KcuzkjQ-ewqLWEiKw4dD-2&quot; target=&quot;KcuzkjQ-ewqLWEiKw4dD-22&quot;&gt;&#10;          &lt;mxGeometry relative=&quot;1&quot; as=&quot;geometry&quot; /&gt;&#10;        &lt;/mxCell&gt;&#10;        &lt;mxCell id=&quot;KcuzkjQ-ewqLWEiKw4dD-24&quot; value=&quot;context.getBean(&amp;quot;id3&amp;quot;);&quot; style=&quot;edgeLabel;align=center;verticalAlign=middle;resizable=0;points=[];sketch=1;hachureGap=4;jiggle=2;curveFitting=1;fontFamily=LXGW WenKai;fontSize=15;&quot; vertex=&quot;1&quot; connectable=&quot;0&quot; parent=&quot;KcuzkjQ-ewqLWEiKw4dD-23&quot;&gt;&#10;          &lt;mxGeometry x=&quot;-0.0773&quot; y=&quot;-6&quot; relative=&quot;1&quot; as=&quot;geometry&quot;&gt;&#10;            &lt;mxPoint x=&quot;29&quot; y=&quot;28&quot; as=&quot;offset&quot; /&gt;&#10;          &lt;/mxGeometry&gt;&#10;        &lt;/mxCell&gt;&#10;      &lt;/root&gt;&#10;    &lt;/mxGraphModel&gt;&#10;  &lt;/diagram&gt;&#10;&lt;/mxfile&gt;&#10;" resource="https://app.diagrams.net/#Hluguosong%2Fimages%2Fmaster%2Fdiagrams%2Fjava_serve%2Fspring%2Fbasic%2FSpring%20IOC%E5%8E%9F%E7%90%86.svg#%7B%22pageId%22%3A%2223iRSUPoRavnBvh4doch%22%7D"><defs><clipPath id="mx-clip-115-321-40-30-0"><rect x="115" y="321" width="40" height="30"/></clipPath><clipPath id="mx-clip-161-321-151-30-0"><rect x="161" y="321" width="151" height="30"/></clipPath><clipPath id="mx-clip-115-351-40-30-0"><rect x="115" y="351" width="40" height="30"/></clipPath><clipPath id="mx-clip-161-351-151-30-0"><rect x="161" y="351" width="151" height="30"/></clipPath><clipPath id="mx-clip-115-381-40-30-0"><rect x="115" y="381" width="40" height="30"/></clipPath><clipPath id="mx-clip-161-381-151-30-0"><rect x="161" y="381" width="151" height="30"/></clipPath></defs><g><g><path d="M 245.5 139 L 214.89 284.77" fill="none" stroke="none" pointer-events="stroke"/><path d="M 213.81 289.91 L 211.83 282.34 L 214.89 284.77 L 218.68 283.77 Z" fill="none" stroke="none" pointer-events="all"/><path d="M 245.5 139 C 244.31 172.6 235.77 210.32 214.89 284.77 M 245.5 139 C 235.52 180.97 226.79 218.21 214.89 284.77" fill="none" stroke="rgb(0, 0, 0)" stroke-linejoin="round" stroke-linecap="round" stroke-miterlimit="10" pointer-events="stroke"/><path d="M 211.72 282.46 C 211.72 282.46 211.72 282.46 211.72 282.46 M 211.72 282.46 C 211.72 282.46 211.72 282.46 211.72 282.46 M 212.77 287.35 C 213.05 286.3 214.11 285.64 214.74 285.09 M 212.77 287.35 C 213.45 286.8 213.58 285.94 214.74 285.09" fill="none" stroke="rgb(0, 0, 0)" stroke-width="0.5" stroke-linejoin="round" stroke-linecap="round" stroke-miterlimit="10" pointer-events="all"/><path d="M 213.81 289.91 C 214.55 287.11 213.69 285.84 211.83 282.34 M 213.81 289.91 C 213.56 288.56 212.9 285.3 211.83 282.34 M 211.83 282.34 C 212.54 283.22 212.89 283.29 214.89 284.77 M 211.83 282.34 C 212.64 282.82 213.32 283.77 214.89 284.77 M 214.89 284.77 C 216.32 285.31 216.09 284.97 218.68 283.77 M 214.89 284.77 C 215.42 284.22 216.92 284.67 218.68 283.77 M 218.68 283.77 C 217.94 285.85 216.11 290.22 213.81 289.91 M 218.68 283.77 C 217.14 285.35 214.59 288.09 213.81 289.91" fill="none" stroke="rgb(0, 0, 0)" stroke-linejoin="round" stroke-linecap="round" stroke-miterlimit="10" pointer-events="all"/></g><g><g fill="#808080" font-family="LXGW WenKai" text-anchor="middle" font-size="15px"><rect fill="rgb(255, 255, 255)" stroke="none" x="7" y="203" width="455" height="19" stroke-width="0"/><text x="233.91" y="217.98">new ClassPathXmlApplicationContext("spring_config_hello.xml");</text></g></g><g><rect x="37" y="0" width="417" height="139" fill="none" stroke="none" pointer-events="all"/></g><g><g fill="rgb(0, 0, 0)" font-family="LXGW WenKai" font-size="15px"><text x="38.5" y="21.5">&lt;?xml version="1.0" encoding="UTF-8"?&gt;</text><text x="38.5" y="39.5">&lt;beans&gt;</text><text x="38.5" y="57.5">    &lt;bean id="id1" class="com.luguosong.Object1"/&gt;</text><text x="38.5" y="75.5">	    &lt;bean id="id2" class="com.luguosong.Object2"/&gt;</text><text x="38.5" y="93.5">	    &lt;bean id="id3" class="com.luguosong.Object3"/&gt;</text><text x="38.5" y="111.5">	    ...</text><text x="38.5" y="129.5">&lt;/beans&gt;</text></g></g><g><path d="M 175.03 411 L 82.72 554.64" fill="none" stroke="none" pointer-events="stroke"/><path d="M 79.88 559.06 L 80.72 551.28 L 82.72 554.64 L 86.61 555.06 Z" fill="none" stroke="none" pointer-events="all"/><path d="M 175.03 411 C 147.36 444.69 124.46 483.08 82.72 554.64 M 175.03 411 C 146.91 451.21 121.13 493.47 82.72 554.64" fill="none" stroke="rgb(0, 0, 0)" stroke-linejoin="round" stroke-linecap="round" stroke-miterlimit="10" pointer-events="stroke"/><path d="M 80.6 551.41 C 80.6 551.41 80.6 551.41 80.6 551.41 M 80.6 551.41 C 80.6 551.41 80.6 551.41 80.6 551.41 M 79.69 558.57 C 81.65 556.34 81.64 555.93 82.97 554.79 M 79.69 558.57 C 81.16 556.69 82.18 555.68 82.97 554.79" fill="none" stroke="rgb(0, 0, 0)" stroke-width="0.5" stroke-linejoin="round" stroke-linecap="round" stroke-miterlimit="10" pointer-events="all"/><path d="M 79.88 559.06 C 78.86 556.93 79.07 556.08 80.72 551.28 M 79.88 559.06 C 80.04 556.49 80.74 554.34 80.72 551.28 M 80.72 551.28 C 80.87 552.18 82.92 554.44 82.72 554.64 M 80.72 551.28 C 80.98 552.3 81.48 553.01 82.72 554.64 M 82.72 554.64 C 83.77 555.27 84.64 555.49 86.61 555.06 M 82.72 554.64 C 84.41 554.57 85.26 554.87 86.61 555.06 M 86.61 555.06 C 85.96 555.34 82.7 556.14 79.88 559.06 M 86.61 555.06 C 85.37 556.73 83.53 556.17 79.88 559.06" fill="none" stroke="rgb(0, 0, 0)" stroke-linejoin="round" stroke-linecap="round" stroke-miterlimit="10" pointer-events="all"/></g><g><g fill="rgb(0, 0, 0)" font-family="LXGW WenKai" text-anchor="middle" font-size="15px"><rect fill="rgb(255, 255, 255)" stroke="none" x="7" y="495" width="164" height="19" stroke-width="0"/><text x="87.65" y="509.24">context.getBean("id1");</text></g></g><g><path d="M 115 321 L 115 291 L 312.17 291 L 312.17 321" fill="none" stroke="none" pointer-events="all"/><path d="M 115 321 C 119.22 313.59 113.26 311.62 115 291 C 195.33 294.93 261.84 285.48 312.17 291 C 311.38 297.91 309.53 313.09 312.17 321" fill="rgb(255, 255, 255)" stroke="none" pointer-events="all"/><path d="M 115 321 C 118.02 310.02 112.2 296.62 115 291 M 115 321 C 115.26 307.53 113.07 298.61 115 291 M 115 291 C 186.82 287.05 254.62 286.26 312.17 291 M 115 291 C 188.03 293.21 264.03 293.78 312.17 291 M 312.17 291 C 309.51 298.93 308.96 300.33 312.17 321 M 312.17 291 C 311.98 296.88 309.93 304.72 312.17 321" fill="none" stroke="rgb(0, 0, 0)" stroke-linejoin="round" stroke-linecap="round" stroke-miterlimit="10" pointer-events="all"/><path d="M 115 321 C 116.14 353.56 110.33 383.7 115 411 M 115 321 C 117.18 354.4 114.98 392.35 115 411 M 115 411 C 186.82 407.05 254.62 406.26 312.17 411 M 115 411 C 188.03 413.21 264.03 413.78 312.17 411 M 312.17 411 C 308.01 393.51 307.46 369.49 312.17 321 M 312.17 411 C 313.15 387.29 311.1 365.54 312.17 321" fill="none" stroke="rgb(0, 0, 0)" stroke-linejoin="round" stroke-linecap="round" stroke-miterlimit="10" pointer-events="none"/><path d="M 115 321 C 189.09 324.62 254.81 322.1 312.17 321 M 115 321 C 192.75 319.99 267.57 322.78 312.17 321" fill="none" stroke="rgb(0, 0, 0)" stroke-linejoin="round" stroke-linecap="round" stroke-miterlimit="10" pointer-events="none"/><path d="M 155 321 C 157.08 331.79 151.26 340.16 155 351 M 155 321 C 156.22 330.97 154.02 345.48 155 351 M 155 351 C 155.07 358.71 151.48 368.78 155 381 M 155 351 C 154.45 362.04 156.93 373.8 155 381 M 155 381 C 152.34 388.93 151.79 390.33 155 411 M 155 381 C 154.81 386.88 152.76 394.72 155 411" fill="none" stroke="rgb(0, 0, 0)" stroke-linejoin="round" stroke-linecap="round" stroke-miterlimit="10" pointer-events="none"/></g><g><g fill="rgb(0, 0, 0)" font-family="LXGW WenKai" text-anchor="middle" font-size="15px"><text x="213.08" y="312">Map集合</text></g></g><g/><g><rect x="115" y="321" width="40" height="30" fill="none" stroke="none" pointer-events="all"/><path d="M 115 321 M 155 321 M 155 351 M 115 351" fill="none" stroke="none" pointer-events="all"/></g><g><g fill="rgb(0, 0, 0)" font-family="LXGW WenKai" clip-path="url(#mx-clip-115-321-40-30-0)" text-anchor="middle" font-size="15px"><text x="134.5" y="342">id1</text></g></g><g><rect x="155" y="321" width="157" height="30" fill="none" stroke="none" pointer-events="all"/><path d="M 155 321 M 312 321 M 312 351 M 155 351" fill="none" stroke="none" pointer-events="all"/></g><g><g fill="rgb(0, 0, 0)" font-family="LXGW WenKai" clip-path="url(#mx-clip-161-321-151-30-0)" font-size="15px"><text x="162.5" y="342">Object1对象实例</text></g></g><g/><g><rect x="115" y="351" width="40" height="30" fill="none" stroke="none" pointer-events="all"/><path d="M 115 351 M 155 351 M 155 381 M 115 381" fill="none" stroke="none" pointer-events="all"/></g><g><g fill="rgb(0, 0, 0)" font-family="LXGW WenKai" clip-path="url(#mx-clip-115-351-40-30-0)" text-anchor="middle" font-size="15px"><text x="134.5" y="372">id2</text></g></g><g><rect x="155" y="351" width="157" height="30" fill="none" stroke="none" pointer-events="all"/><path d="M 155 351 M 312 351 M 312 381 M 155 381" fill="none" stroke="none" pointer-events="all"/></g><g><g fill="rgb(0, 0, 0)" font-family="LXGW WenKai" clip-path="url(#mx-clip-161-351-151-30-0)" font-size="15px"><text x="162.5" y="372">Object2对象实例</text></g></g><g/><g><rect x="115" y="381" width="40" height="30" fill="none" stroke="none" pointer-events="all"/><path d="M 115 381 M 155 381 M 155 411 M 115 411" fill="none" stroke="none" pointer-events="all"/></g><g><g fill="rgb(0, 0, 0)" font-family="LXGW WenKai" clip-path="url(#mx-clip-115-381-40-30-0)" text-anchor="middle" font-size="15px"><text x="134.5" y="402">id3</text></g></g><g><rect x="155" y="381" width="157" height="30" fill="none" stroke="none" pointer-events="all"/><path d="M 155 381 M 312 381 M 312 411 M 155 411" fill="none" stroke="none" pointer-events="all"/></g><g><g fill="rgb(0, 0, 0)" font-family="LXGW WenKai" clip-path="url(#mx-clip-161-381-151-30-0)" font-size="15px"><text x="162.5" y="402">Object3对象实例</text></g></g><g><rect x="0" y="560" width="120" height="60" fill="none" stroke="none" pointer-events="all"/><path d="M -2.78 558.81 L 116.76 560.3 L 119.77 621.62 L -3.47 618.15" fill="rgb(255, 255, 255)" stroke="none" pointer-events="all"/><path d="M 0 560 C 28.71 561.41 60.81 563.78 120 560 M 0 560 C 27.67 556.66 52.11 558.53 120 560 M 120 560 C 117.68 583.18 118.35 604.32 120 620 M 120 560 C 120.65 576.21 119.18 587 120 620 M 120 620 C 77.16 619.97 36.23 617.42 0 620 M 120 620 C 83.03 619.73 46.14 622.73 0 620 M 0 620 C -2.63 602.15 -0.26 589.62 0 560 M 0 620 C 0.15 602.24 2.8 587.12 0 560" fill="none" stroke="rgb(0, 0, 0)" stroke-linejoin="round" stroke-linecap="round" stroke-miterlimit="10" pointer-events="all"/></g><g><g fill="rgb(0, 0, 0)" font-family="LXGW WenKai" text-anchor="middle" font-size="15px"><text x="59.5" y="596">Object1</text></g></g><g><rect x="150" y="560" width="120" height="60" fill="none" stroke="none" pointer-events="all"/><path d="M 148.37 556.18 L 267.44 562.57 L 272.72 620.78 L 152.08 622.06" fill="rgb(255, 255, 255)" stroke="none" pointer-events="all"/><path d="M 150 560 C 179.85 564.14 212.9 559.7 270 560 M 150 560 C 178.76 558.4 206.57 559.58 270 560 M 270 560 C 273.19 574.54 267.03 590 270 620 M 270 560 C 270.65 582.37 270.56 603.4 270 620 M 270 620 C 237.35 620.04 214.15 618.49 150 620 M 270 620 C 241.76 622.01 216.28 622.34 150 620 M 150 620 C 146.43 600.7 151.98 581.69 150 560 M 150 620 C 149.09 602.48 148.74 583.12 150 560" fill="none" stroke="rgb(0, 0, 0)" stroke-linejoin="round" stroke-linecap="round" stroke-miterlimit="10" pointer-events="all"/></g><g><g fill="rgb(0, 0, 0)" font-family="LXGW WenKai" text-anchor="middle" font-size="15px"><text x="209.5" y="596">Object2</text></g></g><g><path d="M 212.55 411 L 210.11 553.63" fill="none" stroke="none" pointer-events="stroke"/><path d="M 210.02 558.88 L 206.64 551.82 L 210.11 553.63 L 213.64 551.94 Z" fill="none" stroke="none" pointer-events="all"/><path d="M 212.55 411 C 212.96 447.99 207.14 480.5 210.11 553.63 M 212.55 411 C 211.3 461.17 209.52 516.73 210.11 553.63" fill="none" stroke="rgb(0, 0, 0)" stroke-linejoin="round" stroke-linecap="round" stroke-miterlimit="10" pointer-events="stroke"/><path d="M 206.39 552.11 C 206.39 552.11 206.39 552.11 206.39 552.11 M 206.39 552.11 C 206.39 552.11 206.39 552.11 206.39 552.11 M 208.75 555.49 C 208.92 555.22 209.76 554.55 210.06 553.98 M 208.75 555.49 C 209.32 555.11 209.53 554.54 210.06 553.98" fill="none" stroke="rgb(0, 0, 0)" stroke-width="0.5" stroke-linejoin="round" stroke-linecap="round" stroke-miterlimit="10" pointer-events="all"/><path d="M 210.02 558.88 C 209.68 557.78 206.8 554.9 206.64 551.82 M 210.02 558.88 C 209.63 555.6 208.05 554.46 206.64 551.82 M 206.64 551.82 C 208.03 552.19 208.16 552.62 210.11 553.63 M 206.64 551.82 C 207.75 552.8 209.63 553.59 210.11 553.63 M 210.11 553.63 C 211.1 552.52 211.62 553.23 213.64 551.94 M 210.11 553.63 C 210.56 552.98 211.83 553.2 213.64 551.94 M 213.64 551.94 C 211.5 552.9 210.12 557.09 210.02 558.88 M 213.64 551.94 C 212.84 555.09 211.41 557.59 210.02 558.88" fill="none" stroke="rgb(0, 0, 0)" stroke-linejoin="round" stroke-linecap="round" stroke-miterlimit="10" pointer-events="all"/></g><g><g fill="rgb(0, 0, 0)" font-family="LXGW WenKai" text-anchor="middle" font-size="15px"><rect fill="rgb(255, 255, 255)" stroke="none" x="145" y="468" width="164" height="19" stroke-width="0"/><text x="226.37" y="482.39">context.getBean("id2");</text></g></g><g><rect x="334" y="562" width="120" height="60" fill="none" stroke="none" pointer-events="all"/><path d="M 331.72 562.08 L 457.32 565.62 L 455.58 618.22 L 330.86 623.26" fill="rgb(255, 255, 255)" stroke="none" pointer-events="all"/><path d="M 334 562 C 360.45 557.21 396.3 563.14 454 562 M 334 562 C 369.59 560.26 407.94 560.79 454 562 M 454 562 C 454.87 584.34 453.47 609.26 454 622 M 454 562 C 452.77 581.77 451.33 600.85 454 622 M 454 622 C 421.74 621.64 397.44 618.04 334 622 M 454 622 C 418.7 621.41 382.82 623.88 334 622 M 334 622 C 332.2 598.11 333.34 581.65 334 562 M 334 622 C 334.55 607.85 334.86 591.85 334 562" fill="none" stroke="rgb(0, 0, 0)" stroke-linejoin="round" stroke-linecap="round" stroke-miterlimit="10" pointer-events="all"/></g><g><g fill="rgb(0, 0, 0)" font-family="LXGW WenKai" text-anchor="middle" font-size="15px"><text x="393.5" y="598">Object3</text></g></g><g><path d="M 264.89 411 L 389.86 557.16" fill="none" stroke="none" pointer-events="stroke"/><path d="M 393.27 561.15 L 386.06 558.1 L 389.86 557.16 L 391.38 553.56 Z" fill="none" stroke="none" pointer-events="all"/><path d="M 264.89 411 C 299.54 450.31 326.27 484.9 389.86 557.16 M 264.89 411 C 312.3 463.66 360.34 518.15 389.86 557.16" fill="none" stroke="rgb(0, 0, 0)" stroke-linejoin="round" stroke-linecap="round" stroke-miterlimit="10" pointer-events="stroke"/><path d="M 385.83 558.37 C 385.83 558.37 385.83 558.37 385.83 558.37 M 385.83 558.37 C 385.83 558.37 385.83 558.37 385.83 558.37 M 390.16 559.48 C 391.3 559.17 391.03 557.39 392.78 556.46 M 390.16 559.48 C 391.05 558.57 391.59 557.58 392.78 556.46" fill="none" stroke="rgb(0, 0, 0)" stroke-width="0.5" stroke-linejoin="round" stroke-linecap="round" stroke-miterlimit="10" pointer-events="all"/><path d="M 393.27 561.15 C 392.39 561.73 388.93 560.31 386.06 558.1 M 393.27 561.15 C 390.96 559.97 388.44 558.41 386.06 558.1 M 386.06 558.1 C 386.76 558.66 388.42 558.34 389.86 557.16 M 386.06 558.1 C 386.88 557.74 388.08 557.31 389.86 557.16 M 389.86 557.16 C 390.89 555.69 389.79 556.4 391.38 553.56 M 389.86 557.16 C 390.8 555.81 390.69 554.67 391.38 553.56 M 391.38 553.56 C 390.48 554.9 391.91 557.42 393.27 561.15 M 391.38 553.56 C 392.28 555.63 392.93 556.89 393.27 561.15" fill="none" stroke="rgb(0, 0, 0)" stroke-linejoin="round" stroke-linecap="round" stroke-miterlimit="10" pointer-events="all"/></g><g><g fill="rgb(0, 0, 0)" font-family="LXGW WenKai" text-anchor="middle" font-size="15px"><rect fill="rgb(255, 255, 255)" stroke="none" x="268" y="505" width="164" height="19" stroke-width="0"/><text x="349.12" y="519.32">context.getBean("id3");</text></g></g></g></svg>